G04 #@! TF.FileFunction,Copper,L2,Bot,Signal*
%FSLAX46Y46*%
G04 Gerber Fmt 4.6, Leading zero omitted, Abs format (unit mm)*
G04 Created by KiCad (PCBNEW 4.0.3-stable) date Thursday, December 22, 2016 'PMt' 07:32:28 PM*
%MOMM*%
%LPD*%
G01*
G04 APERTURE LIST*
%ADD10C,0.100000*%
%ADD11C,0.600000*%
%ADD12R,1.400000X1.400000*%
%ADD13C,1.400000*%
%ADD14C,0.254000*%
G04 APERTURE END LIST*
D10*
D11*
X93345000Y-41910000D03*
X87630000Y-45720000D03*
X93345000Y-58420000D03*
X107315000Y-43180000D03*
X107315000Y-58420000D03*
X74295000Y-43180000D03*
X74295000Y-58420000D03*
D12*
X101600000Y-48260000D03*
D13*
X104140000Y-48260000D03*
X101600000Y-50800000D03*
X104140000Y-50800000D03*
X101600000Y-53340000D03*
X104140000Y-53340000D03*
D11*
X83820000Y-43180000D03*
X83820000Y-53340000D03*
X82296000Y-57404000D03*
X82296000Y-50038000D03*
D14*
X83820000Y-53340000D02*
X83820000Y-43180000D01*
X82296000Y-50038000D02*
X82296000Y-57404000D01*
G36*
X109145000Y-60250000D02*
X72465000Y-60250000D01*
X72465000Y-53214430D01*
X75966132Y-53214430D01*
X76130902Y-53613203D01*
X76435733Y-53918566D01*
X76834217Y-54084031D01*
X77265690Y-54084408D01*
X77664463Y-53919638D01*
X77969826Y-53614807D01*
X78135291Y-53216323D01*
X78135668Y-52784850D01*
X77970898Y-52386077D01*
X77666067Y-52080714D01*
X77267583Y-51915249D01*
X76836110Y-51914872D01*
X76437337Y-52079642D01*
X76131974Y-52384473D01*
X75966509Y-52782957D01*
X75966132Y-53214430D01*
X72465000Y-53214430D01*
X72465000Y-50223167D01*
X81360838Y-50223167D01*
X81502883Y-50566943D01*
X81534000Y-50598114D01*
X81534000Y-56843534D01*
X81503808Y-56873673D01*
X81361162Y-57217201D01*
X81360838Y-57589167D01*
X81502883Y-57932943D01*
X81765673Y-58196192D01*
X82109201Y-58338838D01*
X82481167Y-58339162D01*
X82824943Y-58197117D01*
X83088192Y-57934327D01*
X83230838Y-57590799D01*
X83231162Y-57218833D01*
X83089117Y-56875057D01*
X83058000Y-56843886D01*
X83058000Y-53900114D01*
X83289673Y-54132192D01*
X83633201Y-54274838D01*
X84005167Y-54275162D01*
X84348943Y-54133117D01*
X84612192Y-53870327D01*
X84754838Y-53526799D01*
X84755162Y-53154833D01*
X84613117Y-52811057D01*
X84582000Y-52779886D01*
X84582000Y-47560000D01*
X100252560Y-47560000D01*
X100252560Y-48960000D01*
X100296838Y-49195317D01*
X100435910Y-49411441D01*
X100648110Y-49556431D01*
X100900000Y-49607440D01*
X100990326Y-49607440D01*
X100844771Y-49667582D01*
X100468902Y-50042796D01*
X100265232Y-50533287D01*
X100264769Y-51064383D01*
X100467582Y-51555229D01*
X100842796Y-51931098D01*
X101177527Y-52070091D01*
X100844771Y-52207582D01*
X100468902Y-52582796D01*
X100265232Y-53073287D01*
X100264769Y-53604383D01*
X100467582Y-54095229D01*
X100842796Y-54471098D01*
X101333287Y-54674768D01*
X101864383Y-54675231D01*
X102355229Y-54472418D01*
X102552716Y-54275275D01*
X103384331Y-54275275D01*
X103446169Y-54511042D01*
X103947122Y-54687419D01*
X104477440Y-54658664D01*
X104833831Y-54511042D01*
X104895669Y-54275275D01*
X104140000Y-53519605D01*
X103384331Y-54275275D01*
X102552716Y-54275275D01*
X102731098Y-54097204D01*
X102863316Y-53778788D01*
X102968958Y-54033831D01*
X103204725Y-54095669D01*
X103960395Y-53340000D01*
X104319605Y-53340000D01*
X105075275Y-54095669D01*
X105311042Y-54033831D01*
X105487419Y-53532878D01*
X105458664Y-53002560D01*
X105311042Y-52646169D01*
X105075275Y-52584331D01*
X104319605Y-53340000D01*
X103960395Y-53340000D01*
X103204725Y-52584331D01*
X102968958Y-52646169D01*
X102871804Y-52922111D01*
X102732418Y-52584771D01*
X102357204Y-52208902D01*
X102022473Y-52069909D01*
X102355229Y-51932418D01*
X102731098Y-51557204D01*
X102870091Y-51222473D01*
X103007582Y-51555229D01*
X103382796Y-51931098D01*
X103701212Y-52063316D01*
X103446169Y-52168958D01*
X103384331Y-52404725D01*
X104140000Y-53160395D01*
X104895669Y-52404725D01*
X104833831Y-52168958D01*
X104557889Y-52071804D01*
X104895229Y-51932418D01*
X105271098Y-51557204D01*
X105474768Y-51066713D01*
X105475231Y-50535617D01*
X105272418Y-50044771D01*
X104897204Y-49668902D01*
X104562473Y-49529909D01*
X104895229Y-49392418D01*
X105271098Y-49017204D01*
X105474768Y-48526713D01*
X105475231Y-47995617D01*
X105272418Y-47504771D01*
X104897204Y-47128902D01*
X104406713Y-46925232D01*
X103875617Y-46924769D01*
X103384771Y-47127582D01*
X103008902Y-47502796D01*
X102947440Y-47650813D01*
X102947440Y-47560000D01*
X102903162Y-47324683D01*
X102764090Y-47108559D01*
X102551890Y-46963569D01*
X102300000Y-46912560D01*
X100900000Y-46912560D01*
X100664683Y-46956838D01*
X100448559Y-47095910D01*
X100303569Y-47308110D01*
X100252560Y-47560000D01*
X84582000Y-47560000D01*
X84582000Y-43740466D01*
X84612192Y-43710327D01*
X84754838Y-43366799D01*
X84755162Y-42994833D01*
X84613117Y-42651057D01*
X84350327Y-42387808D01*
X84006799Y-42245162D01*
X83634833Y-42244838D01*
X83291057Y-42386883D01*
X83027808Y-42649673D01*
X82885162Y-42993201D01*
X82884838Y-43365167D01*
X83026883Y-43708943D01*
X83058000Y-43740114D01*
X83058000Y-49477886D01*
X82826327Y-49245808D01*
X82482799Y-49103162D01*
X82110833Y-49102838D01*
X81767057Y-49244883D01*
X81503808Y-49507673D01*
X81361162Y-49851201D01*
X81360838Y-50223167D01*
X72465000Y-50223167D01*
X72465000Y-48815150D01*
X75966132Y-48815150D01*
X76130902Y-49213923D01*
X76435733Y-49519286D01*
X76834217Y-49684751D01*
X77265690Y-49685128D01*
X77664463Y-49520358D01*
X77969826Y-49215527D01*
X78135291Y-48817043D01*
X78135668Y-48385570D01*
X77970898Y-47986797D01*
X77666067Y-47681434D01*
X77267583Y-47515969D01*
X76836110Y-47515592D01*
X76437337Y-47680362D01*
X76131974Y-47985193D01*
X75966509Y-48383677D01*
X75966132Y-48815150D01*
X72465000Y-48815150D01*
X72465000Y-41350000D01*
X109145000Y-41350000D01*
X109145000Y-60250000D01*
X109145000Y-60250000D01*
G37*
X109145000Y-60250000D02*
X72465000Y-60250000D01*
X72465000Y-53214430D01*
X75966132Y-53214430D01*
X76130902Y-53613203D01*
X76435733Y-53918566D01*
X76834217Y-54084031D01*
X77265690Y-54084408D01*
X77664463Y-53919638D01*
X77969826Y-53614807D01*
X78135291Y-53216323D01*
X78135668Y-52784850D01*
X77970898Y-52386077D01*
X77666067Y-52080714D01*
X77267583Y-51915249D01*
X76836110Y-51914872D01*
X76437337Y-52079642D01*
X76131974Y-52384473D01*
X75966509Y-52782957D01*
X75966132Y-53214430D01*
X72465000Y-53214430D01*
X72465000Y-50223167D01*
X81360838Y-50223167D01*
X81502883Y-50566943D01*
X81534000Y-50598114D01*
X81534000Y-56843534D01*
X81503808Y-56873673D01*
X81361162Y-57217201D01*
X81360838Y-57589167D01*
X81502883Y-57932943D01*
X81765673Y-58196192D01*
X82109201Y-58338838D01*
X82481167Y-58339162D01*
X82824943Y-58197117D01*
X83088192Y-57934327D01*
X83230838Y-57590799D01*
X83231162Y-57218833D01*
X83089117Y-56875057D01*
X83058000Y-56843886D01*
X83058000Y-53900114D01*
X83289673Y-54132192D01*
X83633201Y-54274838D01*
X84005167Y-54275162D01*
X84348943Y-54133117D01*
X84612192Y-53870327D01*
X84754838Y-53526799D01*
X84755162Y-53154833D01*
X84613117Y-52811057D01*
X84582000Y-52779886D01*
X84582000Y-47560000D01*
X100252560Y-47560000D01*
X100252560Y-48960000D01*
X100296838Y-49195317D01*
X100435910Y-49411441D01*
X100648110Y-49556431D01*
X100900000Y-49607440D01*
X100990326Y-49607440D01*
X100844771Y-49667582D01*
X100468902Y-50042796D01*
X100265232Y-50533287D01*
X100264769Y-51064383D01*
X100467582Y-51555229D01*
X100842796Y-51931098D01*
X101177527Y-52070091D01*
X100844771Y-52207582D01*
X100468902Y-52582796D01*
X100265232Y-53073287D01*
X100264769Y-53604383D01*
X100467582Y-54095229D01*
X100842796Y-54471098D01*
X101333287Y-54674768D01*
X101864383Y-54675231D01*
X102355229Y-54472418D01*
X102552716Y-54275275D01*
X103384331Y-54275275D01*
X103446169Y-54511042D01*
X103947122Y-54687419D01*
X104477440Y-54658664D01*
X104833831Y-54511042D01*
X104895669Y-54275275D01*
X104140000Y-53519605D01*
X103384331Y-54275275D01*
X102552716Y-54275275D01*
X102731098Y-54097204D01*
X102863316Y-53778788D01*
X102968958Y-54033831D01*
X103204725Y-54095669D01*
X103960395Y-53340000D01*
X104319605Y-53340000D01*
X105075275Y-54095669D01*
X105311042Y-54033831D01*
X105487419Y-53532878D01*
X105458664Y-53002560D01*
X105311042Y-52646169D01*
X105075275Y-52584331D01*
X104319605Y-53340000D01*
X103960395Y-53340000D01*
X103204725Y-52584331D01*
X102968958Y-52646169D01*
X102871804Y-52922111D01*
X102732418Y-52584771D01*
X102357204Y-52208902D01*
X102022473Y-52069909D01*
X102355229Y-51932418D01*
X102731098Y-51557204D01*
X102870091Y-51222473D01*
X103007582Y-51555229D01*
X103382796Y-51931098D01*
X103701212Y-52063316D01*
X103446169Y-52168958D01*
X103384331Y-52404725D01*
X104140000Y-53160395D01*
X104895669Y-52404725D01*
X104833831Y-52168958D01*
X104557889Y-52071804D01*
X104895229Y-51932418D01*
X105271098Y-51557204D01*
X105474768Y-51066713D01*
X105475231Y-50535617D01*
X105272418Y-50044771D01*
X104897204Y-49668902D01*
X104562473Y-49529909D01*
X104895229Y-49392418D01*
X105271098Y-49017204D01*
X105474768Y-48526713D01*
X105475231Y-47995617D01*
X105272418Y-47504771D01*
X104897204Y-47128902D01*
X104406713Y-46925232D01*
X103875617Y-46924769D01*
X103384771Y-47127582D01*
X103008902Y-47502796D01*
X102947440Y-47650813D01*
X102947440Y-47560000D01*
X102903162Y-47324683D01*
X102764090Y-47108559D01*
X102551890Y-46963569D01*
X102300000Y-46912560D01*
X100900000Y-46912560D01*
X100664683Y-46956838D01*
X100448559Y-47095910D01*
X100303569Y-47308110D01*
X100252560Y-47560000D01*
X84582000Y-47560000D01*
X84582000Y-43740466D01*
X84612192Y-43710327D01*
X84754838Y-43366799D01*
X84755162Y-42994833D01*
X84613117Y-42651057D01*
X84350327Y-42387808D01*
X84006799Y-42245162D01*
X83634833Y-42244838D01*
X83291057Y-42386883D01*
X83027808Y-42649673D01*
X82885162Y-42993201D01*
X82884838Y-43365167D01*
X83026883Y-43708943D01*
X83058000Y-43740114D01*
X83058000Y-49477886D01*
X82826327Y-49245808D01*
X82482799Y-49103162D01*
X82110833Y-49102838D01*
X81767057Y-49244883D01*
X81503808Y-49507673D01*
X81361162Y-49851201D01*
X81360838Y-50223167D01*
X72465000Y-50223167D01*
X72465000Y-48815150D01*
X75966132Y-48815150D01*
X76130902Y-49213923D01*
X76435733Y-49519286D01*
X76834217Y-49684751D01*
X77265690Y-49685128D01*
X77664463Y-49520358D01*
X77969826Y-49215527D01*
X78135291Y-48817043D01*
X78135668Y-48385570D01*
X77970898Y-47986797D01*
X77666067Y-47681434D01*
X77267583Y-47515969D01*
X76836110Y-47515592D01*
X76437337Y-47680362D01*
X76131974Y-47985193D01*
X75966509Y-48383677D01*
X75966132Y-48815150D01*
X72465000Y-48815150D01*
X72465000Y-41350000D01*
X109145000Y-41350000D01*
X109145000Y-60250000D01*
M02*
