G04 #@! TF.FileFunction,Copper,L1,Top,Signal*
%FSLAX46Y46*%
G04 Gerber Fmt 4.6, Leading zero omitted, Abs format (unit mm)*
G04 Created by KiCad (PCBNEW 4.0.3-stable) date Thursday, December 22, 2016 'PMt' 07:32:28 PM*
%MOMM*%
%LPD*%
G01*
G04 APERTURE LIST*
%ADD10C,0.100000*%
%ADD11C,0.600000*%
%ADD12R,1.250000X1.500000*%
%ADD13R,1.220000X0.910000*%
%ADD14R,2.000000X1.600000*%
%ADD15R,1.550000X0.600000*%
%ADD16R,2.301240X0.500380*%
%ADD17R,2.499360X1.998980*%
%ADD18R,1.300000X1.500000*%
%ADD19R,1.400000X1.400000*%
%ADD20C,1.400000*%
%ADD21C,0.508000*%
%ADD22C,0.254000*%
G04 APERTURE END LIST*
D10*
D11*
X93345000Y-41910000D03*
X87630000Y-45720000D03*
X93345000Y-58420000D03*
X107315000Y-43180000D03*
X107315000Y-58420000D03*
D12*
X85090000Y-43200000D03*
X85090000Y-45700000D03*
D13*
X85090000Y-51165000D03*
X85090000Y-47895000D03*
X87630000Y-57515000D03*
X87630000Y-54245000D03*
D14*
X80740000Y-43180000D03*
X76740000Y-43180000D03*
D15*
X92550000Y-44450000D03*
X92550000Y-45720000D03*
X92550000Y-46990000D03*
X92550000Y-48260000D03*
X97950000Y-48260000D03*
X97950000Y-46990000D03*
X97950000Y-45720000D03*
X97950000Y-44450000D03*
D16*
X79649320Y-49199800D03*
X79649320Y-49999900D03*
X79649320Y-50800000D03*
X79649320Y-51600100D03*
X79649320Y-52400200D03*
D17*
X79550260Y-46349920D03*
X74051160Y-46349920D03*
X79550260Y-55250080D03*
X74051160Y-55250080D03*
D18*
X83820000Y-54530000D03*
X83820000Y-57230000D03*
X88900000Y-48180000D03*
X88900000Y-50880000D03*
X91440000Y-54530000D03*
X91440000Y-57230000D03*
D11*
X74295000Y-43180000D03*
X74295000Y-58420000D03*
D19*
X101600000Y-48260000D03*
D20*
X104140000Y-48260000D03*
X101600000Y-50800000D03*
X104140000Y-50800000D03*
X101600000Y-53340000D03*
X104140000Y-53340000D03*
D11*
X83820000Y-43180000D03*
X83820000Y-53340000D03*
X82296000Y-57404000D03*
X82296000Y-50038000D03*
D21*
X80740000Y-43180000D02*
X83820000Y-43180000D01*
X83820000Y-43180000D02*
X85070000Y-43180000D01*
D22*
X83820000Y-54530000D02*
X83820000Y-53340000D01*
D21*
X104140000Y-48260000D02*
X100330000Y-44450000D01*
X100330000Y-44450000D02*
X97950000Y-44450000D01*
X85090000Y-43200000D02*
X97508000Y-43200000D01*
X97508000Y-43200000D02*
X97950000Y-43642000D01*
X97950000Y-43642000D02*
X97950000Y-44450000D01*
X85070000Y-43180000D02*
X85090000Y-43200000D01*
D22*
X79649320Y-52400200D02*
X79649320Y-55151020D01*
X79649320Y-55151020D02*
X79550260Y-55250080D01*
X88900000Y-50880000D02*
X85375000Y-50880000D01*
X85375000Y-50880000D02*
X85090000Y-51165000D01*
X79649320Y-50800000D02*
X84725000Y-50800000D01*
X84725000Y-50800000D02*
X85090000Y-51165000D01*
X82296000Y-57404000D02*
X83646000Y-57404000D01*
X83646000Y-57404000D02*
X83820000Y-57230000D01*
X79649320Y-49999900D02*
X82257900Y-49999900D01*
X82257900Y-49999900D02*
X82296000Y-50038000D01*
X91440000Y-57230000D02*
X87915000Y-57230000D01*
X87915000Y-57230000D02*
X87630000Y-57515000D01*
X83820000Y-57230000D02*
X87345000Y-57230000D01*
X87345000Y-57230000D02*
X87630000Y-57515000D01*
D21*
X79649320Y-49199800D02*
X79333768Y-49199800D01*
X79333768Y-49199800D02*
X76740000Y-46606032D01*
X76740000Y-46606032D02*
X76740000Y-44488000D01*
X76740000Y-44488000D02*
X76740000Y-43180000D01*
D22*
X92550000Y-44450000D02*
X93579000Y-44450000D01*
X93579000Y-44450000D02*
X96393989Y-47264989D01*
X99860733Y-52476401D02*
X100736401Y-52476401D01*
X96393989Y-47264989D02*
X96393989Y-49009657D01*
X96393989Y-49009657D02*
X99860733Y-52476401D01*
X100736401Y-52476401D02*
X101600000Y-53340000D01*
X88900000Y-48180000D02*
X88900000Y-47176000D01*
X91521000Y-45720000D02*
X92550000Y-45720000D01*
X88900000Y-47176000D02*
X90356000Y-45720000D01*
X90356000Y-45720000D02*
X91521000Y-45720000D01*
X91440000Y-54530000D02*
X91440000Y-47625000D01*
X91440000Y-47625000D02*
X92075000Y-46990000D01*
X92075000Y-46990000D02*
X92550000Y-46990000D01*
X104140000Y-50800000D02*
X102790601Y-49450601D01*
X102790601Y-49450601D02*
X100169601Y-49450601D01*
X98979000Y-48260000D02*
X97950000Y-48260000D01*
X100169601Y-49450601D02*
X98979000Y-48260000D01*
X101600000Y-48260000D02*
X100482400Y-48260000D01*
X100482400Y-48260000D02*
X99212400Y-46990000D01*
X99212400Y-46990000D02*
X98979000Y-46990000D01*
X98979000Y-46990000D02*
X97950000Y-46990000D01*
X101600000Y-50800000D02*
X98826398Y-50800000D01*
X98826398Y-50800000D02*
X96847999Y-48821601D01*
X97475000Y-45720000D02*
X97950000Y-45720000D01*
X96847999Y-48821601D02*
X96847999Y-46347001D01*
X96847999Y-46347001D02*
X97475000Y-45720000D01*
G36*
X109145000Y-60250000D02*
X72465000Y-60250000D01*
X72465000Y-56797514D01*
X72675171Y-56884570D01*
X73765410Y-56884570D01*
X73924160Y-56725820D01*
X73924160Y-55377080D01*
X74178160Y-55377080D01*
X74178160Y-56725820D01*
X74336910Y-56884570D01*
X75427149Y-56884570D01*
X75660538Y-56787897D01*
X75839167Y-56609269D01*
X75935840Y-56375880D01*
X75935840Y-55535830D01*
X77665580Y-55535830D01*
X77665580Y-56375880D01*
X77762253Y-56609269D01*
X77940882Y-56787897D01*
X78174271Y-56884570D01*
X79264510Y-56884570D01*
X79423260Y-56725820D01*
X79423260Y-55377080D01*
X79677260Y-55377080D01*
X79677260Y-56725820D01*
X79836010Y-56884570D01*
X80926249Y-56884570D01*
X81159638Y-56787897D01*
X81338267Y-56609269D01*
X81434940Y-56375880D01*
X81434940Y-55535830D01*
X81276190Y-55377080D01*
X79677260Y-55377080D01*
X79423260Y-55377080D01*
X77824330Y-55377080D01*
X77665580Y-55535830D01*
X75935840Y-55535830D01*
X75777090Y-55377080D01*
X74178160Y-55377080D01*
X73924160Y-55377080D01*
X73904160Y-55377080D01*
X73904160Y-55123080D01*
X73924160Y-55123080D01*
X73924160Y-53774340D01*
X74178160Y-53774340D01*
X74178160Y-55123080D01*
X75777090Y-55123080D01*
X75935840Y-54964330D01*
X75935840Y-54124280D01*
X77665580Y-54124280D01*
X77665580Y-54964330D01*
X77824330Y-55123080D01*
X79423260Y-55123080D01*
X79423260Y-53774340D01*
X79677260Y-53774340D01*
X79677260Y-55123080D01*
X81276190Y-55123080D01*
X81434940Y-54964330D01*
X81434940Y-54124280D01*
X81338267Y-53890891D01*
X81159638Y-53712263D01*
X80926249Y-53615590D01*
X79836010Y-53615590D01*
X79677260Y-53774340D01*
X79423260Y-53774340D01*
X79264510Y-53615590D01*
X78174271Y-53615590D01*
X77940882Y-53712263D01*
X77762253Y-53890891D01*
X77665580Y-54124280D01*
X75935840Y-54124280D01*
X75839167Y-53890891D01*
X75660538Y-53712263D01*
X75427149Y-53615590D01*
X74336910Y-53615590D01*
X74178160Y-53774340D01*
X73924160Y-53774340D01*
X73765410Y-53615590D01*
X72675171Y-53615590D01*
X72465000Y-53702646D01*
X72465000Y-47897354D01*
X72675171Y-47984410D01*
X73765410Y-47984410D01*
X73924160Y-47825660D01*
X73924160Y-46476920D01*
X73904160Y-46476920D01*
X73904160Y-46222920D01*
X73924160Y-46222920D01*
X73924160Y-44874180D01*
X74178160Y-44874180D01*
X74178160Y-46222920D01*
X74198160Y-46222920D01*
X74198160Y-46476920D01*
X74178160Y-46476920D01*
X74178160Y-47825660D01*
X74336910Y-47984410D01*
X75427149Y-47984410D01*
X75660538Y-47887737D01*
X75839167Y-47709109D01*
X75935840Y-47475720D01*
X75935840Y-46971933D01*
X76072193Y-47176000D01*
X76111382Y-47234650D01*
X76522079Y-47645347D01*
X76437337Y-47680362D01*
X76131974Y-47985193D01*
X75966509Y-48383677D01*
X75966132Y-48815150D01*
X76130902Y-49213923D01*
X76435733Y-49519286D01*
X76834217Y-49684751D01*
X77265690Y-49685128D01*
X77664463Y-49520358D01*
X77851260Y-49333886D01*
X77851260Y-49449990D01*
X77880493Y-49605352D01*
X77851260Y-49749710D01*
X77851260Y-50250090D01*
X77880493Y-50405452D01*
X77851260Y-50549810D01*
X77851260Y-51050190D01*
X77880493Y-51205552D01*
X77851260Y-51349910D01*
X77851260Y-51850290D01*
X77877583Y-51990184D01*
X77863700Y-52023700D01*
X77863700Y-52116355D01*
X78008500Y-52261155D01*
X78016249Y-52273198D01*
X77863700Y-52273198D01*
X77863700Y-52278692D01*
X77666067Y-52080714D01*
X77267583Y-51915249D01*
X76836110Y-51914872D01*
X76437337Y-52079642D01*
X76131974Y-52384473D01*
X75966509Y-52782957D01*
X75966132Y-53214430D01*
X76130902Y-53613203D01*
X76435733Y-53918566D01*
X76834217Y-54084031D01*
X77265690Y-54084408D01*
X77664463Y-53919638D01*
X77969826Y-53614807D01*
X78135291Y-53216323D01*
X78135318Y-53185033D01*
X78139002Y-53188717D01*
X78372391Y-53285390D01*
X79363570Y-53285390D01*
X79522320Y-53126640D01*
X79522320Y-52525295D01*
X79776320Y-52525295D01*
X79776320Y-53126640D01*
X79935070Y-53285390D01*
X80926249Y-53285390D01*
X81159638Y-53188717D01*
X81338267Y-53010089D01*
X81434940Y-52776700D01*
X81434940Y-52684045D01*
X81276190Y-52525295D01*
X79776320Y-52525295D01*
X79522320Y-52525295D01*
X79502320Y-52525295D01*
X79502320Y-52497730D01*
X80799940Y-52497730D01*
X81035257Y-52453452D01*
X81251381Y-52314380D01*
X81282588Y-52268707D01*
X81434940Y-52116355D01*
X81434940Y-52023700D01*
X81419710Y-51986931D01*
X81447380Y-51850290D01*
X81447380Y-51562000D01*
X83832560Y-51562000D01*
X83832560Y-51620000D01*
X83876838Y-51855317D01*
X84015910Y-52071441D01*
X84228110Y-52216431D01*
X84480000Y-52267440D01*
X85700000Y-52267440D01*
X85935317Y-52223162D01*
X86151441Y-52084090D01*
X86296431Y-51871890D01*
X86342985Y-51642000D01*
X87604818Y-51642000D01*
X87646838Y-51865317D01*
X87785910Y-52081441D01*
X87998110Y-52226431D01*
X88250000Y-52277440D01*
X89550000Y-52277440D01*
X89785317Y-52233162D01*
X90001441Y-52094090D01*
X90146431Y-51881890D01*
X90197440Y-51630000D01*
X90197440Y-50130000D01*
X90153162Y-49894683D01*
X90014090Y-49678559D01*
X89801890Y-49533569D01*
X89788803Y-49530919D01*
X90001441Y-49394090D01*
X90146431Y-49181890D01*
X90197440Y-48930000D01*
X90197440Y-47430000D01*
X90153162Y-47194683D01*
X90077120Y-47076510D01*
X90671630Y-46482000D01*
X91169681Y-46482000D01*
X91127560Y-46690000D01*
X91127560Y-46859810D01*
X90901185Y-47086185D01*
X90736004Y-47333395D01*
X90678000Y-47625000D01*
X90678000Y-53153634D01*
X90554683Y-53176838D01*
X90338559Y-53315910D01*
X90193569Y-53528110D01*
X90142560Y-53780000D01*
X90142560Y-55280000D01*
X90186838Y-55515317D01*
X90325910Y-55731441D01*
X90538110Y-55876431D01*
X90551197Y-55879081D01*
X90338559Y-56015910D01*
X90193569Y-56228110D01*
X90144990Y-56468000D01*
X88498375Y-56468000D01*
X88491890Y-56463569D01*
X88240000Y-56412560D01*
X87020000Y-56412560D01*
X86784683Y-56456838D01*
X86767337Y-56468000D01*
X85115182Y-56468000D01*
X85073162Y-56244683D01*
X84934090Y-56028559D01*
X84721890Y-55883569D01*
X84708803Y-55880919D01*
X84921441Y-55744090D01*
X85066431Y-55531890D01*
X85117440Y-55280000D01*
X85117440Y-54530750D01*
X86385000Y-54530750D01*
X86385000Y-54826309D01*
X86481673Y-55059698D01*
X86660301Y-55238327D01*
X86893690Y-55335000D01*
X87344250Y-55335000D01*
X87503000Y-55176250D01*
X87503000Y-54372000D01*
X87757000Y-54372000D01*
X87757000Y-55176250D01*
X87915750Y-55335000D01*
X88366310Y-55335000D01*
X88599699Y-55238327D01*
X88778327Y-55059698D01*
X88875000Y-54826309D01*
X88875000Y-54530750D01*
X88716250Y-54372000D01*
X87757000Y-54372000D01*
X87503000Y-54372000D01*
X86543750Y-54372000D01*
X86385000Y-54530750D01*
X85117440Y-54530750D01*
X85117440Y-53780000D01*
X85095555Y-53663691D01*
X86385000Y-53663691D01*
X86385000Y-53959250D01*
X86543750Y-54118000D01*
X87503000Y-54118000D01*
X87503000Y-53313750D01*
X87757000Y-53313750D01*
X87757000Y-54118000D01*
X88716250Y-54118000D01*
X88875000Y-53959250D01*
X88875000Y-53663691D01*
X88778327Y-53430302D01*
X88599699Y-53251673D01*
X88366310Y-53155000D01*
X87915750Y-53155000D01*
X87757000Y-53313750D01*
X87503000Y-53313750D01*
X87344250Y-53155000D01*
X86893690Y-53155000D01*
X86660301Y-53251673D01*
X86481673Y-53430302D01*
X86385000Y-53663691D01*
X85095555Y-53663691D01*
X85073162Y-53544683D01*
X84934090Y-53328559D01*
X84755117Y-53206272D01*
X84755162Y-53154833D01*
X84613117Y-52811057D01*
X84350327Y-52547808D01*
X84006799Y-52405162D01*
X83634833Y-52404838D01*
X83291057Y-52546883D01*
X83027808Y-52809673D01*
X82885162Y-53153201D01*
X82885114Y-53208735D01*
X82718559Y-53315910D01*
X82573569Y-53528110D01*
X82522560Y-53780000D01*
X82522560Y-55280000D01*
X82566838Y-55515317D01*
X82705910Y-55731441D01*
X82918110Y-55876431D01*
X82931197Y-55879081D01*
X82718559Y-56015910D01*
X82573569Y-56228110D01*
X82522560Y-56480000D01*
X82522560Y-56485672D01*
X82482799Y-56469162D01*
X82110833Y-56468838D01*
X81767057Y-56610883D01*
X81503808Y-56873673D01*
X81361162Y-57217201D01*
X81360838Y-57589167D01*
X81502883Y-57932943D01*
X81765673Y-58196192D01*
X82109201Y-58338838D01*
X82481167Y-58339162D01*
X82611798Y-58285187D01*
X82705910Y-58431441D01*
X82918110Y-58576431D01*
X83170000Y-58627440D01*
X84470000Y-58627440D01*
X84705317Y-58583162D01*
X84921441Y-58444090D01*
X85066431Y-58231890D01*
X85115010Y-57992000D01*
X86376700Y-57992000D01*
X86416838Y-58205317D01*
X86555910Y-58421441D01*
X86768110Y-58566431D01*
X87020000Y-58617440D01*
X88240000Y-58617440D01*
X88475317Y-58573162D01*
X88691441Y-58434090D01*
X88836431Y-58221890D01*
X88882985Y-57992000D01*
X90144818Y-57992000D01*
X90186838Y-58215317D01*
X90325910Y-58431441D01*
X90538110Y-58576431D01*
X90790000Y-58627440D01*
X92090000Y-58627440D01*
X92325317Y-58583162D01*
X92541441Y-58444090D01*
X92686431Y-58231890D01*
X92737440Y-57980000D01*
X92737440Y-56480000D01*
X92693162Y-56244683D01*
X92554090Y-56028559D01*
X92341890Y-55883569D01*
X92328803Y-55880919D01*
X92541441Y-55744090D01*
X92686431Y-55531890D01*
X92737440Y-55280000D01*
X92737440Y-53780000D01*
X92693162Y-53544683D01*
X92554090Y-53328559D01*
X92341890Y-53183569D01*
X92202000Y-53155241D01*
X92202000Y-49195000D01*
X92264250Y-49195000D01*
X92423000Y-49036250D01*
X92423000Y-48387000D01*
X92677000Y-48387000D01*
X92677000Y-49036250D01*
X92835750Y-49195000D01*
X93451309Y-49195000D01*
X93684698Y-49098327D01*
X93863327Y-48919699D01*
X93960000Y-48686310D01*
X93960000Y-48545750D01*
X93801250Y-48387000D01*
X92677000Y-48387000D01*
X92423000Y-48387000D01*
X92403000Y-48387000D01*
X92403000Y-48133000D01*
X92423000Y-48133000D01*
X92423000Y-48113000D01*
X92677000Y-48113000D01*
X92677000Y-48133000D01*
X93801250Y-48133000D01*
X93960000Y-47974250D01*
X93960000Y-47833690D01*
X93870194Y-47616878D01*
X93921431Y-47541890D01*
X93972440Y-47290000D01*
X93972440Y-46690000D01*
X93928162Y-46454683D01*
X93864322Y-46355472D01*
X93921431Y-46271890D01*
X93972440Y-46020000D01*
X93972440Y-45921070D01*
X95631989Y-47580620D01*
X95631989Y-49009657D01*
X95689993Y-49301262D01*
X95836389Y-49520358D01*
X95855174Y-49548472D01*
X99321917Y-53015216D01*
X99528426Y-53153201D01*
X99569128Y-53180397D01*
X99860733Y-53238401D01*
X100265088Y-53238401D01*
X100264769Y-53604383D01*
X100467582Y-54095229D01*
X100842796Y-54471098D01*
X101333287Y-54674768D01*
X101864383Y-54675231D01*
X102355229Y-54472418D01*
X102552716Y-54275275D01*
X103384331Y-54275275D01*
X103446169Y-54511042D01*
X103947122Y-54687419D01*
X104477440Y-54658664D01*
X104833831Y-54511042D01*
X104895669Y-54275275D01*
X104140000Y-53519605D01*
X103384331Y-54275275D01*
X102552716Y-54275275D01*
X102731098Y-54097204D01*
X102863316Y-53778788D01*
X102968958Y-54033831D01*
X103204725Y-54095669D01*
X103960395Y-53340000D01*
X104319605Y-53340000D01*
X105075275Y-54095669D01*
X105311042Y-54033831D01*
X105487419Y-53532878D01*
X105458664Y-53002560D01*
X105311042Y-52646169D01*
X105075275Y-52584331D01*
X104319605Y-53340000D01*
X103960395Y-53340000D01*
X103204725Y-52584331D01*
X102968958Y-52646169D01*
X102871804Y-52922111D01*
X102732418Y-52584771D01*
X102357204Y-52208902D01*
X102022473Y-52069909D01*
X102355229Y-51932418D01*
X102731098Y-51557204D01*
X102870091Y-51222473D01*
X103007582Y-51555229D01*
X103382796Y-51931098D01*
X103701212Y-52063316D01*
X103446169Y-52168958D01*
X103384331Y-52404725D01*
X104140000Y-53160395D01*
X104895669Y-52404725D01*
X104833831Y-52168958D01*
X104557889Y-52071804D01*
X104895229Y-51932418D01*
X105271098Y-51557204D01*
X105474768Y-51066713D01*
X105475231Y-50535617D01*
X105272418Y-50044771D01*
X104897204Y-49668902D01*
X104562473Y-49529909D01*
X104895229Y-49392418D01*
X105271098Y-49017204D01*
X105474768Y-48526713D01*
X105475231Y-47995617D01*
X105272418Y-47504771D01*
X104897204Y-47128902D01*
X104406713Y-46925232D01*
X104062168Y-46924932D01*
X100958618Y-43821382D01*
X100845807Y-43746004D01*
X100670206Y-43628671D01*
X100330000Y-43561000D01*
X98987766Y-43561000D01*
X98976890Y-43553569D01*
X98814884Y-43520762D01*
X98771329Y-43301794D01*
X98578618Y-43013382D01*
X98136618Y-42571382D01*
X97861880Y-42387808D01*
X97848206Y-42378671D01*
X97508000Y-42311000D01*
X86336285Y-42311000D01*
X86318162Y-42214683D01*
X86179090Y-41998559D01*
X85966890Y-41853569D01*
X85715000Y-41802560D01*
X84465000Y-41802560D01*
X84229683Y-41846838D01*
X84013559Y-41985910D01*
X83868569Y-42198110D01*
X83859067Y-42245033D01*
X83634833Y-42244838D01*
X83523112Y-42291000D01*
X82370693Y-42291000D01*
X82343162Y-42144683D01*
X82204090Y-41928559D01*
X81991890Y-41783569D01*
X81740000Y-41732560D01*
X79740000Y-41732560D01*
X79504683Y-41776838D01*
X79288559Y-41915910D01*
X79143569Y-42128110D01*
X79092560Y-42380000D01*
X79092560Y-43980000D01*
X79136838Y-44215317D01*
X79275910Y-44431441D01*
X79488110Y-44576431D01*
X79740000Y-44627440D01*
X81740000Y-44627440D01*
X81975317Y-44583162D01*
X82191441Y-44444090D01*
X82336431Y-44231890D01*
X82369417Y-44069000D01*
X83522811Y-44069000D01*
X83633201Y-44114838D01*
X83848612Y-44115026D01*
X83861838Y-44185317D01*
X84000910Y-44401441D01*
X84069006Y-44447969D01*
X83926673Y-44590302D01*
X83830000Y-44823691D01*
X83830000Y-45414250D01*
X83988750Y-45573000D01*
X84963000Y-45573000D01*
X84963000Y-45553000D01*
X85217000Y-45553000D01*
X85217000Y-45573000D01*
X86191250Y-45573000D01*
X86350000Y-45414250D01*
X86350000Y-44823691D01*
X86253327Y-44590302D01*
X86112090Y-44449064D01*
X86166441Y-44414090D01*
X86311431Y-44201890D01*
X86334292Y-44089000D01*
X91139913Y-44089000D01*
X91127560Y-44150000D01*
X91127560Y-44750000D01*
X91166698Y-44958000D01*
X90356000Y-44958000D01*
X90064395Y-45016004D01*
X89970687Y-45078618D01*
X89817185Y-45181185D01*
X88361185Y-46637185D01*
X88264048Y-46782560D01*
X88250000Y-46782560D01*
X88014683Y-46826838D01*
X87798559Y-46965910D01*
X87653569Y-47178110D01*
X87602560Y-47430000D01*
X87602560Y-48930000D01*
X87646838Y-49165317D01*
X87785910Y-49381441D01*
X87998110Y-49526431D01*
X88011197Y-49529081D01*
X87798559Y-49665910D01*
X87653569Y-49878110D01*
X87604990Y-50118000D01*
X85958375Y-50118000D01*
X85951890Y-50113569D01*
X85700000Y-50062560D01*
X84848471Y-50062560D01*
X84725000Y-50038000D01*
X83231001Y-50038000D01*
X83231162Y-49852833D01*
X83089117Y-49509057D01*
X82826327Y-49245808D01*
X82482799Y-49103162D01*
X82110833Y-49102838D01*
X81783957Y-49237900D01*
X81447380Y-49237900D01*
X81447380Y-48949610D01*
X81403102Y-48714293D01*
X81264030Y-48498169D01*
X81051830Y-48353179D01*
X80799940Y-48302170D01*
X79693374Y-48302170D01*
X79571954Y-48180750D01*
X83845000Y-48180750D01*
X83845000Y-48476309D01*
X83941673Y-48709698D01*
X84120301Y-48888327D01*
X84353690Y-48985000D01*
X84804250Y-48985000D01*
X84963000Y-48826250D01*
X84963000Y-48022000D01*
X85217000Y-48022000D01*
X85217000Y-48826250D01*
X85375750Y-48985000D01*
X85826310Y-48985000D01*
X86059699Y-48888327D01*
X86238327Y-48709698D01*
X86335000Y-48476309D01*
X86335000Y-48180750D01*
X86176250Y-48022000D01*
X85217000Y-48022000D01*
X84963000Y-48022000D01*
X84003750Y-48022000D01*
X83845000Y-48180750D01*
X79571954Y-48180750D01*
X79320062Y-47928858D01*
X79423260Y-47825660D01*
X79423260Y-46476920D01*
X79677260Y-46476920D01*
X79677260Y-47825660D01*
X79836010Y-47984410D01*
X80926249Y-47984410D01*
X81159638Y-47887737D01*
X81338267Y-47709109D01*
X81434940Y-47475720D01*
X81434940Y-46635670D01*
X81276190Y-46476920D01*
X79677260Y-46476920D01*
X79423260Y-46476920D01*
X79403260Y-46476920D01*
X79403260Y-46222920D01*
X79423260Y-46222920D01*
X79423260Y-44874180D01*
X79677260Y-44874180D01*
X79677260Y-46222920D01*
X81276190Y-46222920D01*
X81434940Y-46064170D01*
X81434940Y-45985750D01*
X83830000Y-45985750D01*
X83830000Y-46576309D01*
X83926673Y-46809698D01*
X84069474Y-46952500D01*
X83941673Y-47080302D01*
X83845000Y-47313691D01*
X83845000Y-47609250D01*
X84003750Y-47768000D01*
X84963000Y-47768000D01*
X84963000Y-46963750D01*
X84944250Y-46945000D01*
X84963000Y-46926250D01*
X84963000Y-45827000D01*
X85217000Y-45827000D01*
X85217000Y-46926250D01*
X85235750Y-46945000D01*
X85217000Y-46963750D01*
X85217000Y-47768000D01*
X86176250Y-47768000D01*
X86335000Y-47609250D01*
X86335000Y-47313691D01*
X86238327Y-47080302D01*
X86110526Y-46952500D01*
X86253327Y-46809698D01*
X86350000Y-46576309D01*
X86350000Y-45985750D01*
X86191250Y-45827000D01*
X85217000Y-45827000D01*
X84963000Y-45827000D01*
X83988750Y-45827000D01*
X83830000Y-45985750D01*
X81434940Y-45985750D01*
X81434940Y-45224120D01*
X81338267Y-44990731D01*
X81159638Y-44812103D01*
X80926249Y-44715430D01*
X79836010Y-44715430D01*
X79677260Y-44874180D01*
X79423260Y-44874180D01*
X79264510Y-44715430D01*
X78174271Y-44715430D01*
X77940882Y-44812103D01*
X77762253Y-44990731D01*
X77665580Y-45224120D01*
X77665580Y-46064170D01*
X77824328Y-46222918D01*
X77665580Y-46222918D01*
X77665580Y-46274376D01*
X77629000Y-46237796D01*
X77629000Y-44627440D01*
X77740000Y-44627440D01*
X77975317Y-44583162D01*
X78191441Y-44444090D01*
X78336431Y-44231890D01*
X78387440Y-43980000D01*
X78387440Y-42380000D01*
X78343162Y-42144683D01*
X78204090Y-41928559D01*
X77991890Y-41783569D01*
X77740000Y-41732560D01*
X75740000Y-41732560D01*
X75504683Y-41776838D01*
X75288559Y-41915910D01*
X75143569Y-42128110D01*
X75092560Y-42380000D01*
X75092560Y-43980000D01*
X75136838Y-44215317D01*
X75275910Y-44431441D01*
X75488110Y-44576431D01*
X75740000Y-44627440D01*
X75851000Y-44627440D01*
X75851000Y-45019298D01*
X75839167Y-44990731D01*
X75660538Y-44812103D01*
X75427149Y-44715430D01*
X74336910Y-44715430D01*
X74178160Y-44874180D01*
X73924160Y-44874180D01*
X73765410Y-44715430D01*
X72675171Y-44715430D01*
X72465000Y-44802486D01*
X72465000Y-41350000D01*
X109145000Y-41350000D01*
X109145000Y-60250000D01*
X109145000Y-60250000D01*
G37*
X109145000Y-60250000D02*
X72465000Y-60250000D01*
X72465000Y-56797514D01*
X72675171Y-56884570D01*
X73765410Y-56884570D01*
X73924160Y-56725820D01*
X73924160Y-55377080D01*
X74178160Y-55377080D01*
X74178160Y-56725820D01*
X74336910Y-56884570D01*
X75427149Y-56884570D01*
X75660538Y-56787897D01*
X75839167Y-56609269D01*
X75935840Y-56375880D01*
X75935840Y-55535830D01*
X77665580Y-55535830D01*
X77665580Y-56375880D01*
X77762253Y-56609269D01*
X77940882Y-56787897D01*
X78174271Y-56884570D01*
X79264510Y-56884570D01*
X79423260Y-56725820D01*
X79423260Y-55377080D01*
X79677260Y-55377080D01*
X79677260Y-56725820D01*
X79836010Y-56884570D01*
X80926249Y-56884570D01*
X81159638Y-56787897D01*
X81338267Y-56609269D01*
X81434940Y-56375880D01*
X81434940Y-55535830D01*
X81276190Y-55377080D01*
X79677260Y-55377080D01*
X79423260Y-55377080D01*
X77824330Y-55377080D01*
X77665580Y-55535830D01*
X75935840Y-55535830D01*
X75777090Y-55377080D01*
X74178160Y-55377080D01*
X73924160Y-55377080D01*
X73904160Y-55377080D01*
X73904160Y-55123080D01*
X73924160Y-55123080D01*
X73924160Y-53774340D01*
X74178160Y-53774340D01*
X74178160Y-55123080D01*
X75777090Y-55123080D01*
X75935840Y-54964330D01*
X75935840Y-54124280D01*
X77665580Y-54124280D01*
X77665580Y-54964330D01*
X77824330Y-55123080D01*
X79423260Y-55123080D01*
X79423260Y-53774340D01*
X79677260Y-53774340D01*
X79677260Y-55123080D01*
X81276190Y-55123080D01*
X81434940Y-54964330D01*
X81434940Y-54124280D01*
X81338267Y-53890891D01*
X81159638Y-53712263D01*
X80926249Y-53615590D01*
X79836010Y-53615590D01*
X79677260Y-53774340D01*
X79423260Y-53774340D01*
X79264510Y-53615590D01*
X78174271Y-53615590D01*
X77940882Y-53712263D01*
X77762253Y-53890891D01*
X77665580Y-54124280D01*
X75935840Y-54124280D01*
X75839167Y-53890891D01*
X75660538Y-53712263D01*
X75427149Y-53615590D01*
X74336910Y-53615590D01*
X74178160Y-53774340D01*
X73924160Y-53774340D01*
X73765410Y-53615590D01*
X72675171Y-53615590D01*
X72465000Y-53702646D01*
X72465000Y-47897354D01*
X72675171Y-47984410D01*
X73765410Y-47984410D01*
X73924160Y-47825660D01*
X73924160Y-46476920D01*
X73904160Y-46476920D01*
X73904160Y-46222920D01*
X73924160Y-46222920D01*
X73924160Y-44874180D01*
X74178160Y-44874180D01*
X74178160Y-46222920D01*
X74198160Y-46222920D01*
X74198160Y-46476920D01*
X74178160Y-46476920D01*
X74178160Y-47825660D01*
X74336910Y-47984410D01*
X75427149Y-47984410D01*
X75660538Y-47887737D01*
X75839167Y-47709109D01*
X75935840Y-47475720D01*
X75935840Y-46971933D01*
X76072193Y-47176000D01*
X76111382Y-47234650D01*
X76522079Y-47645347D01*
X76437337Y-47680362D01*
X76131974Y-47985193D01*
X75966509Y-48383677D01*
X75966132Y-48815150D01*
X76130902Y-49213923D01*
X76435733Y-49519286D01*
X76834217Y-49684751D01*
X77265690Y-49685128D01*
X77664463Y-49520358D01*
X77851260Y-49333886D01*
X77851260Y-49449990D01*
X77880493Y-49605352D01*
X77851260Y-49749710D01*
X77851260Y-50250090D01*
X77880493Y-50405452D01*
X77851260Y-50549810D01*
X77851260Y-51050190D01*
X77880493Y-51205552D01*
X77851260Y-51349910D01*
X77851260Y-51850290D01*
X77877583Y-51990184D01*
X77863700Y-52023700D01*
X77863700Y-52116355D01*
X78008500Y-52261155D01*
X78016249Y-52273198D01*
X77863700Y-52273198D01*
X77863700Y-52278692D01*
X77666067Y-52080714D01*
X77267583Y-51915249D01*
X76836110Y-51914872D01*
X76437337Y-52079642D01*
X76131974Y-52384473D01*
X75966509Y-52782957D01*
X75966132Y-53214430D01*
X76130902Y-53613203D01*
X76435733Y-53918566D01*
X76834217Y-54084031D01*
X77265690Y-54084408D01*
X77664463Y-53919638D01*
X77969826Y-53614807D01*
X78135291Y-53216323D01*
X78135318Y-53185033D01*
X78139002Y-53188717D01*
X78372391Y-53285390D01*
X79363570Y-53285390D01*
X79522320Y-53126640D01*
X79522320Y-52525295D01*
X79776320Y-52525295D01*
X79776320Y-53126640D01*
X79935070Y-53285390D01*
X80926249Y-53285390D01*
X81159638Y-53188717D01*
X81338267Y-53010089D01*
X81434940Y-52776700D01*
X81434940Y-52684045D01*
X81276190Y-52525295D01*
X79776320Y-52525295D01*
X79522320Y-52525295D01*
X79502320Y-52525295D01*
X79502320Y-52497730D01*
X80799940Y-52497730D01*
X81035257Y-52453452D01*
X81251381Y-52314380D01*
X81282588Y-52268707D01*
X81434940Y-52116355D01*
X81434940Y-52023700D01*
X81419710Y-51986931D01*
X81447380Y-51850290D01*
X81447380Y-51562000D01*
X83832560Y-51562000D01*
X83832560Y-51620000D01*
X83876838Y-51855317D01*
X84015910Y-52071441D01*
X84228110Y-52216431D01*
X84480000Y-52267440D01*
X85700000Y-52267440D01*
X85935317Y-52223162D01*
X86151441Y-52084090D01*
X86296431Y-51871890D01*
X86342985Y-51642000D01*
X87604818Y-51642000D01*
X87646838Y-51865317D01*
X87785910Y-52081441D01*
X87998110Y-52226431D01*
X88250000Y-52277440D01*
X89550000Y-52277440D01*
X89785317Y-52233162D01*
X90001441Y-52094090D01*
X90146431Y-51881890D01*
X90197440Y-51630000D01*
X90197440Y-50130000D01*
X90153162Y-49894683D01*
X90014090Y-49678559D01*
X89801890Y-49533569D01*
X89788803Y-49530919D01*
X90001441Y-49394090D01*
X90146431Y-49181890D01*
X90197440Y-48930000D01*
X90197440Y-47430000D01*
X90153162Y-47194683D01*
X90077120Y-47076510D01*
X90671630Y-46482000D01*
X91169681Y-46482000D01*
X91127560Y-46690000D01*
X91127560Y-46859810D01*
X90901185Y-47086185D01*
X90736004Y-47333395D01*
X90678000Y-47625000D01*
X90678000Y-53153634D01*
X90554683Y-53176838D01*
X90338559Y-53315910D01*
X90193569Y-53528110D01*
X90142560Y-53780000D01*
X90142560Y-55280000D01*
X90186838Y-55515317D01*
X90325910Y-55731441D01*
X90538110Y-55876431D01*
X90551197Y-55879081D01*
X90338559Y-56015910D01*
X90193569Y-56228110D01*
X90144990Y-56468000D01*
X88498375Y-56468000D01*
X88491890Y-56463569D01*
X88240000Y-56412560D01*
X87020000Y-56412560D01*
X86784683Y-56456838D01*
X86767337Y-56468000D01*
X85115182Y-56468000D01*
X85073162Y-56244683D01*
X84934090Y-56028559D01*
X84721890Y-55883569D01*
X84708803Y-55880919D01*
X84921441Y-55744090D01*
X85066431Y-55531890D01*
X85117440Y-55280000D01*
X85117440Y-54530750D01*
X86385000Y-54530750D01*
X86385000Y-54826309D01*
X86481673Y-55059698D01*
X86660301Y-55238327D01*
X86893690Y-55335000D01*
X87344250Y-55335000D01*
X87503000Y-55176250D01*
X87503000Y-54372000D01*
X87757000Y-54372000D01*
X87757000Y-55176250D01*
X87915750Y-55335000D01*
X88366310Y-55335000D01*
X88599699Y-55238327D01*
X88778327Y-55059698D01*
X88875000Y-54826309D01*
X88875000Y-54530750D01*
X88716250Y-54372000D01*
X87757000Y-54372000D01*
X87503000Y-54372000D01*
X86543750Y-54372000D01*
X86385000Y-54530750D01*
X85117440Y-54530750D01*
X85117440Y-53780000D01*
X85095555Y-53663691D01*
X86385000Y-53663691D01*
X86385000Y-53959250D01*
X86543750Y-54118000D01*
X87503000Y-54118000D01*
X87503000Y-53313750D01*
X87757000Y-53313750D01*
X87757000Y-54118000D01*
X88716250Y-54118000D01*
X88875000Y-53959250D01*
X88875000Y-53663691D01*
X88778327Y-53430302D01*
X88599699Y-53251673D01*
X88366310Y-53155000D01*
X87915750Y-53155000D01*
X87757000Y-53313750D01*
X87503000Y-53313750D01*
X87344250Y-53155000D01*
X86893690Y-53155000D01*
X86660301Y-53251673D01*
X86481673Y-53430302D01*
X86385000Y-53663691D01*
X85095555Y-53663691D01*
X85073162Y-53544683D01*
X84934090Y-53328559D01*
X84755117Y-53206272D01*
X84755162Y-53154833D01*
X84613117Y-52811057D01*
X84350327Y-52547808D01*
X84006799Y-52405162D01*
X83634833Y-52404838D01*
X83291057Y-52546883D01*
X83027808Y-52809673D01*
X82885162Y-53153201D01*
X82885114Y-53208735D01*
X82718559Y-53315910D01*
X82573569Y-53528110D01*
X82522560Y-53780000D01*
X82522560Y-55280000D01*
X82566838Y-55515317D01*
X82705910Y-55731441D01*
X82918110Y-55876431D01*
X82931197Y-55879081D01*
X82718559Y-56015910D01*
X82573569Y-56228110D01*
X82522560Y-56480000D01*
X82522560Y-56485672D01*
X82482799Y-56469162D01*
X82110833Y-56468838D01*
X81767057Y-56610883D01*
X81503808Y-56873673D01*
X81361162Y-57217201D01*
X81360838Y-57589167D01*
X81502883Y-57932943D01*
X81765673Y-58196192D01*
X82109201Y-58338838D01*
X82481167Y-58339162D01*
X82611798Y-58285187D01*
X82705910Y-58431441D01*
X82918110Y-58576431D01*
X83170000Y-58627440D01*
X84470000Y-58627440D01*
X84705317Y-58583162D01*
X84921441Y-58444090D01*
X85066431Y-58231890D01*
X85115010Y-57992000D01*
X86376700Y-57992000D01*
X86416838Y-58205317D01*
X86555910Y-58421441D01*
X86768110Y-58566431D01*
X87020000Y-58617440D01*
X88240000Y-58617440D01*
X88475317Y-58573162D01*
X88691441Y-58434090D01*
X88836431Y-58221890D01*
X88882985Y-57992000D01*
X90144818Y-57992000D01*
X90186838Y-58215317D01*
X90325910Y-58431441D01*
X90538110Y-58576431D01*
X90790000Y-58627440D01*
X92090000Y-58627440D01*
X92325317Y-58583162D01*
X92541441Y-58444090D01*
X92686431Y-58231890D01*
X92737440Y-57980000D01*
X92737440Y-56480000D01*
X92693162Y-56244683D01*
X92554090Y-56028559D01*
X92341890Y-55883569D01*
X92328803Y-55880919D01*
X92541441Y-55744090D01*
X92686431Y-55531890D01*
X92737440Y-55280000D01*
X92737440Y-53780000D01*
X92693162Y-53544683D01*
X92554090Y-53328559D01*
X92341890Y-53183569D01*
X92202000Y-53155241D01*
X92202000Y-49195000D01*
X92264250Y-49195000D01*
X92423000Y-49036250D01*
X92423000Y-48387000D01*
X92677000Y-48387000D01*
X92677000Y-49036250D01*
X92835750Y-49195000D01*
X93451309Y-49195000D01*
X93684698Y-49098327D01*
X93863327Y-48919699D01*
X93960000Y-48686310D01*
X93960000Y-48545750D01*
X93801250Y-48387000D01*
X92677000Y-48387000D01*
X92423000Y-48387000D01*
X92403000Y-48387000D01*
X92403000Y-48133000D01*
X92423000Y-48133000D01*
X92423000Y-48113000D01*
X92677000Y-48113000D01*
X92677000Y-48133000D01*
X93801250Y-48133000D01*
X93960000Y-47974250D01*
X93960000Y-47833690D01*
X93870194Y-47616878D01*
X93921431Y-47541890D01*
X93972440Y-47290000D01*
X93972440Y-46690000D01*
X93928162Y-46454683D01*
X93864322Y-46355472D01*
X93921431Y-46271890D01*
X93972440Y-46020000D01*
X93972440Y-45921070D01*
X95631989Y-47580620D01*
X95631989Y-49009657D01*
X95689993Y-49301262D01*
X95836389Y-49520358D01*
X95855174Y-49548472D01*
X99321917Y-53015216D01*
X99528426Y-53153201D01*
X99569128Y-53180397D01*
X99860733Y-53238401D01*
X100265088Y-53238401D01*
X100264769Y-53604383D01*
X100467582Y-54095229D01*
X100842796Y-54471098D01*
X101333287Y-54674768D01*
X101864383Y-54675231D01*
X102355229Y-54472418D01*
X102552716Y-54275275D01*
X103384331Y-54275275D01*
X103446169Y-54511042D01*
X103947122Y-54687419D01*
X104477440Y-54658664D01*
X104833831Y-54511042D01*
X104895669Y-54275275D01*
X104140000Y-53519605D01*
X103384331Y-54275275D01*
X102552716Y-54275275D01*
X102731098Y-54097204D01*
X102863316Y-53778788D01*
X102968958Y-54033831D01*
X103204725Y-54095669D01*
X103960395Y-53340000D01*
X104319605Y-53340000D01*
X105075275Y-54095669D01*
X105311042Y-54033831D01*
X105487419Y-53532878D01*
X105458664Y-53002560D01*
X105311042Y-52646169D01*
X105075275Y-52584331D01*
X104319605Y-53340000D01*
X103960395Y-53340000D01*
X103204725Y-52584331D01*
X102968958Y-52646169D01*
X102871804Y-52922111D01*
X102732418Y-52584771D01*
X102357204Y-52208902D01*
X102022473Y-52069909D01*
X102355229Y-51932418D01*
X102731098Y-51557204D01*
X102870091Y-51222473D01*
X103007582Y-51555229D01*
X103382796Y-51931098D01*
X103701212Y-52063316D01*
X103446169Y-52168958D01*
X103384331Y-52404725D01*
X104140000Y-53160395D01*
X104895669Y-52404725D01*
X104833831Y-52168958D01*
X104557889Y-52071804D01*
X104895229Y-51932418D01*
X105271098Y-51557204D01*
X105474768Y-51066713D01*
X105475231Y-50535617D01*
X105272418Y-50044771D01*
X104897204Y-49668902D01*
X104562473Y-49529909D01*
X104895229Y-49392418D01*
X105271098Y-49017204D01*
X105474768Y-48526713D01*
X105475231Y-47995617D01*
X105272418Y-47504771D01*
X104897204Y-47128902D01*
X104406713Y-46925232D01*
X104062168Y-46924932D01*
X100958618Y-43821382D01*
X100845807Y-43746004D01*
X100670206Y-43628671D01*
X100330000Y-43561000D01*
X98987766Y-43561000D01*
X98976890Y-43553569D01*
X98814884Y-43520762D01*
X98771329Y-43301794D01*
X98578618Y-43013382D01*
X98136618Y-42571382D01*
X97861880Y-42387808D01*
X97848206Y-42378671D01*
X97508000Y-42311000D01*
X86336285Y-42311000D01*
X86318162Y-42214683D01*
X86179090Y-41998559D01*
X85966890Y-41853569D01*
X85715000Y-41802560D01*
X84465000Y-41802560D01*
X84229683Y-41846838D01*
X84013559Y-41985910D01*
X83868569Y-42198110D01*
X83859067Y-42245033D01*
X83634833Y-42244838D01*
X83523112Y-42291000D01*
X82370693Y-42291000D01*
X82343162Y-42144683D01*
X82204090Y-41928559D01*
X81991890Y-41783569D01*
X81740000Y-41732560D01*
X79740000Y-41732560D01*
X79504683Y-41776838D01*
X79288559Y-41915910D01*
X79143569Y-42128110D01*
X79092560Y-42380000D01*
X79092560Y-43980000D01*
X79136838Y-44215317D01*
X79275910Y-44431441D01*
X79488110Y-44576431D01*
X79740000Y-44627440D01*
X81740000Y-44627440D01*
X81975317Y-44583162D01*
X82191441Y-44444090D01*
X82336431Y-44231890D01*
X82369417Y-44069000D01*
X83522811Y-44069000D01*
X83633201Y-44114838D01*
X83848612Y-44115026D01*
X83861838Y-44185317D01*
X84000910Y-44401441D01*
X84069006Y-44447969D01*
X83926673Y-44590302D01*
X83830000Y-44823691D01*
X83830000Y-45414250D01*
X83988750Y-45573000D01*
X84963000Y-45573000D01*
X84963000Y-45553000D01*
X85217000Y-45553000D01*
X85217000Y-45573000D01*
X86191250Y-45573000D01*
X86350000Y-45414250D01*
X86350000Y-44823691D01*
X86253327Y-44590302D01*
X86112090Y-44449064D01*
X86166441Y-44414090D01*
X86311431Y-44201890D01*
X86334292Y-44089000D01*
X91139913Y-44089000D01*
X91127560Y-44150000D01*
X91127560Y-44750000D01*
X91166698Y-44958000D01*
X90356000Y-44958000D01*
X90064395Y-45016004D01*
X89970687Y-45078618D01*
X89817185Y-45181185D01*
X88361185Y-46637185D01*
X88264048Y-46782560D01*
X88250000Y-46782560D01*
X88014683Y-46826838D01*
X87798559Y-46965910D01*
X87653569Y-47178110D01*
X87602560Y-47430000D01*
X87602560Y-48930000D01*
X87646838Y-49165317D01*
X87785910Y-49381441D01*
X87998110Y-49526431D01*
X88011197Y-49529081D01*
X87798559Y-49665910D01*
X87653569Y-49878110D01*
X87604990Y-50118000D01*
X85958375Y-50118000D01*
X85951890Y-50113569D01*
X85700000Y-50062560D01*
X84848471Y-50062560D01*
X84725000Y-50038000D01*
X83231001Y-50038000D01*
X83231162Y-49852833D01*
X83089117Y-49509057D01*
X82826327Y-49245808D01*
X82482799Y-49103162D01*
X82110833Y-49102838D01*
X81783957Y-49237900D01*
X81447380Y-49237900D01*
X81447380Y-48949610D01*
X81403102Y-48714293D01*
X81264030Y-48498169D01*
X81051830Y-48353179D01*
X80799940Y-48302170D01*
X79693374Y-48302170D01*
X79571954Y-48180750D01*
X83845000Y-48180750D01*
X83845000Y-48476309D01*
X83941673Y-48709698D01*
X84120301Y-48888327D01*
X84353690Y-48985000D01*
X84804250Y-48985000D01*
X84963000Y-48826250D01*
X84963000Y-48022000D01*
X85217000Y-48022000D01*
X85217000Y-48826250D01*
X85375750Y-48985000D01*
X85826310Y-48985000D01*
X86059699Y-48888327D01*
X86238327Y-48709698D01*
X86335000Y-48476309D01*
X86335000Y-48180750D01*
X86176250Y-48022000D01*
X85217000Y-48022000D01*
X84963000Y-48022000D01*
X84003750Y-48022000D01*
X83845000Y-48180750D01*
X79571954Y-48180750D01*
X79320062Y-47928858D01*
X79423260Y-47825660D01*
X79423260Y-46476920D01*
X79677260Y-46476920D01*
X79677260Y-47825660D01*
X79836010Y-47984410D01*
X80926249Y-47984410D01*
X81159638Y-47887737D01*
X81338267Y-47709109D01*
X81434940Y-47475720D01*
X81434940Y-46635670D01*
X81276190Y-46476920D01*
X79677260Y-46476920D01*
X79423260Y-46476920D01*
X79403260Y-46476920D01*
X79403260Y-46222920D01*
X79423260Y-46222920D01*
X79423260Y-44874180D01*
X79677260Y-44874180D01*
X79677260Y-46222920D01*
X81276190Y-46222920D01*
X81434940Y-46064170D01*
X81434940Y-45985750D01*
X83830000Y-45985750D01*
X83830000Y-46576309D01*
X83926673Y-46809698D01*
X84069474Y-46952500D01*
X83941673Y-47080302D01*
X83845000Y-47313691D01*
X83845000Y-47609250D01*
X84003750Y-47768000D01*
X84963000Y-47768000D01*
X84963000Y-46963750D01*
X84944250Y-46945000D01*
X84963000Y-46926250D01*
X84963000Y-45827000D01*
X85217000Y-45827000D01*
X85217000Y-46926250D01*
X85235750Y-46945000D01*
X85217000Y-46963750D01*
X85217000Y-47768000D01*
X86176250Y-47768000D01*
X86335000Y-47609250D01*
X86335000Y-47313691D01*
X86238327Y-47080302D01*
X86110526Y-46952500D01*
X86253327Y-46809698D01*
X86350000Y-46576309D01*
X86350000Y-45985750D01*
X86191250Y-45827000D01*
X85217000Y-45827000D01*
X84963000Y-45827000D01*
X83988750Y-45827000D01*
X83830000Y-45985750D01*
X81434940Y-45985750D01*
X81434940Y-45224120D01*
X81338267Y-44990731D01*
X81159638Y-44812103D01*
X80926249Y-44715430D01*
X79836010Y-44715430D01*
X79677260Y-44874180D01*
X79423260Y-44874180D01*
X79264510Y-44715430D01*
X78174271Y-44715430D01*
X77940882Y-44812103D01*
X77762253Y-44990731D01*
X77665580Y-45224120D01*
X77665580Y-46064170D01*
X77824328Y-46222918D01*
X77665580Y-46222918D01*
X77665580Y-46274376D01*
X77629000Y-46237796D01*
X77629000Y-44627440D01*
X77740000Y-44627440D01*
X77975317Y-44583162D01*
X78191441Y-44444090D01*
X78336431Y-44231890D01*
X78387440Y-43980000D01*
X78387440Y-42380000D01*
X78343162Y-42144683D01*
X78204090Y-41928559D01*
X77991890Y-41783569D01*
X77740000Y-41732560D01*
X75740000Y-41732560D01*
X75504683Y-41776838D01*
X75288559Y-41915910D01*
X75143569Y-42128110D01*
X75092560Y-42380000D01*
X75092560Y-43980000D01*
X75136838Y-44215317D01*
X75275910Y-44431441D01*
X75488110Y-44576431D01*
X75740000Y-44627440D01*
X75851000Y-44627440D01*
X75851000Y-45019298D01*
X75839167Y-44990731D01*
X75660538Y-44812103D01*
X75427149Y-44715430D01*
X74336910Y-44715430D01*
X74178160Y-44874180D01*
X73924160Y-44874180D01*
X73765410Y-44715430D01*
X72675171Y-44715430D01*
X72465000Y-44802486D01*
X72465000Y-41350000D01*
X109145000Y-41350000D01*
X109145000Y-60250000D01*
M02*
