%FSLAX45Y45*%
G04 Gerber Fmt 4.5, Leading zero omitted, Abs format (unit mm)*
G04 Created by KiCad (PCBNEW 4.0.6) date Tuesday, July 11, 2017 'PMt' 09:42:12 PM*
%MOMM*%
%LPD*%
G01*
G04 APERTURE LIST*
%ADD10C,0.127000*%
%ADD11C,0.200000*%
%ADD12C,0.300000*%
G04 APERTURE END LIST*
D10*
X2857500Y-12039600D02*
X2857500Y-3200400D01*
X32994600Y-12382500D02*
X3200400Y-12382500D01*
X33337500Y-3200400D02*
X33337500Y-12039600D01*
X3200400Y-2857500D02*
X32994600Y-2857500D01*
X3200400Y-2857500D02*
G75*
G03X2857500Y-3200400I0J-342900D01*
G01*
X2857500Y-12039600D02*
G75*
G03X3200400Y-12382500I342900J0D01*
G01*
X32994600Y-12382500D02*
G75*
G03X33337500Y-12039600I0J342900D01*
G01*
X33337500Y-3200400D02*
G75*
G03X32994600Y-2857500I-342900J0D01*
G01*
D11*
X4366500Y-3731500D02*
X4396500Y-3761500D01*
X4396500Y-3731500D02*
X4366500Y-3761500D01*
X4620500Y-4684000D02*
X4650500Y-4714000D01*
X4650500Y-4684000D02*
X4620500Y-4714000D01*
X4874500Y-3731500D02*
X4904500Y-3761500D01*
X4904500Y-3731500D02*
X4874500Y-3761500D01*
X5065000Y-5192000D02*
X5095000Y-5222000D01*
X5095000Y-5192000D02*
X5065000Y-5222000D01*
X5192000Y-11986500D02*
X5222000Y-12016500D01*
X5222000Y-11986500D02*
X5192000Y-12016500D01*
X5446000Y-7414500D02*
X5476000Y-7444500D01*
X5476000Y-7414500D02*
X5446000Y-7444500D01*
X5509500Y-4684000D02*
X5539500Y-4714000D01*
X5539500Y-4684000D02*
X5509500Y-4714000D01*
X5573000Y-9129000D02*
X5603000Y-9159000D01*
X5603000Y-9129000D02*
X5573000Y-9159000D01*
X5636500Y-4874500D02*
X5666500Y-4904500D01*
X5666500Y-4874500D02*
X5636500Y-4904500D01*
X5776200Y-4531600D02*
X5806200Y-4561600D01*
X5806200Y-4531600D02*
X5776200Y-4561600D01*
X5890500Y-5217400D02*
X5920500Y-5247400D01*
X5920500Y-5217400D02*
X5890500Y-5247400D01*
X5890500Y-5738100D02*
X5920500Y-5768100D01*
X5920500Y-5738100D02*
X5890500Y-5768100D01*
X6119100Y-4684000D02*
X6149100Y-4714000D01*
X6149100Y-4684000D02*
X6119100Y-4714000D01*
X6182600Y-5217400D02*
X6212600Y-5247400D01*
X6212600Y-5217400D02*
X6182600Y-5247400D01*
X6182600Y-5738100D02*
X6212600Y-5768100D01*
X6212600Y-5738100D02*
X6182600Y-5768100D01*
X6271500Y-3477500D02*
X6301500Y-3507500D01*
X6301500Y-3477500D02*
X6271500Y-3507500D01*
X6271500Y-3922000D02*
X6301500Y-3952000D01*
X6301500Y-3922000D02*
X6271500Y-3952000D01*
X6385800Y-4417300D02*
X6415800Y-4447300D01*
X6415800Y-4417300D02*
X6385800Y-4447300D01*
X6538200Y-5204700D02*
X6568200Y-5234700D01*
X6568200Y-5204700D02*
X6538200Y-5234700D01*
X6639800Y-3769600D02*
X6669800Y-3799600D01*
X6669800Y-3769600D02*
X6639800Y-3799600D01*
X6690600Y-4379200D02*
X6720600Y-4409200D01*
X6720600Y-4379200D02*
X6690600Y-4409200D01*
X7008100Y-4303000D02*
X7038100Y-4333000D01*
X7038100Y-4303000D02*
X7008100Y-4333000D01*
X7033500Y-3477500D02*
X7063500Y-3507500D01*
X7063500Y-3477500D02*
X7033500Y-3507500D01*
X7097000Y-3922000D02*
X7127000Y-3952000D01*
X7127000Y-3922000D02*
X7097000Y-3952000D01*
X7097000Y-5001500D02*
X7127000Y-5031500D01*
X7127000Y-5001500D02*
X7097000Y-5031500D01*
X7160500Y-5522200D02*
X7190500Y-5552200D01*
X7190500Y-5522200D02*
X7160500Y-5552200D01*
X7224000Y-4722100D02*
X7254000Y-4752100D01*
X7254000Y-4722100D02*
X7224000Y-4752100D01*
X7351000Y-5001500D02*
X7381000Y-5031500D01*
X7381000Y-5001500D02*
X7351000Y-5031500D01*
X7351000Y-5382500D02*
X7381000Y-5412500D01*
X7381000Y-5382500D02*
X7351000Y-5412500D01*
X7351000Y-10589500D02*
X7381000Y-10619500D01*
X7381000Y-10589500D02*
X7351000Y-10619500D01*
X7376400Y-6004800D02*
X7406400Y-6034800D01*
X7406400Y-6004800D02*
X7376400Y-6034800D01*
X7541500Y-3947400D02*
X7571500Y-3977400D01*
X7571500Y-3947400D02*
X7541500Y-3977400D01*
X7541500Y-5687300D02*
X7571500Y-5717300D01*
X7571500Y-5687300D02*
X7541500Y-5717300D01*
X7605000Y-7541500D02*
X7635000Y-7571500D01*
X7635000Y-7541500D02*
X7605000Y-7571500D01*
X7668500Y-6309600D02*
X7698500Y-6339600D01*
X7698500Y-6309600D02*
X7668500Y-6339600D01*
X7833600Y-4785600D02*
X7863600Y-4815600D01*
X7863600Y-4785600D02*
X7833600Y-4815600D01*
X7935200Y-5954000D02*
X7965200Y-5984000D01*
X7965200Y-5954000D02*
X7935200Y-5984000D01*
X8113000Y-5319000D02*
X8143000Y-5349000D01*
X8143000Y-5319000D02*
X8113000Y-5349000D01*
X8113000Y-9129000D02*
X8143000Y-9159000D01*
X8143000Y-9129000D02*
X8113000Y-9159000D01*
X8176500Y-3985500D02*
X8206500Y-4015500D01*
X8206500Y-3985500D02*
X8176500Y-4015500D01*
X8494000Y-3287000D02*
X8524000Y-3317000D01*
X8524000Y-3287000D02*
X8494000Y-3317000D01*
X8786100Y-5153900D02*
X8816100Y-5183900D01*
X8816100Y-5153900D02*
X8786100Y-5183900D01*
X9154400Y-3769600D02*
X9184400Y-3799600D01*
X9184400Y-3769600D02*
X9154400Y-3799600D01*
X9764000Y-5446000D02*
X9794000Y-5476000D01*
X9794000Y-5446000D02*
X9764000Y-5476000D01*
X10018000Y-7478000D02*
X10048000Y-7508000D01*
X10048000Y-7478000D02*
X10018000Y-7508000D01*
X10208500Y-10970500D02*
X10238500Y-11000500D01*
X10238500Y-10970500D02*
X10208500Y-11000500D01*
X11478500Y-9065500D02*
X11508500Y-9095500D01*
X11508500Y-9065500D02*
X11478500Y-9095500D01*
X11542000Y-5446000D02*
X11572000Y-5476000D01*
X11572000Y-5446000D02*
X11542000Y-5476000D01*
X12304000Y-11986500D02*
X12334000Y-12016500D01*
X12334000Y-11986500D02*
X12304000Y-12016500D01*
X13256500Y-10970500D02*
X13286500Y-11000500D01*
X13286500Y-10970500D02*
X13256500Y-11000500D01*
X13891500Y-7287500D02*
X13921500Y-7317500D01*
X13921500Y-7287500D02*
X13891500Y-7317500D01*
X14336000Y-3287000D02*
X14366000Y-3317000D01*
X14366000Y-3287000D02*
X14336000Y-3317000D01*
X15161500Y-9319500D02*
X15191500Y-9349500D01*
X15191500Y-9319500D02*
X15161500Y-9349500D01*
X17066500Y-10907000D02*
X17096500Y-10937000D01*
X17096500Y-10907000D02*
X17066500Y-10937000D01*
X17193500Y-5573000D02*
X17223500Y-5603000D01*
X17223500Y-5573000D02*
X17193500Y-5603000D01*
X17828500Y-7224000D02*
X17858500Y-7254000D01*
X17858500Y-7224000D02*
X17828500Y-7254000D01*
X18209500Y-3350500D02*
X18239500Y-3380500D01*
X18239500Y-3350500D02*
X18209500Y-3380500D01*
X18971500Y-9129000D02*
X19001500Y-9159000D01*
X19001500Y-9129000D02*
X18971500Y-9159000D01*
X19670000Y-12050000D02*
X19700000Y-12080000D01*
X19700000Y-12050000D02*
X19670000Y-12080000D01*
X21130500Y-5573000D02*
X21160500Y-5603000D01*
X21160500Y-5573000D02*
X21130500Y-5603000D01*
X21511500Y-7224000D02*
X21541500Y-7254000D01*
X21541500Y-7224000D02*
X21511500Y-7254000D01*
X22019500Y-3350500D02*
X22049500Y-3380500D01*
X22049500Y-3350500D02*
X22019500Y-3380500D01*
X22845000Y-9129000D02*
X22875000Y-9159000D01*
X22875000Y-9129000D02*
X22845000Y-9159000D01*
X24877000Y-5573000D02*
X24907000Y-5603000D01*
X24907000Y-5573000D02*
X24877000Y-5603000D01*
X25448500Y-7287500D02*
X25478500Y-7317500D01*
X25478500Y-7287500D02*
X25448500Y-7317500D01*
X25956500Y-3350500D02*
X25986500Y-3380500D01*
X25986500Y-3350500D02*
X25956500Y-3380500D01*
X26718500Y-9129000D02*
X26748500Y-9159000D01*
X26748500Y-9129000D02*
X26718500Y-9159000D01*
X27607500Y-11923000D02*
X27637500Y-11953000D01*
X27637500Y-11923000D02*
X27607500Y-11953000D01*
X29131500Y-8621000D02*
X29161500Y-8651000D01*
X29161500Y-8621000D02*
X29131500Y-8651000D01*
X29449000Y-3350500D02*
X29479000Y-3380500D01*
X29479000Y-3350500D02*
X29449000Y-3380500D01*
X29639500Y-11288000D02*
X29669500Y-11318000D01*
X29669500Y-11288000D02*
X29639500Y-11318000D01*
X31862000Y-5509500D02*
X31892000Y-5539500D01*
X31892000Y-5509500D02*
X31862000Y-5539500D01*
X32370000Y-11034000D02*
X32400000Y-11064000D01*
X32400000Y-11034000D02*
X32370000Y-11064000D01*
X33005000Y-7287500D02*
X33035000Y-7317500D01*
X33035000Y-7287500D02*
X33005000Y-7317500D01*
X6682740Y-4699000D02*
G75*
G03X6682740Y-4699000I-15240J0D01*
G01*
X6682740Y-6985000D02*
G75*
G03X6682740Y-6985000I-15240J0D01*
G01*
X7010400Y-5887720D02*
G75*
G03X7010400Y-5887720I-15240J0D01*
G01*
X7127240Y-5905500D02*
G75*
G03X7127240Y-5905500I-15240J0D01*
G01*
X7203440Y-5861050D02*
G75*
G03X7203440Y-5861050I-15240J0D01*
G01*
X7343140Y-6635400D02*
G75*
G03X7343140Y-6635400I-15240J0D01*
G01*
X7705090Y-5372100D02*
G75*
G03X7705090Y-5372100I-15240J0D01*
G01*
X7743190Y-4819650D02*
G75*
G03X7743190Y-4819650I-15240J0D01*
G01*
X7793990Y-3949700D02*
G75*
G03X7793990Y-3949700I-15240J0D01*
G01*
X7920990Y-5372100D02*
G75*
G03X7920990Y-5372100I-15240J0D01*
G01*
X7963317Y-8474530D02*
G75*
G03X7963317Y-8474530I-15240J0D01*
G01*
X8016240Y-6159500D02*
G75*
G03X8016240Y-6159500I-15240J0D01*
G01*
X8016240Y-6858000D02*
G75*
G03X8016240Y-6858000I-15240J0D01*
G01*
X8077200Y-11470640D02*
G75*
G03X8077200Y-11470640I-15240J0D01*
G01*
X8136890Y-10359210D02*
G75*
G03X8136890Y-10359210I-15240J0D01*
G01*
X8492490Y-4191000D02*
G75*
G03X8492490Y-4191000I-15240J0D01*
G01*
X8682990Y-4191000D02*
G75*
G03X8682990Y-4191000I-15240J0D01*
G01*
X8841740Y-4025900D02*
G75*
G03X8841740Y-4025900I-15240J0D01*
G01*
X8917940Y-3810000D02*
G75*
G03X8917940Y-3810000I-15240J0D01*
G01*
X8987790Y-5702300D02*
G75*
G03X8987790Y-5702300I-15240J0D01*
G01*
X9190990Y-3949700D02*
G75*
G03X9190990Y-3949700I-15240J0D01*
G01*
X9321800Y-6614160D02*
G75*
G03X9321800Y-6614160I-15240J0D01*
G01*
X9337040Y-4000500D02*
G75*
G03X9337040Y-4000500I-15240J0D01*
G01*
X9381490Y-6985000D02*
G75*
G03X9381490Y-6985000I-15240J0D01*
G01*
X10187020Y-4716780D02*
G75*
G03X10187020Y-4716780I-15240J0D01*
G01*
X12117420Y-4742180D02*
G75*
G03X12117420Y-4742180I-15240J0D01*
G01*
X14063980Y-4783740D02*
G75*
G03X14063980Y-4783740I-15240J0D01*
G01*
X16016320Y-4831080D02*
G75*
G03X16016320Y-4831080I-15240J0D01*
G01*
X17952720Y-4862480D02*
G75*
G03X17952720Y-4862480I-15240J0D01*
G01*
X19895820Y-4900580D02*
G75*
G03X19895820Y-4900580I-15240J0D01*
G01*
X21843080Y-4942840D02*
G75*
G03X21843080Y-4942840I-15240J0D01*
G01*
X23788720Y-4983480D02*
G75*
G03X23788720Y-4983480I-15240J0D01*
G01*
X25731820Y-5021580D02*
G75*
G03X25731820Y-5021580I-15240J0D01*
G01*
X30457140Y-9138920D02*
G75*
G03X30457140Y-9138920I-15240J0D01*
G01*
X4375000Y-3010000D02*
X4375000Y-3065000D01*
X4347500Y-3037500D02*
X4402500Y-3037500D01*
X4357500Y-3005000D02*
X4357500Y-3070000D01*
X4392500Y-3005000D02*
X4392500Y-3070000D01*
X4357500Y-3070000D02*
G75*
G03X4392500Y-3070000I17500J0D01*
G01*
X4392500Y-3005000D02*
G75*
G03X4357500Y-3005000I-17500J0D01*
G01*
X5150000Y-3010000D02*
X5150000Y-3065000D01*
X5122500Y-3037500D02*
X5177500Y-3037500D01*
X5132500Y-3005000D02*
X5132500Y-3070000D01*
X5167500Y-3005000D02*
X5167500Y-3070000D01*
X5132500Y-3070000D02*
G75*
G03X5167500Y-3070000I17500J0D01*
G01*
X5167500Y-3005000D02*
G75*
G03X5132500Y-3005000I-17500J0D01*
G01*
X4420052Y-3447552D02*
X4420052Y-3387448D01*
X4359948Y-3387448D01*
X4359948Y-3447552D01*
X4420052Y-3447552D01*
X4357500Y-3390000D02*
X4357500Y-3445000D01*
X4422500Y-3390000D02*
X4422500Y-3445000D01*
X4357500Y-3445000D02*
G75*
G03X4422500Y-3445000I32500J0D01*
G01*
X4422500Y-3390000D02*
G75*
G03X4357500Y-3390000I-32500J0D01*
G01*
X5165052Y-3447552D02*
X5165052Y-3387448D01*
X5104948Y-3387448D01*
X5104948Y-3447552D01*
X5165052Y-3447552D01*
X5102500Y-3390000D02*
X5102500Y-3445000D01*
X5167500Y-3390000D02*
X5167500Y-3445000D01*
X5102500Y-3445000D02*
G75*
G03X5167500Y-3445000I32500J0D01*
G01*
X5167500Y-3390000D02*
G75*
G03X5102500Y-3390000I-32500J0D01*
G01*
X9144000Y-3289300D02*
X9194800Y-3238500D01*
X9144000Y-3187700D01*
X9093200Y-3238500D01*
X9144000Y-3289300D01*
X9144000Y-3543300D02*
X9194800Y-3492500D01*
X9144000Y-3441700D01*
X9093200Y-3492500D01*
X9144000Y-3543300D01*
X9398000Y-3289300D02*
X9448800Y-3238500D01*
X9398000Y-3187700D01*
X9347200Y-3238500D01*
X9398000Y-3289300D01*
X9398000Y-3543300D02*
X9448800Y-3492500D01*
X9398000Y-3441700D01*
X9347200Y-3492500D01*
X9398000Y-3543300D01*
X9652000Y-3289300D02*
X9702800Y-3238500D01*
X9652000Y-3187700D01*
X9601200Y-3238500D01*
X9652000Y-3289300D01*
X9652000Y-3543300D02*
X9702800Y-3492500D01*
X9652000Y-3441700D01*
X9601200Y-3492500D01*
X9652000Y-3543300D01*
X3485000Y-4185000D02*
X3635000Y-4335000D01*
X3635000Y-4185000D02*
X3485000Y-4335000D01*
X3635000Y-4260000D02*
G75*
G03X3635000Y-4260000I-75000J0D01*
G01*
X3610000Y-4195000D02*
X3510000Y-4195000D01*
X3610000Y-4325000D02*
X3510000Y-4325000D01*
X3510000Y-4195000D02*
G75*
G03X3510000Y-4325000I0J-65000D01*
G01*
X3610000Y-4325000D02*
G75*
G03X3610000Y-4195000I0J65000D01*
G01*
X3723120Y-9900000D02*
X3873120Y-10050000D01*
X3873120Y-9900000D02*
X3723120Y-10050000D01*
X3873120Y-9975000D02*
G75*
G03X3873120Y-9975000I-75000J0D01*
G01*
X3848120Y-9910000D02*
X3748120Y-9910000D01*
X3848120Y-10040000D02*
X3748120Y-10040000D01*
X3748120Y-9910000D02*
G75*
G03X3748120Y-10040000I0J-65000D01*
G01*
X3848120Y-10040000D02*
G75*
G03X3848120Y-9910000I0J65000D01*
G01*
X3723120Y-11805000D02*
X3873120Y-11955000D01*
X3873120Y-11805000D02*
X3723120Y-11955000D01*
X3873120Y-11880000D02*
G75*
G03X3873120Y-11880000I-75000J0D01*
G01*
X3848120Y-11815000D02*
X3748120Y-11815000D01*
X3848120Y-11945000D02*
X3748120Y-11945000D01*
X3748120Y-11815000D02*
G75*
G03X3748120Y-11945000I0J-65000D01*
G01*
X3848120Y-11945000D02*
G75*
G03X3848120Y-11815000I0J65000D01*
G01*
X3723130Y-7995000D02*
X3873130Y-8145000D01*
X3873130Y-7995000D02*
X3723130Y-8145000D01*
X3873130Y-8070000D02*
G75*
G03X3873130Y-8070000I-75000J0D01*
G01*
X3848130Y-8005000D02*
X3748130Y-8005000D01*
X3848130Y-8135000D02*
X3748130Y-8135000D01*
X3748130Y-8005000D02*
G75*
G03X3748130Y-8135000I0J-65000D01*
G01*
X3848130Y-8135000D02*
G75*
G03X3848130Y-8005000I0J65000D01*
G01*
X3896250Y-10780000D02*
X4046250Y-10930000D01*
X4046250Y-10780000D02*
X3896250Y-10930000D01*
X4046250Y-10855000D02*
G75*
G03X4046250Y-10855000I-75000J0D01*
G01*
X3961250Y-6090000D02*
X4111250Y-6240000D01*
X4111250Y-6090000D02*
X3961250Y-6240000D01*
X4111250Y-6165000D02*
G75*
G03X4111250Y-6165000I-75000J0D01*
G01*
X4086250Y-6100000D02*
X3986250Y-6100000D01*
X4086250Y-6230000D02*
X3986250Y-6230000D01*
X3986250Y-6100000D02*
G75*
G03X3986250Y-6230000I0J-65000D01*
G01*
X4086250Y-6230000D02*
G75*
G03X4086250Y-6100000I0J65000D01*
G01*
X3961250Y-10955000D02*
X4111250Y-11105000D01*
X4111250Y-10955000D02*
X3961250Y-11105000D01*
X4111250Y-11030000D02*
G75*
G03X4111250Y-11030000I-75000J0D01*
G01*
X3985000Y-4135000D02*
X4135000Y-4285000D01*
X4135000Y-4135000D02*
X3985000Y-4285000D01*
X4135000Y-4210000D02*
G75*
G03X4135000Y-4210000I-75000J0D01*
G01*
X4050000Y-4310000D02*
X4200000Y-4460000D01*
X4200000Y-4310000D02*
X4050000Y-4460000D01*
X4200000Y-4385000D02*
G75*
G03X4200000Y-4385000I-75000J0D01*
G01*
X4199380Y-7995000D02*
X4349380Y-8145000D01*
X4349380Y-7995000D02*
X4199380Y-8145000D01*
X4349380Y-8070000D02*
G75*
G03X4349380Y-8070000I-75000J0D01*
G01*
X4324380Y-8005000D02*
X4224380Y-8005000D01*
X4324380Y-8135000D02*
X4224380Y-8135000D01*
X4224380Y-8005000D02*
G75*
G03X4224380Y-8135000I0J-65000D01*
G01*
X4324380Y-8135000D02*
G75*
G03X4324380Y-8005000I0J65000D01*
G01*
X4223120Y-9850000D02*
X4373120Y-10000000D01*
X4373120Y-9850000D02*
X4223120Y-10000000D01*
X4373120Y-9925000D02*
G75*
G03X4373120Y-9925000I-75000J0D01*
G01*
X4223120Y-11755000D02*
X4373120Y-11905000D01*
X4373120Y-11755000D02*
X4223120Y-11905000D01*
X4373120Y-11830000D02*
G75*
G03X4373120Y-11830000I-75000J0D01*
G01*
X4223130Y-7945000D02*
X4373130Y-8095000D01*
X4373130Y-7945000D02*
X4223130Y-8095000D01*
X4373130Y-8020000D02*
G75*
G03X4373130Y-8020000I-75000J0D01*
G01*
X4288120Y-10025000D02*
X4438120Y-10175000D01*
X4438120Y-10025000D02*
X4288120Y-10175000D01*
X4438120Y-10100000D02*
G75*
G03X4438120Y-10100000I-75000J0D01*
G01*
X4288120Y-11930000D02*
X4438120Y-12080000D01*
X4438120Y-11930000D02*
X4288120Y-12080000D01*
X4438120Y-12005000D02*
G75*
G03X4438120Y-12005000I-75000J0D01*
G01*
X4288130Y-8120000D02*
X4438130Y-8270000D01*
X4438130Y-8120000D02*
X4288130Y-8270000D01*
X4438130Y-8195000D02*
G75*
G03X4438130Y-8195000I-75000J0D01*
G01*
X4461250Y-6040000D02*
X4611250Y-6190000D01*
X4611250Y-6040000D02*
X4461250Y-6190000D01*
X4611250Y-6115000D02*
G75*
G03X4611250Y-6115000I-75000J0D01*
G01*
X4461250Y-10905000D02*
X4611250Y-11055000D01*
X4611250Y-10905000D02*
X4461250Y-11055000D01*
X4611250Y-10980000D02*
G75*
G03X4611250Y-10980000I-75000J0D01*
G01*
X4486250Y-11045000D02*
X4586250Y-11045000D01*
X4486250Y-10915000D02*
X4586250Y-10915000D01*
X4586250Y-11045000D02*
G75*
G03X4586250Y-10915000I0J65000D01*
G01*
X4486250Y-10915000D02*
G75*
G03X4486250Y-11045000I0J-65000D01*
G01*
X4526250Y-6215000D02*
X4676250Y-6365000D01*
X4676250Y-6215000D02*
X4526250Y-6365000D01*
X4676250Y-6290000D02*
G75*
G03X4676250Y-6290000I-75000J0D01*
G01*
X4675620Y-9900000D02*
X4825620Y-10050000D01*
X4825620Y-9900000D02*
X4675620Y-10050000D01*
X4825620Y-9975000D02*
G75*
G03X4825620Y-9975000I-75000J0D01*
G01*
X4800620Y-9910000D02*
X4700620Y-9910000D01*
X4800620Y-10040000D02*
X4700620Y-10040000D01*
X4700620Y-9910000D02*
G75*
G03X4700620Y-10040000I0J-65000D01*
G01*
X4800620Y-10040000D02*
G75*
G03X4800620Y-9910000I0J65000D01*
G01*
X4699380Y-7945000D02*
X4849380Y-8095000D01*
X4849380Y-7945000D02*
X4699380Y-8095000D01*
X4849380Y-8020000D02*
G75*
G03X4849380Y-8020000I-75000J0D01*
G01*
X4764380Y-8120000D02*
X4914380Y-8270000D01*
X4914380Y-8120000D02*
X4764380Y-8270000D01*
X4914380Y-8195000D02*
G75*
G03X4914380Y-8195000I-75000J0D01*
G01*
X5175620Y-9850000D02*
X5325620Y-10000000D01*
X5325620Y-9850000D02*
X5175620Y-10000000D01*
X5325620Y-9925000D02*
G75*
G03X5325620Y-9925000I-75000J0D01*
G01*
X5240620Y-10025000D02*
X5390620Y-10175000D01*
X5390620Y-10025000D02*
X5240620Y-10175000D01*
X5390620Y-10100000D02*
G75*
G03X5390620Y-10100000I-75000J0D01*
G01*
X5390000Y-4185000D02*
X5540000Y-4335000D01*
X5540000Y-4185000D02*
X5390000Y-4335000D01*
X5540000Y-4260000D02*
G75*
G03X5540000Y-4260000I-75000J0D01*
G01*
X5515000Y-4195000D02*
X5415000Y-4195000D01*
X5515000Y-4325000D02*
X5415000Y-4325000D01*
X5415000Y-4195000D02*
G75*
G03X5415000Y-4325000I0J-65000D01*
G01*
X5515000Y-4325000D02*
G75*
G03X5515000Y-4195000I0J65000D01*
G01*
X5866250Y-9900000D02*
X6016250Y-10050000D01*
X6016250Y-9900000D02*
X5866250Y-10050000D01*
X6016250Y-9975000D02*
G75*
G03X6016250Y-9975000I-75000J0D01*
G01*
X5991250Y-9910000D02*
X5891250Y-9910000D01*
X5991250Y-10040000D02*
X5891250Y-10040000D01*
X5891250Y-9910000D02*
G75*
G03X5891250Y-10040000I0J-65000D01*
G01*
X5991250Y-10040000D02*
G75*
G03X5991250Y-9910000I0J65000D01*
G01*
X5890000Y-4135000D02*
X6040000Y-4285000D01*
X6040000Y-4135000D02*
X5890000Y-4285000D01*
X6040000Y-4210000D02*
G75*
G03X6040000Y-4210000I-75000J0D01*
G01*
X5955000Y-4310000D02*
X6105000Y-4460000D01*
X6105000Y-4310000D02*
X5955000Y-4460000D01*
X6105000Y-4385000D02*
G75*
G03X6105000Y-4385000I-75000J0D01*
G01*
X6104380Y-11805000D02*
X6254380Y-11955000D01*
X6254380Y-11805000D02*
X6104380Y-11955000D01*
X6254380Y-11880000D02*
G75*
G03X6254380Y-11880000I-75000J0D01*
G01*
X6229380Y-11815000D02*
X6129380Y-11815000D01*
X6229380Y-11945000D02*
X6129380Y-11945000D01*
X6129380Y-11815000D02*
G75*
G03X6129380Y-11945000I0J-65000D01*
G01*
X6229380Y-11945000D02*
G75*
G03X6229380Y-11815000I0J65000D01*
G01*
X6277500Y-10780000D02*
X6427500Y-10930000D01*
X6427500Y-10780000D02*
X6277500Y-10930000D01*
X6427500Y-10855000D02*
G75*
G03X6427500Y-10855000I-75000J0D01*
G01*
X6342500Y-6090000D02*
X6492500Y-6240000D01*
X6492500Y-6090000D02*
X6342500Y-6240000D01*
X6492500Y-6165000D02*
G75*
G03X6492500Y-6165000I-75000J0D01*
G01*
X6467500Y-6100000D02*
X6367500Y-6100000D01*
X6467500Y-6230000D02*
X6367500Y-6230000D01*
X6367500Y-6100000D02*
G75*
G03X6367500Y-6230000I0J-65000D01*
G01*
X6467500Y-6230000D02*
G75*
G03X6467500Y-6100000I0J65000D01*
G01*
X6342500Y-10955000D02*
X6492500Y-11105000D01*
X6492500Y-10955000D02*
X6342500Y-11105000D01*
X6492500Y-11030000D02*
G75*
G03X6492500Y-11030000I-75000J0D01*
G01*
X6366250Y-9850000D02*
X6516250Y-10000000D01*
X6516250Y-9850000D02*
X6366250Y-10000000D01*
X6516250Y-9925000D02*
G75*
G03X6516250Y-9925000I-75000J0D01*
G01*
X6431250Y-10025000D02*
X6581250Y-10175000D01*
X6581250Y-10025000D02*
X6431250Y-10175000D01*
X6581250Y-10100000D02*
G75*
G03X6581250Y-10100000I-75000J0D01*
G01*
X6604380Y-11755000D02*
X6754380Y-11905000D01*
X6754380Y-11755000D02*
X6604380Y-11905000D01*
X6754380Y-11830000D02*
G75*
G03X6754380Y-11830000I-75000J0D01*
G01*
X6669380Y-11930000D02*
X6819380Y-12080000D01*
X6819380Y-11930000D02*
X6669380Y-12080000D01*
X6819380Y-12005000D02*
G75*
G03X6819380Y-12005000I-75000J0D01*
G01*
X6818750Y-7995000D02*
X6968750Y-8145000D01*
X6968750Y-7995000D02*
X6818750Y-8145000D01*
X6968750Y-8070000D02*
G75*
G03X6968750Y-8070000I-75000J0D01*
G01*
X6943750Y-8005000D02*
X6843750Y-8005000D01*
X6943750Y-8135000D02*
X6843750Y-8135000D01*
X6843750Y-8005000D02*
G75*
G03X6843750Y-8135000I0J-65000D01*
G01*
X6943750Y-8135000D02*
G75*
G03X6943750Y-8005000I0J65000D01*
G01*
X6818750Y-11805000D02*
X6968750Y-11955000D01*
X6968750Y-11805000D02*
X6818750Y-11955000D01*
X6968750Y-11880000D02*
G75*
G03X6968750Y-11880000I-75000J0D01*
G01*
X6943750Y-11815000D02*
X6843750Y-11815000D01*
X6943750Y-11945000D02*
X6843750Y-11945000D01*
X6843750Y-11815000D02*
G75*
G03X6843750Y-11945000I0J-65000D01*
G01*
X6943750Y-11945000D02*
G75*
G03X6943750Y-11815000I0J65000D01*
G01*
X6842500Y-6040000D02*
X6992500Y-6190000D01*
X6992500Y-6040000D02*
X6842500Y-6190000D01*
X6992500Y-6115000D02*
G75*
G03X6992500Y-6115000I-75000J0D01*
G01*
X6842500Y-10905000D02*
X6992500Y-11055000D01*
X6992500Y-10905000D02*
X6842500Y-11055000D01*
X6992500Y-10980000D02*
G75*
G03X6992500Y-10980000I-75000J0D01*
G01*
X6867500Y-11045000D02*
X6967500Y-11045000D01*
X6867500Y-10915000D02*
X6967500Y-10915000D01*
X6967500Y-11045000D02*
G75*
G03X6967500Y-10915000I0J65000D01*
G01*
X6867500Y-10915000D02*
G75*
G03X6867500Y-11045000I0J-65000D01*
G01*
X6907500Y-6215000D02*
X7057500Y-6365000D01*
X7057500Y-6215000D02*
X6907500Y-6365000D01*
X7057500Y-6290000D02*
G75*
G03X7057500Y-6290000I-75000J0D01*
G01*
X7295000Y-4185000D02*
X7445000Y-4335000D01*
X7445000Y-4185000D02*
X7295000Y-4335000D01*
X7445000Y-4260000D02*
G75*
G03X7445000Y-4260000I-75000J0D01*
G01*
X7420000Y-4195000D02*
X7320000Y-4195000D01*
X7420000Y-4325000D02*
X7320000Y-4325000D01*
X7320000Y-4195000D02*
G75*
G03X7320000Y-4325000I0J-65000D01*
G01*
X7420000Y-4325000D02*
G75*
G03X7420000Y-4195000I0J65000D01*
G01*
X7318750Y-7945000D02*
X7468750Y-8095000D01*
X7468750Y-7945000D02*
X7318750Y-8095000D01*
X7468750Y-8020000D02*
G75*
G03X7468750Y-8020000I-75000J0D01*
G01*
X7318750Y-11755000D02*
X7468750Y-11905000D01*
X7468750Y-11755000D02*
X7318750Y-11905000D01*
X7468750Y-11830000D02*
G75*
G03X7468750Y-11830000I-75000J0D01*
G01*
X7383750Y-8120000D02*
X7533750Y-8270000D01*
X7533750Y-8120000D02*
X7383750Y-8270000D01*
X7533750Y-8195000D02*
G75*
G03X7533750Y-8195000I-75000J0D01*
G01*
X7383750Y-11930000D02*
X7533750Y-12080000D01*
X7533750Y-11930000D02*
X7383750Y-12080000D01*
X7533750Y-12005000D02*
G75*
G03X7533750Y-12005000I-75000J0D01*
G01*
X7771300Y-9900000D02*
X7921300Y-10050000D01*
X7921300Y-9900000D02*
X7771300Y-10050000D01*
X7921300Y-9975000D02*
G75*
G03X7921300Y-9975000I-75000J0D01*
G01*
X7896300Y-9910000D02*
X7796300Y-9910000D01*
X7896300Y-10040000D02*
X7796300Y-10040000D01*
X7796300Y-9910000D02*
G75*
G03X7796300Y-10040000I0J-65000D01*
G01*
X7896300Y-10040000D02*
G75*
G03X7896300Y-9910000I0J65000D01*
G01*
X7795000Y-4135000D02*
X7945000Y-4285000D01*
X7945000Y-4135000D02*
X7795000Y-4285000D01*
X7945000Y-4210000D02*
G75*
G03X7945000Y-4210000I-75000J0D01*
G01*
X7860000Y-4310000D02*
X8010000Y-4460000D01*
X8010000Y-4310000D02*
X7860000Y-4460000D01*
X8010000Y-4385000D02*
G75*
G03X8010000Y-4385000I-75000J0D01*
G01*
X8247500Y-6090000D02*
X8397500Y-6240000D01*
X8397500Y-6090000D02*
X8247500Y-6240000D01*
X8397500Y-6165000D02*
G75*
G03X8397500Y-6165000I-75000J0D01*
G01*
X8372500Y-6100000D02*
X8272500Y-6100000D01*
X8372500Y-6230000D02*
X8272500Y-6230000D01*
X8272500Y-6100000D02*
G75*
G03X8272500Y-6230000I0J-65000D01*
G01*
X8372500Y-6230000D02*
G75*
G03X8372500Y-6100000I0J65000D01*
G01*
X8271300Y-9850000D02*
X8421300Y-10000000D01*
X8421300Y-9850000D02*
X8271300Y-10000000D01*
X8421300Y-9925000D02*
G75*
G03X8421300Y-9925000I-75000J0D01*
G01*
X8336300Y-10025000D02*
X8486300Y-10175000D01*
X8486300Y-10025000D02*
X8336300Y-10175000D01*
X8486300Y-10100000D02*
G75*
G03X8486300Y-10100000I-75000J0D01*
G01*
X8485600Y-11805000D02*
X8635600Y-11955000D01*
X8635600Y-11805000D02*
X8485600Y-11955000D01*
X8635600Y-11880000D02*
G75*
G03X8635600Y-11880000I-75000J0D01*
G01*
X8610600Y-11815000D02*
X8510600Y-11815000D01*
X8610600Y-11945000D02*
X8510600Y-11945000D01*
X8510600Y-11815000D02*
G75*
G03X8510600Y-11945000I0J-65000D01*
G01*
X8610600Y-11945000D02*
G75*
G03X8610600Y-11815000I0J65000D01*
G01*
X8658700Y-10780000D02*
X8808700Y-10930000D01*
X8808700Y-10780000D02*
X8658700Y-10930000D01*
X8808700Y-10855000D02*
G75*
G03X8808700Y-10855000I-75000J0D01*
G01*
X8723700Y-7995000D02*
X8873700Y-8145000D01*
X8873700Y-7995000D02*
X8723700Y-8145000D01*
X8873700Y-8070000D02*
G75*
G03X8873700Y-8070000I-75000J0D01*
G01*
X8848700Y-8005000D02*
X8748700Y-8005000D01*
X8848700Y-8135000D02*
X8748700Y-8135000D01*
X8748700Y-8005000D02*
G75*
G03X8748700Y-8135000I0J-65000D01*
G01*
X8848700Y-8135000D02*
G75*
G03X8848700Y-8005000I0J65000D01*
G01*
X8723700Y-10955000D02*
X8873700Y-11105000D01*
X8873700Y-10955000D02*
X8723700Y-11105000D01*
X8873700Y-11030000D02*
G75*
G03X8873700Y-11030000I-75000J0D01*
G01*
X8747500Y-6040000D02*
X8897500Y-6190000D01*
X8897500Y-6040000D02*
X8747500Y-6190000D01*
X8897500Y-6115000D02*
G75*
G03X8897500Y-6115000I-75000J0D01*
G01*
X8812500Y-6215000D02*
X8962500Y-6365000D01*
X8962500Y-6215000D02*
X8812500Y-6365000D01*
X8962500Y-6290000D02*
G75*
G03X8962500Y-6290000I-75000J0D01*
G01*
X8985600Y-11755000D02*
X9135600Y-11905000D01*
X9135600Y-11755000D02*
X8985600Y-11905000D01*
X9135600Y-11830000D02*
G75*
G03X9135600Y-11830000I-75000J0D01*
G01*
X9050600Y-11930000D02*
X9200600Y-12080000D01*
X9200600Y-11930000D02*
X9050600Y-12080000D01*
X9200600Y-12005000D02*
G75*
G03X9200600Y-12005000I-75000J0D01*
G01*
X9200000Y-4185000D02*
X9350000Y-4335000D01*
X9350000Y-4185000D02*
X9200000Y-4335000D01*
X9350000Y-4260000D02*
G75*
G03X9350000Y-4260000I-75000J0D01*
G01*
X9325000Y-4195000D02*
X9225000Y-4195000D01*
X9325000Y-4325000D02*
X9225000Y-4325000D01*
X9225000Y-4195000D02*
G75*
G03X9225000Y-4325000I0J-65000D01*
G01*
X9325000Y-4325000D02*
G75*
G03X9325000Y-4195000I0J65000D01*
G01*
X9223700Y-7945000D02*
X9373700Y-8095000D01*
X9373700Y-7945000D02*
X9223700Y-8095000D01*
X9373700Y-8020000D02*
G75*
G03X9373700Y-8020000I-75000J0D01*
G01*
X9223700Y-10905000D02*
X9373700Y-11055000D01*
X9373700Y-10905000D02*
X9223700Y-11055000D01*
X9373700Y-10980000D02*
G75*
G03X9373700Y-10980000I-75000J0D01*
G01*
X9248700Y-11045000D02*
X9348700Y-11045000D01*
X9248700Y-10915000D02*
X9348700Y-10915000D01*
X9348700Y-11045000D02*
G75*
G03X9348700Y-10915000I0J65000D01*
G01*
X9248700Y-10915000D02*
G75*
G03X9248700Y-11045000I0J-65000D01*
G01*
X9288700Y-8120000D02*
X9438700Y-8270000D01*
X9438700Y-8120000D02*
X9288700Y-8270000D01*
X9438700Y-8195000D02*
G75*
G03X9438700Y-8195000I-75000J0D01*
G01*
X9676300Y-9900000D02*
X9826300Y-10050000D01*
X9826300Y-9900000D02*
X9676300Y-10050000D01*
X9826300Y-9975000D02*
G75*
G03X9826300Y-9975000I-75000J0D01*
G01*
X9801300Y-9910000D02*
X9701300Y-9910000D01*
X9801300Y-10040000D02*
X9701300Y-10040000D01*
X9701300Y-9910000D02*
G75*
G03X9701300Y-10040000I0J-65000D01*
G01*
X9801300Y-10040000D02*
G75*
G03X9801300Y-9910000I0J65000D01*
G01*
X9700000Y-4135000D02*
X9850000Y-4285000D01*
X9850000Y-4135000D02*
X9700000Y-4285000D01*
X9850000Y-4210000D02*
G75*
G03X9850000Y-4210000I-75000J0D01*
G01*
X9765000Y-4310000D02*
X9915000Y-4460000D01*
X9915000Y-4310000D02*
X9765000Y-4460000D01*
X9915000Y-4385000D02*
G75*
G03X9915000Y-4385000I-75000J0D01*
G01*
X10152500Y-6090000D02*
X10302500Y-6240000D01*
X10302500Y-6090000D02*
X10152500Y-6240000D01*
X10302500Y-6165000D02*
G75*
G03X10302500Y-6165000I-75000J0D01*
G01*
X10277500Y-6100000D02*
X10177500Y-6100000D01*
X10277500Y-6230000D02*
X10177500Y-6230000D01*
X10177500Y-6100000D02*
G75*
G03X10177500Y-6230000I0J-65000D01*
G01*
X10277500Y-6230000D02*
G75*
G03X10277500Y-6100000I0J65000D01*
G01*
X10176300Y-9850000D02*
X10326300Y-10000000D01*
X10326300Y-9850000D02*
X10176300Y-10000000D01*
X10326300Y-9925000D02*
G75*
G03X10326300Y-9925000I-75000J0D01*
G01*
X10241300Y-10025000D02*
X10391300Y-10175000D01*
X10391300Y-10025000D02*
X10241300Y-10175000D01*
X10391300Y-10100000D02*
G75*
G03X10391300Y-10100000I-75000J0D01*
G01*
X10628700Y-7995000D02*
X10778700Y-8145000D01*
X10778700Y-7995000D02*
X10628700Y-8145000D01*
X10778700Y-8070000D02*
G75*
G03X10778700Y-8070000I-75000J0D01*
G01*
X10753700Y-8005000D02*
X10653700Y-8005000D01*
X10753700Y-8135000D02*
X10653700Y-8135000D01*
X10653700Y-8005000D02*
G75*
G03X10653700Y-8135000I0J-65000D01*
G01*
X10753700Y-8135000D02*
G75*
G03X10753700Y-8005000I0J65000D01*
G01*
X10652500Y-6040000D02*
X10802500Y-6190000D01*
X10802500Y-6040000D02*
X10652500Y-6190000D01*
X10802500Y-6115000D02*
G75*
G03X10802500Y-6115000I-75000J0D01*
G01*
X10717500Y-6215000D02*
X10867500Y-6365000D01*
X10867500Y-6215000D02*
X10717500Y-6365000D01*
X10867500Y-6290000D02*
G75*
G03X10867500Y-6290000I-75000J0D01*
G01*
X11105000Y-4185000D02*
X11255000Y-4335000D01*
X11255000Y-4185000D02*
X11105000Y-4335000D01*
X11255000Y-4260000D02*
G75*
G03X11255000Y-4260000I-75000J0D01*
G01*
X11230000Y-4195000D02*
X11130000Y-4195000D01*
X11230000Y-4325000D02*
X11130000Y-4325000D01*
X11130000Y-4195000D02*
G75*
G03X11130000Y-4325000I0J-65000D01*
G01*
X11230000Y-4325000D02*
G75*
G03X11230000Y-4195000I0J65000D01*
G01*
X11128700Y-7945000D02*
X11278700Y-8095000D01*
X11278700Y-7945000D02*
X11128700Y-8095000D01*
X11278700Y-8020000D02*
G75*
G03X11278700Y-8020000I-75000J0D01*
G01*
X11193700Y-8120000D02*
X11343700Y-8270000D01*
X11343700Y-8120000D02*
X11193700Y-8270000D01*
X11343700Y-8195000D02*
G75*
G03X11343700Y-8195000I-75000J0D01*
G01*
X11581300Y-9900000D02*
X11731300Y-10050000D01*
X11731300Y-9900000D02*
X11581300Y-10050000D01*
X11731300Y-9975000D02*
G75*
G03X11731300Y-9975000I-75000J0D01*
G01*
X11706300Y-9910000D02*
X11606300Y-9910000D01*
X11706300Y-10040000D02*
X11606300Y-10040000D01*
X11606300Y-9910000D02*
G75*
G03X11606300Y-10040000I0J-65000D01*
G01*
X11706300Y-10040000D02*
G75*
G03X11706300Y-9910000I0J65000D01*
G01*
X11605000Y-4135000D02*
X11755000Y-4285000D01*
X11755000Y-4135000D02*
X11605000Y-4285000D01*
X11755000Y-4210000D02*
G75*
G03X11755000Y-4210000I-75000J0D01*
G01*
X11670000Y-4310000D02*
X11820000Y-4460000D01*
X11820000Y-4310000D02*
X11670000Y-4460000D01*
X11820000Y-4385000D02*
G75*
G03X11820000Y-4385000I-75000J0D01*
G01*
X12057500Y-6090000D02*
X12207500Y-6240000D01*
X12207500Y-6090000D02*
X12057500Y-6240000D01*
X12207500Y-6165000D02*
G75*
G03X12207500Y-6165000I-75000J0D01*
G01*
X12182500Y-6100000D02*
X12082500Y-6100000D01*
X12182500Y-6230000D02*
X12082500Y-6230000D01*
X12082500Y-6100000D02*
G75*
G03X12082500Y-6230000I0J-65000D01*
G01*
X12182500Y-6230000D02*
G75*
G03X12182500Y-6100000I0J65000D01*
G01*
X12081300Y-9850000D02*
X12231300Y-10000000D01*
X12231300Y-9850000D02*
X12081300Y-10000000D01*
X12231300Y-9925000D02*
G75*
G03X12231300Y-9925000I-75000J0D01*
G01*
X12146300Y-10025000D02*
X12296300Y-10175000D01*
X12296300Y-10025000D02*
X12146300Y-10175000D01*
X12296300Y-10100000D02*
G75*
G03X12296300Y-10100000I-75000J0D01*
G01*
X12533700Y-7995000D02*
X12683700Y-8145000D01*
X12683700Y-7995000D02*
X12533700Y-8145000D01*
X12683700Y-8070000D02*
G75*
G03X12683700Y-8070000I-75000J0D01*
G01*
X12658700Y-8005000D02*
X12558700Y-8005000D01*
X12658700Y-8135000D02*
X12558700Y-8135000D01*
X12558700Y-8005000D02*
G75*
G03X12558700Y-8135000I0J-65000D01*
G01*
X12658700Y-8135000D02*
G75*
G03X12658700Y-8005000I0J65000D01*
G01*
X12557500Y-6040000D02*
X12707500Y-6190000D01*
X12707500Y-6040000D02*
X12557500Y-6190000D01*
X12707500Y-6115000D02*
G75*
G03X12707500Y-6115000I-75000J0D01*
G01*
X12622500Y-6215000D02*
X12772500Y-6365000D01*
X12772500Y-6215000D02*
X12622500Y-6365000D01*
X12772500Y-6290000D02*
G75*
G03X12772500Y-6290000I-75000J0D01*
G01*
X13010000Y-4185000D02*
X13160000Y-4335000D01*
X13160000Y-4185000D02*
X13010000Y-4335000D01*
X13160000Y-4260000D02*
G75*
G03X13160000Y-4260000I-75000J0D01*
G01*
X13135000Y-4195000D02*
X13035000Y-4195000D01*
X13135000Y-4325000D02*
X13035000Y-4325000D01*
X13035000Y-4195000D02*
G75*
G03X13035000Y-4325000I0J-65000D01*
G01*
X13135000Y-4325000D02*
G75*
G03X13135000Y-4195000I0J65000D01*
G01*
X13033700Y-7945000D02*
X13183700Y-8095000D01*
X13183700Y-7945000D02*
X13033700Y-8095000D01*
X13183700Y-8020000D02*
G75*
G03X13183700Y-8020000I-75000J0D01*
G01*
X13098700Y-8120000D02*
X13248700Y-8270000D01*
X13248700Y-8120000D02*
X13098700Y-8270000D01*
X13248700Y-8195000D02*
G75*
G03X13248700Y-8195000I-75000J0D01*
G01*
X13486300Y-9900000D02*
X13636300Y-10050000D01*
X13636300Y-9900000D02*
X13486300Y-10050000D01*
X13636300Y-9975000D02*
G75*
G03X13636300Y-9975000I-75000J0D01*
G01*
X13611300Y-9910000D02*
X13511300Y-9910000D01*
X13611300Y-10040000D02*
X13511300Y-10040000D01*
X13511300Y-9910000D02*
G75*
G03X13511300Y-10040000I0J-65000D01*
G01*
X13611300Y-10040000D02*
G75*
G03X13611300Y-9910000I0J65000D01*
G01*
X13510000Y-4135000D02*
X13660000Y-4285000D01*
X13660000Y-4135000D02*
X13510000Y-4285000D01*
X13660000Y-4210000D02*
G75*
G03X13660000Y-4210000I-75000J0D01*
G01*
X13575000Y-4310000D02*
X13725000Y-4460000D01*
X13725000Y-4310000D02*
X13575000Y-4460000D01*
X13725000Y-4385000D02*
G75*
G03X13725000Y-4385000I-75000J0D01*
G01*
X13962500Y-6090000D02*
X14112500Y-6240000D01*
X14112500Y-6090000D02*
X13962500Y-6240000D01*
X14112500Y-6165000D02*
G75*
G03X14112500Y-6165000I-75000J0D01*
G01*
X14087500Y-6100000D02*
X13987500Y-6100000D01*
X14087500Y-6230000D02*
X13987500Y-6230000D01*
X13987500Y-6100000D02*
G75*
G03X13987500Y-6230000I0J-65000D01*
G01*
X14087500Y-6230000D02*
G75*
G03X14087500Y-6100000I0J65000D01*
G01*
X13986300Y-9850000D02*
X14136300Y-10000000D01*
X14136300Y-9850000D02*
X13986300Y-10000000D01*
X14136300Y-9925000D02*
G75*
G03X14136300Y-9925000I-75000J0D01*
G01*
X14051300Y-10025000D02*
X14201300Y-10175000D01*
X14201300Y-10025000D02*
X14051300Y-10175000D01*
X14201300Y-10100000D02*
G75*
G03X14201300Y-10100000I-75000J0D01*
G01*
X14438700Y-7995000D02*
X14588700Y-8145000D01*
X14588700Y-7995000D02*
X14438700Y-8145000D01*
X14588700Y-8070000D02*
G75*
G03X14588700Y-8070000I-75000J0D01*
G01*
X14563700Y-8005000D02*
X14463700Y-8005000D01*
X14563700Y-8135000D02*
X14463700Y-8135000D01*
X14463700Y-8005000D02*
G75*
G03X14463700Y-8135000I0J-65000D01*
G01*
X14563700Y-8135000D02*
G75*
G03X14563700Y-8005000I0J65000D01*
G01*
X14462500Y-6040000D02*
X14612500Y-6190000D01*
X14612500Y-6040000D02*
X14462500Y-6190000D01*
X14612500Y-6115000D02*
G75*
G03X14612500Y-6115000I-75000J0D01*
G01*
X14527500Y-6215000D02*
X14677500Y-6365000D01*
X14677500Y-6215000D02*
X14527500Y-6365000D01*
X14677500Y-6290000D02*
G75*
G03X14677500Y-6290000I-75000J0D01*
G01*
X14915000Y-4185000D02*
X15065000Y-4335000D01*
X15065000Y-4185000D02*
X14915000Y-4335000D01*
X15065000Y-4260000D02*
G75*
G03X15065000Y-4260000I-75000J0D01*
G01*
X15040000Y-4195000D02*
X14940000Y-4195000D01*
X15040000Y-4325000D02*
X14940000Y-4325000D01*
X14940000Y-4195000D02*
G75*
G03X14940000Y-4325000I0J-65000D01*
G01*
X15040000Y-4325000D02*
G75*
G03X15040000Y-4195000I0J65000D01*
G01*
X14915000Y-11805000D02*
X15065000Y-11955000D01*
X15065000Y-11805000D02*
X14915000Y-11955000D01*
X15065000Y-11880000D02*
G75*
G03X15065000Y-11880000I-75000J0D01*
G01*
X15040000Y-11815000D02*
X14940000Y-11815000D01*
X15040000Y-11945000D02*
X14940000Y-11945000D01*
X14940000Y-11815000D02*
G75*
G03X14940000Y-11945000I0J-65000D01*
G01*
X15040000Y-11945000D02*
G75*
G03X15040000Y-11815000I0J65000D01*
G01*
X14938700Y-7945000D02*
X15088700Y-8095000D01*
X15088700Y-7945000D02*
X14938700Y-8095000D01*
X15088700Y-8020000D02*
G75*
G03X15088700Y-8020000I-75000J0D01*
G01*
X15003700Y-8120000D02*
X15153700Y-8270000D01*
X15153700Y-8120000D02*
X15003700Y-8270000D01*
X15153700Y-8195000D02*
G75*
G03X15153700Y-8195000I-75000J0D01*
G01*
X15391300Y-9900000D02*
X15541300Y-10050000D01*
X15541300Y-9900000D02*
X15391300Y-10050000D01*
X15541300Y-9975000D02*
G75*
G03X15541300Y-9975000I-75000J0D01*
G01*
X15516300Y-9910000D02*
X15416300Y-9910000D01*
X15516300Y-10040000D02*
X15416300Y-10040000D01*
X15416300Y-9910000D02*
G75*
G03X15416300Y-10040000I0J-65000D01*
G01*
X15516300Y-10040000D02*
G75*
G03X15516300Y-9910000I0J65000D01*
G01*
X15415000Y-4135000D02*
X15565000Y-4285000D01*
X15565000Y-4135000D02*
X15415000Y-4285000D01*
X15565000Y-4210000D02*
G75*
G03X15565000Y-4210000I-75000J0D01*
G01*
X15415000Y-11755000D02*
X15565000Y-11905000D01*
X15565000Y-11755000D02*
X15415000Y-11905000D01*
X15565000Y-11830000D02*
G75*
G03X15565000Y-11830000I-75000J0D01*
G01*
X15480000Y-4310000D02*
X15630000Y-4460000D01*
X15630000Y-4310000D02*
X15480000Y-4460000D01*
X15630000Y-4385000D02*
G75*
G03X15630000Y-4385000I-75000J0D01*
G01*
X15480000Y-11930000D02*
X15630000Y-12080000D01*
X15630000Y-11930000D02*
X15480000Y-12080000D01*
X15630000Y-12005000D02*
G75*
G03X15630000Y-12005000I-75000J0D01*
G01*
X15629400Y-11805000D02*
X15779400Y-11955000D01*
X15779400Y-11805000D02*
X15629400Y-11955000D01*
X15779400Y-11880000D02*
G75*
G03X15779400Y-11880000I-75000J0D01*
G01*
X15754400Y-11815000D02*
X15654400Y-11815000D01*
X15754400Y-11945000D02*
X15654400Y-11945000D01*
X15654400Y-11815000D02*
G75*
G03X15654400Y-11945000I0J-65000D01*
G01*
X15754400Y-11945000D02*
G75*
G03X15754400Y-11815000I0J65000D01*
G01*
X15867500Y-6090000D02*
X16017500Y-6240000D01*
X16017500Y-6090000D02*
X15867500Y-6240000D01*
X16017500Y-6165000D02*
G75*
G03X16017500Y-6165000I-75000J0D01*
G01*
X15992500Y-6100000D02*
X15892500Y-6100000D01*
X15992500Y-6230000D02*
X15892500Y-6230000D01*
X15892500Y-6100000D02*
G75*
G03X15892500Y-6230000I0J-65000D01*
G01*
X15992500Y-6230000D02*
G75*
G03X15992500Y-6100000I0J65000D01*
G01*
X15891300Y-9850000D02*
X16041300Y-10000000D01*
X16041300Y-9850000D02*
X15891300Y-10000000D01*
X16041300Y-9925000D02*
G75*
G03X16041300Y-9925000I-75000J0D01*
G01*
X15956300Y-10025000D02*
X16106300Y-10175000D01*
X16106300Y-10025000D02*
X15956300Y-10175000D01*
X16106300Y-10100000D02*
G75*
G03X16106300Y-10100000I-75000J0D01*
G01*
X16129400Y-11755000D02*
X16279400Y-11905000D01*
X16279400Y-11755000D02*
X16129400Y-11905000D01*
X16279400Y-11830000D02*
G75*
G03X16279400Y-11830000I-75000J0D01*
G01*
X16194400Y-11930000D02*
X16344400Y-12080000D01*
X16344400Y-11930000D02*
X16194400Y-12080000D01*
X16344400Y-12005000D02*
G75*
G03X16344400Y-12005000I-75000J0D01*
G01*
X16343700Y-7995000D02*
X16493700Y-8145000D01*
X16493700Y-7995000D02*
X16343700Y-8145000D01*
X16493700Y-8070000D02*
G75*
G03X16493700Y-8070000I-75000J0D01*
G01*
X16468700Y-8005000D02*
X16368700Y-8005000D01*
X16468700Y-8135000D02*
X16368700Y-8135000D01*
X16368700Y-8005000D02*
G75*
G03X16368700Y-8135000I0J-65000D01*
G01*
X16468700Y-8135000D02*
G75*
G03X16468700Y-8005000I0J65000D01*
G01*
X16367500Y-6040000D02*
X16517500Y-6190000D01*
X16517500Y-6040000D02*
X16367500Y-6190000D01*
X16517500Y-6115000D02*
G75*
G03X16517500Y-6115000I-75000J0D01*
G01*
X16432500Y-6215000D02*
X16582500Y-6365000D01*
X16582500Y-6215000D02*
X16432500Y-6365000D01*
X16582500Y-6290000D02*
G75*
G03X16582500Y-6290000I-75000J0D01*
G01*
X16820000Y-4185000D02*
X16970000Y-4335000D01*
X16970000Y-4185000D02*
X16820000Y-4335000D01*
X16970000Y-4260000D02*
G75*
G03X16970000Y-4260000I-75000J0D01*
G01*
X16945000Y-4195000D02*
X16845000Y-4195000D01*
X16945000Y-4325000D02*
X16845000Y-4325000D01*
X16845000Y-4195000D02*
G75*
G03X16845000Y-4325000I0J-65000D01*
G01*
X16945000Y-4325000D02*
G75*
G03X16945000Y-4195000I0J65000D01*
G01*
X16820000Y-11805000D02*
X16970000Y-11955000D01*
X16970000Y-11805000D02*
X16820000Y-11955000D01*
X16970000Y-11880000D02*
G75*
G03X16970000Y-11880000I-75000J0D01*
G01*
X16945000Y-11815000D02*
X16845000Y-11815000D01*
X16945000Y-11945000D02*
X16845000Y-11945000D01*
X16845000Y-11815000D02*
G75*
G03X16845000Y-11945000I0J-65000D01*
G01*
X16945000Y-11945000D02*
G75*
G03X16945000Y-11815000I0J65000D01*
G01*
X16843700Y-7945000D02*
X16993700Y-8095000D01*
X16993700Y-7945000D02*
X16843700Y-8095000D01*
X16993700Y-8020000D02*
G75*
G03X16993700Y-8020000I-75000J0D01*
G01*
X16908700Y-8120000D02*
X17058700Y-8270000D01*
X17058700Y-8120000D02*
X16908700Y-8270000D01*
X17058700Y-8195000D02*
G75*
G03X17058700Y-8195000I-75000J0D01*
G01*
X17296300Y-9900000D02*
X17446300Y-10050000D01*
X17446300Y-9900000D02*
X17296300Y-10050000D01*
X17446300Y-9975000D02*
G75*
G03X17446300Y-9975000I-75000J0D01*
G01*
X17421300Y-9910000D02*
X17321300Y-9910000D01*
X17421300Y-10040000D02*
X17321300Y-10040000D01*
X17321300Y-9910000D02*
G75*
G03X17321300Y-10040000I0J-65000D01*
G01*
X17421300Y-10040000D02*
G75*
G03X17421300Y-9910000I0J65000D01*
G01*
X17320000Y-4135000D02*
X17470000Y-4285000D01*
X17470000Y-4135000D02*
X17320000Y-4285000D01*
X17470000Y-4210000D02*
G75*
G03X17470000Y-4210000I-75000J0D01*
G01*
X17320000Y-11755000D02*
X17470000Y-11905000D01*
X17470000Y-11755000D02*
X17320000Y-11905000D01*
X17470000Y-11830000D02*
G75*
G03X17470000Y-11830000I-75000J0D01*
G01*
X17385000Y-4310000D02*
X17535000Y-4460000D01*
X17535000Y-4310000D02*
X17385000Y-4460000D01*
X17535000Y-4385000D02*
G75*
G03X17535000Y-4385000I-75000J0D01*
G01*
X17385000Y-11930000D02*
X17535000Y-12080000D01*
X17535000Y-11930000D02*
X17385000Y-12080000D01*
X17535000Y-12005000D02*
G75*
G03X17535000Y-12005000I-75000J0D01*
G01*
X17772500Y-6090000D02*
X17922500Y-6240000D01*
X17922500Y-6090000D02*
X17772500Y-6240000D01*
X17922500Y-6165000D02*
G75*
G03X17922500Y-6165000I-75000J0D01*
G01*
X17897500Y-6100000D02*
X17797500Y-6100000D01*
X17897500Y-6230000D02*
X17797500Y-6230000D01*
X17797500Y-6100000D02*
G75*
G03X17797500Y-6230000I0J-65000D01*
G01*
X17897500Y-6230000D02*
G75*
G03X17897500Y-6100000I0J65000D01*
G01*
X17796300Y-9850000D02*
X17946300Y-10000000D01*
X17946300Y-9850000D02*
X17796300Y-10000000D01*
X17946300Y-9925000D02*
G75*
G03X17946300Y-9925000I-75000J0D01*
G01*
X17861300Y-10025000D02*
X18011300Y-10175000D01*
X18011300Y-10025000D02*
X17861300Y-10175000D01*
X18011300Y-10100000D02*
G75*
G03X18011300Y-10100000I-75000J0D01*
G01*
X18248700Y-7995000D02*
X18398700Y-8145000D01*
X18398700Y-7995000D02*
X18248700Y-8145000D01*
X18398700Y-8070000D02*
G75*
G03X18398700Y-8070000I-75000J0D01*
G01*
X18373700Y-8005000D02*
X18273700Y-8005000D01*
X18373700Y-8135000D02*
X18273700Y-8135000D01*
X18273700Y-8005000D02*
G75*
G03X18273700Y-8135000I0J-65000D01*
G01*
X18373700Y-8135000D02*
G75*
G03X18373700Y-8005000I0J65000D01*
G01*
X18272500Y-6040000D02*
X18422500Y-6190000D01*
X18422500Y-6040000D02*
X18272500Y-6190000D01*
X18422500Y-6115000D02*
G75*
G03X18422500Y-6115000I-75000J0D01*
G01*
X18337500Y-6215000D02*
X18487500Y-6365000D01*
X18487500Y-6215000D02*
X18337500Y-6365000D01*
X18487500Y-6290000D02*
G75*
G03X18487500Y-6290000I-75000J0D01*
G01*
X18725000Y-4185000D02*
X18875000Y-4335000D01*
X18875000Y-4185000D02*
X18725000Y-4335000D01*
X18875000Y-4260000D02*
G75*
G03X18875000Y-4260000I-75000J0D01*
G01*
X18850000Y-4195000D02*
X18750000Y-4195000D01*
X18850000Y-4325000D02*
X18750000Y-4325000D01*
X18750000Y-4195000D02*
G75*
G03X18750000Y-4325000I0J-65000D01*
G01*
X18850000Y-4325000D02*
G75*
G03X18850000Y-4195000I0J65000D01*
G01*
X18748700Y-7945000D02*
X18898700Y-8095000D01*
X18898700Y-7945000D02*
X18748700Y-8095000D01*
X18898700Y-8020000D02*
G75*
G03X18898700Y-8020000I-75000J0D01*
G01*
X18813700Y-8120000D02*
X18963700Y-8270000D01*
X18963700Y-8120000D02*
X18813700Y-8270000D01*
X18963700Y-8195000D02*
G75*
G03X18963700Y-8195000I-75000J0D01*
G01*
X19201300Y-9900000D02*
X19351300Y-10050000D01*
X19351300Y-9900000D02*
X19201300Y-10050000D01*
X19351300Y-9975000D02*
G75*
G03X19351300Y-9975000I-75000J0D01*
G01*
X19326300Y-9910000D02*
X19226300Y-9910000D01*
X19326300Y-10040000D02*
X19226300Y-10040000D01*
X19226300Y-9910000D02*
G75*
G03X19226300Y-10040000I0J-65000D01*
G01*
X19326300Y-10040000D02*
G75*
G03X19326300Y-9910000I0J65000D01*
G01*
X19225000Y-4135000D02*
X19375000Y-4285000D01*
X19375000Y-4135000D02*
X19225000Y-4285000D01*
X19375000Y-4210000D02*
G75*
G03X19375000Y-4210000I-75000J0D01*
G01*
X19290000Y-4310000D02*
X19440000Y-4460000D01*
X19440000Y-4310000D02*
X19290000Y-4460000D01*
X19440000Y-4385000D02*
G75*
G03X19440000Y-4385000I-75000J0D01*
G01*
X19677500Y-6090000D02*
X19827500Y-6240000D01*
X19827500Y-6090000D02*
X19677500Y-6240000D01*
X19827500Y-6165000D02*
G75*
G03X19827500Y-6165000I-75000J0D01*
G01*
X19802500Y-6100000D02*
X19702500Y-6100000D01*
X19802500Y-6230000D02*
X19702500Y-6230000D01*
X19702500Y-6100000D02*
G75*
G03X19702500Y-6230000I0J-65000D01*
G01*
X19802500Y-6230000D02*
G75*
G03X19802500Y-6100000I0J65000D01*
G01*
X19701300Y-9850000D02*
X19851300Y-10000000D01*
X19851300Y-9850000D02*
X19701300Y-10000000D01*
X19851300Y-9925000D02*
G75*
G03X19851300Y-9925000I-75000J0D01*
G01*
X19766300Y-10025000D02*
X19916300Y-10175000D01*
X19916300Y-10025000D02*
X19766300Y-10175000D01*
X19916300Y-10100000D02*
G75*
G03X19916300Y-10100000I-75000J0D01*
G01*
X20153700Y-7995000D02*
X20303700Y-8145000D01*
X20303700Y-7995000D02*
X20153700Y-8145000D01*
X20303700Y-8070000D02*
G75*
G03X20303700Y-8070000I-75000J0D01*
G01*
X20278700Y-8005000D02*
X20178700Y-8005000D01*
X20278700Y-8135000D02*
X20178700Y-8135000D01*
X20178700Y-8005000D02*
G75*
G03X20178700Y-8135000I0J-65000D01*
G01*
X20278700Y-8135000D02*
G75*
G03X20278700Y-8005000I0J65000D01*
G01*
X20177500Y-6040000D02*
X20327500Y-6190000D01*
X20327500Y-6040000D02*
X20177500Y-6190000D01*
X20327500Y-6115000D02*
G75*
G03X20327500Y-6115000I-75000J0D01*
G01*
X20242500Y-6215000D02*
X20392500Y-6365000D01*
X20392500Y-6215000D02*
X20242500Y-6365000D01*
X20392500Y-6290000D02*
G75*
G03X20392500Y-6290000I-75000J0D01*
G01*
X20630000Y-4185000D02*
X20780000Y-4335000D01*
X20780000Y-4185000D02*
X20630000Y-4335000D01*
X20780000Y-4260000D02*
G75*
G03X20780000Y-4260000I-75000J0D01*
G01*
X20755000Y-4195000D02*
X20655000Y-4195000D01*
X20755000Y-4325000D02*
X20655000Y-4325000D01*
X20655000Y-4195000D02*
G75*
G03X20655000Y-4325000I0J-65000D01*
G01*
X20755000Y-4325000D02*
G75*
G03X20755000Y-4195000I0J65000D01*
G01*
X20653700Y-7945000D02*
X20803700Y-8095000D01*
X20803700Y-7945000D02*
X20653700Y-8095000D01*
X20803700Y-8020000D02*
G75*
G03X20803700Y-8020000I-75000J0D01*
G01*
X20718700Y-8120000D02*
X20868700Y-8270000D01*
X20868700Y-8120000D02*
X20718700Y-8270000D01*
X20868700Y-8195000D02*
G75*
G03X20868700Y-8195000I-75000J0D01*
G01*
X21106300Y-9900000D02*
X21256300Y-10050000D01*
X21256300Y-9900000D02*
X21106300Y-10050000D01*
X21256300Y-9975000D02*
G75*
G03X21256300Y-9975000I-75000J0D01*
G01*
X21231300Y-9910000D02*
X21131300Y-9910000D01*
X21231300Y-10040000D02*
X21131300Y-10040000D01*
X21131300Y-9910000D02*
G75*
G03X21131300Y-10040000I0J-65000D01*
G01*
X21231300Y-10040000D02*
G75*
G03X21231300Y-9910000I0J65000D01*
G01*
X21130000Y-4135000D02*
X21280000Y-4285000D01*
X21280000Y-4135000D02*
X21130000Y-4285000D01*
X21280000Y-4210000D02*
G75*
G03X21280000Y-4210000I-75000J0D01*
G01*
X21195000Y-4310000D02*
X21345000Y-4460000D01*
X21345000Y-4310000D02*
X21195000Y-4460000D01*
X21345000Y-4385000D02*
G75*
G03X21345000Y-4385000I-75000J0D01*
G01*
X21582500Y-6090000D02*
X21732500Y-6240000D01*
X21732500Y-6090000D02*
X21582500Y-6240000D01*
X21732500Y-6165000D02*
G75*
G03X21732500Y-6165000I-75000J0D01*
G01*
X21707500Y-6100000D02*
X21607500Y-6100000D01*
X21707500Y-6230000D02*
X21607500Y-6230000D01*
X21607500Y-6100000D02*
G75*
G03X21607500Y-6230000I0J-65000D01*
G01*
X21707500Y-6230000D02*
G75*
G03X21707500Y-6100000I0J65000D01*
G01*
X21606300Y-9850000D02*
X21756300Y-10000000D01*
X21756300Y-9850000D02*
X21606300Y-10000000D01*
X21756300Y-9925000D02*
G75*
G03X21756300Y-9925000I-75000J0D01*
G01*
X21671300Y-10025000D02*
X21821300Y-10175000D01*
X21821300Y-10025000D02*
X21671300Y-10175000D01*
X21821300Y-10100000D02*
G75*
G03X21821300Y-10100000I-75000J0D01*
G01*
X22058700Y-7995000D02*
X22208700Y-8145000D01*
X22208700Y-7995000D02*
X22058700Y-8145000D01*
X22208700Y-8070000D02*
G75*
G03X22208700Y-8070000I-75000J0D01*
G01*
X22183700Y-8005000D02*
X22083700Y-8005000D01*
X22183700Y-8135000D02*
X22083700Y-8135000D01*
X22083700Y-8005000D02*
G75*
G03X22083700Y-8135000I0J-65000D01*
G01*
X22183700Y-8135000D02*
G75*
G03X22183700Y-8005000I0J65000D01*
G01*
X22082500Y-6040000D02*
X22232500Y-6190000D01*
X22232500Y-6040000D02*
X22082500Y-6190000D01*
X22232500Y-6115000D02*
G75*
G03X22232500Y-6115000I-75000J0D01*
G01*
X22147500Y-6215000D02*
X22297500Y-6365000D01*
X22297500Y-6215000D02*
X22147500Y-6365000D01*
X22297500Y-6290000D02*
G75*
G03X22297500Y-6290000I-75000J0D01*
G01*
X22470000Y-10780000D02*
X22620000Y-10930000D01*
X22620000Y-10780000D02*
X22470000Y-10930000D01*
X22620000Y-10855000D02*
G75*
G03X22620000Y-10855000I-75000J0D01*
G01*
X22535000Y-4185000D02*
X22685000Y-4335000D01*
X22685000Y-4185000D02*
X22535000Y-4335000D01*
X22685000Y-4260000D02*
G75*
G03X22685000Y-4260000I-75000J0D01*
G01*
X22660000Y-4195000D02*
X22560000Y-4195000D01*
X22660000Y-4325000D02*
X22560000Y-4325000D01*
X22560000Y-4195000D02*
G75*
G03X22560000Y-4325000I0J-65000D01*
G01*
X22660000Y-4325000D02*
G75*
G03X22660000Y-4195000I0J65000D01*
G01*
X22535000Y-10955000D02*
X22685000Y-11105000D01*
X22685000Y-10955000D02*
X22535000Y-11105000D01*
X22685000Y-11030000D02*
G75*
G03X22685000Y-11030000I-75000J0D01*
G01*
X22558700Y-7945000D02*
X22708700Y-8095000D01*
X22708700Y-7945000D02*
X22558700Y-8095000D01*
X22708700Y-8020000D02*
G75*
G03X22708700Y-8020000I-75000J0D01*
G01*
X22623700Y-8120000D02*
X22773700Y-8270000D01*
X22773700Y-8120000D02*
X22623700Y-8270000D01*
X22773700Y-8195000D02*
G75*
G03X22773700Y-8195000I-75000J0D01*
G01*
X22773100Y-11805000D02*
X22923100Y-11955000D01*
X22923100Y-11805000D02*
X22773100Y-11955000D01*
X22923100Y-11880000D02*
G75*
G03X22923100Y-11880000I-75000J0D01*
G01*
X22898100Y-11815000D02*
X22798100Y-11815000D01*
X22898100Y-11945000D02*
X22798100Y-11945000D01*
X22798100Y-11815000D02*
G75*
G03X22798100Y-11945000I0J-65000D01*
G01*
X22898100Y-11945000D02*
G75*
G03X22898100Y-11815000I0J65000D01*
G01*
X22946300Y-10780000D02*
X23096300Y-10930000D01*
X23096300Y-10780000D02*
X22946300Y-10930000D01*
X23096300Y-10855000D02*
G75*
G03X23096300Y-10855000I-75000J0D01*
G01*
X23011300Y-9900000D02*
X23161300Y-10050000D01*
X23161300Y-9900000D02*
X23011300Y-10050000D01*
X23161300Y-9975000D02*
G75*
G03X23161300Y-9975000I-75000J0D01*
G01*
X23136300Y-9910000D02*
X23036300Y-9910000D01*
X23136300Y-10040000D02*
X23036300Y-10040000D01*
X23036300Y-9910000D02*
G75*
G03X23036300Y-10040000I0J-65000D01*
G01*
X23136300Y-10040000D02*
G75*
G03X23136300Y-9910000I0J65000D01*
G01*
X23011300Y-10955000D02*
X23161300Y-11105000D01*
X23161300Y-10955000D02*
X23011300Y-11105000D01*
X23161300Y-11030000D02*
G75*
G03X23161300Y-11030000I-75000J0D01*
G01*
X23035000Y-4135000D02*
X23185000Y-4285000D01*
X23185000Y-4135000D02*
X23035000Y-4285000D01*
X23185000Y-4210000D02*
G75*
G03X23185000Y-4210000I-75000J0D01*
G01*
X23035000Y-10905000D02*
X23185000Y-11055000D01*
X23185000Y-10905000D02*
X23035000Y-11055000D01*
X23185000Y-10980000D02*
G75*
G03X23185000Y-10980000I-75000J0D01*
G01*
X23060000Y-11045000D02*
X23160000Y-11045000D01*
X23060000Y-10915000D02*
X23160000Y-10915000D01*
X23160000Y-11045000D02*
G75*
G03X23160000Y-10915000I0J65000D01*
G01*
X23060000Y-10915000D02*
G75*
G03X23060000Y-11045000I0J-65000D01*
G01*
X23100000Y-4310000D02*
X23250000Y-4460000D01*
X23250000Y-4310000D02*
X23100000Y-4460000D01*
X23250000Y-4385000D02*
G75*
G03X23250000Y-4385000I-75000J0D01*
G01*
X23273100Y-11755000D02*
X23423100Y-11905000D01*
X23423100Y-11755000D02*
X23273100Y-11905000D01*
X23423100Y-11830000D02*
G75*
G03X23423100Y-11830000I-75000J0D01*
G01*
X23338100Y-11930000D02*
X23488100Y-12080000D01*
X23488100Y-11930000D02*
X23338100Y-12080000D01*
X23488100Y-12005000D02*
G75*
G03X23488100Y-12005000I-75000J0D01*
G01*
X23487500Y-6090000D02*
X23637500Y-6240000D01*
X23637500Y-6090000D02*
X23487500Y-6240000D01*
X23637500Y-6165000D02*
G75*
G03X23637500Y-6165000I-75000J0D01*
G01*
X23612500Y-6100000D02*
X23512500Y-6100000D01*
X23612500Y-6230000D02*
X23512500Y-6230000D01*
X23512500Y-6100000D02*
G75*
G03X23512500Y-6230000I0J-65000D01*
G01*
X23612500Y-6230000D02*
G75*
G03X23612500Y-6100000I0J65000D01*
G01*
X23511300Y-9850000D02*
X23661300Y-10000000D01*
X23661300Y-9850000D02*
X23511300Y-10000000D01*
X23661300Y-9925000D02*
G75*
G03X23661300Y-9925000I-75000J0D01*
G01*
X23511300Y-10905000D02*
X23661300Y-11055000D01*
X23661300Y-10905000D02*
X23511300Y-11055000D01*
X23661300Y-10980000D02*
G75*
G03X23661300Y-10980000I-75000J0D01*
G01*
X23536300Y-11045000D02*
X23636300Y-11045000D01*
X23536300Y-10915000D02*
X23636300Y-10915000D01*
X23636300Y-11045000D02*
G75*
G03X23636300Y-10915000I0J65000D01*
G01*
X23536300Y-10915000D02*
G75*
G03X23536300Y-11045000I0J-65000D01*
G01*
X23576300Y-10025000D02*
X23726300Y-10175000D01*
X23726300Y-10025000D02*
X23576300Y-10175000D01*
X23726300Y-10100000D02*
G75*
G03X23726300Y-10100000I-75000J0D01*
G01*
X23963700Y-7995000D02*
X24113700Y-8145000D01*
X24113700Y-7995000D02*
X23963700Y-8145000D01*
X24113700Y-8070000D02*
G75*
G03X24113700Y-8070000I-75000J0D01*
G01*
X24088700Y-8005000D02*
X23988700Y-8005000D01*
X24088700Y-8135000D02*
X23988700Y-8135000D01*
X23988700Y-8005000D02*
G75*
G03X23988700Y-8135000I0J-65000D01*
G01*
X24088700Y-8135000D02*
G75*
G03X24088700Y-8005000I0J65000D01*
G01*
X23987500Y-6040000D02*
X24137500Y-6190000D01*
X24137500Y-6040000D02*
X23987500Y-6190000D01*
X24137500Y-6115000D02*
G75*
G03X24137500Y-6115000I-75000J0D01*
G01*
X24052500Y-6215000D02*
X24202500Y-6365000D01*
X24202500Y-6215000D02*
X24052500Y-6365000D01*
X24202500Y-6290000D02*
G75*
G03X24202500Y-6290000I-75000J0D01*
G01*
X24440000Y-4185000D02*
X24590000Y-4335000D01*
X24590000Y-4185000D02*
X24440000Y-4335000D01*
X24590000Y-4260000D02*
G75*
G03X24590000Y-4260000I-75000J0D01*
G01*
X24565000Y-4195000D02*
X24465000Y-4195000D01*
X24565000Y-4325000D02*
X24465000Y-4325000D01*
X24465000Y-4195000D02*
G75*
G03X24465000Y-4325000I0J-65000D01*
G01*
X24565000Y-4325000D02*
G75*
G03X24565000Y-4195000I0J65000D01*
G01*
X24440000Y-11805000D02*
X24590000Y-11955000D01*
X24590000Y-11805000D02*
X24440000Y-11955000D01*
X24590000Y-11880000D02*
G75*
G03X24590000Y-11880000I-75000J0D01*
G01*
X24565000Y-11815000D02*
X24465000Y-11815000D01*
X24565000Y-11945000D02*
X24465000Y-11945000D01*
X24465000Y-11815000D02*
G75*
G03X24465000Y-11945000I0J-65000D01*
G01*
X24565000Y-11945000D02*
G75*
G03X24565000Y-11815000I0J65000D01*
G01*
X24463700Y-7945000D02*
X24613700Y-8095000D01*
X24613700Y-7945000D02*
X24463700Y-8095000D01*
X24613700Y-8020000D02*
G75*
G03X24613700Y-8020000I-75000J0D01*
G01*
X24528700Y-8120000D02*
X24678700Y-8270000D01*
X24678700Y-8120000D02*
X24528700Y-8270000D01*
X24678700Y-8195000D02*
G75*
G03X24678700Y-8195000I-75000J0D01*
G01*
X24916300Y-9900000D02*
X25066300Y-10050000D01*
X25066300Y-9900000D02*
X24916300Y-10050000D01*
X25066300Y-9975000D02*
G75*
G03X25066300Y-9975000I-75000J0D01*
G01*
X25041300Y-9910000D02*
X24941300Y-9910000D01*
X25041300Y-10040000D02*
X24941300Y-10040000D01*
X24941300Y-9910000D02*
G75*
G03X24941300Y-10040000I0J-65000D01*
G01*
X25041300Y-10040000D02*
G75*
G03X25041300Y-9910000I0J65000D01*
G01*
X24940000Y-4135000D02*
X25090000Y-4285000D01*
X25090000Y-4135000D02*
X24940000Y-4285000D01*
X25090000Y-4210000D02*
G75*
G03X25090000Y-4210000I-75000J0D01*
G01*
X24940000Y-11755000D02*
X25090000Y-11905000D01*
X25090000Y-11755000D02*
X24940000Y-11905000D01*
X25090000Y-11830000D02*
G75*
G03X25090000Y-11830000I-75000J0D01*
G01*
X25005000Y-4310000D02*
X25155000Y-4460000D01*
X25155000Y-4310000D02*
X25005000Y-4460000D01*
X25155000Y-4385000D02*
G75*
G03X25155000Y-4385000I-75000J0D01*
G01*
X25005000Y-11930000D02*
X25155000Y-12080000D01*
X25155000Y-11930000D02*
X25005000Y-12080000D01*
X25155000Y-12005000D02*
G75*
G03X25155000Y-12005000I-75000J0D01*
G01*
X25154400Y-11805000D02*
X25304400Y-11955000D01*
X25304400Y-11805000D02*
X25154400Y-11955000D01*
X25304400Y-11880000D02*
G75*
G03X25304400Y-11880000I-75000J0D01*
G01*
X25279400Y-11815000D02*
X25179400Y-11815000D01*
X25279400Y-11945000D02*
X25179400Y-11945000D01*
X25179400Y-11815000D02*
G75*
G03X25179400Y-11945000I0J-65000D01*
G01*
X25279400Y-11945000D02*
G75*
G03X25279400Y-11815000I0J65000D01*
G01*
X25392500Y-6090000D02*
X25542500Y-6240000D01*
X25542500Y-6090000D02*
X25392500Y-6240000D01*
X25542500Y-6165000D02*
G75*
G03X25542500Y-6165000I-75000J0D01*
G01*
X25517500Y-6100000D02*
X25417500Y-6100000D01*
X25517500Y-6230000D02*
X25417500Y-6230000D01*
X25417500Y-6100000D02*
G75*
G03X25417500Y-6230000I0J-65000D01*
G01*
X25517500Y-6230000D02*
G75*
G03X25517500Y-6100000I0J65000D01*
G01*
X25416300Y-9850000D02*
X25566300Y-10000000D01*
X25566300Y-9850000D02*
X25416300Y-10000000D01*
X25566300Y-9925000D02*
G75*
G03X25566300Y-9925000I-75000J0D01*
G01*
X25481300Y-10025000D02*
X25631300Y-10175000D01*
X25631300Y-10025000D02*
X25481300Y-10175000D01*
X25631300Y-10100000D02*
G75*
G03X25631300Y-10100000I-75000J0D01*
G01*
X25654400Y-11755000D02*
X25804400Y-11905000D01*
X25804400Y-11755000D02*
X25654400Y-11905000D01*
X25804400Y-11830000D02*
G75*
G03X25804400Y-11830000I-75000J0D01*
G01*
X25719400Y-11930000D02*
X25869400Y-12080000D01*
X25869400Y-11930000D02*
X25719400Y-12080000D01*
X25869400Y-12005000D02*
G75*
G03X25869400Y-12005000I-75000J0D01*
G01*
X25803700Y-10780000D02*
X25953700Y-10930000D01*
X25953700Y-10780000D02*
X25803700Y-10930000D01*
X25953700Y-10855000D02*
G75*
G03X25953700Y-10855000I-75000J0D01*
G01*
X25868700Y-7995000D02*
X26018700Y-8145000D01*
X26018700Y-7995000D02*
X25868700Y-8145000D01*
X26018700Y-8070000D02*
G75*
G03X26018700Y-8070000I-75000J0D01*
G01*
X25993700Y-8005000D02*
X25893700Y-8005000D01*
X25993700Y-8135000D02*
X25893700Y-8135000D01*
X25893700Y-8005000D02*
G75*
G03X25893700Y-8135000I0J-65000D01*
G01*
X25993700Y-8135000D02*
G75*
G03X25993700Y-8005000I0J65000D01*
G01*
X25868700Y-10955000D02*
X26018700Y-11105000D01*
X26018700Y-10955000D02*
X25868700Y-11105000D01*
X26018700Y-11030000D02*
G75*
G03X26018700Y-11030000I-75000J0D01*
G01*
X25892500Y-6040000D02*
X26042500Y-6190000D01*
X26042500Y-6040000D02*
X25892500Y-6190000D01*
X26042500Y-6115000D02*
G75*
G03X26042500Y-6115000I-75000J0D01*
G01*
X25957500Y-6215000D02*
X26107500Y-6365000D01*
X26107500Y-6215000D02*
X25957500Y-6365000D01*
X26107500Y-6290000D02*
G75*
G03X26107500Y-6290000I-75000J0D01*
G01*
X26345000Y-4185000D02*
X26495000Y-4335000D01*
X26495000Y-4185000D02*
X26345000Y-4335000D01*
X26495000Y-4260000D02*
G75*
G03X26495000Y-4260000I-75000J0D01*
G01*
X26470000Y-4195000D02*
X26370000Y-4195000D01*
X26470000Y-4325000D02*
X26370000Y-4325000D01*
X26370000Y-4195000D02*
G75*
G03X26370000Y-4325000I0J-65000D01*
G01*
X26470000Y-4325000D02*
G75*
G03X26470000Y-4195000I0J65000D01*
G01*
X26345000Y-11805000D02*
X26495000Y-11955000D01*
X26495000Y-11805000D02*
X26345000Y-11955000D01*
X26495000Y-11880000D02*
G75*
G03X26495000Y-11880000I-75000J0D01*
G01*
X26470000Y-11815000D02*
X26370000Y-11815000D01*
X26470000Y-11945000D02*
X26370000Y-11945000D01*
X26370000Y-11815000D02*
G75*
G03X26370000Y-11945000I0J-65000D01*
G01*
X26470000Y-11945000D02*
G75*
G03X26470000Y-11815000I0J65000D01*
G01*
X26368700Y-7945000D02*
X26518700Y-8095000D01*
X26518700Y-7945000D02*
X26368700Y-8095000D01*
X26518700Y-8020000D02*
G75*
G03X26518700Y-8020000I-75000J0D01*
G01*
X26368700Y-10905000D02*
X26518700Y-11055000D01*
X26518700Y-10905000D02*
X26368700Y-11055000D01*
X26518700Y-10980000D02*
G75*
G03X26518700Y-10980000I-75000J0D01*
G01*
X26393700Y-11045000D02*
X26493700Y-11045000D01*
X26393700Y-10915000D02*
X26493700Y-10915000D01*
X26493700Y-11045000D02*
G75*
G03X26493700Y-10915000I0J65000D01*
G01*
X26393700Y-10915000D02*
G75*
G03X26393700Y-11045000I0J-65000D01*
G01*
X26433700Y-8120000D02*
X26583700Y-8270000D01*
X26583700Y-8120000D02*
X26433700Y-8270000D01*
X26583700Y-8195000D02*
G75*
G03X26583700Y-8195000I-75000J0D01*
G01*
X26845000Y-4135000D02*
X26995000Y-4285000D01*
X26995000Y-4135000D02*
X26845000Y-4285000D01*
X26995000Y-4210000D02*
G75*
G03X26995000Y-4210000I-75000J0D01*
G01*
X26845000Y-11755000D02*
X26995000Y-11905000D01*
X26995000Y-11755000D02*
X26845000Y-11905000D01*
X26995000Y-11830000D02*
G75*
G03X26995000Y-11830000I-75000J0D01*
G01*
X26910000Y-4310000D02*
X27060000Y-4460000D01*
X27060000Y-4310000D02*
X26910000Y-4460000D01*
X27060000Y-4385000D02*
G75*
G03X27060000Y-4385000I-75000J0D01*
G01*
X26910000Y-11930000D02*
X27060000Y-12080000D01*
X27060000Y-11930000D02*
X26910000Y-12080000D01*
X27060000Y-12005000D02*
G75*
G03X27060000Y-12005000I-75000J0D01*
G01*
X27297500Y-6090000D02*
X27447500Y-6240000D01*
X27447500Y-6090000D02*
X27297500Y-6240000D01*
X27447500Y-6165000D02*
G75*
G03X27447500Y-6165000I-75000J0D01*
G01*
X27422500Y-6100000D02*
X27322500Y-6100000D01*
X27422500Y-6230000D02*
X27322500Y-6230000D01*
X27322500Y-6100000D02*
G75*
G03X27322500Y-6230000I0J-65000D01*
G01*
X27422500Y-6230000D02*
G75*
G03X27422500Y-6100000I0J65000D01*
G01*
X27535600Y-9900000D02*
X27685600Y-10050000D01*
X27685600Y-9900000D02*
X27535600Y-10050000D01*
X27685600Y-9975000D02*
G75*
G03X27685600Y-9975000I-75000J0D01*
G01*
X27660600Y-9910000D02*
X27560600Y-9910000D01*
X27660600Y-10040000D02*
X27560600Y-10040000D01*
X27560600Y-9910000D02*
G75*
G03X27560600Y-10040000I0J-65000D01*
G01*
X27660600Y-10040000D02*
G75*
G03X27660600Y-9910000I0J65000D01*
G01*
X27773700Y-7995000D02*
X27923700Y-8145000D01*
X27923700Y-7995000D02*
X27773700Y-8145000D01*
X27923700Y-8070000D02*
G75*
G03X27923700Y-8070000I-75000J0D01*
G01*
X27898700Y-8005000D02*
X27798700Y-8005000D01*
X27898700Y-8135000D02*
X27798700Y-8135000D01*
X27798700Y-8005000D02*
G75*
G03X27798700Y-8135000I0J-65000D01*
G01*
X27898700Y-8135000D02*
G75*
G03X27898700Y-8005000I0J65000D01*
G01*
X27797500Y-6040000D02*
X27947500Y-6190000D01*
X27947500Y-6040000D02*
X27797500Y-6190000D01*
X27947500Y-6115000D02*
G75*
G03X27947500Y-6115000I-75000J0D01*
G01*
X27862500Y-6215000D02*
X28012500Y-6365000D01*
X28012500Y-6215000D02*
X27862500Y-6365000D01*
X28012500Y-6290000D02*
G75*
G03X28012500Y-6290000I-75000J0D01*
G01*
X28035600Y-9850000D02*
X28185600Y-10000000D01*
X28185600Y-9850000D02*
X28035600Y-10000000D01*
X28185600Y-9925000D02*
G75*
G03X28185600Y-9925000I-75000J0D01*
G01*
X28100600Y-10025000D02*
X28250600Y-10175000D01*
X28250600Y-10025000D02*
X28100600Y-10175000D01*
X28250600Y-10100000D02*
G75*
G03X28250600Y-10100000I-75000J0D01*
G01*
X28250000Y-4185000D02*
X28400000Y-4335000D01*
X28400000Y-4185000D02*
X28250000Y-4335000D01*
X28400000Y-4260000D02*
G75*
G03X28400000Y-4260000I-75000J0D01*
G01*
X28375000Y-4195000D02*
X28275000Y-4195000D01*
X28375000Y-4325000D02*
X28275000Y-4325000D01*
X28275000Y-4195000D02*
G75*
G03X28275000Y-4325000I0J-65000D01*
G01*
X28375000Y-4325000D02*
G75*
G03X28375000Y-4195000I0J65000D01*
G01*
X28250000Y-11805000D02*
X28400000Y-11955000D01*
X28400000Y-11805000D02*
X28250000Y-11955000D01*
X28400000Y-11880000D02*
G75*
G03X28400000Y-11880000I-75000J0D01*
G01*
X28375000Y-11815000D02*
X28275000Y-11815000D01*
X28375000Y-11945000D02*
X28275000Y-11945000D01*
X28275000Y-11815000D02*
G75*
G03X28275000Y-11945000I0J-65000D01*
G01*
X28375000Y-11945000D02*
G75*
G03X28375000Y-11815000I0J65000D01*
G01*
X28273700Y-7945000D02*
X28423700Y-8095000D01*
X28423700Y-7945000D02*
X28273700Y-8095000D01*
X28423700Y-8020000D02*
G75*
G03X28423700Y-8020000I-75000J0D01*
G01*
X28338700Y-8120000D02*
X28488700Y-8270000D01*
X28488700Y-8120000D02*
X28338700Y-8270000D01*
X28488700Y-8195000D02*
G75*
G03X28488700Y-8195000I-75000J0D01*
G01*
X28488100Y-9900000D02*
X28638100Y-10050000D01*
X28638100Y-9900000D02*
X28488100Y-10050000D01*
X28638100Y-9975000D02*
G75*
G03X28638100Y-9975000I-75000J0D01*
G01*
X28613100Y-9910000D02*
X28513100Y-9910000D01*
X28613100Y-10040000D02*
X28513100Y-10040000D01*
X28513100Y-9910000D02*
G75*
G03X28513100Y-10040000I0J-65000D01*
G01*
X28613100Y-10040000D02*
G75*
G03X28613100Y-9910000I0J65000D01*
G01*
X28750000Y-4135000D02*
X28900000Y-4285000D01*
X28900000Y-4135000D02*
X28750000Y-4285000D01*
X28900000Y-4210000D02*
G75*
G03X28900000Y-4210000I-75000J0D01*
G01*
X28750000Y-11755000D02*
X28900000Y-11905000D01*
X28900000Y-11755000D02*
X28750000Y-11905000D01*
X28900000Y-11830000D02*
G75*
G03X28900000Y-11830000I-75000J0D01*
G01*
X28815000Y-4310000D02*
X28965000Y-4460000D01*
X28965000Y-4310000D02*
X28815000Y-4460000D01*
X28965000Y-4385000D02*
G75*
G03X28965000Y-4385000I-75000J0D01*
G01*
X28815000Y-11930000D02*
X28965000Y-12080000D01*
X28965000Y-11930000D02*
X28815000Y-12080000D01*
X28965000Y-12005000D02*
G75*
G03X28965000Y-12005000I-75000J0D01*
G01*
X28964400Y-7995000D02*
X29114400Y-8145000D01*
X29114400Y-7995000D02*
X28964400Y-8145000D01*
X29114400Y-8070000D02*
G75*
G03X29114400Y-8070000I-75000J0D01*
G01*
X29089400Y-8005000D02*
X28989400Y-8005000D01*
X29089400Y-8135000D02*
X28989400Y-8135000D01*
X28989400Y-8005000D02*
G75*
G03X28989400Y-8135000I0J-65000D01*
G01*
X29089400Y-8135000D02*
G75*
G03X29089400Y-8005000I0J65000D01*
G01*
X28988100Y-9850000D02*
X29138100Y-10000000D01*
X29138100Y-9850000D02*
X28988100Y-10000000D01*
X29138100Y-9925000D02*
G75*
G03X29138100Y-9925000I-75000J0D01*
G01*
X29053100Y-10025000D02*
X29203100Y-10175000D01*
X29203100Y-10025000D02*
X29053100Y-10175000D01*
X29203100Y-10100000D02*
G75*
G03X29203100Y-10100000I-75000J0D01*
G01*
X29202500Y-4185000D02*
X29352500Y-4335000D01*
X29352500Y-4185000D02*
X29202500Y-4335000D01*
X29352500Y-4260000D02*
G75*
G03X29352500Y-4260000I-75000J0D01*
G01*
X29327500Y-4195000D02*
X29227500Y-4195000D01*
X29327500Y-4325000D02*
X29227500Y-4325000D01*
X29227500Y-4195000D02*
G75*
G03X29227500Y-4325000I0J-65000D01*
G01*
X29327500Y-4325000D02*
G75*
G03X29327500Y-4195000I0J65000D01*
G01*
X29464400Y-7945000D02*
X29614400Y-8095000D01*
X29614400Y-7945000D02*
X29464400Y-8095000D01*
X29614400Y-8020000D02*
G75*
G03X29614400Y-8020000I-75000J0D01*
G01*
X29529400Y-8120000D02*
X29679400Y-8270000D01*
X29679400Y-8120000D02*
X29529400Y-8270000D01*
X29679400Y-8195000D02*
G75*
G03X29679400Y-8195000I-75000J0D01*
G01*
X29591900Y-6907500D02*
X29741900Y-7057500D01*
X29741900Y-6907500D02*
X29591900Y-7057500D01*
X29741900Y-6982500D02*
G75*
G03X29741900Y-6982500I-75000J0D01*
G01*
X29613700Y-5065000D02*
X29763700Y-5215000D01*
X29763700Y-5065000D02*
X29613700Y-5215000D01*
X29763700Y-5140000D02*
G75*
G03X29763700Y-5140000I-75000J0D01*
G01*
X29678700Y-5240000D02*
X29828700Y-5390000D01*
X29828700Y-5240000D02*
X29678700Y-5390000D01*
X29828700Y-5315000D02*
G75*
G03X29828700Y-5315000I-75000J0D01*
G01*
X29702500Y-4135000D02*
X29852500Y-4285000D01*
X29852500Y-4135000D02*
X29702500Y-4285000D01*
X29852500Y-4210000D02*
G75*
G03X29852500Y-4210000I-75000J0D01*
G01*
X29716900Y-6342500D02*
X29866900Y-6492500D01*
X29866900Y-6342500D02*
X29716900Y-6492500D01*
X29866900Y-6417500D02*
G75*
G03X29866900Y-6417500I-75000J0D01*
G01*
X29856900Y-6467500D02*
X29856900Y-6367500D01*
X29726900Y-6467500D02*
X29726900Y-6367500D01*
X29856900Y-6367500D02*
G75*
G03X29726900Y-6367500I-65000J0D01*
G01*
X29726900Y-6467500D02*
G75*
G03X29856900Y-6467500I65000J0D01*
G01*
X29766900Y-6842500D02*
X29916900Y-6992500D01*
X29916900Y-6842500D02*
X29766900Y-6992500D01*
X29916900Y-6917500D02*
G75*
G03X29916900Y-6917500I-75000J0D01*
G01*
X29767500Y-4310000D02*
X29917500Y-4460000D01*
X29917500Y-4310000D02*
X29767500Y-4460000D01*
X29917500Y-4385000D02*
G75*
G03X29917500Y-4385000I-75000J0D01*
G01*
X29851900Y-6017500D02*
X30001900Y-6167500D01*
X30001900Y-6017500D02*
X29851900Y-6167500D01*
X30001900Y-6092500D02*
G75*
G03X30001900Y-6092500I-75000J0D01*
G01*
X29916900Y-6192500D02*
X30066900Y-6342500D01*
X30066900Y-6192500D02*
X29916900Y-6342500D01*
X30066900Y-6267500D02*
G75*
G03X30066900Y-6267500I-75000J0D01*
G01*
X29916900Y-7995000D02*
X30066900Y-8145000D01*
X30066900Y-7995000D02*
X29916900Y-8145000D01*
X30066900Y-8070000D02*
G75*
G03X30066900Y-8070000I-75000J0D01*
G01*
X30041900Y-8005000D02*
X29941900Y-8005000D01*
X30041900Y-8135000D02*
X29941900Y-8135000D01*
X29941900Y-8005000D02*
G75*
G03X29941900Y-8135000I0J-65000D01*
G01*
X30041900Y-8135000D02*
G75*
G03X30041900Y-8005000I0J65000D01*
G01*
X30155000Y-4185000D02*
X30305000Y-4335000D01*
X30305000Y-4185000D02*
X30155000Y-4335000D01*
X30305000Y-4260000D02*
G75*
G03X30305000Y-4260000I-75000J0D01*
G01*
X30280000Y-4195000D02*
X30180000Y-4195000D01*
X30280000Y-4325000D02*
X30180000Y-4325000D01*
X30180000Y-4195000D02*
G75*
G03X30180000Y-4325000I0J-65000D01*
G01*
X30280000Y-4325000D02*
G75*
G03X30280000Y-4195000I0J65000D01*
G01*
X30155000Y-9900000D02*
X30305000Y-10050000D01*
X30305000Y-9900000D02*
X30155000Y-10050000D01*
X30305000Y-9975000D02*
G75*
G03X30305000Y-9975000I-75000J0D01*
G01*
X30280000Y-9910000D02*
X30180000Y-9910000D01*
X30280000Y-10040000D02*
X30180000Y-10040000D01*
X30180000Y-9910000D02*
G75*
G03X30180000Y-10040000I0J-65000D01*
G01*
X30280000Y-10040000D02*
G75*
G03X30280000Y-9910000I0J65000D01*
G01*
X30155000Y-11805000D02*
X30305000Y-11955000D01*
X30305000Y-11805000D02*
X30155000Y-11955000D01*
X30305000Y-11880000D02*
G75*
G03X30305000Y-11880000I-75000J0D01*
G01*
X30280000Y-11815000D02*
X30180000Y-11815000D01*
X30280000Y-11945000D02*
X30180000Y-11945000D01*
X30180000Y-11815000D02*
G75*
G03X30180000Y-11945000I0J-65000D01*
G01*
X30280000Y-11945000D02*
G75*
G03X30280000Y-11815000I0J65000D01*
G01*
X30178700Y-5190000D02*
X30328700Y-5340000D01*
X30328700Y-5190000D02*
X30178700Y-5340000D01*
X30328700Y-5265000D02*
G75*
G03X30328700Y-5265000I-75000J0D01*
G01*
X30203700Y-5330000D02*
X30303700Y-5330000D01*
X30203700Y-5200000D02*
X30303700Y-5200000D01*
X30303700Y-5330000D02*
G75*
G03X30303700Y-5200000I0J65000D01*
G01*
X30203700Y-5200000D02*
G75*
G03X30203700Y-5330000I0J-65000D01*
G01*
X30416900Y-6142500D02*
X30566900Y-6292500D01*
X30566900Y-6142500D02*
X30416900Y-6292500D01*
X30566900Y-6217500D02*
G75*
G03X30566900Y-6217500I-75000J0D01*
G01*
X30441900Y-6282500D02*
X30541900Y-6282500D01*
X30441900Y-6152500D02*
X30541900Y-6152500D01*
X30541900Y-6282500D02*
G75*
G03X30541900Y-6152500I0J65000D01*
G01*
X30441900Y-6152500D02*
G75*
G03X30441900Y-6282500I0J-65000D01*
G01*
X30416900Y-7945000D02*
X30566900Y-8095000D01*
X30566900Y-7945000D02*
X30416900Y-8095000D01*
X30566900Y-8020000D02*
G75*
G03X30566900Y-8020000I-75000J0D01*
G01*
X30481900Y-8120000D02*
X30631900Y-8270000D01*
X30631900Y-8120000D02*
X30481900Y-8270000D01*
X30631900Y-8195000D02*
G75*
G03X30631900Y-8195000I-75000J0D01*
G01*
X30655000Y-4135000D02*
X30805000Y-4285000D01*
X30805000Y-4135000D02*
X30655000Y-4285000D01*
X30805000Y-4210000D02*
G75*
G03X30805000Y-4210000I-75000J0D01*
G01*
X30655000Y-9850000D02*
X30805000Y-10000000D01*
X30805000Y-9850000D02*
X30655000Y-10000000D01*
X30805000Y-9925000D02*
G75*
G03X30805000Y-9925000I-75000J0D01*
G01*
X30655000Y-11755000D02*
X30805000Y-11905000D01*
X30805000Y-11755000D02*
X30655000Y-11905000D01*
X30805000Y-11830000D02*
G75*
G03X30805000Y-11830000I-75000J0D01*
G01*
X30720000Y-4310000D02*
X30870000Y-4460000D01*
X30870000Y-4310000D02*
X30720000Y-4460000D01*
X30870000Y-4385000D02*
G75*
G03X30870000Y-4385000I-75000J0D01*
G01*
X30720000Y-10025000D02*
X30870000Y-10175000D01*
X30870000Y-10025000D02*
X30720000Y-10175000D01*
X30870000Y-10100000D02*
G75*
G03X30870000Y-10100000I-75000J0D01*
G01*
X30720000Y-11930000D02*
X30870000Y-12080000D01*
X30870000Y-11930000D02*
X30720000Y-12080000D01*
X30870000Y-12005000D02*
G75*
G03X30870000Y-12005000I-75000J0D01*
G01*
X32060000Y-4185000D02*
X32210000Y-4335000D01*
X32210000Y-4185000D02*
X32060000Y-4335000D01*
X32210000Y-4260000D02*
G75*
G03X32210000Y-4260000I-75000J0D01*
G01*
X32185000Y-4195000D02*
X32085000Y-4195000D01*
X32185000Y-4325000D02*
X32085000Y-4325000D01*
X32085000Y-4195000D02*
G75*
G03X32085000Y-4325000I0J-65000D01*
G01*
X32185000Y-4325000D02*
G75*
G03X32185000Y-4195000I0J65000D01*
G01*
X32060000Y-6090000D02*
X32210000Y-6240000D01*
X32210000Y-6090000D02*
X32060000Y-6240000D01*
X32210000Y-6165000D02*
G75*
G03X32210000Y-6165000I-75000J0D01*
G01*
X32185000Y-6100000D02*
X32085000Y-6100000D01*
X32185000Y-6230000D02*
X32085000Y-6230000D01*
X32085000Y-6100000D02*
G75*
G03X32085000Y-6230000I0J-65000D01*
G01*
X32185000Y-6230000D02*
G75*
G03X32185000Y-6100000I0J65000D01*
G01*
X32060000Y-7995000D02*
X32210000Y-8145000D01*
X32210000Y-7995000D02*
X32060000Y-8145000D01*
X32210000Y-8070000D02*
G75*
G03X32210000Y-8070000I-75000J0D01*
G01*
X32185000Y-8005000D02*
X32085000Y-8005000D01*
X32185000Y-8135000D02*
X32085000Y-8135000D01*
X32085000Y-8005000D02*
G75*
G03X32085000Y-8135000I0J-65000D01*
G01*
X32185000Y-8135000D02*
G75*
G03X32185000Y-8005000I0J65000D01*
G01*
X32060000Y-9900000D02*
X32210000Y-10050000D01*
X32210000Y-9900000D02*
X32060000Y-10050000D01*
X32210000Y-9975000D02*
G75*
G03X32210000Y-9975000I-75000J0D01*
G01*
X32185000Y-9910000D02*
X32085000Y-9910000D01*
X32185000Y-10040000D02*
X32085000Y-10040000D01*
X32085000Y-9910000D02*
G75*
G03X32085000Y-10040000I0J-65000D01*
G01*
X32185000Y-10040000D02*
G75*
G03X32185000Y-9910000I0J65000D01*
G01*
X32060000Y-11805000D02*
X32210000Y-11955000D01*
X32210000Y-11805000D02*
X32060000Y-11955000D01*
X32210000Y-11880000D02*
G75*
G03X32210000Y-11880000I-75000J0D01*
G01*
X32185000Y-11815000D02*
X32085000Y-11815000D01*
X32185000Y-11945000D02*
X32085000Y-11945000D01*
X32085000Y-11815000D02*
G75*
G03X32085000Y-11945000I0J-65000D01*
G01*
X32185000Y-11945000D02*
G75*
G03X32185000Y-11815000I0J65000D01*
G01*
X32560000Y-4135000D02*
X32710000Y-4285000D01*
X32710000Y-4135000D02*
X32560000Y-4285000D01*
X32710000Y-4210000D02*
G75*
G03X32710000Y-4210000I-75000J0D01*
G01*
X32560000Y-6040000D02*
X32710000Y-6190000D01*
X32710000Y-6040000D02*
X32560000Y-6190000D01*
X32710000Y-6115000D02*
G75*
G03X32710000Y-6115000I-75000J0D01*
G01*
X32560000Y-7945000D02*
X32710000Y-8095000D01*
X32710000Y-7945000D02*
X32560000Y-8095000D01*
X32710000Y-8020000D02*
G75*
G03X32710000Y-8020000I-75000J0D01*
G01*
X32560000Y-9850000D02*
X32710000Y-10000000D01*
X32710000Y-9850000D02*
X32560000Y-10000000D01*
X32710000Y-9925000D02*
G75*
G03X32710000Y-9925000I-75000J0D01*
G01*
X32560000Y-11755000D02*
X32710000Y-11905000D01*
X32710000Y-11755000D02*
X32560000Y-11905000D01*
X32710000Y-11830000D02*
G75*
G03X32710000Y-11830000I-75000J0D01*
G01*
X32625000Y-4310000D02*
X32775000Y-4460000D01*
X32775000Y-4310000D02*
X32625000Y-4460000D01*
X32775000Y-4385000D02*
G75*
G03X32775000Y-4385000I-75000J0D01*
G01*
X32625000Y-6215000D02*
X32775000Y-6365000D01*
X32775000Y-6215000D02*
X32625000Y-6365000D01*
X32775000Y-6290000D02*
G75*
G03X32775000Y-6290000I-75000J0D01*
G01*
X32625000Y-8120000D02*
X32775000Y-8270000D01*
X32775000Y-8120000D02*
X32625000Y-8270000D01*
X32775000Y-8195000D02*
G75*
G03X32775000Y-8195000I-75000J0D01*
G01*
X32625000Y-10025000D02*
X32775000Y-10175000D01*
X32775000Y-10025000D02*
X32625000Y-10175000D01*
X32775000Y-10100000D02*
G75*
G03X32775000Y-10100000I-75000J0D01*
G01*
X32625000Y-11930000D02*
X32775000Y-12080000D01*
X32775000Y-11930000D02*
X32625000Y-12080000D01*
X32775000Y-12005000D02*
G75*
G03X32775000Y-12005000I-75000J0D01*
G01*
X2916172Y-8455132D02*
X3166108Y-8705068D01*
X3166108Y-8455132D02*
X2916172Y-8705068D01*
X3041140Y-8455132D02*
X3041140Y-8705068D01*
X2916172Y-8580100D02*
X3166108Y-8580100D01*
X2816096Y-8695068D02*
X3266184Y-8695068D01*
X2816096Y-8465132D02*
X3266184Y-8465132D01*
X3266184Y-8695068D02*
G75*
G03X3266184Y-8465132I0J114968D01*
G01*
X2816096Y-8465132D02*
G75*
G03X2816096Y-8695068I0J-114968D01*
G01*
X5252212Y-5595112D02*
X5502148Y-5845048D01*
X5502148Y-5595112D02*
X5252212Y-5845048D01*
X5377180Y-5595112D02*
X5377180Y-5845048D01*
X5252212Y-5720080D02*
X5502148Y-5720080D01*
X15591682Y-7495132D02*
X15841618Y-7745068D01*
X15841618Y-7495132D02*
X15591682Y-7745068D01*
X15716650Y-7495132D02*
X15716650Y-7745068D01*
X15591682Y-7620100D02*
X15841618Y-7620100D01*
X15591555Y-7735068D02*
X15841745Y-7735068D01*
X15591555Y-7505132D02*
X15841745Y-7505132D01*
X15841745Y-7735068D02*
G75*
G03X15841745Y-7505132I0J114968D01*
G01*
X15591555Y-7505132D02*
G75*
G03X15591555Y-7735068I0J-114968D01*
G01*
X21810182Y-11325132D02*
X22060118Y-11575068D01*
X22060118Y-11325132D02*
X21810182Y-11575068D01*
X21935150Y-11325132D02*
X21935150Y-11575068D01*
X21810182Y-11450100D02*
X22060118Y-11450100D01*
X21810055Y-11565068D02*
X22060245Y-11565068D01*
X21810055Y-11335132D02*
X22060245Y-11335132D01*
X22060245Y-11565068D02*
G75*
G03X22060245Y-11335132I0J114968D01*
G01*
X21810055Y-11335132D02*
G75*
G03X21810055Y-11565068I0J-114968D01*
G01*
X28735282Y-5595112D02*
X28985218Y-5845048D01*
X28985218Y-5595112D02*
X28735282Y-5845048D01*
X28860250Y-5595112D02*
X28860250Y-5845048D01*
X28735282Y-5720080D02*
X28985218Y-5720080D01*
X28735155Y-5835048D02*
X28985345Y-5835048D01*
X28735155Y-5605112D02*
X28985345Y-5605112D01*
X28985345Y-5835048D02*
G75*
G03X28985345Y-5605112I0J114968D01*
G01*
X28735155Y-5605112D02*
G75*
G03X28735155Y-5835048I0J-114968D01*
G01*
X31124382Y-8455132D02*
X31374318Y-8705068D01*
X31374318Y-8455132D02*
X31124382Y-8705068D01*
X31249350Y-8455132D02*
X31249350Y-8705068D01*
X31124382Y-8580100D02*
X31374318Y-8580100D01*
X31024306Y-8695068D02*
X31474394Y-8695068D01*
X31024306Y-8465132D02*
X31474394Y-8465132D01*
X31474394Y-8695068D02*
G75*
G03X31474394Y-8465132I0J114968D01*
G01*
X31024306Y-8465132D02*
G75*
G03X31024306Y-8695068I0J-114968D01*
G01*
X4472500Y-3272500D02*
X4552500Y-3352500D01*
X4552500Y-3272500D02*
X4472500Y-3352500D01*
X4540785Y-3340784D02*
X4540785Y-3284215D01*
X4484216Y-3284215D01*
X4484216Y-3340784D01*
X4540785Y-3340784D01*
X4972500Y-3272500D02*
X5052500Y-3352500D01*
X5052500Y-3272500D02*
X4972500Y-3352500D01*
X5040785Y-3340784D02*
X5040785Y-3284215D01*
X4984216Y-3284215D01*
X4984216Y-3340784D01*
X5040785Y-3340784D01*
X3657600Y-8673846D02*
X3962400Y-8978646D01*
X3962400Y-8673846D02*
X3657600Y-8978646D01*
X3810000Y-8978646D02*
X3962400Y-8826246D01*
X3810000Y-8673846D01*
X3657600Y-8826246D01*
X3810000Y-8978646D01*
X6038850Y-8673846D02*
X6343650Y-8978646D01*
X6343650Y-8673846D02*
X6038850Y-8978646D01*
X6191250Y-8978646D02*
X6343650Y-8826246D01*
X6191250Y-8673846D01*
X6038850Y-8826246D01*
X6191250Y-8978646D01*
X9404300Y-11976354D02*
X9709100Y-12281154D01*
X9709100Y-11976354D02*
X9404300Y-12281154D01*
X9556700Y-12281154D02*
X9709100Y-12128754D01*
X9556700Y-11976354D01*
X9404300Y-12128754D01*
X9556700Y-12281154D01*
X10801300Y-11976354D02*
X11106100Y-12281154D01*
X11106100Y-11976354D02*
X10801300Y-12281154D01*
X10953700Y-12281154D02*
X11106100Y-12128754D01*
X10953700Y-11976354D01*
X10801300Y-12128754D01*
X10953700Y-12281154D01*
X11277600Y-11976354D02*
X11582400Y-12281154D01*
X11582400Y-11976354D02*
X11277600Y-12281154D01*
X11430000Y-12281154D02*
X11582400Y-12128754D01*
X11430000Y-11976354D01*
X11277600Y-12128754D01*
X11430000Y-12281154D01*
X20802600Y-11976354D02*
X21107400Y-12281154D01*
X21107400Y-11976354D02*
X20802600Y-12281154D01*
X20955000Y-12281154D02*
X21107400Y-12128754D01*
X20955000Y-11976354D01*
X20802600Y-12128754D01*
X20955000Y-12281154D01*
X22707600Y-11976354D02*
X23012400Y-12281154D01*
X23012400Y-11976354D02*
X22707600Y-12281154D01*
X22860000Y-12281154D02*
X23012400Y-12128754D01*
X22860000Y-11976354D01*
X22707600Y-12128754D01*
X22860000Y-12281154D01*
X27470100Y-8673846D02*
X27774900Y-8978646D01*
X27774900Y-8673846D02*
X27470100Y-8978646D01*
X27622500Y-8978646D02*
X27774900Y-8826246D01*
X27622500Y-8673846D01*
X27470100Y-8826246D01*
X27622500Y-8978646D01*
X27946300Y-6768846D02*
X28251100Y-7073646D01*
X28251100Y-6768846D02*
X27946300Y-7073646D01*
X28098700Y-7073646D02*
X28251100Y-6921246D01*
X28098700Y-6768846D01*
X27946300Y-6921246D01*
X28098700Y-7073646D01*
X28184500Y-2958846D02*
X28489300Y-3263646D01*
X28489300Y-2958846D02*
X28184500Y-3263646D01*
X28336900Y-3263646D02*
X28489300Y-3111246D01*
X28336900Y-2958846D01*
X28184500Y-3111246D01*
X28336900Y-3263646D01*
X29819600Y-8673846D02*
X30124400Y-8978646D01*
X30124400Y-8673846D02*
X29819600Y-8978646D01*
X29972000Y-8978646D02*
X30124400Y-8826246D01*
X29972000Y-8673846D01*
X29819600Y-8826246D01*
X29972000Y-8978646D01*
X30327600Y-6768846D02*
X30632400Y-7073646D01*
X30632400Y-6768846D02*
X30327600Y-7073646D01*
X30480000Y-7073646D02*
X30632400Y-6921246D01*
X30480000Y-6768846D01*
X30327600Y-6921246D01*
X30480000Y-7073646D01*
X30565700Y-2958846D02*
X30870500Y-3263646D01*
X30870500Y-2958846D02*
X30565700Y-3263646D01*
X30718100Y-3263646D02*
X30870500Y-3111246D01*
X30718100Y-2958846D01*
X30565700Y-3111246D01*
X30718100Y-3263646D01*
X30788254Y-5324500D02*
X31093054Y-5629300D01*
X31093054Y-5324500D02*
X30788254Y-5629300D01*
X30940654Y-5629300D02*
X31093054Y-5476900D01*
X30940654Y-5324500D01*
X30788254Y-5476900D01*
X30940654Y-5629300D01*
X30788254Y-7705700D02*
X31093054Y-8010500D01*
X31093054Y-7705700D02*
X30788254Y-8010500D01*
X30940654Y-8010500D02*
X31093054Y-7858100D01*
X30940654Y-7705700D01*
X30788254Y-7858100D01*
X30940654Y-8010500D01*
X3810000Y-10151110D02*
X3810000Y-10549890D01*
X3610610Y-10350500D02*
X4009390Y-10350500D01*
X4009390Y-10350500D02*
G75*
G03X4009390Y-10350500I-199390J0D01*
G01*
X6191250Y-10151110D02*
X6191250Y-10549890D01*
X5991860Y-10350500D02*
X6390640Y-10350500D01*
X6390640Y-10350500D02*
G75*
G03X6390640Y-10350500I-199390J0D01*
G01*
X9556700Y-10405110D02*
X9556700Y-10803890D01*
X9357310Y-10604500D02*
X9756090Y-10604500D01*
X9756090Y-10604500D02*
G75*
G03X9756090Y-10604500I-199390J0D01*
G01*
X10953700Y-10405110D02*
X10953700Y-10803890D01*
X10754310Y-10604500D02*
X11153090Y-10604500D01*
X11153090Y-10604500D02*
G75*
G03X11153090Y-10604500I-199390J0D01*
G01*
X11430000Y-10405110D02*
X11430000Y-10803890D01*
X11230610Y-10604500D02*
X11629390Y-10604500D01*
X11629390Y-10604500D02*
G75*
G03X11629390Y-10604500I-199390J0D01*
G01*
X20955000Y-10405110D02*
X20955000Y-10803890D01*
X20755610Y-10604500D02*
X21154390Y-10604500D01*
X21154390Y-10604500D02*
G75*
G03X21154390Y-10604500I-199390J0D01*
G01*
X22860000Y-10405110D02*
X22860000Y-10803890D01*
X22660610Y-10604500D02*
X23059390Y-10604500D01*
X23059390Y-10604500D02*
G75*
G03X23059390Y-10604500I-199390J0D01*
G01*
X27622500Y-10151110D02*
X27622500Y-10549890D01*
X27423110Y-10350500D02*
X27821890Y-10350500D01*
X27821890Y-10350500D02*
G75*
G03X27821890Y-10350500I-199390J0D01*
G01*
X28098700Y-8246110D02*
X28098700Y-8644890D01*
X27899310Y-8445500D02*
X28298090Y-8445500D01*
X28298090Y-8445500D02*
G75*
G03X28298090Y-8445500I-199390J0D01*
G01*
X28336900Y-4436110D02*
X28336900Y-4834890D01*
X28137510Y-4635500D02*
X28536290Y-4635500D01*
X28536290Y-4635500D02*
G75*
G03X28536290Y-4635500I-199390J0D01*
G01*
X29416400Y-5277510D02*
X29416400Y-5676290D01*
X29217010Y-5476900D02*
X29615790Y-5476900D01*
X29615790Y-5476900D02*
G75*
G03X29615790Y-5476900I-199390J0D01*
G01*
X29416400Y-7658710D02*
X29416400Y-8057490D01*
X29217010Y-7858100D02*
X29615790Y-7858100D01*
X29615790Y-7858100D02*
G75*
G03X29615790Y-7858100I-199390J0D01*
G01*
X29972000Y-10151110D02*
X29972000Y-10549890D01*
X29772610Y-10350500D02*
X30171390Y-10350500D01*
X30171390Y-10350500D02*
G75*
G03X30171390Y-10350500I-199390J0D01*
G01*
X30480000Y-8246110D02*
X30480000Y-8644890D01*
X30280610Y-8445500D02*
X30679390Y-8445500D01*
X30679390Y-8445500D02*
G75*
G03X30679390Y-8445500I-199390J0D01*
G01*
X30718100Y-4436110D02*
X30718100Y-4834890D01*
X30518710Y-4635500D02*
X30917490Y-4635500D01*
X30917490Y-4635500D02*
G75*
G03X30917490Y-4635500I-199390J0D01*
G01*
D12*
X3122578Y-12854564D02*
X3122578Y-12554564D01*
X3194007Y-12554564D01*
X3236864Y-12568850D01*
X3265436Y-12597421D01*
X3279721Y-12625993D01*
X3294007Y-12683136D01*
X3294007Y-12725993D01*
X3279721Y-12783136D01*
X3265436Y-12811707D01*
X3236864Y-12840279D01*
X3194007Y-12854564D01*
X3122578Y-12854564D01*
X3422578Y-12854564D02*
X3422578Y-12654564D01*
X3422578Y-12711707D02*
X3436864Y-12683136D01*
X3451150Y-12668850D01*
X3479721Y-12654564D01*
X3508293Y-12654564D01*
X3608293Y-12854564D02*
X3608293Y-12654564D01*
X3608293Y-12554564D02*
X3594007Y-12568850D01*
X3608293Y-12583136D01*
X3622578Y-12568850D01*
X3608293Y-12554564D01*
X3608293Y-12583136D01*
X3794007Y-12854564D02*
X3765436Y-12840279D01*
X3751150Y-12811707D01*
X3751150Y-12554564D01*
X3951150Y-12854564D02*
X3922578Y-12840279D01*
X3908293Y-12811707D01*
X3908293Y-12554564D01*
X4294007Y-12854564D02*
X4294007Y-12554564D01*
X4394007Y-12768850D01*
X4494007Y-12554564D01*
X4494007Y-12854564D01*
X4765436Y-12854564D02*
X4765436Y-12697421D01*
X4751150Y-12668850D01*
X4722579Y-12654564D01*
X4665436Y-12654564D01*
X4636864Y-12668850D01*
X4765436Y-12840279D02*
X4736864Y-12854564D01*
X4665436Y-12854564D01*
X4636864Y-12840279D01*
X4622579Y-12811707D01*
X4622579Y-12783136D01*
X4636864Y-12754564D01*
X4665436Y-12740279D01*
X4736864Y-12740279D01*
X4765436Y-12725993D01*
X4908293Y-12654564D02*
X4908293Y-12954564D01*
X4908293Y-12668850D02*
X4936864Y-12654564D01*
X4994007Y-12654564D01*
X5022579Y-12668850D01*
X5036864Y-12683136D01*
X5051150Y-12711707D01*
X5051150Y-12797421D01*
X5036864Y-12825993D01*
X5022579Y-12840279D01*
X4994007Y-12854564D01*
X4936864Y-12854564D01*
X4908293Y-12840279D01*
X5179721Y-12825993D02*
X5194007Y-12840279D01*
X5179721Y-12854564D01*
X5165436Y-12840279D01*
X5179721Y-12825993D01*
X5179721Y-12854564D01*
X5179721Y-12668850D02*
X5194007Y-12683136D01*
X5179721Y-12697421D01*
X5165436Y-12683136D01*
X5179721Y-12668850D01*
X5179721Y-12697421D01*
X2821150Y-13333850D02*
X2851150Y-13363850D01*
X2851150Y-13333850D02*
X2821150Y-13363850D01*
X3179721Y-13184564D02*
X3208293Y-13184564D01*
X3236864Y-13198850D01*
X3251150Y-13213136D01*
X3265436Y-13241707D01*
X3279721Y-13298850D01*
X3279721Y-13370279D01*
X3265436Y-13427421D01*
X3251150Y-13455993D01*
X3236864Y-13470279D01*
X3208293Y-13484564D01*
X3179721Y-13484564D01*
X3151150Y-13470279D01*
X3136864Y-13455993D01*
X3122578Y-13427421D01*
X3108293Y-13370279D01*
X3108293Y-13298850D01*
X3122578Y-13241707D01*
X3136864Y-13213136D01*
X3151150Y-13198850D01*
X3179721Y-13184564D01*
X3408293Y-13455993D02*
X3422578Y-13470279D01*
X3408293Y-13484564D01*
X3394007Y-13470279D01*
X3408293Y-13455993D01*
X3408293Y-13484564D01*
X3522578Y-13184564D02*
X3708293Y-13184564D01*
X3608293Y-13298850D01*
X3651150Y-13298850D01*
X3679721Y-13313136D01*
X3694007Y-13327421D01*
X3708293Y-13355993D01*
X3708293Y-13427421D01*
X3694007Y-13455993D01*
X3679721Y-13470279D01*
X3651150Y-13484564D01*
X3565436Y-13484564D01*
X3536864Y-13470279D01*
X3522578Y-13455993D01*
X3894007Y-13184564D02*
X3922578Y-13184564D01*
X3951150Y-13198850D01*
X3965436Y-13213136D01*
X3979721Y-13241707D01*
X3994007Y-13298850D01*
X3994007Y-13370279D01*
X3979721Y-13427421D01*
X3965436Y-13455993D01*
X3951150Y-13470279D01*
X3922578Y-13484564D01*
X3894007Y-13484564D01*
X3865436Y-13470279D01*
X3851150Y-13455993D01*
X3836864Y-13427421D01*
X3822578Y-13370279D01*
X3822578Y-13298850D01*
X3836864Y-13241707D01*
X3851150Y-13213136D01*
X3865436Y-13198850D01*
X3894007Y-13184564D01*
X4122578Y-13484564D02*
X4122578Y-13284564D01*
X4122578Y-13313136D02*
X4136864Y-13298850D01*
X4165436Y-13284564D01*
X4208293Y-13284564D01*
X4236864Y-13298850D01*
X4251150Y-13327421D01*
X4251150Y-13484564D01*
X4251150Y-13327421D02*
X4265436Y-13298850D01*
X4294007Y-13284564D01*
X4336864Y-13284564D01*
X4365436Y-13298850D01*
X4379721Y-13327421D01*
X4379721Y-13484564D01*
X4522579Y-13484564D02*
X4522579Y-13284564D01*
X4522579Y-13313136D02*
X4536864Y-13298850D01*
X4565436Y-13284564D01*
X4608293Y-13284564D01*
X4636864Y-13298850D01*
X4651150Y-13327421D01*
X4651150Y-13484564D01*
X4651150Y-13327421D02*
X4665436Y-13298850D01*
X4694007Y-13284564D01*
X4736864Y-13284564D01*
X4765436Y-13298850D01*
X4779721Y-13327421D01*
X4779721Y-13484564D01*
X5365436Y-13170279D02*
X5108293Y-13555993D01*
X5751150Y-13184564D02*
X5779721Y-13184564D01*
X5808293Y-13198850D01*
X5822578Y-13213136D01*
X5836864Y-13241707D01*
X5851150Y-13298850D01*
X5851150Y-13370279D01*
X5836864Y-13427421D01*
X5822578Y-13455993D01*
X5808293Y-13470279D01*
X5779721Y-13484564D01*
X5751150Y-13484564D01*
X5722578Y-13470279D01*
X5708293Y-13455993D01*
X5694007Y-13427421D01*
X5679721Y-13370279D01*
X5679721Y-13298850D01*
X5694007Y-13241707D01*
X5708293Y-13213136D01*
X5722578Y-13198850D01*
X5751150Y-13184564D01*
X5979721Y-13455993D02*
X5994007Y-13470279D01*
X5979721Y-13484564D01*
X5965436Y-13470279D01*
X5979721Y-13455993D01*
X5979721Y-13484564D01*
X6179721Y-13184564D02*
X6208293Y-13184564D01*
X6236864Y-13198850D01*
X6251150Y-13213136D01*
X6265435Y-13241707D01*
X6279721Y-13298850D01*
X6279721Y-13370279D01*
X6265435Y-13427421D01*
X6251150Y-13455993D01*
X6236864Y-13470279D01*
X6208293Y-13484564D01*
X6179721Y-13484564D01*
X6151150Y-13470279D01*
X6136864Y-13455993D01*
X6122578Y-13427421D01*
X6108293Y-13370279D01*
X6108293Y-13298850D01*
X6122578Y-13241707D01*
X6136864Y-13213136D01*
X6151150Y-13198850D01*
X6179721Y-13184564D01*
X6565435Y-13484564D02*
X6394007Y-13484564D01*
X6479721Y-13484564D02*
X6479721Y-13184564D01*
X6451150Y-13227421D01*
X6422578Y-13255993D01*
X6394007Y-13270279D01*
X6679721Y-13213136D02*
X6694007Y-13198850D01*
X6722578Y-13184564D01*
X6794007Y-13184564D01*
X6822578Y-13198850D01*
X6836864Y-13213136D01*
X6851150Y-13241707D01*
X6851150Y-13270279D01*
X6836864Y-13313136D01*
X6665435Y-13484564D01*
X6851150Y-13484564D01*
X6965436Y-13184564D02*
X6965436Y-13241707D01*
X7079721Y-13184564D02*
X7079721Y-13241707D01*
X7522578Y-13598850D02*
X7508293Y-13584564D01*
X7479721Y-13541707D01*
X7465435Y-13513136D01*
X7451150Y-13470279D01*
X7436864Y-13398850D01*
X7436864Y-13341707D01*
X7451150Y-13270279D01*
X7465435Y-13227421D01*
X7479721Y-13198850D01*
X7508293Y-13155993D01*
X7522578Y-13141707D01*
X7608293Y-13184564D02*
X7808293Y-13184564D01*
X7679721Y-13484564D01*
X8051150Y-13284564D02*
X8051150Y-13484564D01*
X7979721Y-13170279D02*
X7908293Y-13384564D01*
X8094007Y-13384564D01*
X8436864Y-13484564D02*
X8436864Y-13184564D01*
X8565436Y-13484564D02*
X8565436Y-13327421D01*
X8551150Y-13298850D01*
X8522578Y-13284564D01*
X8479721Y-13284564D01*
X8451150Y-13298850D01*
X8436864Y-13313136D01*
X8751150Y-13484564D02*
X8722578Y-13470279D01*
X8708293Y-13455993D01*
X8694007Y-13427421D01*
X8694007Y-13341707D01*
X8708293Y-13313136D01*
X8722578Y-13298850D01*
X8751150Y-13284564D01*
X8794007Y-13284564D01*
X8822578Y-13298850D01*
X8836864Y-13313136D01*
X8851150Y-13341707D01*
X8851150Y-13427421D01*
X8836864Y-13455993D01*
X8822578Y-13470279D01*
X8794007Y-13484564D01*
X8751150Y-13484564D01*
X9022578Y-13484564D02*
X8994007Y-13470279D01*
X8979721Y-13441707D01*
X8979721Y-13184564D01*
X9251150Y-13470279D02*
X9222579Y-13484564D01*
X9165436Y-13484564D01*
X9136864Y-13470279D01*
X9122579Y-13441707D01*
X9122579Y-13327421D01*
X9136864Y-13298850D01*
X9165436Y-13284564D01*
X9222579Y-13284564D01*
X9251150Y-13298850D01*
X9265436Y-13327421D01*
X9265436Y-13355993D01*
X9122579Y-13384564D01*
X9379721Y-13470279D02*
X9408293Y-13484564D01*
X9465436Y-13484564D01*
X9494007Y-13470279D01*
X9508293Y-13441707D01*
X9508293Y-13427421D01*
X9494007Y-13398850D01*
X9465436Y-13384564D01*
X9422579Y-13384564D01*
X9394007Y-13370279D01*
X9379721Y-13341707D01*
X9379721Y-13327421D01*
X9394007Y-13298850D01*
X9422579Y-13284564D01*
X9465436Y-13284564D01*
X9494007Y-13298850D01*
X9608293Y-13598850D02*
X9622579Y-13584564D01*
X9651150Y-13541707D01*
X9665436Y-13513136D01*
X9679721Y-13470279D01*
X9694007Y-13398850D01*
X9694007Y-13341707D01*
X9679721Y-13270279D01*
X9665436Y-13227421D01*
X9651150Y-13198850D01*
X9622579Y-13155993D01*
X9608293Y-13141707D01*
X2851150Y-13744850D02*
G75*
G03X2851150Y-13744850I-15240J0D01*
G01*
X3179721Y-13580564D02*
X3208293Y-13580564D01*
X3236864Y-13594850D01*
X3251150Y-13609136D01*
X3265436Y-13637707D01*
X3279721Y-13694850D01*
X3279721Y-13766279D01*
X3265436Y-13823421D01*
X3251150Y-13851993D01*
X3236864Y-13866279D01*
X3208293Y-13880564D01*
X3179721Y-13880564D01*
X3151150Y-13866279D01*
X3136864Y-13851993D01*
X3122578Y-13823421D01*
X3108293Y-13766279D01*
X3108293Y-13694850D01*
X3122578Y-13637707D01*
X3136864Y-13609136D01*
X3151150Y-13594850D01*
X3179721Y-13580564D01*
X3408293Y-13851993D02*
X3422578Y-13866279D01*
X3408293Y-13880564D01*
X3394007Y-13866279D01*
X3408293Y-13851993D01*
X3408293Y-13880564D01*
X3522578Y-13580564D02*
X3708293Y-13580564D01*
X3608293Y-13694850D01*
X3651150Y-13694850D01*
X3679721Y-13709136D01*
X3694007Y-13723421D01*
X3708293Y-13751993D01*
X3708293Y-13823421D01*
X3694007Y-13851993D01*
X3679721Y-13866279D01*
X3651150Y-13880564D01*
X3565436Y-13880564D01*
X3536864Y-13866279D01*
X3522578Y-13851993D01*
X3894007Y-13580564D02*
X3922578Y-13580564D01*
X3951150Y-13594850D01*
X3965436Y-13609136D01*
X3979721Y-13637707D01*
X3994007Y-13694850D01*
X3994007Y-13766279D01*
X3979721Y-13823421D01*
X3965436Y-13851993D01*
X3951150Y-13866279D01*
X3922578Y-13880564D01*
X3894007Y-13880564D01*
X3865436Y-13866279D01*
X3851150Y-13851993D01*
X3836864Y-13823421D01*
X3822578Y-13766279D01*
X3822578Y-13694850D01*
X3836864Y-13637707D01*
X3851150Y-13609136D01*
X3865436Y-13594850D01*
X3894007Y-13580564D01*
X4122578Y-13880564D02*
X4122578Y-13680564D01*
X4122578Y-13709136D02*
X4136864Y-13694850D01*
X4165436Y-13680564D01*
X4208293Y-13680564D01*
X4236864Y-13694850D01*
X4251150Y-13723421D01*
X4251150Y-13880564D01*
X4251150Y-13723421D02*
X4265436Y-13694850D01*
X4294007Y-13680564D01*
X4336864Y-13680564D01*
X4365436Y-13694850D01*
X4379721Y-13723421D01*
X4379721Y-13880564D01*
X4522579Y-13880564D02*
X4522579Y-13680564D01*
X4522579Y-13709136D02*
X4536864Y-13694850D01*
X4565436Y-13680564D01*
X4608293Y-13680564D01*
X4636864Y-13694850D01*
X4651150Y-13723421D01*
X4651150Y-13880564D01*
X4651150Y-13723421D02*
X4665436Y-13694850D01*
X4694007Y-13680564D01*
X4736864Y-13680564D01*
X4765436Y-13694850D01*
X4779721Y-13723421D01*
X4779721Y-13880564D01*
X5365436Y-13566279D02*
X5108293Y-13951993D01*
X5751150Y-13580564D02*
X5779721Y-13580564D01*
X5808293Y-13594850D01*
X5822578Y-13609136D01*
X5836864Y-13637707D01*
X5851150Y-13694850D01*
X5851150Y-13766279D01*
X5836864Y-13823421D01*
X5822578Y-13851993D01*
X5808293Y-13866279D01*
X5779721Y-13880564D01*
X5751150Y-13880564D01*
X5722578Y-13866279D01*
X5708293Y-13851993D01*
X5694007Y-13823421D01*
X5679721Y-13766279D01*
X5679721Y-13694850D01*
X5694007Y-13637707D01*
X5708293Y-13609136D01*
X5722578Y-13594850D01*
X5751150Y-13580564D01*
X5979721Y-13851993D02*
X5994007Y-13866279D01*
X5979721Y-13880564D01*
X5965436Y-13866279D01*
X5979721Y-13851993D01*
X5979721Y-13880564D01*
X6179721Y-13580564D02*
X6208293Y-13580564D01*
X6236864Y-13594850D01*
X6251150Y-13609136D01*
X6265435Y-13637707D01*
X6279721Y-13694850D01*
X6279721Y-13766279D01*
X6265435Y-13823421D01*
X6251150Y-13851993D01*
X6236864Y-13866279D01*
X6208293Y-13880564D01*
X6179721Y-13880564D01*
X6151150Y-13866279D01*
X6136864Y-13851993D01*
X6122578Y-13823421D01*
X6108293Y-13766279D01*
X6108293Y-13694850D01*
X6122578Y-13637707D01*
X6136864Y-13609136D01*
X6151150Y-13594850D01*
X6179721Y-13580564D01*
X6565435Y-13880564D02*
X6394007Y-13880564D01*
X6479721Y-13880564D02*
X6479721Y-13580564D01*
X6451150Y-13623421D01*
X6422578Y-13651993D01*
X6394007Y-13666279D01*
X6679721Y-13609136D02*
X6694007Y-13594850D01*
X6722578Y-13580564D01*
X6794007Y-13580564D01*
X6822578Y-13594850D01*
X6836864Y-13609136D01*
X6851150Y-13637707D01*
X6851150Y-13666279D01*
X6836864Y-13709136D01*
X6665435Y-13880564D01*
X6851150Y-13880564D01*
X6965436Y-13580564D02*
X6965436Y-13637707D01*
X7079721Y-13580564D02*
X7079721Y-13637707D01*
X7522578Y-13994850D02*
X7508293Y-13980564D01*
X7479721Y-13937707D01*
X7465435Y-13909136D01*
X7451150Y-13866279D01*
X7436864Y-13794850D01*
X7436864Y-13737707D01*
X7451150Y-13666279D01*
X7465435Y-13623421D01*
X7479721Y-13594850D01*
X7508293Y-13551993D01*
X7522578Y-13537707D01*
X7608293Y-13580564D02*
X7794007Y-13580564D01*
X7694007Y-13694850D01*
X7736864Y-13694850D01*
X7765435Y-13709136D01*
X7779721Y-13723421D01*
X7794007Y-13751993D01*
X7794007Y-13823421D01*
X7779721Y-13851993D01*
X7765435Y-13866279D01*
X7736864Y-13880564D01*
X7651150Y-13880564D01*
X7622578Y-13866279D01*
X7608293Y-13851993D01*
X8051150Y-13680564D02*
X8051150Y-13880564D01*
X7979721Y-13566279D02*
X7908293Y-13780564D01*
X8094007Y-13780564D01*
X8436864Y-13880564D02*
X8436864Y-13580564D01*
X8565436Y-13880564D02*
X8565436Y-13723421D01*
X8551150Y-13694850D01*
X8522578Y-13680564D01*
X8479721Y-13680564D01*
X8451150Y-13694850D01*
X8436864Y-13709136D01*
X8751150Y-13880564D02*
X8722578Y-13866279D01*
X8708293Y-13851993D01*
X8694007Y-13823421D01*
X8694007Y-13737707D01*
X8708293Y-13709136D01*
X8722578Y-13694850D01*
X8751150Y-13680564D01*
X8794007Y-13680564D01*
X8822578Y-13694850D01*
X8836864Y-13709136D01*
X8851150Y-13737707D01*
X8851150Y-13823421D01*
X8836864Y-13851993D01*
X8822578Y-13866279D01*
X8794007Y-13880564D01*
X8751150Y-13880564D01*
X9022578Y-13880564D02*
X8994007Y-13866279D01*
X8979721Y-13837707D01*
X8979721Y-13580564D01*
X9251150Y-13866279D02*
X9222579Y-13880564D01*
X9165436Y-13880564D01*
X9136864Y-13866279D01*
X9122579Y-13837707D01*
X9122579Y-13723421D01*
X9136864Y-13694850D01*
X9165436Y-13680564D01*
X9222579Y-13680564D01*
X9251150Y-13694850D01*
X9265436Y-13723421D01*
X9265436Y-13751993D01*
X9122579Y-13780564D01*
X9379721Y-13866279D02*
X9408293Y-13880564D01*
X9465436Y-13880564D01*
X9494007Y-13866279D01*
X9508293Y-13837707D01*
X9508293Y-13823421D01*
X9494007Y-13794850D01*
X9465436Y-13780564D01*
X9422579Y-13780564D01*
X9394007Y-13766279D01*
X9379721Y-13737707D01*
X9379721Y-13723421D01*
X9394007Y-13694850D01*
X9422579Y-13680564D01*
X9465436Y-13680564D01*
X9494007Y-13694850D01*
X9608293Y-13994850D02*
X9622579Y-13980564D01*
X9651150Y-13937707D01*
X9665436Y-13909136D01*
X9679721Y-13866279D01*
X9694007Y-13794850D01*
X9694007Y-13737707D01*
X9679721Y-13666279D01*
X9665436Y-13623421D01*
X9651150Y-13594850D01*
X9622579Y-13551993D01*
X9608293Y-13537707D01*
X2823650Y-14113350D02*
X2823650Y-14168350D01*
X2796150Y-14140850D02*
X2851150Y-14140850D01*
X3179721Y-13976564D02*
X3208293Y-13976564D01*
X3236864Y-13990850D01*
X3251150Y-14005136D01*
X3265436Y-14033707D01*
X3279721Y-14090850D01*
X3279721Y-14162279D01*
X3265436Y-14219421D01*
X3251150Y-14247993D01*
X3236864Y-14262279D01*
X3208293Y-14276564D01*
X3179721Y-14276564D01*
X3151150Y-14262279D01*
X3136864Y-14247993D01*
X3122578Y-14219421D01*
X3108293Y-14162279D01*
X3108293Y-14090850D01*
X3122578Y-14033707D01*
X3136864Y-14005136D01*
X3151150Y-13990850D01*
X3179721Y-13976564D01*
X3408293Y-14247993D02*
X3422578Y-14262279D01*
X3408293Y-14276564D01*
X3394007Y-14262279D01*
X3408293Y-14247993D01*
X3408293Y-14276564D01*
X3694007Y-13976564D02*
X3551150Y-13976564D01*
X3536864Y-14119421D01*
X3551150Y-14105136D01*
X3579721Y-14090850D01*
X3651150Y-14090850D01*
X3679721Y-14105136D01*
X3694007Y-14119421D01*
X3708293Y-14147993D01*
X3708293Y-14219421D01*
X3694007Y-14247993D01*
X3679721Y-14262279D01*
X3651150Y-14276564D01*
X3579721Y-14276564D01*
X3551150Y-14262279D01*
X3536864Y-14247993D01*
X3979721Y-13976564D02*
X3836864Y-13976564D01*
X3822578Y-14119421D01*
X3836864Y-14105136D01*
X3865436Y-14090850D01*
X3936864Y-14090850D01*
X3965436Y-14105136D01*
X3979721Y-14119421D01*
X3994007Y-14147993D01*
X3994007Y-14219421D01*
X3979721Y-14247993D01*
X3965436Y-14262279D01*
X3936864Y-14276564D01*
X3865436Y-14276564D01*
X3836864Y-14262279D01*
X3822578Y-14247993D01*
X4122578Y-14276564D02*
X4122578Y-14076564D01*
X4122578Y-14105136D02*
X4136864Y-14090850D01*
X4165436Y-14076564D01*
X4208293Y-14076564D01*
X4236864Y-14090850D01*
X4251150Y-14119421D01*
X4251150Y-14276564D01*
X4251150Y-14119421D02*
X4265436Y-14090850D01*
X4294007Y-14076564D01*
X4336864Y-14076564D01*
X4365436Y-14090850D01*
X4379721Y-14119421D01*
X4379721Y-14276564D01*
X4522579Y-14276564D02*
X4522579Y-14076564D01*
X4522579Y-14105136D02*
X4536864Y-14090850D01*
X4565436Y-14076564D01*
X4608293Y-14076564D01*
X4636864Y-14090850D01*
X4651150Y-14119421D01*
X4651150Y-14276564D01*
X4651150Y-14119421D02*
X4665436Y-14090850D01*
X4694007Y-14076564D01*
X4736864Y-14076564D01*
X4765436Y-14090850D01*
X4779721Y-14119421D01*
X4779721Y-14276564D01*
X5365436Y-13962279D02*
X5108293Y-14347993D01*
X5751150Y-13976564D02*
X5779721Y-13976564D01*
X5808293Y-13990850D01*
X5822578Y-14005136D01*
X5836864Y-14033707D01*
X5851150Y-14090850D01*
X5851150Y-14162279D01*
X5836864Y-14219421D01*
X5822578Y-14247993D01*
X5808293Y-14262279D01*
X5779721Y-14276564D01*
X5751150Y-14276564D01*
X5722578Y-14262279D01*
X5708293Y-14247993D01*
X5694007Y-14219421D01*
X5679721Y-14162279D01*
X5679721Y-14090850D01*
X5694007Y-14033707D01*
X5708293Y-14005136D01*
X5722578Y-13990850D01*
X5751150Y-13976564D01*
X5979721Y-14247993D02*
X5994007Y-14262279D01*
X5979721Y-14276564D01*
X5965436Y-14262279D01*
X5979721Y-14247993D01*
X5979721Y-14276564D01*
X6179721Y-13976564D02*
X6208293Y-13976564D01*
X6236864Y-13990850D01*
X6251150Y-14005136D01*
X6265435Y-14033707D01*
X6279721Y-14090850D01*
X6279721Y-14162279D01*
X6265435Y-14219421D01*
X6251150Y-14247993D01*
X6236864Y-14262279D01*
X6208293Y-14276564D01*
X6179721Y-14276564D01*
X6151150Y-14262279D01*
X6136864Y-14247993D01*
X6122578Y-14219421D01*
X6108293Y-14162279D01*
X6108293Y-14090850D01*
X6122578Y-14033707D01*
X6136864Y-14005136D01*
X6151150Y-13990850D01*
X6179721Y-13976564D01*
X6394007Y-14005136D02*
X6408293Y-13990850D01*
X6436864Y-13976564D01*
X6508293Y-13976564D01*
X6536864Y-13990850D01*
X6551150Y-14005136D01*
X6565435Y-14033707D01*
X6565435Y-14062279D01*
X6551150Y-14105136D01*
X6379721Y-14276564D01*
X6565435Y-14276564D01*
X6679721Y-14005136D02*
X6694007Y-13990850D01*
X6722578Y-13976564D01*
X6794007Y-13976564D01*
X6822578Y-13990850D01*
X6836864Y-14005136D01*
X6851150Y-14033707D01*
X6851150Y-14062279D01*
X6836864Y-14105136D01*
X6665435Y-14276564D01*
X6851150Y-14276564D01*
X6965436Y-13976564D02*
X6965436Y-14033707D01*
X7079721Y-13976564D02*
X7079721Y-14033707D01*
X7522578Y-14390850D02*
X7508293Y-14376564D01*
X7479721Y-14333707D01*
X7465435Y-14305136D01*
X7451150Y-14262279D01*
X7436864Y-14190850D01*
X7436864Y-14133707D01*
X7451150Y-14062279D01*
X7465435Y-14019421D01*
X7479721Y-13990850D01*
X7508293Y-13947993D01*
X7522578Y-13933707D01*
X7694007Y-13976564D02*
X7722578Y-13976564D01*
X7751150Y-13990850D01*
X7765435Y-14005136D01*
X7779721Y-14033707D01*
X7794007Y-14090850D01*
X7794007Y-14162279D01*
X7779721Y-14219421D01*
X7765435Y-14247993D01*
X7751150Y-14262279D01*
X7722578Y-14276564D01*
X7694007Y-14276564D01*
X7665435Y-14262279D01*
X7651150Y-14247993D01*
X7636864Y-14219421D01*
X7622578Y-14162279D01*
X7622578Y-14090850D01*
X7636864Y-14033707D01*
X7651150Y-14005136D01*
X7665435Y-13990850D01*
X7694007Y-13976564D01*
X8151150Y-14276564D02*
X8151150Y-13976564D01*
X8279721Y-14276564D02*
X8279721Y-14119421D01*
X8265435Y-14090850D01*
X8236864Y-14076564D01*
X8194007Y-14076564D01*
X8165435Y-14090850D01*
X8151150Y-14105136D01*
X8465436Y-14276564D02*
X8436864Y-14262279D01*
X8422578Y-14247993D01*
X8408293Y-14219421D01*
X8408293Y-14133707D01*
X8422578Y-14105136D01*
X8436864Y-14090850D01*
X8465436Y-14076564D01*
X8508293Y-14076564D01*
X8536864Y-14090850D01*
X8551150Y-14105136D01*
X8565436Y-14133707D01*
X8565436Y-14219421D01*
X8551150Y-14247993D01*
X8536864Y-14262279D01*
X8508293Y-14276564D01*
X8465436Y-14276564D01*
X8736864Y-14276564D02*
X8708293Y-14262279D01*
X8694007Y-14233707D01*
X8694007Y-13976564D01*
X8965436Y-14262279D02*
X8936864Y-14276564D01*
X8879721Y-14276564D01*
X8851150Y-14262279D01*
X8836864Y-14233707D01*
X8836864Y-14119421D01*
X8851150Y-14090850D01*
X8879721Y-14076564D01*
X8936864Y-14076564D01*
X8965436Y-14090850D01*
X8979721Y-14119421D01*
X8979721Y-14147993D01*
X8836864Y-14176564D01*
X9094007Y-14262279D02*
X9122579Y-14276564D01*
X9179721Y-14276564D01*
X9208293Y-14262279D01*
X9222579Y-14233707D01*
X9222579Y-14219421D01*
X9208293Y-14190850D01*
X9179721Y-14176564D01*
X9136864Y-14176564D01*
X9108293Y-14162279D01*
X9094007Y-14133707D01*
X9094007Y-14119421D01*
X9108293Y-14090850D01*
X9136864Y-14076564D01*
X9179721Y-14076564D01*
X9208293Y-14090850D01*
X9579721Y-14162279D02*
X9808293Y-14162279D01*
X9694007Y-14276564D02*
X9694007Y-14047993D01*
X10165436Y-14005136D02*
X10179721Y-13990850D01*
X10208293Y-13976564D01*
X10279721Y-13976564D01*
X10308293Y-13990850D01*
X10322578Y-14005136D01*
X10336864Y-14033707D01*
X10336864Y-14062279D01*
X10322578Y-14105136D01*
X10151150Y-14276564D01*
X10336864Y-14276564D01*
X10679721Y-14262279D02*
X10708293Y-14276564D01*
X10765436Y-14276564D01*
X10794007Y-14262279D01*
X10808293Y-14233707D01*
X10808293Y-14219421D01*
X10794007Y-14190850D01*
X10765436Y-14176564D01*
X10722578Y-14176564D01*
X10694007Y-14162279D01*
X10679721Y-14133707D01*
X10679721Y-14119421D01*
X10694007Y-14090850D01*
X10722578Y-14076564D01*
X10765436Y-14076564D01*
X10794007Y-14090850D01*
X10979721Y-14276564D02*
X10951150Y-14262279D01*
X10936864Y-14233707D01*
X10936864Y-13976564D01*
X11136864Y-14276564D02*
X11108293Y-14262279D01*
X11094007Y-14247993D01*
X11079721Y-14219421D01*
X11079721Y-14133707D01*
X11094007Y-14105136D01*
X11108293Y-14090850D01*
X11136864Y-14076564D01*
X11179721Y-14076564D01*
X11208293Y-14090850D01*
X11222578Y-14105136D01*
X11236864Y-14133707D01*
X11236864Y-14219421D01*
X11222578Y-14247993D01*
X11208293Y-14262279D01*
X11179721Y-14276564D01*
X11136864Y-14276564D01*
X11322578Y-14076564D02*
X11436864Y-14076564D01*
X11365436Y-13976564D02*
X11365436Y-14233707D01*
X11379721Y-14262279D01*
X11408293Y-14276564D01*
X11436864Y-14276564D01*
X11522578Y-14262279D02*
X11551150Y-14276564D01*
X11608293Y-14276564D01*
X11636864Y-14262279D01*
X11651150Y-14233707D01*
X11651150Y-14219421D01*
X11636864Y-14190850D01*
X11608293Y-14176564D01*
X11565436Y-14176564D01*
X11536864Y-14162279D01*
X11522578Y-14133707D01*
X11522578Y-14119421D01*
X11536864Y-14090850D01*
X11565436Y-14076564D01*
X11608293Y-14076564D01*
X11636864Y-14090850D01*
X11751150Y-14390850D02*
X11765436Y-14376564D01*
X11794007Y-14333707D01*
X11808293Y-14305136D01*
X11822578Y-14262279D01*
X11836864Y-14190850D01*
X11836864Y-14133707D01*
X11822578Y-14062279D01*
X11808293Y-14019421D01*
X11794007Y-13990850D01*
X11765436Y-13947993D01*
X11751150Y-13933707D01*
X2838702Y-14566902D02*
X2838702Y-14506798D01*
X2778598Y-14506798D01*
X2778598Y-14566902D01*
X2838702Y-14566902D01*
X3179721Y-14372564D02*
X3208293Y-14372564D01*
X3236864Y-14386850D01*
X3251150Y-14401136D01*
X3265436Y-14429707D01*
X3279721Y-14486850D01*
X3279721Y-14558279D01*
X3265436Y-14615421D01*
X3251150Y-14643993D01*
X3236864Y-14658279D01*
X3208293Y-14672564D01*
X3179721Y-14672564D01*
X3151150Y-14658279D01*
X3136864Y-14643993D01*
X3122578Y-14615421D01*
X3108293Y-14558279D01*
X3108293Y-14486850D01*
X3122578Y-14429707D01*
X3136864Y-14401136D01*
X3151150Y-14386850D01*
X3179721Y-14372564D01*
X3408293Y-14643993D02*
X3422578Y-14658279D01*
X3408293Y-14672564D01*
X3394007Y-14658279D01*
X3408293Y-14643993D01*
X3408293Y-14672564D01*
X3594007Y-14501136D02*
X3565436Y-14486850D01*
X3551150Y-14472564D01*
X3536864Y-14443993D01*
X3536864Y-14429707D01*
X3551150Y-14401136D01*
X3565436Y-14386850D01*
X3594007Y-14372564D01*
X3651150Y-14372564D01*
X3679721Y-14386850D01*
X3694007Y-14401136D01*
X3708293Y-14429707D01*
X3708293Y-14443993D01*
X3694007Y-14472564D01*
X3679721Y-14486850D01*
X3651150Y-14501136D01*
X3594007Y-14501136D01*
X3565436Y-14515421D01*
X3551150Y-14529707D01*
X3536864Y-14558279D01*
X3536864Y-14615421D01*
X3551150Y-14643993D01*
X3565436Y-14658279D01*
X3594007Y-14672564D01*
X3651150Y-14672564D01*
X3679721Y-14658279D01*
X3694007Y-14643993D01*
X3708293Y-14615421D01*
X3708293Y-14558279D01*
X3694007Y-14529707D01*
X3679721Y-14515421D01*
X3651150Y-14501136D01*
X3979721Y-14372564D02*
X3836864Y-14372564D01*
X3822578Y-14515421D01*
X3836864Y-14501136D01*
X3865436Y-14486850D01*
X3936864Y-14486850D01*
X3965436Y-14501136D01*
X3979721Y-14515421D01*
X3994007Y-14543993D01*
X3994007Y-14615421D01*
X3979721Y-14643993D01*
X3965436Y-14658279D01*
X3936864Y-14672564D01*
X3865436Y-14672564D01*
X3836864Y-14658279D01*
X3822578Y-14643993D01*
X4122578Y-14672564D02*
X4122578Y-14472564D01*
X4122578Y-14501136D02*
X4136864Y-14486850D01*
X4165436Y-14472564D01*
X4208293Y-14472564D01*
X4236864Y-14486850D01*
X4251150Y-14515421D01*
X4251150Y-14672564D01*
X4251150Y-14515421D02*
X4265436Y-14486850D01*
X4294007Y-14472564D01*
X4336864Y-14472564D01*
X4365436Y-14486850D01*
X4379721Y-14515421D01*
X4379721Y-14672564D01*
X4522579Y-14672564D02*
X4522579Y-14472564D01*
X4522579Y-14501136D02*
X4536864Y-14486850D01*
X4565436Y-14472564D01*
X4608293Y-14472564D01*
X4636864Y-14486850D01*
X4651150Y-14515421D01*
X4651150Y-14672564D01*
X4651150Y-14515421D02*
X4665436Y-14486850D01*
X4694007Y-14472564D01*
X4736864Y-14472564D01*
X4765436Y-14486850D01*
X4779721Y-14515421D01*
X4779721Y-14672564D01*
X5365436Y-14358279D02*
X5108293Y-14743993D01*
X5751150Y-14372564D02*
X5779721Y-14372564D01*
X5808293Y-14386850D01*
X5822578Y-14401136D01*
X5836864Y-14429707D01*
X5851150Y-14486850D01*
X5851150Y-14558279D01*
X5836864Y-14615421D01*
X5822578Y-14643993D01*
X5808293Y-14658279D01*
X5779721Y-14672564D01*
X5751150Y-14672564D01*
X5722578Y-14658279D01*
X5708293Y-14643993D01*
X5694007Y-14615421D01*
X5679721Y-14558279D01*
X5679721Y-14486850D01*
X5694007Y-14429707D01*
X5708293Y-14401136D01*
X5722578Y-14386850D01*
X5751150Y-14372564D01*
X5979721Y-14643993D02*
X5994007Y-14658279D01*
X5979721Y-14672564D01*
X5965436Y-14658279D01*
X5979721Y-14643993D01*
X5979721Y-14672564D01*
X6179721Y-14372564D02*
X6208293Y-14372564D01*
X6236864Y-14386850D01*
X6251150Y-14401136D01*
X6265435Y-14429707D01*
X6279721Y-14486850D01*
X6279721Y-14558279D01*
X6265435Y-14615421D01*
X6251150Y-14643993D01*
X6236864Y-14658279D01*
X6208293Y-14672564D01*
X6179721Y-14672564D01*
X6151150Y-14658279D01*
X6136864Y-14643993D01*
X6122578Y-14615421D01*
X6108293Y-14558279D01*
X6108293Y-14486850D01*
X6122578Y-14429707D01*
X6136864Y-14401136D01*
X6151150Y-14386850D01*
X6179721Y-14372564D01*
X6379721Y-14372564D02*
X6565435Y-14372564D01*
X6465435Y-14486850D01*
X6508293Y-14486850D01*
X6536864Y-14501136D01*
X6551150Y-14515421D01*
X6565435Y-14543993D01*
X6565435Y-14615421D01*
X6551150Y-14643993D01*
X6536864Y-14658279D01*
X6508293Y-14672564D01*
X6422578Y-14672564D01*
X6394007Y-14658279D01*
X6379721Y-14643993D01*
X6665435Y-14372564D02*
X6851150Y-14372564D01*
X6751150Y-14486850D01*
X6794007Y-14486850D01*
X6822578Y-14501136D01*
X6836864Y-14515421D01*
X6851150Y-14543993D01*
X6851150Y-14615421D01*
X6836864Y-14643993D01*
X6822578Y-14658279D01*
X6794007Y-14672564D01*
X6708293Y-14672564D01*
X6679721Y-14658279D01*
X6665435Y-14643993D01*
X6965436Y-14372564D02*
X6965436Y-14429707D01*
X7079721Y-14372564D02*
X7079721Y-14429707D01*
X7522578Y-14786850D02*
X7508293Y-14772564D01*
X7479721Y-14729707D01*
X7465435Y-14701136D01*
X7451150Y-14658279D01*
X7436864Y-14586850D01*
X7436864Y-14529707D01*
X7451150Y-14458279D01*
X7465435Y-14415421D01*
X7479721Y-14386850D01*
X7508293Y-14343993D01*
X7522578Y-14329707D01*
X7694007Y-14372564D02*
X7722578Y-14372564D01*
X7751150Y-14386850D01*
X7765435Y-14401136D01*
X7779721Y-14429707D01*
X7794007Y-14486850D01*
X7794007Y-14558279D01*
X7779721Y-14615421D01*
X7765435Y-14643993D01*
X7751150Y-14658279D01*
X7722578Y-14672564D01*
X7694007Y-14672564D01*
X7665435Y-14658279D01*
X7651150Y-14643993D01*
X7636864Y-14615421D01*
X7622578Y-14558279D01*
X7622578Y-14486850D01*
X7636864Y-14429707D01*
X7651150Y-14401136D01*
X7665435Y-14386850D01*
X7694007Y-14372564D01*
X8151150Y-14672564D02*
X8151150Y-14372564D01*
X8279721Y-14672564D02*
X8279721Y-14515421D01*
X8265435Y-14486850D01*
X8236864Y-14472564D01*
X8194007Y-14472564D01*
X8165435Y-14486850D01*
X8151150Y-14501136D01*
X8465436Y-14672564D02*
X8436864Y-14658279D01*
X8422578Y-14643993D01*
X8408293Y-14615421D01*
X8408293Y-14529707D01*
X8422578Y-14501136D01*
X8436864Y-14486850D01*
X8465436Y-14472564D01*
X8508293Y-14472564D01*
X8536864Y-14486850D01*
X8551150Y-14501136D01*
X8565436Y-14529707D01*
X8565436Y-14615421D01*
X8551150Y-14643993D01*
X8536864Y-14658279D01*
X8508293Y-14672564D01*
X8465436Y-14672564D01*
X8736864Y-14672564D02*
X8708293Y-14658279D01*
X8694007Y-14629707D01*
X8694007Y-14372564D01*
X8965436Y-14658279D02*
X8936864Y-14672564D01*
X8879721Y-14672564D01*
X8851150Y-14658279D01*
X8836864Y-14629707D01*
X8836864Y-14515421D01*
X8851150Y-14486850D01*
X8879721Y-14472564D01*
X8936864Y-14472564D01*
X8965436Y-14486850D01*
X8979721Y-14515421D01*
X8979721Y-14543993D01*
X8836864Y-14572564D01*
X9094007Y-14658279D02*
X9122579Y-14672564D01*
X9179721Y-14672564D01*
X9208293Y-14658279D01*
X9222579Y-14629707D01*
X9222579Y-14615421D01*
X9208293Y-14586850D01*
X9179721Y-14572564D01*
X9136864Y-14572564D01*
X9108293Y-14558279D01*
X9094007Y-14529707D01*
X9094007Y-14515421D01*
X9108293Y-14486850D01*
X9136864Y-14472564D01*
X9179721Y-14472564D01*
X9208293Y-14486850D01*
X9579721Y-14558279D02*
X9808293Y-14558279D01*
X9694007Y-14672564D02*
X9694007Y-14443993D01*
X10165436Y-14401136D02*
X10179721Y-14386850D01*
X10208293Y-14372564D01*
X10279721Y-14372564D01*
X10308293Y-14386850D01*
X10322578Y-14401136D01*
X10336864Y-14429707D01*
X10336864Y-14458279D01*
X10322578Y-14501136D01*
X10151150Y-14672564D01*
X10336864Y-14672564D01*
X10679721Y-14658279D02*
X10708293Y-14672564D01*
X10765436Y-14672564D01*
X10794007Y-14658279D01*
X10808293Y-14629707D01*
X10808293Y-14615421D01*
X10794007Y-14586850D01*
X10765436Y-14572564D01*
X10722578Y-14572564D01*
X10694007Y-14558279D01*
X10679721Y-14529707D01*
X10679721Y-14515421D01*
X10694007Y-14486850D01*
X10722578Y-14472564D01*
X10765436Y-14472564D01*
X10794007Y-14486850D01*
X10979721Y-14672564D02*
X10951150Y-14658279D01*
X10936864Y-14629707D01*
X10936864Y-14372564D01*
X11136864Y-14672564D02*
X11108293Y-14658279D01*
X11094007Y-14643993D01*
X11079721Y-14615421D01*
X11079721Y-14529707D01*
X11094007Y-14501136D01*
X11108293Y-14486850D01*
X11136864Y-14472564D01*
X11179721Y-14472564D01*
X11208293Y-14486850D01*
X11222578Y-14501136D01*
X11236864Y-14529707D01*
X11236864Y-14615421D01*
X11222578Y-14643993D01*
X11208293Y-14658279D01*
X11179721Y-14672564D01*
X11136864Y-14672564D01*
X11322578Y-14472564D02*
X11436864Y-14472564D01*
X11365436Y-14372564D02*
X11365436Y-14629707D01*
X11379721Y-14658279D01*
X11408293Y-14672564D01*
X11436864Y-14672564D01*
X11522578Y-14658279D02*
X11551150Y-14672564D01*
X11608293Y-14672564D01*
X11636864Y-14658279D01*
X11651150Y-14629707D01*
X11651150Y-14615421D01*
X11636864Y-14586850D01*
X11608293Y-14572564D01*
X11565436Y-14572564D01*
X11536864Y-14558279D01*
X11522578Y-14529707D01*
X11522578Y-14515421D01*
X11536864Y-14486850D01*
X11565436Y-14472564D01*
X11608293Y-14472564D01*
X11636864Y-14486850D01*
X11751150Y-14786850D02*
X11765436Y-14772564D01*
X11794007Y-14729707D01*
X11808293Y-14701136D01*
X11822578Y-14658279D01*
X11836864Y-14586850D01*
X11836864Y-14529707D01*
X11822578Y-14458279D01*
X11808293Y-14415421D01*
X11794007Y-14386850D01*
X11765436Y-14343993D01*
X11751150Y-14329707D01*
X2800350Y-14983650D02*
X2851150Y-14932850D01*
X2800350Y-14882050D01*
X2749550Y-14932850D01*
X2800350Y-14983650D01*
X3279721Y-15068564D02*
X3108293Y-15068564D01*
X3194007Y-15068564D02*
X3194007Y-14768564D01*
X3165436Y-14811421D01*
X3136864Y-14839993D01*
X3108293Y-14854279D01*
X3408293Y-15039993D02*
X3422578Y-15054279D01*
X3408293Y-15068564D01*
X3394007Y-15054279D01*
X3408293Y-15039993D01*
X3408293Y-15068564D01*
X3608293Y-14768564D02*
X3636864Y-14768564D01*
X3665436Y-14782850D01*
X3679721Y-14797136D01*
X3694007Y-14825707D01*
X3708293Y-14882850D01*
X3708293Y-14954279D01*
X3694007Y-15011421D01*
X3679721Y-15039993D01*
X3665436Y-15054279D01*
X3636864Y-15068564D01*
X3608293Y-15068564D01*
X3579721Y-15054279D01*
X3565436Y-15039993D01*
X3551150Y-15011421D01*
X3536864Y-14954279D01*
X3536864Y-14882850D01*
X3551150Y-14825707D01*
X3565436Y-14797136D01*
X3579721Y-14782850D01*
X3608293Y-14768564D01*
X3822578Y-14797136D02*
X3836864Y-14782850D01*
X3865436Y-14768564D01*
X3936864Y-14768564D01*
X3965436Y-14782850D01*
X3979721Y-14797136D01*
X3994007Y-14825707D01*
X3994007Y-14854279D01*
X3979721Y-14897136D01*
X3808293Y-15068564D01*
X3994007Y-15068564D01*
X4122578Y-15068564D02*
X4122578Y-14868564D01*
X4122578Y-14897136D02*
X4136864Y-14882850D01*
X4165436Y-14868564D01*
X4208293Y-14868564D01*
X4236864Y-14882850D01*
X4251150Y-14911421D01*
X4251150Y-15068564D01*
X4251150Y-14911421D02*
X4265436Y-14882850D01*
X4294007Y-14868564D01*
X4336864Y-14868564D01*
X4365436Y-14882850D01*
X4379721Y-14911421D01*
X4379721Y-15068564D01*
X4522579Y-15068564D02*
X4522579Y-14868564D01*
X4522579Y-14897136D02*
X4536864Y-14882850D01*
X4565436Y-14868564D01*
X4608293Y-14868564D01*
X4636864Y-14882850D01*
X4651150Y-14911421D01*
X4651150Y-15068564D01*
X4651150Y-14911421D02*
X4665436Y-14882850D01*
X4694007Y-14868564D01*
X4736864Y-14868564D01*
X4765436Y-14882850D01*
X4779721Y-14911421D01*
X4779721Y-15068564D01*
X5365436Y-14754279D02*
X5108293Y-15139993D01*
X5751150Y-14768564D02*
X5779721Y-14768564D01*
X5808293Y-14782850D01*
X5822578Y-14797136D01*
X5836864Y-14825707D01*
X5851150Y-14882850D01*
X5851150Y-14954279D01*
X5836864Y-15011421D01*
X5822578Y-15039993D01*
X5808293Y-15054279D01*
X5779721Y-15068564D01*
X5751150Y-15068564D01*
X5722578Y-15054279D01*
X5708293Y-15039993D01*
X5694007Y-15011421D01*
X5679721Y-14954279D01*
X5679721Y-14882850D01*
X5694007Y-14825707D01*
X5708293Y-14797136D01*
X5722578Y-14782850D01*
X5751150Y-14768564D01*
X5979721Y-15039993D02*
X5994007Y-15054279D01*
X5979721Y-15068564D01*
X5965436Y-15054279D01*
X5979721Y-15039993D01*
X5979721Y-15068564D01*
X6179721Y-14768564D02*
X6208293Y-14768564D01*
X6236864Y-14782850D01*
X6251150Y-14797136D01*
X6265435Y-14825707D01*
X6279721Y-14882850D01*
X6279721Y-14954279D01*
X6265435Y-15011421D01*
X6251150Y-15039993D01*
X6236864Y-15054279D01*
X6208293Y-15068564D01*
X6179721Y-15068564D01*
X6151150Y-15054279D01*
X6136864Y-15039993D01*
X6122578Y-15011421D01*
X6108293Y-14954279D01*
X6108293Y-14882850D01*
X6122578Y-14825707D01*
X6136864Y-14797136D01*
X6151150Y-14782850D01*
X6179721Y-14768564D01*
X6536864Y-14868564D02*
X6536864Y-15068564D01*
X6465435Y-14754279D02*
X6394007Y-14968564D01*
X6579721Y-14968564D01*
X6751150Y-14768564D02*
X6779721Y-14768564D01*
X6808293Y-14782850D01*
X6822578Y-14797136D01*
X6836864Y-14825707D01*
X6851150Y-14882850D01*
X6851150Y-14954279D01*
X6836864Y-15011421D01*
X6822578Y-15039993D01*
X6808293Y-15054279D01*
X6779721Y-15068564D01*
X6751150Y-15068564D01*
X6722578Y-15054279D01*
X6708293Y-15039993D01*
X6694007Y-15011421D01*
X6679721Y-14954279D01*
X6679721Y-14882850D01*
X6694007Y-14825707D01*
X6708293Y-14797136D01*
X6722578Y-14782850D01*
X6751150Y-14768564D01*
X6965436Y-14768564D02*
X6965436Y-14825707D01*
X7079721Y-14768564D02*
X7079721Y-14825707D01*
X7522578Y-15182850D02*
X7508293Y-15168564D01*
X7479721Y-15125707D01*
X7465435Y-15097136D01*
X7451150Y-15054279D01*
X7436864Y-14982850D01*
X7436864Y-14925707D01*
X7451150Y-14854279D01*
X7465435Y-14811421D01*
X7479721Y-14782850D01*
X7508293Y-14739993D01*
X7522578Y-14725707D01*
X7765435Y-14768564D02*
X7708293Y-14768564D01*
X7679721Y-14782850D01*
X7665435Y-14797136D01*
X7636864Y-14839993D01*
X7622578Y-14897136D01*
X7622578Y-15011421D01*
X7636864Y-15039993D01*
X7651150Y-15054279D01*
X7679721Y-15068564D01*
X7736864Y-15068564D01*
X7765435Y-15054279D01*
X7779721Y-15039993D01*
X7794007Y-15011421D01*
X7794007Y-14939993D01*
X7779721Y-14911421D01*
X7765435Y-14897136D01*
X7736864Y-14882850D01*
X7679721Y-14882850D01*
X7651150Y-14897136D01*
X7636864Y-14911421D01*
X7622578Y-14939993D01*
X8151150Y-15068564D02*
X8151150Y-14768564D01*
X8279721Y-15068564D02*
X8279721Y-14911421D01*
X8265435Y-14882850D01*
X8236864Y-14868564D01*
X8194007Y-14868564D01*
X8165435Y-14882850D01*
X8151150Y-14897136D01*
X8465436Y-15068564D02*
X8436864Y-15054279D01*
X8422578Y-15039993D01*
X8408293Y-15011421D01*
X8408293Y-14925707D01*
X8422578Y-14897136D01*
X8436864Y-14882850D01*
X8465436Y-14868564D01*
X8508293Y-14868564D01*
X8536864Y-14882850D01*
X8551150Y-14897136D01*
X8565436Y-14925707D01*
X8565436Y-15011421D01*
X8551150Y-15039993D01*
X8536864Y-15054279D01*
X8508293Y-15068564D01*
X8465436Y-15068564D01*
X8736864Y-15068564D02*
X8708293Y-15054279D01*
X8694007Y-15025707D01*
X8694007Y-14768564D01*
X8965436Y-15054279D02*
X8936864Y-15068564D01*
X8879721Y-15068564D01*
X8851150Y-15054279D01*
X8836864Y-15025707D01*
X8836864Y-14911421D01*
X8851150Y-14882850D01*
X8879721Y-14868564D01*
X8936864Y-14868564D01*
X8965436Y-14882850D01*
X8979721Y-14911421D01*
X8979721Y-14939993D01*
X8836864Y-14968564D01*
X9094007Y-15054279D02*
X9122579Y-15068564D01*
X9179721Y-15068564D01*
X9208293Y-15054279D01*
X9222579Y-15025707D01*
X9222579Y-15011421D01*
X9208293Y-14982850D01*
X9179721Y-14968564D01*
X9136864Y-14968564D01*
X9108293Y-14954279D01*
X9094007Y-14925707D01*
X9094007Y-14911421D01*
X9108293Y-14882850D01*
X9136864Y-14868564D01*
X9179721Y-14868564D01*
X9208293Y-14882850D01*
X9322578Y-15182850D02*
X9336864Y-15168564D01*
X9365436Y-15125707D01*
X9379721Y-15097136D01*
X9394007Y-15054279D01*
X9408293Y-14982850D01*
X9408293Y-14925707D01*
X9394007Y-14854279D01*
X9379721Y-14811421D01*
X9365436Y-14782850D01*
X9336864Y-14739993D01*
X9322578Y-14725707D01*
X2701150Y-15253850D02*
X2851150Y-15403850D01*
X2851150Y-15253850D02*
X2701150Y-15403850D01*
X2851150Y-15328850D02*
G75*
G03X2851150Y-15328850I-75000J0D01*
G01*
X3279721Y-15464564D02*
X3108293Y-15464564D01*
X3194007Y-15464564D02*
X3194007Y-15164564D01*
X3165436Y-15207421D01*
X3136864Y-15235993D01*
X3108293Y-15250279D01*
X3408293Y-15435993D02*
X3422578Y-15450279D01*
X3408293Y-15464564D01*
X3394007Y-15450279D01*
X3408293Y-15435993D01*
X3408293Y-15464564D01*
X3694007Y-15164564D02*
X3551150Y-15164564D01*
X3536864Y-15307421D01*
X3551150Y-15293136D01*
X3579721Y-15278850D01*
X3651150Y-15278850D01*
X3679721Y-15293136D01*
X3694007Y-15307421D01*
X3708293Y-15335993D01*
X3708293Y-15407421D01*
X3694007Y-15435993D01*
X3679721Y-15450279D01*
X3651150Y-15464564D01*
X3579721Y-15464564D01*
X3551150Y-15450279D01*
X3536864Y-15435993D01*
X3894007Y-15164564D02*
X3922578Y-15164564D01*
X3951150Y-15178850D01*
X3965436Y-15193136D01*
X3979721Y-15221707D01*
X3994007Y-15278850D01*
X3994007Y-15350279D01*
X3979721Y-15407421D01*
X3965436Y-15435993D01*
X3951150Y-15450279D01*
X3922578Y-15464564D01*
X3894007Y-15464564D01*
X3865436Y-15450279D01*
X3851150Y-15435993D01*
X3836864Y-15407421D01*
X3822578Y-15350279D01*
X3822578Y-15278850D01*
X3836864Y-15221707D01*
X3851150Y-15193136D01*
X3865436Y-15178850D01*
X3894007Y-15164564D01*
X4122578Y-15464564D02*
X4122578Y-15264564D01*
X4122578Y-15293136D02*
X4136864Y-15278850D01*
X4165436Y-15264564D01*
X4208293Y-15264564D01*
X4236864Y-15278850D01*
X4251150Y-15307421D01*
X4251150Y-15464564D01*
X4251150Y-15307421D02*
X4265436Y-15278850D01*
X4294007Y-15264564D01*
X4336864Y-15264564D01*
X4365436Y-15278850D01*
X4379721Y-15307421D01*
X4379721Y-15464564D01*
X4522579Y-15464564D02*
X4522579Y-15264564D01*
X4522579Y-15293136D02*
X4536864Y-15278850D01*
X4565436Y-15264564D01*
X4608293Y-15264564D01*
X4636864Y-15278850D01*
X4651150Y-15307421D01*
X4651150Y-15464564D01*
X4651150Y-15307421D02*
X4665436Y-15278850D01*
X4694007Y-15264564D01*
X4736864Y-15264564D01*
X4765436Y-15278850D01*
X4779721Y-15307421D01*
X4779721Y-15464564D01*
X5365436Y-15150279D02*
X5108293Y-15535993D01*
X5751150Y-15164564D02*
X5779721Y-15164564D01*
X5808293Y-15178850D01*
X5822578Y-15193136D01*
X5836864Y-15221707D01*
X5851150Y-15278850D01*
X5851150Y-15350279D01*
X5836864Y-15407421D01*
X5822578Y-15435993D01*
X5808293Y-15450279D01*
X5779721Y-15464564D01*
X5751150Y-15464564D01*
X5722578Y-15450279D01*
X5708293Y-15435993D01*
X5694007Y-15407421D01*
X5679721Y-15350279D01*
X5679721Y-15278850D01*
X5694007Y-15221707D01*
X5708293Y-15193136D01*
X5722578Y-15178850D01*
X5751150Y-15164564D01*
X5979721Y-15435993D02*
X5994007Y-15450279D01*
X5979721Y-15464564D01*
X5965436Y-15450279D01*
X5979721Y-15435993D01*
X5979721Y-15464564D01*
X6179721Y-15164564D02*
X6208293Y-15164564D01*
X6236864Y-15178850D01*
X6251150Y-15193136D01*
X6265435Y-15221707D01*
X6279721Y-15278850D01*
X6279721Y-15350279D01*
X6265435Y-15407421D01*
X6251150Y-15435993D01*
X6236864Y-15450279D01*
X6208293Y-15464564D01*
X6179721Y-15464564D01*
X6151150Y-15450279D01*
X6136864Y-15435993D01*
X6122578Y-15407421D01*
X6108293Y-15350279D01*
X6108293Y-15278850D01*
X6122578Y-15221707D01*
X6136864Y-15193136D01*
X6151150Y-15178850D01*
X6179721Y-15164564D01*
X6551150Y-15164564D02*
X6408293Y-15164564D01*
X6394007Y-15307421D01*
X6408293Y-15293136D01*
X6436864Y-15278850D01*
X6508293Y-15278850D01*
X6536864Y-15293136D01*
X6551150Y-15307421D01*
X6565435Y-15335993D01*
X6565435Y-15407421D01*
X6551150Y-15435993D01*
X6536864Y-15450279D01*
X6508293Y-15464564D01*
X6436864Y-15464564D01*
X6408293Y-15450279D01*
X6394007Y-15435993D01*
X6708293Y-15464564D02*
X6765435Y-15464564D01*
X6794007Y-15450279D01*
X6808293Y-15435993D01*
X6836864Y-15393136D01*
X6851150Y-15335993D01*
X6851150Y-15221707D01*
X6836864Y-15193136D01*
X6822578Y-15178850D01*
X6794007Y-15164564D01*
X6736864Y-15164564D01*
X6708293Y-15178850D01*
X6694007Y-15193136D01*
X6679721Y-15221707D01*
X6679721Y-15293136D01*
X6694007Y-15321707D01*
X6708293Y-15335993D01*
X6736864Y-15350279D01*
X6794007Y-15350279D01*
X6822578Y-15335993D01*
X6836864Y-15321707D01*
X6851150Y-15293136D01*
X6965436Y-15164564D02*
X6965436Y-15221707D01*
X7079721Y-15164564D02*
X7079721Y-15221707D01*
X7522578Y-15578850D02*
X7508293Y-15564564D01*
X7479721Y-15521707D01*
X7465435Y-15493136D01*
X7451150Y-15450279D01*
X7436864Y-15378850D01*
X7436864Y-15321707D01*
X7451150Y-15250279D01*
X7465435Y-15207421D01*
X7479721Y-15178850D01*
X7508293Y-15135993D01*
X7522578Y-15121707D01*
X7794007Y-15464564D02*
X7622578Y-15464564D01*
X7708293Y-15464564D02*
X7708293Y-15164564D01*
X7679721Y-15207421D01*
X7651150Y-15235993D01*
X7622578Y-15250279D01*
X7894007Y-15164564D02*
X8094007Y-15164564D01*
X7965435Y-15464564D01*
X8336864Y-15164564D02*
X8279721Y-15164564D01*
X8251150Y-15178850D01*
X8236864Y-15193136D01*
X8208293Y-15235993D01*
X8194007Y-15293136D01*
X8194007Y-15407421D01*
X8208293Y-15435993D01*
X8222578Y-15450279D01*
X8251150Y-15464564D01*
X8308293Y-15464564D01*
X8336864Y-15450279D01*
X8351150Y-15435993D01*
X8365435Y-15407421D01*
X8365435Y-15335993D01*
X8351150Y-15307421D01*
X8336864Y-15293136D01*
X8308293Y-15278850D01*
X8251150Y-15278850D01*
X8222578Y-15293136D01*
X8208293Y-15307421D01*
X8194007Y-15335993D01*
X8722578Y-15464564D02*
X8722578Y-15164564D01*
X8851150Y-15464564D02*
X8851150Y-15307421D01*
X8836864Y-15278850D01*
X8808293Y-15264564D01*
X8765436Y-15264564D01*
X8736864Y-15278850D01*
X8722578Y-15293136D01*
X9036864Y-15464564D02*
X9008293Y-15450279D01*
X8994007Y-15435993D01*
X8979721Y-15407421D01*
X8979721Y-15321707D01*
X8994007Y-15293136D01*
X9008293Y-15278850D01*
X9036864Y-15264564D01*
X9079721Y-15264564D01*
X9108293Y-15278850D01*
X9122578Y-15293136D01*
X9136864Y-15321707D01*
X9136864Y-15407421D01*
X9122578Y-15435993D01*
X9108293Y-15450279D01*
X9079721Y-15464564D01*
X9036864Y-15464564D01*
X9308293Y-15464564D02*
X9279721Y-15450279D01*
X9265436Y-15421707D01*
X9265436Y-15164564D01*
X9536864Y-15450279D02*
X9508293Y-15464564D01*
X9451150Y-15464564D01*
X9422579Y-15450279D01*
X9408293Y-15421707D01*
X9408293Y-15307421D01*
X9422579Y-15278850D01*
X9451150Y-15264564D01*
X9508293Y-15264564D01*
X9536864Y-15278850D01*
X9551150Y-15307421D01*
X9551150Y-15335993D01*
X9408293Y-15364564D01*
X9665436Y-15450279D02*
X9694007Y-15464564D01*
X9751150Y-15464564D01*
X9779721Y-15450279D01*
X9794007Y-15421707D01*
X9794007Y-15407421D01*
X9779721Y-15378850D01*
X9751150Y-15364564D01*
X9708293Y-15364564D01*
X9679721Y-15350279D01*
X9665436Y-15321707D01*
X9665436Y-15307421D01*
X9679721Y-15278850D01*
X9708293Y-15264564D01*
X9751150Y-15264564D01*
X9779721Y-15278850D01*
X10151150Y-15350279D02*
X10379721Y-15350279D01*
X10265436Y-15464564D02*
X10265436Y-15235993D01*
X10794007Y-15293136D02*
X10765436Y-15278850D01*
X10751150Y-15264564D01*
X10736864Y-15235993D01*
X10736864Y-15221707D01*
X10751150Y-15193136D01*
X10765436Y-15178850D01*
X10794007Y-15164564D01*
X10851150Y-15164564D01*
X10879721Y-15178850D01*
X10894007Y-15193136D01*
X10908293Y-15221707D01*
X10908293Y-15235993D01*
X10894007Y-15264564D01*
X10879721Y-15278850D01*
X10851150Y-15293136D01*
X10794007Y-15293136D01*
X10765436Y-15307421D01*
X10751150Y-15321707D01*
X10736864Y-15350279D01*
X10736864Y-15407421D01*
X10751150Y-15435993D01*
X10765436Y-15450279D01*
X10794007Y-15464564D01*
X10851150Y-15464564D01*
X10879721Y-15450279D01*
X10894007Y-15435993D01*
X10908293Y-15407421D01*
X10908293Y-15350279D01*
X10894007Y-15321707D01*
X10879721Y-15307421D01*
X10851150Y-15293136D01*
X11079721Y-15293136D02*
X11051150Y-15278850D01*
X11036864Y-15264564D01*
X11022579Y-15235993D01*
X11022579Y-15221707D01*
X11036864Y-15193136D01*
X11051150Y-15178850D01*
X11079721Y-15164564D01*
X11136864Y-15164564D01*
X11165436Y-15178850D01*
X11179721Y-15193136D01*
X11194007Y-15221707D01*
X11194007Y-15235993D01*
X11179721Y-15264564D01*
X11165436Y-15278850D01*
X11136864Y-15293136D01*
X11079721Y-15293136D01*
X11051150Y-15307421D01*
X11036864Y-15321707D01*
X11022579Y-15350279D01*
X11022579Y-15407421D01*
X11036864Y-15435993D01*
X11051150Y-15450279D01*
X11079721Y-15464564D01*
X11136864Y-15464564D01*
X11165436Y-15450279D01*
X11179721Y-15435993D01*
X11194007Y-15407421D01*
X11194007Y-15350279D01*
X11179721Y-15321707D01*
X11165436Y-15307421D01*
X11136864Y-15293136D01*
X11536864Y-15450279D02*
X11565436Y-15464564D01*
X11622578Y-15464564D01*
X11651150Y-15450279D01*
X11665436Y-15421707D01*
X11665436Y-15407421D01*
X11651150Y-15378850D01*
X11622578Y-15364564D01*
X11579721Y-15364564D01*
X11551150Y-15350279D01*
X11536864Y-15321707D01*
X11536864Y-15307421D01*
X11551150Y-15278850D01*
X11579721Y-15264564D01*
X11622578Y-15264564D01*
X11651150Y-15278850D01*
X11836864Y-15464564D02*
X11808293Y-15450279D01*
X11794007Y-15421707D01*
X11794007Y-15164564D01*
X11994007Y-15464564D02*
X11965436Y-15450279D01*
X11951150Y-15435993D01*
X11936864Y-15407421D01*
X11936864Y-15321707D01*
X11951150Y-15293136D01*
X11965436Y-15278850D01*
X11994007Y-15264564D01*
X12036864Y-15264564D01*
X12065436Y-15278850D01*
X12079721Y-15293136D01*
X12094007Y-15321707D01*
X12094007Y-15407421D01*
X12079721Y-15435993D01*
X12065436Y-15450279D01*
X12036864Y-15464564D01*
X11994007Y-15464564D01*
X12179721Y-15264564D02*
X12294007Y-15264564D01*
X12222578Y-15164564D02*
X12222578Y-15421707D01*
X12236864Y-15450279D01*
X12265436Y-15464564D01*
X12294007Y-15464564D01*
X12379721Y-15450279D02*
X12408293Y-15464564D01*
X12465436Y-15464564D01*
X12494007Y-15450279D01*
X12508293Y-15421707D01*
X12508293Y-15407421D01*
X12494007Y-15378850D01*
X12465436Y-15364564D01*
X12422578Y-15364564D01*
X12394007Y-15350279D01*
X12379721Y-15321707D01*
X12379721Y-15307421D01*
X12394007Y-15278850D01*
X12422578Y-15264564D01*
X12465436Y-15264564D01*
X12494007Y-15278850D01*
X12608293Y-15578850D02*
X12622578Y-15564564D01*
X12651150Y-15521707D01*
X12665436Y-15493136D01*
X12679721Y-15450279D01*
X12694007Y-15378850D01*
X12694007Y-15321707D01*
X12679721Y-15250279D01*
X12665436Y-15207421D01*
X12651150Y-15178850D01*
X12622578Y-15135993D01*
X12608293Y-15121707D01*
X2601214Y-15599882D02*
X2851150Y-15849818D01*
X2851150Y-15599882D02*
X2601214Y-15849818D01*
X2726182Y-15599882D02*
X2726182Y-15849818D01*
X2601214Y-15724850D02*
X2851150Y-15724850D01*
X3108293Y-15589136D02*
X3122578Y-15574850D01*
X3151150Y-15560564D01*
X3222578Y-15560564D01*
X3251150Y-15574850D01*
X3265436Y-15589136D01*
X3279721Y-15617707D01*
X3279721Y-15646279D01*
X3265436Y-15689136D01*
X3094007Y-15860564D01*
X3279721Y-15860564D01*
X3408293Y-15831993D02*
X3422578Y-15846279D01*
X3408293Y-15860564D01*
X3394007Y-15846279D01*
X3408293Y-15831993D01*
X3408293Y-15860564D01*
X3694007Y-15560564D02*
X3551150Y-15560564D01*
X3536864Y-15703421D01*
X3551150Y-15689136D01*
X3579721Y-15674850D01*
X3651150Y-15674850D01*
X3679721Y-15689136D01*
X3694007Y-15703421D01*
X3708293Y-15731993D01*
X3708293Y-15803421D01*
X3694007Y-15831993D01*
X3679721Y-15846279D01*
X3651150Y-15860564D01*
X3579721Y-15860564D01*
X3551150Y-15846279D01*
X3536864Y-15831993D01*
X3894007Y-15560564D02*
X3922578Y-15560564D01*
X3951150Y-15574850D01*
X3965436Y-15589136D01*
X3979721Y-15617707D01*
X3994007Y-15674850D01*
X3994007Y-15746279D01*
X3979721Y-15803421D01*
X3965436Y-15831993D01*
X3951150Y-15846279D01*
X3922578Y-15860564D01*
X3894007Y-15860564D01*
X3865436Y-15846279D01*
X3851150Y-15831993D01*
X3836864Y-15803421D01*
X3822578Y-15746279D01*
X3822578Y-15674850D01*
X3836864Y-15617707D01*
X3851150Y-15589136D01*
X3865436Y-15574850D01*
X3894007Y-15560564D01*
X4122578Y-15860564D02*
X4122578Y-15660564D01*
X4122578Y-15689136D02*
X4136864Y-15674850D01*
X4165436Y-15660564D01*
X4208293Y-15660564D01*
X4236864Y-15674850D01*
X4251150Y-15703421D01*
X4251150Y-15860564D01*
X4251150Y-15703421D02*
X4265436Y-15674850D01*
X4294007Y-15660564D01*
X4336864Y-15660564D01*
X4365436Y-15674850D01*
X4379721Y-15703421D01*
X4379721Y-15860564D01*
X4522579Y-15860564D02*
X4522579Y-15660564D01*
X4522579Y-15689136D02*
X4536864Y-15674850D01*
X4565436Y-15660564D01*
X4608293Y-15660564D01*
X4636864Y-15674850D01*
X4651150Y-15703421D01*
X4651150Y-15860564D01*
X4651150Y-15703421D02*
X4665436Y-15674850D01*
X4694007Y-15660564D01*
X4736864Y-15660564D01*
X4765436Y-15674850D01*
X4779721Y-15703421D01*
X4779721Y-15860564D01*
X5365436Y-15546279D02*
X5108293Y-15931993D01*
X5751150Y-15560564D02*
X5779721Y-15560564D01*
X5808293Y-15574850D01*
X5822578Y-15589136D01*
X5836864Y-15617707D01*
X5851150Y-15674850D01*
X5851150Y-15746279D01*
X5836864Y-15803421D01*
X5822578Y-15831993D01*
X5808293Y-15846279D01*
X5779721Y-15860564D01*
X5751150Y-15860564D01*
X5722578Y-15846279D01*
X5708293Y-15831993D01*
X5694007Y-15803421D01*
X5679721Y-15746279D01*
X5679721Y-15674850D01*
X5694007Y-15617707D01*
X5708293Y-15589136D01*
X5722578Y-15574850D01*
X5751150Y-15560564D01*
X5979721Y-15831993D02*
X5994007Y-15846279D01*
X5979721Y-15860564D01*
X5965436Y-15846279D01*
X5979721Y-15831993D01*
X5979721Y-15860564D01*
X6179721Y-15560564D02*
X6208293Y-15560564D01*
X6236864Y-15574850D01*
X6251150Y-15589136D01*
X6265435Y-15617707D01*
X6279721Y-15674850D01*
X6279721Y-15746279D01*
X6265435Y-15803421D01*
X6251150Y-15831993D01*
X6236864Y-15846279D01*
X6208293Y-15860564D01*
X6179721Y-15860564D01*
X6151150Y-15846279D01*
X6136864Y-15831993D01*
X6122578Y-15803421D01*
X6108293Y-15746279D01*
X6108293Y-15674850D01*
X6122578Y-15617707D01*
X6136864Y-15589136D01*
X6151150Y-15574850D01*
X6179721Y-15560564D01*
X6422578Y-15860564D02*
X6479721Y-15860564D01*
X6508293Y-15846279D01*
X6522578Y-15831993D01*
X6551150Y-15789136D01*
X6565435Y-15731993D01*
X6565435Y-15617707D01*
X6551150Y-15589136D01*
X6536864Y-15574850D01*
X6508293Y-15560564D01*
X6451150Y-15560564D01*
X6422578Y-15574850D01*
X6408293Y-15589136D01*
X6394007Y-15617707D01*
X6394007Y-15689136D01*
X6408293Y-15717707D01*
X6422578Y-15731993D01*
X6451150Y-15746279D01*
X6508293Y-15746279D01*
X6536864Y-15731993D01*
X6551150Y-15717707D01*
X6565435Y-15689136D01*
X6736864Y-15689136D02*
X6708293Y-15674850D01*
X6694007Y-15660564D01*
X6679721Y-15631993D01*
X6679721Y-15617707D01*
X6694007Y-15589136D01*
X6708293Y-15574850D01*
X6736864Y-15560564D01*
X6794007Y-15560564D01*
X6822578Y-15574850D01*
X6836864Y-15589136D01*
X6851150Y-15617707D01*
X6851150Y-15631993D01*
X6836864Y-15660564D01*
X6822578Y-15674850D01*
X6794007Y-15689136D01*
X6736864Y-15689136D01*
X6708293Y-15703421D01*
X6694007Y-15717707D01*
X6679721Y-15746279D01*
X6679721Y-15803421D01*
X6694007Y-15831993D01*
X6708293Y-15846279D01*
X6736864Y-15860564D01*
X6794007Y-15860564D01*
X6822578Y-15846279D01*
X6836864Y-15831993D01*
X6851150Y-15803421D01*
X6851150Y-15746279D01*
X6836864Y-15717707D01*
X6822578Y-15703421D01*
X6794007Y-15689136D01*
X6965436Y-15560564D02*
X6965436Y-15617707D01*
X7079721Y-15560564D02*
X7079721Y-15617707D01*
X7522578Y-15974850D02*
X7508293Y-15960564D01*
X7479721Y-15917707D01*
X7465435Y-15889136D01*
X7451150Y-15846279D01*
X7436864Y-15774850D01*
X7436864Y-15717707D01*
X7451150Y-15646279D01*
X7465435Y-15603421D01*
X7479721Y-15574850D01*
X7508293Y-15531993D01*
X7522578Y-15517707D01*
X7794007Y-15860564D02*
X7622578Y-15860564D01*
X7708293Y-15860564D02*
X7708293Y-15560564D01*
X7679721Y-15603421D01*
X7651150Y-15631993D01*
X7622578Y-15646279D01*
X8151150Y-15860564D02*
X8151150Y-15560564D01*
X8279721Y-15860564D02*
X8279721Y-15703421D01*
X8265435Y-15674850D01*
X8236864Y-15660564D01*
X8194007Y-15660564D01*
X8165435Y-15674850D01*
X8151150Y-15689136D01*
X8465436Y-15860564D02*
X8436864Y-15846279D01*
X8422578Y-15831993D01*
X8408293Y-15803421D01*
X8408293Y-15717707D01*
X8422578Y-15689136D01*
X8436864Y-15674850D01*
X8465436Y-15660564D01*
X8508293Y-15660564D01*
X8536864Y-15674850D01*
X8551150Y-15689136D01*
X8565436Y-15717707D01*
X8565436Y-15803421D01*
X8551150Y-15831993D01*
X8536864Y-15846279D01*
X8508293Y-15860564D01*
X8465436Y-15860564D01*
X8736864Y-15860564D02*
X8708293Y-15846279D01*
X8694007Y-15817707D01*
X8694007Y-15560564D01*
X8965436Y-15846279D02*
X8936864Y-15860564D01*
X8879721Y-15860564D01*
X8851150Y-15846279D01*
X8836864Y-15817707D01*
X8836864Y-15703421D01*
X8851150Y-15674850D01*
X8879721Y-15660564D01*
X8936864Y-15660564D01*
X8965436Y-15674850D01*
X8979721Y-15703421D01*
X8979721Y-15731993D01*
X8836864Y-15760564D01*
X9094007Y-15846279D02*
X9122579Y-15860564D01*
X9179721Y-15860564D01*
X9208293Y-15846279D01*
X9222579Y-15817707D01*
X9222579Y-15803421D01*
X9208293Y-15774850D01*
X9179721Y-15760564D01*
X9136864Y-15760564D01*
X9108293Y-15746279D01*
X9094007Y-15717707D01*
X9094007Y-15703421D01*
X9108293Y-15674850D01*
X9136864Y-15660564D01*
X9179721Y-15660564D01*
X9208293Y-15674850D01*
X9579721Y-15746279D02*
X9808293Y-15746279D01*
X9694007Y-15860564D02*
X9694007Y-15631993D01*
X10322578Y-15560564D02*
X10179721Y-15560564D01*
X10165436Y-15703421D01*
X10179721Y-15689136D01*
X10208293Y-15674850D01*
X10279721Y-15674850D01*
X10308293Y-15689136D01*
X10322578Y-15703421D01*
X10336864Y-15731993D01*
X10336864Y-15803421D01*
X10322578Y-15831993D01*
X10308293Y-15846279D01*
X10279721Y-15860564D01*
X10208293Y-15860564D01*
X10179721Y-15846279D01*
X10165436Y-15831993D01*
X10679721Y-15846279D02*
X10708293Y-15860564D01*
X10765436Y-15860564D01*
X10794007Y-15846279D01*
X10808293Y-15817707D01*
X10808293Y-15803421D01*
X10794007Y-15774850D01*
X10765436Y-15760564D01*
X10722578Y-15760564D01*
X10694007Y-15746279D01*
X10679721Y-15717707D01*
X10679721Y-15703421D01*
X10694007Y-15674850D01*
X10722578Y-15660564D01*
X10765436Y-15660564D01*
X10794007Y-15674850D01*
X10979721Y-15860564D02*
X10951150Y-15846279D01*
X10936864Y-15817707D01*
X10936864Y-15560564D01*
X11136864Y-15860564D02*
X11108293Y-15846279D01*
X11094007Y-15831993D01*
X11079721Y-15803421D01*
X11079721Y-15717707D01*
X11094007Y-15689136D01*
X11108293Y-15674850D01*
X11136864Y-15660564D01*
X11179721Y-15660564D01*
X11208293Y-15674850D01*
X11222578Y-15689136D01*
X11236864Y-15717707D01*
X11236864Y-15803421D01*
X11222578Y-15831993D01*
X11208293Y-15846279D01*
X11179721Y-15860564D01*
X11136864Y-15860564D01*
X11322578Y-15660564D02*
X11436864Y-15660564D01*
X11365436Y-15560564D02*
X11365436Y-15817707D01*
X11379721Y-15846279D01*
X11408293Y-15860564D01*
X11436864Y-15860564D01*
X11522578Y-15846279D02*
X11551150Y-15860564D01*
X11608293Y-15860564D01*
X11636864Y-15846279D01*
X11651150Y-15817707D01*
X11651150Y-15803421D01*
X11636864Y-15774850D01*
X11608293Y-15760564D01*
X11565436Y-15760564D01*
X11536864Y-15746279D01*
X11522578Y-15717707D01*
X11522578Y-15703421D01*
X11536864Y-15674850D01*
X11565436Y-15660564D01*
X11608293Y-15660564D01*
X11636864Y-15674850D01*
X11751150Y-15974850D02*
X11765436Y-15960564D01*
X11794007Y-15917707D01*
X11808293Y-15889136D01*
X11822578Y-15846279D01*
X11836864Y-15774850D01*
X11836864Y-15717707D01*
X11822578Y-15646279D01*
X11808293Y-15603421D01*
X11794007Y-15574850D01*
X11765436Y-15531993D01*
X11751150Y-15517707D01*
X2771150Y-16080850D02*
X2851150Y-16160850D01*
X2851150Y-16080850D02*
X2771150Y-16160850D01*
X2839434Y-16149135D02*
X2839434Y-16092566D01*
X2782865Y-16092566D01*
X2782865Y-16149135D01*
X2839434Y-16149135D01*
X3179721Y-15956564D02*
X3208293Y-15956564D01*
X3236864Y-15970850D01*
X3251150Y-15985136D01*
X3265436Y-16013707D01*
X3279721Y-16070850D01*
X3279721Y-16142279D01*
X3265436Y-16199421D01*
X3251150Y-16227993D01*
X3236864Y-16242279D01*
X3208293Y-16256564D01*
X3179721Y-16256564D01*
X3151150Y-16242279D01*
X3136864Y-16227993D01*
X3122578Y-16199421D01*
X3108293Y-16142279D01*
X3108293Y-16070850D01*
X3122578Y-16013707D01*
X3136864Y-15985136D01*
X3151150Y-15970850D01*
X3179721Y-15956564D01*
X3408293Y-16227993D02*
X3422578Y-16242279D01*
X3408293Y-16256564D01*
X3394007Y-16242279D01*
X3408293Y-16227993D01*
X3408293Y-16256564D01*
X3594007Y-16085136D02*
X3565436Y-16070850D01*
X3551150Y-16056564D01*
X3536864Y-16027993D01*
X3536864Y-16013707D01*
X3551150Y-15985136D01*
X3565436Y-15970850D01*
X3594007Y-15956564D01*
X3651150Y-15956564D01*
X3679721Y-15970850D01*
X3694007Y-15985136D01*
X3708293Y-16013707D01*
X3708293Y-16027993D01*
X3694007Y-16056564D01*
X3679721Y-16070850D01*
X3651150Y-16085136D01*
X3594007Y-16085136D01*
X3565436Y-16099421D01*
X3551150Y-16113707D01*
X3536864Y-16142279D01*
X3536864Y-16199421D01*
X3551150Y-16227993D01*
X3565436Y-16242279D01*
X3594007Y-16256564D01*
X3651150Y-16256564D01*
X3679721Y-16242279D01*
X3694007Y-16227993D01*
X3708293Y-16199421D01*
X3708293Y-16142279D01*
X3694007Y-16113707D01*
X3679721Y-16099421D01*
X3651150Y-16085136D01*
X3894007Y-15956564D02*
X3922578Y-15956564D01*
X3951150Y-15970850D01*
X3965436Y-15985136D01*
X3979721Y-16013707D01*
X3994007Y-16070850D01*
X3994007Y-16142279D01*
X3979721Y-16199421D01*
X3965436Y-16227993D01*
X3951150Y-16242279D01*
X3922578Y-16256564D01*
X3894007Y-16256564D01*
X3865436Y-16242279D01*
X3851150Y-16227993D01*
X3836864Y-16199421D01*
X3822578Y-16142279D01*
X3822578Y-16070850D01*
X3836864Y-16013707D01*
X3851150Y-15985136D01*
X3865436Y-15970850D01*
X3894007Y-15956564D01*
X4122578Y-16256564D02*
X4122578Y-16056564D01*
X4122578Y-16085136D02*
X4136864Y-16070850D01*
X4165436Y-16056564D01*
X4208293Y-16056564D01*
X4236864Y-16070850D01*
X4251150Y-16099421D01*
X4251150Y-16256564D01*
X4251150Y-16099421D02*
X4265436Y-16070850D01*
X4294007Y-16056564D01*
X4336864Y-16056564D01*
X4365436Y-16070850D01*
X4379721Y-16099421D01*
X4379721Y-16256564D01*
X4522579Y-16256564D02*
X4522579Y-16056564D01*
X4522579Y-16085136D02*
X4536864Y-16070850D01*
X4565436Y-16056564D01*
X4608293Y-16056564D01*
X4636864Y-16070850D01*
X4651150Y-16099421D01*
X4651150Y-16256564D01*
X4651150Y-16099421D02*
X4665436Y-16070850D01*
X4694007Y-16056564D01*
X4736864Y-16056564D01*
X4765436Y-16070850D01*
X4779721Y-16099421D01*
X4779721Y-16256564D01*
X5365436Y-15942279D02*
X5108293Y-16327993D01*
X5751150Y-15956564D02*
X5779721Y-15956564D01*
X5808293Y-15970850D01*
X5822578Y-15985136D01*
X5836864Y-16013707D01*
X5851150Y-16070850D01*
X5851150Y-16142279D01*
X5836864Y-16199421D01*
X5822578Y-16227993D01*
X5808293Y-16242279D01*
X5779721Y-16256564D01*
X5751150Y-16256564D01*
X5722578Y-16242279D01*
X5708293Y-16227993D01*
X5694007Y-16199421D01*
X5679721Y-16142279D01*
X5679721Y-16070850D01*
X5694007Y-16013707D01*
X5708293Y-15985136D01*
X5722578Y-15970850D01*
X5751150Y-15956564D01*
X5979721Y-16227993D02*
X5994007Y-16242279D01*
X5979721Y-16256564D01*
X5965436Y-16242279D01*
X5979721Y-16227993D01*
X5979721Y-16256564D01*
X6179721Y-15956564D02*
X6208293Y-15956564D01*
X6236864Y-15970850D01*
X6251150Y-15985136D01*
X6265435Y-16013707D01*
X6279721Y-16070850D01*
X6279721Y-16142279D01*
X6265435Y-16199421D01*
X6251150Y-16227993D01*
X6236864Y-16242279D01*
X6208293Y-16256564D01*
X6179721Y-16256564D01*
X6151150Y-16242279D01*
X6136864Y-16227993D01*
X6122578Y-16199421D01*
X6108293Y-16142279D01*
X6108293Y-16070850D01*
X6122578Y-16013707D01*
X6136864Y-15985136D01*
X6151150Y-15970850D01*
X6179721Y-15956564D01*
X6379721Y-15956564D02*
X6565435Y-15956564D01*
X6465435Y-16070850D01*
X6508293Y-16070850D01*
X6536864Y-16085136D01*
X6551150Y-16099421D01*
X6565435Y-16127993D01*
X6565435Y-16199421D01*
X6551150Y-16227993D01*
X6536864Y-16242279D01*
X6508293Y-16256564D01*
X6422578Y-16256564D01*
X6394007Y-16242279D01*
X6379721Y-16227993D01*
X6851150Y-16256564D02*
X6679721Y-16256564D01*
X6765435Y-16256564D02*
X6765435Y-15956564D01*
X6736864Y-15999421D01*
X6708293Y-16027993D01*
X6679721Y-16042279D01*
X6965436Y-15956564D02*
X6965436Y-16013707D01*
X7079721Y-15956564D02*
X7079721Y-16013707D01*
X7522578Y-16370850D02*
X7508293Y-16356564D01*
X7479721Y-16313707D01*
X7465435Y-16285136D01*
X7451150Y-16242279D01*
X7436864Y-16170850D01*
X7436864Y-16113707D01*
X7451150Y-16042279D01*
X7465435Y-15999421D01*
X7479721Y-15970850D01*
X7508293Y-15927993D01*
X7522578Y-15913707D01*
X7622578Y-15985136D02*
X7636864Y-15970850D01*
X7665435Y-15956564D01*
X7736864Y-15956564D01*
X7765435Y-15970850D01*
X7779721Y-15985136D01*
X7794007Y-16013707D01*
X7794007Y-16042279D01*
X7779721Y-16085136D01*
X7608293Y-16256564D01*
X7794007Y-16256564D01*
X8151150Y-16256564D02*
X8151150Y-15956564D01*
X8279721Y-16256564D02*
X8279721Y-16099421D01*
X8265435Y-16070850D01*
X8236864Y-16056564D01*
X8194007Y-16056564D01*
X8165435Y-16070850D01*
X8151150Y-16085136D01*
X8465436Y-16256564D02*
X8436864Y-16242279D01*
X8422578Y-16227993D01*
X8408293Y-16199421D01*
X8408293Y-16113707D01*
X8422578Y-16085136D01*
X8436864Y-16070850D01*
X8465436Y-16056564D01*
X8508293Y-16056564D01*
X8536864Y-16070850D01*
X8551150Y-16085136D01*
X8565436Y-16113707D01*
X8565436Y-16199421D01*
X8551150Y-16227993D01*
X8536864Y-16242279D01*
X8508293Y-16256564D01*
X8465436Y-16256564D01*
X8736864Y-16256564D02*
X8708293Y-16242279D01*
X8694007Y-16213707D01*
X8694007Y-15956564D01*
X8965436Y-16242279D02*
X8936864Y-16256564D01*
X8879721Y-16256564D01*
X8851150Y-16242279D01*
X8836864Y-16213707D01*
X8836864Y-16099421D01*
X8851150Y-16070850D01*
X8879721Y-16056564D01*
X8936864Y-16056564D01*
X8965436Y-16070850D01*
X8979721Y-16099421D01*
X8979721Y-16127993D01*
X8836864Y-16156564D01*
X9094007Y-16242279D02*
X9122579Y-16256564D01*
X9179721Y-16256564D01*
X9208293Y-16242279D01*
X9222579Y-16213707D01*
X9222579Y-16199421D01*
X9208293Y-16170850D01*
X9179721Y-16156564D01*
X9136864Y-16156564D01*
X9108293Y-16142279D01*
X9094007Y-16113707D01*
X9094007Y-16099421D01*
X9108293Y-16070850D01*
X9136864Y-16056564D01*
X9179721Y-16056564D01*
X9208293Y-16070850D01*
X9322578Y-16370850D02*
X9336864Y-16356564D01*
X9365436Y-16313707D01*
X9379721Y-16285136D01*
X9394007Y-16242279D01*
X9408293Y-16170850D01*
X9408293Y-16113707D01*
X9394007Y-16042279D01*
X9379721Y-15999421D01*
X9365436Y-15970850D01*
X9336864Y-15927993D01*
X9322578Y-15913707D01*
X9865436Y-16370850D02*
X9851150Y-16356564D01*
X9822578Y-16313707D01*
X9808293Y-16285136D01*
X9794007Y-16242279D01*
X9779721Y-16170850D01*
X9779721Y-16113707D01*
X9794007Y-16042279D01*
X9808293Y-15999421D01*
X9822578Y-15970850D01*
X9851150Y-15927993D01*
X9865436Y-15913707D01*
X9979721Y-16056564D02*
X9979721Y-16256564D01*
X9979721Y-16085136D02*
X9994007Y-16070850D01*
X10022578Y-16056564D01*
X10065436Y-16056564D01*
X10094007Y-16070850D01*
X10108293Y-16099421D01*
X10108293Y-16256564D01*
X10294007Y-16256564D02*
X10265436Y-16242279D01*
X10251150Y-16227993D01*
X10236864Y-16199421D01*
X10236864Y-16113707D01*
X10251150Y-16085136D01*
X10265436Y-16070850D01*
X10294007Y-16056564D01*
X10336864Y-16056564D01*
X10365436Y-16070850D01*
X10379721Y-16085136D01*
X10394007Y-16113707D01*
X10394007Y-16199421D01*
X10379721Y-16227993D01*
X10365436Y-16242279D01*
X10336864Y-16256564D01*
X10294007Y-16256564D01*
X10479721Y-16056564D02*
X10594007Y-16056564D01*
X10522579Y-15956564D02*
X10522579Y-16213707D01*
X10536864Y-16242279D01*
X10565436Y-16256564D01*
X10594007Y-16256564D01*
X10922579Y-16056564D02*
X10922579Y-16356564D01*
X10922579Y-16070850D02*
X10951150Y-16056564D01*
X11008293Y-16056564D01*
X11036864Y-16070850D01*
X11051150Y-16085136D01*
X11065436Y-16113707D01*
X11065436Y-16199421D01*
X11051150Y-16227993D01*
X11036864Y-16242279D01*
X11008293Y-16256564D01*
X10951150Y-16256564D01*
X10922579Y-16242279D01*
X11236864Y-16256564D02*
X11208293Y-16242279D01*
X11194007Y-16213707D01*
X11194007Y-15956564D01*
X11479721Y-16256564D02*
X11479721Y-16099421D01*
X11465436Y-16070850D01*
X11436864Y-16056564D01*
X11379721Y-16056564D01*
X11351150Y-16070850D01*
X11479721Y-16242279D02*
X11451150Y-16256564D01*
X11379721Y-16256564D01*
X11351150Y-16242279D01*
X11336864Y-16213707D01*
X11336864Y-16185136D01*
X11351150Y-16156564D01*
X11379721Y-16142279D01*
X11451150Y-16142279D01*
X11479721Y-16127993D01*
X11579721Y-16056564D02*
X11694007Y-16056564D01*
X11622579Y-15956564D02*
X11622579Y-16213707D01*
X11636864Y-16242279D01*
X11665436Y-16256564D01*
X11694007Y-16256564D01*
X11908293Y-16242279D02*
X11879721Y-16256564D01*
X11822579Y-16256564D01*
X11794007Y-16242279D01*
X11779721Y-16213707D01*
X11779721Y-16099421D01*
X11794007Y-16070850D01*
X11822579Y-16056564D01*
X11879721Y-16056564D01*
X11908293Y-16070850D01*
X11922579Y-16099421D01*
X11922579Y-16127993D01*
X11779721Y-16156564D01*
X12179721Y-16256564D02*
X12179721Y-15956564D01*
X12179721Y-16242279D02*
X12151150Y-16256564D01*
X12094007Y-16256564D01*
X12065436Y-16242279D01*
X12051150Y-16227993D01*
X12036864Y-16199421D01*
X12036864Y-16113707D01*
X12051150Y-16085136D01*
X12065436Y-16070850D01*
X12094007Y-16056564D01*
X12151150Y-16056564D01*
X12179721Y-16070850D01*
X12294007Y-16370850D02*
X12308293Y-16356564D01*
X12336864Y-16313707D01*
X12351150Y-16285136D01*
X12365436Y-16242279D01*
X12379721Y-16170850D01*
X12379721Y-16113707D01*
X12365436Y-16042279D01*
X12351150Y-15999421D01*
X12336864Y-15970850D01*
X12308293Y-15927993D01*
X12294007Y-15913707D01*
X2546350Y-16364450D02*
X2851150Y-16669250D01*
X2851150Y-16364450D02*
X2546350Y-16669250D01*
X2698750Y-16669250D02*
X2851150Y-16516850D01*
X2698750Y-16364450D01*
X2546350Y-16516850D01*
X2698750Y-16669250D01*
X3094007Y-16352564D02*
X3279721Y-16352564D01*
X3179721Y-16466850D01*
X3222578Y-16466850D01*
X3251150Y-16481136D01*
X3265436Y-16495421D01*
X3279721Y-16523993D01*
X3279721Y-16595421D01*
X3265436Y-16623993D01*
X3251150Y-16638279D01*
X3222578Y-16652564D01*
X3136864Y-16652564D01*
X3108293Y-16638279D01*
X3094007Y-16623993D01*
X3408293Y-16623993D02*
X3422578Y-16638279D01*
X3408293Y-16652564D01*
X3394007Y-16638279D01*
X3408293Y-16623993D01*
X3408293Y-16652564D01*
X3608293Y-16352564D02*
X3636864Y-16352564D01*
X3665436Y-16366850D01*
X3679721Y-16381136D01*
X3694007Y-16409707D01*
X3708293Y-16466850D01*
X3708293Y-16538279D01*
X3694007Y-16595421D01*
X3679721Y-16623993D01*
X3665436Y-16638279D01*
X3636864Y-16652564D01*
X3608293Y-16652564D01*
X3579721Y-16638279D01*
X3565436Y-16623993D01*
X3551150Y-16595421D01*
X3536864Y-16538279D01*
X3536864Y-16466850D01*
X3551150Y-16409707D01*
X3565436Y-16381136D01*
X3579721Y-16366850D01*
X3608293Y-16352564D01*
X3979721Y-16352564D02*
X3836864Y-16352564D01*
X3822578Y-16495421D01*
X3836864Y-16481136D01*
X3865436Y-16466850D01*
X3936864Y-16466850D01*
X3965436Y-16481136D01*
X3979721Y-16495421D01*
X3994007Y-16523993D01*
X3994007Y-16595421D01*
X3979721Y-16623993D01*
X3965436Y-16638279D01*
X3936864Y-16652564D01*
X3865436Y-16652564D01*
X3836864Y-16638279D01*
X3822578Y-16623993D01*
X4122578Y-16652564D02*
X4122578Y-16452564D01*
X4122578Y-16481136D02*
X4136864Y-16466850D01*
X4165436Y-16452564D01*
X4208293Y-16452564D01*
X4236864Y-16466850D01*
X4251150Y-16495421D01*
X4251150Y-16652564D01*
X4251150Y-16495421D02*
X4265436Y-16466850D01*
X4294007Y-16452564D01*
X4336864Y-16452564D01*
X4365436Y-16466850D01*
X4379721Y-16495421D01*
X4379721Y-16652564D01*
X4522579Y-16652564D02*
X4522579Y-16452564D01*
X4522579Y-16481136D02*
X4536864Y-16466850D01*
X4565436Y-16452564D01*
X4608293Y-16452564D01*
X4636864Y-16466850D01*
X4651150Y-16495421D01*
X4651150Y-16652564D01*
X4651150Y-16495421D02*
X4665436Y-16466850D01*
X4694007Y-16452564D01*
X4736864Y-16452564D01*
X4765436Y-16466850D01*
X4779721Y-16495421D01*
X4779721Y-16652564D01*
X5365436Y-16338279D02*
X5108293Y-16723993D01*
X5751150Y-16352564D02*
X5779721Y-16352564D01*
X5808293Y-16366850D01*
X5822578Y-16381136D01*
X5836864Y-16409707D01*
X5851150Y-16466850D01*
X5851150Y-16538279D01*
X5836864Y-16595421D01*
X5822578Y-16623993D01*
X5808293Y-16638279D01*
X5779721Y-16652564D01*
X5751150Y-16652564D01*
X5722578Y-16638279D01*
X5708293Y-16623993D01*
X5694007Y-16595421D01*
X5679721Y-16538279D01*
X5679721Y-16466850D01*
X5694007Y-16409707D01*
X5708293Y-16381136D01*
X5722578Y-16366850D01*
X5751150Y-16352564D01*
X5979721Y-16623993D02*
X5994007Y-16638279D01*
X5979721Y-16652564D01*
X5965436Y-16638279D01*
X5979721Y-16623993D01*
X5979721Y-16652564D01*
X6279721Y-16652564D02*
X6108293Y-16652564D01*
X6194007Y-16652564D02*
X6194007Y-16352564D01*
X6165435Y-16395421D01*
X6136864Y-16423993D01*
X6108293Y-16438279D01*
X6394007Y-16381136D02*
X6408293Y-16366850D01*
X6436864Y-16352564D01*
X6508293Y-16352564D01*
X6536864Y-16366850D01*
X6551150Y-16381136D01*
X6565435Y-16409707D01*
X6565435Y-16438279D01*
X6551150Y-16481136D01*
X6379721Y-16652564D01*
X6565435Y-16652564D01*
X6751150Y-16352564D02*
X6779721Y-16352564D01*
X6808293Y-16366850D01*
X6822578Y-16381136D01*
X6836864Y-16409707D01*
X6851150Y-16466850D01*
X6851150Y-16538279D01*
X6836864Y-16595421D01*
X6822578Y-16623993D01*
X6808293Y-16638279D01*
X6779721Y-16652564D01*
X6751150Y-16652564D01*
X6722578Y-16638279D01*
X6708293Y-16623993D01*
X6694007Y-16595421D01*
X6679721Y-16538279D01*
X6679721Y-16466850D01*
X6694007Y-16409707D01*
X6708293Y-16381136D01*
X6722578Y-16366850D01*
X6751150Y-16352564D01*
X6965436Y-16352564D02*
X6965436Y-16409707D01*
X7079721Y-16352564D02*
X7079721Y-16409707D01*
X7522578Y-16766850D02*
X7508293Y-16752564D01*
X7479721Y-16709707D01*
X7465435Y-16681136D01*
X7451150Y-16638279D01*
X7436864Y-16566850D01*
X7436864Y-16509707D01*
X7451150Y-16438279D01*
X7465435Y-16395421D01*
X7479721Y-16366850D01*
X7508293Y-16323993D01*
X7522578Y-16309707D01*
X7794007Y-16652564D02*
X7622578Y-16652564D01*
X7708293Y-16652564D02*
X7708293Y-16352564D01*
X7679721Y-16395421D01*
X7651150Y-16423993D01*
X7622578Y-16438279D01*
X8065435Y-16352564D02*
X7922578Y-16352564D01*
X7908293Y-16495421D01*
X7922578Y-16481136D01*
X7951150Y-16466850D01*
X8022578Y-16466850D01*
X8051150Y-16481136D01*
X8065435Y-16495421D01*
X8079721Y-16523993D01*
X8079721Y-16595421D01*
X8065435Y-16623993D01*
X8051150Y-16638279D01*
X8022578Y-16652564D01*
X7951150Y-16652564D01*
X7922578Y-16638279D01*
X7908293Y-16623993D01*
X8436864Y-16652564D02*
X8436864Y-16352564D01*
X8565436Y-16652564D02*
X8565436Y-16495421D01*
X8551150Y-16466850D01*
X8522578Y-16452564D01*
X8479721Y-16452564D01*
X8451150Y-16466850D01*
X8436864Y-16481136D01*
X8751150Y-16652564D02*
X8722578Y-16638279D01*
X8708293Y-16623993D01*
X8694007Y-16595421D01*
X8694007Y-16509707D01*
X8708293Y-16481136D01*
X8722578Y-16466850D01*
X8751150Y-16452564D01*
X8794007Y-16452564D01*
X8822578Y-16466850D01*
X8836864Y-16481136D01*
X8851150Y-16509707D01*
X8851150Y-16595421D01*
X8836864Y-16623993D01*
X8822578Y-16638279D01*
X8794007Y-16652564D01*
X8751150Y-16652564D01*
X9022578Y-16652564D02*
X8994007Y-16638279D01*
X8979721Y-16609707D01*
X8979721Y-16352564D01*
X9251150Y-16638279D02*
X9222579Y-16652564D01*
X9165436Y-16652564D01*
X9136864Y-16638279D01*
X9122579Y-16609707D01*
X9122579Y-16495421D01*
X9136864Y-16466850D01*
X9165436Y-16452564D01*
X9222579Y-16452564D01*
X9251150Y-16466850D01*
X9265436Y-16495421D01*
X9265436Y-16523993D01*
X9122579Y-16552564D01*
X9379721Y-16638279D02*
X9408293Y-16652564D01*
X9465436Y-16652564D01*
X9494007Y-16638279D01*
X9508293Y-16609707D01*
X9508293Y-16595421D01*
X9494007Y-16566850D01*
X9465436Y-16552564D01*
X9422579Y-16552564D01*
X9394007Y-16538279D01*
X9379721Y-16509707D01*
X9379721Y-16495421D01*
X9394007Y-16466850D01*
X9422579Y-16452564D01*
X9465436Y-16452564D01*
X9494007Y-16466850D01*
X9608293Y-16766850D02*
X9622579Y-16752564D01*
X9651150Y-16709707D01*
X9665436Y-16681136D01*
X9679721Y-16638279D01*
X9694007Y-16566850D01*
X9694007Y-16509707D01*
X9679721Y-16438279D01*
X9665436Y-16395421D01*
X9651150Y-16366850D01*
X9622579Y-16323993D01*
X9608293Y-16309707D01*
X10151150Y-16766850D02*
X10136864Y-16752564D01*
X10108293Y-16709707D01*
X10094007Y-16681136D01*
X10079721Y-16638279D01*
X10065436Y-16566850D01*
X10065436Y-16509707D01*
X10079721Y-16438279D01*
X10094007Y-16395421D01*
X10108293Y-16366850D01*
X10136864Y-16323993D01*
X10151150Y-16309707D01*
X10265436Y-16452564D02*
X10265436Y-16652564D01*
X10265436Y-16481136D02*
X10279721Y-16466850D01*
X10308293Y-16452564D01*
X10351150Y-16452564D01*
X10379721Y-16466850D01*
X10394007Y-16495421D01*
X10394007Y-16652564D01*
X10579721Y-16652564D02*
X10551150Y-16638279D01*
X10536864Y-16623993D01*
X10522579Y-16595421D01*
X10522579Y-16509707D01*
X10536864Y-16481136D01*
X10551150Y-16466850D01*
X10579721Y-16452564D01*
X10622579Y-16452564D01*
X10651150Y-16466850D01*
X10665436Y-16481136D01*
X10679721Y-16509707D01*
X10679721Y-16595421D01*
X10665436Y-16623993D01*
X10651150Y-16638279D01*
X10622579Y-16652564D01*
X10579721Y-16652564D01*
X10765436Y-16452564D02*
X10879721Y-16452564D01*
X10808293Y-16352564D02*
X10808293Y-16609707D01*
X10822579Y-16638279D01*
X10851150Y-16652564D01*
X10879721Y-16652564D01*
X11208293Y-16452564D02*
X11208293Y-16752564D01*
X11208293Y-16466850D02*
X11236864Y-16452564D01*
X11294007Y-16452564D01*
X11322578Y-16466850D01*
X11336864Y-16481136D01*
X11351150Y-16509707D01*
X11351150Y-16595421D01*
X11336864Y-16623993D01*
X11322578Y-16638279D01*
X11294007Y-16652564D01*
X11236864Y-16652564D01*
X11208293Y-16638279D01*
X11522578Y-16652564D02*
X11494007Y-16638279D01*
X11479721Y-16609707D01*
X11479721Y-16352564D01*
X11765436Y-16652564D02*
X11765436Y-16495421D01*
X11751150Y-16466850D01*
X11722579Y-16452564D01*
X11665436Y-16452564D01*
X11636864Y-16466850D01*
X11765436Y-16638279D02*
X11736864Y-16652564D01*
X11665436Y-16652564D01*
X11636864Y-16638279D01*
X11622579Y-16609707D01*
X11622579Y-16581136D01*
X11636864Y-16552564D01*
X11665436Y-16538279D01*
X11736864Y-16538279D01*
X11765436Y-16523993D01*
X11865436Y-16452564D02*
X11979721Y-16452564D01*
X11908293Y-16352564D02*
X11908293Y-16609707D01*
X11922579Y-16638279D01*
X11951150Y-16652564D01*
X11979721Y-16652564D01*
X12194007Y-16638279D02*
X12165436Y-16652564D01*
X12108293Y-16652564D01*
X12079721Y-16638279D01*
X12065436Y-16609707D01*
X12065436Y-16495421D01*
X12079721Y-16466850D01*
X12108293Y-16452564D01*
X12165436Y-16452564D01*
X12194007Y-16466850D01*
X12208293Y-16495421D01*
X12208293Y-16523993D01*
X12065436Y-16552564D01*
X12465436Y-16652564D02*
X12465436Y-16352564D01*
X12465436Y-16638279D02*
X12436864Y-16652564D01*
X12379721Y-16652564D01*
X12351150Y-16638279D01*
X12336864Y-16623993D01*
X12322579Y-16595421D01*
X12322579Y-16509707D01*
X12336864Y-16481136D01*
X12351150Y-16466850D01*
X12379721Y-16452564D01*
X12436864Y-16452564D01*
X12465436Y-16466850D01*
X12579721Y-16766850D02*
X12594007Y-16752564D01*
X12622579Y-16709707D01*
X12636864Y-16681136D01*
X12651150Y-16638279D01*
X12665436Y-16566850D01*
X12665436Y-16509707D01*
X12651150Y-16438279D01*
X12636864Y-16395421D01*
X12622579Y-16366850D01*
X12594007Y-16323993D01*
X12579721Y-16309707D01*
X2651760Y-16752260D02*
X2651760Y-17151040D01*
X2452370Y-16951650D02*
X2851150Y-16951650D01*
X2851150Y-16951650D02*
G75*
G03X2851150Y-16951650I-199390J0D01*
G01*
X3094007Y-16787364D02*
X3279721Y-16787364D01*
X3179721Y-16901650D01*
X3222578Y-16901650D01*
X3251150Y-16915936D01*
X3265436Y-16930222D01*
X3279721Y-16958793D01*
X3279721Y-17030222D01*
X3265436Y-17058793D01*
X3251150Y-17073079D01*
X3222578Y-17087364D01*
X3136864Y-17087364D01*
X3108293Y-17073079D01*
X3094007Y-17058793D01*
X3408293Y-17058793D02*
X3422578Y-17073079D01*
X3408293Y-17087364D01*
X3394007Y-17073079D01*
X3408293Y-17058793D01*
X3408293Y-17087364D01*
X3565436Y-17087364D02*
X3622578Y-17087364D01*
X3651150Y-17073079D01*
X3665436Y-17058793D01*
X3694007Y-17015936D01*
X3708293Y-16958793D01*
X3708293Y-16844507D01*
X3694007Y-16815936D01*
X3679721Y-16801650D01*
X3651150Y-16787364D01*
X3594007Y-16787364D01*
X3565436Y-16801650D01*
X3551150Y-16815936D01*
X3536864Y-16844507D01*
X3536864Y-16915936D01*
X3551150Y-16944507D01*
X3565436Y-16958793D01*
X3594007Y-16973079D01*
X3651150Y-16973079D01*
X3679721Y-16958793D01*
X3694007Y-16944507D01*
X3708293Y-16915936D01*
X3851150Y-17087364D02*
X3908293Y-17087364D01*
X3936864Y-17073079D01*
X3951150Y-17058793D01*
X3979721Y-17015936D01*
X3994007Y-16958793D01*
X3994007Y-16844507D01*
X3979721Y-16815936D01*
X3965436Y-16801650D01*
X3936864Y-16787364D01*
X3879721Y-16787364D01*
X3851150Y-16801650D01*
X3836864Y-16815936D01*
X3822578Y-16844507D01*
X3822578Y-16915936D01*
X3836864Y-16944507D01*
X3851150Y-16958793D01*
X3879721Y-16973079D01*
X3936864Y-16973079D01*
X3965436Y-16958793D01*
X3979721Y-16944507D01*
X3994007Y-16915936D01*
X4122578Y-17087364D02*
X4122578Y-16887364D01*
X4122578Y-16915936D02*
X4136864Y-16901650D01*
X4165436Y-16887364D01*
X4208293Y-16887364D01*
X4236864Y-16901650D01*
X4251150Y-16930222D01*
X4251150Y-17087364D01*
X4251150Y-16930222D02*
X4265436Y-16901650D01*
X4294007Y-16887364D01*
X4336864Y-16887364D01*
X4365436Y-16901650D01*
X4379721Y-16930222D01*
X4379721Y-17087364D01*
X4522579Y-17087364D02*
X4522579Y-16887364D01*
X4522579Y-16915936D02*
X4536864Y-16901650D01*
X4565436Y-16887364D01*
X4608293Y-16887364D01*
X4636864Y-16901650D01*
X4651150Y-16930222D01*
X4651150Y-17087364D01*
X4651150Y-16930222D02*
X4665436Y-16901650D01*
X4694007Y-16887364D01*
X4736864Y-16887364D01*
X4765436Y-16901650D01*
X4779721Y-16930222D01*
X4779721Y-17087364D01*
X5365436Y-16773079D02*
X5108293Y-17158793D01*
X5751150Y-16787364D02*
X5779721Y-16787364D01*
X5808293Y-16801650D01*
X5822578Y-16815936D01*
X5836864Y-16844507D01*
X5851150Y-16901650D01*
X5851150Y-16973079D01*
X5836864Y-17030222D01*
X5822578Y-17058793D01*
X5808293Y-17073079D01*
X5779721Y-17087364D01*
X5751150Y-17087364D01*
X5722578Y-17073079D01*
X5708293Y-17058793D01*
X5694007Y-17030222D01*
X5679721Y-16973079D01*
X5679721Y-16901650D01*
X5694007Y-16844507D01*
X5708293Y-16815936D01*
X5722578Y-16801650D01*
X5751150Y-16787364D01*
X5979721Y-17058793D02*
X5994007Y-17073079D01*
X5979721Y-17087364D01*
X5965436Y-17073079D01*
X5979721Y-17058793D01*
X5979721Y-17087364D01*
X6279721Y-17087364D02*
X6108293Y-17087364D01*
X6194007Y-17087364D02*
X6194007Y-16787364D01*
X6165435Y-16830222D01*
X6136864Y-16858793D01*
X6108293Y-16873079D01*
X6551150Y-16787364D02*
X6408293Y-16787364D01*
X6394007Y-16930222D01*
X6408293Y-16915936D01*
X6436864Y-16901650D01*
X6508293Y-16901650D01*
X6536864Y-16915936D01*
X6551150Y-16930222D01*
X6565435Y-16958793D01*
X6565435Y-17030222D01*
X6551150Y-17058793D01*
X6536864Y-17073079D01*
X6508293Y-17087364D01*
X6436864Y-17087364D01*
X6408293Y-17073079D01*
X6394007Y-17058793D01*
X6665435Y-16787364D02*
X6865435Y-16787364D01*
X6736864Y-17087364D01*
X6965436Y-16787364D02*
X6965436Y-16844507D01*
X7079721Y-16787364D02*
X7079721Y-16844507D01*
X7522578Y-17201650D02*
X7508293Y-17187364D01*
X7479721Y-17144507D01*
X7465435Y-17115936D01*
X7451150Y-17073079D01*
X7436864Y-17001650D01*
X7436864Y-16944507D01*
X7451150Y-16873079D01*
X7465435Y-16830222D01*
X7479721Y-16801650D01*
X7508293Y-16758793D01*
X7522578Y-16744507D01*
X7794007Y-17087364D02*
X7622578Y-17087364D01*
X7708293Y-17087364D02*
X7708293Y-16787364D01*
X7679721Y-16830222D01*
X7651150Y-16858793D01*
X7622578Y-16873079D01*
X8065435Y-16787364D02*
X7922578Y-16787364D01*
X7908293Y-16930222D01*
X7922578Y-16915936D01*
X7951150Y-16901650D01*
X8022578Y-16901650D01*
X8051150Y-16915936D01*
X8065435Y-16930222D01*
X8079721Y-16958793D01*
X8079721Y-17030222D01*
X8065435Y-17058793D01*
X8051150Y-17073079D01*
X8022578Y-17087364D01*
X7951150Y-17087364D01*
X7922578Y-17073079D01*
X7908293Y-17058793D01*
X8436864Y-17087364D02*
X8436864Y-16787364D01*
X8565436Y-17087364D02*
X8565436Y-16930222D01*
X8551150Y-16901650D01*
X8522578Y-16887364D01*
X8479721Y-16887364D01*
X8451150Y-16901650D01*
X8436864Y-16915936D01*
X8751150Y-17087364D02*
X8722578Y-17073079D01*
X8708293Y-17058793D01*
X8694007Y-17030222D01*
X8694007Y-16944507D01*
X8708293Y-16915936D01*
X8722578Y-16901650D01*
X8751150Y-16887364D01*
X8794007Y-16887364D01*
X8822578Y-16901650D01*
X8836864Y-16915936D01*
X8851150Y-16944507D01*
X8851150Y-17030222D01*
X8836864Y-17058793D01*
X8822578Y-17073079D01*
X8794007Y-17087364D01*
X8751150Y-17087364D01*
X9022578Y-17087364D02*
X8994007Y-17073079D01*
X8979721Y-17044507D01*
X8979721Y-16787364D01*
X9251150Y-17073079D02*
X9222579Y-17087364D01*
X9165436Y-17087364D01*
X9136864Y-17073079D01*
X9122579Y-17044507D01*
X9122579Y-16930222D01*
X9136864Y-16901650D01*
X9165436Y-16887364D01*
X9222579Y-16887364D01*
X9251150Y-16901650D01*
X9265436Y-16930222D01*
X9265436Y-16958793D01*
X9122579Y-16987364D01*
X9379721Y-17073079D02*
X9408293Y-17087364D01*
X9465436Y-17087364D01*
X9494007Y-17073079D01*
X9508293Y-17044507D01*
X9508293Y-17030222D01*
X9494007Y-17001650D01*
X9465436Y-16987364D01*
X9422579Y-16987364D01*
X9394007Y-16973079D01*
X9379721Y-16944507D01*
X9379721Y-16930222D01*
X9394007Y-16901650D01*
X9422579Y-16887364D01*
X9465436Y-16887364D01*
X9494007Y-16901650D01*
X9608293Y-17201650D02*
X9622579Y-17187364D01*
X9651150Y-17144507D01*
X9665436Y-17115936D01*
X9679721Y-17073079D01*
X9694007Y-17001650D01*
X9694007Y-16944507D01*
X9679721Y-16873079D01*
X9665436Y-16830222D01*
X9651150Y-16801650D01*
X9622579Y-16758793D01*
X9608293Y-16744507D01*
X10151150Y-17201650D02*
X10136864Y-17187364D01*
X10108293Y-17144507D01*
X10094007Y-17115936D01*
X10079721Y-17073079D01*
X10065436Y-17001650D01*
X10065436Y-16944507D01*
X10079721Y-16873079D01*
X10094007Y-16830222D01*
X10108293Y-16801650D01*
X10136864Y-16758793D01*
X10151150Y-16744507D01*
X10265436Y-16887364D02*
X10265436Y-17087364D01*
X10265436Y-16915936D02*
X10279721Y-16901650D01*
X10308293Y-16887364D01*
X10351150Y-16887364D01*
X10379721Y-16901650D01*
X10394007Y-16930222D01*
X10394007Y-17087364D01*
X10579721Y-17087364D02*
X10551150Y-17073079D01*
X10536864Y-17058793D01*
X10522579Y-17030222D01*
X10522579Y-16944507D01*
X10536864Y-16915936D01*
X10551150Y-16901650D01*
X10579721Y-16887364D01*
X10622579Y-16887364D01*
X10651150Y-16901650D01*
X10665436Y-16915936D01*
X10679721Y-16944507D01*
X10679721Y-17030222D01*
X10665436Y-17058793D01*
X10651150Y-17073079D01*
X10622579Y-17087364D01*
X10579721Y-17087364D01*
X10765436Y-16887364D02*
X10879721Y-16887364D01*
X10808293Y-16787364D02*
X10808293Y-17044507D01*
X10822579Y-17073079D01*
X10851150Y-17087364D01*
X10879721Y-17087364D01*
X11208293Y-16887364D02*
X11208293Y-17187364D01*
X11208293Y-16901650D02*
X11236864Y-16887364D01*
X11294007Y-16887364D01*
X11322578Y-16901650D01*
X11336864Y-16915936D01*
X11351150Y-16944507D01*
X11351150Y-17030222D01*
X11336864Y-17058793D01*
X11322578Y-17073079D01*
X11294007Y-17087364D01*
X11236864Y-17087364D01*
X11208293Y-17073079D01*
X11522578Y-17087364D02*
X11494007Y-17073079D01*
X11479721Y-17044507D01*
X11479721Y-16787364D01*
X11765436Y-17087364D02*
X11765436Y-16930222D01*
X11751150Y-16901650D01*
X11722579Y-16887364D01*
X11665436Y-16887364D01*
X11636864Y-16901650D01*
X11765436Y-17073079D02*
X11736864Y-17087364D01*
X11665436Y-17087364D01*
X11636864Y-17073079D01*
X11622579Y-17044507D01*
X11622579Y-17015936D01*
X11636864Y-16987364D01*
X11665436Y-16973079D01*
X11736864Y-16973079D01*
X11765436Y-16958793D01*
X11865436Y-16887364D02*
X11979721Y-16887364D01*
X11908293Y-16787364D02*
X11908293Y-17044507D01*
X11922579Y-17073079D01*
X11951150Y-17087364D01*
X11979721Y-17087364D01*
X12194007Y-17073079D02*
X12165436Y-17087364D01*
X12108293Y-17087364D01*
X12079721Y-17073079D01*
X12065436Y-17044507D01*
X12065436Y-16930222D01*
X12079721Y-16901650D01*
X12108293Y-16887364D01*
X12165436Y-16887364D01*
X12194007Y-16901650D01*
X12208293Y-16930222D01*
X12208293Y-16958793D01*
X12065436Y-16987364D01*
X12465436Y-17087364D02*
X12465436Y-16787364D01*
X12465436Y-17073079D02*
X12436864Y-17087364D01*
X12379721Y-17087364D01*
X12351150Y-17073079D01*
X12336864Y-17058793D01*
X12322579Y-17030222D01*
X12322579Y-16944507D01*
X12336864Y-16915936D01*
X12351150Y-16901650D01*
X12379721Y-16887364D01*
X12436864Y-16887364D01*
X12465436Y-16901650D01*
X12579721Y-17201650D02*
X12594007Y-17187364D01*
X12622579Y-17144507D01*
X12636864Y-17115936D01*
X12651150Y-17073079D01*
X12665436Y-17001650D01*
X12665436Y-16944507D01*
X12651150Y-16873079D01*
X12636864Y-16830222D01*
X12622579Y-16801650D01*
X12594007Y-16758793D01*
X12579721Y-16744507D01*
M02*
