G04 #@! TF.FileFunction,Legend,Top*
%FSLAX46Y46*%
G04 Gerber Fmt 4.6, Leading zero omitted, Abs format (unit mm)*
G04 Created by KiCad (PCBNEW 4.0.6) date Tuesday, July 11, 2017 'PMt' 09:42:09 PM*
%MOMM*%
%LPD*%
G01*
G04 APERTURE LIST*
%ADD10C,0.150000*%
%ADD11C,1.270000*%
%ADD12C,0.381000*%
G04 APERTURE END LIST*
D10*
D11*
X105984524Y-38765238D02*
X106891667Y-39067619D01*
X108403571Y-39067619D01*
X109008333Y-38765238D01*
X109310714Y-38462857D01*
X109613095Y-37858095D01*
X109613095Y-37253333D01*
X109310714Y-36648571D01*
X109008333Y-36346190D01*
X108403571Y-36043810D01*
X107194048Y-35741429D01*
X106589286Y-35439048D01*
X106286905Y-35136667D01*
X105984524Y-34531905D01*
X105984524Y-33927143D01*
X106286905Y-33322381D01*
X106589286Y-33020000D01*
X107194048Y-32717619D01*
X108705952Y-32717619D01*
X109613095Y-33020000D01*
X112334524Y-39067619D02*
X112334524Y-32717619D01*
X114451190Y-37253333D01*
X116567857Y-32717619D01*
X116567857Y-39067619D01*
X119591667Y-39067619D02*
X119591667Y-32717619D01*
X123220238Y-39067619D02*
X120498810Y-35439048D01*
X123220238Y-32717619D02*
X119591667Y-36346190D01*
X128663095Y-32717619D02*
X127453572Y-32717619D01*
X126848810Y-33020000D01*
X126546429Y-33322381D01*
X125941667Y-34229524D01*
X125639286Y-35439048D01*
X125639286Y-37858095D01*
X125941667Y-38462857D01*
X126244048Y-38765238D01*
X126848810Y-39067619D01*
X128058333Y-39067619D01*
X128663095Y-38765238D01*
X128965476Y-38462857D01*
X129267857Y-37858095D01*
X129267857Y-36346190D01*
X128965476Y-35741429D01*
X128663095Y-35439048D01*
X128058333Y-35136667D01*
X126848810Y-35136667D01*
X126244048Y-35439048D01*
X125941667Y-35741429D01*
X125639286Y-36346190D01*
X135013095Y-32717619D02*
X131989286Y-32717619D01*
X131686905Y-35741429D01*
X131989286Y-35439048D01*
X132594048Y-35136667D01*
X134105952Y-35136667D01*
X134710714Y-35439048D01*
X135013095Y-35741429D01*
X135315476Y-36346190D01*
X135315476Y-37858095D01*
X135013095Y-38462857D01*
X134710714Y-38765238D01*
X134105952Y-39067619D01*
X132594048Y-39067619D01*
X131989286Y-38765238D01*
X131686905Y-38462857D01*
X146503571Y-39067619D02*
X144386905Y-36043810D01*
X142875000Y-39067619D02*
X142875000Y-32717619D01*
X145294047Y-32717619D01*
X145898809Y-33020000D01*
X146201190Y-33322381D01*
X146503571Y-33927143D01*
X146503571Y-34834286D01*
X146201190Y-35439048D01*
X145898809Y-35741429D01*
X145294047Y-36043810D01*
X142875000Y-36043810D01*
X151644047Y-38765238D02*
X151039285Y-39067619D01*
X149829762Y-39067619D01*
X149225000Y-38765238D01*
X148922619Y-38160476D01*
X148922619Y-35741429D01*
X149225000Y-35136667D01*
X149829762Y-34834286D01*
X151039285Y-34834286D01*
X151644047Y-35136667D01*
X151946428Y-35741429D01*
X151946428Y-36346190D01*
X148922619Y-36950952D01*
X154063095Y-34834286D02*
X155575000Y-39067619D01*
X157086904Y-34834286D01*
X159203571Y-37253333D02*
X162227380Y-37253333D01*
X158598809Y-39067619D02*
X160715476Y-32717619D01*
X162832142Y-39067619D01*
D12*
X296069000Y-60325000D02*
X297847000Y-60325000D01*
X306991000Y-60325000D02*
X308769000Y-60325000D01*
X308769000Y-60325000D02*
X308769000Y-62103000D01*
X308769000Y-71247000D02*
X308769000Y-73025000D01*
X308769000Y-73025000D02*
X306991000Y-73025000D01*
X297847000Y-73025000D02*
X296069000Y-73025000D01*
X296069000Y-73025000D02*
X296069000Y-71247000D01*
X296069000Y-62103000D02*
X296069000Y-60325000D01*
X239713000Y-101600000D02*
X237935000Y-101600000D01*
X228791000Y-101600000D02*
X227013000Y-101600000D01*
X227013000Y-101600000D02*
X227013000Y-99822000D01*
X227013000Y-90678000D02*
X227013000Y-88900000D01*
X227013000Y-88900000D02*
X228791000Y-88900000D01*
X237935000Y-88900000D02*
X239713000Y-88900000D01*
X239713000Y-88900000D02*
X239713000Y-90678000D01*
X239713000Y-99822000D02*
X239713000Y-101600000D01*
X46831200Y-120650000D02*
X45053200Y-120650000D01*
X35909200Y-120650000D02*
X34131200Y-120650000D01*
X34131200Y-120650000D02*
X34131200Y-118872000D01*
X34131200Y-109728000D02*
X34131200Y-107950000D01*
X34131200Y-107950000D02*
X35909200Y-107950000D01*
X45053200Y-107950000D02*
X46831200Y-107950000D01*
X46831200Y-107950000D02*
X46831200Y-109728000D01*
X46831200Y-118872000D02*
X46831200Y-120650000D01*
X49212500Y-63500000D02*
X47434500Y-63500000D01*
X38290500Y-63500000D02*
X36512500Y-63500000D01*
X36512500Y-63500000D02*
X36512500Y-61722000D01*
X36512500Y-52578000D02*
X36512500Y-50800000D01*
X36512500Y-50800000D02*
X38290500Y-50800000D01*
X47434500Y-50800000D02*
X49212500Y-50800000D01*
X49212500Y-50800000D02*
X49212500Y-52578000D01*
X49212500Y-61722000D02*
X49212500Y-63500000D01*
X51593800Y-82550000D02*
X49815800Y-82550000D01*
X40671800Y-82550000D02*
X38893800Y-82550000D01*
X38893800Y-82550000D02*
X38893800Y-80772000D01*
X38893800Y-71628000D02*
X38893800Y-69850000D01*
X38893800Y-69850000D02*
X40671800Y-69850000D01*
X49815800Y-69850000D02*
X51593800Y-69850000D01*
X51593800Y-69850000D02*
X51593800Y-71628000D01*
X51593800Y-80772000D02*
X51593800Y-82550000D01*
X308769000Y-82550000D02*
X306991000Y-82550000D01*
X297847000Y-82550000D02*
X296069000Y-82550000D01*
X296069000Y-82550000D02*
X296069000Y-80772000D01*
X296069000Y-71628000D02*
X296069000Y-69850000D01*
X296069000Y-69850000D02*
X297847000Y-69850000D01*
X306991000Y-69850000D02*
X308769000Y-69850000D01*
X308769000Y-69850000D02*
X308769000Y-71628000D01*
X308769000Y-80772000D02*
X308769000Y-82550000D01*
X284956000Y-101600000D02*
X283178000Y-101600000D01*
X274034000Y-101600000D02*
X272256000Y-101600000D01*
X272256000Y-101600000D02*
X272256000Y-99822000D01*
X272256000Y-90678000D02*
X272256000Y-88900000D01*
X272256000Y-88900000D02*
X274034000Y-88900000D01*
X283178000Y-88900000D02*
X284956000Y-88900000D01*
X284956000Y-88900000D02*
X284956000Y-90678000D01*
X284956000Y-99822000D02*
X284956000Y-101600000D01*
X70643800Y-120650000D02*
X68865800Y-120650000D01*
X59721800Y-120650000D02*
X57943800Y-120650000D01*
X57943800Y-120650000D02*
X57943800Y-118872000D01*
X57943800Y-109728000D02*
X57943800Y-107950000D01*
X57943800Y-107950000D02*
X59721800Y-107950000D01*
X68865800Y-107950000D02*
X70643800Y-107950000D01*
X70643800Y-107950000D02*
X70643800Y-109728000D01*
X70643800Y-118872000D02*
X70643800Y-120650000D01*
X94456000Y-120650000D02*
X92678000Y-120650000D01*
X83534000Y-120650000D02*
X81756000Y-120650000D01*
X81756000Y-120650000D02*
X81756000Y-118872000D01*
X81756000Y-109728000D02*
X81756000Y-107950000D01*
X81756000Y-107950000D02*
X83534000Y-107950000D01*
X92678000Y-107950000D02*
X94456000Y-107950000D01*
X94456000Y-107950000D02*
X94456000Y-109728000D01*
X94456000Y-118872000D02*
X94456000Y-120650000D01*
X330200000Y-120650000D02*
X328422000Y-120650000D01*
X319278000Y-120650000D02*
X317500000Y-120650000D01*
X317500000Y-120650000D02*
X317500000Y-118872000D01*
X317500000Y-109728000D02*
X317500000Y-107950000D01*
X317500000Y-107950000D02*
X319278000Y-107950000D01*
X328422000Y-107950000D02*
X330200000Y-107950000D01*
X330200000Y-107950000D02*
X330200000Y-109728000D01*
X330200000Y-118872000D02*
X330200000Y-120650000D01*
X311150000Y-120650000D02*
X309372000Y-120650000D01*
X300228000Y-120650000D02*
X298450000Y-120650000D01*
X298450000Y-120650000D02*
X298450000Y-118872000D01*
X298450000Y-109728000D02*
X298450000Y-107950000D01*
X298450000Y-107950000D02*
X300228000Y-107950000D01*
X309372000Y-107950000D02*
X311150000Y-107950000D01*
X311150000Y-107950000D02*
X311150000Y-109728000D01*
X311150000Y-118872000D02*
X311150000Y-120650000D01*
X292100000Y-120650000D02*
X290322000Y-120650000D01*
X281178000Y-120650000D02*
X279400000Y-120650000D01*
X279400000Y-120650000D02*
X279400000Y-118872000D01*
X279400000Y-109728000D02*
X279400000Y-107950000D01*
X279400000Y-107950000D02*
X281178000Y-107950000D01*
X290322000Y-107950000D02*
X292100000Y-107950000D01*
X292100000Y-107950000D02*
X292100000Y-109728000D01*
X292100000Y-118872000D02*
X292100000Y-120650000D01*
X273050000Y-120650000D02*
X271272000Y-120650000D01*
X262128000Y-120650000D02*
X260350000Y-120650000D01*
X260350000Y-120650000D02*
X260350000Y-118872000D01*
X260350000Y-109728000D02*
X260350000Y-107950000D01*
X260350000Y-107950000D02*
X262128000Y-107950000D01*
X271272000Y-107950000D02*
X273050000Y-107950000D01*
X273050000Y-107950000D02*
X273050000Y-109728000D01*
X273050000Y-118872000D02*
X273050000Y-120650000D01*
X254000000Y-120650000D02*
X252222000Y-120650000D01*
X243078000Y-120650000D02*
X241300000Y-120650000D01*
X241300000Y-120650000D02*
X241300000Y-118872000D01*
X241300000Y-109728000D02*
X241300000Y-107950000D01*
X241300000Y-107950000D02*
X243078000Y-107950000D01*
X252222000Y-107950000D02*
X254000000Y-107950000D01*
X254000000Y-107950000D02*
X254000000Y-109728000D01*
X254000000Y-118872000D02*
X254000000Y-120650000D01*
X222250000Y-107950000D02*
X224028000Y-107950000D01*
X233172000Y-107950000D02*
X234950000Y-107950000D01*
X234950000Y-107950000D02*
X234950000Y-109728000D01*
X234950000Y-118872000D02*
X234950000Y-120650000D01*
X234950000Y-120650000D02*
X233172000Y-120650000D01*
X224028000Y-120650000D02*
X222250000Y-120650000D01*
X222250000Y-120650000D02*
X222250000Y-118872000D01*
X222250000Y-109728000D02*
X222250000Y-107950000D01*
X293687000Y-50800000D02*
X295465000Y-50800000D01*
X304609000Y-50800000D02*
X306387000Y-50800000D01*
X306387000Y-50800000D02*
X306387000Y-52578000D01*
X306387000Y-61722000D02*
X306387000Y-63500000D01*
X306387000Y-63500000D02*
X304609000Y-63500000D01*
X295465000Y-63500000D02*
X293687000Y-63500000D01*
X293687000Y-63500000D02*
X293687000Y-61722000D01*
X293687000Y-52578000D02*
X293687000Y-50800000D01*
X330200000Y-44450000D02*
X328422000Y-44450000D01*
X319278000Y-44450000D02*
X317500000Y-44450000D01*
X317500000Y-44450000D02*
X317500000Y-42672000D01*
X317500000Y-33528000D02*
X317500000Y-31750000D01*
X317500000Y-31750000D02*
X319278000Y-31750000D01*
X328422000Y-31750000D02*
X330200000Y-31750000D01*
X330200000Y-31750000D02*
X330200000Y-33528000D01*
X330200000Y-42672000D02*
X330200000Y-44450000D01*
X44450000Y-44450000D02*
X42672000Y-44450000D01*
X33528000Y-44450000D02*
X31750000Y-44450000D01*
X31750000Y-44450000D02*
X31750000Y-42672000D01*
X31750000Y-33528000D02*
X31750000Y-31750000D01*
X31750000Y-31750000D02*
X33528000Y-31750000D01*
X42672000Y-31750000D02*
X44450000Y-31750000D01*
X44450000Y-31750000D02*
X44450000Y-33528000D01*
X44450000Y-42672000D02*
X44450000Y-44450000D01*
X82550000Y-44450000D02*
X80772000Y-44450000D01*
X71628000Y-44450000D02*
X69850000Y-44450000D01*
X69850000Y-44450000D02*
X69850000Y-42672000D01*
X69850000Y-33528000D02*
X69850000Y-31750000D01*
X69850000Y-31750000D02*
X71628000Y-31750000D01*
X80772000Y-31750000D02*
X82550000Y-31750000D01*
X82550000Y-31750000D02*
X82550000Y-33528000D01*
X82550000Y-42672000D02*
X82550000Y-44450000D01*
X101600000Y-44450000D02*
X99822000Y-44450000D01*
X90678000Y-44450000D02*
X88900000Y-44450000D01*
X88900000Y-44450000D02*
X88900000Y-42672000D01*
X88900000Y-33528000D02*
X88900000Y-31750000D01*
X88900000Y-31750000D02*
X90678000Y-31750000D01*
X99822000Y-31750000D02*
X101600000Y-31750000D01*
X101600000Y-31750000D02*
X101600000Y-33528000D01*
X101600000Y-42672000D02*
X101600000Y-44450000D01*
X120650000Y-44450000D02*
X118872000Y-44450000D01*
X109728000Y-44450000D02*
X107950000Y-44450000D01*
X107950000Y-44450000D02*
X107950000Y-42672000D01*
X107950000Y-33528000D02*
X107950000Y-31750000D01*
X107950000Y-31750000D02*
X109728000Y-31750000D01*
X118872000Y-31750000D02*
X120650000Y-31750000D01*
X120650000Y-31750000D02*
X120650000Y-33528000D01*
X120650000Y-42672000D02*
X120650000Y-44450000D01*
X139700000Y-44450000D02*
X137922000Y-44450000D01*
X128778000Y-44450000D02*
X127000000Y-44450000D01*
X127000000Y-44450000D02*
X127000000Y-42672000D01*
X127000000Y-33528000D02*
X127000000Y-31750000D01*
X127000000Y-31750000D02*
X128778000Y-31750000D01*
X137922000Y-31750000D02*
X139700000Y-31750000D01*
X139700000Y-31750000D02*
X139700000Y-33528000D01*
X139700000Y-42672000D02*
X139700000Y-44450000D01*
X158750000Y-44450000D02*
X156972000Y-44450000D01*
X147828000Y-44450000D02*
X146050000Y-44450000D01*
X146050000Y-44450000D02*
X146050000Y-42672000D01*
X146050000Y-33528000D02*
X146050000Y-31750000D01*
X146050000Y-31750000D02*
X147828000Y-31750000D01*
X156972000Y-31750000D02*
X158750000Y-31750000D01*
X158750000Y-31750000D02*
X158750000Y-33528000D01*
X158750000Y-42672000D02*
X158750000Y-44450000D01*
X177800000Y-44450000D02*
X176022000Y-44450000D01*
X166878000Y-44450000D02*
X165100000Y-44450000D01*
X165100000Y-44450000D02*
X165100000Y-42672000D01*
X165100000Y-33528000D02*
X165100000Y-31750000D01*
X165100000Y-31750000D02*
X166878000Y-31750000D01*
X176022000Y-31750000D02*
X177800000Y-31750000D01*
X177800000Y-31750000D02*
X177800000Y-33528000D01*
X177800000Y-42672000D02*
X177800000Y-44450000D01*
X196850000Y-44450000D02*
X195072000Y-44450000D01*
X185928000Y-44450000D02*
X184150000Y-44450000D01*
X184150000Y-44450000D02*
X184150000Y-42672000D01*
X184150000Y-33528000D02*
X184150000Y-31750000D01*
X184150000Y-31750000D02*
X185928000Y-31750000D01*
X195072000Y-31750000D02*
X196850000Y-31750000D01*
X196850000Y-31750000D02*
X196850000Y-33528000D01*
X196850000Y-42672000D02*
X196850000Y-44450000D01*
X215900000Y-44450000D02*
X214122000Y-44450000D01*
X204978000Y-44450000D02*
X203200000Y-44450000D01*
X203200000Y-44450000D02*
X203200000Y-42672000D01*
X203200000Y-33528000D02*
X203200000Y-31750000D01*
X203200000Y-31750000D02*
X204978000Y-31750000D01*
X214122000Y-31750000D02*
X215900000Y-31750000D01*
X215900000Y-31750000D02*
X215900000Y-33528000D01*
X215900000Y-42672000D02*
X215900000Y-44450000D01*
X234950000Y-44450000D02*
X233172000Y-44450000D01*
X224028000Y-44450000D02*
X222250000Y-44450000D01*
X222250000Y-44450000D02*
X222250000Y-42672000D01*
X222250000Y-33528000D02*
X222250000Y-31750000D01*
X222250000Y-31750000D02*
X224028000Y-31750000D01*
X233172000Y-31750000D02*
X234950000Y-31750000D01*
X234950000Y-31750000D02*
X234950000Y-33528000D01*
X234950000Y-42672000D02*
X234950000Y-44450000D01*
X254000000Y-44450000D02*
X252222000Y-44450000D01*
X243078000Y-44450000D02*
X241300000Y-44450000D01*
X241300000Y-44450000D02*
X241300000Y-42672000D01*
X241300000Y-33528000D02*
X241300000Y-31750000D01*
X241300000Y-31750000D02*
X243078000Y-31750000D01*
X252222000Y-31750000D02*
X254000000Y-31750000D01*
X254000000Y-31750000D02*
X254000000Y-33528000D01*
X254000000Y-42672000D02*
X254000000Y-44450000D01*
X273050000Y-44450000D02*
X271272000Y-44450000D01*
X262128000Y-44450000D02*
X260350000Y-44450000D01*
X260350000Y-44450000D02*
X260350000Y-42672000D01*
X260350000Y-33528000D02*
X260350000Y-31750000D01*
X260350000Y-31750000D02*
X262128000Y-31750000D01*
X271272000Y-31750000D02*
X273050000Y-31750000D01*
X273050000Y-31750000D02*
X273050000Y-33528000D01*
X273050000Y-42672000D02*
X273050000Y-44450000D01*
X292100000Y-44450000D02*
X290322000Y-44450000D01*
X281178000Y-44450000D02*
X279400000Y-44450000D01*
X279400000Y-44450000D02*
X279400000Y-42672000D01*
X279400000Y-33528000D02*
X279400000Y-31750000D01*
X279400000Y-31750000D02*
X281178000Y-31750000D01*
X290322000Y-31750000D02*
X292100000Y-31750000D01*
X292100000Y-31750000D02*
X292100000Y-33528000D01*
X292100000Y-42672000D02*
X292100000Y-44450000D01*
X311150000Y-44450000D02*
X309372000Y-44450000D01*
X300228000Y-44450000D02*
X298450000Y-44450000D01*
X298450000Y-44450000D02*
X298450000Y-42672000D01*
X298450000Y-33528000D02*
X298450000Y-31750000D01*
X298450000Y-31750000D02*
X300228000Y-31750000D01*
X309372000Y-31750000D02*
X311150000Y-31750000D01*
X311150000Y-31750000D02*
X311150000Y-33528000D01*
X311150000Y-42672000D02*
X311150000Y-44450000D01*
X73025000Y-63500000D02*
X71247000Y-63500000D01*
X62103000Y-63500000D02*
X60325000Y-63500000D01*
X60325000Y-63500000D02*
X60325000Y-61722000D01*
X60325000Y-52578000D02*
X60325000Y-50800000D01*
X60325000Y-50800000D02*
X62103000Y-50800000D01*
X71247000Y-50800000D02*
X73025000Y-50800000D01*
X73025000Y-50800000D02*
X73025000Y-52578000D01*
X73025000Y-61722000D02*
X73025000Y-63500000D01*
X92075000Y-63500000D02*
X90297000Y-63500000D01*
X81153000Y-63500000D02*
X79375000Y-63500000D01*
X79375000Y-63500000D02*
X79375000Y-61722000D01*
X79375000Y-52578000D02*
X79375000Y-50800000D01*
X79375000Y-50800000D02*
X81153000Y-50800000D01*
X90297000Y-50800000D02*
X92075000Y-50800000D01*
X92075000Y-50800000D02*
X92075000Y-52578000D01*
X92075000Y-61722000D02*
X92075000Y-63500000D01*
X111125000Y-63500000D02*
X109347000Y-63500000D01*
X100203000Y-63500000D02*
X98425000Y-63500000D01*
X98425000Y-63500000D02*
X98425000Y-61722000D01*
X98425000Y-52578000D02*
X98425000Y-50800000D01*
X98425000Y-50800000D02*
X100203000Y-50800000D01*
X109347000Y-50800000D02*
X111125000Y-50800000D01*
X111125000Y-50800000D02*
X111125000Y-52578000D01*
X111125000Y-61722000D02*
X111125000Y-63500000D01*
X130175000Y-63500000D02*
X128397000Y-63500000D01*
X119253000Y-63500000D02*
X117475000Y-63500000D01*
X117475000Y-63500000D02*
X117475000Y-61722000D01*
X117475000Y-52578000D02*
X117475000Y-50800000D01*
X117475000Y-50800000D02*
X119253000Y-50800000D01*
X128397000Y-50800000D02*
X130175000Y-50800000D01*
X130175000Y-50800000D02*
X130175000Y-52578000D01*
X130175000Y-61722000D02*
X130175000Y-63500000D01*
X149225000Y-63500000D02*
X147447000Y-63500000D01*
X138303000Y-63500000D02*
X136525000Y-63500000D01*
X136525000Y-63500000D02*
X136525000Y-61722000D01*
X136525000Y-52578000D02*
X136525000Y-50800000D01*
X136525000Y-50800000D02*
X138303000Y-50800000D01*
X147447000Y-50800000D02*
X149225000Y-50800000D01*
X149225000Y-50800000D02*
X149225000Y-52578000D01*
X149225000Y-61722000D02*
X149225000Y-63500000D01*
X168275000Y-63500000D02*
X166497000Y-63500000D01*
X157353000Y-63500000D02*
X155575000Y-63500000D01*
X155575000Y-63500000D02*
X155575000Y-61722000D01*
X155575000Y-52578000D02*
X155575000Y-50800000D01*
X155575000Y-50800000D02*
X157353000Y-50800000D01*
X166497000Y-50800000D02*
X168275000Y-50800000D01*
X168275000Y-50800000D02*
X168275000Y-52578000D01*
X168275000Y-61722000D02*
X168275000Y-63500000D01*
X187325000Y-63500000D02*
X185547000Y-63500000D01*
X176403000Y-63500000D02*
X174625000Y-63500000D01*
X174625000Y-63500000D02*
X174625000Y-61722000D01*
X174625000Y-52578000D02*
X174625000Y-50800000D01*
X174625000Y-50800000D02*
X176403000Y-50800000D01*
X185547000Y-50800000D02*
X187325000Y-50800000D01*
X187325000Y-50800000D02*
X187325000Y-52578000D01*
X187325000Y-61722000D02*
X187325000Y-63500000D01*
X206375000Y-63500000D02*
X204597000Y-63500000D01*
X195453000Y-63500000D02*
X193675000Y-63500000D01*
X193675000Y-63500000D02*
X193675000Y-61722000D01*
X193675000Y-52578000D02*
X193675000Y-50800000D01*
X193675000Y-50800000D02*
X195453000Y-50800000D01*
X204597000Y-50800000D02*
X206375000Y-50800000D01*
X206375000Y-50800000D02*
X206375000Y-52578000D01*
X206375000Y-61722000D02*
X206375000Y-63500000D01*
X225425000Y-63500000D02*
X223647000Y-63500000D01*
X214503000Y-63500000D02*
X212725000Y-63500000D01*
X212725000Y-63500000D02*
X212725000Y-61722000D01*
X212725000Y-52578000D02*
X212725000Y-50800000D01*
X212725000Y-50800000D02*
X214503000Y-50800000D01*
X223647000Y-50800000D02*
X225425000Y-50800000D01*
X225425000Y-50800000D02*
X225425000Y-52578000D01*
X225425000Y-61722000D02*
X225425000Y-63500000D01*
X244475000Y-63500000D02*
X242697000Y-63500000D01*
X233553000Y-63500000D02*
X231775000Y-63500000D01*
X231775000Y-63500000D02*
X231775000Y-61722000D01*
X231775000Y-52578000D02*
X231775000Y-50800000D01*
X231775000Y-50800000D02*
X233553000Y-50800000D01*
X242697000Y-50800000D02*
X244475000Y-50800000D01*
X244475000Y-50800000D02*
X244475000Y-52578000D01*
X244475000Y-61722000D02*
X244475000Y-63500000D01*
X263525000Y-63500000D02*
X261747000Y-63500000D01*
X252603000Y-63500000D02*
X250825000Y-63500000D01*
X250825000Y-63500000D02*
X250825000Y-61722000D01*
X250825000Y-52578000D02*
X250825000Y-50800000D01*
X250825000Y-50800000D02*
X252603000Y-50800000D01*
X261747000Y-50800000D02*
X263525000Y-50800000D01*
X263525000Y-50800000D02*
X263525000Y-52578000D01*
X263525000Y-61722000D02*
X263525000Y-63500000D01*
X282575000Y-63500000D02*
X280797000Y-63500000D01*
X271653000Y-63500000D02*
X269875000Y-63500000D01*
X269875000Y-63500000D02*
X269875000Y-61722000D01*
X269875000Y-52578000D02*
X269875000Y-50800000D01*
X269875000Y-50800000D02*
X271653000Y-50800000D01*
X280797000Y-50800000D02*
X282575000Y-50800000D01*
X282575000Y-50800000D02*
X282575000Y-52578000D01*
X282575000Y-61722000D02*
X282575000Y-63500000D01*
X330200000Y-63500000D02*
X328422000Y-63500000D01*
X319278000Y-63500000D02*
X317500000Y-63500000D01*
X317500000Y-63500000D02*
X317500000Y-61722000D01*
X317500000Y-52578000D02*
X317500000Y-50800000D01*
X317500000Y-50800000D02*
X319278000Y-50800000D01*
X328422000Y-50800000D02*
X330200000Y-50800000D01*
X330200000Y-50800000D02*
X330200000Y-52578000D01*
X330200000Y-61722000D02*
X330200000Y-63500000D01*
X77787500Y-82550000D02*
X76009500Y-82550000D01*
X66865500Y-82550000D02*
X65087500Y-82550000D01*
X65087500Y-82550000D02*
X65087500Y-80772000D01*
X65087500Y-71628000D02*
X65087500Y-69850000D01*
X65087500Y-69850000D02*
X66865500Y-69850000D01*
X76009500Y-69850000D02*
X77787500Y-69850000D01*
X77787500Y-69850000D02*
X77787500Y-71628000D01*
X77787500Y-80772000D02*
X77787500Y-82550000D01*
X96837000Y-82550000D02*
X95059000Y-82550000D01*
X85915000Y-82550000D02*
X84137000Y-82550000D01*
X84137000Y-82550000D02*
X84137000Y-80772000D01*
X84137000Y-71628000D02*
X84137000Y-69850000D01*
X84137000Y-69850000D02*
X85915000Y-69850000D01*
X95059000Y-69850000D02*
X96837000Y-69850000D01*
X96837000Y-69850000D02*
X96837000Y-71628000D01*
X96837000Y-80772000D02*
X96837000Y-82550000D01*
X115887000Y-82550000D02*
X114109000Y-82550000D01*
X104965000Y-82550000D02*
X103187000Y-82550000D01*
X103187000Y-82550000D02*
X103187000Y-80772000D01*
X103187000Y-71628000D02*
X103187000Y-69850000D01*
X103187000Y-69850000D02*
X104965000Y-69850000D01*
X114109000Y-69850000D02*
X115887000Y-69850000D01*
X115887000Y-69850000D02*
X115887000Y-71628000D01*
X115887000Y-80772000D02*
X115887000Y-82550000D01*
X134937000Y-82550000D02*
X133159000Y-82550000D01*
X124015000Y-82550000D02*
X122237000Y-82550000D01*
X122237000Y-82550000D02*
X122237000Y-80772000D01*
X122237000Y-71628000D02*
X122237000Y-69850000D01*
X122237000Y-69850000D02*
X124015000Y-69850000D01*
X133159000Y-69850000D02*
X134937000Y-69850000D01*
X134937000Y-69850000D02*
X134937000Y-71628000D01*
X134937000Y-80772000D02*
X134937000Y-82550000D01*
X153987000Y-82550000D02*
X152209000Y-82550000D01*
X143065000Y-82550000D02*
X141287000Y-82550000D01*
X141287000Y-82550000D02*
X141287000Y-80772000D01*
X141287000Y-71628000D02*
X141287000Y-69850000D01*
X141287000Y-69850000D02*
X143065000Y-69850000D01*
X152209000Y-69850000D02*
X153987000Y-69850000D01*
X153987000Y-69850000D02*
X153987000Y-71628000D01*
X153987000Y-80772000D02*
X153987000Y-82550000D01*
X173037000Y-82550000D02*
X171259000Y-82550000D01*
X162115000Y-82550000D02*
X160337000Y-82550000D01*
X160337000Y-82550000D02*
X160337000Y-80772000D01*
X160337000Y-71628000D02*
X160337000Y-69850000D01*
X160337000Y-69850000D02*
X162115000Y-69850000D01*
X171259000Y-69850000D02*
X173037000Y-69850000D01*
X173037000Y-69850000D02*
X173037000Y-71628000D01*
X173037000Y-80772000D02*
X173037000Y-82550000D01*
X192087000Y-82550000D02*
X190309000Y-82550000D01*
X181165000Y-82550000D02*
X179387000Y-82550000D01*
X179387000Y-82550000D02*
X179387000Y-80772000D01*
X179387000Y-71628000D02*
X179387000Y-69850000D01*
X179387000Y-69850000D02*
X181165000Y-69850000D01*
X190309000Y-69850000D02*
X192087000Y-69850000D01*
X192087000Y-69850000D02*
X192087000Y-71628000D01*
X192087000Y-80772000D02*
X192087000Y-82550000D01*
X211137000Y-82550000D02*
X209359000Y-82550000D01*
X200215000Y-82550000D02*
X198437000Y-82550000D01*
X198437000Y-82550000D02*
X198437000Y-80772000D01*
X198437000Y-71628000D02*
X198437000Y-69850000D01*
X198437000Y-69850000D02*
X200215000Y-69850000D01*
X209359000Y-69850000D02*
X211137000Y-69850000D01*
X211137000Y-69850000D02*
X211137000Y-71628000D01*
X211137000Y-80772000D02*
X211137000Y-82550000D01*
X230187000Y-82550000D02*
X228409000Y-82550000D01*
X219265000Y-82550000D02*
X217487000Y-82550000D01*
X217487000Y-82550000D02*
X217487000Y-80772000D01*
X217487000Y-71628000D02*
X217487000Y-69850000D01*
X217487000Y-69850000D02*
X219265000Y-69850000D01*
X228409000Y-69850000D02*
X230187000Y-69850000D01*
X230187000Y-69850000D02*
X230187000Y-71628000D01*
X230187000Y-80772000D02*
X230187000Y-82550000D01*
X249237000Y-82550000D02*
X247459000Y-82550000D01*
X238315000Y-82550000D02*
X236537000Y-82550000D01*
X236537000Y-82550000D02*
X236537000Y-80772000D01*
X236537000Y-71628000D02*
X236537000Y-69850000D01*
X236537000Y-69850000D02*
X238315000Y-69850000D01*
X247459000Y-69850000D02*
X249237000Y-69850000D01*
X249237000Y-69850000D02*
X249237000Y-71628000D01*
X249237000Y-80772000D02*
X249237000Y-82550000D01*
X268287000Y-82550000D02*
X266509000Y-82550000D01*
X257365000Y-82550000D02*
X255587000Y-82550000D01*
X255587000Y-82550000D02*
X255587000Y-80772000D01*
X255587000Y-71628000D02*
X255587000Y-69850000D01*
X255587000Y-69850000D02*
X257365000Y-69850000D01*
X266509000Y-69850000D02*
X268287000Y-69850000D01*
X268287000Y-69850000D02*
X268287000Y-71628000D01*
X268287000Y-80772000D02*
X268287000Y-82550000D01*
X287337000Y-82550000D02*
X285559000Y-82550000D01*
X276415000Y-82550000D02*
X274637000Y-82550000D01*
X274637000Y-82550000D02*
X274637000Y-80772000D01*
X274637000Y-71628000D02*
X274637000Y-69850000D01*
X274637000Y-69850000D02*
X276415000Y-69850000D01*
X285559000Y-69850000D02*
X287337000Y-69850000D01*
X287337000Y-69850000D02*
X287337000Y-71628000D01*
X287337000Y-80772000D02*
X287337000Y-82550000D01*
X330200000Y-82550000D02*
X328422000Y-82550000D01*
X319278000Y-82550000D02*
X317500000Y-82550000D01*
X317500000Y-82550000D02*
X317500000Y-80772000D01*
X317500000Y-71628000D02*
X317500000Y-69850000D01*
X317500000Y-69850000D02*
X319278000Y-69850000D01*
X328422000Y-69850000D02*
X330200000Y-69850000D01*
X330200000Y-69850000D02*
X330200000Y-71628000D01*
X330200000Y-80772000D02*
X330200000Y-82550000D01*
X68262500Y-101600000D02*
X66484500Y-101600000D01*
X57340500Y-101600000D02*
X55562500Y-101600000D01*
X55562500Y-101600000D02*
X55562500Y-99822000D01*
X55562500Y-90678000D02*
X55562500Y-88900000D01*
X55562500Y-88900000D02*
X57340500Y-88900000D01*
X66484500Y-88900000D02*
X68262500Y-88900000D01*
X68262500Y-88900000D02*
X68262500Y-90678000D01*
X68262500Y-99822000D02*
X68262500Y-101600000D01*
X87313000Y-101600000D02*
X85535000Y-101600000D01*
X76391000Y-101600000D02*
X74613000Y-101600000D01*
X74613000Y-101600000D02*
X74613000Y-99822000D01*
X74613000Y-90678000D02*
X74613000Y-88900000D01*
X74613000Y-88900000D02*
X76391000Y-88900000D01*
X85535000Y-88900000D02*
X87313000Y-88900000D01*
X87313000Y-88900000D02*
X87313000Y-90678000D01*
X87313000Y-99822000D02*
X87313000Y-101600000D01*
X106363000Y-101600000D02*
X104585000Y-101600000D01*
X95441000Y-101600000D02*
X93663000Y-101600000D01*
X93663000Y-101600000D02*
X93663000Y-99822000D01*
X93663000Y-90678000D02*
X93663000Y-88900000D01*
X93663000Y-88900000D02*
X95441000Y-88900000D01*
X104585000Y-88900000D02*
X106363000Y-88900000D01*
X106363000Y-88900000D02*
X106363000Y-90678000D01*
X106363000Y-99822000D02*
X106363000Y-101600000D01*
X125413000Y-101600000D02*
X123635000Y-101600000D01*
X114491000Y-101600000D02*
X112713000Y-101600000D01*
X112713000Y-101600000D02*
X112713000Y-99822000D01*
X112713000Y-90678000D02*
X112713000Y-88900000D01*
X112713000Y-88900000D02*
X114491000Y-88900000D01*
X123635000Y-88900000D02*
X125413000Y-88900000D01*
X125413000Y-88900000D02*
X125413000Y-90678000D01*
X125413000Y-99822000D02*
X125413000Y-101600000D01*
X144463000Y-101600000D02*
X142685000Y-101600000D01*
X133541000Y-101600000D02*
X131763000Y-101600000D01*
X131763000Y-101600000D02*
X131763000Y-99822000D01*
X131763000Y-90678000D02*
X131763000Y-88900000D01*
X131763000Y-88900000D02*
X133541000Y-88900000D01*
X142685000Y-88900000D02*
X144463000Y-88900000D01*
X144463000Y-88900000D02*
X144463000Y-90678000D01*
X144463000Y-99822000D02*
X144463000Y-101600000D01*
X163513000Y-101600000D02*
X161735000Y-101600000D01*
X152591000Y-101600000D02*
X150813000Y-101600000D01*
X150813000Y-101600000D02*
X150813000Y-99822000D01*
X150813000Y-90678000D02*
X150813000Y-88900000D01*
X150813000Y-88900000D02*
X152591000Y-88900000D01*
X161735000Y-88900000D02*
X163513000Y-88900000D01*
X163513000Y-88900000D02*
X163513000Y-90678000D01*
X163513000Y-99822000D02*
X163513000Y-101600000D01*
X182563000Y-101600000D02*
X180785000Y-101600000D01*
X171641000Y-101600000D02*
X169863000Y-101600000D01*
X169863000Y-101600000D02*
X169863000Y-99822000D01*
X169863000Y-90678000D02*
X169863000Y-88900000D01*
X169863000Y-88900000D02*
X171641000Y-88900000D01*
X180785000Y-88900000D02*
X182563000Y-88900000D01*
X182563000Y-88900000D02*
X182563000Y-90678000D01*
X182563000Y-99822000D02*
X182563000Y-101600000D01*
X201613000Y-101600000D02*
X199835000Y-101600000D01*
X190691000Y-101600000D02*
X188913000Y-101600000D01*
X188913000Y-101600000D02*
X188913000Y-99822000D01*
X188913000Y-90678000D02*
X188913000Y-88900000D01*
X188913000Y-88900000D02*
X190691000Y-88900000D01*
X199835000Y-88900000D02*
X201613000Y-88900000D01*
X201613000Y-88900000D02*
X201613000Y-90678000D01*
X201613000Y-99822000D02*
X201613000Y-101600000D01*
X220663000Y-101600000D02*
X218885000Y-101600000D01*
X209741000Y-101600000D02*
X207963000Y-101600000D01*
X207963000Y-101600000D02*
X207963000Y-99822000D01*
X207963000Y-90678000D02*
X207963000Y-88900000D01*
X207963000Y-88900000D02*
X209741000Y-88900000D01*
X218885000Y-88900000D02*
X220663000Y-88900000D01*
X220663000Y-88900000D02*
X220663000Y-90678000D01*
X220663000Y-99822000D02*
X220663000Y-101600000D01*
X258763000Y-101600000D02*
X256985000Y-101600000D01*
X247841000Y-101600000D02*
X246063000Y-101600000D01*
X246063000Y-101600000D02*
X246063000Y-99822000D01*
X246063000Y-90678000D02*
X246063000Y-88900000D01*
X246063000Y-88900000D02*
X247841000Y-88900000D01*
X256985000Y-88900000D02*
X258763000Y-88900000D01*
X258763000Y-88900000D02*
X258763000Y-90678000D01*
X258763000Y-99822000D02*
X258763000Y-101600000D01*
X311150000Y-101600000D02*
X309372000Y-101600000D01*
X300228000Y-101600000D02*
X298450000Y-101600000D01*
X298450000Y-101600000D02*
X298450000Y-99822000D01*
X298450000Y-90678000D02*
X298450000Y-88900000D01*
X298450000Y-88900000D02*
X300228000Y-88900000D01*
X309372000Y-88900000D02*
X311150000Y-88900000D01*
X311150000Y-88900000D02*
X311150000Y-90678000D01*
X311150000Y-99822000D02*
X311150000Y-101600000D01*
X330200000Y-101600000D02*
X328422000Y-101600000D01*
X319278000Y-101600000D02*
X317500000Y-101600000D01*
X317500000Y-101600000D02*
X317500000Y-99822000D01*
X317500000Y-90678000D02*
X317500000Y-88900000D01*
X317500000Y-88900000D02*
X319278000Y-88900000D01*
X328422000Y-88900000D02*
X330200000Y-88900000D01*
X330200000Y-88900000D02*
X330200000Y-90678000D01*
X330200000Y-99822000D02*
X330200000Y-101600000D01*
X46831200Y-101600000D02*
X45053200Y-101600000D01*
X35909200Y-101600000D02*
X34131200Y-101600000D01*
X34131200Y-101600000D02*
X34131200Y-99822000D01*
X34131200Y-90678000D02*
X34131200Y-88900000D01*
X34131200Y-88900000D02*
X35909200Y-88900000D01*
X45053200Y-88900000D02*
X46831200Y-88900000D01*
X46831200Y-88900000D02*
X46831200Y-90678000D01*
X46831200Y-99822000D02*
X46831200Y-101600000D01*
X165894000Y-120650000D02*
X164116000Y-120650000D01*
X154972000Y-120650000D02*
X153194000Y-120650000D01*
X153194000Y-120650000D02*
X153194000Y-118872000D01*
X153194000Y-109728000D02*
X153194000Y-107950000D01*
X153194000Y-107950000D02*
X154972000Y-107950000D01*
X164116000Y-107950000D02*
X165894000Y-107950000D01*
X165894000Y-107950000D02*
X165894000Y-109728000D01*
X165894000Y-118872000D02*
X165894000Y-120650000D01*
X63500000Y-44450000D02*
X61722000Y-44450000D01*
X52578000Y-44450000D02*
X50800000Y-44450000D01*
X50800000Y-44450000D02*
X50800000Y-42672000D01*
X50800000Y-33528000D02*
X50800000Y-31750000D01*
X50800000Y-31750000D02*
X52578000Y-31750000D01*
X61722000Y-31750000D02*
X63500000Y-31750000D01*
X63500000Y-31750000D02*
X63500000Y-33528000D01*
X63500000Y-42672000D02*
X63500000Y-44450000D01*
X227013000Y-107950000D02*
X228791000Y-107950000D01*
X237935000Y-107950000D02*
X239713000Y-107950000D01*
X239713000Y-107950000D02*
X239713000Y-109728000D01*
X239713000Y-118872000D02*
X239713000Y-120650000D01*
X239713000Y-120650000D02*
X237935000Y-120650000D01*
X228791000Y-120650000D02*
X227013000Y-120650000D01*
X227013000Y-120650000D02*
X227013000Y-118872000D01*
X227013000Y-109728000D02*
X227013000Y-107950000D01*
X177800000Y-120650000D02*
X176022000Y-120650000D01*
X166878000Y-120650000D02*
X165100000Y-120650000D01*
X165100000Y-120650000D02*
X165100000Y-118872000D01*
X165100000Y-109728000D02*
X165100000Y-107950000D01*
X165100000Y-107950000D02*
X166878000Y-107950000D01*
X176022000Y-107950000D02*
X177800000Y-107950000D01*
X177800000Y-107950000D02*
X177800000Y-109728000D01*
X177800000Y-118872000D02*
X177800000Y-120650000D01*
X77787500Y-120650000D02*
X76009500Y-120650000D01*
X66865500Y-120650000D02*
X65087500Y-120650000D01*
X65087500Y-120650000D02*
X65087500Y-118872000D01*
X65087500Y-109728000D02*
X65087500Y-107950000D01*
X65087500Y-107950000D02*
X66865500Y-107950000D01*
X76009500Y-107950000D02*
X77787500Y-107950000D01*
X77787500Y-107950000D02*
X77787500Y-109728000D01*
X77787500Y-118872000D02*
X77787500Y-120650000D01*
X296069000Y-73025000D02*
X296069000Y-71247000D01*
X296069000Y-62103000D02*
X296069000Y-60325000D01*
X296069000Y-60325000D02*
X297847000Y-60325000D01*
X306991000Y-60325000D02*
X308769000Y-60325000D01*
X308769000Y-60325000D02*
X308769000Y-62103000D01*
X308769000Y-71247000D02*
X308769000Y-73025000D01*
X308769000Y-73025000D02*
X306991000Y-73025000D01*
X297847000Y-73025000D02*
X296069000Y-73025000D01*
X255587000Y-107950000D02*
X257365000Y-107950000D01*
X266509000Y-107950000D02*
X268287000Y-107950000D01*
X268287000Y-107950000D02*
X268287000Y-109728000D01*
X268287000Y-118872000D02*
X268287000Y-120650000D01*
X268287000Y-120650000D02*
X266509000Y-120650000D01*
X257365000Y-120650000D02*
X255587000Y-120650000D01*
X255587000Y-120650000D02*
X255587000Y-118872000D01*
X255587000Y-109728000D02*
X255587000Y-107950000D01*
X261144000Y-120650000D02*
X259366000Y-120650000D01*
X250222000Y-120650000D02*
X248444000Y-120650000D01*
X248444000Y-120650000D02*
X248444000Y-118872000D01*
X248444000Y-109728000D02*
X248444000Y-107950000D01*
X248444000Y-107950000D02*
X250222000Y-107950000D01*
X259366000Y-107950000D02*
X261144000Y-107950000D01*
X261144000Y-107950000D02*
X261144000Y-109728000D01*
X261144000Y-118872000D02*
X261144000Y-120650000D01*
X237331000Y-120650000D02*
X235553000Y-120650000D01*
X226409000Y-120650000D02*
X224631000Y-120650000D01*
X224631000Y-120650000D02*
X224631000Y-118872000D01*
X224631000Y-109728000D02*
X224631000Y-107950000D01*
X224631000Y-107950000D02*
X226409000Y-107950000D01*
X235553000Y-107950000D02*
X237331000Y-107950000D01*
X237331000Y-107950000D02*
X237331000Y-109728000D01*
X237331000Y-118872000D02*
X237331000Y-120650000D01*
X158750000Y-120650000D02*
X156972000Y-120650000D01*
X147828000Y-120650000D02*
X146050000Y-120650000D01*
X146050000Y-120650000D02*
X146050000Y-118872000D01*
X146050000Y-109728000D02*
X146050000Y-107950000D01*
X146050000Y-107950000D02*
X147828000Y-107950000D01*
X156972000Y-107950000D02*
X158750000Y-107950000D01*
X158750000Y-107950000D02*
X158750000Y-109728000D01*
X158750000Y-118872000D02*
X158750000Y-120650000D01*
X84137000Y-107950000D02*
X85915000Y-107950000D01*
X95059000Y-107950000D02*
X96837000Y-107950000D01*
X96837000Y-107950000D02*
X96837000Y-109728000D01*
X96837000Y-118872000D02*
X96837000Y-120650000D01*
X96837000Y-120650000D02*
X95059000Y-120650000D01*
X85915000Y-120650000D02*
X84137000Y-120650000D01*
X84137000Y-120650000D02*
X84137000Y-118872000D01*
X84137000Y-109728000D02*
X84137000Y-107950000D01*
X60325000Y-107950000D02*
X62103000Y-107950000D01*
X71247000Y-107950000D02*
X73025000Y-107950000D01*
X73025000Y-107950000D02*
X73025000Y-109728000D01*
X73025000Y-118872000D02*
X73025000Y-120650000D01*
X73025000Y-120650000D02*
X71247000Y-120650000D01*
X62103000Y-120650000D02*
X60325000Y-120650000D01*
X60325000Y-120650000D02*
X60325000Y-118872000D01*
X60325000Y-109728000D02*
X60325000Y-107950000D01*
X36512500Y-107950000D02*
X38290500Y-107950000D01*
X47434500Y-107950000D02*
X49212500Y-107950000D01*
X49212500Y-107950000D02*
X49212500Y-109728000D01*
X49212500Y-118872000D02*
X49212500Y-120650000D01*
X49212500Y-120650000D02*
X47434500Y-120650000D01*
X38290500Y-120650000D02*
X36512500Y-120650000D01*
X36512500Y-120650000D02*
X36512500Y-118872000D01*
X36512500Y-109728000D02*
X36512500Y-107950000D01*
X294481000Y-101600000D02*
X292703000Y-101600000D01*
X283559000Y-101600000D02*
X281781000Y-101600000D01*
X281781000Y-101600000D02*
X281781000Y-99822000D01*
X281781000Y-90678000D02*
X281781000Y-88900000D01*
X281781000Y-88900000D02*
X283559000Y-88900000D01*
X292703000Y-88900000D02*
X294481000Y-88900000D01*
X294481000Y-88900000D02*
X294481000Y-90678000D01*
X294481000Y-99822000D02*
X294481000Y-101600000D01*
X56356200Y-101600000D02*
X54578200Y-101600000D01*
X45434200Y-101600000D02*
X43656200Y-101600000D01*
X43656200Y-101600000D02*
X43656200Y-99822000D01*
X43656200Y-90678000D02*
X43656200Y-88900000D01*
X43656200Y-88900000D02*
X45434200Y-88900000D01*
X54578200Y-88900000D02*
X56356200Y-88900000D01*
X56356200Y-88900000D02*
X56356200Y-90678000D01*
X56356200Y-99822000D02*
X56356200Y-101600000D01*
X299244000Y-82550000D02*
X297466000Y-82550000D01*
X288322000Y-82550000D02*
X286544000Y-82550000D01*
X286544000Y-82550000D02*
X286544000Y-80772000D01*
X286544000Y-71628000D02*
X286544000Y-69850000D01*
X286544000Y-69850000D02*
X288322000Y-69850000D01*
X297466000Y-69850000D02*
X299244000Y-69850000D01*
X299244000Y-69850000D02*
X299244000Y-71628000D01*
X299244000Y-80772000D02*
X299244000Y-82550000D01*
X301625000Y-44450000D02*
X299847000Y-44450000D01*
X290703000Y-44450000D02*
X288925000Y-44450000D01*
X288925000Y-44450000D02*
X288925000Y-42672000D01*
X288925000Y-33528000D02*
X288925000Y-31750000D01*
X288925000Y-31750000D02*
X290703000Y-31750000D01*
X299847000Y-31750000D02*
X301625000Y-31750000D01*
X301625000Y-31750000D02*
X301625000Y-33528000D01*
X301625000Y-42672000D02*
X301625000Y-44450000D01*
X46831300Y-82550000D02*
X45053300Y-82550000D01*
X35909300Y-82550000D02*
X34131300Y-82550000D01*
X34131300Y-82550000D02*
X34131300Y-80772000D01*
X34131300Y-71628000D02*
X34131300Y-69850000D01*
X34131300Y-69850000D02*
X35909300Y-69850000D01*
X45053300Y-69850000D02*
X46831300Y-69850000D01*
X46831300Y-69850000D02*
X46831300Y-71628000D01*
X46831300Y-80772000D02*
X46831300Y-82550000D01*
M02*
