M48
;DRILL file {KiCad 4.0.6} date Tuesday, July 11, 2017 'PMt' 09:42:11 PM
;FORMAT={-:-/ absolute / metric / decimal}
FMAT,2
METRIC,TZ
T1C0.300
T2C0.305
T3C0.550
T4C0.850
T5C1.016
T6C1.500
T7C2.499
T8C0.800
T9C3.048
T10C3.988
%
G90
G05
M71
T1
X43.815Y-37.465
X46.355Y-46.99
X48.895Y-37.465
X50.8Y-52.07
X52.07Y-120.015
X54.61Y-74.295
X55.245Y-46.99
X55.88Y-91.44
X56.515Y-48.895
X57.912Y-45.466
X59.055Y-52.324
X59.055Y-57.531
X61.341Y-46.99
X61.976Y-52.324
X61.976Y-57.531
X62.865Y-34.925
X62.865Y-39.37
X64.008Y-44.323
X65.532Y-52.197
X66.548Y-37.846
X67.056Y-43.942
X70.231Y-43.18
X70.485Y-34.925
X71.12Y-39.37
X71.12Y-50.165
X71.755Y-55.372
X72.39Y-47.371
X73.66Y-50.165
X73.66Y-53.975
X73.66Y-106.045
X73.914Y-60.198
X75.565Y-39.624
X75.565Y-57.023
X76.2Y-75.565
X76.835Y-63.246
X78.486Y-48.006
X79.502Y-59.69
X81.28Y-53.34
X81.28Y-91.44
X81.915Y-40.005
X85.09Y-33.02
X88.011Y-51.689
X91.694Y-37.846
X97.79Y-54.61
X100.33Y-74.93
X102.235Y-109.855
X114.935Y-90.805
X115.57Y-54.61
X123.19Y-120.015
X132.715Y-109.855
X139.065Y-73.025
X143.51Y-33.02
X151.765Y-93.345
X170.815Y-109.22
X172.085Y-55.88
X178.435Y-72.39
X182.245Y-33.655
X189.865Y-91.44
X196.85Y-120.65
X211.455Y-55.88
X215.265Y-72.39
X220.345Y-33.655
X228.6Y-91.44
X248.92Y-55.88
X254.635Y-73.025
X259.715Y-33.655
X267.335Y-91.44
X276.225Y-119.38
X291.465Y-86.36
X294.64Y-33.655
X296.545Y-113.03
X318.77Y-55.245
X323.85Y-110.49
X330.2Y-73.025
T2
X66.675Y-46.99
X66.675Y-69.85
X69.952Y-58.877
X71.12Y-59.055
X71.882Y-58.61
X73.279Y-66.354
X76.898Y-53.721
X77.279Y-48.197
X77.787Y-39.497
X79.057Y-53.721
X79.481Y-84.745
X80.01Y-61.595
X80.01Y-68.58
X80.62Y-114.706
X81.216Y-103.592
X84.772Y-41.91
X86.677Y-41.91
X88.265Y-40.259
X89.027Y-38.1
X89.725Y-57.023
X91.757Y-39.497
X93.066Y-66.142
X93.218Y-40.005
X93.662Y-69.85
X101.718Y-47.168
X121.022Y-47.422
X140.487Y-47.837
X160.011Y-48.311
X179.375Y-48.625
X198.806Y-49.006
X218.278Y-49.428
X237.735Y-49.835
X257.166Y-50.216
X304.419Y-91.389
T5
X91.44Y-32.385
X91.44Y-34.925
X93.98Y-32.385
X93.98Y-34.925
X96.52Y-32.385
X96.52Y-34.925
T6
X39.712Y-108.55
X40.362Y-110.3
X40.6Y-42.1
X41.25Y-43.85
X42.981Y-99.25
X42.981Y-118.3
X42.981Y-80.2
X43.631Y-101.
X43.631Y-120.05
X43.631Y-81.95
X45.362Y-61.15
X46.012Y-62.9
X47.744Y-80.2
X48.394Y-81.95
X52.506Y-99.25
X53.156Y-101.
X59.65Y-42.1
X60.3Y-43.85
X63.525Y-108.55
X64.175Y-110.3
X64.412Y-99.25
X65.062Y-101.
X66.794Y-118.3
X67.444Y-120.05
X69.175Y-61.15
X69.825Y-62.9
X73.938Y-80.2
X73.938Y-118.3
X74.587Y-81.95
X74.587Y-120.05
X78.7Y-42.1
X79.35Y-43.85
X83.463Y-99.25
X84.113Y-101.
X87.337Y-108.55
X87.987Y-110.3
X88.225Y-61.15
X88.875Y-62.9
X90.606Y-118.3
X91.256Y-120.05
X92.987Y-80.2
X93.637Y-81.95
X97.75Y-42.1
X98.4Y-43.85
X102.513Y-99.25
X103.163Y-101.
X107.275Y-61.15
X107.925Y-62.9
X112.037Y-80.2
X112.687Y-81.95
X116.8Y-42.1
X117.45Y-43.85
X121.563Y-99.25
X122.213Y-101.
X126.325Y-61.15
X126.975Y-62.9
X131.087Y-80.2
X131.737Y-81.95
X135.85Y-42.1
X136.5Y-43.85
X140.613Y-99.25
X141.263Y-101.
X145.375Y-61.15
X146.025Y-62.9
X150.137Y-80.2
X150.787Y-81.95
X154.9Y-42.1
X154.9Y-118.3
X155.55Y-43.85
X155.55Y-120.05
X159.663Y-99.25
X160.313Y-101.
X162.044Y-118.3
X162.694Y-120.05
X164.425Y-61.15
X165.075Y-62.9
X169.187Y-80.2
X169.837Y-81.95
X173.95Y-42.1
X173.95Y-118.3
X174.6Y-43.85
X174.6Y-120.05
X178.713Y-99.25
X179.363Y-101.
X183.475Y-61.15
X184.125Y-62.9
X188.237Y-80.2
X188.887Y-81.95
X193.Y-42.1
X193.65Y-43.85
X197.763Y-99.25
X198.413Y-101.
X202.525Y-61.15
X203.175Y-62.9
X207.287Y-80.2
X207.937Y-81.95
X212.05Y-42.1
X212.7Y-43.85
X216.813Y-99.25
X217.463Y-101.
X221.575Y-61.15
X222.225Y-62.9
X225.45Y-108.55
X226.1Y-110.3
X226.337Y-80.2
X226.987Y-81.95
X230.213Y-108.55
X230.863Y-110.3
X231.1Y-42.1
X231.75Y-43.85
X233.481Y-118.3
X234.131Y-120.05
X235.863Y-99.25
X236.513Y-101.
X240.625Y-61.15
X241.275Y-62.9
X245.387Y-80.2
X246.037Y-81.95
X250.15Y-42.1
X250.15Y-118.3
X250.8Y-43.85
X250.8Y-120.05
X254.913Y-99.25
X255.563Y-101.
X257.294Y-118.3
X257.944Y-120.05
X258.787Y-108.55
X259.437Y-110.3
X259.675Y-61.15
X260.325Y-62.9
X264.437Y-80.2
X265.087Y-81.95
X269.2Y-42.1
X269.2Y-118.3
X269.85Y-43.85
X269.85Y-120.05
X278.725Y-61.15
X279.375Y-62.9
X281.106Y-99.25
X281.756Y-101.
X283.487Y-80.2
X284.137Y-81.95
X288.25Y-42.1
X288.25Y-118.3
X288.9Y-43.85
X288.9Y-120.05
X290.631Y-99.25
X291.281Y-101.
X295.394Y-80.2
X296.044Y-81.95
X296.669Y-69.825
X296.887Y-51.4
X297.537Y-53.15
X297.775Y-42.1
X298.419Y-69.175
X298.425Y-43.85
X299.269Y-60.925
X299.919Y-62.675
X304.919Y-80.2
X305.569Y-81.95
X307.3Y-42.1
X307.3Y-99.25
X307.3Y-118.3
X307.95Y-43.85
X307.95Y-101.
X307.95Y-120.05
X326.35Y-42.1
X326.35Y-61.15
X326.35Y-80.2
X326.35Y-99.25
X326.35Y-118.3
X327.Y-43.85
X327.Y-62.9
X327.Y-81.95
X327.Y-101.
X327.Y-120.05
T7
X53.772Y-57.201
T8
X45.125Y-33.125
X50.125Y-33.125
T9
X38.1Y-88.262
X61.912Y-88.262
X95.567Y-121.288
X109.537Y-121.288
X114.3Y-121.288
X209.55Y-121.288
X228.6Y-121.288
X276.225Y-88.262
X280.987Y-69.212
X283.369Y-31.112
X299.72Y-88.262
X304.8Y-69.212
X307.181Y-31.112
X309.407Y-54.769
X309.407Y-78.581
T10
X38.1Y-103.505
X61.912Y-103.505
X95.567Y-106.045
X109.537Y-106.045
X114.3Y-106.045
X209.55Y-106.045
X228.6Y-106.045
X276.225Y-103.505
X280.987Y-84.455
X283.369Y-46.355
X294.164Y-54.769
X294.164Y-78.581
X299.72Y-103.505
X304.8Y-84.455
X307.181Y-46.355
T3
X43.75Y-30.05G85X43.75Y-30.7
G05
X51.5Y-30.05G85X51.5Y-30.7
G05
T4
X43.9Y-33.9G85X43.9Y-34.45
G05
X51.35Y-33.9G85X51.35Y-34.45
G05
T6
X36.1Y-42.6G85X35.1Y-42.6
G05
X38.481Y-99.75G85X37.481Y-99.75
G05
X38.481Y-118.8G85X37.481Y-118.8
G05
X38.481Y-80.7G85X37.481Y-80.7
G05
X40.862Y-61.65G85X39.862Y-61.65
G05
X43.244Y-80.7G85X42.244Y-80.7
G05
X44.862Y-109.8G85X45.862Y-109.8
G05
X48.006Y-99.75G85X47.006Y-99.75
G05
X55.15Y-42.6G85X54.15Y-42.6
G05
X59.912Y-99.75G85X58.912Y-99.75
G05
X62.294Y-118.8G85X61.294Y-118.8
G05
X64.675Y-61.65G85X63.675Y-61.65
G05
X69.438Y-80.7G85X68.438Y-80.7
G05
X69.438Y-118.8G85X68.438Y-118.8
G05
X68.675Y-109.8G85X69.675Y-109.8
G05
X74.2Y-42.6G85X73.2Y-42.6
G05
X78.963Y-99.75G85X77.963Y-99.75
G05
X83.725Y-61.65G85X82.725Y-61.65
G05
X86.106Y-118.8G85X85.106Y-118.8
G05
X88.487Y-80.7G85X87.487Y-80.7
G05
X93.25Y-42.6G85X92.25Y-42.6
G05
X92.487Y-109.8G85X93.487Y-109.8
G05
X98.013Y-99.75G85X97.013Y-99.75
G05
X102.775Y-61.65G85X101.775Y-61.65
G05
X107.537Y-80.7G85X106.537Y-80.7
G05
X112.3Y-42.6G85X111.3Y-42.6
G05
X117.063Y-99.75G85X116.063Y-99.75
G05
X121.825Y-61.65G85X120.825Y-61.65
G05
X126.587Y-80.7G85X125.587Y-80.7
G05
X131.35Y-42.6G85X130.35Y-42.6
G05
X136.113Y-99.75G85X135.113Y-99.75
G05
X140.875Y-61.65G85X139.875Y-61.65
G05
X145.637Y-80.7G85X144.637Y-80.7
G05
X150.4Y-42.6G85X149.4Y-42.6
G05
X150.4Y-118.8G85X149.4Y-118.8
G05
X155.163Y-99.75G85X154.163Y-99.75
G05
X157.544Y-118.8G85X156.544Y-118.8
G05
X159.925Y-61.65G85X158.925Y-61.65
G05
X164.687Y-80.7G85X163.687Y-80.7
G05
X169.45Y-42.6G85X168.45Y-42.6
G05
X169.45Y-118.8G85X168.45Y-118.8
G05
X174.213Y-99.75G85X173.213Y-99.75
G05
X178.975Y-61.65G85X177.975Y-61.65
G05
X183.737Y-80.7G85X182.737Y-80.7
G05
X188.5Y-42.6G85X187.5Y-42.6
G05
X193.263Y-99.75G85X192.263Y-99.75
G05
X198.025Y-61.65G85X197.025Y-61.65
G05
X202.787Y-80.7G85X201.787Y-80.7
G05
X207.55Y-42.6G85X206.55Y-42.6
G05
X212.313Y-99.75G85X211.313Y-99.75
G05
X217.075Y-61.65G85X216.075Y-61.65
G05
X221.837Y-80.7G85X220.837Y-80.7
G05
X226.6Y-42.6G85X225.6Y-42.6
G05
X228.981Y-118.8G85X227.981Y-118.8
G05
X231.363Y-99.75G85X230.363Y-99.75
G05
X230.6Y-109.8G85X231.6Y-109.8
G05
X236.125Y-61.65G85X235.125Y-61.65
G05
X235.363Y-109.8G85X236.363Y-109.8
G05
X240.887Y-80.7G85X239.887Y-80.7
G05
X245.65Y-42.6G85X244.65Y-42.6
G05
X245.65Y-118.8G85X244.65Y-118.8
G05
X250.413Y-99.75G85X249.413Y-99.75
G05
X252.794Y-118.8G85X251.794Y-118.8
G05
X255.175Y-61.65G85X254.175Y-61.65
G05
X259.937Y-80.7G85X258.937Y-80.7
G05
X264.7Y-42.6G85X263.7Y-42.6
G05
X264.7Y-118.8G85X263.7Y-118.8
G05
X263.937Y-109.8G85X264.937Y-109.8
G05
X274.225Y-61.65G85X273.225Y-61.65
G05
X276.606Y-99.75G85X275.606Y-99.75
G05
X278.987Y-80.7G85X277.987Y-80.7
G05
X283.75Y-42.6G85X282.75Y-42.6
G05
X283.75Y-118.8G85X282.75Y-118.8
G05
X286.131Y-99.75G85X285.131Y-99.75
G05
X290.894Y-80.7G85X289.894Y-80.7
G05
X293.275Y-42.6G85X292.275Y-42.6
G05
X297.919Y-64.675G85X297.919Y-63.675
G05
X300.419Y-80.7G85X299.419Y-80.7
G05
X302.8Y-42.6G85X301.8Y-42.6
G05
X302.8Y-99.75G85X301.8Y-99.75
G05
X302.8Y-118.8G85X301.8Y-118.8
G05
X302.037Y-52.65G85X303.037Y-52.65
G05
X304.419Y-62.175G85X305.419Y-62.175
G05
X321.85Y-42.6G85X320.85Y-42.6
G05
X321.85Y-61.65G85X320.85Y-61.65
G05
X321.85Y-80.7G85X320.85Y-80.7
G05
X321.85Y-99.75G85X320.85Y-99.75
G05
X321.85Y-118.8G85X320.85Y-118.8
G05
T7
X28.161Y-85.801G85X32.662Y-85.801
G05
X155.916Y-76.201G85X158.417Y-76.201
G05
X218.101Y-114.501G85X220.602Y-114.501
G05
X287.352Y-57.201G85X289.853Y-57.201
G05
X310.243Y-85.801G85X314.744Y-85.801
G05
T0
M30
