  0
SECTION
  2
HEADER
  9
$ACADVER
  1
AC1009
  9
$EXTMIN
 10
0.0
 20
0.0
 30
0.0
  9
$EXTMAX
 10
1000.0
 20
1000.0
 30
0.0
  9
$FILLMODE
 70
 0
  9
$SPLFRAME
 70
 1
  0
ENDSEC
  0
SECTION
  2
TABLES
  0
TABLE
  2
LAYER
 70
1
  0
LAYER
  2
0
 70
     0
 62
     7
  6
CONTINUOUS
  0
ENDTAB
  0
ENDSEC
  0
SECTION
  2
ENTITIES
  0
LINE
  8
0
 62
     0
 10
429.669
 20
5.11253
 30
0.0
 11
429.669
 21
138.938
 31
0.0
  0
LINE
  8
0
 62
     0
 10
429.669
 20
138.938
 30
0.0
 11
429.655
 21
139.329
 31
0.0
  0
LINE
  8
0
 62
     0
 10
429.655
 20
139.329
 30
0.0
 11
429.606
 21
139.719
 31
0.0
  0
LINE
  8
0
 62
     0
 10
429.606
 20
139.719
 30
0.0
 11
429.532
 21
140.104
 31
0.0
  0
LINE
  8
0
 62
     0
 10
429.532
 20
140.104
 30
0.0
 11
429.426
 21
140.483
 31
0.0
  0
LINE
  8
0
 62
     0
 10
429.426
 20
140.483
 30
0.0
 11
429.288
 21
140.851
 31
0.0
  0
LINE
  8
0
 62
     0
 10
429.288
 20
140.851
 30
0.0
 11
429.122
 21
141.207
 31
0.0
  0
LINE
  8
0
 62
     0
 10
429.122
 20
141.207
 30
0.0
 11
428.932
 21
141.549
 31
0.0
  0
LINE
  8
0
 62
     0
 10
428.932
 20
141.549
 30
0.0
 11
428.713
 21
141.876
 31
0.0
  0
LINE
  8
0
 62
     0
 10
428.713
 20
141.876
 30
0.0
 11
428.47
 21
142.185
 31
0.0
  0
LINE
  8
0
 62
     0
 10
428.47
 20
142.185
 30
0.0
 11
428.205
 21
142.474
 31
0.0
  0
LINE
  8
0
 62
     0
 10
428.205
 20
142.474
 30
0.0
 11
427.916
 21
142.74
 31
0.0
  0
LINE
  8
0
 62
     0
 10
427.916
 20
142.74
 30
0.0
 11
427.609
 21
142.983
 31
0.0
  0
LINE
  8
0
 62
     0
 10
427.609
 20
142.983
 30
0.0
 11
427.281
 21
143.2
 31
0.0
  0
LINE
  8
0
 62
     0
 10
427.281
 20
143.2
 30
0.0
 11
426.939
 21
143.392
 31
0.0
  0
LINE
  8
0
 62
     0
 10
426.939
 20
143.392
 30
0.0
 11
426.582
 21
143.556
 31
0.0
  0
LINE
  8
0
 62
     0
 10
426.582
 20
143.556
 30
0.0
 11
426.212
 21
143.692
 31
0.0
  0
LINE
  8
0
 62
     0
 10
426.212
 20
143.692
 30
0.0
 11
425.835
 21
143.8
 31
0.0
  0
LINE
  8
0
 62
     0
 10
425.835
 20
143.8
 30
0.0
 11
425.45
 21
143.875
 31
0.0
  0
LINE
  8
0
 62
     0
 10
425.45
 20
143.875
 30
0.0
 11
425.062
 21
143.922
 31
0.0
  0
LINE
  8
0
 62
     0
 10
425.062
 20
143.922
 30
0.0
 11
424.67
 21
143.938
 31
0.0
  0
LINE
  8
0
 62
     0
 10
424.67
 20
143.938
 30
0.0
 11
219.881
 21
143.938
 31
0.0
  0
LINE
  8
0
 62
     0
 10
219.881
 20
143.938
 30
0.0
 11
219.881
 21
133.937
 31
0.0
  0
LINE
  8
0
 62
     0
 10
219.881
 20
133.937
 30
0.0
 11
419.668
 21
133.937
 31
0.0
  0
LINE
  8
0
 62
     0
 10
419.668
 20
133.937
 30
0.0
 11
419.668
 21
10.1121
 31
0.0
  0
LINE
  8
0
 62
     0
 10
419.668
 20
10.1121
 30
0.0
 11
10.0941
 21
10.1121
 31
0.0
  0
LINE
  8
0
 62
     0
 10
10.0941
 20
10.1121
 30
0.0
 11
10.0941
 21
133.937
 31
0.0
  0
LINE
  8
0
 62
     0
 10
10.0941
 20
133.937
 30
0.0
 11
209.882
 21
133.937
 31
0.0
  0
LINE
  8
0
 62
     0
 10
209.882
 20
133.937
 30
0.0
 11
209.882
 21
143.938
 31
0.0
  0
LINE
  8
0
 62
     0
 10
209.882
 20
143.938
 30
0.0
 11
5.09323
 21
143.938
 31
0.0
  0
LINE
  8
0
 62
     0
 10
5.09323
 20
143.938
 30
0.0
 11
4.70186
 21
143.922
 31
0.0
  0
LINE
  8
0
 62
     0
 10
4.70186
 20
143.922
 30
0.0
 11
4.3119
 21
143.875
 31
0.0
  0
LINE
  8
0
 62
     0
 10
4.3119
 20
143.875
 30
0.0
 11
3.9274
 21
143.8
 31
0.0
  0
LINE
  8
0
 62
     0
 10
3.9274
 20
143.8
 30
0.0
 11
3.54845
 21
143.692
 31
0.0
  0
LINE
  8
0
 62
     0
 10
3.54845
 20
143.692
 30
0.0
 11
3.18051
 21
143.556
 31
0.0
  0
LINE
  8
0
 62
     0
 10
3.18051
 20
143.556
 30
0.0
 11
2.8236
 21
143.392
 31
0.0
  0
LINE
  8
0
 62
     0
 10
2.8236
 20
143.392
 30
0.0
 11
2.48185
 21
143.2
 31
0.0
  0
LINE
  8
0
 62
     0
 10
2.48185
 20
143.2
 30
0.0
 11
2.15525
 21
142.983
 31
0.0
  0
LINE
  8
0
 62
     0
 10
2.15525
 20
142.983
 30
0.0
 11
1.84657
 21
142.74
 31
0.0
  0
LINE
  8
0
 62
     0
 10
1.84657
 20
142.74
 30
0.0
 11
1.55718
 21
142.474
 31
0.0
  0
LINE
  8
0
 62
     0
 10
1.55718
 20
142.474
 30
0.0
 11
1.29122
 21
142.185
 31
0.0
  0
LINE
  8
0
 62
     0
 10
1.29122
 20
142.185
 30
0.0
 11
1.04869
 21
141.876
 31
0.0
  0
LINE
  8
0
 62
     0
 10
1.04869
 20
141.876
 30
0.0
 11
0.830957
 21
141.549
 31
0.0
  0
LINE
  8
0
 62
     0
 10
0.830957
 20
141.549
 30
0.0
 11
0.63941
 21
141.207
 31
0.0
  0
LINE
  8
0
 62
     0
 10
0.63941
 20
141.207
 30
0.0
 11
0.475424
 21
140.851
 31
0.0
  0
LINE
  8
0
 62
     0
 10
0.475424
 20
140.851
 30
0.0
 11
0.338998
 21
140.483
 31
0.0
  0
LINE
  8
0
 62
     0
 10
0.338998
 20
140.483
 30
0.0
 11
0.23151
 21
140.104
 31
0.0
  0
LINE
  8
0
 62
     0
 10
0.23151
 20
140.104
 30
0.0
 11
0.155718
 21
139.719
 31
0.0
  0
LINE
  8
0
 62
     0
 10
0.155718
 20
139.719
 30
0.0
 11
0.108865
 21
139.329
 31
0.0
  0
LINE
  8
0
 62
     0
 10
0.108865
 20
139.329
 30
0.0
 11
0.0937066
 21
138.938
 31
0.0
  0
LINE
  8
0
 62
     0
 10
0.0937066
 20
138.938
 30
0.0
 11
0.0937066
 21
5.11253
 31
0.0
  0
LINE
  8
0
 62
     0
 10
0.0937066
 20
5.11253
 30
0.0
 11
0.108865
 21
4.71978
 31
0.0
  0
LINE
  8
0
 62
     0
 10
0.108865
 20
4.71978
 30
0.0
 11
0.155718
 21
4.32978
 31
0.0
  0
LINE
  8
0
 62
     0
 10
0.155718
 20
4.32978
 30
0.0
 11
0.23151
 21
3.94533
 31
0.0
  0
LINE
  8
0
 62
     0
 10
0.23151
 20
3.94533
 30
0.0
 11
0.338998
 21
3.56775
 31
0.0
  0
LINE
  8
0
 62
     0
 10
0.338998
 20
3.56775
 30
0.0
 11
0.475424
 21
3.1998
 31
0.0
  0
LINE
  8
0
 62
     0
 10
0.475424
 20
3.1998
 30
0.0
 11
0.63941
 21
2.84289
 31
0.0
  0
LINE
  8
0
 62
     0
 10
0.63941
 20
2.84289
 30
0.0
 11
0.830957
 21
2.49976
 31
0.0
  0
LINE
  8
0
 62
     0
 10
0.830957
 20
2.49976
 30
0.0
 11
1.04869
 21
2.17317
 31
0.0
  0
LINE
  8
0
 62
     0
 10
1.04869
 20
2.17317
 30
0.0
 11
1.29122
 21
1.86586
 31
0.0
  0
LINE
  8
0
 62
     0
 10
1.29122
 20
1.86586
 30
0.0
 11
1.55718
 21
1.57648
 31
0.0
  0
LINE
  8
0
 62
     0
 10
1.55718
 20
1.57648
 30
0.0
 11
1.84657
 21
1.31051
 31
0.0
  0
LINE
  8
0
 62
     0
 10
1.84657
 20
1.31051
 30
0.0
 11
2.15525
 21
1.06798
 31
0.0
  0
LINE
  8
0
 62
     0
 10
2.15525
 20
1.06798
 30
0.0
 11
2.48185
 21
0.848872
 31
0.0
  0
LINE
  8
0
 62
     0
 10
2.48185
 20
0.848872
 30
0.0
 11
2.8236
 21
0.657324
 31
0.0
  0
LINE
  8
0
 62
     0
 10
2.8236
 20
0.657324
 30
0.0
 11
3.18051
 21
0.493339
 31
0.0
  0
LINE
  8
0
 62
     0
 10
3.18051
 20
0.493339
 30
0.0
 11
3.54845
 21
0.356912
 31
0.0
  0
LINE
  8
0
 62
     0
 10
3.54845
 20
0.356912
 30
0.0
 11
3.9274
 21
0.250803
 31
0.0
  0
LINE
  8
0
 62
     0
 10
3.9274
 20
0.250803
 30
0.0
 11
4.3119
 21
0.175011
 31
0.0
  0
LINE
  8
0
 62
     0
 10
4.3119
 20
0.175011
 30
0.0
 11
4.70186
 21
0.12678
 31
0.0
  0
LINE
  8
0
 62
     0
 10
4.70186
 20
0.12678
 30
0.0
 11
5.09323
 21
0.112999
 31
0.0
  0
LINE
  8
0
 62
     0
 10
5.09323
 20
0.112999
 30
0.0
 11
424.67
 21
0.112999
 31
0.0
  0
LINE
  8
0
 62
     0
 10
424.67
 20
0.112999
 30
0.0
 11
425.062
 21
0.12678
 31
0.0
  0
LINE
  8
0
 62
     0
 10
425.062
 20
0.12678
 30
0.0
 11
425.45
 21
0.175011
 31
0.0
  0
LINE
  8
0
 62
     0
 10
425.45
 20
0.175011
 30
0.0
 11
425.835
 21
0.250803
 31
0.0
  0
LINE
  8
0
 62
     0
 10
425.835
 20
0.250803
 30
0.0
 11
426.212
 21
0.356912
 31
0.0
  0
LINE
  8
0
 62
     0
 10
426.212
 20
0.356912
 30
0.0
 11
426.582
 21
0.493339
 31
0.0
  0
LINE
  8
0
 62
     0
 10
426.582
 20
0.493339
 30
0.0
 11
426.939
 21
0.657324
 31
0.0
  0
LINE
  8
0
 62
     0
 10
426.939
 20
0.657324
 30
0.0
 11
427.281
 21
0.848872
 31
0.0
  0
LINE
  8
0
 62
     0
 10
427.281
 20
0.848872
 30
0.0
 11
427.609
 21
1.06798
 31
0.0
  0
LINE
  8
0
 62
     0
 10
427.609
 20
1.06798
 30
0.0
 11
427.916
 21
1.31051
 31
0.0
  0
LINE
  8
0
 62
     0
 10
427.916
 20
1.31051
 30
0.0
 11
428.205
 21
1.57648
 31
0.0
  0
LINE
  8
0
 62
     0
 10
428.205
 20
1.57648
 30
0.0
 11
428.47
 21
1.86586
 31
0.0
  0
LINE
  8
0
 62
     0
 10
428.47
 20
1.86586
 30
0.0
 11
428.713
 21
2.17317
 31
0.0
  0
LINE
  8
0
 62
     0
 10
428.713
 20
2.17317
 30
0.0
 11
428.932
 21
2.49976
 31
0.0
  0
LINE
  8
0
 62
     0
 10
428.932
 20
2.49976
 30
0.0
 11
429.122
 21
2.84289
 31
0.0
  0
LINE
  8
0
 62
     0
 10
429.122
 20
2.84289
 30
0.0
 11
429.288
 21
3.1998
 31
0.0
  0
LINE
  8
0
 62
     0
 10
429.288
 20
3.1998
 30
0.0
 11
429.426
 21
3.56775
 31
0.0
  0
LINE
  8
0
 62
     0
 10
429.426
 20
3.56775
 30
0.0
 11
429.532
 21
3.94533
 31
0.0
  0
LINE
  8
0
 62
     0
 10
429.532
 20
3.94533
 30
0.0
 11
429.606
 21
4.32978
 31
0.0
  0
LINE
  8
0
 62
     0
 10
429.606
 20
4.32978
 30
0.0
 11
429.655
 21
4.71978
 31
0.0
  0
LINE
  8
0
 62
     0
 10
429.655
 20
4.71978
 30
0.0
 11
429.669
 21
5.11253
 31
0.0
  0
LINE
  8
0
 62
     0
 10
144.952
 20
140.938
 30
0.0
 11
145.569
 21
140.839
 31
0.0
  0
LINE
  8
0
 62
     0
 10
145.569
 20
140.839
 30
0.0
 11
146.127
 21
140.556
 31
0.0
  0
LINE
  8
0
 62
     0
 10
146.127
 20
140.556
 30
0.0
 11
146.57
 21
140.113
 31
0.0
  0
LINE
  8
0
 62
     0
 10
146.57
 20
140.113
 30
0.0
 11
146.853
 21
139.555
 31
0.0
  0
LINE
  8
0
 62
     0
 10
146.853
 20
139.555
 30
0.0
 11
146.951
 21
138.938
 31
0.0
  0
LINE
  8
0
 62
     0
 10
146.951
 20
138.938
 30
0.0
 11
146.853
 21
138.319
 31
0.0
  0
LINE
  8
0
 62
     0
 10
146.853
 20
138.319
 30
0.0
 11
146.57
 21
137.761
 31
0.0
  0
LINE
  8
0
 62
     0
 10
146.57
 20
137.761
 30
0.0
 11
146.127
 21
137.319
 31
0.0
  0
LINE
  8
0
 62
     0
 10
146.127
 20
137.319
 30
0.0
 11
145.569
 21
137.035
 31
0.0
  0
LINE
  8
0
 62
     0
 10
145.569
 20
137.035
 30
0.0
 11
144.952
 21
136.937
 31
0.0
  0
LINE
  8
0
 62
     0
 10
144.952
 20
136.937
 30
0.0
 11
144.334
 21
137.035
 31
0.0
  0
LINE
  8
0
 62
     0
 10
144.334
 20
137.035
 30
0.0
 11
143.776
 21
137.319
 31
0.0
  0
LINE
  8
0
 62
     0
 10
143.776
 20
137.319
 30
0.0
 11
143.334
 21
137.761
 31
0.0
  0
LINE
  8
0
 62
     0
 10
143.334
 20
137.761
 30
0.0
 11
143.05
 21
138.319
 31
0.0
  0
LINE
  8
0
 62
     0
 10
143.05
 20
138.319
 30
0.0
 11
142.952
 21
138.938
 31
0.0
  0
LINE
  8
0
 62
     0
 10
142.952
 20
138.938
 30
0.0
 11
143.05
 21
139.555
 31
0.0
  0
LINE
  8
0
 62
     0
 10
143.05
 20
139.555
 30
0.0
 11
143.334
 21
140.113
 31
0.0
  0
LINE
  8
0
 62
     0
 10
143.334
 20
140.113
 30
0.0
 11
143.776
 21
140.556
 31
0.0
  0
LINE
  8
0
 62
     0
 10
143.776
 20
140.556
 30
0.0
 11
144.334
 21
140.839
 31
0.0
  0
LINE
  8
0
 62
     0
 10
144.334
 20
140.839
 30
0.0
 11
144.952
 21
140.938
 31
0.0
  0
LINE
  8
0
 62
     0
 10
284.81
 20
140.938
 30
0.0
 11
285.429
 21
140.839
 31
0.0
  0
LINE
  8
0
 62
     0
 10
285.429
 20
140.839
 30
0.0
 11
285.986
 21
140.556
 31
0.0
  0
LINE
  8
0
 62
     0
 10
285.986
 20
140.556
 30
0.0
 11
286.429
 21
140.113
 31
0.0
  0
LINE
  8
0
 62
     0
 10
286.429
 20
140.113
 30
0.0
 11
286.713
 21
139.555
 31
0.0
  0
LINE
  8
0
 62
     0
 10
286.713
 20
139.555
 30
0.0
 11
286.811
 21
138.938
 31
0.0
  0
LINE
  8
0
 62
     0
 10
286.811
 20
138.938
 30
0.0
 11
286.713
 21
138.319
 31
0.0
  0
LINE
  8
0
 62
     0
 10
286.713
 20
138.319
 30
0.0
 11
286.429
 21
137.761
 31
0.0
  0
LINE
  8
0
 62
     0
 10
286.429
 20
137.761
 30
0.0
 11
285.986
 21
137.319
 31
0.0
  0
LINE
  8
0
 62
     0
 10
285.986
 20
137.319
 30
0.0
 11
285.429
 21
137.035
 31
0.0
  0
LINE
  8
0
 62
     0
 10
285.429
 20
137.035
 30
0.0
 11
284.81
 21
136.937
 31
0.0
  0
LINE
  8
0
 62
     0
 10
284.81
 20
136.937
 30
0.0
 11
284.193
 21
137.035
 31
0.0
  0
LINE
  8
0
 62
     0
 10
284.193
 20
137.035
 30
0.0
 11
283.635
 21
137.319
 31
0.0
  0
LINE
  8
0
 62
     0
 10
283.635
 20
137.319
 30
0.0
 11
283.192
 21
137.761
 31
0.0
  0
LINE
  8
0
 62
     0
 10
283.192
 20
137.761
 30
0.0
 11
282.908
 21
138.319
 31
0.0
  0
LINE
  8
0
 62
     0
 10
282.908
 20
138.319
 30
0.0
 11
282.811
 21
138.938
 31
0.0
  0
LINE
  8
0
 62
     0
 10
282.811
 20
138.938
 30
0.0
 11
282.908
 21
139.555
 31
0.0
  0
LINE
  8
0
 62
     0
 10
282.908
 20
139.555
 30
0.0
 11
283.192
 21
140.113
 31
0.0
  0
LINE
  8
0
 62
     0
 10
283.192
 20
140.113
 30
0.0
 11
283.635
 21
140.556
 31
0.0
  0
LINE
  8
0
 62
     0
 10
283.635
 20
140.556
 30
0.0
 11
284.193
 21
140.839
 31
0.0
  0
LINE
  8
0
 62
     0
 10
284.193
 20
140.839
 30
0.0
 11
284.81
 21
140.938
 31
0.0
  0
LINE
  8
0
 62
     0
 10
424.67
 20
140.938
 30
0.0
 11
425.288
 21
140.839
 31
0.0
  0
LINE
  8
0
 62
     0
 10
425.288
 20
140.839
 30
0.0
 11
425.845
 21
140.556
 31
0.0
  0
LINE
  8
0
 62
     0
 10
425.845
 20
140.556
 30
0.0
 11
426.286
 21
140.113
 31
0.0
  0
LINE
  8
0
 62
     0
 10
426.286
 20
140.113
 30
0.0
 11
426.572
 21
139.555
 31
0.0
  0
LINE
  8
0
 62
     0
 10
426.572
 20
139.555
 30
0.0
 11
426.667
 21
138.938
 31
0.0
  0
LINE
  8
0
 62
     0
 10
426.667
 20
138.938
 30
0.0
 11
426.572
 21
138.319
 31
0.0
  0
LINE
  8
0
 62
     0
 10
426.572
 20
138.319
 30
0.0
 11
426.286
 21
137.761
 31
0.0
  0
LINE
  8
0
 62
     0
 10
426.286
 20
137.761
 30
0.0
 11
425.845
 21
137.319
 31
0.0
  0
LINE
  8
0
 62
     0
 10
425.845
 20
137.319
 30
0.0
 11
425.288
 21
137.035
 31
0.0
  0
LINE
  8
0
 62
     0
 10
425.288
 20
137.035
 30
0.0
 11
424.67
 21
136.937
 31
0.0
  0
LINE
  8
0
 62
     0
 10
424.67
 20
136.937
 30
0.0
 11
424.053
 21
137.035
 31
0.0
  0
LINE
  8
0
 62
     0
 10
424.053
 20
137.035
 30
0.0
 11
423.492
 21
137.319
 31
0.0
  0
LINE
  8
0
 62
     0
 10
423.492
 20
137.319
 30
0.0
 11
423.051
 21
137.761
 31
0.0
  0
LINE
  8
0
 62
     0
 10
423.051
 20
137.761
 30
0.0
 11
422.765
 21
138.319
 31
0.0
  0
LINE
  8
0
 62
     0
 10
422.765
 20
138.319
 30
0.0
 11
422.67
 21
138.938
 31
0.0
  0
LINE
  8
0
 62
     0
 10
422.67
 20
138.938
 30
0.0
 11
422.765
 21
139.555
 31
0.0
  0
LINE
  8
0
 62
     0
 10
422.765
 20
139.555
 30
0.0
 11
423.051
 21
140.113
 31
0.0
  0
LINE
  8
0
 62
     0
 10
423.051
 20
140.113
 30
0.0
 11
423.492
 21
140.556
 31
0.0
  0
LINE
  8
0
 62
     0
 10
423.492
 20
140.556
 30
0.0
 11
424.053
 21
140.839
 31
0.0
  0
LINE
  8
0
 62
     0
 10
424.053
 20
140.839
 30
0.0
 11
424.67
 21
140.938
 31
0.0
  0
LINE
  8
0
 62
     0
 10
424.67
 20
7.11207
 30
0.0
 11
425.288
 21
7.01421
 31
0.0
  0
LINE
  8
0
 62
     0
 10
425.288
 20
7.01421
 30
0.0
 11
425.845
 21
6.73033
 31
0.0
  0
LINE
  8
0
 62
     0
 10
425.845
 20
6.73033
 30
0.0
 11
426.286
 21
6.28798
 31
0.0
  0
LINE
  8
0
 62
     0
 10
426.286
 20
6.28798
 30
0.0
 11
426.572
 21
5.72989
 31
0.0
  0
LINE
  8
0
 62
     0
 10
426.572
 20
5.72989
 30
0.0
 11
426.667
 21
5.11253
 31
0.0
  0
LINE
  8
0
 62
     0
 10
426.667
 20
5.11253
 30
0.0
 11
426.572
 21
4.49379
 31
0.0
  0
LINE
  8
0
 62
     0
 10
426.572
 20
4.49379
 30
0.0
 11
426.286
 21
3.93707
 31
0.0
  0
LINE
  8
0
 62
     0
 10
426.286
 20
3.93707
 30
0.0
 11
425.845
 21
3.4947
 31
0.0
  0
LINE
  8
0
 62
     0
 10
425.845
 20
3.4947
 30
0.0
 11
425.288
 21
3.21083
 31
0.0
  0
LINE
  8
0
 62
     0
 10
425.288
 20
3.21083
 30
0.0
 11
424.67
 21
3.11299
 31
0.0
  0
LINE
  8
0
 62
     0
 10
424.67
 20
3.11299
 30
0.0
 11
424.053
 21
3.21083
 31
0.0
  0
LINE
  8
0
 62
     0
 10
424.053
 20
3.21083
 30
0.0
 11
423.492
 21
3.4947
 31
0.0
  0
LINE
  8
0
 62
     0
 10
423.492
 20
3.4947
 30
0.0
 11
423.051
 21
3.93707
 31
0.0
  0
LINE
  8
0
 62
     0
 10
423.051
 20
3.93707
 30
0.0
 11
422.765
 21
4.49379
 31
0.0
  0
LINE
  8
0
 62
     0
 10
422.765
 20
4.49379
 30
0.0
 11
422.67
 21
5.11253
 31
0.0
  0
LINE
  8
0
 62
     0
 10
422.67
 20
5.11253
 30
0.0
 11
422.765
 21
5.72989
 31
0.0
  0
LINE
  8
0
 62
     0
 10
422.765
 20
5.72989
 30
0.0
 11
423.051
 21
6.28798
 31
0.0
  0
LINE
  8
0
 62
     0
 10
423.051
 20
6.28798
 30
0.0
 11
423.492
 21
6.73033
 31
0.0
  0
LINE
  8
0
 62
     0
 10
423.492
 20
6.73033
 30
0.0
 11
424.053
 21
7.01421
 31
0.0
  0
LINE
  8
0
 62
     0
 10
424.053
 20
7.01421
 30
0.0
 11
424.67
 21
7.11207
 31
0.0
  0
LINE
  8
0
 62
     0
 10
284.81
 20
7.11207
 30
0.0
 11
285.429
 21
7.01421
 31
0.0
  0
LINE
  8
0
 62
     0
 10
285.429
 20
7.01421
 30
0.0
 11
285.986
 21
6.73033
 31
0.0
  0
LINE
  8
0
 62
     0
 10
285.986
 20
6.73033
 30
0.0
 11
286.429
 21
6.28798
 31
0.0
  0
LINE
  8
0
 62
     0
 10
286.429
 20
6.28798
 30
0.0
 11
286.713
 21
5.72989
 31
0.0
  0
LINE
  8
0
 62
     0
 10
286.713
 20
5.72989
 30
0.0
 11
286.811
 21
5.11253
 31
0.0
  0
LINE
  8
0
 62
     0
 10
286.811
 20
5.11253
 30
0.0
 11
286.713
 21
4.49379
 31
0.0
  0
LINE
  8
0
 62
     0
 10
286.713
 20
4.49379
 30
0.0
 11
286.429
 21
3.93707
 31
0.0
  0
LINE
  8
0
 62
     0
 10
286.429
 20
3.93707
 30
0.0
 11
285.986
 21
3.4947
 31
0.0
  0
LINE
  8
0
 62
     0
 10
285.986
 20
3.4947
 30
0.0
 11
285.429
 21
3.21083
 31
0.0
  0
LINE
  8
0
 62
     0
 10
285.429
 20
3.21083
 30
0.0
 11
284.81
 21
3.11299
 31
0.0
  0
LINE
  8
0
 62
     0
 10
284.81
 20
3.11299
 30
0.0
 11
284.193
 21
3.21083
 31
0.0
  0
LINE
  8
0
 62
     0
 10
284.193
 20
3.21083
 30
0.0
 11
283.635
 21
3.4947
 31
0.0
  0
LINE
  8
0
 62
     0
 10
283.635
 20
3.4947
 30
0.0
 11
283.192
 21
3.93707
 31
0.0
  0
LINE
  8
0
 62
     0
 10
283.192
 20
3.93707
 30
0.0
 11
282.908
 21
4.49379
 31
0.0
  0
LINE
  8
0
 62
     0
 10
282.908
 20
4.49379
 30
0.0
 11
282.811
 21
5.11253
 31
0.0
  0
LINE
  8
0
 62
     0
 10
282.811
 20
5.11253
 30
0.0
 11
282.908
 21
5.72989
 31
0.0
  0
LINE
  8
0
 62
     0
 10
282.908
 20
5.72989
 30
0.0
 11
283.192
 21
6.28798
 31
0.0
  0
LINE
  8
0
 62
     0
 10
283.192
 20
6.28798
 30
0.0
 11
283.635
 21
6.73033
 31
0.0
  0
LINE
  8
0
 62
     0
 10
283.635
 20
6.73033
 30
0.0
 11
284.193
 21
7.01421
 31
0.0
  0
LINE
  8
0
 62
     0
 10
284.193
 20
7.01421
 30
0.0
 11
284.81
 21
7.11207
 31
0.0
  0
LINE
  8
0
 62
     0
 10
144.952
 20
7.11207
 30
0.0
 11
145.569
 21
7.01421
 31
0.0
  0
LINE
  8
0
 62
     0
 10
145.569
 20
7.01421
 30
0.0
 11
146.127
 21
6.73033
 31
0.0
  0
LINE
  8
0
 62
     0
 10
146.127
 20
6.73033
 30
0.0
 11
146.57
 21
6.28798
 31
0.0
  0
LINE
  8
0
 62
     0
 10
146.57
 20
6.28798
 30
0.0
 11
146.853
 21
5.72989
 31
0.0
  0
LINE
  8
0
 62
     0
 10
146.853
 20
5.72989
 30
0.0
 11
146.951
 21
5.11253
 31
0.0
  0
LINE
  8
0
 62
     0
 10
146.951
 20
5.11253
 30
0.0
 11
146.853
 21
4.49379
 31
0.0
  0
LINE
  8
0
 62
     0
 10
146.853
 20
4.49379
 30
0.0
 11
146.57
 21
3.93707
 31
0.0
  0
LINE
  8
0
 62
     0
 10
146.57
 20
3.93707
 30
0.0
 11
146.127
 21
3.4947
 31
0.0
  0
LINE
  8
0
 62
     0
 10
146.127
 20
3.4947
 30
0.0
 11
145.569
 21
3.21083
 31
0.0
  0
LINE
  8
0
 62
     0
 10
145.569
 20
3.21083
 30
0.0
 11
144.952
 21
3.11299
 31
0.0
  0
LINE
  8
0
 62
     0
 10
144.952
 20
3.11299
 30
0.0
 11
144.334
 21
3.21083
 31
0.0
  0
LINE
  8
0
 62
     0
 10
144.334
 20
3.21083
 30
0.0
 11
143.776
 21
3.4947
 31
0.0
  0
LINE
  8
0
 62
     0
 10
143.776
 20
3.4947
 30
0.0
 11
143.334
 21
3.93707
 31
0.0
  0
LINE
  8
0
 62
     0
 10
143.334
 20
3.93707
 30
0.0
 11
143.05
 21
4.49379
 31
0.0
  0
LINE
  8
0
 62
     0
 10
143.05
 20
4.49379
 30
0.0
 11
142.952
 21
5.11253
 31
0.0
  0
LINE
  8
0
 62
     0
 10
142.952
 20
5.11253
 30
0.0
 11
143.05
 21
5.72989
 31
0.0
  0
LINE
  8
0
 62
     0
 10
143.05
 20
5.72989
 30
0.0
 11
143.334
 21
6.28798
 31
0.0
  0
LINE
  8
0
 62
     0
 10
143.334
 20
6.28798
 30
0.0
 11
143.776
 21
6.73033
 31
0.0
  0
LINE
  8
0
 62
     0
 10
143.776
 20
6.73033
 30
0.0
 11
144.334
 21
7.01421
 31
0.0
  0
LINE
  8
0
 62
     0
 10
144.334
 20
7.01421
 30
0.0
 11
144.952
 21
7.11207
 31
0.0
  0
LINE
  8
0
 62
     0
 10
5.09323
 20
7.11207
 30
0.0
 11
5.71197
 21
7.01421
 31
0.0
  0
LINE
  8
0
 62
     0
 10
5.71197
 20
7.01421
 30
0.0
 11
6.27006
 21
6.73033
 31
0.0
  0
LINE
  8
0
 62
     0
 10
6.27006
 20
6.73033
 30
0.0
 11
6.71241
 21
6.28798
 31
0.0
  0
LINE
  8
0
 62
     0
 10
6.71241
 20
6.28798
 30
0.0
 11
6.99629
 21
5.72989
 31
0.0
  0
LINE
  8
0
 62
     0
 10
6.99629
 20
5.72989
 30
0.0
 11
7.09415
 21
5.11253
 31
0.0
  0
LINE
  8
0
 62
     0
 10
7.09415
 20
5.11253
 30
0.0
 11
6.99629
 21
4.49379
 31
0.0
  0
LINE
  8
0
 62
     0
 10
6.99629
 20
4.49379
 30
0.0
 11
6.71241
 21
3.93707
 31
0.0
  0
LINE
  8
0
 62
     0
 10
6.71241
 20
3.93707
 30
0.0
 11
6.27006
 21
3.4947
 31
0.0
  0
LINE
  8
0
 62
     0
 10
6.27006
 20
3.4947
 30
0.0
 11
5.71197
 21
3.21083
 31
0.0
  0
LINE
  8
0
 62
     0
 10
5.71197
 20
3.21083
 30
0.0
 11
5.09323
 21
3.11299
 31
0.0
  0
LINE
  8
0
 62
     0
 10
5.09323
 20
3.11299
 30
0.0
 11
4.47587
 21
3.21083
 31
0.0
  0
LINE
  8
0
 62
     0
 10
4.47587
 20
3.21083
 30
0.0
 11
3.91777
 21
3.4947
 31
0.0
  0
LINE
  8
0
 62
     0
 10
3.91777
 20
3.4947
 30
0.0
 11
3.47541
 21
3.93707
 31
0.0
  0
LINE
  8
0
 62
     0
 10
3.47541
 20
3.93707
 30
0.0
 11
3.19154
 21
4.49379
 31
0.0
  0
LINE
  8
0
 62
     0
 10
3.19154
 20
4.49379
 30
0.0
 11
3.0937
 21
5.11253
 31
0.0
  0
LINE
  8
0
 62
     0
 10
3.0937
 20
5.11253
 30
0.0
 11
3.19154
 21
5.72989
 31
0.0
  0
LINE
  8
0
 62
     0
 10
3.19154
 20
5.72989
 30
0.0
 11
3.47541
 21
6.28798
 31
0.0
  0
LINE
  8
0
 62
     0
 10
3.47541
 20
6.28798
 30
0.0
 11
3.91777
 21
6.73033
 31
0.0
  0
LINE
  8
0
 62
     0
 10
3.91777
 20
6.73033
 30
0.0
 11
4.47587
 21
7.01421
 31
0.0
  0
LINE
  8
0
 62
     0
 10
4.47587
 20
7.01421
 30
0.0
 11
5.09323
 21
7.11207
 31
0.0
  0
LINE
  8
0
 62
     0
 10
5.09323
 20
140.938
 30
0.0
 11
5.71197
 21
140.839
 31
0.0
  0
LINE
  8
0
 62
     0
 10
5.71197
 20
140.839
 30
0.0
 11
6.27006
 21
140.556
 31
0.0
  0
LINE
  8
0
 62
     0
 10
6.27006
 20
140.556
 30
0.0
 11
6.71241
 21
140.113
 31
0.0
  0
LINE
  8
0
 62
     0
 10
6.71241
 20
140.113
 30
0.0
 11
6.99629
 21
139.555
 31
0.0
  0
LINE
  8
0
 62
     0
 10
6.99629
 20
139.555
 30
0.0
 11
7.09415
 21
138.938
 31
0.0
  0
LINE
  8
0
 62
     0
 10
7.09415
 20
138.938
 30
0.0
 11
6.99629
 21
138.319
 31
0.0
  0
LINE
  8
0
 62
     0
 10
6.99629
 20
138.319
 30
0.0
 11
6.71241
 21
137.761
 31
0.0
  0
LINE
  8
0
 62
     0
 10
6.71241
 20
137.761
 30
0.0
 11
6.27006
 21
137.319
 31
0.0
  0
LINE
  8
0
 62
     0
 10
6.27006
 20
137.319
 30
0.0
 11
5.71197
 21
137.035
 31
0.0
  0
LINE
  8
0
 62
     0
 10
5.71197
 20
137.035
 30
0.0
 11
5.09323
 21
136.937
 31
0.0
  0
LINE
  8
0
 62
     0
 10
5.09323
 20
136.937
 30
0.0
 11
4.47587
 21
137.035
 31
0.0
  0
LINE
  8
0
 62
     0
 10
4.47587
 20
137.035
 30
0.0
 11
3.91777
 21
137.319
 31
0.0
  0
LINE
  8
0
 62
     0
 10
3.91777
 20
137.319
 30
0.0
 11
3.47541
 21
137.761
 31
0.0
  0
LINE
  8
0
 62
     0
 10
3.47541
 20
137.761
 30
0.0
 11
3.19154
 21
138.319
 31
0.0
  0
LINE
  8
0
 62
     0
 10
3.19154
 20
138.319
 30
0.0
 11
3.0937
 21
138.938
 31
0.0
  0
LINE
  8
0
 62
     0
 10
3.0937
 20
138.938
 30
0.0
 11
3.19154
 21
139.555
 31
0.0
  0
LINE
  8
0
 62
     0
 10
3.19154
 20
139.555
 30
0.0
 11
3.47541
 21
140.113
 31
0.0
  0
LINE
  8
0
 62
     0
 10
3.47541
 20
140.113
 30
0.0
 11
3.91777
 21
140.556
 31
0.0
  0
LINE
  8
0
 62
     0
 10
3.91777
 20
140.556
 30
0.0
 11
4.47587
 21
140.839
 31
0.0
  0
LINE
  8
0
 62
     0
 10
4.47587
 20
140.839
 30
0.0
 11
5.09323
 21
140.938
 31
0.0
  0
ENDSEC
  0
EOF
