  0
SECTION
  2
HEADER
  9
$ACADVER
  1
AC1009
  9
$EXTMIN
 10
0.0
 20
0.0
 30
0.0
  9
$EXTMAX
 10
1000.0
 20
1000.0
 30
0.0
  9
$FILLMODE
 70
 0
  9
$SPLFRAME
 70
 1
  0
ENDSEC
  0
SECTION
  2
TABLES
  0
TABLE
  2
LAYER
 70
1
  0
LAYER
  2
0
 70
     0
 62
     7
  6
CONTINUOUS
  0
ENDTAB
  0
ENDSEC
  0
SECTION
  2
ENTITIES
  0
LINE
  8
0
 62
     0
 10
424.67
 20
143.938
 30
0.0
 11
425.062
 21
143.922
 31
0.0
  0
LINE
  8
0
 62
     0
 10
425.062
 20
143.922
 30
0.0
 11
425.45
 21
143.875
 31
0.0
  0
LINE
  8
0
 62
     0
 10
425.45
 20
143.875
 30
0.0
 11
425.835
 21
143.8
 31
0.0
  0
LINE
  8
0
 62
     0
 10
425.835
 20
143.8
 30
0.0
 11
426.212
 21
143.692
 31
0.0
  0
LINE
  8
0
 62
     0
 10
426.212
 20
143.692
 30
0.0
 11
426.582
 21
143.556
 31
0.0
  0
LINE
  8
0
 62
     0
 10
426.582
 20
143.556
 30
0.0
 11
426.939
 21
143.392
 31
0.0
  0
LINE
  8
0
 62
     0
 10
426.939
 20
143.392
 30
0.0
 11
427.281
 21
143.2
 31
0.0
  0
LINE
  8
0
 62
     0
 10
427.281
 20
143.2
 30
0.0
 11
427.609
 21
142.983
 31
0.0
  0
LINE
  8
0
 62
     0
 10
427.609
 20
142.983
 30
0.0
 11
427.916
 21
142.74
 31
0.0
  0
LINE
  8
0
 62
     0
 10
427.916
 20
142.74
 30
0.0
 11
428.205
 21
142.474
 31
0.0
  0
LINE
  8
0
 62
     0
 10
428.205
 20
142.474
 30
0.0
 11
428.47
 21
142.185
 31
0.0
  0
LINE
  8
0
 62
     0
 10
428.47
 20
142.185
 30
0.0
 11
428.713
 21
141.876
 31
0.0
  0
LINE
  8
0
 62
     0
 10
428.713
 20
141.876
 30
0.0
 11
428.932
 21
141.549
 31
0.0
  0
LINE
  8
0
 62
     0
 10
428.932
 20
141.549
 30
0.0
 11
429.122
 21
141.207
 31
0.0
  0
LINE
  8
0
 62
     0
 10
429.122
 20
141.207
 30
0.0
 11
429.288
 21
140.851
 31
0.0
  0
LINE
  8
0
 62
     0
 10
429.288
 20
140.851
 30
0.0
 11
429.426
 21
140.483
 31
0.0
  0
LINE
  8
0
 62
     0
 10
429.426
 20
140.483
 30
0.0
 11
429.532
 21
140.104
 31
0.0
  0
LINE
  8
0
 62
     0
 10
429.532
 20
140.104
 30
0.0
 11
429.606
 21
139.719
 31
0.0
  0
LINE
  8
0
 62
     0
 10
429.606
 20
139.719
 30
0.0
 11
429.655
 21
139.329
 31
0.0
  0
LINE
  8
0
 62
     0
 10
429.655
 20
139.329
 30
0.0
 11
429.669
 21
138.938
 31
0.0
  0
LINE
  8
0
 62
     0
 10
429.669
 20
138.938
 30
0.0
 11
429.669
 21
5.11253
 31
0.0
  0
LINE
  8
0
 62
     0
 10
429.669
 20
5.11253
 30
0.0
 11
429.655
 21
4.71978
 31
0.0
  0
LINE
  8
0
 62
     0
 10
429.655
 20
4.71978
 30
0.0
 11
429.606
 21
4.32978
 31
0.0
  0
LINE
  8
0
 62
     0
 10
429.606
 20
4.32978
 30
0.0
 11
429.532
 21
3.94533
 31
0.0
  0
LINE
  8
0
 62
     0
 10
429.532
 20
3.94533
 30
0.0
 11
429.426
 21
3.56775
 31
0.0
  0
LINE
  8
0
 62
     0
 10
429.426
 20
3.56775
 30
0.0
 11
429.288
 21
3.1998
 31
0.0
  0
LINE
  8
0
 62
     0
 10
429.288
 20
3.1998
 30
0.0
 11
429.122
 21
2.84289
 31
0.0
  0
LINE
  8
0
 62
     0
 10
429.122
 20
2.84289
 30
0.0
 11
428.932
 21
2.49976
 31
0.0
  0
LINE
  8
0
 62
     0
 10
428.932
 20
2.49976
 30
0.0
 11
428.713
 21
2.17317
 31
0.0
  0
LINE
  8
0
 62
     0
 10
428.713
 20
2.17317
 30
0.0
 11
428.47
 21
1.86586
 31
0.0
  0
LINE
  8
0
 62
     0
 10
428.47
 20
1.86586
 30
0.0
 11
428.205
 21
1.57648
 31
0.0
  0
LINE
  8
0
 62
     0
 10
428.205
 20
1.57648
 30
0.0
 11
427.916
 21
1.31051
 31
0.0
  0
LINE
  8
0
 62
     0
 10
427.916
 20
1.31051
 30
0.0
 11
427.609
 21
1.06798
 31
0.0
  0
LINE
  8
0
 62
     0
 10
427.609
 20
1.06798
 30
0.0
 11
427.281
 21
0.848872
 31
0.0
  0
LINE
  8
0
 62
     0
 10
427.281
 20
0.848872
 30
0.0
 11
426.939
 21
0.657324
 31
0.0
  0
LINE
  8
0
 62
     0
 10
426.939
 20
0.657324
 30
0.0
 11
426.582
 21
0.493339
 31
0.0
  0
LINE
  8
0
 62
     0
 10
426.582
 20
0.493339
 30
0.0
 11
426.212
 21
0.356912
 31
0.0
  0
LINE
  8
0
 62
     0
 10
426.212
 20
0.356912
 30
0.0
 11
425.835
 21
0.250803
 31
0.0
  0
LINE
  8
0
 62
     0
 10
425.835
 20
0.250803
 30
0.0
 11
425.45
 21
0.175011
 31
0.0
  0
LINE
  8
0
 62
     0
 10
425.45
 20
0.175011
 30
0.0
 11
425.062
 21
0.12678
 31
0.0
  0
LINE
  8
0
 62
     0
 10
425.062
 20
0.12678
 30
0.0
 11
424.67
 21
0.112999
 31
0.0
  0
LINE
  8
0
 62
     0
 10
424.67
 20
0.112999
 30
0.0
 11
5.09323
 21
0.112999
 31
0.0
  0
LINE
  8
0
 62
     0
 10
5.09323
 20
0.112999
 30
0.0
 11
4.70186
 21
0.12678
 31
0.0
  0
LINE
  8
0
 62
     0
 10
4.70186
 20
0.12678
 30
0.0
 11
4.3119
 21
0.175011
 31
0.0
  0
LINE
  8
0
 62
     0
 10
4.3119
 20
0.175011
 30
0.0
 11
3.9274
 21
0.250803
 31
0.0
  0
LINE
  8
0
 62
     0
 10
3.9274
 20
0.250803
 30
0.0
 11
3.54845
 21
0.356912
 31
0.0
  0
LINE
  8
0
 62
     0
 10
3.54845
 20
0.356912
 30
0.0
 11
3.18051
 21
0.493339
 31
0.0
  0
LINE
  8
0
 62
     0
 10
3.18051
 20
0.493339
 30
0.0
 11
2.8236
 21
0.657324
 31
0.0
  0
LINE
  8
0
 62
     0
 10
2.8236
 20
0.657324
 30
0.0
 11
2.48185
 21
0.848872
 31
0.0
  0
LINE
  8
0
 62
     0
 10
2.48185
 20
0.848872
 30
0.0
 11
2.15525
 21
1.06798
 31
0.0
  0
LINE
  8
0
 62
     0
 10
2.15525
 20
1.06798
 30
0.0
 11
1.84657
 21
1.31051
 31
0.0
  0
LINE
  8
0
 62
     0
 10
1.84657
 20
1.31051
 30
0.0
 11
1.55718
 21
1.57648
 31
0.0
  0
LINE
  8
0
 62
     0
 10
1.55718
 20
1.57648
 30
0.0
 11
1.29122
 21
1.86586
 31
0.0
  0
LINE
  8
0
 62
     0
 10
1.29122
 20
1.86586
 30
0.0
 11
1.04869
 21
2.17317
 31
0.0
  0
LINE
  8
0
 62
     0
 10
1.04869
 20
2.17317
 30
0.0
 11
0.830957
 21
2.49976
 31
0.0
  0
LINE
  8
0
 62
     0
 10
0.830957
 20
2.49976
 30
0.0
 11
0.63941
 21
2.84289
 31
0.0
  0
LINE
  8
0
 62
     0
 10
0.63941
 20
2.84289
 30
0.0
 11
0.475424
 21
3.1998
 31
0.0
  0
LINE
  8
0
 62
     0
 10
0.475424
 20
3.1998
 30
0.0
 11
0.338998
 21
3.56775
 31
0.0
  0
LINE
  8
0
 62
     0
 10
0.338998
 20
3.56775
 30
0.0
 11
0.23151
 21
3.94533
 31
0.0
  0
LINE
  8
0
 62
     0
 10
0.23151
 20
3.94533
 30
0.0
 11
0.155718
 21
4.32978
 31
0.0
  0
LINE
  8
0
 62
     0
 10
0.155718
 20
4.32978
 30
0.0
 11
0.108865
 21
4.71978
 31
0.0
  0
LINE
  8
0
 62
     0
 10
0.108865
 20
4.71978
 30
0.0
 11
0.0937066
 21
5.11253
 31
0.0
  0
LINE
  8
0
 62
     0
 10
0.0937066
 20
5.11253
 30
0.0
 11
0.0937066
 21
138.938
 31
0.0
  0
LINE
  8
0
 62
     0
 10
0.0937066
 20
138.938
 30
0.0
 11
0.108865
 21
139.329
 31
0.0
  0
LINE
  8
0
 62
     0
 10
0.108865
 20
139.329
 30
0.0
 11
0.155718
 21
139.719
 31
0.0
  0
LINE
  8
0
 62
     0
 10
0.155718
 20
139.719
 30
0.0
 11
0.23151
 21
140.104
 31
0.0
  0
LINE
  8
0
 62
     0
 10
0.23151
 20
140.104
 30
0.0
 11
0.338998
 21
140.483
 31
0.0
  0
LINE
  8
0
 62
     0
 10
0.338998
 20
140.483
 30
0.0
 11
0.475424
 21
140.851
 31
0.0
  0
LINE
  8
0
 62
     0
 10
0.475424
 20
140.851
 30
0.0
 11
0.63941
 21
141.207
 31
0.0
  0
LINE
  8
0
 62
     0
 10
0.63941
 20
141.207
 30
0.0
 11
0.830957
 21
141.549
 31
0.0
  0
LINE
  8
0
 62
     0
 10
0.830957
 20
141.549
 30
0.0
 11
1.04869
 21
141.876
 31
0.0
  0
LINE
  8
0
 62
     0
 10
1.04869
 20
141.876
 30
0.0
 11
1.29122
 21
142.185
 31
0.0
  0
LINE
  8
0
 62
     0
 10
1.29122
 20
142.185
 30
0.0
 11
1.55718
 21
142.474
 31
0.0
  0
LINE
  8
0
 62
     0
 10
1.55718
 20
142.474
 30
0.0
 11
1.84657
 21
142.74
 31
0.0
  0
LINE
  8
0
 62
     0
 10
1.84657
 20
142.74
 30
0.0
 11
2.15525
 21
142.983
 31
0.0
  0
LINE
  8
0
 62
     0
 10
2.15525
 20
142.983
 30
0.0
 11
2.48185
 21
143.2
 31
0.0
  0
LINE
  8
0
 62
     0
 10
2.48185
 20
143.2
 30
0.0
 11
2.8236
 21
143.392
 31
0.0
  0
LINE
  8
0
 62
     0
 10
2.8236
 20
143.392
 30
0.0
 11
3.18051
 21
143.556
 31
0.0
  0
LINE
  8
0
 62
     0
 10
3.18051
 20
143.556
 30
0.0
 11
3.54845
 21
143.692
 31
0.0
  0
LINE
  8
0
 62
     0
 10
3.54845
 20
143.692
 30
0.0
 11
3.9274
 21
143.8
 31
0.0
  0
LINE
  8
0
 62
     0
 10
3.9274
 20
143.8
 30
0.0
 11
4.3119
 21
143.875
 31
0.0
  0
LINE
  8
0
 62
     0
 10
4.3119
 20
143.875
 30
0.0
 11
4.70186
 21
143.922
 31
0.0
  0
LINE
  8
0
 62
     0
 10
4.70186
 20
143.922
 30
0.0
 11
5.09323
 21
143.938
 31
0.0
  0
LINE
  8
0
 62
     0
 10
5.09323
 20
143.938
 30
0.0
 11
424.67
 21
143.938
 31
0.0
  0
LINE
  8
0
 62
     0
 10
144.952
 20
140.938
 30
0.0
 11
145.569
 21
140.839
 31
0.0
  0
LINE
  8
0
 62
     0
 10
145.569
 20
140.839
 30
0.0
 11
146.127
 21
140.556
 31
0.0
  0
LINE
  8
0
 62
     0
 10
146.127
 20
140.556
 30
0.0
 11
146.57
 21
140.113
 31
0.0
  0
LINE
  8
0
 62
     0
 10
146.57
 20
140.113
 30
0.0
 11
146.853
 21
139.555
 31
0.0
  0
LINE
  8
0
 62
     0
 10
146.853
 20
139.555
 30
0.0
 11
146.951
 21
138.938
 31
0.0
  0
LINE
  8
0
 62
     0
 10
146.951
 20
138.938
 30
0.0
 11
146.853
 21
138.319
 31
0.0
  0
LINE
  8
0
 62
     0
 10
146.853
 20
138.319
 30
0.0
 11
146.57
 21
137.761
 31
0.0
  0
LINE
  8
0
 62
     0
 10
146.57
 20
137.761
 30
0.0
 11
146.127
 21
137.319
 31
0.0
  0
LINE
  8
0
 62
     0
 10
146.127
 20
137.319
 30
0.0
 11
145.569
 21
137.035
 31
0.0
  0
LINE
  8
0
 62
     0
 10
145.569
 20
137.035
 30
0.0
 11
144.952
 21
136.937
 31
0.0
  0
LINE
  8
0
 62
     0
 10
144.952
 20
136.937
 30
0.0
 11
144.334
 21
137.035
 31
0.0
  0
LINE
  8
0
 62
     0
 10
144.334
 20
137.035
 30
0.0
 11
143.776
 21
137.319
 31
0.0
  0
LINE
  8
0
 62
     0
 10
143.776
 20
137.319
 30
0.0
 11
143.334
 21
137.761
 31
0.0
  0
LINE
  8
0
 62
     0
 10
143.334
 20
137.761
 30
0.0
 11
143.05
 21
138.319
 31
0.0
  0
LINE
  8
0
 62
     0
 10
143.05
 20
138.319
 30
0.0
 11
142.952
 21
138.938
 31
0.0
  0
LINE
  8
0
 62
     0
 10
142.952
 20
138.938
 30
0.0
 11
143.05
 21
139.555
 31
0.0
  0
LINE
  8
0
 62
     0
 10
143.05
 20
139.555
 30
0.0
 11
143.334
 21
140.113
 31
0.0
  0
LINE
  8
0
 62
     0
 10
143.334
 20
140.113
 30
0.0
 11
143.776
 21
140.556
 31
0.0
  0
LINE
  8
0
 62
     0
 10
143.776
 20
140.556
 30
0.0
 11
144.334
 21
140.839
 31
0.0
  0
LINE
  8
0
 62
     0
 10
144.334
 20
140.839
 30
0.0
 11
144.952
 21
140.938
 31
0.0
  0
LINE
  8
0
 62
     0
 10
284.81
 20
140.938
 30
0.0
 11
285.429
 21
140.839
 31
0.0
  0
LINE
  8
0
 62
     0
 10
285.429
 20
140.839
 30
0.0
 11
285.986
 21
140.556
 31
0.0
  0
LINE
  8
0
 62
     0
 10
285.986
 20
140.556
 30
0.0
 11
286.429
 21
140.113
 31
0.0
  0
LINE
  8
0
 62
     0
 10
286.429
 20
140.113
 30
0.0
 11
286.713
 21
139.555
 31
0.0
  0
LINE
  8
0
 62
     0
 10
286.713
 20
139.555
 30
0.0
 11
286.811
 21
138.938
 31
0.0
  0
LINE
  8
0
 62
     0
 10
286.811
 20
138.938
 30
0.0
 11
286.713
 21
138.319
 31
0.0
  0
LINE
  8
0
 62
     0
 10
286.713
 20
138.319
 30
0.0
 11
286.429
 21
137.761
 31
0.0
  0
LINE
  8
0
 62
     0
 10
286.429
 20
137.761
 30
0.0
 11
285.986
 21
137.319
 31
0.0
  0
LINE
  8
0
 62
     0
 10
285.986
 20
137.319
 30
0.0
 11
285.429
 21
137.035
 31
0.0
  0
LINE
  8
0
 62
     0
 10
285.429
 20
137.035
 30
0.0
 11
284.81
 21
136.937
 31
0.0
  0
LINE
  8
0
 62
     0
 10
284.81
 20
136.937
 30
0.0
 11
284.193
 21
137.035
 31
0.0
  0
LINE
  8
0
 62
     0
 10
284.193
 20
137.035
 30
0.0
 11
283.635
 21
137.319
 31
0.0
  0
LINE
  8
0
 62
     0
 10
283.635
 20
137.319
 30
0.0
 11
283.192
 21
137.761
 31
0.0
  0
LINE
  8
0
 62
     0
 10
283.192
 20
137.761
 30
0.0
 11
282.908
 21
138.319
 31
0.0
  0
LINE
  8
0
 62
     0
 10
282.908
 20
138.319
 30
0.0
 11
282.811
 21
138.938
 31
0.0
  0
LINE
  8
0
 62
     0
 10
282.811
 20
138.938
 30
0.0
 11
282.908
 21
139.555
 31
0.0
  0
LINE
  8
0
 62
     0
 10
282.908
 20
139.555
 30
0.0
 11
283.192
 21
140.113
 31
0.0
  0
LINE
  8
0
 62
     0
 10
283.192
 20
140.113
 30
0.0
 11
283.635
 21
140.556
 31
0.0
  0
LINE
  8
0
 62
     0
 10
283.635
 20
140.556
 30
0.0
 11
284.193
 21
140.839
 31
0.0
  0
LINE
  8
0
 62
     0
 10
284.193
 20
140.839
 30
0.0
 11
284.81
 21
140.938
 31
0.0
  0
LINE
  8
0
 62
     0
 10
424.67
 20
140.938
 30
0.0
 11
425.288
 21
140.839
 31
0.0
  0
LINE
  8
0
 62
     0
 10
425.288
 20
140.839
 30
0.0
 11
425.845
 21
140.556
 31
0.0
  0
LINE
  8
0
 62
     0
 10
425.845
 20
140.556
 30
0.0
 11
426.286
 21
140.113
 31
0.0
  0
LINE
  8
0
 62
     0
 10
426.286
 20
140.113
 30
0.0
 11
426.572
 21
139.555
 31
0.0
  0
LINE
  8
0
 62
     0
 10
426.572
 20
139.555
 30
0.0
 11
426.667
 21
138.938
 31
0.0
  0
LINE
  8
0
 62
     0
 10
426.667
 20
138.938
 30
0.0
 11
426.572
 21
138.319
 31
0.0
  0
LINE
  8
0
 62
     0
 10
426.572
 20
138.319
 30
0.0
 11
426.286
 21
137.761
 31
0.0
  0
LINE
  8
0
 62
     0
 10
426.286
 20
137.761
 30
0.0
 11
425.845
 21
137.319
 31
0.0
  0
LINE
  8
0
 62
     0
 10
425.845
 20
137.319
 30
0.0
 11
425.288
 21
137.035
 31
0.0
  0
LINE
  8
0
 62
     0
 10
425.288
 20
137.035
 30
0.0
 11
424.67
 21
136.937
 31
0.0
  0
LINE
  8
0
 62
     0
 10
424.67
 20
136.937
 30
0.0
 11
424.053
 21
137.035
 31
0.0
  0
LINE
  8
0
 62
     0
 10
424.053
 20
137.035
 30
0.0
 11
423.492
 21
137.319
 31
0.0
  0
LINE
  8
0
 62
     0
 10
423.492
 20
137.319
 30
0.0
 11
423.051
 21
137.761
 31
0.0
  0
LINE
  8
0
 62
     0
 10
423.051
 20
137.761
 30
0.0
 11
422.765
 21
138.319
 31
0.0
  0
LINE
  8
0
 62
     0
 10
422.765
 20
138.319
 30
0.0
 11
422.67
 21
138.938
 31
0.0
  0
LINE
  8
0
 62
     0
 10
422.67
 20
138.938
 30
0.0
 11
422.765
 21
139.555
 31
0.0
  0
LINE
  8
0
 62
     0
 10
422.765
 20
139.555
 30
0.0
 11
423.051
 21
140.113
 31
0.0
  0
LINE
  8
0
 62
     0
 10
423.051
 20
140.113
 30
0.0
 11
423.492
 21
140.556
 31
0.0
  0
LINE
  8
0
 62
     0
 10
423.492
 20
140.556
 30
0.0
 11
424.053
 21
140.839
 31
0.0
  0
LINE
  8
0
 62
     0
 10
424.053
 20
140.839
 30
0.0
 11
424.67
 21
140.938
 31
0.0
  0
LINE
  8
0
 62
     0
 10
424.67
 20
7.11207
 30
0.0
 11
425.288
 21
7.01421
 31
0.0
  0
LINE
  8
0
 62
     0
 10
425.288
 20
7.01421
 30
0.0
 11
425.845
 21
6.73033
 31
0.0
  0
LINE
  8
0
 62
     0
 10
425.845
 20
6.73033
 30
0.0
 11
426.286
 21
6.28798
 31
0.0
  0
LINE
  8
0
 62
     0
 10
426.286
 20
6.28798
 30
0.0
 11
426.572
 21
5.72989
 31
0.0
  0
LINE
  8
0
 62
     0
 10
426.572
 20
5.72989
 30
0.0
 11
426.667
 21
5.11253
 31
0.0
  0
LINE
  8
0
 62
     0
 10
426.667
 20
5.11253
 30
0.0
 11
426.572
 21
4.49379
 31
0.0
  0
LINE
  8
0
 62
     0
 10
426.572
 20
4.49379
 30
0.0
 11
426.286
 21
3.93707
 31
0.0
  0
LINE
  8
0
 62
     0
 10
426.286
 20
3.93707
 30
0.0
 11
425.845
 21
3.4947
 31
0.0
  0
LINE
  8
0
 62
     0
 10
425.845
 20
3.4947
 30
0.0
 11
425.288
 21
3.21083
 31
0.0
  0
LINE
  8
0
 62
     0
 10
425.288
 20
3.21083
 30
0.0
 11
424.67
 21
3.11299
 31
0.0
  0
LINE
  8
0
 62
     0
 10
424.67
 20
3.11299
 30
0.0
 11
424.053
 21
3.21083
 31
0.0
  0
LINE
  8
0
 62
     0
 10
424.053
 20
3.21083
 30
0.0
 11
423.492
 21
3.4947
 31
0.0
  0
LINE
  8
0
 62
     0
 10
423.492
 20
3.4947
 30
0.0
 11
423.051
 21
3.93707
 31
0.0
  0
LINE
  8
0
 62
     0
 10
423.051
 20
3.93707
 30
0.0
 11
422.765
 21
4.49379
 31
0.0
  0
LINE
  8
0
 62
     0
 10
422.765
 20
4.49379
 30
0.0
 11
422.67
 21
5.11253
 31
0.0
  0
LINE
  8
0
 62
     0
 10
422.67
 20
5.11253
 30
0.0
 11
422.765
 21
5.72989
 31
0.0
  0
LINE
  8
0
 62
     0
 10
422.765
 20
5.72989
 30
0.0
 11
423.051
 21
6.28798
 31
0.0
  0
LINE
  8
0
 62
     0
 10
423.051
 20
6.28798
 30
0.0
 11
423.492
 21
6.73033
 31
0.0
  0
LINE
  8
0
 62
     0
 10
423.492
 20
6.73033
 30
0.0
 11
424.053
 21
7.01421
 31
0.0
  0
LINE
  8
0
 62
     0
 10
424.053
 20
7.01421
 30
0.0
 11
424.67
 21
7.11207
 31
0.0
  0
LINE
  8
0
 62
     0
 10
284.81
 20
7.11207
 30
0.0
 11
285.429
 21
7.01421
 31
0.0
  0
LINE
  8
0
 62
     0
 10
285.429
 20
7.01421
 30
0.0
 11
285.986
 21
6.73033
 31
0.0
  0
LINE
  8
0
 62
     0
 10
285.986
 20
6.73033
 30
0.0
 11
286.429
 21
6.28798
 31
0.0
  0
LINE
  8
0
 62
     0
 10
286.429
 20
6.28798
 30
0.0
 11
286.713
 21
5.72989
 31
0.0
  0
LINE
  8
0
 62
     0
 10
286.713
 20
5.72989
 30
0.0
 11
286.811
 21
5.11253
 31
0.0
  0
LINE
  8
0
 62
     0
 10
286.811
 20
5.11253
 30
0.0
 11
286.713
 21
4.49379
 31
0.0
  0
LINE
  8
0
 62
     0
 10
286.713
 20
4.49379
 30
0.0
 11
286.429
 21
3.93707
 31
0.0
  0
LINE
  8
0
 62
     0
 10
286.429
 20
3.93707
 30
0.0
 11
285.986
 21
3.4947
 31
0.0
  0
LINE
  8
0
 62
     0
 10
285.986
 20
3.4947
 30
0.0
 11
285.429
 21
3.21083
 31
0.0
  0
LINE
  8
0
 62
     0
 10
285.429
 20
3.21083
 30
0.0
 11
284.81
 21
3.11299
 31
0.0
  0
LINE
  8
0
 62
     0
 10
284.81
 20
3.11299
 30
0.0
 11
284.193
 21
3.21083
 31
0.0
  0
LINE
  8
0
 62
     0
 10
284.193
 20
3.21083
 30
0.0
 11
283.635
 21
3.4947
 31
0.0
  0
LINE
  8
0
 62
     0
 10
283.635
 20
3.4947
 30
0.0
 11
283.192
 21
3.93707
 31
0.0
  0
LINE
  8
0
 62
     0
 10
283.192
 20
3.93707
 30
0.0
 11
282.908
 21
4.49379
 31
0.0
  0
LINE
  8
0
 62
     0
 10
282.908
 20
4.49379
 30
0.0
 11
282.811
 21
5.11253
 31
0.0
  0
LINE
  8
0
 62
     0
 10
282.811
 20
5.11253
 30
0.0
 11
282.908
 21
5.72989
 31
0.0
  0
LINE
  8
0
 62
     0
 10
282.908
 20
5.72989
 30
0.0
 11
283.192
 21
6.28798
 31
0.0
  0
LINE
  8
0
 62
     0
 10
283.192
 20
6.28798
 30
0.0
 11
283.635
 21
6.73033
 31
0.0
  0
LINE
  8
0
 62
     0
 10
283.635
 20
6.73033
 30
0.0
 11
284.193
 21
7.01421
 31
0.0
  0
LINE
  8
0
 62
     0
 10
284.193
 20
7.01421
 30
0.0
 11
284.81
 21
7.11207
 31
0.0
  0
LINE
  8
0
 62
     0
 10
144.952
 20
7.11207
 30
0.0
 11
145.569
 21
7.01421
 31
0.0
  0
LINE
  8
0
 62
     0
 10
145.569
 20
7.01421
 30
0.0
 11
146.127
 21
6.73033
 31
0.0
  0
LINE
  8
0
 62
     0
 10
146.127
 20
6.73033
 30
0.0
 11
146.57
 21
6.28798
 31
0.0
  0
LINE
  8
0
 62
     0
 10
146.57
 20
6.28798
 30
0.0
 11
146.853
 21
5.72989
 31
0.0
  0
LINE
  8
0
 62
     0
 10
146.853
 20
5.72989
 30
0.0
 11
146.951
 21
5.11253
 31
0.0
  0
LINE
  8
0
 62
     0
 10
146.951
 20
5.11253
 30
0.0
 11
146.853
 21
4.49379
 31
0.0
  0
LINE
  8
0
 62
     0
 10
146.853
 20
4.49379
 30
0.0
 11
146.57
 21
3.93707
 31
0.0
  0
LINE
  8
0
 62
     0
 10
146.57
 20
3.93707
 30
0.0
 11
146.127
 21
3.4947
 31
0.0
  0
LINE
  8
0
 62
     0
 10
146.127
 20
3.4947
 30
0.0
 11
145.569
 21
3.21083
 31
0.0
  0
LINE
  8
0
 62
     0
 10
145.569
 20
3.21083
 30
0.0
 11
144.952
 21
3.11299
 31
0.0
  0
LINE
  8
0
 62
     0
 10
144.952
 20
3.11299
 30
0.0
 11
144.334
 21
3.21083
 31
0.0
  0
LINE
  8
0
 62
     0
 10
144.334
 20
3.21083
 30
0.0
 11
143.776
 21
3.4947
 31
0.0
  0
LINE
  8
0
 62
     0
 10
143.776
 20
3.4947
 30
0.0
 11
143.334
 21
3.93707
 31
0.0
  0
LINE
  8
0
 62
     0
 10
143.334
 20
3.93707
 30
0.0
 11
143.05
 21
4.49379
 31
0.0
  0
LINE
  8
0
 62
     0
 10
143.05
 20
4.49379
 30
0.0
 11
142.952
 21
5.11253
 31
0.0
  0
LINE
  8
0
 62
     0
 10
142.952
 20
5.11253
 30
0.0
 11
143.05
 21
5.72989
 31
0.0
  0
LINE
  8
0
 62
     0
 10
143.05
 20
5.72989
 30
0.0
 11
143.334
 21
6.28798
 31
0.0
  0
LINE
  8
0
 62
     0
 10
143.334
 20
6.28798
 30
0.0
 11
143.776
 21
6.73033
 31
0.0
  0
LINE
  8
0
 62
     0
 10
143.776
 20
6.73033
 30
0.0
 11
144.334
 21
7.01421
 31
0.0
  0
LINE
  8
0
 62
     0
 10
144.334
 20
7.01421
 30
0.0
 11
144.952
 21
7.11207
 31
0.0
  0
LINE
  8
0
 62
     0
 10
5.09323
 20
7.11207
 30
0.0
 11
5.71197
 21
7.01421
 31
0.0
  0
LINE
  8
0
 62
     0
 10
5.71197
 20
7.01421
 30
0.0
 11
6.27006
 21
6.73033
 31
0.0
  0
LINE
  8
0
 62
     0
 10
6.27006
 20
6.73033
 30
0.0
 11
6.71241
 21
6.28798
 31
0.0
  0
LINE
  8
0
 62
     0
 10
6.71241
 20
6.28798
 30
0.0
 11
6.99629
 21
5.72989
 31
0.0
  0
LINE
  8
0
 62
     0
 10
6.99629
 20
5.72989
 30
0.0
 11
7.09415
 21
5.11253
 31
0.0
  0
LINE
  8
0
 62
     0
 10
7.09415
 20
5.11253
 30
0.0
 11
6.99629
 21
4.49379
 31
0.0
  0
LINE
  8
0
 62
     0
 10
6.99629
 20
4.49379
 30
0.0
 11
6.71241
 21
3.93707
 31
0.0
  0
LINE
  8
0
 62
     0
 10
6.71241
 20
3.93707
 30
0.0
 11
6.27006
 21
3.4947
 31
0.0
  0
LINE
  8
0
 62
     0
 10
6.27006
 20
3.4947
 30
0.0
 11
5.71197
 21
3.21083
 31
0.0
  0
LINE
  8
0
 62
     0
 10
5.71197
 20
3.21083
 30
0.0
 11
5.09323
 21
3.11299
 31
0.0
  0
LINE
  8
0
 62
     0
 10
5.09323
 20
3.11299
 30
0.0
 11
4.47587
 21
3.21083
 31
0.0
  0
LINE
  8
0
 62
     0
 10
4.47587
 20
3.21083
 30
0.0
 11
3.91777
 21
3.4947
 31
0.0
  0
LINE
  8
0
 62
     0
 10
3.91777
 20
3.4947
 30
0.0
 11
3.47541
 21
3.93707
 31
0.0
  0
LINE
  8
0
 62
     0
 10
3.47541
 20
3.93707
 30
0.0
 11
3.19154
 21
4.49379
 31
0.0
  0
LINE
  8
0
 62
     0
 10
3.19154
 20
4.49379
 30
0.0
 11
3.0937
 21
5.11253
 31
0.0
  0
LINE
  8
0
 62
     0
 10
3.0937
 20
5.11253
 30
0.0
 11
3.19154
 21
5.72989
 31
0.0
  0
LINE
  8
0
 62
     0
 10
3.19154
 20
5.72989
 30
0.0
 11
3.47541
 21
6.28798
 31
0.0
  0
LINE
  8
0
 62
     0
 10
3.47541
 20
6.28798
 30
0.0
 11
3.91777
 21
6.73033
 31
0.0
  0
LINE
  8
0
 62
     0
 10
3.91777
 20
6.73033
 30
0.0
 11
4.47587
 21
7.01421
 31
0.0
  0
LINE
  8
0
 62
     0
 10
4.47587
 20
7.01421
 30
0.0
 11
5.09323
 21
7.11207
 31
0.0
  0
LINE
  8
0
 62
     0
 10
5.09323
 20
140.938
 30
0.0
 11
5.71197
 21
140.839
 31
0.0
  0
LINE
  8
0
 62
     0
 10
5.71197
 20
140.839
 30
0.0
 11
6.27006
 21
140.556
 31
0.0
  0
LINE
  8
0
 62
     0
 10
6.27006
 20
140.556
 30
0.0
 11
6.71241
 21
140.113
 31
0.0
  0
LINE
  8
0
 62
     0
 10
6.71241
 20
140.113
 30
0.0
 11
6.99629
 21
139.555
 31
0.0
  0
LINE
  8
0
 62
     0
 10
6.99629
 20
139.555
 30
0.0
 11
7.09415
 21
138.938
 31
0.0
  0
LINE
  8
0
 62
     0
 10
7.09415
 20
138.938
 30
0.0
 11
6.99629
 21
138.319
 31
0.0
  0
LINE
  8
0
 62
     0
 10
6.99629
 20
138.319
 30
0.0
 11
6.71241
 21
137.761
 31
0.0
  0
LINE
  8
0
 62
     0
 10
6.71241
 20
137.761
 30
0.0
 11
6.27006
 21
137.319
 31
0.0
  0
LINE
  8
0
 62
     0
 10
6.27006
 20
137.319
 30
0.0
 11
5.71197
 21
137.035
 31
0.0
  0
LINE
  8
0
 62
     0
 10
5.71197
 20
137.035
 30
0.0
 11
5.09323
 21
136.937
 31
0.0
  0
LINE
  8
0
 62
     0
 10
5.09323
 20
136.937
 30
0.0
 11
4.47587
 21
137.035
 31
0.0
  0
LINE
  8
0
 62
     0
 10
4.47587
 20
137.035
 30
0.0
 11
3.91777
 21
137.319
 31
0.0
  0
LINE
  8
0
 62
     0
 10
3.91777
 20
137.319
 30
0.0
 11
3.47541
 21
137.761
 31
0.0
  0
LINE
  8
0
 62
     0
 10
3.47541
 20
137.761
 30
0.0
 11
3.19154
 21
138.319
 31
0.0
  0
LINE
  8
0
 62
     0
 10
3.19154
 20
138.319
 30
0.0
 11
3.0937
 21
138.938
 31
0.0
  0
LINE
  8
0
 62
     0
 10
3.0937
 20
138.938
 30
0.0
 11
3.19154
 21
139.555
 31
0.0
  0
LINE
  8
0
 62
     0
 10
3.19154
 20
139.555
 30
0.0
 11
3.47541
 21
140.113
 31
0.0
  0
LINE
  8
0
 62
     0
 10
3.47541
 20
140.113
 30
0.0
 11
3.91777
 21
140.556
 31
0.0
  0
LINE
  8
0
 62
     0
 10
3.91777
 20
140.556
 30
0.0
 11
4.47587
 21
140.839
 31
0.0
  0
LINE
  8
0
 62
     0
 10
4.47587
 20
140.839
 30
0.0
 11
5.09323
 21
140.938
 31
0.0
  0
LINE
  8
0
 62
     0
 10
26.6182
 20
118.012
 30
0.0
 11
26.6182
 21
117.413
 31
0.0
  0
LINE
  8
0
 62
     0
 10
26.6182
 20
117.413
 30
0.0
 11
12.6187
 21
117.413
 31
0.0
  0
LINE
  8
0
 62
     0
 10
12.6187
 20
117.413
 30
0.0
 11
12.6187
 21
118.012
 31
0.0
  0
LINE
  8
0
 62
     0
 10
12.6187
 20
118.012
 30
0.0
 11
11.8194
 21
118.012
 31
0.0
  0
LINE
  8
0
 62
     0
 10
11.8194
 20
118.012
 30
0.0
 11
11.8194
 21
130.813
 31
0.0
  0
LINE
  8
0
 62
     0
 10
11.8194
 20
130.813
 30
0.0
 11
12.6187
 21
130.813
 31
0.0
  0
LINE
  8
0
 62
     0
 10
12.6187
 20
130.813
 30
0.0
 11
12.6187
 21
131.413
 31
0.0
  0
LINE
  8
0
 62
     0
 10
12.6187
 20
131.413
 30
0.0
 11
26.6182
 21
131.413
 31
0.0
  0
LINE
  8
0
 62
     0
 10
26.6182
 20
131.413
 30
0.0
 11
26.6182
 21
130.813
 31
0.0
  0
LINE
  8
0
 62
     0
 10
26.6182
 20
130.813
 30
0.0
 11
27.4188
 21
130.813
 31
0.0
  0
LINE
  8
0
 62
     0
 10
27.4188
 20
130.813
 30
0.0
 11
27.4188
 21
118.012
 31
0.0
  0
LINE
  8
0
 62
     0
 10
27.4188
 20
118.012
 30
0.0
 11
26.6182
 21
118.012
 31
0.0
  0
LINE
  8
0
 62
     0
 10
26.6182
 20
89.4373
 30
0.0
 11
26.6182
 21
88.8379
 31
0.0
  0
LINE
  8
0
 62
     0
 10
26.6182
 20
88.8379
 30
0.0
 11
12.6187
 21
88.8379
 31
0.0
  0
LINE
  8
0
 62
     0
 10
12.6187
 20
88.8379
 30
0.0
 11
12.6187
 21
89.4373
 31
0.0
  0
LINE
  8
0
 62
     0
 10
12.6187
 20
89.4373
 30
0.0
 11
11.8194
 21
89.4373
 31
0.0
  0
LINE
  8
0
 62
     0
 10
11.8194
 20
89.4373
 30
0.0
 11
11.8194
 21
102.238
 31
0.0
  0
LINE
  8
0
 62
     0
 10
11.8194
 20
102.238
 30
0.0
 11
12.6187
 21
102.238
 31
0.0
  0
LINE
  8
0
 62
     0
 10
12.6187
 20
102.238
 30
0.0
 11
12.6187
 21
102.838
 31
0.0
  0
LINE
  8
0
 62
     0
 10
12.6187
 20
102.838
 30
0.0
 11
26.6182
 21
102.838
 31
0.0
  0
LINE
  8
0
 62
     0
 10
26.6182
 20
102.838
 30
0.0
 11
26.6182
 21
102.238
 31
0.0
  0
LINE
  8
0
 62
     0
 10
26.6182
 20
102.238
 30
0.0
 11
27.4188
 21
102.238
 31
0.0
  0
LINE
  8
0
 62
     0
 10
27.4188
 20
102.238
 30
0.0
 11
27.4188
 21
89.4373
 31
0.0
  0
LINE
  8
0
 62
     0
 10
27.4188
 20
89.4373
 30
0.0
 11
26.6182
 21
89.4373
 31
0.0
  0
LINE
  8
0
 62
     0
 10
26.6182
 20
70.3873
 30
0.0
 11
26.6182
 21
69.7879
 31
0.0
  0
LINE
  8
0
 62
     0
 10
26.6182
 20
69.7879
 30
0.0
 11
12.6187
 21
69.7879
 31
0.0
  0
LINE
  8
0
 62
     0
 10
12.6187
 20
69.7879
 30
0.0
 11
12.6187
 21
70.3873
 31
0.0
  0
LINE
  8
0
 62
     0
 10
12.6187
 20
70.3873
 30
0.0
 11
11.8194
 21
70.3873
 31
0.0
  0
LINE
  8
0
 62
     0
 10
11.8194
 20
70.3873
 30
0.0
 11
11.8194
 21
83.1882
 31
0.0
  0
LINE
  8
0
 62
     0
 10
11.8194
 20
83.1882
 30
0.0
 11
12.6187
 21
83.1882
 31
0.0
  0
LINE
  8
0
 62
     0
 10
12.6187
 20
83.1882
 30
0.0
 11
12.6187
 21
83.7875
 31
0.0
  0
LINE
  8
0
 62
     0
 10
12.6187
 20
83.7875
 30
0.0
 11
26.6182
 21
83.7875
 31
0.0
  0
LINE
  8
0
 62
     0
 10
26.6182
 20
83.7875
 30
0.0
 11
26.6182
 21
83.1882
 31
0.0
  0
LINE
  8
0
 62
     0
 10
26.6182
 20
83.1882
 30
0.0
 11
27.4188
 21
83.1882
 31
0.0
  0
LINE
  8
0
 62
     0
 10
27.4188
 20
83.1882
 30
0.0
 11
27.4188
 21
70.3873
 31
0.0
  0
LINE
  8
0
 62
     0
 10
27.4188
 20
70.3873
 30
0.0
 11
26.6182
 21
70.3873
 31
0.0
  0
LINE
  8
0
 62
     0
 10
26.6182
 20
51.3373
 30
0.0
 11
26.6182
 21
50.7379
 31
0.0
  0
LINE
  8
0
 62
     0
 10
26.6182
 20
50.7379
 30
0.0
 11
12.6187
 21
50.7379
 31
0.0
  0
LINE
  8
0
 62
     0
 10
12.6187
 20
50.7379
 30
0.0
 11
12.6187
 21
51.3373
 31
0.0
  0
LINE
  8
0
 62
     0
 10
12.6187
 20
51.3373
 30
0.0
 11
11.8194
 21
51.3373
 31
0.0
  0
LINE
  8
0
 62
     0
 10
11.8194
 20
51.3373
 30
0.0
 11
11.8194
 21
64.1382
 31
0.0
  0
LINE
  8
0
 62
     0
 10
11.8194
 20
64.1382
 30
0.0
 11
12.6187
 21
64.1382
 31
0.0
  0
LINE
  8
0
 62
     0
 10
12.6187
 20
64.1382
 30
0.0
 11
12.6187
 21
64.7375
 31
0.0
  0
LINE
  8
0
 62
     0
 10
12.6187
 20
64.7375
 30
0.0
 11
26.6182
 21
64.7375
 31
0.0
  0
LINE
  8
0
 62
     0
 10
26.6182
 20
64.7375
 30
0.0
 11
26.6182
 21
64.1382
 31
0.0
  0
LINE
  8
0
 62
     0
 10
26.6182
 20
64.1382
 30
0.0
 11
27.4188
 21
64.1382
 31
0.0
  0
LINE
  8
0
 62
     0
 10
27.4188
 20
64.1382
 30
0.0
 11
27.4188
 21
51.3373
 31
0.0
  0
LINE
  8
0
 62
     0
 10
27.4188
 20
51.3373
 30
0.0
 11
26.6182
 21
51.3373
 31
0.0
  0
LINE
  8
0
 62
     0
 10
26.6182
 20
32.2874
 30
0.0
 11
26.6182
 21
31.688
 31
0.0
  0
LINE
  8
0
 62
     0
 10
26.6182
 20
31.688
 30
0.0
 11
12.6187
 21
31.688
 31
0.0
  0
LINE
  8
0
 62
     0
 10
12.6187
 20
31.688
 30
0.0
 11
12.6187
 21
32.2874
 31
0.0
  0
LINE
  8
0
 62
     0
 10
12.6187
 20
32.2874
 30
0.0
 11
11.8194
 21
32.2874
 31
0.0
  0
LINE
  8
0
 62
     0
 10
11.8194
 20
32.2874
 30
0.0
 11
11.8194
 21
45.0882
 31
0.0
  0
LINE
  8
0
 62
     0
 10
11.8194
 20
45.0882
 30
0.0
 11
12.6187
 21
45.0882
 31
0.0
  0
LINE
  8
0
 62
     0
 10
12.6187
 20
45.0882
 30
0.0
 11
12.6187
 21
45.6875
 31
0.0
  0
LINE
  8
0
 62
     0
 10
12.6187
 20
45.6875
 30
0.0
 11
26.6182
 21
45.6875
 31
0.0
  0
LINE
  8
0
 62
     0
 10
26.6182
 20
45.6875
 30
0.0
 11
26.6182
 21
45.0882
 31
0.0
  0
LINE
  8
0
 62
     0
 10
26.6182
 20
45.0882
 30
0.0
 11
27.4188
 21
45.0882
 31
0.0
  0
LINE
  8
0
 62
     0
 10
27.4188
 20
45.0882
 30
0.0
 11
27.4188
 21
32.2874
 31
0.0
  0
LINE
  8
0
 62
     0
 10
27.4188
 20
32.2874
 30
0.0
 11
26.6182
 21
32.2874
 31
0.0
  0
LINE
  8
0
 62
     0
 10
44.3689
 20
19.1368
 30
0.0
 11
44.3689
 21
12.8668
 31
0.0
  0
LINE
  8
0
 62
     0
 10
44.3689
 20
12.8668
 30
0.0
 11
42.744
 21
12.8668
 31
0.0
  0
LINE
  8
0
 62
     0
 10
42.744
 20
12.8668
 30
0.0
 11
42.744
 21
11.887
 31
0.0
  0
LINE
  8
0
 62
     0
 10
42.744
 20
11.887
 30
0.0
 11
39.4437
 21
11.887
 31
0.0
  0
LINE
  8
0
 62
     0
 10
39.4437
 20
11.887
 30
0.0
 11
39.4437
 21
12.8668
 31
0.0
  0
LINE
  8
0
 62
     0
 10
39.4437
 20
12.8668
 30
0.0
 11
37.7183
 21
12.8668
 31
0.0
  0
LINE
  8
0
 62
     0
 10
37.7183
 20
12.8668
 30
0.0
 11
37.7183
 21
13.6674
 31
0.0
  0
LINE
  8
0
 62
     0
 10
37.7183
 20
13.6674
 30
0.0
 11
36.9439
 21
13.6674
 31
0.0
  0
LINE
  8
0
 62
     0
 10
36.9439
 20
13.6674
 30
0.0
 11
36.9439
 21
13.2374
 31
0.0
  0
LINE
  8
0
 62
     0
 10
36.9439
 20
13.2374
 30
0.0
 11
36.1431
 21
13.2374
 31
0.0
  0
LINE
  8
0
 62
     0
 10
36.1431
 20
13.2374
 30
0.0
 11
36.1431
 21
12.638
 31
0.0
  0
LINE
  8
0
 62
     0
 10
36.1431
 20
12.638
 30
0.0
 11
22.1437
 21
12.638
 31
0.0
  0
LINE
  8
0
 62
     0
 10
22.1437
 20
12.638
 30
0.0
 11
22.1437
 21
13.2374
 31
0.0
  0
LINE
  8
0
 62
     0
 10
22.1437
 20
13.2374
 30
0.0
 11
21.3444
 21
13.2374
 31
0.0
  0
LINE
  8
0
 62
     0
 10
21.3444
 20
13.2374
 30
0.0
 11
21.3444
 21
13.6674
 31
0.0
  0
LINE
  8
0
 62
     0
 10
21.3444
 20
13.6674
 30
0.0
 11
20.5686
 21
13.6674
 31
0.0
  0
LINE
  8
0
 62
     0
 10
20.5686
 20
13.6674
 30
0.0
 11
20.5686
 21
12.8668
 31
0.0
  0
LINE
  8
0
 62
     0
 10
20.5686
 20
12.8668
 30
0.0
 11
18.8433
 21
12.8668
 31
0.0
  0
LINE
  8
0
 62
     0
 10
18.8433
 20
12.8668
 30
0.0
 11
18.8433
 21
11.887
 31
0.0
  0
LINE
  8
0
 62
     0
 10
18.8433
 20
11.887
 30
0.0
 11
15.5443
 21
11.887
 31
0.0
  0
LINE
  8
0
 62
     0
 10
15.5443
 20
11.887
 30
0.0
 11
15.5443
 21
12.8668
 31
0.0
  0
LINE
  8
0
 62
     0
 10
15.5443
 20
12.8668
 30
0.0
 11
13.9182
 21
12.8668
 31
0.0
  0
LINE
  8
0
 62
     0
 10
13.9182
 20
12.8668
 30
0.0
 11
13.9182
 21
19.1368
 31
0.0
  0
LINE
  8
0
 62
     0
 10
13.9182
 20
19.1368
 30
0.0
 11
13.0431
 21
19.1368
 31
0.0
  0
LINE
  8
0
 62
     0
 10
13.0431
 20
19.1368
 30
0.0
 11
13.0431
 21
21.937
 31
0.0
  0
LINE
  8
0
 62
     0
 10
13.0431
 20
21.937
 30
0.0
 11
13.9182
 21
21.937
 31
0.0
  0
LINE
  8
0
 62
     0
 10
13.9182
 20
21.937
 30
0.0
 11
13.9182
 21
25.1671
 31
0.0
  0
LINE
  8
0
 62
     0
 10
13.9182
 20
25.1671
 30
0.0
 11
15.5443
 21
25.1671
 31
0.0
  0
LINE
  8
0
 62
     0
 10
15.5443
 20
25.1671
 30
0.0
 11
15.5443
 21
26.0876
 31
0.0
  0
LINE
  8
0
 62
     0
 10
15.5443
 20
26.0876
 30
0.0
 11
18.8433
 21
26.0876
 31
0.0
  0
LINE
  8
0
 62
     0
 10
18.8433
 20
26.0876
 30
0.0
 11
18.8433
 21
25.1671
 31
0.0
  0
LINE
  8
0
 62
     0
 10
18.8433
 20
25.1671
 30
0.0
 11
20.5686
 21
25.1671
 31
0.0
  0
LINE
  8
0
 62
     0
 10
20.5686
 20
25.1671
 30
0.0
 11
20.5686
 21
24.3678
 31
0.0
  0
LINE
  8
0
 62
     0
 10
20.5686
 20
24.3678
 30
0.0
 11
21.3444
 21
24.3678
 31
0.0
  0
LINE
  8
0
 62
     0
 10
21.3444
 20
24.3678
 30
0.0
 11
21.3444
 21
26.038
 31
0.0
  0
LINE
  8
0
 62
     0
 10
21.3444
 20
26.038
 30
0.0
 11
22.1437
 21
26.038
 31
0.0
  0
LINE
  8
0
 62
     0
 10
22.1437
 20
26.038
 30
0.0
 11
22.1437
 21
26.6375
 31
0.0
  0
LINE
  8
0
 62
     0
 10
22.1437
 20
26.6375
 30
0.0
 11
36.1431
 21
26.6375
 31
0.0
  0
LINE
  8
0
 62
     0
 10
36.1431
 20
26.6375
 30
0.0
 11
36.1431
 21
26.038
 31
0.0
  0
LINE
  8
0
 62
     0
 10
36.1431
 20
26.038
 30
0.0
 11
36.9439
 21
26.038
 31
0.0
  0
LINE
  8
0
 62
     0
 10
36.9439
 20
26.038
 30
0.0
 11
36.9439
 21
24.3678
 31
0.0
  0
LINE
  8
0
 62
     0
 10
36.9439
 20
24.3678
 30
0.0
 11
37.7183
 21
24.3678
 31
0.0
  0
LINE
  8
0
 62
     0
 10
37.7183
 20
24.3678
 30
0.0
 11
37.7183
 21
25.1671
 31
0.0
  0
LINE
  8
0
 62
     0
 10
37.7183
 20
25.1671
 30
0.0
 11
39.4437
 21
25.1671
 31
0.0
  0
LINE
  8
0
 62
     0
 10
39.4437
 20
25.1671
 30
0.0
 11
39.4437
 21
26.0876
 31
0.0
  0
LINE
  8
0
 62
     0
 10
39.4437
 20
26.0876
 30
0.0
 11
42.744
 21
26.0876
 31
0.0
  0
LINE
  8
0
 62
     0
 10
42.744
 20
26.0876
 30
0.0
 11
42.744
 21
25.1671
 31
0.0
  0
LINE
  8
0
 62
     0
 10
42.744
 20
25.1671
 30
0.0
 11
44.3689
 21
25.1671
 31
0.0
  0
LINE
  8
0
 62
     0
 10
44.3689
 20
25.1671
 30
0.0
 11
44.3689
 21
21.937
 31
0.0
  0
LINE
  8
0
 62
     0
 10
44.3689
 20
21.937
 30
0.0
 11
45.2438
 21
21.937
 31
0.0
  0
LINE
  8
0
 62
     0
 10
45.2438
 20
21.937
 30
0.0
 11
45.2438
 21
19.1368
 31
0.0
  0
LINE
  8
0
 62
     0
 10
45.2438
 20
19.1368
 30
0.0
 11
44.3689
 21
19.1368
 31
0.0
  0
LINE
  8
0
 62
     0
 10
45.6681
 20
118.012
 30
0.0
 11
45.6681
 21
117.413
 31
0.0
  0
LINE
  8
0
 62
     0
 10
45.6681
 20
117.413
 30
0.0
 11
31.6687
 21
117.413
 31
0.0
  0
LINE
  8
0
 62
     0
 10
31.6687
 20
117.413
 30
0.0
 11
31.6687
 21
118.012
 31
0.0
  0
LINE
  8
0
 62
     0
 10
31.6687
 20
118.012
 30
0.0
 11
30.8694
 21
118.012
 31
0.0
  0
LINE
  8
0
 62
     0
 10
30.8694
 20
118.012
 30
0.0
 11
30.8694
 21
130.813
 31
0.0
  0
LINE
  8
0
 62
     0
 10
30.8694
 20
130.813
 30
0.0
 11
31.6687
 21
130.813
 31
0.0
  0
LINE
  8
0
 62
     0
 10
31.6687
 20
130.813
 30
0.0
 11
31.6687
 21
131.413
 31
0.0
  0
LINE
  8
0
 62
     0
 10
31.6687
 20
131.413
 30
0.0
 11
45.6681
 21
131.413
 31
0.0
  0
LINE
  8
0
 62
     0
 10
45.6681
 20
131.413
 30
0.0
 11
45.6681
 21
130.813
 31
0.0
  0
LINE
  8
0
 62
     0
 10
45.6681
 20
130.813
 30
0.0
 11
46.4689
 21
130.813
 31
0.0
  0
LINE
  8
0
 62
     0
 10
46.4689
 20
130.813
 30
0.0
 11
46.4689
 21
118.012
 31
0.0
  0
LINE
  8
0
 62
     0
 10
46.4689
 20
118.012
 30
0.0
 11
45.6681
 21
118.012
 31
0.0
  0
LINE
  8
0
 62
     0
 10
45.6681
 20
89.4373
 30
0.0
 11
45.6681
 21
88.8379
 31
0.0
  0
LINE
  8
0
 62
     0
 10
45.6681
 20
88.8379
 30
0.0
 11
31.6687
 21
88.8379
 31
0.0
  0
LINE
  8
0
 62
     0
 10
31.6687
 20
88.8379
 30
0.0
 11
31.6687
 21
89.4373
 31
0.0
  0
LINE
  8
0
 62
     0
 10
31.6687
 20
89.4373
 30
0.0
 11
30.8694
 21
89.4373
 31
0.0
  0
LINE
  8
0
 62
     0
 10
30.8694
 20
89.4373
 30
0.0
 11
30.8694
 21
102.238
 31
0.0
  0
LINE
  8
0
 62
     0
 10
30.8694
 20
102.238
 30
0.0
 11
31.6687
 21
102.238
 31
0.0
  0
LINE
  8
0
 62
     0
 10
31.6687
 20
102.238
 30
0.0
 11
31.6687
 21
102.838
 31
0.0
  0
LINE
  8
0
 62
     0
 10
31.6687
 20
102.838
 30
0.0
 11
45.6681
 21
102.838
 31
0.0
  0
LINE
  8
0
 62
     0
 10
45.6681
 20
102.838
 30
0.0
 11
45.6681
 21
102.238
 31
0.0
  0
LINE
  8
0
 62
     0
 10
45.6681
 20
102.238
 30
0.0
 11
46.4689
 21
102.238
 31
0.0
  0
LINE
  8
0
 62
     0
 10
46.4689
 20
102.238
 30
0.0
 11
46.4689
 21
89.4373
 31
0.0
  0
LINE
  8
0
 62
     0
 10
46.4689
 20
89.4373
 30
0.0
 11
45.6681
 21
89.4373
 31
0.0
  0
LINE
  8
0
 62
     0
 10
45.6681
 20
70.3873
 30
0.0
 11
45.6681
 21
69.7879
 31
0.0
  0
LINE
  8
0
 62
     0
 10
45.6681
 20
69.7879
 30
0.0
 11
31.6687
 21
69.7879
 31
0.0
  0
LINE
  8
0
 62
     0
 10
31.6687
 20
69.7879
 30
0.0
 11
31.6687
 21
70.3873
 31
0.0
  0
LINE
  8
0
 62
     0
 10
31.6687
 20
70.3873
 30
0.0
 11
30.8694
 21
70.3873
 31
0.0
  0
LINE
  8
0
 62
     0
 10
30.8694
 20
70.3873
 30
0.0
 11
30.8694
 21
83.1882
 31
0.0
  0
LINE
  8
0
 62
     0
 10
30.8694
 20
83.1882
 30
0.0
 11
31.6687
 21
83.1882
 31
0.0
  0
LINE
  8
0
 62
     0
 10
31.6687
 20
83.1882
 30
0.0
 11
31.6687
 21
83.7875
 31
0.0
  0
LINE
  8
0
 62
     0
 10
31.6687
 20
83.7875
 30
0.0
 11
45.6681
 21
83.7875
 31
0.0
  0
LINE
  8
0
 62
     0
 10
45.6681
 20
83.7875
 30
0.0
 11
45.6681
 21
83.1882
 31
0.0
  0
LINE
  8
0
 62
     0
 10
45.6681
 20
83.1882
 30
0.0
 11
46.4689
 21
83.1882
 31
0.0
  0
LINE
  8
0
 62
     0
 10
46.4689
 20
83.1882
 30
0.0
 11
46.4689
 21
70.3873
 31
0.0
  0
LINE
  8
0
 62
     0
 10
46.4689
 20
70.3873
 30
0.0
 11
45.6681
 21
70.3873
 31
0.0
  0
LINE
  8
0
 62
     0
 10
45.6681
 20
51.3373
 30
0.0
 11
45.6681
 21
50.7379
 31
0.0
  0
LINE
  8
0
 62
     0
 10
45.6681
 20
50.7379
 30
0.0
 11
31.6687
 21
50.7379
 31
0.0
  0
LINE
  8
0
 62
     0
 10
31.6687
 20
50.7379
 30
0.0
 11
31.6687
 21
51.3373
 31
0.0
  0
LINE
  8
0
 62
     0
 10
31.6687
 20
51.3373
 30
0.0
 11
30.8694
 21
51.3373
 31
0.0
  0
LINE
  8
0
 62
     0
 10
30.8694
 20
51.3373
 30
0.0
 11
30.8694
 21
64.1382
 31
0.0
  0
LINE
  8
0
 62
     0
 10
30.8694
 20
64.1382
 30
0.0
 11
31.6687
 21
64.1382
 31
0.0
  0
LINE
  8
0
 62
     0
 10
31.6687
 20
64.1382
 30
0.0
 11
31.6687
 21
64.7375
 31
0.0
  0
LINE
  8
0
 62
     0
 10
31.6687
 20
64.7375
 30
0.0
 11
45.6681
 21
64.7375
 31
0.0
  0
LINE
  8
0
 62
     0
 10
45.6681
 20
64.7375
 30
0.0
 11
45.6681
 21
64.1382
 31
0.0
  0
LINE
  8
0
 62
     0
 10
45.6681
 20
64.1382
 30
0.0
 11
46.4689
 21
64.1382
 31
0.0
  0
LINE
  8
0
 62
     0
 10
46.4689
 20
64.1382
 30
0.0
 11
46.4689
 21
51.3373
 31
0.0
  0
LINE
  8
0
 62
     0
 10
46.4689
 20
51.3373
 30
0.0
 11
45.6681
 21
51.3373
 31
0.0
  0
LINE
  8
0
 62
     0
 10
45.6681
 20
32.2874
 30
0.0
 11
45.6681
 21
31.688
 31
0.0
  0
LINE
  8
0
 62
     0
 10
45.6681
 20
31.688
 30
0.0
 11
31.6687
 21
31.688
 31
0.0
  0
LINE
  8
0
 62
     0
 10
31.6687
 20
31.688
 30
0.0
 11
31.6687
 21
32.2874
 31
0.0
  0
LINE
  8
0
 62
     0
 10
31.6687
 20
32.2874
 30
0.0
 11
30.8694
 21
32.2874
 31
0.0
  0
LINE
  8
0
 62
     0
 10
30.8694
 20
32.2874
 30
0.0
 11
30.8694
 21
45.0882
 31
0.0
  0
LINE
  8
0
 62
     0
 10
30.8694
 20
45.0882
 30
0.0
 11
31.6687
 21
45.0882
 31
0.0
  0
LINE
  8
0
 62
     0
 10
31.6687
 20
45.0882
 30
0.0
 11
31.6687
 21
45.6875
 31
0.0
  0
LINE
  8
0
 62
     0
 10
31.6687
 20
45.6875
 30
0.0
 11
45.6681
 21
45.6875
 31
0.0
  0
LINE
  8
0
 62
     0
 10
45.6681
 20
45.6875
 30
0.0
 11
45.6681
 21
45.0882
 31
0.0
  0
LINE
  8
0
 62
     0
 10
45.6681
 20
45.0882
 30
0.0
 11
46.4689
 21
45.0882
 31
0.0
  0
LINE
  8
0
 62
     0
 10
46.4689
 20
45.0882
 30
0.0
 11
46.4689
 21
32.2874
 31
0.0
  0
LINE
  8
0
 62
     0
 10
46.4689
 20
32.2874
 30
0.0
 11
45.6681
 21
32.2874
 31
0.0
  0
LINE
  8
0
 62
     0
 10
64.7181
 20
118.012
 30
0.0
 11
64.7181
 21
117.413
 31
0.0
  0
LINE
  8
0
 62
     0
 10
64.7181
 20
117.413
 30
0.0
 11
50.7189
 21
117.413
 31
0.0
  0
LINE
  8
0
 62
     0
 10
50.7189
 20
117.413
 30
0.0
 11
50.7189
 21
118.012
 31
0.0
  0
LINE
  8
0
 62
     0
 10
50.7189
 20
118.012
 30
0.0
 11
49.9195
 21
118.012
 31
0.0
  0
LINE
  8
0
 62
     0
 10
49.9195
 20
118.012
 30
0.0
 11
49.9195
 21
130.813
 31
0.0
  0
LINE
  8
0
 62
     0
 10
49.9195
 20
130.813
 30
0.0
 11
50.7189
 21
130.813
 31
0.0
  0
LINE
  8
0
 62
     0
 10
50.7189
 20
130.813
 30
0.0
 11
50.7189
 21
131.413
 31
0.0
  0
LINE
  8
0
 62
     0
 10
50.7189
 20
131.413
 30
0.0
 11
64.7181
 21
131.413
 31
0.0
  0
LINE
  8
0
 62
     0
 10
64.7181
 20
131.413
 30
0.0
 11
64.7181
 21
130.813
 31
0.0
  0
LINE
  8
0
 62
     0
 10
64.7181
 20
130.813
 30
0.0
 11
65.519
 21
130.813
 31
0.0
  0
LINE
  8
0
 62
     0
 10
65.519
 20
130.813
 30
0.0
 11
65.519
 21
118.012
 31
0.0
  0
LINE
  8
0
 62
     0
 10
65.519
 20
118.012
 30
0.0
 11
64.7181
 21
118.012
 31
0.0
  0
LINE
  8
0
 62
     0
 10
64.7181
 20
89.4373
 30
0.0
 11
64.7181
 21
88.8379
 31
0.0
  0
LINE
  8
0
 62
     0
 10
64.7181
 20
88.8379
 30
0.0
 11
50.7189
 21
88.8379
 31
0.0
  0
LINE
  8
0
 62
     0
 10
50.7189
 20
88.8379
 30
0.0
 11
50.7189
 21
89.4373
 31
0.0
  0
LINE
  8
0
 62
     0
 10
50.7189
 20
89.4373
 30
0.0
 11
49.9195
 21
89.4373
 31
0.0
  0
LINE
  8
0
 62
     0
 10
49.9195
 20
89.4373
 30
0.0
 11
49.9195
 21
102.238
 31
0.0
  0
LINE
  8
0
 62
     0
 10
49.9195
 20
102.238
 30
0.0
 11
50.7189
 21
102.238
 31
0.0
  0
LINE
  8
0
 62
     0
 10
50.7189
 20
102.238
 30
0.0
 11
50.7189
 21
102.838
 31
0.0
  0
LINE
  8
0
 62
     0
 10
50.7189
 20
102.838
 30
0.0
 11
64.7181
 21
102.838
 31
0.0
  0
LINE
  8
0
 62
     0
 10
64.7181
 20
102.838
 30
0.0
 11
64.7181
 21
102.238
 31
0.0
  0
LINE
  8
0
 62
     0
 10
64.7181
 20
102.238
 30
0.0
 11
65.519
 21
102.238
 31
0.0
  0
LINE
  8
0
 62
     0
 10
65.519
 20
102.238
 30
0.0
 11
65.519
 21
89.4373
 31
0.0
  0
LINE
  8
0
 62
     0
 10
65.519
 20
89.4373
 30
0.0
 11
64.7181
 21
89.4373
 31
0.0
  0
LINE
  8
0
 62
     0
 10
64.7181
 20
70.3873
 30
0.0
 11
64.7181
 21
69.7879
 31
0.0
  0
LINE
  8
0
 62
     0
 10
64.7181
 20
69.7879
 30
0.0
 11
50.7189
 21
69.7879
 31
0.0
  0
LINE
  8
0
 62
     0
 10
50.7189
 20
69.7879
 30
0.0
 11
50.7189
 21
70.3873
 31
0.0
  0
LINE
  8
0
 62
     0
 10
50.7189
 20
70.3873
 30
0.0
 11
49.9195
 21
70.3873
 31
0.0
  0
LINE
  8
0
 62
     0
 10
49.9195
 20
70.3873
 30
0.0
 11
49.9195
 21
83.1882
 31
0.0
  0
LINE
  8
0
 62
     0
 10
49.9195
 20
83.1882
 30
0.0
 11
50.7189
 21
83.1882
 31
0.0
  0
LINE
  8
0
 62
     0
 10
50.7189
 20
83.1882
 30
0.0
 11
50.7189
 21
83.7875
 31
0.0
  0
LINE
  8
0
 62
     0
 10
50.7189
 20
83.7875
 30
0.0
 11
64.7181
 21
83.7875
 31
0.0
  0
LINE
  8
0
 62
     0
 10
64.7181
 20
83.7875
 30
0.0
 11
64.7181
 21
83.1882
 31
0.0
  0
LINE
  8
0
 62
     0
 10
64.7181
 20
83.1882
 30
0.0
 11
65.519
 21
83.1882
 31
0.0
  0
LINE
  8
0
 62
     0
 10
65.519
 20
83.1882
 30
0.0
 11
65.519
 21
70.3873
 31
0.0
  0
LINE
  8
0
 62
     0
 10
65.519
 20
70.3873
 30
0.0
 11
64.7181
 21
70.3873
 31
0.0
  0
LINE
  8
0
 62
     0
 10
64.7181
 20
51.3373
 30
0.0
 11
64.7181
 21
50.7379
 31
0.0
  0
LINE
  8
0
 62
     0
 10
64.7181
 20
50.7379
 30
0.0
 11
50.7189
 21
50.7379
 31
0.0
  0
LINE
  8
0
 62
     0
 10
50.7189
 20
50.7379
 30
0.0
 11
50.7189
 21
51.3373
 31
0.0
  0
LINE
  8
0
 62
     0
 10
50.7189
 20
51.3373
 30
0.0
 11
49.9195
 21
51.3373
 31
0.0
  0
LINE
  8
0
 62
     0
 10
49.9195
 20
51.3373
 30
0.0
 11
49.9195
 21
64.1382
 31
0.0
  0
LINE
  8
0
 62
     0
 10
49.9195
 20
64.1382
 30
0.0
 11
50.7189
 21
64.1382
 31
0.0
  0
LINE
  8
0
 62
     0
 10
50.7189
 20
64.1382
 30
0.0
 11
50.7189
 21
64.7375
 31
0.0
  0
LINE
  8
0
 62
     0
 10
50.7189
 20
64.7375
 30
0.0
 11
64.7181
 21
64.7375
 31
0.0
  0
LINE
  8
0
 62
     0
 10
64.7181
 20
64.7375
 30
0.0
 11
64.7181
 21
64.1382
 31
0.0
  0
LINE
  8
0
 62
     0
 10
64.7181
 20
64.1382
 30
0.0
 11
65.519
 21
64.1382
 31
0.0
  0
LINE
  8
0
 62
     0
 10
65.519
 20
64.1382
 30
0.0
 11
65.519
 21
51.3373
 31
0.0
  0
LINE
  8
0
 62
     0
 10
65.519
 20
51.3373
 30
0.0
 11
64.7181
 21
51.3373
 31
0.0
  0
LINE
  8
0
 62
     0
 10
64.7181
 20
32.2874
 30
0.0
 11
64.7181
 21
31.688
 31
0.0
  0
LINE
  8
0
 62
     0
 10
64.7181
 20
31.688
 30
0.0
 11
50.7189
 21
31.688
 31
0.0
  0
LINE
  8
0
 62
     0
 10
50.7189
 20
31.688
 30
0.0
 11
50.7189
 21
32.2874
 31
0.0
  0
LINE
  8
0
 62
     0
 10
50.7189
 20
32.2874
 30
0.0
 11
49.9195
 21
32.2874
 31
0.0
  0
LINE
  8
0
 62
     0
 10
49.9195
 20
32.2874
 30
0.0
 11
49.9195
 21
45.0882
 31
0.0
  0
LINE
  8
0
 62
     0
 10
49.9195
 20
45.0882
 30
0.0
 11
50.7189
 21
45.0882
 31
0.0
  0
LINE
  8
0
 62
     0
 10
50.7189
 20
45.0882
 30
0.0
 11
50.7189
 21
45.6875
 31
0.0
  0
LINE
  8
0
 62
     0
 10
50.7189
 20
45.6875
 30
0.0
 11
64.7181
 21
45.6875
 31
0.0
  0
LINE
  8
0
 62
     0
 10
64.7181
 20
45.6875
 30
0.0
 11
64.7181
 21
45.0882
 31
0.0
  0
LINE
  8
0
 62
     0
 10
64.7181
 20
45.0882
 30
0.0
 11
65.519
 21
45.0882
 31
0.0
  0
LINE
  8
0
 62
     0
 10
65.519
 20
45.0882
 30
0.0
 11
65.519
 21
32.2874
 31
0.0
  0
LINE
  8
0
 62
     0
 10
65.519
 20
32.2874
 30
0.0
 11
64.7181
 21
32.2874
 31
0.0
  0
LINE
  8
0
 62
     0
 10
64.7181
 20
13.2374
 30
0.0
 11
64.7181
 21
12.638
 31
0.0
  0
LINE
  8
0
 62
     0
 10
64.7181
 20
12.638
 30
0.0
 11
50.7189
 21
12.638
 31
0.0
  0
LINE
  8
0
 62
     0
 10
50.7189
 20
12.638
 30
0.0
 11
50.7189
 21
13.2374
 31
0.0
  0
LINE
  8
0
 62
     0
 10
50.7189
 20
13.2374
 30
0.0
 11
49.9195
 21
13.2374
 31
0.0
  0
LINE
  8
0
 62
     0
 10
49.9195
 20
13.2374
 30
0.0
 11
49.9195
 21
26.038
 31
0.0
  0
LINE
  8
0
 62
     0
 10
49.9195
 20
26.038
 30
0.0
 11
50.7189
 21
26.038
 31
0.0
  0
LINE
  8
0
 62
     0
 10
50.7189
 20
26.038
 30
0.0
 11
50.7189
 21
26.6375
 31
0.0
  0
LINE
  8
0
 62
     0
 10
50.7189
 20
26.6375
 30
0.0
 11
64.7181
 21
26.6375
 31
0.0
  0
LINE
  8
0
 62
     0
 10
64.7181
 20
26.6375
 30
0.0
 11
64.7181
 21
26.038
 31
0.0
  0
LINE
  8
0
 62
     0
 10
64.7181
 20
26.038
 30
0.0
 11
65.519
 21
26.038
 31
0.0
  0
LINE
  8
0
 62
     0
 10
65.519
 20
26.038
 30
0.0
 11
65.519
 21
13.2374
 31
0.0
  0
LINE
  8
0
 62
     0
 10
65.519
 20
13.2374
 30
0.0
 11
64.7181
 21
13.2374
 31
0.0
  0
LINE
  8
0
 62
     0
 10
83.1688
 20
60.2629
 30
0.0
 11
83.1688
 21
59.4625
 31
0.0
  0
LINE
  8
0
 62
     0
 10
83.1688
 20
59.4625
 30
0.0
 11
81.4987
 21
59.4625
 31
0.0
  0
LINE
  8
0
 62
     0
 10
81.4987
 20
59.4625
 30
0.0
 11
81.4987
 21
58.6878
 31
0.0
  0
LINE
  8
0
 62
     0
 10
81.4987
 20
58.6878
 30
0.0
 11
82.2992
 21
58.6878
 31
0.0
  0
LINE
  8
0
 62
     0
 10
82.2992
 20
58.6878
 30
0.0
 11
82.2992
 21
56.9627
 31
0.0
  0
LINE
  8
0
 62
     0
 10
82.2992
 20
56.9627
 30
0.0
 11
83.2185
 21
56.9627
 31
0.0
  0
LINE
  8
0
 62
     0
 10
83.2185
 20
56.9627
 30
0.0
 11
83.2185
 21
53.6621
 31
0.0
  0
LINE
  8
0
 62
     0
 10
83.2185
 20
53.6621
 30
0.0
 11
82.2992
 21
53.6621
 31
0.0
  0
LINE
  8
0
 62
     0
 10
82.2992
 20
53.6621
 30
0.0
 11
82.2992
 21
52.0375
 31
0.0
  0
LINE
  8
0
 62
     0
 10
82.2992
 20
52.0375
 30
0.0
 11
79.0691
 21
52.0375
 31
0.0
  0
LINE
  8
0
 62
     0
 10
79.0691
 20
52.0375
 30
0.0
 11
79.0691
 21
51.1623
 31
0.0
  0
LINE
  8
0
 62
     0
 10
79.0691
 20
51.1623
 30
0.0
 11
76.2688
 21
51.1623
 31
0.0
  0
LINE
  8
0
 62
     0
 10
76.2688
 20
51.1623
 30
0.0
 11
76.2688
 21
52.0375
 31
0.0
  0
LINE
  8
0
 62
     0
 10
76.2688
 20
52.0375
 30
0.0
 11
69.9989
 21
52.0375
 31
0.0
  0
LINE
  8
0
 62
     0
 10
69.9989
 20
52.0375
 30
0.0
 11
69.9989
 21
53.6621
 31
0.0
  0
LINE
  8
0
 62
     0
 10
69.9989
 20
53.6621
 30
0.0
 11
69.0192
 21
53.6621
 31
0.0
  0
LINE
  8
0
 62
     0
 10
69.0192
 20
53.6621
 30
0.0
 11
69.0192
 21
56.9627
 31
0.0
  0
LINE
  8
0
 62
     0
 10
69.0192
 20
56.9627
 30
0.0
 11
69.9989
 21
56.9627
 31
0.0
  0
LINE
  8
0
 62
     0
 10
69.9989
 20
56.9627
 30
0.0
 11
69.9989
 21
58.6878
 31
0.0
  0
LINE
  8
0
 62
     0
 10
69.9989
 20
58.6878
 30
0.0
 11
70.7983
 21
58.6878
 31
0.0
  0
LINE
  8
0
 62
     0
 10
70.7983
 20
58.6878
 30
0.0
 11
70.7983
 21
59.4625
 31
0.0
  0
LINE
  8
0
 62
     0
 10
70.7983
 20
59.4625
 30
0.0
 11
70.3682
 21
59.4625
 31
0.0
  0
LINE
  8
0
 62
     0
 10
70.3682
 20
59.4625
 30
0.0
 11
70.3682
 21
60.2629
 31
0.0
  0
LINE
  8
0
 62
     0
 10
70.3682
 20
60.2629
 30
0.0
 11
69.7689
 21
60.2629
 31
0.0
  0
LINE
  8
0
 62
     0
 10
69.7689
 20
60.2629
 30
0.0
 11
69.7689
 21
74.2625
 31
0.0
  0
LINE
  8
0
 62
     0
 10
69.7689
 20
74.2625
 30
0.0
 11
70.3682
 21
74.2625
 31
0.0
  0
LINE
  8
0
 62
     0
 10
70.3682
 20
74.2625
 30
0.0
 11
70.3682
 21
75.0616
 31
0.0
  0
LINE
  8
0
 62
     0
 10
70.3682
 20
75.0616
 30
0.0
 11
70.7983
 21
75.0616
 31
0.0
  0
LINE
  8
0
 62
     0
 10
70.7983
 20
75.0616
 30
0.0
 11
70.7983
 21
75.8377
 31
0.0
  0
LINE
  8
0
 62
     0
 10
70.7983
 20
75.8377
 30
0.0
 11
69.9989
 21
75.8377
 31
0.0
  0
LINE
  8
0
 62
     0
 10
69.9989
 20
75.8377
 30
0.0
 11
69.9989
 21
77.5628
 31
0.0
  0
LINE
  8
0
 62
     0
 10
69.9989
 20
77.5628
 30
0.0
 11
69.0192
 21
77.5628
 31
0.0
  0
LINE
  8
0
 62
     0
 10
69.0192
 20
77.5628
 30
0.0
 11
69.0192
 21
80.862
 31
0.0
  0
LINE
  8
0
 62
     0
 10
69.0192
 20
80.862
 30
0.0
 11
69.9989
 21
80.862
 31
0.0
  0
LINE
  8
0
 62
     0
 10
69.9989
 20
80.862
 30
0.0
 11
69.9989
 21
82.4879
 31
0.0
  0
LINE
  8
0
 62
     0
 10
69.9989
 20
82.4879
 30
0.0
 11
76.2688
 21
82.4879
 31
0.0
  0
LINE
  8
0
 62
     0
 10
76.2688
 20
82.4879
 30
0.0
 11
76.2688
 21
83.3632
 31
0.0
  0
LINE
  8
0
 62
     0
 10
76.2688
 20
83.3632
 30
0.0
 11
79.0691
 21
83.3632
 31
0.0
  0
LINE
  8
0
 62
     0
 10
79.0691
 20
83.3632
 30
0.0
 11
79.0691
 21
82.4879
 31
0.0
  0
LINE
  8
0
 62
     0
 10
79.0691
 20
82.4879
 30
0.0
 11
82.2992
 21
82.4879
 31
0.0
  0
LINE
  8
0
 62
     0
 10
82.2992
 20
82.4879
 30
0.0
 11
82.2992
 21
80.862
 31
0.0
  0
LINE
  8
0
 62
     0
 10
82.2992
 20
80.862
 30
0.0
 11
83.2185
 21
80.862
 31
0.0
  0
LINE
  8
0
 62
     0
 10
83.2185
 20
80.862
 30
0.0
 11
83.2185
 21
77.5628
 31
0.0
  0
LINE
  8
0
 62
     0
 10
83.2185
 20
77.5628
 30
0.0
 11
82.2992
 21
77.5628
 31
0.0
  0
LINE
  8
0
 62
     0
 10
82.2992
 20
77.5628
 30
0.0
 11
82.2992
 21
75.8377
 31
0.0
  0
LINE
  8
0
 62
     0
 10
82.2992
 20
75.8377
 30
0.0
 11
81.4987
 21
75.8377
 31
0.0
  0
LINE
  8
0
 62
     0
 10
81.4987
 20
75.8377
 30
0.0
 11
81.4987
 21
75.0616
 31
0.0
  0
LINE
  8
0
 62
     0
 10
81.4987
 20
75.0616
 30
0.0
 11
83.1688
 21
75.0616
 31
0.0
  0
LINE
  8
0
 62
     0
 10
83.1688
 20
75.0616
 30
0.0
 11
83.1688
 21
74.2625
 31
0.0
  0
LINE
  8
0
 62
     0
 10
83.1688
 20
74.2625
 30
0.0
 11
83.7681
 21
74.2625
 31
0.0
  0
LINE
  8
0
 62
     0
 10
83.7681
 20
74.2625
 30
0.0
 11
83.7681
 21
60.2629
 31
0.0
  0
LINE
  8
0
 62
     0
 10
83.7681
 20
60.2629
 30
0.0
 11
83.1688
 21
60.2629
 31
0.0
  0
LINE
  8
0
 62
     0
 10
83.1688
 20
22.163
 30
0.0
 11
83.1688
 21
21.3624
 31
0.0
  0
LINE
  8
0
 62
     0
 10
83.1688
 20
21.3624
 30
0.0
 11
81.4987
 21
21.3624
 31
0.0
  0
LINE
  8
0
 62
     0
 10
81.4987
 20
21.3624
 30
0.0
 11
81.4987
 21
20.5879
 31
0.0
  0
LINE
  8
0
 62
     0
 10
81.4987
 20
20.5879
 30
0.0
 11
82.2992
 21
20.5879
 31
0.0
  0
LINE
  8
0
 62
     0
 10
82.2992
 20
20.5879
 30
0.0
 11
82.2992
 21
18.8626
 31
0.0
  0
LINE
  8
0
 62
     0
 10
82.2992
 20
18.8626
 30
0.0
 11
83.2185
 21
18.8626
 31
0.0
  0
LINE
  8
0
 62
     0
 10
83.2185
 20
18.8626
 30
0.0
 11
83.2185
 21
15.5622
 31
0.0
  0
LINE
  8
0
 62
     0
 10
83.2185
 20
15.5622
 30
0.0
 11
82.2992
 21
15.5622
 31
0.0
  0
LINE
  8
0
 62
     0
 10
82.2992
 20
15.5622
 30
0.0
 11
82.2992
 21
13.9375
 31
0.0
  0
LINE
  8
0
 62
     0
 10
82.2992
 20
13.9375
 30
0.0
 11
79.0691
 21
13.9375
 31
0.0
  0
LINE
  8
0
 62
     0
 10
79.0691
 20
13.9375
 30
0.0
 11
79.0691
 21
13.0624
 31
0.0
  0
LINE
  8
0
 62
     0
 10
79.0691
 20
13.0624
 30
0.0
 11
76.2688
 21
13.0624
 31
0.0
  0
LINE
  8
0
 62
     0
 10
76.2688
 20
13.0624
 30
0.0
 11
76.2688
 21
13.9375
 31
0.0
  0
LINE
  8
0
 62
     0
 10
76.2688
 20
13.9375
 30
0.0
 11
69.9989
 21
13.9375
 31
0.0
  0
LINE
  8
0
 62
     0
 10
69.9989
 20
13.9375
 30
0.0
 11
69.9989
 21
15.5622
 31
0.0
  0
LINE
  8
0
 62
     0
 10
69.9989
 20
15.5622
 30
0.0
 11
69.0192
 21
15.5622
 31
0.0
  0
LINE
  8
0
 62
     0
 10
69.0192
 20
15.5622
 30
0.0
 11
69.0192
 21
18.8626
 31
0.0
  0
LINE
  8
0
 62
     0
 10
69.0192
 20
18.8626
 30
0.0
 11
69.9989
 21
18.8626
 31
0.0
  0
LINE
  8
0
 62
     0
 10
69.9989
 20
18.8626
 30
0.0
 11
69.9989
 21
20.5879
 31
0.0
  0
LINE
  8
0
 62
     0
 10
69.9989
 20
20.5879
 30
0.0
 11
70.7983
 21
20.5879
 31
0.0
  0
LINE
  8
0
 62
     0
 10
70.7983
 20
20.5879
 30
0.0
 11
70.7983
 21
21.3624
 31
0.0
  0
LINE
  8
0
 62
     0
 10
70.7983
 20
21.3624
 30
0.0
 11
70.3682
 21
21.3624
 31
0.0
  0
LINE
  8
0
 62
     0
 10
70.3682
 20
21.3624
 30
0.0
 11
70.3682
 21
22.163
 31
0.0
  0
LINE
  8
0
 62
     0
 10
70.3682
 20
22.163
 30
0.0
 11
69.7689
 21
22.163
 31
0.0
  0
LINE
  8
0
 62
     0
 10
69.7689
 20
22.163
 30
0.0
 11
69.7689
 21
36.1625
 31
0.0
  0
LINE
  8
0
 62
     0
 10
69.7689
 20
36.1625
 30
0.0
 11
70.3682
 21
36.1625
 31
0.0
  0
LINE
  8
0
 62
     0
 10
70.3682
 20
36.1625
 30
0.0
 11
70.3682
 21
36.9616
 31
0.0
  0
LINE
  8
0
 62
     0
 10
70.3682
 20
36.9616
 30
0.0
 11
70.7983
 21
36.9616
 31
0.0
  0
LINE
  8
0
 62
     0
 10
70.7983
 20
36.9616
 30
0.0
 11
70.7983
 21
37.7377
 31
0.0
  0
LINE
  8
0
 62
     0
 10
70.7983
 20
37.7377
 30
0.0
 11
69.9989
 21
37.7377
 31
0.0
  0
LINE
  8
0
 62
     0
 10
69.9989
 20
37.7377
 30
0.0
 11
69.9989
 21
39.4628
 31
0.0
  0
LINE
  8
0
 62
     0
 10
69.9989
 20
39.4628
 30
0.0
 11
69.0192
 21
39.4628
 31
0.0
  0
LINE
  8
0
 62
     0
 10
69.0192
 20
39.4628
 30
0.0
 11
69.0192
 21
42.762
 31
0.0
  0
LINE
  8
0
 62
     0
 10
69.0192
 20
42.762
 30
0.0
 11
69.9989
 21
42.762
 31
0.0
  0
LINE
  8
0
 62
     0
 10
69.9989
 20
42.762
 30
0.0
 11
69.9989
 21
44.3879
 31
0.0
  0
LINE
  8
0
 62
     0
 10
69.9989
 20
44.3879
 30
0.0
 11
76.2688
 21
44.3879
 31
0.0
  0
LINE
  8
0
 62
     0
 10
76.2688
 20
44.3879
 30
0.0
 11
76.2688
 21
45.2632
 31
0.0
  0
LINE
  8
0
 62
     0
 10
76.2688
 20
45.2632
 30
0.0
 11
79.0691
 21
45.2632
 31
0.0
  0
LINE
  8
0
 62
     0
 10
79.0691
 20
45.2632
 30
0.0
 11
79.0691
 21
44.3879
 31
0.0
  0
LINE
  8
0
 62
     0
 10
79.0691
 20
44.3879
 30
0.0
 11
82.2992
 21
44.3879
 31
0.0
  0
LINE
  8
0
 62
     0
 10
82.2992
 20
44.3879
 30
0.0
 11
82.2992
 21
42.762
 31
0.0
  0
LINE
  8
0
 62
     0
 10
82.2992
 20
42.762
 30
0.0
 11
83.2185
 21
42.762
 31
0.0
  0
LINE
  8
0
 62
     0
 10
83.2185
 20
42.762
 30
0.0
 11
83.2185
 21
39.4628
 31
0.0
  0
LINE
  8
0
 62
     0
 10
83.2185
 20
39.4628
 30
0.0
 11
82.2992
 21
39.4628
 31
0.0
  0
LINE
  8
0
 62
     0
 10
82.2992
 20
39.4628
 30
0.0
 11
82.2992
 21
37.7377
 31
0.0
  0
LINE
  8
0
 62
     0
 10
82.2992
 20
37.7377
 30
0.0
 11
81.4987
 21
37.7377
 31
0.0
  0
LINE
  8
0
 62
     0
 10
81.4987
 20
37.7377
 30
0.0
 11
81.4987
 21
36.9616
 31
0.0
  0
LINE
  8
0
 62
     0
 10
81.4987
 20
36.9616
 30
0.0
 11
83.1688
 21
36.9616
 31
0.0
  0
LINE
  8
0
 62
     0
 10
83.1688
 20
36.9616
 30
0.0
 11
83.1688
 21
36.1625
 31
0.0
  0
LINE
  8
0
 62
     0
 10
83.1688
 20
36.1625
 30
0.0
 11
83.7681
 21
36.1625
 31
0.0
  0
LINE
  8
0
 62
     0
 10
83.7681
 20
36.1625
 30
0.0
 11
83.7681
 21
22.163
 31
0.0
  0
LINE
  8
0
 62
     0
 10
83.7681
 20
22.163
 30
0.0
 11
83.1688
 21
22.163
 31
0.0
  0
LINE
  8
0
 62
     0
 10
83.7681
 20
89.4373
 30
0.0
 11
83.7681
 21
88.8379
 31
0.0
  0
LINE
  8
0
 62
     0
 10
83.7681
 20
88.8379
 30
0.0
 11
69.7689
 21
88.8379
 31
0.0
  0
LINE
  8
0
 62
     0
 10
69.7689
 20
88.8379
 30
0.0
 11
69.7689
 21
89.4373
 31
0.0
  0
LINE
  8
0
 62
     0
 10
69.7689
 20
89.4373
 30
0.0
 11
68.9695
 21
89.4373
 31
0.0
  0
LINE
  8
0
 62
     0
 10
68.9695
 20
89.4373
 30
0.0
 11
68.9695
 21
102.238
 31
0.0
  0
LINE
  8
0
 62
     0
 10
68.9695
 20
102.238
 30
0.0
 11
69.7689
 21
102.238
 31
0.0
  0
LINE
  8
0
 62
     0
 10
69.7689
 20
102.238
 30
0.0
 11
69.7689
 21
102.838
 31
0.0
  0
LINE
  8
0
 62
     0
 10
69.7689
 20
102.838
 30
0.0
 11
83.7681
 21
102.838
 31
0.0
  0
LINE
  8
0
 62
     0
 10
83.7681
 20
102.838
 30
0.0
 11
83.7681
 21
102.238
 31
0.0
  0
LINE
  8
0
 62
     0
 10
83.7681
 20
102.238
 30
0.0
 11
84.569
 21
102.238
 31
0.0
  0
LINE
  8
0
 62
     0
 10
84.569
 20
102.238
 30
0.0
 11
84.569
 21
89.4373
 31
0.0
  0
LINE
  8
0
 62
     0
 10
84.569
 20
89.4373
 30
0.0
 11
83.7681
 21
89.4373
 31
0.0
  0
LINE
  8
0
 62
     0
 10
107.581
 20
118.012
 30
0.0
 11
107.581
 21
117.413
 31
0.0
  0
LINE
  8
0
 62
     0
 10
107.581
 20
117.413
 30
0.0
 11
93.5814
 21
117.413
 31
0.0
  0
LINE
  8
0
 62
     0
 10
93.5814
 20
117.413
 30
0.0
 11
93.5814
 21
118.012
 31
0.0
  0
LINE
  8
0
 62
     0
 10
93.5814
 20
118.012
 30
0.0
 11
92.782
 21
118.012
 31
0.0
  0
LINE
  8
0
 62
     0
 10
92.782
 20
118.012
 30
0.0
 11
92.782
 21
130.813
 31
0.0
  0
LINE
  8
0
 62
     0
 10
92.782
 20
130.813
 30
0.0
 11
93.5814
 21
130.813
 31
0.0
  0
LINE
  8
0
 62
     0
 10
93.5814
 20
130.813
 30
0.0
 11
93.5814
 21
131.413
 31
0.0
  0
LINE
  8
0
 62
     0
 10
93.5814
 20
131.413
 30
0.0
 11
107.581
 21
131.413
 31
0.0
  0
LINE
  8
0
 62
     0
 10
107.581
 20
131.413
 30
0.0
 11
107.581
 21
130.813
 31
0.0
  0
LINE
  8
0
 62
     0
 10
107.581
 20
130.813
 30
0.0
 11
108.381
 21
130.813
 31
0.0
  0
LINE
  8
0
 62
     0
 10
108.381
 20
130.813
 30
0.0
 11
108.381
 21
118.012
 31
0.0
  0
LINE
  8
0
 62
     0
 10
108.381
 20
118.012
 30
0.0
 11
107.581
 21
118.012
 31
0.0
  0
LINE
  8
0
 62
     0
 10
107.581
 20
89.4373
 30
0.0
 11
107.581
 21
88.8379
 31
0.0
  0
LINE
  8
0
 62
     0
 10
107.581
 20
88.8379
 30
0.0
 11
93.5814
 21
88.8379
 31
0.0
  0
LINE
  8
0
 62
     0
 10
93.5814
 20
88.8379
 30
0.0
 11
93.5814
 21
89.4373
 31
0.0
  0
LINE
  8
0
 62
     0
 10
93.5814
 20
89.4373
 30
0.0
 11
92.782
 21
89.4373
 31
0.0
  0
LINE
  8
0
 62
     0
 10
92.782
 20
89.4373
 30
0.0
 11
92.782
 21
102.238
 31
0.0
  0
LINE
  8
0
 62
     0
 10
92.782
 20
102.238
 30
0.0
 11
93.5814
 21
102.238
 31
0.0
  0
LINE
  8
0
 62
     0
 10
93.5814
 20
102.238
 30
0.0
 11
93.5814
 21
102.838
 31
0.0
  0
LINE
  8
0
 62
     0
 10
93.5814
 20
102.838
 30
0.0
 11
107.581
 21
102.838
 31
0.0
  0
LINE
  8
0
 62
     0
 10
107.581
 20
102.838
 30
0.0
 11
107.581
 21
102.238
 31
0.0
  0
LINE
  8
0
 62
     0
 10
107.581
 20
102.238
 30
0.0
 11
108.381
 21
102.238
 31
0.0
  0
LINE
  8
0
 62
     0
 10
108.381
 20
102.238
 30
0.0
 11
108.381
 21
89.4373
 31
0.0
  0
LINE
  8
0
 62
     0
 10
108.381
 20
89.4373
 30
0.0
 11
107.581
 21
89.4373
 31
0.0
  0
LINE
  8
0
 62
     0
 10
109.963
 20
13.2374
 30
0.0
 11
109.963
 21
12.638
 31
0.0
  0
LINE
  8
0
 62
     0
 10
109.963
 20
12.638
 30
0.0
 11
95.9626
 21
12.638
 31
0.0
  0
LINE
  8
0
 62
     0
 10
95.9626
 20
12.638
 30
0.0
 11
95.9626
 21
13.2374
 31
0.0
  0
LINE
  8
0
 62
     0
 10
95.9626
 20
13.2374
 30
0.0
 11
95.1632
 21
13.2374
 31
0.0
  0
LINE
  8
0
 62
     0
 10
95.1632
 20
13.2374
 30
0.0
 11
95.1632
 21
26.038
 31
0.0
  0
LINE
  8
0
 62
     0
 10
95.1632
 20
26.038
 30
0.0
 11
95.9626
 21
26.038
 31
0.0
  0
LINE
  8
0
 62
     0
 10
95.9626
 20
26.038
 30
0.0
 11
95.9626
 21
26.6375
 31
0.0
  0
LINE
  8
0
 62
     0
 10
95.9626
 20
26.6375
 30
0.0
 11
109.963
 21
26.6375
 31
0.0
  0
LINE
  8
0
 62
     0
 10
109.963
 20
26.6375
 30
0.0
 11
109.963
 21
26.038
 31
0.0
  0
LINE
  8
0
 62
     0
 10
109.963
 20
26.038
 30
0.0
 11
110.763
 21
26.038
 31
0.0
  0
LINE
  8
0
 62
     0
 10
110.763
 20
26.038
 30
0.0
 11
110.763
 21
13.2374
 31
0.0
  0
LINE
  8
0
 62
     0
 10
110.763
 20
13.2374
 30
0.0
 11
109.963
 21
13.2374
 31
0.0
  0
LINE
  8
0
 62
     0
 10
112.343
 20
70.3873
 30
0.0
 11
112.343
 21
69.7879
 31
0.0
  0
LINE
  8
0
 62
     0
 10
112.343
 20
69.7879
 30
0.0
 11
98.3439
 21
69.7879
 31
0.0
  0
LINE
  8
0
 62
     0
 10
98.3439
 20
69.7879
 30
0.0
 11
98.3439
 21
70.3873
 31
0.0
  0
LINE
  8
0
 62
     0
 10
98.3439
 20
70.3873
 30
0.0
 11
97.5445
 21
70.3873
 31
0.0
  0
LINE
  8
0
 62
     0
 10
97.5445
 20
70.3873
 30
0.0
 11
97.5445
 21
83.1882
 31
0.0
  0
LINE
  8
0
 62
     0
 10
97.5445
 20
83.1882
 30
0.0
 11
98.3439
 21
83.1882
 31
0.0
  0
LINE
  8
0
 62
     0
 10
98.3439
 20
83.1882
 30
0.0
 11
98.3439
 21
83.7875
 31
0.0
  0
LINE
  8
0
 62
     0
 10
98.3439
 20
83.7875
 30
0.0
 11
112.343
 21
83.7875
 31
0.0
  0
LINE
  8
0
 62
     0
 10
112.343
 20
83.7875
 30
0.0
 11
112.343
 21
83.1882
 31
0.0
  0
LINE
  8
0
 62
     0
 10
112.343
 20
83.1882
 30
0.0
 11
113.144
 21
83.1882
 31
0.0
  0
LINE
  8
0
 62
     0
 10
113.144
 20
83.1882
 30
0.0
 11
113.144
 21
70.3873
 31
0.0
  0
LINE
  8
0
 62
     0
 10
113.144
 20
70.3873
 30
0.0
 11
112.343
 21
70.3873
 31
0.0
  0
LINE
  8
0
 62
     0
 10
114.724
 20
51.3373
 30
0.0
 11
114.724
 21
50.7379
 31
0.0
  0
LINE
  8
0
 62
     0
 10
114.724
 20
50.7379
 30
0.0
 11
100.725
 21
50.7379
 31
0.0
  0
LINE
  8
0
 62
     0
 10
100.725
 20
50.7379
 30
0.0
 11
100.725
 21
51.3373
 31
0.0
  0
LINE
  8
0
 62
     0
 10
100.725
 20
51.3373
 30
0.0
 11
99.9243
 21
51.3373
 31
0.0
  0
LINE
  8
0
 62
     0
 10
99.9243
 20
51.3373
 30
0.0
 11
99.9243
 21
64.1382
 31
0.0
  0
LINE
  8
0
 62
     0
 10
99.9243
 20
64.1382
 30
0.0
 11
100.725
 21
64.1382
 31
0.0
  0
LINE
  8
0
 62
     0
 10
100.725
 20
64.1382
 30
0.0
 11
100.725
 21
64.7375
 31
0.0
  0
LINE
  8
0
 62
     0
 10
100.725
 20
64.7375
 30
0.0
 11
114.724
 21
64.7375
 31
0.0
  0
LINE
  8
0
 62
     0
 10
114.724
 20
64.7375
 30
0.0
 11
114.724
 21
64.1382
 31
0.0
  0
LINE
  8
0
 62
     0
 10
114.724
 20
64.1382
 30
0.0
 11
115.525
 21
64.1382
 31
0.0
  0
LINE
  8
0
 62
     0
 10
115.525
 20
64.1382
 30
0.0
 11
115.525
 21
51.3373
 31
0.0
  0
LINE
  8
0
 62
     0
 10
115.525
 20
51.3373
 30
0.0
 11
114.724
 21
51.3373
 31
0.0
  0
LINE
  8
0
 62
     0
 10
126.631
 20
89.4373
 30
0.0
 11
126.631
 21
88.8379
 31
0.0
  0
LINE
  8
0
 62
     0
 10
126.631
 20
88.8379
 30
0.0
 11
112.631
 21
88.8379
 31
0.0
  0
LINE
  8
0
 62
     0
 10
112.631
 20
88.8379
 30
0.0
 11
112.631
 21
89.4373
 31
0.0
  0
LINE
  8
0
 62
     0
 10
112.631
 20
89.4373
 30
0.0
 11
111.831
 21
89.4373
 31
0.0
  0
LINE
  8
0
 62
     0
 10
111.831
 20
89.4373
 30
0.0
 11
111.831
 21
102.238
 31
0.0
  0
LINE
  8
0
 62
     0
 10
111.831
 20
102.238
 30
0.0
 11
112.631
 21
102.238
 31
0.0
  0
LINE
  8
0
 62
     0
 10
112.631
 20
102.238
 30
0.0
 11
112.631
 21
102.838
 31
0.0
  0
LINE
  8
0
 62
     0
 10
112.631
 20
102.838
 30
0.0
 11
126.631
 21
102.838
 31
0.0
  0
LINE
  8
0
 62
     0
 10
126.631
 20
102.838
 30
0.0
 11
126.631
 21
102.238
 31
0.0
  0
LINE
  8
0
 62
     0
 10
126.631
 20
102.238
 30
0.0
 11
127.431
 21
102.238
 31
0.0
  0
LINE
  8
0
 62
     0
 10
127.431
 20
102.238
 30
0.0
 11
127.431
 21
89.4373
 31
0.0
  0
LINE
  8
0
 62
     0
 10
127.431
 20
89.4373
 30
0.0
 11
126.631
 21
89.4373
 31
0.0
  0
LINE
  8
0
 62
     0
 10
127.713
 20
38.1868
 30
0.0
 11
127.713
 21
31.9168
 31
0.0
  0
LINE
  8
0
 62
     0
 10
127.713
 20
31.9168
 30
0.0
 11
126.088
 21
31.9168
 31
0.0
  0
LINE
  8
0
 62
     0
 10
126.088
 20
31.9168
 30
0.0
 11
126.088
 21
30.937
 31
0.0
  0
LINE
  8
0
 62
     0
 10
126.088
 20
30.937
 30
0.0
 11
122.787
 21
30.937
 31
0.0
  0
LINE
  8
0
 62
     0
 10
122.787
 20
30.937
 30
0.0
 11
122.787
 21
31.9168
 31
0.0
  0
LINE
  8
0
 62
     0
 10
122.787
 20
31.9168
 30
0.0
 11
121.063
 21
31.9168
 31
0.0
  0
LINE
  8
0
 62
     0
 10
121.063
 20
31.9168
 30
0.0
 11
121.063
 21
32.7174
 31
0.0
  0
LINE
  8
0
 62
     0
 10
121.063
 20
32.7174
 30
0.0
 11
120.288
 21
32.7174
 31
0.0
  0
LINE
  8
0
 62
     0
 10
120.288
 20
32.7174
 30
0.0
 11
120.288
 21
32.2874
 31
0.0
  0
LINE
  8
0
 62
     0
 10
120.288
 20
32.2874
 30
0.0
 11
119.488
 21
32.2874
 31
0.0
  0
LINE
  8
0
 62
     0
 10
119.488
 20
32.2874
 30
0.0
 11
119.488
 21
31.688
 31
0.0
  0
LINE
  8
0
 62
     0
 10
119.488
 20
31.688
 30
0.0
 11
105.488
 21
31.688
 31
0.0
  0
LINE
  8
0
 62
     0
 10
105.488
 20
31.688
 30
0.0
 11
105.488
 21
32.2874
 31
0.0
  0
LINE
  8
0
 62
     0
 10
105.488
 20
32.2874
 30
0.0
 11
104.688
 21
32.2874
 31
0.0
  0
LINE
  8
0
 62
     0
 10
104.688
 20
32.2874
 30
0.0
 11
104.688
 21
32.7174
 31
0.0
  0
LINE
  8
0
 62
     0
 10
104.688
 20
32.7174
 30
0.0
 11
103.912
 21
32.7174
 31
0.0
  0
LINE
  8
0
 62
     0
 10
103.912
 20
32.7174
 30
0.0
 11
103.912
 21
31.9168
 31
0.0
  0
LINE
  8
0
 62
     0
 10
103.912
 20
31.9168
 30
0.0
 11
102.188
 21
31.9168
 31
0.0
  0
LINE
  8
0
 62
     0
 10
102.188
 20
31.9168
 30
0.0
 11
102.188
 21
30.937
 31
0.0
  0
LINE
  8
0
 62
     0
 10
102.188
 20
30.937
 30
0.0
 11
98.8882
 21
30.937
 31
0.0
  0
LINE
  8
0
 62
     0
 10
98.8882
 20
30.937
 30
0.0
 11
98.8882
 21
31.9168
 31
0.0
  0
LINE
  8
0
 62
     0
 10
98.8882
 20
31.9168
 30
0.0
 11
97.2633
 21
31.9168
 31
0.0
  0
LINE
  8
0
 62
     0
 10
97.2633
 20
31.9168
 30
0.0
 11
97.2633
 21
38.1868
 31
0.0
  0
LINE
  8
0
 62
     0
 10
97.2633
 20
38.1868
 30
0.0
 11
96.3884
 21
38.1868
 31
0.0
  0
LINE
  8
0
 62
     0
 10
96.3884
 20
38.1868
 30
0.0
 11
96.3884
 21
40.9871
 31
0.0
  0
LINE
  8
0
 62
     0
 10
96.3884
 20
40.9871
 30
0.0
 11
97.2633
 21
40.9871
 31
0.0
  0
LINE
  8
0
 62
     0
 10
97.2633
 20
40.9871
 30
0.0
 11
97.2633
 21
44.2172
 31
0.0
  0
LINE
  8
0
 62
     0
 10
97.2633
 20
44.2172
 30
0.0
 11
98.8882
 21
44.2172
 31
0.0
  0
LINE
  8
0
 62
     0
 10
98.8882
 20
44.2172
 30
0.0
 11
98.8882
 21
45.1376
 31
0.0
  0
LINE
  8
0
 62
     0
 10
98.8882
 20
45.1376
 30
0.0
 11
102.188
 21
45.1376
 31
0.0
  0
LINE
  8
0
 62
     0
 10
102.188
 20
45.1376
 30
0.0
 11
102.188
 21
44.2172
 31
0.0
  0
LINE
  8
0
 62
     0
 10
102.188
 20
44.2172
 30
0.0
 11
103.912
 21
44.2172
 31
0.0
  0
LINE
  8
0
 62
     0
 10
103.912
 20
44.2172
 30
0.0
 11
103.912
 21
43.4178
 31
0.0
  0
LINE
  8
0
 62
     0
 10
103.912
 20
43.4178
 30
0.0
 11
104.688
 21
43.4178
 31
0.0
  0
LINE
  8
0
 62
     0
 10
104.688
 20
43.4178
 30
0.0
 11
104.688
 21
45.0882
 31
0.0
  0
LINE
  8
0
 62
     0
 10
104.688
 20
45.0882
 30
0.0
 11
105.488
 21
45.0882
 31
0.0
  0
LINE
  8
0
 62
     0
 10
105.488
 20
45.0882
 30
0.0
 11
105.488
 21
45.6875
 31
0.0
  0
LINE
  8
0
 62
     0
 10
105.488
 20
45.6875
 30
0.0
 11
119.488
 21
45.6875
 31
0.0
  0
LINE
  8
0
 62
     0
 10
119.488
 20
45.6875
 30
0.0
 11
119.488
 21
45.0882
 31
0.0
  0
LINE
  8
0
 62
     0
 10
119.488
 20
45.0882
 30
0.0
 11
120.288
 21
45.0882
 31
0.0
  0
LINE
  8
0
 62
     0
 10
120.288
 20
45.0882
 30
0.0
 11
120.288
 21
43.4178
 31
0.0
  0
LINE
  8
0
 62
     0
 10
120.288
 20
43.4178
 30
0.0
 11
121.063
 21
43.4178
 31
0.0
  0
LINE
  8
0
 62
     0
 10
121.063
 20
43.4178
 30
0.0
 11
121.063
 21
44.2172
 31
0.0
  0
LINE
  8
0
 62
     0
 10
121.063
 20
44.2172
 30
0.0
 11
122.787
 21
44.2172
 31
0.0
  0
LINE
  8
0
 62
     0
 10
122.787
 20
44.2172
 30
0.0
 11
122.787
 21
45.1376
 31
0.0
  0
LINE
  8
0
 62
     0
 10
122.787
 20
45.1376
 30
0.0
 11
126.088
 21
45.1376
 31
0.0
  0
LINE
  8
0
 62
     0
 10
126.088
 20
45.1376
 30
0.0
 11
126.088
 21
44.2172
 31
0.0
  0
LINE
  8
0
 62
     0
 10
126.088
 20
44.2172
 30
0.0
 11
127.713
 21
44.2172
 31
0.0
  0
LINE
  8
0
 62
     0
 10
127.713
 20
44.2172
 30
0.0
 11
127.713
 21
40.9871
 31
0.0
  0
LINE
  8
0
 62
     0
 10
127.713
 20
40.9871
 30
0.0
 11
128.588
 21
40.9871
 31
0.0
  0
LINE
  8
0
 62
     0
 10
128.588
 20
40.9871
 30
0.0
 11
128.588
 21
38.1868
 31
0.0
  0
LINE
  8
0
 62
     0
 10
128.588
 20
38.1868
 30
0.0
 11
127.713
 21
38.1868
 31
0.0
  0
LINE
  8
0
 62
     0
 10
133.774
 20
13.2374
 30
0.0
 11
133.774
 21
12.638
 31
0.0
  0
LINE
  8
0
 62
     0
 10
133.774
 20
12.638
 30
0.0
 11
119.775
 21
12.638
 31
0.0
  0
LINE
  8
0
 62
     0
 10
119.775
 20
12.638
 30
0.0
 11
119.775
 21
13.2374
 31
0.0
  0
LINE
  8
0
 62
     0
 10
119.775
 20
13.2374
 30
0.0
 11
118.974
 21
13.2374
 31
0.0
  0
LINE
  8
0
 62
     0
 10
118.974
 20
13.2374
 30
0.0
 11
118.974
 21
26.038
 31
0.0
  0
LINE
  8
0
 62
     0
 10
118.974
 20
26.038
 30
0.0
 11
119.775
 21
26.038
 31
0.0
  0
LINE
  8
0
 62
     0
 10
119.775
 20
26.038
 30
0.0
 11
119.775
 21
26.6375
 31
0.0
  0
LINE
  8
0
 62
     0
 10
119.775
 20
26.6375
 30
0.0
 11
133.774
 21
26.6375
 31
0.0
  0
LINE
  8
0
 62
     0
 10
133.774
 20
26.6375
 30
0.0
 11
133.774
 21
26.038
 31
0.0
  0
LINE
  8
0
 62
     0
 10
133.774
 20
26.038
 30
0.0
 11
134.575
 21
26.038
 31
0.0
  0
LINE
  8
0
 62
     0
 10
134.575
 20
26.038
 30
0.0
 11
134.575
 21
13.2374
 31
0.0
  0
LINE
  8
0
 62
     0
 10
134.575
 20
13.2374
 30
0.0
 11
133.774
 21
13.2374
 31
0.0
  0
LINE
  8
0
 62
     0
 10
136.156
 20
70.3873
 30
0.0
 11
136.156
 21
69.7879
 31
0.0
  0
LINE
  8
0
 62
     0
 10
136.156
 20
69.7879
 30
0.0
 11
122.156
 21
69.7879
 31
0.0
  0
LINE
  8
0
 62
     0
 10
122.156
 20
69.7879
 30
0.0
 11
122.156
 21
70.3873
 31
0.0
  0
LINE
  8
0
 62
     0
 10
122.156
 20
70.3873
 30
0.0
 11
121.357
 21
70.3873
 31
0.0
  0
LINE
  8
0
 62
     0
 10
121.357
 20
70.3873
 30
0.0
 11
121.357
 21
83.1882
 31
0.0
  0
LINE
  8
0
 62
     0
 10
121.357
 20
83.1882
 30
0.0
 11
122.156
 21
83.1882
 31
0.0
  0
LINE
  8
0
 62
     0
 10
122.156
 20
83.1882
 30
0.0
 11
122.156
 21
83.7875
 31
0.0
  0
LINE
  8
0
 62
     0
 10
122.156
 20
83.7875
 30
0.0
 11
136.156
 21
83.7875
 31
0.0
  0
LINE
  8
0
 62
     0
 10
136.156
 20
83.7875
 30
0.0
 11
136.156
 21
83.1882
 31
0.0
  0
LINE
  8
0
 62
     0
 10
136.156
 20
83.1882
 30
0.0
 11
136.956
 21
83.1882
 31
0.0
  0
LINE
  8
0
 62
     0
 10
136.956
 20
83.1882
 30
0.0
 11
136.956
 21
70.3873
 31
0.0
  0
LINE
  8
0
 62
     0
 10
136.956
 20
70.3873
 30
0.0
 11
136.156
 21
70.3873
 31
0.0
  0
LINE
  8
0
 62
     0
 10
140.918
 20
51.3373
 30
0.0
 11
140.918
 21
50.7379
 31
0.0
  0
LINE
  8
0
 62
     0
 10
140.918
 20
50.7379
 30
0.0
 11
126.919
 21
50.7379
 31
0.0
  0
LINE
  8
0
 62
     0
 10
126.919
 20
50.7379
 30
0.0
 11
126.919
 21
51.3373
 31
0.0
  0
LINE
  8
0
 62
     0
 10
126.919
 20
51.3373
 30
0.0
 11
126.119
 21
51.3373
 31
0.0
  0
LINE
  8
0
 62
     0
 10
126.119
 20
51.3373
 30
0.0
 11
126.119
 21
64.1382
 31
0.0
  0
LINE
  8
0
 62
     0
 10
126.119
 20
64.1382
 30
0.0
 11
126.919
 21
64.1382
 31
0.0
  0
LINE
  8
0
 62
     0
 10
126.919
 20
64.1382
 30
0.0
 11
126.919
 21
64.7375
 31
0.0
  0
LINE
  8
0
 62
     0
 10
126.919
 20
64.7375
 30
0.0
 11
140.918
 21
64.7375
 31
0.0
  0
LINE
  8
0
 62
     0
 10
140.918
 20
64.7375
 30
0.0
 11
140.918
 21
64.1382
 31
0.0
  0
LINE
  8
0
 62
     0
 10
140.918
 20
64.1382
 30
0.0
 11
141.719
 21
64.1382
 31
0.0
  0
LINE
  8
0
 62
     0
 10
141.719
 20
64.1382
 30
0.0
 11
141.719
 21
51.3373
 31
0.0
  0
LINE
  8
0
 62
     0
 10
141.719
 20
51.3373
 30
0.0
 11
140.918
 21
51.3373
 31
0.0
  0
LINE
  8
0
 62
     0
 10
145.682
 20
118.012
 30
0.0
 11
145.682
 21
117.413
 31
0.0
  0
LINE
  8
0
 62
     0
 10
145.682
 20
117.413
 30
0.0
 11
131.681
 21
117.413
 31
0.0
  0
LINE
  8
0
 62
     0
 10
131.681
 20
117.413
 30
0.0
 11
131.681
 21
118.012
 31
0.0
  0
LINE
  8
0
 62
     0
 10
131.681
 20
118.012
 30
0.0
 11
130.881
 21
118.012
 31
0.0
  0
LINE
  8
0
 62
     0
 10
130.881
 20
118.012
 30
0.0
 11
130.881
 21
130.813
 31
0.0
  0
LINE
  8
0
 62
     0
 10
130.881
 20
130.813
 30
0.0
 11
131.681
 21
130.813
 31
0.0
  0
LINE
  8
0
 62
     0
 10
131.681
 20
130.813
 30
0.0
 11
131.681
 21
131.413
 31
0.0
  0
LINE
  8
0
 62
     0
 10
131.681
 20
131.413
 30
0.0
 11
145.682
 21
131.413
 31
0.0
  0
LINE
  8
0
 62
     0
 10
145.682
 20
131.413
 30
0.0
 11
145.682
 21
130.813
 31
0.0
  0
LINE
  8
0
 62
     0
 10
145.682
 20
130.813
 30
0.0
 11
146.481
 21
130.813
 31
0.0
  0
LINE
  8
0
 62
     0
 10
146.481
 20
130.813
 30
0.0
 11
146.481
 21
118.012
 31
0.0
  0
LINE
  8
0
 62
     0
 10
146.481
 20
118.012
 30
0.0
 11
145.682
 21
118.012
 31
0.0
  0
LINE
  8
0
 62
     0
 10
145.682
 20
89.4373
 30
0.0
 11
145.682
 21
88.8379
 31
0.0
  0
LINE
  8
0
 62
     0
 10
145.682
 20
88.8379
 30
0.0
 11
131.681
 21
88.8379
 31
0.0
  0
LINE
  8
0
 62
     0
 10
131.681
 20
88.8379
 30
0.0
 11
131.681
 21
89.4373
 31
0.0
  0
LINE
  8
0
 62
     0
 10
131.681
 20
89.4373
 30
0.0
 11
130.881
 21
89.4373
 31
0.0
  0
LINE
  8
0
 62
     0
 10
130.881
 20
89.4373
 30
0.0
 11
130.881
 21
102.238
 31
0.0
  0
LINE
  8
0
 62
     0
 10
130.881
 20
102.238
 30
0.0
 11
131.681
 21
102.238
 31
0.0
  0
LINE
  8
0
 62
     0
 10
131.681
 20
102.238
 30
0.0
 11
131.681
 21
102.838
 31
0.0
  0
LINE
  8
0
 62
     0
 10
131.681
 20
102.838
 30
0.0
 11
145.682
 21
102.838
 31
0.0
  0
LINE
  8
0
 62
     0
 10
145.682
 20
102.838
 30
0.0
 11
145.682
 21
102.238
 31
0.0
  0
LINE
  8
0
 62
     0
 10
145.682
 20
102.238
 30
0.0
 11
146.481
 21
102.238
 31
0.0
  0
LINE
  8
0
 62
     0
 10
146.481
 20
102.238
 30
0.0
 11
146.481
 21
89.4373
 31
0.0
  0
LINE
  8
0
 62
     0
 10
146.481
 20
89.4373
 30
0.0
 11
145.682
 21
89.4373
 31
0.0
  0
LINE
  8
0
 62
     0
 10
150.443
 20
32.2874
 30
0.0
 11
150.443
 21
31.688
 31
0.0
  0
LINE
  8
0
 62
     0
 10
150.443
 20
31.688
 30
0.0
 11
136.444
 21
31.688
 31
0.0
  0
LINE
  8
0
 62
     0
 10
136.444
 20
31.688
 30
0.0
 11
136.444
 21
32.2874
 31
0.0
  0
LINE
  8
0
 62
     0
 10
136.444
 20
32.2874
 30
0.0
 11
135.644
 21
32.2874
 31
0.0
  0
LINE
  8
0
 62
     0
 10
135.644
 20
32.2874
 30
0.0
 11
135.644
 21
45.0882
 31
0.0
  0
LINE
  8
0
 62
     0
 10
135.644
 20
45.0882
 30
0.0
 11
136.444
 21
45.0882
 31
0.0
  0
LINE
  8
0
 62
     0
 10
136.444
 20
45.0882
 30
0.0
 11
136.444
 21
45.6875
 31
0.0
  0
LINE
  8
0
 62
     0
 10
136.444
 20
45.6875
 30
0.0
 11
150.443
 21
45.6875
 31
0.0
  0
LINE
  8
0
 62
     0
 10
150.443
 20
45.6875
 30
0.0
 11
150.443
 21
45.0882
 31
0.0
  0
LINE
  8
0
 62
     0
 10
150.443
 20
45.0882
 30
0.0
 11
151.244
 21
45.0882
 31
0.0
  0
LINE
  8
0
 62
     0
 10
151.244
 20
45.0882
 30
0.0
 11
151.244
 21
32.2874
 31
0.0
  0
LINE
  8
0
 62
     0
 10
151.244
 20
32.2874
 30
0.0
 11
150.443
 21
32.2874
 31
0.0
  0
LINE
  8
0
 62
     0
 10
155.207
 20
70.3873
 30
0.0
 11
155.207
 21
69.7879
 31
0.0
  0
LINE
  8
0
 62
     0
 10
155.207
 20
69.7879
 30
0.0
 11
141.206
 21
69.7879
 31
0.0
  0
LINE
  8
0
 62
     0
 10
141.206
 20
69.7879
 30
0.0
 11
141.206
 21
70.3873
 31
0.0
  0
LINE
  8
0
 62
     0
 10
141.206
 20
70.3873
 30
0.0
 11
140.406
 21
70.3873
 31
0.0
  0
LINE
  8
0
 62
     0
 10
140.406
 20
70.3873
 30
0.0
 11
140.406
 21
83.1882
 31
0.0
  0
LINE
  8
0
 62
     0
 10
140.406
 20
83.1882
 30
0.0
 11
141.206
 21
83.1882
 31
0.0
  0
LINE
  8
0
 62
     0
 10
141.206
 20
83.1882
 30
0.0
 11
141.206
 21
83.7875
 31
0.0
  0
LINE
  8
0
 62
     0
 10
141.206
 20
83.7875
 30
0.0
 11
155.207
 21
83.7875
 31
0.0
  0
LINE
  8
0
 62
     0
 10
155.207
 20
83.7875
 30
0.0
 11
155.207
 21
83.1882
 31
0.0
  0
LINE
  8
0
 62
     0
 10
155.207
 20
83.1882
 30
0.0
 11
156.006
 21
83.1882
 31
0.0
  0
LINE
  8
0
 62
     0
 10
156.006
 20
83.1882
 30
0.0
 11
156.006
 21
70.3873
 31
0.0
  0
LINE
  8
0
 62
     0
 10
156.006
 20
70.3873
 30
0.0
 11
155.207
 21
70.3873
 31
0.0
  0
LINE
  8
0
 62
     0
 10
157.588
 20
13.2374
 30
0.0
 11
157.588
 21
12.638
 31
0.0
  0
LINE
  8
0
 62
     0
 10
157.588
 20
12.638
 30
0.0
 11
143.588
 21
12.638
 31
0.0
  0
LINE
  8
0
 62
     0
 10
143.588
 20
12.638
 30
0.0
 11
143.588
 21
13.2374
 31
0.0
  0
LINE
  8
0
 62
     0
 10
143.588
 20
13.2374
 30
0.0
 11
142.788
 21
13.2374
 31
0.0
  0
LINE
  8
0
 62
     0
 10
142.788
 20
13.2374
 30
0.0
 11
142.788
 21
26.038
 31
0.0
  0
LINE
  8
0
 62
     0
 10
142.788
 20
26.038
 30
0.0
 11
143.588
 21
26.038
 31
0.0
  0
LINE
  8
0
 62
     0
 10
143.588
 20
26.038
 30
0.0
 11
143.588
 21
26.6375
 31
0.0
  0
LINE
  8
0
 62
     0
 10
143.588
 20
26.6375
 30
0.0
 11
157.588
 21
26.6375
 31
0.0
  0
LINE
  8
0
 62
     0
 10
157.588
 20
26.6375
 30
0.0
 11
157.588
 21
26.038
 31
0.0
  0
LINE
  8
0
 62
     0
 10
157.588
 20
26.038
 30
0.0
 11
158.388
 21
26.038
 31
0.0
  0
LINE
  8
0
 62
     0
 10
158.388
 20
26.038
 30
0.0
 11
158.388
 21
13.2374
 31
0.0
  0
LINE
  8
0
 62
     0
 10
158.388
 20
13.2374
 30
0.0
 11
157.588
 21
13.2374
 31
0.0
  0
LINE
  8
0
 62
     0
 10
159.968
 20
51.3373
 30
0.0
 11
159.968
 21
50.7379
 31
0.0
  0
LINE
  8
0
 62
     0
 10
159.968
 20
50.7379
 30
0.0
 11
145.969
 21
50.7379
 31
0.0
  0
LINE
  8
0
 62
     0
 10
145.969
 20
50.7379
 30
0.0
 11
145.969
 21
51.3373
 31
0.0
  0
LINE
  8
0
 62
     0
 10
145.969
 20
51.3373
 30
0.0
 11
145.169
 21
51.3373
 31
0.0
  0
LINE
  8
0
 62
     0
 10
145.169
 20
51.3373
 30
0.0
 11
145.169
 21
64.1382
 31
0.0
  0
LINE
  8
0
 62
     0
 10
145.169
 20
64.1382
 30
0.0
 11
145.969
 21
64.1382
 31
0.0
  0
LINE
  8
0
 62
     0
 10
145.969
 20
64.1382
 30
0.0
 11
145.969
 21
64.7375
 31
0.0
  0
LINE
  8
0
 62
     0
 10
145.969
 20
64.7375
 30
0.0
 11
159.968
 21
64.7375
 31
0.0
  0
LINE
  8
0
 62
     0
 10
159.968
 20
64.7375
 30
0.0
 11
159.968
 21
64.1382
 31
0.0
  0
LINE
  8
0
 62
     0
 10
159.968
 20
64.1382
 30
0.0
 11
160.769
 21
64.1382
 31
0.0
  0
LINE
  8
0
 62
     0
 10
160.769
 20
64.1382
 30
0.0
 11
160.769
 21
51.3373
 31
0.0
  0
LINE
  8
0
 62
     0
 10
160.769
 20
51.3373
 30
0.0
 11
159.968
 21
51.3373
 31
0.0
  0
LINE
  8
0
 62
     0
 10
164.732
 20
118.012
 30
0.0
 11
164.732
 21
117.413
 31
0.0
  0
LINE
  8
0
 62
     0
 10
164.732
 20
117.413
 30
0.0
 11
150.731
 21
117.413
 31
0.0
  0
LINE
  8
0
 62
     0
 10
150.731
 20
117.413
 30
0.0
 11
150.731
 21
118.012
 31
0.0
  0
LINE
  8
0
 62
     0
 10
150.731
 20
118.012
 30
0.0
 11
149.932
 21
118.012
 31
0.0
  0
LINE
  8
0
 62
     0
 10
149.932
 20
118.012
 30
0.0
 11
149.932
 21
130.813
 31
0.0
  0
LINE
  8
0
 62
     0
 10
149.932
 20
130.813
 30
0.0
 11
150.731
 21
130.813
 31
0.0
  0
LINE
  8
0
 62
     0
 10
150.731
 20
130.813
 30
0.0
 11
150.731
 21
131.413
 31
0.0
  0
LINE
  8
0
 62
     0
 10
150.731
 20
131.413
 30
0.0
 11
164.732
 21
131.413
 31
0.0
  0
LINE
  8
0
 62
     0
 10
164.732
 20
131.413
 30
0.0
 11
164.732
 21
130.813
 31
0.0
  0
LINE
  8
0
 62
     0
 10
164.732
 20
130.813
 30
0.0
 11
165.531
 21
130.813
 31
0.0
  0
LINE
  8
0
 62
     0
 10
165.531
 20
130.813
 30
0.0
 11
165.531
 21
118.012
 31
0.0
  0
LINE
  8
0
 62
     0
 10
165.531
 20
118.012
 30
0.0
 11
164.732
 21
118.012
 31
0.0
  0
LINE
  8
0
 62
     0
 10
164.732
 20
89.4373
 30
0.0
 11
164.732
 21
88.8379
 31
0.0
  0
LINE
  8
0
 62
     0
 10
164.732
 20
88.8379
 30
0.0
 11
150.731
 21
88.8379
 31
0.0
  0
LINE
  8
0
 62
     0
 10
150.731
 20
88.8379
 30
0.0
 11
150.731
 21
89.4373
 31
0.0
  0
LINE
  8
0
 62
     0
 10
150.731
 20
89.4373
 30
0.0
 11
149.932
 21
89.4373
 31
0.0
  0
LINE
  8
0
 62
     0
 10
149.932
 20
89.4373
 30
0.0
 11
149.932
 21
102.238
 31
0.0
  0
LINE
  8
0
 62
     0
 10
149.932
 20
102.238
 30
0.0
 11
150.731
 21
102.238
 31
0.0
  0
LINE
  8
0
 62
     0
 10
150.731
 20
102.238
 30
0.0
 11
150.731
 21
102.838
 31
0.0
  0
LINE
  8
0
 62
     0
 10
150.731
 20
102.838
 30
0.0
 11
164.732
 21
102.838
 31
0.0
  0
LINE
  8
0
 62
     0
 10
164.732
 20
102.838
 30
0.0
 11
164.732
 21
102.238
 31
0.0
  0
LINE
  8
0
 62
     0
 10
164.732
 20
102.238
 30
0.0
 11
165.531
 21
102.238
 31
0.0
  0
LINE
  8
0
 62
     0
 10
165.531
 20
102.238
 30
0.0
 11
165.531
 21
89.4373
 31
0.0
  0
LINE
  8
0
 62
     0
 10
165.531
 20
89.4373
 30
0.0
 11
164.732
 21
89.4373
 31
0.0
  0
LINE
  8
0
 62
     0
 10
169.493
 20
32.2874
 30
0.0
 11
169.493
 21
31.688
 31
0.0
  0
LINE
  8
0
 62
     0
 10
169.493
 20
31.688
 30
0.0
 11
155.494
 21
31.688
 31
0.0
  0
LINE
  8
0
 62
     0
 10
155.494
 20
31.688
 30
0.0
 11
155.494
 21
32.2874
 31
0.0
  0
LINE
  8
0
 62
     0
 10
155.494
 20
32.2874
 30
0.0
 11
154.694
 21
32.2874
 31
0.0
  0
LINE
  8
0
 62
     0
 10
154.694
 20
32.2874
 30
0.0
 11
154.694
 21
45.0882
 31
0.0
  0
LINE
  8
0
 62
     0
 10
154.694
 20
45.0882
 30
0.0
 11
155.494
 21
45.0882
 31
0.0
  0
LINE
  8
0
 62
     0
 10
155.494
 20
45.0882
 30
0.0
 11
155.494
 21
45.6875
 31
0.0
  0
LINE
  8
0
 62
     0
 10
155.494
 20
45.6875
 30
0.0
 11
169.493
 21
45.6875
 31
0.0
  0
LINE
  8
0
 62
     0
 10
169.493
 20
45.6875
 30
0.0
 11
169.493
 21
45.0882
 31
0.0
  0
LINE
  8
0
 62
     0
 10
169.493
 20
45.0882
 30
0.0
 11
170.294
 21
45.0882
 31
0.0
  0
LINE
  8
0
 62
     0
 10
170.294
 20
45.0882
 30
0.0
 11
170.294
 21
32.2874
 31
0.0
  0
LINE
  8
0
 62
     0
 10
170.294
 20
32.2874
 30
0.0
 11
169.493
 21
32.2874
 31
0.0
  0
LINE
  8
0
 62
     0
 10
174.257
 20
70.3873
 30
0.0
 11
174.257
 21
69.7879
 31
0.0
  0
LINE
  8
0
 62
     0
 10
174.257
 20
69.7879
 30
0.0
 11
160.256
 21
69.7879
 31
0.0
  0
LINE
  8
0
 62
     0
 10
160.256
 20
69.7879
 30
0.0
 11
160.256
 21
70.3873
 31
0.0
  0
LINE
  8
0
 62
     0
 10
160.256
 20
70.3873
 30
0.0
 11
159.457
 21
70.3873
 31
0.0
  0
LINE
  8
0
 62
     0
 10
159.457
 20
70.3873
 30
0.0
 11
159.457
 21
83.1882
 31
0.0
  0
LINE
  8
0
 62
     0
 10
159.457
 20
83.1882
 30
0.0
 11
160.256
 21
83.1882
 31
0.0
  0
LINE
  8
0
 62
     0
 10
160.256
 20
83.1882
 30
0.0
 11
160.256
 21
83.7875
 31
0.0
  0
LINE
  8
0
 62
     0
 10
160.256
 20
83.7875
 30
0.0
 11
174.257
 21
83.7875
 31
0.0
  0
LINE
  8
0
 62
     0
 10
174.257
 20
83.7875
 30
0.0
 11
174.257
 21
83.1882
 31
0.0
  0
LINE
  8
0
 62
     0
 10
174.257
 20
83.1882
 30
0.0
 11
175.056
 21
83.1882
 31
0.0
  0
LINE
  8
0
 62
     0
 10
175.056
 20
83.1882
 30
0.0
 11
175.056
 21
70.3873
 31
0.0
  0
LINE
  8
0
 62
     0
 10
175.056
 20
70.3873
 30
0.0
 11
174.257
 21
70.3873
 31
0.0
  0
LINE
  8
0
 62
     0
 10
179.018
 20
51.3373
 30
0.0
 11
179.018
 21
50.7379
 31
0.0
  0
LINE
  8
0
 62
     0
 10
179.018
 20
50.7379
 30
0.0
 11
165.019
 21
50.7379
 31
0.0
  0
LINE
  8
0
 62
     0
 10
165.019
 20
50.7379
 30
0.0
 11
165.019
 21
51.3373
 31
0.0
  0
LINE
  8
0
 62
     0
 10
165.019
 20
51.3373
 30
0.0
 11
164.218
 21
51.3373
 31
0.0
  0
LINE
  8
0
 62
     0
 10
164.218
 20
51.3373
 30
0.0
 11
164.218
 21
64.1382
 31
0.0
  0
LINE
  8
0
 62
     0
 10
164.218
 20
64.1382
 30
0.0
 11
165.019
 21
64.1382
 31
0.0
  0
LINE
  8
0
 62
     0
 10
165.019
 20
64.1382
 30
0.0
 11
165.019
 21
64.7375
 31
0.0
  0
LINE
  8
0
 62
     0
 10
165.019
 20
64.7375
 30
0.0
 11
179.018
 21
64.7375
 31
0.0
  0
LINE
  8
0
 62
     0
 10
179.018
 20
64.7375
 30
0.0
 11
179.018
 21
64.1382
 31
0.0
  0
LINE
  8
0
 62
     0
 10
179.018
 20
64.1382
 30
0.0
 11
179.819
 21
64.1382
 31
0.0
  0
LINE
  8
0
 62
     0
 10
179.819
 20
64.1382
 30
0.0
 11
179.819
 21
51.3373
 31
0.0
  0
LINE
  8
0
 62
     0
 10
179.819
 20
51.3373
 30
0.0
 11
179.018
 21
51.3373
 31
0.0
  0
LINE
  8
0
 62
     0
 10
183.782
 20
118.012
 30
0.0
 11
183.782
 21
117.413
 31
0.0
  0
LINE
  8
0
 62
     0
 10
183.782
 20
117.413
 30
0.0
 11
169.781
 21
117.413
 31
0.0
  0
LINE
  8
0
 62
     0
 10
169.781
 20
117.413
 30
0.0
 11
169.781
 21
118.012
 31
0.0
  0
LINE
  8
0
 62
     0
 10
169.781
 20
118.012
 30
0.0
 11
168.982
 21
118.012
 31
0.0
  0
LINE
  8
0
 62
     0
 10
168.982
 20
118.012
 30
0.0
 11
168.982
 21
130.813
 31
0.0
  0
LINE
  8
0
 62
     0
 10
168.982
 20
130.813
 30
0.0
 11
169.781
 21
130.813
 31
0.0
  0
LINE
  8
0
 62
     0
 10
169.781
 20
130.813
 30
0.0
 11
169.781
 21
131.413
 31
0.0
  0
LINE
  8
0
 62
     0
 10
169.781
 20
131.413
 30
0.0
 11
183.782
 21
131.413
 31
0.0
  0
LINE
  8
0
 62
     0
 10
183.782
 20
131.413
 30
0.0
 11
183.782
 21
130.813
 31
0.0
  0
LINE
  8
0
 62
     0
 10
183.782
 20
130.813
 30
0.0
 11
184.581
 21
130.813
 31
0.0
  0
LINE
  8
0
 62
     0
 10
184.581
 20
130.813
 30
0.0
 11
184.581
 21
118.012
 31
0.0
  0
LINE
  8
0
 62
     0
 10
184.581
 20
118.012
 30
0.0
 11
183.782
 21
118.012
 31
0.0
  0
LINE
  8
0
 62
     0
 10
183.782
 20
89.4373
 30
0.0
 11
183.782
 21
88.8379
 31
0.0
  0
LINE
  8
0
 62
     0
 10
183.782
 20
88.8379
 30
0.0
 11
169.781
 21
88.8379
 31
0.0
  0
LINE
  8
0
 62
     0
 10
169.781
 20
88.8379
 30
0.0
 11
169.781
 21
89.4373
 31
0.0
  0
LINE
  8
0
 62
     0
 10
169.781
 20
89.4373
 30
0.0
 11
168.982
 21
89.4373
 31
0.0
  0
LINE
  8
0
 62
     0
 10
168.982
 20
89.4373
 30
0.0
 11
168.982
 21
102.238
 31
0.0
  0
LINE
  8
0
 62
     0
 10
168.982
 20
102.238
 30
0.0
 11
169.781
 21
102.238
 31
0.0
  0
LINE
  8
0
 62
     0
 10
169.781
 20
102.238
 30
0.0
 11
169.781
 21
102.838
 31
0.0
  0
LINE
  8
0
 62
     0
 10
169.781
 20
102.838
 30
0.0
 11
183.782
 21
102.838
 31
0.0
  0
LINE
  8
0
 62
     0
 10
183.782
 20
102.838
 30
0.0
 11
183.782
 21
102.238
 31
0.0
  0
LINE
  8
0
 62
     0
 10
183.782
 20
102.238
 30
0.0
 11
184.581
 21
102.238
 31
0.0
  0
LINE
  8
0
 62
     0
 10
184.581
 20
102.238
 30
0.0
 11
184.581
 21
89.4373
 31
0.0
  0
LINE
  8
0
 62
     0
 10
184.581
 20
89.4373
 30
0.0
 11
183.782
 21
89.4373
 31
0.0
  0
LINE
  8
0
 62
     0
 10
188.543
 20
32.2874
 30
0.0
 11
188.543
 21
31.688
 31
0.0
  0
LINE
  8
0
 62
     0
 10
188.543
 20
31.688
 30
0.0
 11
174.544
 21
31.688
 31
0.0
  0
LINE
  8
0
 62
     0
 10
174.544
 20
31.688
 30
0.0
 11
174.544
 21
32.2874
 31
0.0
  0
LINE
  8
0
 62
     0
 10
174.544
 20
32.2874
 30
0.0
 11
173.743
 21
32.2874
 31
0.0
  0
LINE
  8
0
 62
     0
 10
173.743
 20
32.2874
 30
0.0
 11
173.743
 21
45.0882
 31
0.0
  0
LINE
  8
0
 62
     0
 10
173.743
 20
45.0882
 30
0.0
 11
174.544
 21
45.0882
 31
0.0
  0
LINE
  8
0
 62
     0
 10
174.544
 20
45.0882
 30
0.0
 11
174.544
 21
45.6875
 31
0.0
  0
LINE
  8
0
 62
     0
 10
174.544
 20
45.6875
 30
0.0
 11
188.543
 21
45.6875
 31
0.0
  0
LINE
  8
0
 62
     0
 10
188.543
 20
45.6875
 30
0.0
 11
188.543
 21
45.0882
 31
0.0
  0
LINE
  8
0
 62
     0
 10
188.543
 20
45.0882
 30
0.0
 11
189.344
 21
45.0882
 31
0.0
  0
LINE
  8
0
 62
     0
 10
189.344
 20
45.0882
 30
0.0
 11
189.344
 21
32.2874
 31
0.0
  0
LINE
  8
0
 62
     0
 10
189.344
 20
32.2874
 30
0.0
 11
188.543
 21
32.2874
 31
0.0
  0
LINE
  8
0
 62
     0
 10
193.307
 20
70.3873
 30
0.0
 11
193.307
 21
69.7879
 31
0.0
  0
LINE
  8
0
 62
     0
 10
193.307
 20
69.7879
 30
0.0
 11
179.306
 21
69.7879
 31
0.0
  0
LINE
  8
0
 62
     0
 10
179.306
 20
69.7879
 30
0.0
 11
179.306
 21
70.3873
 31
0.0
  0
LINE
  8
0
 62
     0
 10
179.306
 20
70.3873
 30
0.0
 11
178.507
 21
70.3873
 31
0.0
  0
LINE
  8
0
 62
     0
 10
178.507
 20
70.3873
 30
0.0
 11
178.507
 21
83.1882
 31
0.0
  0
LINE
  8
0
 62
     0
 10
178.507
 20
83.1882
 30
0.0
 11
179.306
 21
83.1882
 31
0.0
  0
LINE
  8
0
 62
     0
 10
179.306
 20
83.1882
 30
0.0
 11
179.306
 21
83.7875
 31
0.0
  0
LINE
  8
0
 62
     0
 10
179.306
 20
83.7875
 30
0.0
 11
193.307
 21
83.7875
 31
0.0
  0
LINE
  8
0
 62
     0
 10
193.307
 20
83.7875
 30
0.0
 11
193.307
 21
83.1882
 31
0.0
  0
LINE
  8
0
 62
     0
 10
193.307
 20
83.1882
 30
0.0
 11
194.106
 21
83.1882
 31
0.0
  0
LINE
  8
0
 62
     0
 10
194.106
 20
83.1882
 30
0.0
 11
194.106
 21
70.3873
 31
0.0
  0
LINE
  8
0
 62
     0
 10
194.106
 20
70.3873
 30
0.0
 11
193.307
 21
70.3873
 31
0.0
  0
LINE
  8
0
 62
     0
 10
198.068
 20
51.3373
 30
0.0
 11
198.068
 21
50.7379
 31
0.0
  0
LINE
  8
0
 62
     0
 10
198.068
 20
50.7379
 30
0.0
 11
184.069
 21
50.7379
 31
0.0
  0
LINE
  8
0
 62
     0
 10
184.069
 20
50.7379
 30
0.0
 11
184.069
 21
51.3373
 31
0.0
  0
LINE
  8
0
 62
     0
 10
184.069
 20
51.3373
 30
0.0
 11
183.268
 21
51.3373
 31
0.0
  0
LINE
  8
0
 62
     0
 10
183.268
 20
51.3373
 30
0.0
 11
183.268
 21
64.1382
 31
0.0
  0
LINE
  8
0
 62
     0
 10
183.268
 20
64.1382
 30
0.0
 11
184.069
 21
64.1382
 31
0.0
  0
LINE
  8
0
 62
     0
 10
184.069
 20
64.1382
 30
0.0
 11
184.069
 21
64.7375
 31
0.0
  0
LINE
  8
0
 62
     0
 10
184.069
 20
64.7375
 30
0.0
 11
198.068
 21
64.7375
 31
0.0
  0
LINE
  8
0
 62
     0
 10
198.068
 20
64.7375
 30
0.0
 11
198.068
 21
64.1382
 31
0.0
  0
LINE
  8
0
 62
     0
 10
198.068
 20
64.1382
 30
0.0
 11
198.869
 21
64.1382
 31
0.0
  0
LINE
  8
0
 62
     0
 10
198.869
 20
64.1382
 30
0.0
 11
198.869
 21
51.3373
 31
0.0
  0
LINE
  8
0
 62
     0
 10
198.869
 20
51.3373
 30
0.0
 11
198.068
 21
51.3373
 31
0.0
  0
LINE
  8
0
 62
     0
 10
202.832
 20
118.012
 30
0.0
 11
202.832
 21
117.413
 31
0.0
  0
LINE
  8
0
 62
     0
 10
202.832
 20
117.413
 30
0.0
 11
188.831
 21
117.413
 31
0.0
  0
LINE
  8
0
 62
     0
 10
188.831
 20
117.413
 30
0.0
 11
188.831
 21
118.012
 31
0.0
  0
LINE
  8
0
 62
     0
 10
188.831
 20
118.012
 30
0.0
 11
188.032
 21
118.012
 31
0.0
  0
LINE
  8
0
 62
     0
 10
188.032
 20
118.012
 30
0.0
 11
188.032
 21
130.813
 31
0.0
  0
LINE
  8
0
 62
     0
 10
188.032
 20
130.813
 30
0.0
 11
188.831
 21
130.813
 31
0.0
  0
LINE
  8
0
 62
     0
 10
188.831
 20
130.813
 30
0.0
 11
188.831
 21
131.413
 31
0.0
  0
LINE
  8
0
 62
     0
 10
188.831
 20
131.413
 30
0.0
 11
202.832
 21
131.413
 31
0.0
  0
LINE
  8
0
 62
     0
 10
202.832
 20
131.413
 30
0.0
 11
202.832
 21
130.813
 31
0.0
  0
LINE
  8
0
 62
     0
 10
202.832
 20
130.813
 30
0.0
 11
203.631
 21
130.813
 31
0.0
  0
LINE
  8
0
 62
     0
 10
203.631
 20
130.813
 30
0.0
 11
203.631
 21
118.012
 31
0.0
  0
LINE
  8
0
 62
     0
 10
203.631
 20
118.012
 30
0.0
 11
202.832
 21
118.012
 31
0.0
  0
LINE
  8
0
 62
     0
 10
202.832
 20
89.4373
 30
0.0
 11
202.832
 21
88.8379
 31
0.0
  0
LINE
  8
0
 62
     0
 10
202.832
 20
88.8379
 30
0.0
 11
188.831
 21
88.8379
 31
0.0
  0
LINE
  8
0
 62
     0
 10
188.831
 20
88.8379
 30
0.0
 11
188.831
 21
89.4373
 31
0.0
  0
LINE
  8
0
 62
     0
 10
188.831
 20
89.4373
 30
0.0
 11
188.032
 21
89.4373
 31
0.0
  0
LINE
  8
0
 62
     0
 10
188.032
 20
89.4373
 30
0.0
 11
188.032
 21
102.238
 31
0.0
  0
LINE
  8
0
 62
     0
 10
188.032
 20
102.238
 30
0.0
 11
188.831
 21
102.238
 31
0.0
  0
LINE
  8
0
 62
     0
 10
188.831
 20
102.238
 30
0.0
 11
188.831
 21
102.838
 31
0.0
  0
LINE
  8
0
 62
     0
 10
188.831
 20
102.838
 30
0.0
 11
202.832
 21
102.838
 31
0.0
  0
LINE
  8
0
 62
     0
 10
202.832
 20
102.838
 30
0.0
 11
202.832
 21
102.238
 31
0.0
  0
LINE
  8
0
 62
     0
 10
202.832
 20
102.238
 30
0.0
 11
203.631
 21
102.238
 31
0.0
  0
LINE
  8
0
 62
     0
 10
203.631
 20
102.238
 30
0.0
 11
203.631
 21
89.4373
 31
0.0
  0
LINE
  8
0
 62
     0
 10
203.631
 20
89.4373
 30
0.0
 11
202.832
 21
89.4373
 31
0.0
  0
LINE
  8
0
 62
     0
 10
207.593
 20
32.2874
 30
0.0
 11
207.593
 21
31.688
 31
0.0
  0
LINE
  8
0
 62
     0
 10
207.593
 20
31.688
 30
0.0
 11
193.594
 21
31.688
 31
0.0
  0
LINE
  8
0
 62
     0
 10
193.594
 20
31.688
 30
0.0
 11
193.594
 21
32.2874
 31
0.0
  0
LINE
  8
0
 62
     0
 10
193.594
 20
32.2874
 30
0.0
 11
192.793
 21
32.2874
 31
0.0
  0
LINE
  8
0
 62
     0
 10
192.793
 20
32.2874
 30
0.0
 11
192.793
 21
45.0882
 31
0.0
  0
LINE
  8
0
 62
     0
 10
192.793
 20
45.0882
 30
0.0
 11
193.594
 21
45.0882
 31
0.0
  0
LINE
  8
0
 62
     0
 10
193.594
 20
45.0882
 30
0.0
 11
193.594
 21
45.6875
 31
0.0
  0
LINE
  8
0
 62
     0
 10
193.594
 20
45.6875
 30
0.0
 11
207.593
 21
45.6875
 31
0.0
  0
LINE
  8
0
 62
     0
 10
207.593
 20
45.6875
 30
0.0
 11
207.593
 21
45.0882
 31
0.0
  0
LINE
  8
0
 62
     0
 10
207.593
 20
45.0882
 30
0.0
 11
208.394
 21
45.0882
 31
0.0
  0
LINE
  8
0
 62
     0
 10
208.394
 20
45.0882
 30
0.0
 11
208.394
 21
32.2874
 31
0.0
  0
LINE
  8
0
 62
     0
 10
208.394
 20
32.2874
 30
0.0
 11
207.593
 21
32.2874
 31
0.0
  0
LINE
  8
0
 62
     0
 10
212.357
 20
70.3873
 30
0.0
 11
212.357
 21
69.7879
 31
0.0
  0
LINE
  8
0
 62
     0
 10
212.357
 20
69.7879
 30
0.0
 11
198.356
 21
69.7879
 31
0.0
  0
LINE
  8
0
 62
     0
 10
198.356
 20
69.7879
 30
0.0
 11
198.356
 21
70.3873
 31
0.0
  0
LINE
  8
0
 62
     0
 10
198.356
 20
70.3873
 30
0.0
 11
197.557
 21
70.3873
 31
0.0
  0
LINE
  8
0
 62
     0
 10
197.557
 20
70.3873
 30
0.0
 11
197.557
 21
83.1882
 31
0.0
  0
LINE
  8
0
 62
     0
 10
197.557
 20
83.1882
 30
0.0
 11
198.356
 21
83.1882
 31
0.0
  0
LINE
  8
0
 62
     0
 10
198.356
 20
83.1882
 30
0.0
 11
198.356
 21
83.7875
 31
0.0
  0
LINE
  8
0
 62
     0
 10
198.356
 20
83.7875
 30
0.0
 11
212.357
 21
83.7875
 31
0.0
  0
LINE
  8
0
 62
     0
 10
212.357
 20
83.7875
 30
0.0
 11
212.357
 21
83.1882
 31
0.0
  0
LINE
  8
0
 62
     0
 10
212.357
 20
83.1882
 30
0.0
 11
213.156
 21
83.1882
 31
0.0
  0
LINE
  8
0
 62
     0
 10
213.156
 20
83.1882
 30
0.0
 11
213.156
 21
70.3873
 31
0.0
  0
LINE
  8
0
 62
     0
 10
213.156
 20
70.3873
 30
0.0
 11
212.357
 21
70.3873
 31
0.0
  0
LINE
  8
0
 62
     0
 10
217.118
 20
51.3373
 30
0.0
 11
217.118
 21
50.7379
 31
0.0
  0
LINE
  8
0
 62
     0
 10
217.118
 20
50.7379
 30
0.0
 11
203.119
 21
50.7379
 31
0.0
  0
LINE
  8
0
 62
     0
 10
203.119
 20
50.7379
 30
0.0
 11
203.119
 21
51.3373
 31
0.0
  0
LINE
  8
0
 62
     0
 10
203.119
 20
51.3373
 30
0.0
 11
202.318
 21
51.3373
 31
0.0
  0
LINE
  8
0
 62
     0
 10
202.318
 20
51.3373
 30
0.0
 11
202.318
 21
64.1382
 31
0.0
  0
LINE
  8
0
 62
     0
 10
202.318
 20
64.1382
 30
0.0
 11
203.119
 21
64.1382
 31
0.0
  0
LINE
  8
0
 62
     0
 10
203.119
 20
64.1382
 30
0.0
 11
203.119
 21
64.7375
 31
0.0
  0
LINE
  8
0
 62
     0
 10
203.119
 20
64.7375
 30
0.0
 11
217.118
 21
64.7375
 31
0.0
  0
LINE
  8
0
 62
     0
 10
217.118
 20
64.7375
 30
0.0
 11
217.118
 21
64.1382
 31
0.0
  0
LINE
  8
0
 62
     0
 10
217.118
 20
64.1382
 30
0.0
 11
217.919
 21
64.1382
 31
0.0
  0
LINE
  8
0
 62
     0
 10
217.919
 20
64.1382
 30
0.0
 11
217.919
 21
51.3373
 31
0.0
  0
LINE
  8
0
 62
     0
 10
217.919
 20
51.3373
 30
0.0
 11
217.118
 21
51.3373
 31
0.0
  0
LINE
  8
0
 62
     0
 10
221.882
 20
89.4373
 30
0.0
 11
221.882
 21
88.8379
 31
0.0
  0
LINE
  8
0
 62
     0
 10
221.882
 20
88.8379
 30
0.0
 11
207.881
 21
88.8379
 31
0.0
  0
LINE
  8
0
 62
     0
 10
207.881
 20
88.8379
 30
0.0
 11
207.881
 21
89.4373
 31
0.0
  0
LINE
  8
0
 62
     0
 10
207.881
 20
89.4373
 30
0.0
 11
207.082
 21
89.4373
 31
0.0
  0
LINE
  8
0
 62
     0
 10
207.082
 20
89.4373
 30
0.0
 11
207.082
 21
102.238
 31
0.0
  0
LINE
  8
0
 62
     0
 10
207.082
 20
102.238
 30
0.0
 11
207.881
 21
102.238
 31
0.0
  0
LINE
  8
0
 62
     0
 10
207.881
 20
102.238
 30
0.0
 11
207.881
 21
102.838
 31
0.0
  0
LINE
  8
0
 62
     0
 10
207.881
 20
102.838
 30
0.0
 11
221.882
 21
102.838
 31
0.0
  0
LINE
  8
0
 62
     0
 10
221.882
 20
102.838
 30
0.0
 11
221.882
 21
102.238
 31
0.0
  0
LINE
  8
0
 62
     0
 10
221.882
 20
102.238
 30
0.0
 11
222.681
 21
102.238
 31
0.0
  0
LINE
  8
0
 62
     0
 10
222.681
 20
102.238
 30
0.0
 11
222.681
 21
89.4373
 31
0.0
  0
LINE
  8
0
 62
     0
 10
222.681
 20
89.4373
 30
0.0
 11
221.882
 21
89.4373
 31
0.0
  0
LINE
  8
0
 62
     0
 10
226.643
 20
32.2874
 30
0.0
 11
226.643
 21
31.688
 31
0.0
  0
LINE
  8
0
 62
     0
 10
226.643
 20
31.688
 30
0.0
 11
212.644
 21
31.688
 31
0.0
  0
LINE
  8
0
 62
     0
 10
212.644
 20
31.688
 30
0.0
 11
212.644
 21
32.2874
 31
0.0
  0
LINE
  8
0
 62
     0
 10
212.644
 20
32.2874
 30
0.0
 11
211.843
 21
32.2874
 31
0.0
  0
LINE
  8
0
 62
     0
 10
211.843
 20
32.2874
 30
0.0
 11
211.843
 21
45.0882
 31
0.0
  0
LINE
  8
0
 62
     0
 10
211.843
 20
45.0882
 30
0.0
 11
212.644
 21
45.0882
 31
0.0
  0
LINE
  8
0
 62
     0
 10
212.644
 20
45.0882
 30
0.0
 11
212.644
 21
45.6875
 31
0.0
  0
LINE
  8
0
 62
     0
 10
212.644
 20
45.6875
 30
0.0
 11
226.643
 21
45.6875
 31
0.0
  0
LINE
  8
0
 62
     0
 10
226.643
 20
45.6875
 30
0.0
 11
226.643
 21
45.0882
 31
0.0
  0
LINE
  8
0
 62
     0
 10
226.643
 20
45.0882
 30
0.0
 11
227.444
 21
45.0882
 31
0.0
  0
LINE
  8
0
 62
     0
 10
227.444
 20
45.0882
 30
0.0
 11
227.444
 21
32.2874
 31
0.0
  0
LINE
  8
0
 62
     0
 10
227.444
 20
32.2874
 30
0.0
 11
226.643
 21
32.2874
 31
0.0
  0
LINE
  8
0
 62
     0
 10
231.407
 20
118.012
 30
0.0
 11
231.407
 21
117.413
 31
0.0
  0
LINE
  8
0
 62
     0
 10
231.407
 20
117.413
 30
0.0
 11
217.406
 21
117.413
 31
0.0
  0
LINE
  8
0
 62
     0
 10
217.406
 20
117.413
 30
0.0
 11
217.406
 21
118.012
 31
0.0
  0
LINE
  8
0
 62
     0
 10
217.406
 20
118.012
 30
0.0
 11
216.607
 21
118.012
 31
0.0
  0
LINE
  8
0
 62
     0
 10
216.607
 20
118.012
 30
0.0
 11
216.607
 21
130.813
 31
0.0
  0
LINE
  8
0
 62
     0
 10
216.607
 20
130.813
 30
0.0
 11
217.406
 21
130.813
 31
0.0
  0
LINE
  8
0
 62
     0
 10
217.406
 20
130.813
 30
0.0
 11
217.406
 21
131.413
 31
0.0
  0
LINE
  8
0
 62
     0
 10
217.406
 20
131.413
 30
0.0
 11
231.407
 21
131.413
 31
0.0
  0
LINE
  8
0
 62
     0
 10
231.407
 20
131.413
 30
0.0
 11
231.407
 21
130.813
 31
0.0
  0
LINE
  8
0
 62
     0
 10
231.407
 20
130.813
 30
0.0
 11
232.206
 21
130.813
 31
0.0
  0
LINE
  8
0
 62
     0
 10
232.206
 20
130.813
 30
0.0
 11
232.206
 21
118.012
 31
0.0
  0
LINE
  8
0
 62
     0
 10
232.206
 20
118.012
 30
0.0
 11
231.407
 21
118.012
 31
0.0
  0
LINE
  8
0
 62
     0
 10
231.407
 20
70.3873
 30
0.0
 11
231.407
 21
69.7879
 31
0.0
  0
LINE
  8
0
 62
     0
 10
231.407
 20
69.7879
 30
0.0
 11
217.406
 21
69.7879
 31
0.0
  0
LINE
  8
0
 62
     0
 10
217.406
 20
69.7879
 30
0.0
 11
217.406
 21
70.3873
 31
0.0
  0
LINE
  8
0
 62
     0
 10
217.406
 20
70.3873
 30
0.0
 11
216.607
 21
70.3873
 31
0.0
  0
LINE
  8
0
 62
     0
 10
216.607
 20
70.3873
 30
0.0
 11
216.607
 21
83.1882
 31
0.0
  0
LINE
  8
0
 62
     0
 10
216.607
 20
83.1882
 30
0.0
 11
217.406
 21
83.1882
 31
0.0
  0
LINE
  8
0
 62
     0
 10
217.406
 20
83.1882
 30
0.0
 11
217.406
 21
83.7875
 31
0.0
  0
LINE
  8
0
 62
     0
 10
217.406
 20
83.7875
 30
0.0
 11
231.407
 21
83.7875
 31
0.0
  0
LINE
  8
0
 62
     0
 10
231.407
 20
83.7875
 30
0.0
 11
231.407
 21
83.1882
 31
0.0
  0
LINE
  8
0
 62
     0
 10
231.407
 20
83.1882
 30
0.0
 11
232.206
 21
83.1882
 31
0.0
  0
LINE
  8
0
 62
     0
 10
232.206
 20
83.1882
 30
0.0
 11
232.206
 21
70.3873
 31
0.0
  0
LINE
  8
0
 62
     0
 10
232.206
 20
70.3873
 30
0.0
 11
231.407
 21
70.3873
 31
0.0
  0
LINE
  8
0
 62
     0
 10
236.168
 20
51.3373
 30
0.0
 11
236.168
 21
50.7379
 31
0.0
  0
LINE
  8
0
 62
     0
 10
236.168
 20
50.7379
 30
0.0
 11
222.169
 21
50.7379
 31
0.0
  0
LINE
  8
0
 62
     0
 10
222.169
 20
50.7379
 30
0.0
 11
222.169
 21
51.3373
 31
0.0
  0
LINE
  8
0
 62
     0
 10
222.169
 20
51.3373
 30
0.0
 11
221.368
 21
51.3373
 31
0.0
  0
LINE
  8
0
 62
     0
 10
221.368
 20
51.3373
 30
0.0
 11
221.368
 21
64.1382
 31
0.0
  0
LINE
  8
0
 62
     0
 10
221.368
 20
64.1382
 30
0.0
 11
222.169
 21
64.1382
 31
0.0
  0
LINE
  8
0
 62
     0
 10
222.169
 20
64.1382
 30
0.0
 11
222.169
 21
64.7375
 31
0.0
  0
LINE
  8
0
 62
     0
 10
222.169
 20
64.7375
 30
0.0
 11
236.168
 21
64.7375
 31
0.0
  0
LINE
  8
0
 62
     0
 10
236.168
 20
64.7375
 30
0.0
 11
236.168
 21
64.1382
 31
0.0
  0
LINE
  8
0
 62
     0
 10
236.168
 20
64.1382
 30
0.0
 11
236.969
 21
64.1382
 31
0.0
  0
LINE
  8
0
 62
     0
 10
236.969
 20
64.1382
 30
0.0
 11
236.969
 21
51.3373
 31
0.0
  0
LINE
  8
0
 62
     0
 10
236.969
 20
51.3373
 30
0.0
 11
236.168
 21
51.3373
 31
0.0
  0
LINE
  8
0
 62
     0
 10
240.932
 20
89.4373
 30
0.0
 11
240.932
 21
88.8379
 31
0.0
  0
LINE
  8
0
 62
     0
 10
240.932
 20
88.8379
 30
0.0
 11
226.931
 21
88.8379
 31
0.0
  0
LINE
  8
0
 62
     0
 10
226.931
 20
88.8379
 30
0.0
 11
226.931
 21
89.4373
 31
0.0
  0
LINE
  8
0
 62
     0
 10
226.931
 20
89.4373
 30
0.0
 11
226.132
 21
89.4373
 31
0.0
  0
LINE
  8
0
 62
     0
 10
226.132
 20
89.4373
 30
0.0
 11
226.132
 21
102.238
 31
0.0
  0
LINE
  8
0
 62
     0
 10
226.132
 20
102.238
 30
0.0
 11
226.931
 21
102.238
 31
0.0
  0
LINE
  8
0
 62
     0
 10
226.931
 20
102.238
 30
0.0
 11
226.931
 21
102.838
 31
0.0
  0
LINE
  8
0
 62
     0
 10
226.931
 20
102.838
 30
0.0
 11
240.932
 21
102.838
 31
0.0
  0
LINE
  8
0
 62
     0
 10
240.932
 20
102.838
 30
0.0
 11
240.932
 21
102.238
 31
0.0
  0
LINE
  8
0
 62
     0
 10
240.932
 20
102.238
 30
0.0
 11
241.731
 21
102.238
 31
0.0
  0
LINE
  8
0
 62
     0
 10
241.731
 20
102.238
 30
0.0
 11
241.731
 21
89.4373
 31
0.0
  0
LINE
  8
0
 62
     0
 10
241.731
 20
89.4373
 30
0.0
 11
240.932
 21
89.4373
 31
0.0
  0
LINE
  8
0
 62
     0
 10
245.693
 20
32.2874
 30
0.0
 11
245.693
 21
31.688
 31
0.0
  0
LINE
  8
0
 62
     0
 10
245.693
 20
31.688
 30
0.0
 11
231.694
 21
31.688
 31
0.0
  0
LINE
  8
0
 62
     0
 10
231.694
 20
31.688
 30
0.0
 11
231.694
 21
32.2874
 31
0.0
  0
LINE
  8
0
 62
     0
 10
231.694
 20
32.2874
 30
0.0
 11
230.893
 21
32.2874
 31
0.0
  0
LINE
  8
0
 62
     0
 10
230.893
 20
32.2874
 30
0.0
 11
230.893
 21
45.0882
 31
0.0
  0
LINE
  8
0
 62
     0
 10
230.893
 20
45.0882
 30
0.0
 11
231.694
 21
45.0882
 31
0.0
  0
LINE
  8
0
 62
     0
 10
231.694
 20
45.0882
 30
0.0
 11
231.694
 21
45.6875
 31
0.0
  0
LINE
  8
0
 62
     0
 10
231.694
 20
45.6875
 30
0.0
 11
245.693
 21
45.6875
 31
0.0
  0
LINE
  8
0
 62
     0
 10
245.693
 20
45.6875
 30
0.0
 11
245.693
 21
45.0882
 31
0.0
  0
LINE
  8
0
 62
     0
 10
245.693
 20
45.0882
 30
0.0
 11
246.494
 21
45.0882
 31
0.0
  0
LINE
  8
0
 62
     0
 10
246.494
 20
45.0882
 30
0.0
 11
246.494
 21
32.2874
 31
0.0
  0
LINE
  8
0
 62
     0
 10
246.494
 20
32.2874
 30
0.0
 11
245.693
 21
32.2874
 31
0.0
  0
LINE
  8
0
 62
     0
 10
250.457
 20
118.012
 30
0.0
 11
250.457
 21
117.413
 31
0.0
  0
LINE
  8
0
 62
     0
 10
250.457
 20
117.413
 30
0.0
 11
236.456
 21
117.413
 31
0.0
  0
LINE
  8
0
 62
     0
 10
236.456
 20
117.413
 30
0.0
 11
236.456
 21
118.012
 31
0.0
  0
LINE
  8
0
 62
     0
 10
236.456
 20
118.012
 30
0.0
 11
235.657
 21
118.012
 31
0.0
  0
LINE
  8
0
 62
     0
 10
235.657
 20
118.012
 30
0.0
 11
235.657
 21
130.813
 31
0.0
  0
LINE
  8
0
 62
     0
 10
235.657
 20
130.813
 30
0.0
 11
236.456
 21
130.813
 31
0.0
  0
LINE
  8
0
 62
     0
 10
236.456
 20
130.813
 30
0.0
 11
236.456
 21
131.413
 31
0.0
  0
LINE
  8
0
 62
     0
 10
236.456
 20
131.413
 30
0.0
 11
250.457
 21
131.413
 31
0.0
  0
LINE
  8
0
 62
     0
 10
250.457
 20
131.413
 30
0.0
 11
250.457
 21
130.813
 31
0.0
  0
LINE
  8
0
 62
     0
 10
250.457
 20
130.813
 30
0.0
 11
251.256
 21
130.813
 31
0.0
  0
LINE
  8
0
 62
     0
 10
251.256
 20
130.813
 30
0.0
 11
251.256
 21
118.012
 31
0.0
  0
LINE
  8
0
 62
     0
 10
251.256
 20
118.012
 30
0.0
 11
250.457
 21
118.012
 31
0.0
  0
LINE
  8
0
 62
     0
 10
250.457
 20
70.3873
 30
0.0
 11
250.457
 21
69.7879
 31
0.0
  0
LINE
  8
0
 62
     0
 10
250.457
 20
69.7879
 30
0.0
 11
236.456
 21
69.7879
 31
0.0
  0
LINE
  8
0
 62
     0
 10
236.456
 20
69.7879
 30
0.0
 11
236.456
 21
70.3873
 31
0.0
  0
LINE
  8
0
 62
     0
 10
236.456
 20
70.3873
 30
0.0
 11
235.657
 21
70.3873
 31
0.0
  0
LINE
  8
0
 62
     0
 10
235.657
 20
70.3873
 30
0.0
 11
235.657
 21
83.1882
 31
0.0
  0
LINE
  8
0
 62
     0
 10
235.657
 20
83.1882
 30
0.0
 11
236.456
 21
83.1882
 31
0.0
  0
LINE
  8
0
 62
     0
 10
236.456
 20
83.1882
 30
0.0
 11
236.456
 21
83.7875
 31
0.0
  0
LINE
  8
0
 62
     0
 10
236.456
 20
83.7875
 30
0.0
 11
250.457
 21
83.7875
 31
0.0
  0
LINE
  8
0
 62
     0
 10
250.457
 20
83.7875
 30
0.0
 11
250.457
 21
83.1882
 31
0.0
  0
LINE
  8
0
 62
     0
 10
250.457
 20
83.1882
 30
0.0
 11
251.256
 21
83.1882
 31
0.0
  0
LINE
  8
0
 62
     0
 10
251.256
 20
83.1882
 30
0.0
 11
251.256
 21
70.3873
 31
0.0
  0
LINE
  8
0
 62
     0
 10
251.256
 20
70.3873
 30
0.0
 11
250.457
 21
70.3873
 31
0.0
  0
LINE
  8
0
 62
     0
 10
255.218
 20
51.3373
 30
0.0
 11
255.218
 21
50.7379
 31
0.0
  0
LINE
  8
0
 62
     0
 10
255.218
 20
50.7379
 30
0.0
 11
241.219
 21
50.7379
 31
0.0
  0
LINE
  8
0
 62
     0
 10
241.219
 20
50.7379
 30
0.0
 11
241.219
 21
51.3373
 31
0.0
  0
LINE
  8
0
 62
     0
 10
241.219
 20
51.3373
 30
0.0
 11
240.418
 21
51.3373
 31
0.0
  0
LINE
  8
0
 62
     0
 10
240.418
 20
51.3373
 30
0.0
 11
240.418
 21
64.1382
 31
0.0
  0
LINE
  8
0
 62
     0
 10
240.418
 20
64.1382
 30
0.0
 11
241.219
 21
64.1382
 31
0.0
  0
LINE
  8
0
 62
     0
 10
241.219
 20
64.1382
 30
0.0
 11
241.219
 21
64.7375
 31
0.0
  0
LINE
  8
0
 62
     0
 10
241.219
 20
64.7375
 30
0.0
 11
255.218
 21
64.7375
 31
0.0
  0
LINE
  8
0
 62
     0
 10
255.218
 20
64.7375
 30
0.0
 11
255.218
 21
64.1382
 31
0.0
  0
LINE
  8
0
 62
     0
 10
255.218
 20
64.1382
 30
0.0
 11
256.019
 21
64.1382
 31
0.0
  0
LINE
  8
0
 62
     0
 10
256.019
 20
64.1382
 30
0.0
 11
256.019
 21
51.3373
 31
0.0
  0
LINE
  8
0
 62
     0
 10
256.019
 20
51.3373
 30
0.0
 11
255.218
 21
51.3373
 31
0.0
  0
LINE
  8
0
 62
     0
 10
259.982
 20
89.4373
 30
0.0
 11
259.982
 21
88.8379
 31
0.0
  0
LINE
  8
0
 62
     0
 10
259.982
 20
88.8379
 30
0.0
 11
245.981
 21
88.8379
 31
0.0
  0
LINE
  8
0
 62
     0
 10
245.981
 20
88.8379
 30
0.0
 11
245.981
 21
89.4373
 31
0.0
  0
LINE
  8
0
 62
     0
 10
245.981
 20
89.4373
 30
0.0
 11
245.182
 21
89.4373
 31
0.0
  0
LINE
  8
0
 62
     0
 10
245.182
 20
89.4373
 30
0.0
 11
245.182
 21
102.238
 31
0.0
  0
LINE
  8
0
 62
     0
 10
245.182
 20
102.238
 30
0.0
 11
245.981
 21
102.238
 31
0.0
  0
LINE
  8
0
 62
     0
 10
245.981
 20
102.238
 30
0.0
 11
245.981
 21
102.838
 31
0.0
  0
LINE
  8
0
 62
     0
 10
245.981
 20
102.838
 30
0.0
 11
259.982
 21
102.838
 31
0.0
  0
LINE
  8
0
 62
     0
 10
259.982
 20
102.838
 30
0.0
 11
259.982
 21
102.238
 31
0.0
  0
LINE
  8
0
 62
     0
 10
259.982
 20
102.238
 30
0.0
 11
260.781
 21
102.238
 31
0.0
  0
LINE
  8
0
 62
     0
 10
260.781
 20
102.238
 30
0.0
 11
260.781
 21
89.4373
 31
0.0
  0
LINE
  8
0
 62
     0
 10
260.781
 20
89.4373
 30
0.0
 11
259.982
 21
89.4373
 31
0.0
  0
LINE
  8
0
 62
     0
 10
264.743
 20
32.2874
 30
0.0
 11
264.743
 21
31.688
 31
0.0
  0
LINE
  8
0
 62
     0
 10
264.743
 20
31.688
 30
0.0
 11
250.744
 21
31.688
 31
0.0
  0
LINE
  8
0
 62
     0
 10
250.744
 20
31.688
 30
0.0
 11
250.744
 21
32.2874
 31
0.0
  0
LINE
  8
0
 62
     0
 10
250.744
 20
32.2874
 30
0.0
 11
249.943
 21
32.2874
 31
0.0
  0
LINE
  8
0
 62
     0
 10
249.943
 20
32.2874
 30
0.0
 11
249.943
 21
45.0882
 31
0.0
  0
LINE
  8
0
 62
     0
 10
249.943
 20
45.0882
 30
0.0
 11
250.744
 21
45.0882
 31
0.0
  0
LINE
  8
0
 62
     0
 10
250.744
 20
45.0882
 30
0.0
 11
250.744
 21
45.6875
 31
0.0
  0
LINE
  8
0
 62
     0
 10
250.744
 20
45.6875
 30
0.0
 11
264.743
 21
45.6875
 31
0.0
  0
LINE
  8
0
 62
     0
 10
264.743
 20
45.6875
 30
0.0
 11
264.743
 21
45.0882
 31
0.0
  0
LINE
  8
0
 62
     0
 10
264.743
 20
45.0882
 30
0.0
 11
265.544
 21
45.0882
 31
0.0
  0
LINE
  8
0
 62
     0
 10
265.544
 20
45.0882
 30
0.0
 11
265.544
 21
32.2874
 31
0.0
  0
LINE
  8
0
 62
     0
 10
265.544
 20
32.2874
 30
0.0
 11
264.743
 21
32.2874
 31
0.0
  0
LINE
  8
0
 62
     0
 10
269.507
 20
118.012
 30
0.0
 11
269.507
 21
117.413
 31
0.0
  0
LINE
  8
0
 62
     0
 10
269.507
 20
117.413
 30
0.0
 11
255.506
 21
117.413
 31
0.0
  0
LINE
  8
0
 62
     0
 10
255.506
 20
117.413
 30
0.0
 11
255.506
 21
118.012
 31
0.0
  0
LINE
  8
0
 62
     0
 10
255.506
 20
118.012
 30
0.0
 11
254.707
 21
118.012
 31
0.0
  0
LINE
  8
0
 62
     0
 10
254.707
 20
118.012
 30
0.0
 11
254.707
 21
130.813
 31
0.0
  0
LINE
  8
0
 62
     0
 10
254.707
 20
130.813
 30
0.0
 11
255.506
 21
130.813
 31
0.0
  0
LINE
  8
0
 62
     0
 10
255.506
 20
130.813
 30
0.0
 11
255.506
 21
131.413
 31
0.0
  0
LINE
  8
0
 62
     0
 10
255.506
 20
131.413
 30
0.0
 11
269.507
 21
131.413
 31
0.0
  0
LINE
  8
0
 62
     0
 10
269.507
 20
131.413
 30
0.0
 11
269.507
 21
130.813
 31
0.0
  0
LINE
  8
0
 62
     0
 10
269.507
 20
130.813
 30
0.0
 11
270.306
 21
130.813
 31
0.0
  0
LINE
  8
0
 62
     0
 10
270.306
 20
130.813
 30
0.0
 11
270.306
 21
118.012
 31
0.0
  0
LINE
  8
0
 62
     0
 10
270.306
 20
118.012
 30
0.0
 11
269.507
 21
118.012
 31
0.0
  0
LINE
  8
0
 62
     0
 10
269.507
 20
70.3873
 30
0.0
 11
269.507
 21
69.7879
 31
0.0
  0
LINE
  8
0
 62
     0
 10
269.507
 20
69.7879
 30
0.0
 11
255.506
 21
69.7879
 31
0.0
  0
LINE
  8
0
 62
     0
 10
255.506
 20
69.7879
 30
0.0
 11
255.506
 21
70.3873
 31
0.0
  0
LINE
  8
0
 62
     0
 10
255.506
 20
70.3873
 30
0.0
 11
254.707
 21
70.3873
 31
0.0
  0
LINE
  8
0
 62
     0
 10
254.707
 20
70.3873
 30
0.0
 11
254.707
 21
83.1882
 31
0.0
  0
LINE
  8
0
 62
     0
 10
254.707
 20
83.1882
 30
0.0
 11
255.506
 21
83.1882
 31
0.0
  0
LINE
  8
0
 62
     0
 10
255.506
 20
83.1882
 30
0.0
 11
255.506
 21
83.7875
 31
0.0
  0
LINE
  8
0
 62
     0
 10
255.506
 20
83.7875
 30
0.0
 11
269.507
 21
83.7875
 31
0.0
  0
LINE
  8
0
 62
     0
 10
269.507
 20
83.7875
 30
0.0
 11
269.507
 21
83.1882
 31
0.0
  0
LINE
  8
0
 62
     0
 10
269.507
 20
83.1882
 30
0.0
 11
270.306
 21
83.1882
 31
0.0
  0
LINE
  8
0
 62
     0
 10
270.306
 20
83.1882
 30
0.0
 11
270.306
 21
70.3873
 31
0.0
  0
LINE
  8
0
 62
     0
 10
270.306
 20
70.3873
 30
0.0
 11
269.507
 21
70.3873
 31
0.0
  0
LINE
  8
0
 62
     0
 10
274.268
 20
51.3373
 30
0.0
 11
274.268
 21
50.7379
 31
0.0
  0
LINE
  8
0
 62
     0
 10
274.268
 20
50.7379
 30
0.0
 11
260.269
 21
50.7379
 31
0.0
  0
LINE
  8
0
 62
     0
 10
260.269
 20
50.7379
 30
0.0
 11
260.269
 21
51.3373
 31
0.0
  0
LINE
  8
0
 62
     0
 10
260.269
 20
51.3373
 30
0.0
 11
259.468
 21
51.3373
 31
0.0
  0
LINE
  8
0
 62
     0
 10
259.468
 20
51.3373
 30
0.0
 11
259.468
 21
64.1382
 31
0.0
  0
LINE
  8
0
 62
     0
 10
259.468
 20
64.1382
 30
0.0
 11
260.269
 21
64.1382
 31
0.0
  0
LINE
  8
0
 62
     0
 10
260.269
 20
64.1382
 30
0.0
 11
260.269
 21
64.7375
 31
0.0
  0
LINE
  8
0
 62
     0
 10
260.269
 20
64.7375
 30
0.0
 11
274.268
 21
64.7375
 31
0.0
  0
LINE
  8
0
 62
     0
 10
274.268
 20
64.7375
 30
0.0
 11
274.268
 21
64.1382
 31
0.0
  0
LINE
  8
0
 62
     0
 10
274.268
 20
64.1382
 30
0.0
 11
275.069
 21
64.1382
 31
0.0
  0
LINE
  8
0
 62
     0
 10
275.069
 20
64.1382
 30
0.0
 11
275.069
 21
51.3373
 31
0.0
  0
LINE
  8
0
 62
     0
 10
275.069
 20
51.3373
 30
0.0
 11
274.268
 21
51.3373
 31
0.0
  0
LINE
  8
0
 62
     0
 10
275.35
 20
19.1368
 30
0.0
 11
275.35
 21
12.8668
 31
0.0
  0
LINE
  8
0
 62
     0
 10
275.35
 20
12.8668
 30
0.0
 11
273.674
 21
12.8668
 31
0.0
  0
LINE
  8
0
 62
     0
 10
273.674
 20
12.8668
 30
0.0
 11
273.674
 21
11.887
 31
0.0
  0
LINE
  8
0
 62
     0
 10
273.674
 20
11.887
 30
0.0
 11
270.375
 21
11.887
 31
0.0
  0
LINE
  8
0
 62
     0
 10
270.375
 20
11.887
 30
0.0
 11
270.375
 21
12.8668
 31
0.0
  0
LINE
  8
0
 62
     0
 10
270.375
 20
12.8668
 30
0.0
 11
268.7
 21
12.8668
 31
0.0
  0
LINE
  8
0
 62
     0
 10
268.7
 20
12.8668
 30
0.0
 11
268.7
 21
17.3371
 31
0.0
  0
LINE
  8
0
 62
     0
 10
268.7
 20
17.3371
 30
0.0
 11
229.825
 21
17.3371
 31
0.0
  0
LINE
  8
0
 62
     0
 10
229.825
 20
17.3371
 30
0.0
 11
229.825
 21
13.2374
 31
0.0
  0
LINE
  8
0
 62
     0
 10
229.825
 20
13.2374
 30
0.0
 11
229.024
 21
13.2374
 31
0.0
  0
LINE
  8
0
 62
     0
 10
229.024
 20
13.2374
 30
0.0
 11
229.024
 21
12.638
 31
0.0
  0
LINE
  8
0
 62
     0
 10
229.024
 20
12.638
 30
0.0
 11
215.025
 21
12.638
 31
0.0
  0
LINE
  8
0
 62
     0
 10
215.025
 20
12.638
 30
0.0
 11
215.025
 21
13.2374
 31
0.0
  0
LINE
  8
0
 62
     0
 10
215.025
 20
13.2374
 30
0.0
 11
214.224
 21
13.2374
 31
0.0
  0
LINE
  8
0
 62
     0
 10
214.224
 20
13.2374
 30
0.0
 11
214.224
 21
17.3371
 31
0.0
  0
LINE
  8
0
 62
     0
 10
214.224
 20
17.3371
 30
0.0
 11
175.35
 21
17.3371
 31
0.0
  0
LINE
  8
0
 62
     0
 10
175.35
 20
17.3371
 30
0.0
 11
175.35
 21
12.8668
 31
0.0
  0
LINE
  8
0
 62
     0
 10
175.35
 20
12.8668
 30
0.0
 11
173.674
 21
12.8668
 31
0.0
  0
LINE
  8
0
 62
     0
 10
173.674
 20
12.8668
 30
0.0
 11
173.674
 21
11.887
 31
0.0
  0
LINE
  8
0
 62
     0
 10
173.674
 20
11.887
 30
0.0
 11
170.375
 21
11.887
 31
0.0
  0
LINE
  8
0
 62
     0
 10
170.375
 20
11.887
 30
0.0
 11
170.375
 21
12.8668
 31
0.0
  0
LINE
  8
0
 62
     0
 10
170.375
 20
12.8668
 30
0.0
 11
168.699
 21
12.8668
 31
0.0
  0
LINE
  8
0
 62
     0
 10
168.699
 20
12.8668
 30
0.0
 11
168.699
 21
19.1368
 31
0.0
  0
LINE
  8
0
 62
     0
 10
168.699
 20
19.1368
 30
0.0
 11
167.825
 21
19.1368
 31
0.0
  0
LINE
  8
0
 62
     0
 10
167.825
 20
19.1368
 30
0.0
 11
167.825
 21
21.937
 31
0.0
  0
LINE
  8
0
 62
     0
 10
167.825
 20
21.937
 30
0.0
 11
168.699
 21
21.937
 31
0.0
  0
LINE
  8
0
 62
     0
 10
168.699
 20
21.937
 30
0.0
 11
168.699
 21
25.1671
 31
0.0
  0
LINE
  8
0
 62
     0
 10
168.699
 20
25.1671
 30
0.0
 11
170.375
 21
25.1671
 31
0.0
  0
LINE
  8
0
 62
     0
 10
170.375
 20
25.1671
 30
0.0
 11
170.375
 21
26.0876
 31
0.0
  0
LINE
  8
0
 62
     0
 10
170.375
 20
26.0876
 30
0.0
 11
173.674
 21
26.0876
 31
0.0
  0
LINE
  8
0
 62
     0
 10
173.674
 20
26.0876
 30
0.0
 11
173.674
 21
25.1671
 31
0.0
  0
LINE
  8
0
 62
     0
 10
173.674
 20
25.1671
 30
0.0
 11
175.35
 21
25.1671
 31
0.0
  0
LINE
  8
0
 62
     0
 10
175.35
 20
25.1671
 30
0.0
 11
175.35
 21
21.937
 31
0.0
  0
LINE
  8
0
 62
     0
 10
175.35
 20
21.937
 30
0.0
 11
214.224
 21
21.937
 31
0.0
  0
LINE
  8
0
 62
     0
 10
214.224
 20
21.937
 30
0.0
 11
214.224
 21
26.038
 31
0.0
  0
LINE
  8
0
 62
     0
 10
214.224
 20
26.038
 30
0.0
 11
215.025
 21
26.038
 31
0.0
  0
LINE
  8
0
 62
     0
 10
215.025
 20
26.038
 30
0.0
 11
215.025
 21
26.6375
 31
0.0
  0
LINE
  8
0
 62
     0
 10
215.025
 20
26.6375
 30
0.0
 11
229.024
 21
26.6375
 31
0.0
  0
LINE
  8
0
 62
     0
 10
229.024
 20
26.6375
 30
0.0
 11
229.024
 21
26.038
 31
0.0
  0
LINE
  8
0
 62
     0
 10
229.024
 20
26.038
 30
0.0
 11
229.825
 21
26.038
 31
0.0
  0
LINE
  8
0
 62
     0
 10
229.825
 20
26.038
 30
0.0
 11
229.825
 21
21.937
 31
0.0
  0
LINE
  8
0
 62
     0
 10
229.825
 20
21.937
 30
0.0
 11
268.7
 21
21.937
 31
0.0
  0
LINE
  8
0
 62
     0
 10
268.7
 20
21.937
 30
0.0
 11
268.7
 21
25.1671
 31
0.0
  0
LINE
  8
0
 62
     0
 10
268.7
 20
25.1671
 30
0.0
 11
270.375
 21
25.1671
 31
0.0
  0
LINE
  8
0
 62
     0
 10
270.375
 20
25.1671
 30
0.0
 11
270.375
 21
26.0876
 31
0.0
  0
LINE
  8
0
 62
     0
 10
270.375
 20
26.0876
 30
0.0
 11
273.674
 21
26.0876
 31
0.0
  0
LINE
  8
0
 62
     0
 10
273.674
 20
26.0876
 30
0.0
 11
273.674
 21
25.1671
 31
0.0
  0
LINE
  8
0
 62
     0
 10
273.674
 20
25.1671
 30
0.0
 11
275.35
 21
25.1671
 31
0.0
  0
LINE
  8
0
 62
     0
 10
275.35
 20
25.1671
 30
0.0
 11
275.35
 21
21.937
 31
0.0
  0
LINE
  8
0
 62
     0
 10
275.35
 20
21.937
 30
0.0
 11
276.225
 21
21.937
 31
0.0
  0
LINE
  8
0
 62
     0
 10
276.225
 20
21.937
 30
0.0
 11
276.225
 21
19.1368
 31
0.0
  0
LINE
  8
0
 62
     0
 10
276.225
 20
19.1368
 30
0.0
 11
275.35
 21
19.1368
 31
0.0
  0
LINE
  8
0
 62
     0
 10
279.032
 20
89.4373
 30
0.0
 11
279.032
 21
88.8379
 31
0.0
  0
LINE
  8
0
 62
     0
 10
279.032
 20
88.8379
 30
0.0
 11
265.031
 21
88.8379
 31
0.0
  0
LINE
  8
0
 62
     0
 10
265.031
 20
88.8379
 30
0.0
 11
265.031
 21
89.4373
 31
0.0
  0
LINE
  8
0
 62
     0
 10
265.031
 20
89.4373
 30
0.0
 11
264.232
 21
89.4373
 31
0.0
  0
LINE
  8
0
 62
     0
 10
264.232
 20
89.4373
 30
0.0
 11
264.232
 21
102.238
 31
0.0
  0
LINE
  8
0
 62
     0
 10
264.232
 20
102.238
 30
0.0
 11
265.031
 21
102.238
 31
0.0
  0
LINE
  8
0
 62
     0
 10
265.031
 20
102.238
 30
0.0
 11
265.031
 21
102.838
 31
0.0
  0
LINE
  8
0
 62
     0
 10
265.031
 20
102.838
 30
0.0
 11
279.032
 21
102.838
 31
0.0
  0
LINE
  8
0
 62
     0
 10
279.032
 20
102.838
 30
0.0
 11
279.032
 21
102.238
 31
0.0
  0
LINE
  8
0
 62
     0
 10
279.032
 20
102.238
 30
0.0
 11
279.831
 21
102.238
 31
0.0
  0
LINE
  8
0
 62
     0
 10
279.831
 20
102.238
 30
0.0
 11
279.831
 21
89.4373
 31
0.0
  0
LINE
  8
0
 62
     0
 10
279.831
 20
89.4373
 30
0.0
 11
279.032
 21
89.4373
 31
0.0
  0
LINE
  8
0
 62
     0
 10
283.793
 20
32.2874
 30
0.0
 11
283.793
 21
31.688
 31
0.0
  0
LINE
  8
0
 62
     0
 10
283.793
 20
31.688
 30
0.0
 11
269.794
 21
31.688
 31
0.0
  0
LINE
  8
0
 62
     0
 10
269.794
 20
31.688
 30
0.0
 11
269.794
 21
32.2874
 31
0.0
  0
LINE
  8
0
 62
     0
 10
269.794
 20
32.2874
 30
0.0
 11
268.993
 21
32.2874
 31
0.0
  0
LINE
  8
0
 62
     0
 10
268.993
 20
32.2874
 30
0.0
 11
268.993
 21
45.0882
 31
0.0
  0
LINE
  8
0
 62
     0
 10
268.993
 20
45.0882
 30
0.0
 11
269.794
 21
45.0882
 31
0.0
  0
LINE
  8
0
 62
     0
 10
269.794
 20
45.0882
 30
0.0
 11
269.794
 21
45.6875
 31
0.0
  0
LINE
  8
0
 62
     0
 10
269.794
 20
45.6875
 30
0.0
 11
283.793
 21
45.6875
 31
0.0
  0
LINE
  8
0
 62
     0
 10
283.793
 20
45.6875
 30
0.0
 11
283.793
 21
45.0882
 31
0.0
  0
LINE
  8
0
 62
     0
 10
283.793
 20
45.0882
 30
0.0
 11
284.594
 21
45.0882
 31
0.0
  0
LINE
  8
0
 62
     0
 10
284.594
 20
45.0882
 30
0.0
 11
284.594
 21
32.2874
 31
0.0
  0
LINE
  8
0
 62
     0
 10
284.594
 20
32.2874
 30
0.0
 11
283.793
 21
32.2874
 31
0.0
  0
LINE
  8
0
 62
     0
 10
288.557
 20
118.012
 30
0.0
 11
288.557
 21
117.413
 31
0.0
  0
LINE
  8
0
 62
     0
 10
288.557
 20
117.413
 30
0.0
 11
274.556
 21
117.413
 31
0.0
  0
LINE
  8
0
 62
     0
 10
274.556
 20
117.413
 30
0.0
 11
274.556
 21
118.012
 31
0.0
  0
LINE
  8
0
 62
     0
 10
274.556
 20
118.012
 30
0.0
 11
273.757
 21
118.012
 31
0.0
  0
LINE
  8
0
 62
     0
 10
273.757
 20
118.012
 30
0.0
 11
273.757
 21
130.813
 31
0.0
  0
LINE
  8
0
 62
     0
 10
273.757
 20
130.813
 30
0.0
 11
274.556
 21
130.813
 31
0.0
  0
LINE
  8
0
 62
     0
 10
274.556
 20
130.813
 30
0.0
 11
274.556
 21
131.413
 31
0.0
  0
LINE
  8
0
 62
     0
 10
274.556
 20
131.413
 30
0.0
 11
288.557
 21
131.413
 31
0.0
  0
LINE
  8
0
 62
     0
 10
288.557
 20
131.413
 30
0.0
 11
288.557
 21
130.813
 31
0.0
  0
LINE
  8
0
 62
     0
 10
288.557
 20
130.813
 30
0.0
 11
289.356
 21
130.813
 31
0.0
  0
LINE
  8
0
 62
     0
 10
289.356
 20
130.813
 30
0.0
 11
289.356
 21
118.012
 31
0.0
  0
LINE
  8
0
 62
     0
 10
289.356
 20
118.012
 30
0.0
 11
288.557
 21
118.012
 31
0.0
  0
LINE
  8
0
 62
     0
 10
288.557
 20
70.3873
 30
0.0
 11
288.557
 21
69.7879
 31
0.0
  0
LINE
  8
0
 62
     0
 10
288.557
 20
69.7879
 30
0.0
 11
274.556
 21
69.7879
 31
0.0
  0
LINE
  8
0
 62
     0
 10
274.556
 20
69.7879
 30
0.0
 11
274.556
 21
70.3873
 31
0.0
  0
LINE
  8
0
 62
     0
 10
274.556
 20
70.3873
 30
0.0
 11
273.757
 21
70.3873
 31
0.0
  0
LINE
  8
0
 62
     0
 10
273.757
 20
70.3873
 30
0.0
 11
273.757
 21
83.1882
 31
0.0
  0
LINE
  8
0
 62
     0
 10
273.757
 20
83.1882
 30
0.0
 11
274.556
 21
83.1882
 31
0.0
  0
LINE
  8
0
 62
     0
 10
274.556
 20
83.1882
 30
0.0
 11
274.556
 21
83.7875
 31
0.0
  0
LINE
  8
0
 62
     0
 10
274.556
 20
83.7875
 30
0.0
 11
288.557
 21
83.7875
 31
0.0
  0
LINE
  8
0
 62
     0
 10
288.557
 20
83.7875
 30
0.0
 11
288.557
 21
83.1882
 31
0.0
  0
LINE
  8
0
 62
     0
 10
288.557
 20
83.1882
 30
0.0
 11
289.356
 21
83.1882
 31
0.0
  0
LINE
  8
0
 62
     0
 10
289.356
 20
83.1882
 30
0.0
 11
289.356
 21
70.3873
 31
0.0
  0
LINE
  8
0
 62
     0
 10
289.356
 20
70.3873
 30
0.0
 11
288.557
 21
70.3873
 31
0.0
  0
LINE
  8
0
 62
     0
 10
293.318
 20
51.3373
 30
0.0
 11
293.318
 21
50.7379
 31
0.0
  0
LINE
  8
0
 62
     0
 10
293.318
 20
50.7379
 30
0.0
 11
279.319
 21
50.7379
 31
0.0
  0
LINE
  8
0
 62
     0
 10
279.319
 20
50.7379
 30
0.0
 11
279.319
 21
51.3373
 31
0.0
  0
LINE
  8
0
 62
     0
 10
279.319
 20
51.3373
 30
0.0
 11
278.518
 21
51.3373
 31
0.0
  0
LINE
  8
0
 62
     0
 10
278.518
 20
51.3373
 30
0.0
 11
278.518
 21
64.1382
 31
0.0
  0
LINE
  8
0
 62
     0
 10
278.518
 20
64.1382
 30
0.0
 11
279.319
 21
64.1382
 31
0.0
  0
LINE
  8
0
 62
     0
 10
279.319
 20
64.1382
 30
0.0
 11
279.319
 21
64.7375
 31
0.0
  0
LINE
  8
0
 62
     0
 10
279.319
 20
64.7375
 30
0.0
 11
293.318
 21
64.7375
 31
0.0
  0
LINE
  8
0
 62
     0
 10
293.318
 20
64.7375
 30
0.0
 11
293.318
 21
64.1382
 31
0.0
  0
LINE
  8
0
 62
     0
 10
293.318
 20
64.1382
 30
0.0
 11
294.119
 21
64.1382
 31
0.0
  0
LINE
  8
0
 62
     0
 10
294.119
 20
64.1382
 30
0.0
 11
294.119
 21
51.3373
 31
0.0
  0
LINE
  8
0
 62
     0
 10
294.119
 20
51.3373
 30
0.0
 11
293.318
 21
51.3373
 31
0.0
  0
LINE
  8
0
 62
     0
 10
298.082
 20
89.4373
 30
0.0
 11
298.082
 21
88.8379
 31
0.0
  0
LINE
  8
0
 62
     0
 10
298.082
 20
88.8379
 30
0.0
 11
284.081
 21
88.8379
 31
0.0
  0
LINE
  8
0
 62
     0
 10
284.081
 20
88.8379
 30
0.0
 11
284.081
 21
89.4373
 31
0.0
  0
LINE
  8
0
 62
     0
 10
284.081
 20
89.4373
 30
0.0
 11
283.282
 21
89.4373
 31
0.0
  0
LINE
  8
0
 62
     0
 10
283.282
 20
89.4373
 30
0.0
 11
283.282
 21
102.238
 31
0.0
  0
LINE
  8
0
 62
     0
 10
283.282
 20
102.238
 30
0.0
 11
284.081
 21
102.238
 31
0.0
  0
LINE
  8
0
 62
     0
 10
284.081
 20
102.238
 30
0.0
 11
284.081
 21
102.838
 31
0.0
  0
LINE
  8
0
 62
     0
 10
284.081
 20
102.838
 30
0.0
 11
298.082
 21
102.838
 31
0.0
  0
LINE
  8
0
 62
     0
 10
298.082
 20
102.838
 30
0.0
 11
298.082
 21
102.238
 31
0.0
  0
LINE
  8
0
 62
     0
 10
298.082
 20
102.238
 30
0.0
 11
298.881
 21
102.238
 31
0.0
  0
LINE
  8
0
 62
     0
 10
298.881
 20
102.238
 30
0.0
 11
298.881
 21
89.4373
 31
0.0
  0
LINE
  8
0
 62
     0
 10
298.881
 20
89.4373
 30
0.0
 11
298.082
 21
89.4373
 31
0.0
  0
LINE
  8
0
 62
     0
 10
300.463
 20
13.2374
 30
0.0
 11
300.463
 21
12.638
 31
0.0
  0
LINE
  8
0
 62
     0
 10
300.463
 20
12.638
 30
0.0
 11
286.463
 21
12.638
 31
0.0
  0
LINE
  8
0
 62
     0
 10
286.463
 20
12.638
 30
0.0
 11
286.463
 21
13.2374
 31
0.0
  0
LINE
  8
0
 62
     0
 10
286.463
 20
13.2374
 30
0.0
 11
285.663
 21
13.2374
 31
0.0
  0
LINE
  8
0
 62
     0
 10
285.663
 20
13.2374
 30
0.0
 11
285.663
 21
26.038
 31
0.0
  0
LINE
  8
0
 62
     0
 10
285.663
 20
26.038
 30
0.0
 11
286.463
 21
26.038
 31
0.0
  0
LINE
  8
0
 62
     0
 10
286.463
 20
26.038
 30
0.0
 11
286.463
 21
26.6375
 31
0.0
  0
LINE
  8
0
 62
     0
 10
286.463
 20
26.6375
 30
0.0
 11
300.463
 21
26.6375
 31
0.0
  0
LINE
  8
0
 62
     0
 10
300.463
 20
26.6375
 30
0.0
 11
300.463
 21
26.038
 31
0.0
  0
LINE
  8
0
 62
     0
 10
300.463
 20
26.038
 30
0.0
 11
301.263
 21
26.038
 31
0.0
  0
LINE
  8
0
 62
     0
 10
301.263
 20
26.038
 30
0.0
 11
301.263
 21
13.2374
 31
0.0
  0
LINE
  8
0
 62
     0
 10
301.263
 20
13.2374
 30
0.0
 11
300.463
 21
13.2374
 31
0.0
  0
LINE
  8
0
 62
     0
 10
302.843
 20
32.2874
 30
0.0
 11
302.843
 21
31.688
 31
0.0
  0
LINE
  8
0
 62
     0
 10
302.843
 20
31.688
 30
0.0
 11
288.844
 21
31.688
 31
0.0
  0
LINE
  8
0
 62
     0
 10
288.844
 20
31.688
 30
0.0
 11
288.844
 21
32.2874
 31
0.0
  0
LINE
  8
0
 62
     0
 10
288.844
 20
32.2874
 30
0.0
 11
288.043
 21
32.2874
 31
0.0
  0
LINE
  8
0
 62
     0
 10
288.043
 20
32.2874
 30
0.0
 11
288.043
 21
45.0882
 31
0.0
  0
LINE
  8
0
 62
     0
 10
288.043
 20
45.0882
 30
0.0
 11
288.844
 21
45.0882
 31
0.0
  0
LINE
  8
0
 62
     0
 10
288.844
 20
45.0882
 30
0.0
 11
288.844
 21
45.6875
 31
0.0
  0
LINE
  8
0
 62
     0
 10
288.844
 20
45.6875
 30
0.0
 11
302.843
 21
45.6875
 31
0.0
  0
LINE
  8
0
 62
     0
 10
302.843
 20
45.6875
 30
0.0
 11
302.843
 21
45.0882
 31
0.0
  0
LINE
  8
0
 62
     0
 10
302.843
 20
45.0882
 30
0.0
 11
303.644
 21
45.0882
 31
0.0
  0
LINE
  8
0
 62
     0
 10
303.644
 20
45.0882
 30
0.0
 11
303.644
 21
32.2874
 31
0.0
  0
LINE
  8
0
 62
     0
 10
303.644
 20
32.2874
 30
0.0
 11
302.843
 21
32.2874
 31
0.0
  0
LINE
  8
0
 62
     0
 10
307.607
 20
70.3873
 30
0.0
 11
307.607
 21
69.7879
 31
0.0
  0
LINE
  8
0
 62
     0
 10
307.607
 20
69.7879
 30
0.0
 11
293.606
 21
69.7879
 31
0.0
  0
LINE
  8
0
 62
     0
 10
293.606
 20
69.7879
 30
0.0
 11
293.606
 21
70.3873
 31
0.0
  0
LINE
  8
0
 62
     0
 10
293.606
 20
70.3873
 30
0.0
 11
292.807
 21
70.3873
 31
0.0
  0
LINE
  8
0
 62
     0
 10
292.807
 20
70.3873
 30
0.0
 11
292.807
 21
83.1882
 31
0.0
  0
LINE
  8
0
 62
     0
 10
292.807
 20
83.1882
 30
0.0
 11
293.606
 21
83.1882
 31
0.0
  0
LINE
  8
0
 62
     0
 10
293.606
 20
83.1882
 30
0.0
 11
293.606
 21
83.7875
 31
0.0
  0
LINE
  8
0
 62
     0
 10
293.606
 20
83.7875
 30
0.0
 11
307.607
 21
83.7875
 31
0.0
  0
LINE
  8
0
 62
     0
 10
307.607
 20
83.7875
 30
0.0
 11
307.607
 21
83.1882
 31
0.0
  0
LINE
  8
0
 62
     0
 10
307.607
 20
83.1882
 30
0.0
 11
308.406
 21
83.1882
 31
0.0
  0
LINE
  8
0
 62
     0
 10
308.406
 20
83.1882
 30
0.0
 11
308.406
 21
70.3873
 31
0.0
  0
LINE
  8
0
 62
     0
 10
308.406
 20
70.3873
 30
0.0
 11
307.607
 21
70.3873
 31
0.0
  0
LINE
  8
0
 62
     0
 10
312.368
 20
51.3373
 30
0.0
 11
312.368
 21
50.7379
 31
0.0
  0
LINE
  8
0
 62
     0
 10
312.368
 20
50.7379
 30
0.0
 11
298.369
 21
50.7379
 31
0.0
  0
LINE
  8
0
 62
     0
 10
298.369
 20
50.7379
 30
0.0
 11
298.369
 21
51.3373
 31
0.0
  0
LINE
  8
0
 62
     0
 10
298.369
 20
51.3373
 30
0.0
 11
297.568
 21
51.3373
 31
0.0
  0
LINE
  8
0
 62
     0
 10
297.568
 20
51.3373
 30
0.0
 11
297.568
 21
64.1382
 31
0.0
  0
LINE
  8
0
 62
     0
 10
297.568
 20
64.1382
 30
0.0
 11
298.369
 21
64.1382
 31
0.0
  0
LINE
  8
0
 62
     0
 10
298.369
 20
64.1382
 30
0.0
 11
298.369
 21
64.7375
 31
0.0
  0
LINE
  8
0
 62
     0
 10
298.369
 20
64.7375
 30
0.0
 11
312.368
 21
64.7375
 31
0.0
  0
LINE
  8
0
 62
     0
 10
312.368
 20
64.7375
 30
0.0
 11
312.368
 21
64.1382
 31
0.0
  0
LINE
  8
0
 62
     0
 10
312.368
 20
64.1382
 30
0.0
 11
313.169
 21
64.1382
 31
0.0
  0
LINE
  8
0
 62
     0
 10
313.169
 20
64.1382
 30
0.0
 11
313.169
 21
51.3373
 31
0.0
  0
LINE
  8
0
 62
     0
 10
313.169
 20
51.3373
 30
0.0
 11
312.368
 21
51.3373
 31
0.0
  0
LINE
  8
0
 62
     0
 10
317.132
 20
118.012
 30
0.0
 11
317.132
 21
117.413
 31
0.0
  0
LINE
  8
0
 62
     0
 10
317.132
 20
117.413
 30
0.0
 11
303.131
 21
117.413
 31
0.0
  0
LINE
  8
0
 62
     0
 10
303.131
 20
117.413
 30
0.0
 11
303.131
 21
118.012
 31
0.0
  0
LINE
  8
0
 62
     0
 10
303.131
 20
118.012
 30
0.0
 11
302.332
 21
118.012
 31
0.0
  0
LINE
  8
0
 62
     0
 10
302.332
 20
118.012
 30
0.0
 11
302.332
 21
130.813
 31
0.0
  0
LINE
  8
0
 62
     0
 10
302.332
 20
130.813
 30
0.0
 11
303.131
 21
130.813
 31
0.0
  0
LINE
  8
0
 62
     0
 10
303.131
 20
130.813
 30
0.0
 11
303.131
 21
131.413
 31
0.0
  0
LINE
  8
0
 62
     0
 10
303.131
 20
131.413
 30
0.0
 11
317.132
 21
131.413
 31
0.0
  0
LINE
  8
0
 62
     0
 10
317.132
 20
131.413
 30
0.0
 11
317.132
 21
130.813
 31
0.0
  0
LINE
  8
0
 62
     0
 10
317.132
 20
130.813
 30
0.0
 11
317.931
 21
130.813
 31
0.0
  0
LINE
  8
0
 62
     0
 10
317.931
 20
130.813
 30
0.0
 11
317.931
 21
118.012
 31
0.0
  0
LINE
  8
0
 62
     0
 10
317.931
 20
118.012
 30
0.0
 11
317.132
 21
118.012
 31
0.0
  0
LINE
  8
0
 62
     0
 10
317.132
 20
89.4373
 30
0.0
 11
317.132
 21
88.8379
 31
0.0
  0
LINE
  8
0
 62
     0
 10
317.132
 20
88.8379
 30
0.0
 11
303.131
 21
88.8379
 31
0.0
  0
LINE
  8
0
 62
     0
 10
303.131
 20
88.8379
 30
0.0
 11
303.131
 21
89.4373
 31
0.0
  0
LINE
  8
0
 62
     0
 10
303.131
 20
89.4373
 30
0.0
 11
302.332
 21
89.4373
 31
0.0
  0
LINE
  8
0
 62
     0
 10
302.332
 20
89.4373
 30
0.0
 11
302.332
 21
102.238
 31
0.0
  0
LINE
  8
0
 62
     0
 10
302.332
 20
102.238
 30
0.0
 11
303.131
 21
102.238
 31
0.0
  0
LINE
  8
0
 62
     0
 10
303.131
 20
102.238
 30
0.0
 11
303.131
 21
102.838
 31
0.0
  0
LINE
  8
0
 62
     0
 10
303.131
 20
102.838
 30
0.0
 11
317.132
 21
102.838
 31
0.0
  0
LINE
  8
0
 62
     0
 10
317.132
 20
102.838
 30
0.0
 11
317.132
 21
102.238
 31
0.0
  0
LINE
  8
0
 62
     0
 10
317.132
 20
102.238
 30
0.0
 11
317.931
 21
102.238
 31
0.0
  0
LINE
  8
0
 62
     0
 10
317.931
 20
102.238
 30
0.0
 11
317.931
 21
89.4373
 31
0.0
  0
LINE
  8
0
 62
     0
 10
317.931
 20
89.4373
 30
0.0
 11
317.132
 21
89.4373
 31
0.0
  0
LINE
  8
0
 62
     0
 10
321.893
 20
32.2874
 30
0.0
 11
321.893
 21
31.688
 31
0.0
  0
LINE
  8
0
 62
     0
 10
321.893
 20
31.688
 30
0.0
 11
307.894
 21
31.688
 31
0.0
  0
LINE
  8
0
 62
     0
 10
307.894
 20
31.688
 30
0.0
 11
307.894
 21
32.2874
 31
0.0
  0
LINE
  8
0
 62
     0
 10
307.894
 20
32.2874
 30
0.0
 11
307.093
 21
32.2874
 31
0.0
  0
LINE
  8
0
 62
     0
 10
307.093
 20
32.2874
 30
0.0
 11
307.093
 21
45.0882
 31
0.0
  0
LINE
  8
0
 62
     0
 10
307.093
 20
45.0882
 30
0.0
 11
307.894
 21
45.0882
 31
0.0
  0
LINE
  8
0
 62
     0
 10
307.894
 20
45.0882
 30
0.0
 11
307.894
 21
45.6875
 31
0.0
  0
LINE
  8
0
 62
     0
 10
307.894
 20
45.6875
 30
0.0
 11
321.893
 21
45.6875
 31
0.0
  0
LINE
  8
0
 62
     0
 10
321.893
 20
45.6875
 30
0.0
 11
321.893
 21
45.0882
 31
0.0
  0
LINE
  8
0
 62
     0
 10
321.893
 20
45.0882
 30
0.0
 11
322.694
 21
45.0882
 31
0.0
  0
LINE
  8
0
 62
     0
 10
322.694
 20
45.0882
 30
0.0
 11
322.694
 21
32.2874
 31
0.0
  0
LINE
  8
0
 62
     0
 10
322.694
 20
32.2874
 30
0.0
 11
321.893
 21
32.2874
 31
0.0
  0
LINE
  8
0
 62
     0
 10
324.274
 20
13.2374
 30
0.0
 11
324.274
 21
12.638
 31
0.0
  0
LINE
  8
0
 62
     0
 10
324.274
 20
12.638
 30
0.0
 11
310.275
 21
12.638
 31
0.0
  0
LINE
  8
0
 62
     0
 10
310.275
 20
12.638
 30
0.0
 11
310.275
 21
13.2374
 31
0.0
  0
LINE
  8
0
 62
     0
 10
310.275
 20
13.2374
 30
0.0
 11
309.474
 21
13.2374
 31
0.0
  0
LINE
  8
0
 62
     0
 10
309.474
 20
13.2374
 30
0.0
 11
309.474
 21
26.038
 31
0.0
  0
LINE
  8
0
 62
     0
 10
309.474
 20
26.038
 30
0.0
 11
310.275
 21
26.038
 31
0.0
  0
LINE
  8
0
 62
     0
 10
310.275
 20
26.038
 30
0.0
 11
310.275
 21
26.6375
 31
0.0
  0
LINE
  8
0
 62
     0
 10
310.275
 20
26.6375
 30
0.0
 11
324.274
 21
26.6375
 31
0.0
  0
LINE
  8
0
 62
     0
 10
324.274
 20
26.6375
 30
0.0
 11
324.274
 21
26.038
 31
0.0
  0
LINE
  8
0
 62
     0
 10
324.274
 20
26.038
 30
0.0
 11
325.075
 21
26.038
 31
0.0
  0
LINE
  8
0
 62
     0
 10
325.075
 20
26.038
 30
0.0
 11
325.075
 21
13.2374
 31
0.0
  0
LINE
  8
0
 62
     0
 10
325.075
 20
13.2374
 30
0.0
 11
324.274
 21
13.2374
 31
0.0
  0
LINE
  8
0
 62
     0
 10
326.657
 20
70.3873
 30
0.0
 11
326.657
 21
69.7879
 31
0.0
  0
LINE
  8
0
 62
     0
 10
326.657
 20
69.7879
 30
0.0
 11
312.656
 21
69.7879
 31
0.0
  0
LINE
  8
0
 62
     0
 10
312.656
 20
69.7879
 30
0.0
 11
312.656
 21
70.3873
 31
0.0
  0
LINE
  8
0
 62
     0
 10
312.656
 20
70.3873
 30
0.0
 11
311.857
 21
70.3873
 31
0.0
  0
LINE
  8
0
 62
     0
 10
311.857
 20
70.3873
 30
0.0
 11
311.857
 21
83.1882
 31
0.0
  0
LINE
  8
0
 62
     0
 10
311.857
 20
83.1882
 30
0.0
 11
312.656
 21
83.1882
 31
0.0
  0
LINE
  8
0
 62
     0
 10
312.656
 20
83.1882
 30
0.0
 11
312.656
 21
83.7875
 31
0.0
  0
LINE
  8
0
 62
     0
 10
312.656
 20
83.7875
 30
0.0
 11
326.657
 21
83.7875
 31
0.0
  0
LINE
  8
0
 62
     0
 10
326.657
 20
83.7875
 30
0.0
 11
326.657
 21
83.1882
 31
0.0
  0
LINE
  8
0
 62
     0
 10
326.657
 20
83.1882
 30
0.0
 11
327.456
 21
83.1882
 31
0.0
  0
LINE
  8
0
 62
     0
 10
327.456
 20
83.1882
 30
0.0
 11
327.456
 21
70.3873
 31
0.0
  0
LINE
  8
0
 62
     0
 10
327.456
 20
70.3873
 30
0.0
 11
326.657
 21
70.3873
 31
0.0
  0
LINE
  8
0
 62
     0
 10
331.418
 20
51.3373
 30
0.0
 11
331.418
 21
50.7379
 31
0.0
  0
LINE
  8
0
 62
     0
 10
331.418
 20
50.7379
 30
0.0
 11
317.419
 21
50.7379
 31
0.0
  0
LINE
  8
0
 62
     0
 10
317.419
 20
50.7379
 30
0.0
 11
317.419
 21
51.3373
 31
0.0
  0
LINE
  8
0
 62
     0
 10
317.419
 20
51.3373
 30
0.0
 11
316.618
 21
51.3373
 31
0.0
  0
LINE
  8
0
 62
     0
 10
316.618
 20
51.3373
 30
0.0
 11
316.618
 21
64.1382
 31
0.0
  0
LINE
  8
0
 62
     0
 10
316.618
 20
64.1382
 30
0.0
 11
317.419
 21
64.1382
 31
0.0
  0
LINE
  8
0
 62
     0
 10
317.419
 20
64.1382
 30
0.0
 11
317.419
 21
64.7375
 31
0.0
  0
LINE
  8
0
 62
     0
 10
317.419
 20
64.7375
 30
0.0
 11
331.418
 21
64.7375
 31
0.0
  0
LINE
  8
0
 62
     0
 10
331.418
 20
64.7375
 30
0.0
 11
331.418
 21
64.1382
 31
0.0
  0
LINE
  8
0
 62
     0
 10
331.418
 20
64.1382
 30
0.0
 11
332.219
 21
64.1382
 31
0.0
  0
LINE
  8
0
 62
     0
 10
332.219
 20
64.1382
 30
0.0
 11
332.219
 21
51.3373
 31
0.0
  0
LINE
  8
0
 62
     0
 10
332.219
 20
51.3373
 30
0.0
 11
331.418
 21
51.3373
 31
0.0
  0
LINE
  8
0
 62
     0
 10
336.182
 20
118.012
 30
0.0
 11
336.182
 21
117.413
 31
0.0
  0
LINE
  8
0
 62
     0
 10
336.182
 20
117.413
 30
0.0
 11
322.181
 21
117.413
 31
0.0
  0
LINE
  8
0
 62
     0
 10
322.181
 20
117.413
 30
0.0
 11
322.181
 21
118.012
 31
0.0
  0
LINE
  8
0
 62
     0
 10
322.181
 20
118.012
 30
0.0
 11
321.382
 21
118.012
 31
0.0
  0
LINE
  8
0
 62
     0
 10
321.382
 20
118.012
 30
0.0
 11
321.382
 21
130.813
 31
0.0
  0
LINE
  8
0
 62
     0
 10
321.382
 20
130.813
 30
0.0
 11
322.181
 21
130.813
 31
0.0
  0
LINE
  8
0
 62
     0
 10
322.181
 20
130.813
 30
0.0
 11
322.181
 21
131.413
 31
0.0
  0
LINE
  8
0
 62
     0
 10
322.181
 20
131.413
 30
0.0
 11
336.182
 21
131.413
 31
0.0
  0
LINE
  8
0
 62
     0
 10
336.182
 20
131.413
 30
0.0
 11
336.182
 21
130.813
 31
0.0
  0
LINE
  8
0
 62
     0
 10
336.182
 20
130.813
 30
0.0
 11
336.981
 21
130.813
 31
0.0
  0
LINE
  8
0
 62
     0
 10
336.981
 20
130.813
 30
0.0
 11
336.981
 21
118.012
 31
0.0
  0
LINE
  8
0
 62
     0
 10
336.981
 20
118.012
 30
0.0
 11
336.182
 21
118.012
 31
0.0
  0
LINE
  8
0
 62
     0
 10
336.182
 20
89.4373
 30
0.0
 11
336.182
 21
88.8379
 31
0.0
  0
LINE
  8
0
 62
     0
 10
336.182
 20
88.8379
 30
0.0
 11
322.181
 21
88.8379
 31
0.0
  0
LINE
  8
0
 62
     0
 10
322.181
 20
88.8379
 30
0.0
 11
322.181
 21
89.4373
 31
0.0
  0
LINE
  8
0
 62
     0
 10
322.181
 20
89.4373
 30
0.0
 11
321.382
 21
89.4373
 31
0.0
  0
LINE
  8
0
 62
     0
 10
321.382
 20
89.4373
 30
0.0
 11
321.382
 21
102.238
 31
0.0
  0
LINE
  8
0
 62
     0
 10
321.382
 20
102.238
 30
0.0
 11
322.181
 21
102.238
 31
0.0
  0
LINE
  8
0
 62
     0
 10
322.181
 20
102.238
 30
0.0
 11
322.181
 21
102.838
 31
0.0
  0
LINE
  8
0
 62
     0
 10
322.181
 20
102.838
 30
0.0
 11
336.182
 21
102.838
 31
0.0
  0
LINE
  8
0
 62
     0
 10
336.182
 20
102.838
 30
0.0
 11
336.182
 21
102.238
 31
0.0
  0
LINE
  8
0
 62
     0
 10
336.182
 20
102.238
 30
0.0
 11
336.981
 21
102.238
 31
0.0
  0
LINE
  8
0
 62
     0
 10
336.981
 20
102.238
 30
0.0
 11
336.981
 21
89.4373
 31
0.0
  0
LINE
  8
0
 62
     0
 10
336.981
 20
89.4373
 30
0.0
 11
336.182
 21
89.4373
 31
0.0
  0
LINE
  8
0
 62
     0
 10
345.707
 20
70.3873
 30
0.0
 11
345.707
 21
69.7879
 31
0.0
  0
LINE
  8
0
 62
     0
 10
345.707
 20
69.7879
 30
0.0
 11
331.706
 21
69.7879
 31
0.0
  0
LINE
  8
0
 62
     0
 10
331.706
 20
69.7879
 30
0.0
 11
331.706
 21
70.3873
 31
0.0
  0
LINE
  8
0
 62
     0
 10
331.706
 20
70.3873
 30
0.0
 11
330.907
 21
70.3873
 31
0.0
  0
LINE
  8
0
 62
     0
 10
330.907
 20
70.3873
 30
0.0
 11
330.907
 21
83.1882
 31
0.0
  0
LINE
  8
0
 62
     0
 10
330.907
 20
83.1882
 30
0.0
 11
331.706
 21
83.1882
 31
0.0
  0
LINE
  8
0
 62
     0
 10
331.706
 20
83.1882
 30
0.0
 11
331.706
 21
83.7875
 31
0.0
  0
LINE
  8
0
 62
     0
 10
331.706
 20
83.7875
 30
0.0
 11
345.707
 21
83.7875
 31
0.0
  0
LINE
  8
0
 62
     0
 10
345.707
 20
83.7875
 30
0.0
 11
345.707
 21
83.1882
 31
0.0
  0
LINE
  8
0
 62
     0
 10
345.707
 20
83.1882
 30
0.0
 11
346.506
 21
83.1882
 31
0.0
  0
LINE
  8
0
 62
     0
 10
346.506
 20
83.1882
 30
0.0
 11
346.506
 21
70.3873
 31
0.0
  0
LINE
  8
0
 62
     0
 10
346.506
 20
70.3873
 30
0.0
 11
345.707
 21
70.3873
 31
0.0
  0
LINE
  8
0
 62
     0
 10
348.088
 20
13.2374
 30
0.0
 11
348.088
 21
12.638
 31
0.0
  0
LINE
  8
0
 62
     0
 10
348.088
 20
12.638
 30
0.0
 11
334.088
 21
12.638
 31
0.0
  0
LINE
  8
0
 62
     0
 10
334.088
 20
12.638
 30
0.0
 11
334.088
 21
13.2374
 31
0.0
  0
LINE
  8
0
 62
     0
 10
334.088
 20
13.2374
 30
0.0
 11
333.288
 21
13.2374
 31
0.0
  0
LINE
  8
0
 62
     0
 10
333.288
 20
13.2374
 30
0.0
 11
333.288
 21
26.038
 31
0.0
  0
LINE
  8
0
 62
     0
 10
333.288
 20
26.038
 30
0.0
 11
334.088
 21
26.038
 31
0.0
  0
LINE
  8
0
 62
     0
 10
334.088
 20
26.038
 30
0.0
 11
334.088
 21
26.6375
 31
0.0
  0
LINE
  8
0
 62
     0
 10
334.088
 20
26.6375
 30
0.0
 11
348.088
 21
26.6375
 31
0.0
  0
LINE
  8
0
 62
     0
 10
348.088
 20
26.6375
 30
0.0
 11
348.088
 21
26.038
 31
0.0
  0
LINE
  8
0
 62
     0
 10
348.088
 20
26.038
 30
0.0
 11
348.888
 21
26.038
 31
0.0
  0
LINE
  8
0
 62
     0
 10
348.888
 20
26.038
 30
0.0
 11
348.888
 21
13.2374
 31
0.0
  0
LINE
  8
0
 62
     0
 10
348.888
 20
13.2374
 30
0.0
 11
348.088
 21
13.2374
 31
0.0
  0
LINE
  8
0
 62
     0
 10
355.233
 20
118.012
 30
0.0
 11
355.233
 21
117.413
 31
0.0
  0
LINE
  8
0
 62
     0
 10
355.233
 20
117.413
 30
0.0
 11
341.231
 21
117.413
 31
0.0
  0
LINE
  8
0
 62
     0
 10
341.231
 20
117.413
 30
0.0
 11
341.231
 21
118.012
 31
0.0
  0
LINE
  8
0
 62
     0
 10
341.231
 20
118.012
 30
0.0
 11
340.432
 21
118.012
 31
0.0
  0
LINE
  8
0
 62
     0
 10
340.432
 20
118.012
 30
0.0
 11
340.432
 21
130.813
 31
0.0
  0
LINE
  8
0
 62
     0
 10
340.432
 20
130.813
 30
0.0
 11
341.231
 21
130.813
 31
0.0
  0
LINE
  8
0
 62
     0
 10
341.231
 20
130.813
 30
0.0
 11
341.231
 21
131.413
 31
0.0
  0
LINE
  8
0
 62
     0
 10
341.231
 20
131.413
 30
0.0
 11
355.233
 21
131.413
 31
0.0
  0
LINE
  8
0
 62
     0
 10
355.233
 20
131.413
 30
0.0
 11
355.233
 21
130.813
 31
0.0
  0
LINE
  8
0
 62
     0
 10
355.233
 20
130.813
 30
0.0
 11
356.03
 21
130.813
 31
0.0
  0
LINE
  8
0
 62
     0
 10
356.03
 20
130.813
 30
0.0
 11
356.03
 21
118.012
 31
0.0
  0
LINE
  8
0
 62
     0
 10
356.03
 20
118.012
 30
0.0
 11
355.233
 21
118.012
 31
0.0
  0
LINE
  8
0
 62
     0
 10
365.838
 20
38.1868
 30
0.0
 11
365.838
 21
31.9168
 31
0.0
  0
LINE
  8
0
 62
     0
 10
365.838
 20
31.9168
 30
0.0
 11
364.211
 21
31.9168
 31
0.0
  0
LINE
  8
0
 62
     0
 10
364.211
 20
31.9168
 30
0.0
 11
364.211
 21
30.937
 31
0.0
  0
LINE
  8
0
 62
     0
 10
364.211
 20
30.937
 30
0.0
 11
360.913
 21
30.937
 31
0.0
  0
LINE
  8
0
 62
     0
 10
360.913
 20
30.937
 30
0.0
 11
360.913
 21
31.9168
 31
0.0
  0
LINE
  8
0
 62
     0
 10
360.913
 20
31.9168
 30
0.0
 11
359.188
 21
31.9168
 31
0.0
  0
LINE
  8
0
 62
     0
 10
359.188
 20
31.9168
 30
0.0
 11
359.188
 21
32.7174
 31
0.0
  0
LINE
  8
0
 62
     0
 10
359.188
 20
32.7174
 30
0.0
 11
358.412
 21
32.7174
 31
0.0
  0
LINE
  8
0
 62
     0
 10
358.412
 20
32.7174
 30
0.0
 11
358.412
 21
32.2874
 31
0.0
  0
LINE
  8
0
 62
     0
 10
358.412
 20
32.2874
 30
0.0
 11
357.614
 21
32.2874
 31
0.0
  0
LINE
  8
0
 62
     0
 10
357.614
 20
32.2874
 30
0.0
 11
357.614
 21
31.688
 31
0.0
  0
LINE
  8
0
 62
     0
 10
357.614
 20
31.688
 30
0.0
 11
343.613
 21
31.688
 31
0.0
  0
LINE
  8
0
 62
     0
 10
343.613
 20
31.688
 30
0.0
 11
343.613
 21
32.2874
 31
0.0
  0
LINE
  8
0
 62
     0
 10
343.613
 20
32.2874
 30
0.0
 11
342.813
 21
32.2874
 31
0.0
  0
LINE
  8
0
 62
     0
 10
342.813
 20
32.2874
 30
0.0
 11
342.813
 21
32.7174
 31
0.0
  0
LINE
  8
0
 62
     0
 10
342.813
 20
32.7174
 30
0.0
 11
342.037
 21
32.7174
 31
0.0
  0
LINE
  8
0
 62
     0
 10
342.037
 20
32.7174
 30
0.0
 11
342.037
 21
31.9168
 31
0.0
  0
LINE
  8
0
 62
     0
 10
342.037
 20
31.9168
 30
0.0
 11
340.313
 21
31.9168
 31
0.0
  0
LINE
  8
0
 62
     0
 10
340.313
 20
31.9168
 30
0.0
 11
340.313
 21
30.937
 31
0.0
  0
LINE
  8
0
 62
     0
 10
340.313
 20
30.937
 30
0.0
 11
337.013
 21
30.937
 31
0.0
  0
LINE
  8
0
 62
     0
 10
337.013
 20
30.937
 30
0.0
 11
337.013
 21
31.9168
 31
0.0
  0
LINE
  8
0
 62
     0
 10
337.013
 20
31.9168
 30
0.0
 11
335.388
 21
31.9168
 31
0.0
  0
LINE
  8
0
 62
     0
 10
335.388
 20
31.9168
 30
0.0
 11
335.388
 21
38.1868
 31
0.0
  0
LINE
  8
0
 62
     0
 10
335.388
 20
38.1868
 30
0.0
 11
334.513
 21
38.1868
 31
0.0
  0
LINE
  8
0
 62
     0
 10
334.513
 20
38.1868
 30
0.0
 11
334.513
 21
40.9871
 31
0.0
  0
LINE
  8
0
 62
     0
 10
334.513
 20
40.9871
 30
0.0
 11
335.388
 21
40.9871
 31
0.0
  0
LINE
  8
0
 62
     0
 10
335.388
 20
40.9871
 30
0.0
 11
335.388
 21
44.2172
 31
0.0
  0
LINE
  8
0
 62
     0
 10
335.388
 20
44.2172
 30
0.0
 11
337.013
 21
44.2172
 31
0.0
  0
LINE
  8
0
 62
     0
 10
337.013
 20
44.2172
 30
0.0
 11
337.013
 21
45.1376
 31
0.0
  0
LINE
  8
0
 62
     0
 10
337.013
 20
45.1376
 30
0.0
 11
340.313
 21
45.1376
 31
0.0
  0
LINE
  8
0
 62
     0
 10
340.313
 20
45.1376
 30
0.0
 11
340.313
 21
44.2172
 31
0.0
  0
LINE
  8
0
 62
     0
 10
340.313
 20
44.2172
 30
0.0
 11
342.037
 21
44.2172
 31
0.0
  0
LINE
  8
0
 62
     0
 10
342.037
 20
44.2172
 30
0.0
 11
342.037
 21
43.4178
 31
0.0
  0
LINE
  8
0
 62
     0
 10
342.037
 20
43.4178
 30
0.0
 11
342.813
 21
43.4178
 31
0.0
  0
LINE
  8
0
 62
     0
 10
342.813
 20
43.4178
 30
0.0
 11
342.813
 21
45.0882
 31
0.0
  0
LINE
  8
0
 62
     0
 10
342.813
 20
45.0882
 30
0.0
 11
343.613
 21
45.0882
 31
0.0
  0
LINE
  8
0
 62
     0
 10
343.613
 20
45.0882
 30
0.0
 11
343.613
 21
45.6875
 31
0.0
  0
LINE
  8
0
 62
     0
 10
343.613
 20
45.6875
 30
0.0
 11
357.614
 21
45.6875
 31
0.0
  0
LINE
  8
0
 62
     0
 10
357.614
 20
45.6875
 30
0.0
 11
357.614
 21
45.0882
 31
0.0
  0
LINE
  8
0
 62
     0
 10
357.614
 20
45.0882
 30
0.0
 11
358.412
 21
45.0882
 31
0.0
  0
LINE
  8
0
 62
     0
 10
358.412
 20
45.0882
 30
0.0
 11
358.412
 21
43.4178
 31
0.0
  0
LINE
  8
0
 62
     0
 10
358.412
 20
43.4178
 30
0.0
 11
359.188
 21
43.4178
 31
0.0
  0
LINE
  8
0
 62
     0
 10
359.188
 20
43.4178
 30
0.0
 11
359.188
 21
44.2172
 31
0.0
  0
LINE
  8
0
 62
     0
 10
359.188
 20
44.2172
 30
0.0
 11
360.913
 21
44.2172
 31
0.0
  0
LINE
  8
0
 62
     0
 10
360.913
 20
44.2172
 30
0.0
 11
360.913
 21
45.1376
 31
0.0
  0
LINE
  8
0
 62
     0
 10
360.913
 20
45.1376
 30
0.0
 11
364.211
 21
45.1376
 31
0.0
  0
LINE
  8
0
 62
     0
 10
364.211
 20
45.1376
 30
0.0
 11
364.211
 21
44.2172
 31
0.0
  0
LINE
  8
0
 62
     0
 10
364.211
 20
44.2172
 30
0.0
 11
365.838
 21
44.2172
 31
0.0
  0
LINE
  8
0
 62
     0
 10
365.838
 20
44.2172
 30
0.0
 11
365.838
 21
40.9871
 31
0.0
  0
LINE
  8
0
 62
     0
 10
365.838
 20
40.9871
 30
0.0
 11
366.713
 21
40.9871
 31
0.0
  0
LINE
  8
0
 62
     0
 10
366.713
 20
40.9871
 30
0.0
 11
366.713
 21
38.1868
 31
0.0
  0
LINE
  8
0
 62
     0
 10
366.713
 20
38.1868
 30
0.0
 11
365.838
 21
38.1868
 31
0.0
  0
LINE
  8
0
 62
     0
 10
369.517
 20
70.3873
 30
0.0
 11
369.517
 21
69.7879
 31
0.0
  0
LINE
  8
0
 62
     0
 10
369.517
 20
69.7879
 30
0.0
 11
355.519
 21
69.7879
 31
0.0
  0
LINE
  8
0
 62
     0
 10
355.519
 20
69.7879
 30
0.0
 11
355.519
 21
70.3873
 31
0.0
  0
LINE
  8
0
 62
     0
 10
355.519
 20
70.3873
 30
0.0
 11
354.718
 21
70.3873
 31
0.0
  0
LINE
  8
0
 62
     0
 10
354.718
 20
70.3873
 30
0.0
 11
354.718
 21
83.1882
 31
0.0
  0
LINE
  8
0
 62
     0
 10
354.718
 20
83.1882
 30
0.0
 11
355.519
 21
83.1882
 31
0.0
  0
LINE
  8
0
 62
     0
 10
355.519
 20
83.1882
 30
0.0
 11
355.519
 21
83.7875
 31
0.0
  0
LINE
  8
0
 62
     0
 10
355.519
 20
83.7875
 30
0.0
 11
369.517
 21
83.7875
 31
0.0
  0
LINE
  8
0
 62
     0
 10
369.517
 20
83.7875
 30
0.0
 11
369.517
 21
83.1882
 31
0.0
  0
LINE
  8
0
 62
     0
 10
369.517
 20
83.1882
 30
0.0
 11
370.318
 21
83.1882
 31
0.0
  0
LINE
  8
0
 62
     0
 10
370.318
 20
83.1882
 30
0.0
 11
370.318
 21
70.3873
 31
0.0
  0
LINE
  8
0
 62
     0
 10
370.318
 20
70.3873
 30
0.0
 11
369.517
 21
70.3873
 31
0.0
  0
LINE
  8
0
 62
     0
 10
370.6
 20
57.2368
 30
0.0
 11
370.6
 21
50.9669
 31
0.0
  0
LINE
  8
0
 62
     0
 10
370.6
 20
50.9669
 30
0.0
 11
368.974
 21
50.9669
 31
0.0
  0
LINE
  8
0
 62
     0
 10
368.974
 20
50.9669
 30
0.0
 11
368.974
 21
49.9868
 31
0.0
  0
LINE
  8
0
 62
     0
 10
368.974
 20
49.9868
 30
0.0
 11
365.675
 21
49.9868
 31
0.0
  0
LINE
  8
0
 62
     0
 10
365.675
 20
49.9868
 30
0.0
 11
365.675
 21
50.9669
 31
0.0
  0
LINE
  8
0
 62
     0
 10
365.675
 20
50.9669
 30
0.0
 11
363.95
 21
50.9669
 31
0.0
  0
LINE
  8
0
 62
     0
 10
363.95
 20
50.9669
 30
0.0
 11
363.95
 21
51.7673
 31
0.0
  0
LINE
  8
0
 62
     0
 10
363.95
 20
51.7673
 30
0.0
 11
363.174
 21
51.7673
 31
0.0
  0
LINE
  8
0
 62
     0
 10
363.174
 20
51.7673
 30
0.0
 11
363.174
 21
51.3373
 31
0.0
  0
LINE
  8
0
 62
     0
 10
363.174
 20
51.3373
 30
0.0
 11
362.373
 21
51.3373
 31
0.0
  0
LINE
  8
0
 62
     0
 10
362.373
 20
51.3373
 30
0.0
 11
362.373
 21
50.7379
 31
0.0
  0
LINE
  8
0
 62
     0
 10
362.373
 20
50.7379
 30
0.0
 11
348.375
 21
50.7379
 31
0.0
  0
LINE
  8
0
 62
     0
 10
348.375
 20
50.7379
 30
0.0
 11
348.375
 21
51.3373
 31
0.0
  0
LINE
  8
0
 62
     0
 10
348.375
 20
51.3373
 30
0.0
 11
347.574
 21
51.3373
 31
0.0
  0
LINE
  8
0
 62
     0
 10
347.574
 20
51.3373
 30
0.0
 11
347.574
 21
51.7673
 31
0.0
  0
LINE
  8
0
 62
     0
 10
347.574
 20
51.7673
 30
0.0
 11
346.8
 21
51.7673
 31
0.0
  0
LINE
  8
0
 62
     0
 10
346.8
 20
51.7673
 30
0.0
 11
346.8
 21
50.9669
 31
0.0
  0
LINE
  8
0
 62
     0
 10
346.8
 20
50.9669
 30
0.0
 11
345.075
 21
50.9669
 31
0.0
  0
LINE
  8
0
 62
     0
 10
345.075
 20
50.9669
 30
0.0
 11
345.075
 21
49.9868
 31
0.0
  0
LINE
  8
0
 62
     0
 10
345.075
 20
49.9868
 30
0.0
 11
341.774
 21
49.9868
 31
0.0
  0
LINE
  8
0
 62
     0
 10
341.774
 20
49.9868
 30
0.0
 11
341.774
 21
50.9669
 31
0.0
  0
LINE
  8
0
 62
     0
 10
341.774
 20
50.9669
 30
0.0
 11
340.149
 21
50.9669
 31
0.0
  0
LINE
  8
0
 62
     0
 10
340.149
 20
50.9669
 30
0.0
 11
340.149
 21
57.2368
 31
0.0
  0
LINE
  8
0
 62
     0
 10
340.149
 20
57.2368
 30
0.0
 11
339.275
 21
57.2368
 31
0.0
  0
LINE
  8
0
 62
     0
 10
339.275
 20
57.2368
 30
0.0
 11
339.275
 21
60.0371
 31
0.0
  0
LINE
  8
0
 62
     0
 10
339.275
 20
60.0371
 30
0.0
 11
340.149
 21
60.0371
 31
0.0
  0
LINE
  8
0
 62
     0
 10
340.149
 20
60.0371
 30
0.0
 11
340.149
 21
63.2672
 31
0.0
  0
LINE
  8
0
 62
     0
 10
340.149
 20
63.2672
 30
0.0
 11
341.774
 21
63.2672
 31
0.0
  0
LINE
  8
0
 62
     0
 10
341.774
 20
63.2672
 30
0.0
 11
341.774
 21
64.1876
 31
0.0
  0
LINE
  8
0
 62
     0
 10
341.774
 20
64.1876
 30
0.0
 11
345.075
 21
64.1876
 31
0.0
  0
LINE
  8
0
 62
     0
 10
345.075
 20
64.1876
 30
0.0
 11
345.075
 21
63.2672
 31
0.0
  0
LINE
  8
0
 62
     0
 10
345.075
 20
63.2672
 30
0.0
 11
346.8
 21
63.2672
 31
0.0
  0
LINE
  8
0
 62
     0
 10
346.8
 20
63.2672
 30
0.0
 11
346.8
 21
62.4678
 31
0.0
  0
LINE
  8
0
 62
     0
 10
346.8
 20
62.4678
 30
0.0
 11
347.574
 21
62.4678
 31
0.0
  0
LINE
  8
0
 62
     0
 10
347.574
 20
62.4678
 30
0.0
 11
347.574
 21
64.1382
 31
0.0
  0
LINE
  8
0
 62
     0
 10
347.574
 20
64.1382
 30
0.0
 11
348.375
 21
64.1382
 31
0.0
  0
LINE
  8
0
 62
     0
 10
348.375
 20
64.1382
 30
0.0
 11
348.375
 21
64.7375
 31
0.0
  0
LINE
  8
0
 62
     0
 10
348.375
 20
64.7375
 30
0.0
 11
362.373
 21
64.7375
 31
0.0
  0
LINE
  8
0
 62
     0
 10
362.373
 20
64.7375
 30
0.0
 11
362.373
 21
64.1382
 31
0.0
  0
LINE
  8
0
 62
     0
 10
362.373
 20
64.1382
 30
0.0
 11
363.174
 21
64.1382
 31
0.0
  0
LINE
  8
0
 62
     0
 10
363.174
 20
64.1382
 30
0.0
 11
363.174
 21
62.4678
 31
0.0
  0
LINE
  8
0
 62
     0
 10
363.174
 20
62.4678
 30
0.0
 11
363.95
 21
62.4678
 31
0.0
  0
LINE
  8
0
 62
     0
 10
363.95
 20
62.4678
 30
0.0
 11
363.95
 21
63.2672
 31
0.0
  0
LINE
  8
0
 62
     0
 10
363.95
 20
63.2672
 30
0.0
 11
365.675
 21
63.2672
 31
0.0
  0
LINE
  8
0
 62
     0
 10
365.675
 20
63.2672
 30
0.0
 11
365.675
 21
64.1876
 31
0.0
  0
LINE
  8
0
 62
     0
 10
365.675
 20
64.1876
 30
0.0
 11
368.974
 21
64.1876
 31
0.0
  0
LINE
  8
0
 62
     0
 10
368.974
 20
64.1876
 30
0.0
 11
368.974
 21
63.2672
 31
0.0
  0
LINE
  8
0
 62
     0
 10
368.974
 20
63.2672
 30
0.0
 11
370.6
 21
63.2672
 31
0.0
  0
LINE
  8
0
 62
     0
 10
370.6
 20
63.2672
 30
0.0
 11
370.6
 21
60.0371
 31
0.0
  0
LINE
  8
0
 62
     0
 10
370.6
 20
60.0371
 30
0.0
 11
371.475
 21
60.0371
 31
0.0
  0
LINE
  8
0
 62
     0
 10
371.475
 20
60.0371
 30
0.0
 11
371.475
 21
57.2368
 31
0.0
  0
LINE
  8
0
 62
     0
 10
371.475
 20
57.2368
 30
0.0
 11
370.6
 21
57.2368
 31
0.0
  0
LINE
  8
0
 62
     0
 10
372.981
 20
95.3368
 30
0.0
 11
372.981
 21
89.0669
 31
0.0
  0
LINE
  8
0
 62
     0
 10
372.981
 20
89.0669
 30
0.0
 11
371.355
 21
89.0669
 31
0.0
  0
LINE
  8
0
 62
     0
 10
371.355
 20
89.0669
 30
0.0
 11
371.355
 21
88.0869
 31
0.0
  0
LINE
  8
0
 62
     0
 10
371.355
 20
88.0869
 30
0.0
 11
368.057
 21
88.0869
 31
0.0
  0
LINE
  8
0
 62
     0
 10
368.057
 20
88.0869
 30
0.0
 11
368.057
 21
89.0669
 31
0.0
  0
LINE
  8
0
 62
     0
 10
368.057
 20
89.0669
 30
0.0
 11
366.332
 21
89.0669
 31
0.0
  0
LINE
  8
0
 62
     0
 10
366.332
 20
89.0669
 30
0.0
 11
366.332
 21
89.8673
 31
0.0
  0
LINE
  8
0
 62
     0
 10
366.332
 20
89.8673
 30
0.0
 11
365.555
 21
89.8673
 31
0.0
  0
LINE
  8
0
 62
     0
 10
365.555
 20
89.8673
 30
0.0
 11
365.555
 21
89.4373
 31
0.0
  0
LINE
  8
0
 62
     0
 10
365.555
 20
89.4373
 30
0.0
 11
364.758
 21
89.4373
 31
0.0
  0
LINE
  8
0
 62
     0
 10
364.758
 20
89.4373
 30
0.0
 11
364.758
 21
88.8379
 31
0.0
  0
LINE
  8
0
 62
     0
 10
364.758
 20
88.8379
 30
0.0
 11
350.756
 21
88.8379
 31
0.0
  0
LINE
  8
0
 62
     0
 10
350.756
 20
88.8379
 30
0.0
 11
350.756
 21
89.4373
 31
0.0
  0
LINE
  8
0
 62
     0
 10
350.756
 20
89.4373
 30
0.0
 11
349.957
 21
89.4373
 31
0.0
  0
LINE
  8
0
 62
     0
 10
349.957
 20
89.4373
 30
0.0
 11
349.957
 21
89.8673
 31
0.0
  0
LINE
  8
0
 62
     0
 10
349.957
 20
89.8673
 30
0.0
 11
349.181
 21
89.8673
 31
0.0
  0
LINE
  8
0
 62
     0
 10
349.181
 20
89.8673
 30
0.0
 11
349.181
 21
89.0669
 31
0.0
  0
LINE
  8
0
 62
     0
 10
349.181
 20
89.0669
 30
0.0
 11
347.457
 21
89.0669
 31
0.0
  0
LINE
  8
0
 62
     0
 10
347.457
 20
89.0669
 30
0.0
 11
347.457
 21
88.0869
 31
0.0
  0
LINE
  8
0
 62
     0
 10
347.457
 20
88.0869
 30
0.0
 11
344.157
 21
88.0869
 31
0.0
  0
LINE
  8
0
 62
     0
 10
344.157
 20
88.0869
 30
0.0
 11
344.157
 21
89.0669
 31
0.0
  0
LINE
  8
0
 62
     0
 10
344.157
 20
89.0669
 30
0.0
 11
342.532
 21
89.0669
 31
0.0
  0
LINE
  8
0
 62
     0
 10
342.532
 20
89.0669
 30
0.0
 11
342.532
 21
95.3368
 31
0.0
  0
LINE
  8
0
 62
     0
 10
342.532
 20
95.3368
 30
0.0
 11
341.657
 21
95.3368
 31
0.0
  0
LINE
  8
0
 62
     0
 10
341.657
 20
95.3368
 30
0.0
 11
341.657
 21
98.1371
 31
0.0
  0
LINE
  8
0
 62
     0
 10
341.657
 20
98.1371
 30
0.0
 11
342.532
 21
98.1371
 31
0.0
  0
LINE
  8
0
 62
     0
 10
342.532
 20
98.1371
 30
0.0
 11
342.532
 21
101.367
 31
0.0
  0
LINE
  8
0
 62
     0
 10
342.532
 20
101.367
 30
0.0
 11
344.157
 21
101.367
 31
0.0
  0
LINE
  8
0
 62
     0
 10
344.157
 20
101.367
 30
0.0
 11
344.157
 21
102.288
 31
0.0
  0
LINE
  8
0
 62
     0
 10
344.157
 20
102.288
 30
0.0
 11
347.457
 21
102.288
 31
0.0
  0
LINE
  8
0
 62
     0
 10
347.457
 20
102.288
 30
0.0
 11
347.457
 21
101.367
 31
0.0
  0
LINE
  8
0
 62
     0
 10
347.457
 20
101.367
 30
0.0
 11
349.181
 21
101.367
 31
0.0
  0
LINE
  8
0
 62
     0
 10
349.181
 20
101.367
 30
0.0
 11
349.181
 21
100.568
 31
0.0
  0
LINE
  8
0
 62
     0
 10
349.181
 20
100.568
 30
0.0
 11
349.957
 21
100.568
 31
0.0
  0
LINE
  8
0
 62
     0
 10
349.957
 20
100.568
 30
0.0
 11
349.957
 21
102.238
 31
0.0
  0
LINE
  8
0
 62
     0
 10
349.957
 20
102.238
 30
0.0
 11
350.756
 21
102.238
 31
0.0
  0
LINE
  8
0
 62
     0
 10
350.756
 20
102.238
 30
0.0
 11
350.756
 21
102.838
 31
0.0
  0
LINE
  8
0
 62
     0
 10
350.756
 20
102.838
 30
0.0
 11
364.758
 21
102.838
 31
0.0
  0
LINE
  8
0
 62
     0
 10
364.758
 20
102.838
 30
0.0
 11
364.758
 21
102.238
 31
0.0
  0
LINE
  8
0
 62
     0
 10
364.758
 20
102.238
 30
0.0
 11
365.555
 21
102.238
 31
0.0
  0
LINE
  8
0
 62
     0
 10
365.555
 20
102.238
 30
0.0
 11
365.555
 21
100.568
 31
0.0
  0
LINE
  8
0
 62
     0
 10
365.555
 20
100.568
 30
0.0
 11
366.332
 21
100.568
 31
0.0
  0
LINE
  8
0
 62
     0
 10
366.332
 20
100.568
 30
0.0
 11
366.332
 21
101.367
 31
0.0
  0
LINE
  8
0
 62
     0
 10
366.332
 20
101.367
 30
0.0
 11
368.057
 21
101.367
 31
0.0
  0
LINE
  8
0
 62
     0
 10
368.057
 20
101.367
 30
0.0
 11
368.057
 21
102.288
 31
0.0
  0
LINE
  8
0
 62
     0
 10
368.057
 20
102.288
 30
0.0
 11
371.355
 21
102.288
 31
0.0
  0
LINE
  8
0
 62
     0
 10
371.355
 20
102.288
 30
0.0
 11
371.355
 21
101.367
 31
0.0
  0
LINE
  8
0
 62
     0
 10
371.355
 20
101.367
 30
0.0
 11
372.981
 21
101.367
 31
0.0
  0
LINE
  8
0
 62
     0
 10
372.981
 20
101.367
 30
0.0
 11
372.981
 21
98.1371
 31
0.0
  0
LINE
  8
0
 62
     0
 10
372.981
 20
98.1371
 30
0.0
 11
373.856
 21
98.1371
 31
0.0
  0
LINE
  8
0
 62
     0
 10
373.856
 20
98.1371
 30
0.0
 11
373.856
 21
95.3368
 31
0.0
  0
LINE
  8
0
 62
     0
 10
373.856
 20
95.3368
 30
0.0
 11
372.981
 21
95.3368
 31
0.0
  0
LINE
  8
0
 62
     0
 10
374.283
 20
118.012
 30
0.0
 11
374.283
 21
117.413
 31
0.0
  0
LINE
  8
0
 62
     0
 10
374.283
 20
117.413
 30
0.0
 11
360.281
 21
117.413
 31
0.0
  0
LINE
  8
0
 62
     0
 10
360.281
 20
117.413
 30
0.0
 11
360.281
 21
118.012
 31
0.0
  0
LINE
  8
0
 62
     0
 10
360.281
 20
118.012
 30
0.0
 11
359.481
 21
118.012
 31
0.0
  0
LINE
  8
0
 62
     0
 10
359.481
 20
118.012
 30
0.0
 11
359.481
 21
130.813
 31
0.0
  0
LINE
  8
0
 62
     0
 10
359.481
 20
130.813
 30
0.0
 11
360.281
 21
130.813
 31
0.0
  0
LINE
  8
0
 62
     0
 10
360.281
 20
130.813
 30
0.0
 11
360.281
 21
131.413
 31
0.0
  0
LINE
  8
0
 62
     0
 10
360.281
 20
131.413
 30
0.0
 11
374.283
 21
131.413
 31
0.0
  0
LINE
  8
0
 62
     0
 10
374.283
 20
131.413
 30
0.0
 11
374.283
 21
130.813
 31
0.0
  0
LINE
  8
0
 62
     0
 10
374.283
 20
130.813
 30
0.0
 11
375.08
 21
130.813
 31
0.0
  0
LINE
  8
0
 62
     0
 10
375.08
 20
130.813
 30
0.0
 11
375.08
 21
118.012
 31
0.0
  0
LINE
  8
0
 62
     0
 10
375.08
 20
118.012
 30
0.0
 11
374.283
 21
118.012
 31
0.0
  0
LINE
  8
0
 62
     0
 10
379.042
 20
13.2374
 30
0.0
 11
379.042
 21
12.638
 31
0.0
  0
LINE
  8
0
 62
     0
 10
379.042
 20
12.638
 30
0.0
 11
365.044
 21
12.638
 31
0.0
  0
LINE
  8
0
 62
     0
 10
365.044
 20
12.638
 30
0.0
 11
365.044
 21
13.2374
 31
0.0
  0
LINE
  8
0
 62
     0
 10
365.044
 20
13.2374
 30
0.0
 11
364.243
 21
13.2374
 31
0.0
  0
LINE
  8
0
 62
     0
 10
364.243
 20
13.2374
 30
0.0
 11
364.243
 21
26.038
 31
0.0
  0
LINE
  8
0
 62
     0
 10
364.243
 20
26.038
 30
0.0
 11
365.044
 21
26.038
 31
0.0
  0
LINE
  8
0
 62
     0
 10
365.044
 20
26.038
 30
0.0
 11
365.044
 21
26.6375
 31
0.0
  0
LINE
  8
0
 62
     0
 10
365.044
 20
26.6375
 30
0.0
 11
379.042
 21
26.6375
 31
0.0
  0
LINE
  8
0
 62
     0
 10
379.042
 20
26.6375
 30
0.0
 11
379.042
 21
26.038
 31
0.0
  0
LINE
  8
0
 62
     0
 10
379.042
 20
26.038
 30
0.0
 11
379.843
 21
26.038
 31
0.0
  0
LINE
  8
0
 62
     0
 10
379.843
 20
26.038
 30
0.0
 11
379.843
 21
13.2374
 31
0.0
  0
LINE
  8
0
 62
     0
 10
379.843
 20
13.2374
 30
0.0
 11
379.042
 21
13.2374
 31
0.0
  0
LINE
  8
0
 62
     0
 10
398.092
 20
13.2374
 30
0.0
 11
398.092
 21
12.638
 31
0.0
  0
LINE
  8
0
 62
     0
 10
398.092
 20
12.638
 30
0.0
 11
384.094
 21
12.638
 31
0.0
  0
LINE
  8
0
 62
     0
 10
384.094
 20
12.638
 30
0.0
 11
384.094
 21
13.2374
 31
0.0
  0
LINE
  8
0
 62
     0
 10
384.094
 20
13.2374
 30
0.0
 11
383.293
 21
13.2374
 31
0.0
  0
LINE
  8
0
 62
     0
 10
383.293
 20
13.2374
 30
0.0
 11
383.293
 21
26.038
 31
0.0
  0
LINE
  8
0
 62
     0
 10
383.293
 20
26.038
 30
0.0
 11
384.094
 21
26.038
 31
0.0
  0
LINE
  8
0
 62
     0
 10
384.094
 20
26.038
 30
0.0
 11
384.094
 21
26.6375
 31
0.0
  0
LINE
  8
0
 62
     0
 10
384.094
 20
26.6375
 30
0.0
 11
398.092
 21
26.6375
 31
0.0
  0
LINE
  8
0
 62
     0
 10
398.092
 20
26.6375
 30
0.0
 11
398.092
 21
26.038
 31
0.0
  0
LINE
  8
0
 62
     0
 10
398.092
 20
26.038
 30
0.0
 11
398.893
 21
26.038
 31
0.0
  0
LINE
  8
0
 62
     0
 10
398.893
 20
26.038
 30
0.0
 11
398.893
 21
13.2374
 31
0.0
  0
LINE
  8
0
 62
     0
 10
398.893
 20
13.2374
 30
0.0
 11
398.092
 21
13.2374
 31
0.0
  0
LINE
  8
0
 62
     0
 10
398.092
 20
89.4373
 30
0.0
 11
398.092
 21
88.8379
 31
0.0
  0
LINE
  8
0
 62
     0
 10
398.092
 20
88.8379
 30
0.0
 11
384.094
 21
88.8379
 31
0.0
  0
LINE
  8
0
 62
     0
 10
384.094
 20
88.8379
 30
0.0
 11
384.094
 21
89.4373
 31
0.0
  0
LINE
  8
0
 62
     0
 10
384.094
 20
89.4373
 30
0.0
 11
383.293
 21
89.4373
 31
0.0
  0
LINE
  8
0
 62
     0
 10
383.293
 20
89.4373
 30
0.0
 11
383.293
 21
102.238
 31
0.0
  0
LINE
  8
0
 62
     0
 10
383.293
 20
102.238
 30
0.0
 11
384.094
 21
102.238
 31
0.0
  0
LINE
  8
0
 62
     0
 10
384.094
 20
102.238
 30
0.0
 11
384.094
 21
102.838
 31
0.0
  0
LINE
  8
0
 62
     0
 10
384.094
 20
102.838
 30
0.0
 11
398.092
 21
102.838
 31
0.0
  0
LINE
  8
0
 62
     0
 10
398.092
 20
102.838
 30
0.0
 11
398.092
 21
102.238
 31
0.0
  0
LINE
  8
0
 62
     0
 10
398.092
 20
102.238
 30
0.0
 11
398.893
 21
102.238
 31
0.0
  0
LINE
  8
0
 62
     0
 10
398.893
 20
102.238
 30
0.0
 11
398.893
 21
89.4373
 31
0.0
  0
LINE
  8
0
 62
     0
 10
398.893
 20
89.4373
 30
0.0
 11
398.092
 21
89.4373
 31
0.0
  0
LINE
  8
0
 62
     0
 10
398.092
 20
32.2874
 30
0.0
 11
398.092
 21
31.688
 31
0.0
  0
LINE
  8
0
 62
     0
 10
398.092
 20
31.688
 30
0.0
 11
384.094
 21
31.688
 31
0.0
  0
LINE
  8
0
 62
     0
 10
384.094
 20
31.688
 30
0.0
 11
384.094
 21
32.2874
 31
0.0
  0
LINE
  8
0
 62
     0
 10
384.094
 20
32.2874
 30
0.0
 11
383.293
 21
32.2874
 31
0.0
  0
LINE
  8
0
 62
     0
 10
383.293
 20
32.2874
 30
0.0
 11
383.293
 21
45.0882
 31
0.0
  0
LINE
  8
0
 62
     0
 10
383.293
 20
45.0882
 30
0.0
 11
384.094
 21
45.0882
 31
0.0
  0
LINE
  8
0
 62
     0
 10
384.094
 20
45.0882
 30
0.0
 11
384.094
 21
45.6875
 31
0.0
  0
LINE
  8
0
 62
     0
 10
384.094
 20
45.6875
 30
0.0
 11
398.092
 21
45.6875
 31
0.0
  0
LINE
  8
0
 62
     0
 10
398.092
 20
45.6875
 30
0.0
 11
398.092
 21
45.0882
 31
0.0
  0
LINE
  8
0
 62
     0
 10
398.092
 20
45.0882
 30
0.0
 11
398.893
 21
45.0882
 31
0.0
  0
LINE
  8
0
 62
     0
 10
398.893
 20
45.0882
 30
0.0
 11
398.893
 21
32.2874
 31
0.0
  0
LINE
  8
0
 62
     0
 10
398.893
 20
32.2874
 30
0.0
 11
398.092
 21
32.2874
 31
0.0
  0
LINE
  8
0
 62
     0
 10
398.092
 20
118.012
 30
0.0
 11
398.092
 21
117.413
 31
0.0
  0
LINE
  8
0
 62
     0
 10
398.092
 20
117.413
 30
0.0
 11
384.094
 21
117.413
 31
0.0
  0
LINE
  8
0
 62
     0
 10
384.094
 20
117.413
 30
0.0
 11
384.094
 21
118.012
 31
0.0
  0
LINE
  8
0
 62
     0
 10
384.094
 20
118.012
 30
0.0
 11
383.293
 21
118.012
 31
0.0
  0
LINE
  8
0
 62
     0
 10
383.293
 20
118.012
 30
0.0
 11
383.293
 21
130.813
 31
0.0
  0
LINE
  8
0
 62
     0
 10
383.293
 20
130.813
 30
0.0
 11
384.094
 21
130.813
 31
0.0
  0
LINE
  8
0
 62
     0
 10
384.094
 20
130.813
 30
0.0
 11
384.094
 21
131.413
 31
0.0
  0
LINE
  8
0
 62
     0
 10
384.094
 20
131.413
 30
0.0
 11
398.092
 21
131.413
 31
0.0
  0
LINE
  8
0
 62
     0
 10
398.092
 20
131.413
 30
0.0
 11
398.092
 21
130.813
 31
0.0
  0
LINE
  8
0
 62
     0
 10
398.092
 20
130.813
 30
0.0
 11
398.893
 21
130.813
 31
0.0
  0
LINE
  8
0
 62
     0
 10
398.893
 20
130.813
 30
0.0
 11
398.893
 21
118.012
 31
0.0
  0
LINE
  8
0
 62
     0
 10
398.893
 20
118.012
 30
0.0
 11
398.092
 21
118.012
 31
0.0
  0
LINE
  8
0
 62
     0
 10
398.092
 20
70.3873
 30
0.0
 11
398.092
 21
69.7879
 31
0.0
  0
LINE
  8
0
 62
     0
 10
398.092
 20
69.7879
 30
0.0
 11
384.094
 21
69.7879
 31
0.0
  0
LINE
  8
0
 62
     0
 10
384.094
 20
69.7879
 30
0.0
 11
384.094
 21
70.3873
 31
0.0
  0
LINE
  8
0
 62
     0
 10
384.094
 20
70.3873
 30
0.0
 11
383.293
 21
70.3873
 31
0.0
  0
LINE
  8
0
 62
     0
 10
383.293
 20
70.3873
 30
0.0
 11
383.293
 21
83.1882
 31
0.0
  0
LINE
  8
0
 62
     0
 10
383.293
 20
83.1882
 30
0.0
 11
384.094
 21
83.1882
 31
0.0
  0
LINE
  8
0
 62
     0
 10
384.094
 20
83.1882
 30
0.0
 11
384.094
 21
83.7875
 31
0.0
  0
LINE
  8
0
 62
     0
 10
384.094
 20
83.7875
 30
0.0
 11
398.092
 21
83.7875
 31
0.0
  0
LINE
  8
0
 62
     0
 10
398.092
 20
83.7875
 30
0.0
 11
398.092
 21
83.1882
 31
0.0
  0
LINE
  8
0
 62
     0
 10
398.092
 20
83.1882
 30
0.0
 11
398.893
 21
83.1882
 31
0.0
  0
LINE
  8
0
 62
     0
 10
398.893
 20
83.1882
 30
0.0
 11
398.893
 21
70.3873
 31
0.0
  0
LINE
  8
0
 62
     0
 10
398.893
 20
70.3873
 30
0.0
 11
398.092
 21
70.3873
 31
0.0
  0
LINE
  8
0
 62
     0
 10
417.142
 20
13.2374
 30
0.0
 11
417.142
 21
12.638
 31
0.0
  0
LINE
  8
0
 62
     0
 10
417.142
 20
12.638
 30
0.0
 11
403.144
 21
12.638
 31
0.0
  0
LINE
  8
0
 62
     0
 10
403.144
 20
12.638
 30
0.0
 11
403.144
 21
13.2374
 31
0.0
  0
LINE
  8
0
 62
     0
 10
403.144
 20
13.2374
 30
0.0
 11
402.343
 21
13.2374
 31
0.0
  0
LINE
  8
0
 62
     0
 10
402.343
 20
13.2374
 30
0.0
 11
402.343
 21
26.038
 31
0.0
  0
LINE
  8
0
 62
     0
 10
402.343
 20
26.038
 30
0.0
 11
403.144
 21
26.038
 31
0.0
  0
LINE
  8
0
 62
     0
 10
403.144
 20
26.038
 30
0.0
 11
403.144
 21
26.6375
 31
0.0
  0
LINE
  8
0
 62
     0
 10
403.144
 20
26.6375
 30
0.0
 11
417.142
 21
26.6375
 31
0.0
  0
LINE
  8
0
 62
     0
 10
417.142
 20
26.6375
 30
0.0
 11
417.142
 21
26.038
 31
0.0
  0
LINE
  8
0
 62
     0
 10
417.142
 20
26.038
 30
0.0
 11
417.943
 21
26.038
 31
0.0
  0
LINE
  8
0
 62
     0
 10
417.943
 20
26.038
 30
0.0
 11
417.943
 21
13.2374
 31
0.0
  0
LINE
  8
0
 62
     0
 10
417.943
 20
13.2374
 30
0.0
 11
417.142
 21
13.2374
 31
0.0
  0
LINE
  8
0
 62
     0
 10
417.142
 20
89.4373
 30
0.0
 11
417.142
 21
88.8379
 31
0.0
  0
LINE
  8
0
 62
     0
 10
417.142
 20
88.8379
 30
0.0
 11
403.144
 21
88.8379
 31
0.0
  0
LINE
  8
0
 62
     0
 10
403.144
 20
88.8379
 30
0.0
 11
403.144
 21
89.4373
 31
0.0
  0
LINE
  8
0
 62
     0
 10
403.144
 20
89.4373
 30
0.0
 11
402.343
 21
89.4373
 31
0.0
  0
LINE
  8
0
 62
     0
 10
402.343
 20
89.4373
 30
0.0
 11
402.343
 21
102.238
 31
0.0
  0
LINE
  8
0
 62
     0
 10
402.343
 20
102.238
 30
0.0
 11
403.144
 21
102.238
 31
0.0
  0
LINE
  8
0
 62
     0
 10
403.144
 20
102.238
 30
0.0
 11
403.144
 21
102.838
 31
0.0
  0
LINE
  8
0
 62
     0
 10
403.144
 20
102.838
 30
0.0
 11
417.142
 21
102.838
 31
0.0
  0
LINE
  8
0
 62
     0
 10
417.142
 20
102.838
 30
0.0
 11
417.142
 21
102.238
 31
0.0
  0
LINE
  8
0
 62
     0
 10
417.142
 20
102.238
 30
0.0
 11
417.943
 21
102.238
 31
0.0
  0
LINE
  8
0
 62
     0
 10
417.943
 20
102.238
 30
0.0
 11
417.943
 21
89.4373
 31
0.0
  0
LINE
  8
0
 62
     0
 10
417.943
 20
89.4373
 30
0.0
 11
417.142
 21
89.4373
 31
0.0
  0
LINE
  8
0
 62
     0
 10
417.142
 20
118.012
 30
0.0
 11
417.142
 21
117.413
 31
0.0
  0
LINE
  8
0
 62
     0
 10
417.142
 20
117.413
 30
0.0
 11
403.144
 21
117.413
 31
0.0
  0
LINE
  8
0
 62
     0
 10
403.144
 20
117.413
 30
0.0
 11
403.144
 21
118.012
 31
0.0
  0
LINE
  8
0
 62
     0
 10
403.144
 20
118.012
 30
0.0
 11
402.343
 21
118.012
 31
0.0
  0
LINE
  8
0
 62
     0
 10
402.343
 20
118.012
 30
0.0
 11
402.343
 21
130.813
 31
0.0
  0
LINE
  8
0
 62
     0
 10
402.343
 20
130.813
 30
0.0
 11
403.144
 21
130.813
 31
0.0
  0
LINE
  8
0
 62
     0
 10
403.144
 20
130.813
 30
0.0
 11
403.144
 21
131.413
 31
0.0
  0
LINE
  8
0
 62
     0
 10
403.144
 20
131.413
 30
0.0
 11
417.142
 21
131.413
 31
0.0
  0
LINE
  8
0
 62
     0
 10
417.142
 20
131.413
 30
0.0
 11
417.142
 21
130.813
 31
0.0
  0
LINE
  8
0
 62
     0
 10
417.142
 20
130.813
 30
0.0
 11
417.943
 21
130.813
 31
0.0
  0
LINE
  8
0
 62
     0
 10
417.943
 20
130.813
 30
0.0
 11
417.943
 21
118.012
 31
0.0
  0
LINE
  8
0
 62
     0
 10
417.943
 20
118.012
 30
0.0
 11
417.142
 21
118.012
 31
0.0
  0
LINE
  8
0
 62
     0
 10
417.142
 20
70.3873
 30
0.0
 11
417.142
 21
69.7879
 31
0.0
  0
LINE
  8
0
 62
     0
 10
417.142
 20
69.7879
 30
0.0
 11
403.144
 21
69.7879
 31
0.0
  0
LINE
  8
0
 62
     0
 10
403.144
 20
69.7879
 30
0.0
 11
403.144
 21
70.3873
 31
0.0
  0
LINE
  8
0
 62
     0
 10
403.144
 20
70.3873
 30
0.0
 11
402.343
 21
70.3873
 31
0.0
  0
LINE
  8
0
 62
     0
 10
402.343
 20
70.3873
 30
0.0
 11
402.343
 21
83.1882
 31
0.0
  0
LINE
  8
0
 62
     0
 10
402.343
 20
83.1882
 30
0.0
 11
403.144
 21
83.1882
 31
0.0
  0
LINE
  8
0
 62
     0
 10
403.144
 20
83.1882
 30
0.0
 11
403.144
 21
83.7875
 31
0.0
  0
LINE
  8
0
 62
     0
 10
403.144
 20
83.7875
 30
0.0
 11
417.142
 21
83.7875
 31
0.0
  0
LINE
  8
0
 62
     0
 10
417.142
 20
83.7875
 30
0.0
 11
417.142
 21
83.1882
 31
0.0
  0
LINE
  8
0
 62
     0
 10
417.142
 20
83.1882
 30
0.0
 11
417.943
 21
83.1882
 31
0.0
  0
LINE
  8
0
 62
     0
 10
417.943
 20
83.1882
 30
0.0
 11
417.943
 21
70.3873
 31
0.0
  0
LINE
  8
0
 62
     0
 10
417.943
 20
70.3873
 30
0.0
 11
417.142
 21
70.3873
 31
0.0
  0
ENDSEC
  0
EOF
