<?xml version="1.0" standalone="no"?>
 <!DOCTYPE svg PUBLIC "-//W3C//DTD SVG 1.1//EN" 
 "http://www.w3.org/Graphics/SVG/1.1/DTD/svg11.dtd"> 
<svg xmlns="http://www.w3.org/2000/svg" version="1.1" 
    width="32.3926cm" height="11.1557cm" viewBox="0 0 127530 43920 ">
<title>SVG Picture created as smk65-brd.svg date 2017/08/11 17:17:33 </title>
  <desc>Picture generated by PCBNEW </desc>
<g style="fill:#000000; fill-opacity:1;stroke:#000000; stroke-opacity:1;
stroke-linecap:round; stroke-linejoin:round; "
 transform="translate(0 0) scale(1 1)">
</g>
<g style="fill:#000000; fill-opacity:0.0; 
stroke:#000000; stroke-width:-0.000393701; stroke-opacity:1; 
stroke-linecap:round; stroke-linejoin:round;">
</g>
<g style="fill:#C2C200; fill-opacity:0.0; 
stroke:#C2C200; stroke-width:-0.000393701; stroke-opacity:1; 
stroke-linecap:round; stroke-linejoin:round;">
</g>
<g style="fill:#C2C200; fill-opacity:0.0; 
stroke:#C2C200; stroke-width:60; stroke-opacity:1; 
stroke-linecap:round; stroke-linejoin:round;">
<path d="M107105 16670
L112605 16670
" />
<path d="M112605 22170
L107105 22170
" />
<path d="M112605 22170
L112605 21940
" />
<path d="M112605 21940
L112906 21940
" />
<path d="M107105 16900
L107105 16670
" />
<path d="M106804 16900
L107105 16900
" />
<path d="M106804 21940
L106804 16900
" />
<path d="M112906 21940
L112906 16900
" />
<path d="M106804 21940
L107105 21940
" />
<path d="M107105 21940
L107105 22170
" />
<path d="M112906 16900
L112605 16900
" />
<path d="M112605 16900
L112605 16670
" />
<path d="M85417 33420
L79917 33420
" />
<path d="M79917 27920
L85417 27920
" />
<path d="M79917 27920
L79917 28150
" />
<path d="M79917 28150
L79616 28150
" />
<path d="M85417 33190
L85417 33420
" />
<path d="M85719 33190
L85417 33190
" />
<path d="M85719 28150
L85719 33190
" />
<path d="M79616 28150
L79616 33190
" />
<path d="M85719 28150
L85417 28150
" />
<path d="M85417 28150
L85417 27920
" />
<path d="M79616 33190
L79917 33190
" />
<path d="M79917 33190
L79917 33420
" />
<path d="M9480 40920
L3980 40920
" />
<path d="M3980 35420
L9480 35420
" />
<path d="M3980 35420
L3980 35650
" />
<path d="M3980 35650
L3679 35650
" />
<path d="M9480 40690
L9480 40920
" />
<path d="M9781 40690
L9480 40690
" />
<path d="M9781 35650
L9781 40690
" />
<path d="M3679 35650
L3679 40690
" />
<path d="M9781 35650
L9480 35650
" />
<path d="M9480 35650
L9480 35420
" />
<path d="M3679 40690
L3980 40690
" />
<path d="M3980 40690
L3980 40920
" />
<path d="M10417 18420
L4917 18420
" />
<path d="M4917 12920
L10417 12920
" />
<path d="M4917 12920
L4917 13150
" />
<path d="M4917 13150
L4616 13150
" />
<path d="M10417 18190
L10417 18420
" />
<path d="M10718 18190
L10417 18190
" />
<path d="M10718 13150
L10718 18190
" />
<path d="M4616 13150
L4616 18190
" />
<path d="M10718 13150
L10417 13150
" />
<path d="M10417 13150
L10417 12920
" />
<path d="M4616 18190
L4917 18190
" />
<path d="M4917 18190
L4917 18420
" />
<path d="M11355 25920
L5855 25920
" />
<path d="M5855 20420
L11355 20420
" />
<path d="M5855 20420
L5855 20650
" />
<path d="M5855 20650
L5554 20650
" />
<path d="M11355 25690
L11355 25920
" />
<path d="M11656 25690
L11355 25690
" />
<path d="M11656 20650
L11656 25690
" />
<path d="M5554 20650
L5554 25690
" />
<path d="M11656 20650
L11355 20650
" />
<path d="M11355 20650
L11355 20420
" />
<path d="M5554 25690
L5855 25690
" />
<path d="M5855 25690
L5855 25920
" />
<path d="M112605 25920
L107105 25920
" />
<path d="M107105 20420
L112605 20420
" />
<path d="M107105 20420
L107105 20650
" />
<path d="M107105 20650
L106804 20650
" />
<path d="M112605 25690
L112605 25920
" />
<path d="M112906 25690
L112605 25690
" />
<path d="M112906 20650
L112906 25690
" />
<path d="M106804 20650
L106804 25690
" />
<path d="M112906 20650
L112605 20650
" />
<path d="M112605 20650
L112605 20420
" />
<path d="M106804 25690
L107105 25690
" />
<path d="M107105 25690
L107105 25920
" />
<path d="M103230 33420
L97730 33420
" />
<path d="M97730 27920
L103230 27920
" />
<path d="M97730 27920
L97730 28150
" />
<path d="M97730 28150
L97428 28150
" />
<path d="M103230 33190
L103230 33420
" />
<path d="M103531 33190
L103230 33190
" />
<path d="M103531 28150
L103531 33190
" />
<path d="M97428 28150
L97428 33190
" />
<path d="M103531 28150
L103230 28150
" />
<path d="M103230 28150
L103230 27920
" />
<path d="M97428 33190
L97730 33190
" />
<path d="M97730 33190
L97730 33420
" />
<path d="M18855 40920
L13355 40920
" />
<path d="M13355 35420
L18855 35420
" />
<path d="M13355 35420
L13355 35650
" />
<path d="M13355 35650
L13054 35650
" />
<path d="M18855 40690
L18855 40920
" />
<path d="M19156 40690
L18855 40690
" />
<path d="M19156 35650
L19156 40690
" />
<path d="M13054 35650
L13054 40690
" />
<path d="M19156 35650
L18855 35650
" />
<path d="M18855 35650
L18855 35420
" />
<path d="M13054 40690
L13355 40690
" />
<path d="M13355 40690
L13355 40920
" />
<path d="M28230 40920
L22730 40920
" />
<path d="M22730 35420
L28230 35420
" />
<path d="M22730 35420
L22730 35650
" />
<path d="M22730 35650
L22428 35650
" />
<path d="M28230 40690
L28230 40920
" />
<path d="M28531 40690
L28230 40690
" />
<path d="M28531 35650
L28531 40690
" />
<path d="M22428 35650
L22428 40690
" />
<path d="M28531 35650
L28230 35650
" />
<path d="M28230 35650
L28230 35420
" />
<path d="M22428 40690
L22730 40690
" />
<path d="M22730 40690
L22730 40920
" />
<path d="M121042 40920
L115542 40920
" />
<path d="M115542 35420
L121042 35420
" />
<path d="M115542 35420
L115542 35650
" />
<path d="M115542 35650
L115241 35650
" />
<path d="M121042 40690
L121042 40920
" />
<path d="M121343 40690
L121042 40690
" />
<path d="M121343 35650
L121343 40690
" />
<path d="M115241 35650
L115241 40690
" />
<path d="M121343 35650
L121042 35650
" />
<path d="M121042 35650
L121042 35420
" />
<path d="M115241 40690
L115542 40690
" />
<path d="M115542 40690
L115542 40920
" />
<path d="M113542 40920
L108042 40920
" />
<path d="M108042 35420
L113542 35420
" />
<path d="M108042 35420
L108042 35650
" />
<path d="M108042 35650
L107741 35650
" />
<path d="M113542 40690
L113542 40920
" />
<path d="M113843 40690
L113542 40690
" />
<path d="M113843 35650
L113843 40690
" />
<path d="M107741 35650
L107741 40690
" />
<path d="M113843 35650
L113542 35650
" />
<path d="M113542 35650
L113542 35420
" />
<path d="M107741 40690
L108042 40690
" />
<path d="M108042 40690
L108042 40920
" />
<path d="M106042 40920
L100542 40920
" />
<path d="M100542 35420
L106042 35420
" />
<path d="M100542 35420
L100542 35650
" />
<path d="M100542 35650
L100241 35650
" />
<path d="M106042 40690
L106042 40920
" />
<path d="M106343 40690
L106042 40690
" />
<path d="M106343 35650
L106343 40690
" />
<path d="M100241 35650
L100241 40690
" />
<path d="M106343 35650
L106042 35650
" />
<path d="M106042 35650
L106042 35420
" />
<path d="M100241 40690
L100542 40690
" />
<path d="M100542 40690
L100542 40920
" />
<path d="M98542 40920
L93042 40920
" />
<path d="M93042 35420
L98542 35420
" />
<path d="M93042 35420
L93042 35650
" />
<path d="M93042 35650
L92741 35650
" />
<path d="M98542 40690
L98542 40920
" />
<path d="M98843 40690
L98542 40690
" />
<path d="M98843 35650
L98843 40690
" />
<path d="M92741 35650
L92741 40690
" />
<path d="M98843 35650
L98542 35650
" />
<path d="M98542 35650
L98542 35420
" />
<path d="M92741 40690
L93042 40690
" />
<path d="M93042 40690
L93042 40920
" />
<path d="M91042 40920
L85542 40920
" />
<path d="M85542 35420
L91042 35420
" />
<path d="M85542 35420
L85542 35650
" />
<path d="M85542 35650
L85241 35650
" />
<path d="M91042 40690
L91042 40920
" />
<path d="M91343 40690
L91042 40690
" />
<path d="M91343 35650
L91343 40690
" />
<path d="M85241 35650
L85241 40690
" />
<path d="M91343 35650
L91042 35650
" />
<path d="M91042 35650
L91042 35420
" />
<path d="M85241 40690
L85542 40690
" />
<path d="M85542 40690
L85542 40920
" />
<path d="M78042 35420
L83542 35420
" />
<path d="M83542 40920
L78042 40920
" />
<path d="M83542 40920
L83542 40690
" />
<path d="M83542 40690
L83843 40690
" />
<path d="M78042 35650
L78042 35420
" />
<path d="M77741 35650
L78042 35650
" />
<path d="M77741 40690
L77741 35650
" />
<path d="M83843 40690
L83843 35650
" />
<path d="M77741 40690
L78042 40690
" />
<path d="M78042 40690
L78042 40920
" />
<path d="M83843 35650
L83542 35650
" />
<path d="M83542 35650
L83542 35420
" />
<path d="M106167 12920
L111667 12920
" />
<path d="M111667 18420
L106167 18420
" />
<path d="M111667 18420
L111667 18190
" />
<path d="M111667 18190
L111968 18190
" />
<path d="M106167 13150
L106167 12920
" />
<path d="M105866 13150
L106167 13150
" />
<path d="M105866 18190
L105866 13150
" />
<path d="M111968 18190
L111968 13150
" />
<path d="M105866 18190
L106167 18190
" />
<path d="M106167 18190
L106167 18420
" />
<path d="M111968 13150
L111667 13150
" />
<path d="M111667 13150
L111667 12920
" />
<path d="M121042 10920
L115542 10920
" />
<path d="M115542 5420
L121042 5420
" />
<path d="M115542 5420
L115542 5650
" />
<path d="M115542 5650
L115241 5650
" />
<path d="M121042 10690
L121042 10920
" />
<path d="M121343 10690
L121042 10690
" />
<path d="M121343 5650
L121343 10690
" />
<path d="M115241 5650
L115241 10690
" />
<path d="M121343 5650
L121042 5650
" />
<path d="M121042 5650
L121042 5420
" />
<path d="M115241 10690
L115542 10690
" />
<path d="M115542 10690
L115542 10920
" />
<path d="M8542 10920
L3042 10920
" />
<path d="M3042 5420
L8542 5420
" />
<path d="M3042 5420
L3042 5650
" />
<path d="M3042 5650
L2741 5650
" />
<path d="M8542 10690
L8542 10920
" />
<path d="M8843 10690
L8542 10690
" />
<path d="M8843 5650
L8843 10690
" />
<path d="M2741 5650
L2741 10690
" />
<path d="M8843 5650
L8542 5650
" />
<path d="M8542 5650
L8542 5420
" />
<path d="M2741 10690
L3042 10690
" />
<path d="M3042 10690
L3042 10920
" />
<path d="M23542 10920
L18042 10920
" />
<path d="M18042 5420
L23542 5420
" />
<path d="M18042 5420
L18042 5650
" />
<path d="M18042 5650
L17741 5650
" />
<path d="M23542 10690
L23542 10920
" />
<path d="M23843 10690
L23542 10690
" />
<path d="M23843 5650
L23843 10690
" />
<path d="M17741 5650
L17741 10690
" />
<path d="M23843 5650
L23542 5650
" />
<path d="M23542 5650
L23542 5420
" />
<path d="M17741 10690
L18042 10690
" />
<path d="M18042 10690
L18042 10920
" />
<path d="M31042 10920
L25542 10920
" />
<path d="M25542 5420
L31042 5420
" />
<path d="M25542 5420
L25542 5650
" />
<path d="M25542 5650
L25241 5650
" />
<path d="M31042 10690
L31042 10920
" />
<path d="M31343 10690
L31042 10690
" />
<path d="M31343 5650
L31343 10690
" />
<path d="M25241 5650
L25241 10690
" />
<path d="M31343 5650
L31042 5650
" />
<path d="M31042 5650
L31042 5420
" />
<path d="M25241 10690
L25542 10690
" />
<path d="M25542 10690
L25542 10920
" />
<path d="M38542 10920
L33042 10920
" />
<path d="M33042 5420
L38542 5420
" />
<path d="M33042 5420
L33042 5650
" />
<path d="M33042 5650
L32741 5650
" />
<path d="M38542 10690
L38542 10920
" />
<path d="M38843 10690
L38542 10690
" />
<path d="M38843 5650
L38843 10690
" />
<path d="M32741 5650
L32741 10690
" />
<path d="M38843 5650
L38542 5650
" />
<path d="M38542 5650
L38542 5420
" />
<path d="M32741 10690
L33042 10690
" />
<path d="M33042 10690
L33042 10920
" />
<path d="M46042 10920
L40542 10920
" />
<path d="M40542 5420
L46042 5420
" />
<path d="M40542 5420
L40542 5650
" />
<path d="M40542 5650
L40241 5650
" />
<path d="M46042 10690
L46042 10920
" />
<path d="M46343 10690
L46042 10690
" />
<path d="M46343 5650
L46343 10690
" />
<path d="M40241 5650
L40241 10690
" />
<path d="M46343 5650
L46042 5650
" />
<path d="M46042 5650
L46042 5420
" />
<path d="M40241 10690
L40542 10690
" />
<path d="M40542 10690
L40542 10920
" />
<path d="M53542 10920
L48042 10920
" />
<path d="M48042 5420
L53542 5420
" />
<path d="M48042 5420
L48042 5650
" />
<path d="M48042 5650
L47741 5650
" />
<path d="M53542 10690
L53542 10920
" />
<path d="M53843 10690
L53542 10690
" />
<path d="M53843 5650
L53843 10690
" />
<path d="M47741 5650
L47741 10690
" />
<path d="M53843 5650
L53542 5650
" />
<path d="M53542 5650
L53542 5420
" />
<path d="M47741 10690
L48042 10690
" />
<path d="M48042 10690
L48042 10920
" />
<path d="M61042 10920
L55542 10920
" />
<path d="M55542 5420
L61042 5420
" />
<path d="M55542 5420
L55542 5650
" />
<path d="M55542 5650
L55241 5650
" />
<path d="M61042 10690
L61042 10920
" />
<path d="M61343 10690
L61042 10690
" />
<path d="M61343 5650
L61343 10690
" />
<path d="M55241 5650
L55241 10690
" />
<path d="M61343 5650
L61042 5650
" />
<path d="M61042 5650
L61042 5420
" />
<path d="M55241 10690
L55542 10690
" />
<path d="M55542 10690
L55542 10920
" />
<path d="M68542 10920
L63042 10920
" />
<path d="M63042 5420
L68542 5420
" />
<path d="M63042 5420
L63042 5650
" />
<path d="M63042 5650
L62741 5650
" />
<path d="M68542 10690
L68542 10920
" />
<path d="M68843 10690
L68542 10690
" />
<path d="M68843 5650
L68843 10690
" />
<path d="M62741 5650
L62741 10690
" />
<path d="M68843 5650
L68542 5650
" />
<path d="M68542 5650
L68542 5420
" />
<path d="M62741 10690
L63042 10690
" />
<path d="M63042 10690
L63042 10920
" />
<path d="M76042 10920
L70542 10920
" />
<path d="M70542 5420
L76042 5420
" />
<path d="M70542 5420
L70542 5650
" />
<path d="M70542 5650
L70241 5650
" />
<path d="M76042 10690
L76042 10920
" />
<path d="M76343 10690
L76042 10690
" />
<path d="M76343 5650
L76343 10690
" />
<path d="M70241 5650
L70241 10690
" />
<path d="M76343 5650
L76042 5650
" />
<path d="M76042 5650
L76042 5420
" />
<path d="M70241 10690
L70542 10690
" />
<path d="M70542 10690
L70542 10920
" />
<path d="M83542 10920
L78042 10920
" />
<path d="M78042 5420
L83542 5420
" />
<path d="M78042 5420
L78042 5650
" />
<path d="M78042 5650
L77741 5650
" />
<path d="M83542 10690
L83542 10920
" />
<path d="M83843 10690
L83542 10690
" />
<path d="M83843 5650
L83843 10690
" />
<path d="M77741 5650
L77741 10690
" />
<path d="M83843 5650
L83542 5650
" />
<path d="M83542 5650
L83542 5420
" />
<path d="M77741 10690
L78042 10690
" />
<path d="M78042 10690
L78042 10920
" />
<path d="M91042 10920
L85542 10920
" />
<path d="M85542 5420
L91042 5420
" />
<path d="M85542 5420
L85542 5650
" />
<path d="M85542 5650
L85241 5650
" />
<path d="M91042 10690
L91042 10920
" />
<path d="M91343 10690
L91042 10690
" />
<path d="M91343 5650
L91343 10690
" />
<path d="M85241 5650
L85241 10690
" />
<path d="M91343 5650
L91042 5650
" />
<path d="M91042 5650
L91042 5420
" />
<path d="M85241 10690
L85542 10690
" />
<path d="M85542 10690
L85542 10920
" />
<path d="M98542 10920
L93042 10920
" />
<path d="M93042 5420
L98542 5420
" />
<path d="M93042 5420
L93042 5650
" />
<path d="M93042 5650
L92741 5650
" />
<path d="M98542 10690
L98542 10920
" />
<path d="M98843 10690
L98542 10690
" />
<path d="M98843 5650
L98843 10690
" />
<path d="M92741 5650
L92741 10690
" />
<path d="M98843 5650
L98542 5650
" />
<path d="M98542 5650
L98542 5420
" />
<path d="M92741 10690
L93042 10690
" />
<path d="M93042 10690
L93042 10920
" />
<path d="M106042 10920
L100542 10920
" />
<path d="M100542 5420
L106042 5420
" />
<path d="M100542 5420
L100542 5650
" />
<path d="M100542 5650
L100241 5650
" />
<path d="M106042 10690
L106042 10920
" />
<path d="M106343 10690
L106042 10690
" />
<path d="M106343 5650
L106343 10690
" />
<path d="M100241 5650
L100241 10690
" />
<path d="M106343 5650
L106042 5650
" />
<path d="M106042 5650
L106042 5420
" />
<path d="M100241 10690
L100542 10690
" />
<path d="M100542 10690
L100542 10920
" />
<path d="M113542 10920
L108042 10920
" />
<path d="M108042 5420
L113542 5420
" />
<path d="M108042 5420
L108042 5650
" />
<path d="M108042 5650
L107741 5650
" />
<path d="M113542 10690
L113542 10920
" />
<path d="M113843 10690
L113542 10690
" />
<path d="M113843 5650
L113843 10690
" />
<path d="M107741 5650
L107741 10690
" />
<path d="M113843 5650
L113542 5650
" />
<path d="M113542 5650
L113542 5420
" />
<path d="M107741 10690
L108042 10690
" />
<path d="M108042 10690
L108042 10920
" />
<path d="M19792 18420
L14292 18420
" />
<path d="M14292 12920
L19792 12920
" />
<path d="M14292 12920
L14292 13150
" />
<path d="M14292 13150
L13991 13150
" />
<path d="M19792 18190
L19792 18420
" />
<path d="M20093 18190
L19792 18190
" />
<path d="M20093 13150
L20093 18190
" />
<path d="M13991 13150
L13991 18190
" />
<path d="M20093 13150
L19792 13150
" />
<path d="M19792 13150
L19792 12920
" />
<path d="M13991 18190
L14292 18190
" />
<path d="M14292 18190
L14292 18420
" />
<path d="M27292 18420
L21792 18420
" />
<path d="M21792 12920
L27292 12920
" />
<path d="M21792 12920
L21792 13150
" />
<path d="M21792 13150
L21491 13150
" />
<path d="M27292 18190
L27292 18420
" />
<path d="M27593 18190
L27292 18190
" />
<path d="M27593 13150
L27593 18190
" />
<path d="M21491 13150
L21491 18190
" />
<path d="M27593 13150
L27292 13150
" />
<path d="M27292 13150
L27292 12920
" />
<path d="M21491 18190
L21792 18190
" />
<path d="M21792 18190
L21792 18420
" />
<path d="M34792 18420
L29292 18420
" />
<path d="M29292 12920
L34792 12920
" />
<path d="M29292 12920
L29292 13150
" />
<path d="M29292 13150
L28991 13150
" />
<path d="M34792 18190
L34792 18420
" />
<path d="M35093 18190
L34792 18190
" />
<path d="M35093 13150
L35093 18190
" />
<path d="M28991 13150
L28991 18190
" />
<path d="M35093 13150
L34792 13150
" />
<path d="M34792 13150
L34792 12920
" />
<path d="M28991 18190
L29292 18190
" />
<path d="M29292 18190
L29292 18420
" />
<path d="M42292 18420
L36792 18420
" />
<path d="M36792 12920
L42292 12920
" />
<path d="M36792 12920
L36792 13150
" />
<path d="M36792 13150
L36491 13150
" />
<path d="M42292 18190
L42292 18420
" />
<path d="M42593 18190
L42292 18190
" />
<path d="M42593 13150
L42593 18190
" />
<path d="M36491 13150
L36491 18190
" />
<path d="M42593 13150
L42292 13150
" />
<path d="M42292 13150
L42292 12920
" />
<path d="M36491 18190
L36792 18190
" />
<path d="M36792 18190
L36792 18420
" />
<path d="M49792 18420
L44292 18420
" />
<path d="M44292 12920
L49792 12920
" />
<path d="M44292 12920
L44292 13150
" />
<path d="M44292 13150
L43991 13150
" />
<path d="M49792 18190
L49792 18420
" />
<path d="M50093 18190
L49792 18190
" />
<path d="M50093 13150
L50093 18190
" />
<path d="M43991 13150
L43991 18190
" />
<path d="M50093 13150
L49792 13150
" />
<path d="M49792 13150
L49792 12920
" />
<path d="M43991 18190
L44292 18190
" />
<path d="M44292 18190
L44292 18420
" />
<path d="M57292 18420
L51792 18420
" />
<path d="M51792 12920
L57292 12920
" />
<path d="M51792 12920
L51792 13150
" />
<path d="M51792 13150
L51491 13150
" />
<path d="M57292 18190
L57292 18420
" />
<path d="M57593 18190
L57292 18190
" />
<path d="M57593 13150
L57593 18190
" />
<path d="M51491 13150
L51491 18190
" />
<path d="M57593 13150
L57292 13150
" />
<path d="M57292 13150
L57292 12920
" />
<path d="M51491 18190
L51792 18190
" />
<path d="M51792 18190
L51792 18420
" />
<path d="M64792 18420
L59292 18420
" />
<path d="M59292 12920
L64792 12920
" />
<path d="M59292 12920
L59292 13150
" />
<path d="M59292 13150
L58991 13150
" />
<path d="M64792 18190
L64792 18420
" />
<path d="M65093 18190
L64792 18190
" />
<path d="M65093 13150
L65093 18190
" />
<path d="M58991 13150
L58991 18190
" />
<path d="M65093 13150
L64792 13150
" />
<path d="M64792 13150
L64792 12920
" />
<path d="M58991 18190
L59292 18190
" />
<path d="M59292 18190
L59292 18420
" />
<path d="M72292 18420
L66792 18420
" />
<path d="M66792 12920
L72292 12920
" />
<path d="M66792 12920
L66792 13150
" />
<path d="M66792 13150
L66491 13150
" />
<path d="M72292 18190
L72292 18420
" />
<path d="M72593 18190
L72292 18190
" />
<path d="M72593 13150
L72593 18190
" />
<path d="M66491 13150
L66491 18190
" />
<path d="M72593 13150
L72292 13150
" />
<path d="M72292 13150
L72292 12920
" />
<path d="M66491 18190
L66792 18190
" />
<path d="M66792 18190
L66792 18420
" />
<path d="M79792 18420
L74292 18420
" />
<path d="M74292 12920
L79792 12920
" />
<path d="M74292 12920
L74292 13150
" />
<path d="M74292 13150
L73991 13150
" />
<path d="M79792 18190
L79792 18420
" />
<path d="M80093 18190
L79792 18190
" />
<path d="M80093 13150
L80093 18190
" />
<path d="M73991 13150
L73991 18190
" />
<path d="M80093 13150
L79792 13150
" />
<path d="M79792 13150
L79792 12920
" />
<path d="M73991 18190
L74292 18190
" />
<path d="M74292 18190
L74292 18420
" />
<path d="M87292 18420
L81792 18420
" />
<path d="M81792 12920
L87292 12920
" />
<path d="M81792 12920
L81792 13150
" />
<path d="M81792 13150
L81491 13150
" />
<path d="M87292 18190
L87292 18420
" />
<path d="M87593 18190
L87292 18190
" />
<path d="M87593 13150
L87593 18190
" />
<path d="M81491 13150
L81491 18190
" />
<path d="M87593 13150
L87292 13150
" />
<path d="M87292 13150
L87292 12920
" />
<path d="M81491 18190
L81792 18190
" />
<path d="M81792 18190
L81792 18420
" />
<path d="M94792 18420
L89292 18420
" />
<path d="M89292 12920
L94792 12920
" />
<path d="M89292 12920
L89292 13150
" />
<path d="M89292 13150
L88991 13150
" />
<path d="M94792 18190
L94792 18420
" />
<path d="M95093 18190
L94792 18190
" />
<path d="M95093 13150
L95093 18190
" />
<path d="M88991 13150
L88991 18190
" />
<path d="M95093 13150
L94792 13150
" />
<path d="M94792 13150
L94792 12920
" />
<path d="M88991 18190
L89292 18190
" />
<path d="M89292 18190
L89292 18420
" />
<path d="M102292 18420
L96792 18420
" />
<path d="M96792 12920
L102292 12920
" />
<path d="M96792 12920
L96792 13150
" />
<path d="M96792 13150
L96491 13150
" />
<path d="M102292 18190
L102292 18420
" />
<path d="M102593 18190
L102292 18190
" />
<path d="M102593 13150
L102593 18190
" />
<path d="M96491 13150
L96491 18190
" />
<path d="M102593 13150
L102292 13150
" />
<path d="M102292 13150
L102292 12920
" />
<path d="M96491 18190
L96792 18190
" />
<path d="M96792 18190
L96792 18420
" />
<path d="M121042 18420
L115542 18420
" />
<path d="M115542 12920
L121042 12920
" />
<path d="M115542 12920
L115542 13150
" />
<path d="M115542 13150
L115241 13150
" />
<path d="M121042 18190
L121042 18420
" />
<path d="M121343 18190
L121042 18190
" />
<path d="M121343 13150
L121343 18190
" />
<path d="M115241 13150
L115241 18190
" />
<path d="M121343 13150
L121042 13150
" />
<path d="M121042 13150
L121042 12920
" />
<path d="M115241 18190
L115542 18190
" />
<path d="M115542 18190
L115542 18420
" />
<path d="M21667 25920
L16167 25920
" />
<path d="M16167 20420
L21667 20420
" />
<path d="M16167 20420
L16167 20650
" />
<path d="M16167 20650
L15866 20650
" />
<path d="M21667 25690
L21667 25920
" />
<path d="M21968 25690
L21667 25690
" />
<path d="M21968 20650
L21968 25690
" />
<path d="M15866 20650
L15866 25690
" />
<path d="M21968 20650
L21667 20650
" />
<path d="M21667 20650
L21667 20420
" />
<path d="M15866 25690
L16167 25690
" />
<path d="M16167 25690
L16167 25920
" />
<path d="M29167 25920
L23667 25920
" />
<path d="M23667 20420
L29167 20420
" />
<path d="M23667 20420
L23667 20650
" />
<path d="M23667 20650
L23366 20650
" />
<path d="M29167 25690
L29167 25920
" />
<path d="M29468 25690
L29167 25690
" />
<path d="M29468 20650
L29468 25690
" />
<path d="M23366 20650
L23366 25690
" />
<path d="M29468 20650
L29167 20650
" />
<path d="M29167 20650
L29167 20420
" />
<path d="M23366 25690
L23667 25690
" />
<path d="M23667 25690
L23667 25920
" />
<path d="M36667 25920
L31167 25920
" />
<path d="M31167 20420
L36667 20420
" />
<path d="M31167 20420
L31167 20650
" />
<path d="M31167 20650
L30866 20650
" />
<path d="M36667 25690
L36667 25920
" />
<path d="M36968 25690
L36667 25690
" />
<path d="M36968 20650
L36968 25690
" />
<path d="M30866 20650
L30866 25690
" />
<path d="M36968 20650
L36667 20650
" />
<path d="M36667 20650
L36667 20420
" />
<path d="M30866 25690
L31167 25690
" />
<path d="M31167 25690
L31167 25920
" />
<path d="M44167 25920
L38667 25920
" />
<path d="M38667 20420
L44167 20420
" />
<path d="M38667 20420
L38667 20650
" />
<path d="M38667 20650
L38366 20650
" />
<path d="M44167 25690
L44167 25920
" />
<path d="M44468 25690
L44167 25690
" />
<path d="M44468 20650
L44468 25690
" />
<path d="M38366 20650
L38366 25690
" />
<path d="M44468 20650
L44167 20650
" />
<path d="M44167 20650
L44167 20420
" />
<path d="M38366 25690
L38667 25690
" />
<path d="M38667 25690
L38667 25920
" />
<path d="M51667 25920
L46167 25920
" />
<path d="M46167 20420
L51667 20420
" />
<path d="M46167 20420
L46167 20650
" />
<path d="M46167 20650
L45866 20650
" />
<path d="M51667 25690
L51667 25920
" />
<path d="M51968 25690
L51667 25690
" />
<path d="M51968 20650
L51968 25690
" />
<path d="M45866 20650
L45866 25690
" />
<path d="M51968 20650
L51667 20650
" />
<path d="M51667 20650
L51667 20420
" />
<path d="M45866 25690
L46167 25690
" />
<path d="M46167 25690
L46167 25920
" />
<path d="M59167 25920
L53667 25920
" />
<path d="M53667 20420
L59167 20420
" />
<path d="M53667 20420
L53667 20650
" />
<path d="M53667 20650
L53366 20650
" />
<path d="M59167 25690
L59167 25920
" />
<path d="M59468 25690
L59167 25690
" />
<path d="M59468 20650
L59468 25690
" />
<path d="M53366 20650
L53366 25690
" />
<path d="M59468 20650
L59167 20650
" />
<path d="M59167 20650
L59167 20420
" />
<path d="M53366 25690
L53667 25690
" />
<path d="M53667 25690
L53667 25920
" />
<path d="M66667 25920
L61167 25920
" />
<path d="M61167 20420
L66667 20420
" />
<path d="M61167 20420
L61167 20650
" />
<path d="M61167 20650
L60866 20650
" />
<path d="M66667 25690
L66667 25920
" />
<path d="M66968 25690
L66667 25690
" />
<path d="M66968 20650
L66968 25690
" />
<path d="M60866 20650
L60866 25690
" />
<path d="M66968 20650
L66667 20650
" />
<path d="M66667 20650
L66667 20420
" />
<path d="M60866 25690
L61167 25690
" />
<path d="M61167 25690
L61167 25920
" />
<path d="M74167 25920
L68667 25920
" />
<path d="M68667 20420
L74167 20420
" />
<path d="M68667 20420
L68667 20650
" />
<path d="M68667 20650
L68366 20650
" />
<path d="M74167 25690
L74167 25920
" />
<path d="M74468 25690
L74167 25690
" />
<path d="M74468 20650
L74468 25690
" />
<path d="M68366 20650
L68366 25690
" />
<path d="M74468 20650
L74167 20650
" />
<path d="M74167 20650
L74167 20420
" />
<path d="M68366 25690
L68667 25690
" />
<path d="M68667 25690
L68667 25920
" />
<path d="M81667 25920
L76167 25920
" />
<path d="M76167 20420
L81667 20420
" />
<path d="M76167 20420
L76167 20650
" />
<path d="M76167 20650
L75866 20650
" />
<path d="M81667 25690
L81667 25920
" />
<path d="M81968 25690
L81667 25690
" />
<path d="M81968 20650
L81968 25690
" />
<path d="M75866 20650
L75866 25690
" />
<path d="M81968 20650
L81667 20650
" />
<path d="M81667 20650
L81667 20420
" />
<path d="M75866 25690
L76167 25690
" />
<path d="M76167 25690
L76167 25920
" />
<path d="M89167 25920
L83667 25920
" />
<path d="M83667 20420
L89167 20420
" />
<path d="M83667 20420
L83667 20650
" />
<path d="M83667 20650
L83366 20650
" />
<path d="M89167 25690
L89167 25920
" />
<path d="M89468 25690
L89167 25690
" />
<path d="M89468 20650
L89468 25690
" />
<path d="M83366 20650
L83366 25690
" />
<path d="M89468 20650
L89167 20650
" />
<path d="M89167 20650
L89167 20420
" />
<path d="M83366 25690
L83667 25690
" />
<path d="M83667 25690
L83667 25920
" />
<path d="M96667 25920
L91167 25920
" />
<path d="M91167 20420
L96667 20420
" />
<path d="M91167 20420
L91167 20650
" />
<path d="M91167 20650
L90866 20650
" />
<path d="M96667 25690
L96667 25920
" />
<path d="M96968 25690
L96667 25690
" />
<path d="M96968 20650
L96968 25690
" />
<path d="M90866 20650
L90866 25690
" />
<path d="M96968 20650
L96667 20650
" />
<path d="M96667 20650
L96667 20420
" />
<path d="M90866 25690
L91167 25690
" />
<path d="M91167 25690
L91167 25920
" />
<path d="M104167 25920
L98667 25920
" />
<path d="M98667 20420
L104167 20420
" />
<path d="M98667 20420
L98667 20650
" />
<path d="M98667 20650
L98366 20650
" />
<path d="M104167 25690
L104167 25920
" />
<path d="M104468 25690
L104167 25690
" />
<path d="M104468 20650
L104468 25690
" />
<path d="M98366 20650
L98366 25690
" />
<path d="M104468 20650
L104167 20650
" />
<path d="M104167 20650
L104167 20420
" />
<path d="M98366 25690
L98667 25690
" />
<path d="M98667 25690
L98667 25920
" />
<path d="M121042 25920
L115542 25920
" />
<path d="M115542 20420
L121042 20420
" />
<path d="M115542 20420
L115542 20650
" />
<path d="M115542 20650
L115241 20650
" />
<path d="M121042 25690
L121042 25920
" />
<path d="M121343 25690
L121042 25690
" />
<path d="M121343 20650
L121343 25690
" />
<path d="M115241 20650
L115241 25690
" />
<path d="M121343 20650
L121042 20650
" />
<path d="M121042 20650
L121042 20420
" />
<path d="M115241 25690
L115542 25690
" />
<path d="M115542 25690
L115542 25920
" />
<path d="M17917 33420
L12417 33420
" />
<path d="M12417 27920
L17917 27920
" />
<path d="M12417 27920
L12417 28150
" />
<path d="M12417 28150
L12116 28150
" />
<path d="M17917 33190
L17917 33420
" />
<path d="M18218 33190
L17917 33190
" />
<path d="M18218 28150
L18218 33190
" />
<path d="M12116 28150
L12116 33190
" />
<path d="M18218 28150
L17917 28150
" />
<path d="M17917 28150
L17917 27920
" />
<path d="M12116 33190
L12417 33190
" />
<path d="M12417 33190
L12417 33420
" />
<path d="M25417 33420
L19917 33420
" />
<path d="M19917 27920
L25417 27920
" />
<path d="M19917 27920
L19917 28150
" />
<path d="M19917 28150
L19616 28150
" />
<path d="M25417 33190
L25417 33420
" />
<path d="M25719 33190
L25417 33190
" />
<path d="M25719 28150
L25719 33190
" />
<path d="M19616 28150
L19616 33190
" />
<path d="M25719 28150
L25417 28150
" />
<path d="M25417 28150
L25417 27920
" />
<path d="M19616 33190
L19917 33190
" />
<path d="M19917 33190
L19917 33420
" />
<path d="M32917 33420
L27417 33420
" />
<path d="M27417 27920
L32917 27920
" />
<path d="M27417 27920
L27417 28150
" />
<path d="M27417 28150
L27116 28150
" />
<path d="M32917 33190
L32917 33420
" />
<path d="M33219 33190
L32917 33190
" />
<path d="M33219 28150
L33219 33190
" />
<path d="M27116 28150
L27116 33190
" />
<path d="M33219 28150
L32917 28150
" />
<path d="M32917 28150
L32917 27920
" />
<path d="M27116 33190
L27417 33190
" />
<path d="M27417 33190
L27417 33420
" />
<path d="M40417 33420
L34917 33420
" />
<path d="M34917 27920
L40417 27920
" />
<path d="M34917 27920
L34917 28150
" />
<path d="M34917 28150
L34616 28150
" />
<path d="M40417 33190
L40417 33420
" />
<path d="M40719 33190
L40417 33190
" />
<path d="M40719 28150
L40719 33190
" />
<path d="M34616 28150
L34616 33190
" />
<path d="M40719 28150
L40417 28150
" />
<path d="M40417 28150
L40417 27920
" />
<path d="M34616 33190
L34917 33190
" />
<path d="M34917 33190
L34917 33420
" />
<path d="M47917 33420
L42417 33420
" />
<path d="M42417 27920
L47917 27920
" />
<path d="M42417 27920
L42417 28150
" />
<path d="M42417 28150
L42116 28150
" />
<path d="M47917 33190
L47917 33420
" />
<path d="M48219 33190
L47917 33190
" />
<path d="M48219 28150
L48219 33190
" />
<path d="M42116 28150
L42116 33190
" />
<path d="M48219 28150
L47917 28150
" />
<path d="M47917 28150
L47917 27920
" />
<path d="M42116 33190
L42417 33190
" />
<path d="M42417 33190
L42417 33420
" />
<path d="M55417 33420
L49917 33420
" />
<path d="M49917 27920
L55417 27920
" />
<path d="M49917 27920
L49917 28150
" />
<path d="M49917 28150
L49616 28150
" />
<path d="M55417 33190
L55417 33420
" />
<path d="M55719 33190
L55417 33190
" />
<path d="M55719 28150
L55719 33190
" />
<path d="M49616 28150
L49616 33190
" />
<path d="M55719 28150
L55417 28150
" />
<path d="M55417 28150
L55417 27920
" />
<path d="M49616 33190
L49917 33190
" />
<path d="M49917 33190
L49917 33420
" />
<path d="M62917 33420
L57417 33420
" />
<path d="M57417 27920
L62917 27920
" />
<path d="M57417 27920
L57417 28150
" />
<path d="M57417 28150
L57116 28150
" />
<path d="M62917 33190
L62917 33420
" />
<path d="M63219 33190
L62917 33190
" />
<path d="M63219 28150
L63219 33190
" />
<path d="M57116 28150
L57116 33190
" />
<path d="M63219 28150
L62917 28150
" />
<path d="M62917 28150
L62917 27920
" />
<path d="M57116 33190
L57417 33190
" />
<path d="M57417 33190
L57417 33420
" />
<path d="M70417 33420
L64917 33420
" />
<path d="M64917 27920
L70417 27920
" />
<path d="M64917 27920
L64917 28150
" />
<path d="M64917 28150
L64616 28150
" />
<path d="M70417 33190
L70417 33420
" />
<path d="M70719 33190
L70417 33190
" />
<path d="M70719 28150
L70719 33190
" />
<path d="M64616 28150
L64616 33190
" />
<path d="M70719 28150
L70417 28150
" />
<path d="M70417 28150
L70417 27920
" />
<path d="M64616 33190
L64917 33190
" />
<path d="M64917 33190
L64917 33420
" />
<path d="M77917 33420
L72417 33420
" />
<path d="M72417 27920
L77917 27920
" />
<path d="M72417 27920
L72417 28150
" />
<path d="M72417 28150
L72116 28150
" />
<path d="M77917 33190
L77917 33420
" />
<path d="M78219 33190
L77917 33190
" />
<path d="M78219 28150
L78219 33190
" />
<path d="M72116 28150
L72116 33190
" />
<path d="M78219 28150
L77917 28150
" />
<path d="M77917 28150
L77917 27920
" />
<path d="M72116 33190
L72417 33190
" />
<path d="M72417 33190
L72417 33420
" />
<path d="M92917 33420
L87417 33420
" />
<path d="M87417 27920
L92917 27920
" />
<path d="M87417 27920
L87417 28150
" />
<path d="M87417 28150
L87116 28150
" />
<path d="M92917 33190
L92917 33420
" />
<path d="M93219 33190
L92917 33190
" />
<path d="M93219 28150
L93219 33190
" />
<path d="M87116 28150
L87116 33190
" />
<path d="M93219 28150
L92917 28150
" />
<path d="M92917 28150
L92917 27920
" />
<path d="M87116 33190
L87417 33190
" />
<path d="M87417 33190
L87417 33420
" />
<path d="M113542 33420
L108042 33420
" />
<path d="M108042 27920
L113542 27920
" />
<path d="M108042 27920
L108042 28150
" />
<path d="M108042 28150
L107741 28150
" />
<path d="M113542 33190
L113542 33420
" />
<path d="M113843 33190
L113542 33190
" />
<path d="M113843 28150
L113843 33190
" />
<path d="M107741 28150
L107741 33190
" />
<path d="M113843 28150
L113542 28150
" />
<path d="M113542 28150
L113542 27920
" />
<path d="M107741 33190
L108042 33190
" />
<path d="M108042 33190
L108042 33420
" />
<path d="M121042 33420
L115542 33420
" />
<path d="M115542 27920
L121042 27920
" />
<path d="M115542 27920
L115542 28150
" />
<path d="M115542 28150
L115241 28150
" />
<path d="M121042 33190
L121042 33420
" />
<path d="M121343 33190
L121042 33190
" />
<path d="M121343 28150
L121343 33190
" />
<path d="M115241 28150
L115241 33190
" />
<path d="M121343 28150
L121042 28150
" />
<path d="M121042 28150
L121042 27920
" />
<path d="M115241 33190
L115542 33190
" />
<path d="M115542 33190
L115542 33420
" />
<path d="M9480 33420
L3980 33420
" />
<path d="M3980 27920
L9480 27920
" />
<path d="M3980 27920
L3980 28150
" />
<path d="M3980 28150
L3679 28150
" />
<path d="M9480 33190
L9480 33420
" />
<path d="M9781 33190
L9480 33190
" />
<path d="M9781 28150
L9781 33190
" />
<path d="M3679 28150
L3679 33190
" />
<path d="M9781 28150
L9480 28150
" />
<path d="M9480 28150
L9480 27920
" />
<path d="M3679 33190
L3980 33190
" />
<path d="M3980 33190
L3980 33420
" />
<path d="M56355 40920
L50855 40920
" />
<path d="M50855 35420
L56355 35420
" />
<path d="M50855 35420
L50855 35650
" />
<path d="M50855 35650
L50554 35650
" />
<path d="M56355 40690
L56355 40920
" />
<path d="M56656 40690
L56355 40690
" />
<path d="M56656 35650
L56656 40690
" />
<path d="M50554 35650
L50554 40690
" />
<path d="M56656 35650
L56355 35650
" />
<path d="M56355 35650
L56355 35420
" />
<path d="M50554 40690
L50855 40690
" />
<path d="M50855 40690
L50855 40920
" />
<path d="M16042 10920
L10542 10920
" />
<path d="M10542 5420
L16042 5420
" />
<path d="M10542 5420
L10542 5650
" />
<path d="M10542 5650
L10241 5650
" />
<path d="M16042 10690
L16042 10920
" />
<path d="M16343 10690
L16042 10690
" />
<path d="M16343 5650
L16343 10690
" />
<path d="M10241 5650
L10241 10690
" />
<path d="M16343 5650
L16042 5650
" />
<path d="M16042 5650
L16042 5420
" />
<path d="M10241 10690
L10542 10690
" />
<path d="M10542 10690
L10542 10920
" />
<path d="M79917 35420
L85417 35420
" />
<path d="M85417 40920
L79917 40920
" />
<path d="M85417 40920
L85417 40690
" />
<path d="M85417 40690
L85719 40690
" />
<path d="M79917 35650
L79917 35420
" />
<path d="M79616 35650
L79917 35650
" />
<path d="M79616 40690
L79616 35650
" />
<path d="M85719 40690
L85719 35650
" />
<path d="M79616 40690
L79917 40690
" />
<path d="M79917 40690
L79917 40920
" />
<path d="M85719 35650
L85417 35650
" />
<path d="M85417 35650
L85417 35420
" />
<path d="M61042 40920
L55542 40920
" />
<path d="M55542 35420
L61042 35420
" />
<path d="M55542 35420
L55542 35650
" />
<path d="M55542 35650
L55241 35650
" />
<path d="M61042 40690
L61042 40920
" />
<path d="M61343 40690
L61042 40690
" />
<path d="M61343 35650
L61343 40690
" />
<path d="M55241 35650
L55241 40690
" />
<path d="M61343 35650
L61042 35650
" />
<path d="M61042 35650
L61042 35420
" />
<path d="M55241 40690
L55542 40690
" />
<path d="M55542 40690
L55542 40920
" />
<path d="M21667 40920
L16167 40920
" />
<path d="M16167 35420
L21667 35420
" />
<path d="M16167 35420
L16167 35650
" />
<path d="M16167 35650
L15866 35650
" />
<path d="M21667 40690
L21667 40920
" />
<path d="M21968 40690
L21667 40690
" />
<path d="M21968 35650
L21968 40690
" />
<path d="M15866 35650
L15866 40690
" />
<path d="M21968 35650
L21667 35650
" />
<path d="M21667 35650
L21667 35420
" />
<path d="M15866 40690
L16167 40690
" />
<path d="M16167 40690
L16167 40920
" />
<path d="M107105 22170
L107105 16670
" />
<path d="M112605 16670
L112605 22170
" />
<path d="M112605 16670
L112375 16670
" />
<path d="M112375 16670
L112375 16369
" />
<path d="M107335 22170
L107105 22170
" />
<path d="M107335 22471
L107335 22170
" />
<path d="M112375 22471
L107335 22471
" />
<path d="M112375 16369
L107335 16369
" />
<path d="M112375 22471
L112375 22170
" />
<path d="M112375 22170
L112605 22170
" />
<path d="M107335 16369
L107335 16670
" />
<path d="M107335 16670
L107105 16670
" />
<path d="M91167 35420
L96667 35420
" />
<path d="M96667 40920
L91167 40920
" />
<path d="M96667 40920
L96667 40690
" />
<path d="M96667 40690
L96968 40690
" />
<path d="M91167 35650
L91167 35420
" />
<path d="M90866 35650
L91167 35650
" />
<path d="M90866 40690
L90866 35650
" />
<path d="M96968 40690
L96968 35650
" />
<path d="M90866 40690
L91167 40690
" />
<path d="M91167 40690
L91167 40920
" />
<path d="M96968 35650
L96667 35650
" />
<path d="M96667 35650
L96667 35420
" />
<path d="M93855 40920
L88355 40920
" />
<path d="M88355 35420
L93855 35420
" />
<path d="M88355 35420
L88355 35650
" />
<path d="M88355 35650
L88054 35650
" />
<path d="M93855 40690
L93855 40920
" />
<path d="M94156 40690
L93855 40690
" />
<path d="M94156 35650
L94156 40690
" />
<path d="M88054 35650
L88054 40690
" />
<path d="M94156 35650
L93855 35650
" />
<path d="M93855 35650
L93855 35420
" />
<path d="M88054 40690
L88355 40690
" />
<path d="M88355 40690
L88355 40920
" />
<path d="M84480 40920
L78980 40920
" />
<path d="M78980 35420
L84480 35420
" />
<path d="M78980 35420
L78980 35650
" />
<path d="M78980 35650
L78678 35650
" />
<path d="M84480 40690
L84480 40920
" />
<path d="M84781 40690
L84480 40690
" />
<path d="M84781 35650
L84781 40690
" />
<path d="M78678 35650
L78678 40690
" />
<path d="M84781 35650
L84480 35650
" />
<path d="M84480 35650
L84480 35420
" />
<path d="M78678 40690
L78980 40690
" />
<path d="M78980 40690
L78980 40920
" />
<path d="M53542 40920
L48042 40920
" />
<path d="M48042 35420
L53542 35420
" />
<path d="M48042 35420
L48042 35650
" />
<path d="M48042 35650
L47741 35650
" />
<path d="M53542 40690
L53542 40920
" />
<path d="M53843 40690
L53542 40690
" />
<path d="M53843 35650
L53843 40690
" />
<path d="M47741 35650
L47741 40690
" />
<path d="M53843 35650
L53542 35650
" />
<path d="M53542 35650
L53542 35420
" />
<path d="M47741 40690
L48042 40690
" />
<path d="M48042 40690
L48042 40920
" />
<path d="M23667 35420
L29167 35420
" />
<path d="M29167 40920
L23667 40920
" />
<path d="M29167 40920
L29167 40690
" />
<path d="M29167 40690
L29468 40690
" />
<path d="M23667 35650
L23667 35420
" />
<path d="M23366 35650
L23667 35650
" />
<path d="M23366 40690
L23366 35650
" />
<path d="M29468 40690
L29468 35650
" />
<path d="M23366 40690
L23667 40690
" />
<path d="M23667 40690
L23667 40920
" />
<path d="M29468 35650
L29167 35650
" />
<path d="M29167 35650
L29167 35420
" />
<path d="M14292 35420
L19792 35420
" />
<path d="M19792 40920
L14292 40920
" />
<path d="M19792 40920
L19792 40690
" />
<path d="M19792 40690
L20093 40690
" />
<path d="M14292 35650
L14292 35420
" />
<path d="M13991 35650
L14292 35650
" />
<path d="M13991 40690
L13991 35650
" />
<path d="M20093 40690
L20093 35650
" />
<path d="M13991 40690
L14292 40690
" />
<path d="M14292 40690
L14292 40920
" />
<path d="M20093 35650
L19792 35650
" />
<path d="M19792 35650
L19792 35420
" />
<path d="M4917 35420
L10417 35420
" />
<path d="M10417 40920
L4917 40920
" />
<path d="M10417 40920
L10417 40690
" />
<path d="M10417 40690
L10718 40690
" />
<path d="M4917 35650
L4917 35420
" />
<path d="M4616 35650
L4917 35650
" />
<path d="M4616 40690
L4616 35650
" />
<path d="M10718 40690
L10718 35650
" />
<path d="M4616 40690
L4917 40690
" />
<path d="M4917 40690
L4917 40920
" />
<path d="M10718 35650
L10417 35650
" />
<path d="M10417 35650
L10417 35420
" />
<path d="M106980 33420
L101480 33420
" />
<path d="M101480 27920
L106980 27920
" />
<path d="M101480 27920
L101480 28150
" />
<path d="M101480 28150
L101178 28150
" />
<path d="M106980 33190
L106980 33420
" />
<path d="M107281 33190
L106980 33190
" />
<path d="M107281 28150
L107281 33190
" />
<path d="M101178 28150
L101178 33190
" />
<path d="M107281 28150
L106980 28150
" />
<path d="M106980 28150
L106980 27920
" />
<path d="M101178 33190
L101480 33190
" />
<path d="M101480 33190
L101480 33420
" />
<path d="M13230 33420
L7730 33420
" />
<path d="M7730 27920
L13230 27920
" />
<path d="M7730 27920
L7730 28150
" />
<path d="M7730 28150
L7429 28150
" />
<path d="M13230 33190
L13230 33420
" />
<path d="M13531 33190
L13230 33190
" />
<path d="M13531 28150
L13531 33190
" />
<path d="M7429 28150
L7429 33190
" />
<path d="M13531 28150
L13230 28150
" />
<path d="M13230 28150
L13230 27920
" />
<path d="M7429 33190
L7730 33190
" />
<path d="M7730 33190
L7730 33420
" />
<path d="M108855 25920
L103355 25920
" />
<path d="M103355 20420
L108855 20420
" />
<path d="M103355 20420
L103355 20650
" />
<path d="M103355 20650
L103054 20650
" />
<path d="M108855 25690
L108855 25920
" />
<path d="M109156 25690
L108855 25690
" />
<path d="M109156 20650
L109156 25690
" />
<path d="M103054 20650
L103054 25690
" />
<path d="M109156 20650
L108855 20650
" />
<path d="M108855 20650
L108855 20420
" />
<path d="M103054 25690
L103355 25690
" />
<path d="M103355 25690
L103355 25920
" />
<path d="M109792 10920
L104292 10920
" />
<path d="M104292 5420
L109792 5420
" />
<path d="M104292 5420
L104292 5650
" />
<path d="M104292 5650
L103991 5650
" />
<path d="M109792 10690
L109792 10920
" />
<path d="M110093 10690
L109792 10690
" />
<path d="M110093 5650
L110093 10690
" />
<path d="M103991 5650
L103991 10690
" />
<path d="M110093 5650
L109792 5650
" />
<path d="M109792 5650
L109792 5420
" />
<path d="M103991 10690
L104292 10690
" />
<path d="M104292 10690
L104292 10920
" />
<path d="M9480 25920
L3980 25920
" />
<path d="M3980 20420
L9480 20420
" />
<path d="M3980 20420
L3980 20650
" />
<path d="M3980 20650
L3679 20650
" />
<path d="M9480 25690
L9480 25920
" />
<path d="M9781 25690
L9480 25690
" />
<path d="M9781 20650
L9781 25690
" />
<path d="M3679 20650
L3679 25690
" />
<path d="M9781 20650
L9480 20650
" />
<path d="M9480 20650
L9480 20420
" />
<path d="M3679 25690
L3980 25690
" />
<path d="M3980 25690
L3980 25920
" />
</g>
<g style="fill:#000000; fill-opacity:0.0; 
stroke:#000000; stroke-width:60; stroke-opacity:1; 
stroke-linecap:round; stroke-linejoin:round;">
</g>
<g style="fill:#C2C200; fill-opacity:0.0; 
stroke:#C2C200; stroke-width:60; stroke-opacity:1; 
stroke-linecap:round; stroke-linejoin:round;">
</g>
<g style="fill:#C2C200; fill-opacity:0.0; 
stroke:#C2C200; stroke-width:50; stroke-opacity:1; 
stroke-linecap:round; stroke-linejoin:round;">
<path d="M2042 40570
L2042 5770
" />
<path d="M120692 41920
L3392 41920
" />
<path d="M122042 5770
L122042 40570
" />
<path d="M3392 4420
L120692 4420
" />
<path d="M3392.72 4420.55 A1350 1350 0.0 0 0 2042.72 5770.55 " />
<path d="M2042.72 40570.6 A1350 1350 0.0 0 0 3392.72 41920.6 " />
<path d="M120693 41920.6 A1350 1350 0.0 0 0 122043 40570.6 " />
<path d="M122043 5770.55 A1350 1350 0.0 0 0 120693 4420.55 " />
</g> 
</svg>
