M48
;DRILL file {KiCad 4.0.2-stable} date Tuesday, June 21, 2016 'PMt' 05:03:36 PM
;FORMAT={-:-/ absolute / metric / decimal}
FMAT,2
METRIC,TZ
T1C0.305
T2C0.701
T3C0.800
T4C1.000
T5C1.500
T6C1.702
T7C3.048
T8C3.988
T9C4.000
T10C6.500
%
G90
G05
M71
T1
X60.555Y-104.5
X65.024Y-122.682
X84.949Y-92.445
X86.106Y-69.596
X98.298Y-133.096
X98.552Y-36.322
X112.268Y-114.046
X217.678Y-36.576
X255.778Y-37.846
X294.Y-37.5
X303.5Y-39.5
X319.5Y-135.5
X326.5Y-126.5
X332.Y-37.5
X336.Y-105.
X351.Y-37.5
X362.Y-125.5
X380.Y-36.5
X382.5Y-90.5
X402.5Y-22.101
X403.Y-92.5
X415.5Y-47.
X415.5Y-110.5
X415.801Y-46.
X416.5Y-38.5
X417.5Y-25.5
X418.5Y-93.5
X422.Y-73.
X434.5Y-37.5
X434.5Y-39.
X435.5Y-26.
T2
X33.02Y-36.83
X33.02Y-65.405
X33.02Y-84.455
X33.02Y-103.505
X33.655Y-122.555
X38.628Y-128.351
X38.628Y-138.511
X43.18Y-36.83
X43.18Y-65.405
X43.18Y-84.455
X43.18Y-103.505
X43.815Y-122.555
X48.153Y-23.576
X48.153Y-33.736
X48.153Y-52.151
X48.153Y-62.311
X48.153Y-71.201
X48.153Y-81.361
X48.153Y-90.251
X48.153Y-100.411
X48.153Y-109.301
X48.153Y-119.461
X67.203Y-23.576
X67.203Y-33.736
X67.203Y-52.151
X67.203Y-62.311
X67.203Y-71.201
X67.203Y-81.361
X67.203Y-90.251
X67.203Y-100.411
X67.203Y-109.301
X67.203Y-119.461
X71.Y-125.
X81.16Y-125.
X86.253Y-52.151
X86.253Y-62.311
X86.253Y-80.726
X86.253Y-90.886
X86.253Y-118.826
X86.253Y-128.986
X110.065Y-23.576
X110.065Y-33.736
X110.065Y-52.151
X110.065Y-62.311
X112.446Y-128.351
X112.446Y-138.511
X114.828Y-71.201
X114.828Y-81.361
X117.209Y-90.251
X117.209Y-100.411
X121.971Y-109.301
X121.971Y-119.461
X129.115Y-52.151
X129.115Y-62.311
X136.259Y-128.351
X136.259Y-138.511
X138.64Y-71.201
X138.64Y-81.361
X143.403Y-90.251
X143.403Y-100.411
X148.165Y-23.576
X148.165Y-33.736
X148.165Y-52.151
X148.165Y-62.311
X152.928Y-109.301
X152.928Y-119.461
X157.69Y-71.201
X157.69Y-81.361
X160.071Y-128.351
X160.071Y-138.511
X162.453Y-90.251
X162.453Y-100.411
X167.215Y-23.576
X167.215Y-33.736
X167.215Y-52.151
X167.215Y-62.311
X171.978Y-109.301
X171.978Y-119.461
X176.74Y-71.201
X176.74Y-81.361
X181.503Y-90.251
X181.503Y-100.411
X186.265Y-23.576
X186.265Y-33.736
X186.265Y-52.151
X186.265Y-62.311
X191.028Y-109.301
X191.028Y-119.461
X195.79Y-71.201
X195.79Y-81.361
X200.553Y-90.251
X200.553Y-100.411
X205.315Y-23.576
X205.315Y-33.736
X205.315Y-52.151
X205.315Y-62.311
X210.078Y-109.301
X210.078Y-119.461
X214.84Y-71.201
X214.84Y-81.361
X219.603Y-90.251
X219.603Y-100.411
X224.365Y-52.151
X224.365Y-62.311
X229.128Y-109.301
X229.128Y-119.461
X231.509Y-128.351
X231.509Y-138.511
X233.89Y-23.576
X233.89Y-33.736
X233.89Y-71.201
X233.89Y-81.361
X238.653Y-90.251
X238.653Y-100.411
X243.415Y-52.151
X243.415Y-62.311
X248.178Y-109.301
X248.178Y-119.461
X252.94Y-23.576
X252.94Y-33.736
X252.94Y-71.201
X252.94Y-81.361
X257.703Y-90.251
X257.703Y-100.411
X262.465Y-52.151
X262.465Y-62.311
X267.228Y-109.301
X267.228Y-119.461
X271.99Y-23.576
X271.99Y-33.736
X271.99Y-71.201
X271.99Y-81.361
X276.753Y-90.251
X276.753Y-100.411
X281.515Y-52.151
X281.515Y-62.311
X286.278Y-109.301
X286.278Y-119.461
X291.04Y-23.576
X291.04Y-33.736
X291.04Y-71.201
X291.04Y-81.361
X295.803Y-90.251
X295.803Y-100.411
X300.565Y-52.151
X300.565Y-62.311
X303.Y-128.351
X303.Y-138.511
X305.328Y-109.301
X305.328Y-119.461
X310.09Y-71.201
X310.09Y-81.361
X314.853Y-90.251
X314.853Y-100.411
X319.615Y-23.576
X319.615Y-33.736
X319.615Y-52.151
X319.615Y-62.311
X324.378Y-109.301
X324.378Y-119.461
X326.759Y-128.351
X326.759Y-138.511
X329.14Y-71.201
X329.14Y-81.361
X333.903Y-90.251
X333.903Y-100.411
X338.665Y-23.576
X338.665Y-33.736
X338.665Y-52.151
X338.665Y-62.311
X348.19Y-71.201
X348.19Y-81.361
X350.571Y-128.351
X350.571Y-138.511
X357.715Y-23.576
X357.715Y-33.736
X360.096Y-109.301
X360.096Y-119.461
X364.859Y-90.251
X364.859Y-100.411
X367.24Y-52.151
X367.24Y-62.311
X372.003Y-71.201
X372.003Y-81.361
X376.765Y-23.576
X376.765Y-33.736
X381.528Y-128.351
X381.528Y-138.511
X400.578Y-23.576
X400.578Y-33.736
X400.578Y-52.151
X400.578Y-62.311
X400.578Y-71.201
X400.578Y-81.361
X400.578Y-109.301
X400.578Y-119.461
X400.578Y-128.351
X400.578Y-138.511
X419.628Y-23.576
X419.628Y-33.736
X419.628Y-52.151
X419.628Y-62.311
X419.628Y-71.201
X419.628Y-81.361
X419.628Y-128.351
X419.628Y-138.511
T3
X396.68Y-88.
X396.68Y-103.24
X399.22Y-88.
X399.22Y-103.24
X401.76Y-88.
X401.76Y-103.24
X404.3Y-88.
X404.3Y-103.24
X406.84Y-88.
X406.84Y-103.24
X409.38Y-88.
X409.38Y-103.24
X411.92Y-88.
X411.92Y-103.24
X414.46Y-88.
X414.46Y-103.24
X417.Y-88.
X417.Y-103.24
X419.54Y-88.
X419.54Y-103.24
X422.08Y-88.
X422.08Y-103.24
X424.62Y-88.
X424.62Y-103.24
X427.16Y-88.
X427.16Y-103.24
X429.7Y-88.
X429.7Y-103.24
T4
X36.83Y-23.495
X36.83Y-52.07
X36.83Y-71.12
X36.83Y-90.17
X36.83Y-109.22
X39.37Y-23.495
X39.37Y-52.07
X39.37Y-71.12
X39.37Y-90.17
X39.37Y-109.22
X46.355Y-128.27
X48.895Y-128.27
X55.88Y-23.495
X55.88Y-52.07
X55.88Y-71.12
X55.88Y-90.17
X55.88Y-109.22
X58.42Y-23.495
X58.42Y-52.07
X58.42Y-71.12
X58.42Y-90.17
X58.42Y-109.22
X74.93Y-23.495
X74.93Y-52.07
X74.93Y-71.12
X74.93Y-90.17
X74.93Y-109.22
X74.93Y-128.27
X77.47Y-23.495
X77.47Y-52.07
X77.47Y-71.12
X77.47Y-90.17
X77.47Y-109.22
X77.47Y-128.27
X93.98Y-52.07
X93.98Y-80.645
X93.98Y-118.745
X96.52Y-52.07
X96.52Y-80.645
X96.52Y-118.745
X117.792Y-23.495
X117.792Y-52.07
X120.174Y-128.27
X120.332Y-23.495
X120.332Y-52.07
X122.555Y-71.12
X122.714Y-128.27
X124.936Y-90.17
X125.095Y-71.12
X127.476Y-90.17
X129.699Y-109.22
X132.239Y-109.22
X136.843Y-52.07
X139.382Y-52.07
X143.986Y-128.27
X146.368Y-71.12
X146.526Y-128.27
X148.907Y-71.12
X151.13Y-90.17
X153.67Y-90.17
X155.892Y-23.495
X155.892Y-52.07
X158.433Y-23.495
X158.433Y-52.07
X160.655Y-109.22
X163.195Y-109.22
X165.417Y-71.12
X167.799Y-128.27
X167.957Y-71.12
X170.18Y-90.17
X170.339Y-128.27
X172.72Y-90.17
X174.942Y-23.495
X174.942Y-52.07
X177.482Y-23.495
X177.482Y-52.07
X179.705Y-109.22
X182.245Y-109.22
X184.468Y-71.12
X187.007Y-71.12
X189.23Y-90.17
X191.77Y-90.17
X193.992Y-23.495
X193.992Y-52.07
X196.532Y-23.495
X196.532Y-52.07
X198.755Y-109.22
X201.295Y-109.22
X203.517Y-71.12
X206.058Y-71.12
X208.28Y-90.17
X210.82Y-90.17
X213.042Y-23.495
X213.042Y-52.07
X215.582Y-23.495
X215.582Y-52.07
X217.805Y-109.22
X220.345Y-109.22
X222.567Y-71.12
X225.107Y-71.12
X227.33Y-90.17
X229.87Y-90.17
X232.093Y-52.07
X234.632Y-52.07
X236.855Y-109.22
X239.236Y-128.27
X239.395Y-109.22
X241.617Y-23.495
X241.617Y-71.12
X241.776Y-128.27
X244.157Y-23.495
X244.157Y-71.12
X246.38Y-90.17
X248.92Y-90.17
X251.142Y-52.07
X253.682Y-52.07
X255.905Y-109.22
X258.445Y-109.22
X260.667Y-23.495
X260.667Y-71.12
X263.207Y-23.495
X263.207Y-71.12
X265.43Y-90.17
X267.97Y-90.17
X270.192Y-52.07
X272.733Y-52.07
X274.955Y-109.22
X277.495Y-109.22
X279.717Y-23.495
X279.717Y-71.12
X282.257Y-23.495
X282.257Y-71.12
X284.48Y-90.17
X287.02Y-90.17
X289.243Y-52.07
X291.782Y-52.07
X294.005Y-109.22
X296.545Y-109.22
X298.767Y-23.495
X298.767Y-71.12
X301.308Y-23.495
X301.308Y-71.12
X303.53Y-90.17
X306.07Y-90.17
X308.292Y-52.07
X310.674Y-128.27
X310.832Y-52.07
X313.055Y-109.22
X313.214Y-128.27
X315.595Y-109.22
X317.817Y-71.12
X320.357Y-71.12
X322.58Y-90.17
X325.12Y-90.17
X327.342Y-23.495
X327.342Y-52.07
X329.882Y-23.495
X329.882Y-52.07
X332.105Y-109.22
X334.486Y-128.27
X334.645Y-109.22
X336.868Y-71.12
X337.026Y-128.27
X339.407Y-71.12
X341.63Y-90.17
X344.17Y-90.17
X346.392Y-23.495
X346.392Y-52.07
X348.933Y-23.495
X348.933Y-52.07
X355.917Y-71.12
X358.299Y-128.27
X358.457Y-71.12
X360.839Y-128.27
X365.442Y-23.495
X367.824Y-109.22
X367.982Y-23.495
X370.364Y-109.22
X372.586Y-90.17
X374.967Y-52.07
X375.126Y-90.17
X377.507Y-52.07
X379.73Y-71.12
X382.27Y-71.12
X384.493Y-23.495
X387.032Y-23.495
X389.255Y-128.27
X391.795Y-128.27
X408.305Y-23.495
X408.305Y-52.07
X408.305Y-71.12
X408.305Y-109.22
X408.305Y-128.27
X410.845Y-23.495
X410.845Y-52.07
X410.845Y-71.12
X410.845Y-109.22
X410.845Y-128.27
X427.355Y-23.495
X427.355Y-52.07
X427.355Y-71.12
X427.355Y-128.27
X429.895Y-23.495
X429.895Y-52.07
X429.895Y-71.12
X429.895Y-128.27
T6
X33.02Y-28.575
X33.02Y-57.15
X33.02Y-76.2
X33.02Y-95.25
X33.02Y-114.3
X42.545Y-133.35
X43.18Y-28.575
X43.18Y-57.15
X43.18Y-76.2
X43.18Y-95.25
X43.18Y-114.3
X52.07Y-28.575
X52.07Y-57.15
X52.07Y-76.2
X52.07Y-95.25
X52.07Y-114.3
X52.705Y-133.35
X62.23Y-28.575
X62.23Y-57.15
X62.23Y-76.2
X62.23Y-95.25
X62.23Y-114.3
X71.12Y-28.575
X71.12Y-57.15
X71.12Y-76.2
X71.12Y-95.25
X71.12Y-114.3
X71.12Y-133.35
X81.28Y-28.575
X81.28Y-57.15
X81.28Y-76.2
X81.28Y-95.25
X81.28Y-114.3
X81.28Y-133.35
X90.17Y-57.15
X90.17Y-85.725
X90.17Y-123.825
X100.33Y-57.15
X100.33Y-85.725
X100.33Y-123.825
X113.983Y-28.575
X113.983Y-57.15
X116.364Y-133.35
X118.745Y-76.2
X121.126Y-95.25
X124.142Y-28.575
X124.142Y-57.15
X125.889Y-114.3
X126.524Y-133.35
X128.905Y-76.2
X131.286Y-95.25
X133.032Y-57.15
X136.049Y-114.3
X140.176Y-133.35
X142.558Y-76.2
X143.192Y-57.15
X147.32Y-95.25
X150.336Y-133.35
X152.082Y-28.575
X152.082Y-57.15
X152.718Y-76.2
X156.845Y-114.3
X157.48Y-95.25
X161.607Y-76.2
X162.243Y-28.575
X162.243Y-57.15
X163.989Y-133.35
X166.37Y-95.25
X167.005Y-114.3
X171.132Y-28.575
X171.132Y-57.15
X171.767Y-76.2
X174.149Y-133.35
X175.895Y-114.3
X176.53Y-95.25
X180.657Y-76.2
X181.292Y-28.575
X181.292Y-57.15
X185.42Y-95.25
X186.055Y-114.3
X190.183Y-28.575
X190.183Y-57.15
X190.817Y-76.2
X194.945Y-114.3
X195.58Y-95.25
X199.707Y-76.2
X200.343Y-28.575
X200.343Y-57.15
X204.47Y-95.25
X205.105Y-114.3
X209.232Y-28.575
X209.232Y-57.15
X209.867Y-76.2
X213.995Y-114.3
X214.63Y-95.25
X218.757Y-76.2
X219.392Y-28.575
X219.392Y-57.15
X223.52Y-95.25
X224.155Y-114.3
X228.282Y-57.15
X228.917Y-76.2
X233.045Y-114.3
X233.68Y-95.25
X235.426Y-133.35
X237.807Y-28.575
X237.807Y-76.2
X238.442Y-57.15
X242.57Y-95.25
X243.205Y-114.3
X245.586Y-133.35
X247.332Y-57.15
X247.968Y-28.575
X247.968Y-76.2
X252.095Y-114.3
X252.73Y-95.25
X256.858Y-28.575
X256.858Y-76.2
X257.493Y-57.15
X261.62Y-95.25
X262.255Y-114.3
X266.382Y-57.15
X267.017Y-28.575
X267.017Y-76.2
X271.145Y-114.3
X271.78Y-95.25
X275.907Y-28.575
X275.907Y-76.2
X276.542Y-57.15
X280.67Y-95.25
X281.305Y-114.3
X285.433Y-57.15
X286.067Y-28.575
X286.067Y-76.2
X290.195Y-114.3
X290.83Y-95.25
X294.957Y-28.575
X294.957Y-76.2
X295.592Y-57.15
X299.72Y-95.25
X300.355Y-114.3
X304.482Y-57.15
X305.118Y-28.575
X305.118Y-76.2
X306.864Y-133.35
X309.245Y-114.3
X309.88Y-95.25
X314.007Y-76.2
X314.642Y-57.15
X317.024Y-133.35
X318.77Y-95.25
X319.405Y-114.3
X323.532Y-28.575
X323.532Y-57.15
X324.167Y-76.2
X328.295Y-114.3
X328.93Y-95.25
X330.676Y-133.35
X333.058Y-76.2
X333.692Y-28.575
X333.692Y-57.15
X337.82Y-95.25
X338.455Y-114.3
X340.836Y-133.35
X342.582Y-28.575
X342.582Y-57.15
X343.217Y-76.2
X347.98Y-95.25
X352.107Y-76.2
X352.743Y-28.575
X352.743Y-57.15
X354.489Y-133.35
X361.632Y-28.575
X362.267Y-76.2
X364.014Y-114.3
X364.649Y-133.35
X368.776Y-95.25
X371.157Y-57.15
X371.792Y-28.575
X374.174Y-114.3
X375.92Y-76.2
X378.936Y-95.25
X380.683Y-28.575
X381.317Y-57.15
X385.445Y-133.35
X386.08Y-76.2
X390.842Y-28.575
X395.605Y-133.35
X404.495Y-28.575
X404.495Y-57.15
X404.495Y-76.2
X404.495Y-114.3
X404.495Y-133.35
X414.655Y-28.575
X414.655Y-57.15
X414.655Y-76.2
X414.655Y-114.3
X414.655Y-133.35
X423.545Y-28.575
X423.545Y-57.15
X423.545Y-76.2
X423.545Y-133.35
X433.705Y-28.575
X433.705Y-57.15
X433.705Y-76.2
X433.705Y-133.35
T7
X35.687Y-140.335
X59.563Y-140.335
X88.265Y-73.787
X88.265Y-97.663
X88.265Y-111.887
X88.265Y-135.763
X119.031Y-107.315
X142.907Y-107.315
X190.468Y-140.335
X290.544Y-140.335
X357.156Y-107.315
X361.918Y-88.265
X364.299Y-50.165
X381.032Y-107.315
X385.794Y-88.265
X388.175Y-50.165
T8
X35.687Y-125.095
X38.1Y-28.575
X38.1Y-57.15
X38.1Y-76.2
X38.1Y-95.25
X38.1Y-114.3
X47.625Y-133.35
X57.15Y-28.575
X57.15Y-57.15
X57.15Y-76.2
X57.15Y-95.25
X57.15Y-114.3
X59.563Y-125.095
X76.2Y-28.575
X76.2Y-57.15
X76.2Y-76.2
X76.2Y-95.25
X76.2Y-114.3
X76.2Y-133.35
X95.25Y-57.15
X95.25Y-85.725
X95.25Y-123.825
X103.505Y-73.787
X103.505Y-97.663
X103.505Y-111.887
X103.505Y-135.763
X119.031Y-122.555
X119.062Y-28.575
X119.062Y-57.15
X121.444Y-133.35
X123.825Y-76.2
X126.206Y-95.25
X130.969Y-114.3
X138.112Y-57.15
X142.907Y-122.555
X145.256Y-133.35
X147.637Y-76.2
X152.4Y-95.25
X157.162Y-28.575
X157.162Y-57.15
X161.925Y-114.3
X166.688Y-76.2
X169.069Y-133.35
X171.45Y-95.25
X176.213Y-28.575
X176.213Y-57.15
X180.975Y-114.3
X185.737Y-76.2
X190.468Y-125.095
X190.5Y-95.25
X195.262Y-28.575
X195.262Y-57.15
X200.025Y-114.3
X204.787Y-76.2
X209.55Y-95.25
X214.312Y-28.575
X214.312Y-57.15
X219.075Y-114.3
X223.837Y-76.2
X228.6Y-95.25
X233.362Y-57.15
X238.125Y-114.3
X240.506Y-133.35
X242.887Y-28.575
X242.887Y-76.2
X247.65Y-95.25
X252.412Y-57.15
X257.175Y-114.3
X261.938Y-28.575
X261.938Y-76.2
X266.7Y-95.25
X271.462Y-57.15
X276.225Y-114.3
X280.988Y-28.575
X280.988Y-76.2
X285.75Y-95.25
X290.512Y-57.15
X290.544Y-125.095
X295.275Y-114.3
X300.037Y-28.575
X300.037Y-76.2
X304.8Y-95.25
X309.562Y-57.15
X311.944Y-133.35
X314.325Y-114.3
X319.087Y-76.2
X323.85Y-95.25
X328.613Y-28.575
X328.613Y-57.15
X333.375Y-114.3
X335.756Y-133.35
X338.137Y-76.2
X342.9Y-95.25
X347.662Y-28.575
X347.662Y-57.15
X357.156Y-122.555
X357.188Y-76.2
X359.569Y-133.35
X361.918Y-103.505
X364.299Y-65.405
X366.712Y-28.575
X369.094Y-114.3
X373.856Y-95.25
X376.238Y-57.15
X381.Y-76.2
X381.032Y-122.555
X385.762Y-28.575
X385.794Y-103.505
X388.175Y-65.405
X390.525Y-133.35
X409.575Y-28.575
X409.575Y-57.15
X409.575Y-76.2
X409.575Y-114.3
X409.575Y-133.35
X428.625Y-28.575
X428.625Y-57.15
X428.625Y-76.2
X428.625Y-133.35
T9
X63.5Y-42.862
X63.5Y-133.35
X182.Y-42.862
X182.Y-133.35
X299.Y-42.862
X299.Y-133.35
X374.65Y-133.35
X428.625Y-42.862
T10
X428.625Y-114.3
T5
X35.56Y-33.654G85X35.6Y-33.076
G05
X35.56Y-62.229G85X35.6Y-61.651
G05
X35.56Y-81.279G85X35.6Y-80.701
G05
X35.56Y-100.329G85X35.6Y-99.751
G05
X35.56Y-119.379G85X35.6Y-118.801
G05
X41.1Y-32.575G85X41.91Y-31.115
G05
X41.1Y-61.15G85X41.91Y-59.69
G05
X41.1Y-80.2G85X41.91Y-78.74
G05
X41.1Y-99.25G85X41.91Y-97.79
G05
X41.1Y-118.3G85X41.91Y-116.84
G05
X45.085Y-138.429G85X45.125Y-137.851
G05
X50.625Y-137.35G85X51.435Y-135.89
G05
X54.61Y-33.654G85X54.65Y-33.076
G05
X54.61Y-62.229G85X54.65Y-61.651
G05
X54.61Y-81.279G85X54.65Y-80.701
G05
X54.61Y-100.329G85X54.65Y-99.751
G05
X54.61Y-119.379G85X54.65Y-118.801
G05
X60.15Y-32.575G85X60.96Y-31.115
G05
X60.15Y-61.15G85X60.96Y-59.69
G05
X60.15Y-80.2G85X60.96Y-78.74
G05
X60.15Y-99.25G85X60.96Y-97.79
G05
X60.15Y-118.3G85X60.96Y-116.84
G05
X73.66Y-33.654G85X73.7Y-33.076
G05
X73.66Y-62.229G85X73.7Y-61.651
G05
X73.66Y-81.279G85X73.7Y-80.701
G05
X73.66Y-100.329G85X73.7Y-99.751
G05
X73.66Y-119.379G85X73.7Y-118.801
G05
X73.66Y-138.429G85X73.7Y-137.851
G05
X79.2Y-32.575G85X80.01Y-31.115
G05
X79.2Y-61.15G85X80.01Y-59.69
G05
X79.2Y-80.2G85X80.01Y-78.74
G05
X79.2Y-99.25G85X80.01Y-97.79
G05
X79.2Y-118.3G85X80.01Y-116.84
G05
X79.2Y-137.35G85X80.01Y-135.89
G05
X92.71Y-62.229G85X92.75Y-61.651
G05
X92.71Y-90.804G85X92.75Y-90.226
G05
X92.71Y-128.904G85X92.75Y-128.326
G05
X98.25Y-61.15G85X99.06Y-59.69
G05
X98.25Y-89.725G85X99.06Y-88.265
G05
X98.25Y-127.825G85X99.06Y-126.365
G05
X116.523Y-33.654G85X116.562Y-33.076
G05
X116.523Y-62.229G85X116.562Y-61.651
G05
X118.904Y-138.429G85X118.943Y-137.851
G05
X121.285Y-81.279G85X121.325Y-80.701
G05
X122.062Y-32.575G85X122.873Y-31.115
G05
X122.062Y-61.15G85X122.873Y-59.69
G05
X123.667Y-100.329G85X123.706Y-99.751
G05
X124.443Y-137.35G85X125.254Y-135.89
G05
X126.825Y-80.2G85X127.635Y-78.74
G05
X128.429Y-119.379G85X128.468Y-118.801
G05
X129.206Y-99.25G85X130.017Y-97.79
G05
X133.968Y-118.3G85X134.779Y-116.84
G05
X135.573Y-62.229G85X135.612Y-61.651
G05
X141.112Y-61.15G85X141.923Y-59.69
G05
X142.717Y-138.429G85X142.756Y-137.851
G05
X145.098Y-81.279G85X145.137Y-80.701
G05
X148.256Y-137.35G85X149.067Y-135.89
G05
X149.86Y-100.329G85X149.9Y-99.751
G05
X150.637Y-80.2G85X151.448Y-78.74
G05
X154.623Y-33.654G85X154.662Y-33.076
G05
X154.623Y-62.229G85X154.662Y-61.651
G05
X155.4Y-99.25G85X156.21Y-97.79
G05
X159.385Y-119.379G85X159.425Y-118.801
G05
X160.162Y-32.575G85X160.973Y-31.115
G05
X160.162Y-61.15G85X160.973Y-59.69
G05
X164.148Y-81.279G85X164.187Y-80.701
G05
X164.925Y-118.3G85X165.735Y-116.84
G05
X166.529Y-138.429G85X166.568Y-137.851
G05
X168.91Y-100.329G85X168.95Y-99.751
G05
X169.687Y-80.2G85X170.498Y-78.74
G05
X172.068Y-137.35G85X172.879Y-135.89
G05
X173.673Y-33.654G85X173.712Y-33.076
G05
X173.673Y-62.229G85X173.712Y-61.651
G05
X174.45Y-99.25G85X175.26Y-97.79
G05
X178.435Y-119.379G85X178.475Y-118.801
G05
X179.212Y-32.575G85X180.023Y-31.115
G05
X179.212Y-61.15G85X180.023Y-59.69
G05
X183.198Y-81.279G85X183.237Y-80.701
G05
X183.975Y-118.3G85X184.785Y-116.84
G05
X187.96Y-100.329G85X188.Y-99.751
G05
X188.737Y-80.2G85X189.548Y-78.74
G05
X192.723Y-33.654G85X192.762Y-33.076
G05
X192.723Y-62.229G85X192.762Y-61.651
G05
X193.5Y-99.25G85X194.31Y-97.79
G05
X197.485Y-119.379G85X197.525Y-118.801
G05
X198.262Y-32.575G85X199.073Y-31.115
G05
X198.262Y-61.15G85X199.073Y-59.69
G05
X202.248Y-81.279G85X202.287Y-80.701
G05
X203.025Y-118.3G85X203.835Y-116.84
G05
X207.01Y-100.329G85X207.05Y-99.751
G05
X207.787Y-80.2G85X208.598Y-78.74
G05
X211.773Y-33.654G85X211.812Y-33.076
G05
X211.773Y-62.229G85X211.812Y-61.651
G05
X212.55Y-99.25G85X213.36Y-97.79
G05
X216.535Y-119.379G85X216.575Y-118.801
G05
X217.312Y-32.575G85X218.123Y-31.115
G05
X217.312Y-61.15G85X218.123Y-59.69
G05
X221.298Y-81.279G85X221.337Y-80.701
G05
X222.075Y-118.3G85X222.885Y-116.84
G05
X226.06Y-100.329G85X226.1Y-99.751
G05
X226.837Y-80.2G85X227.648Y-78.74
G05
X230.823Y-62.229G85X230.862Y-61.651
G05
X231.6Y-99.25G85X232.41Y-97.79
G05
X235.585Y-119.379G85X235.625Y-118.801
G05
X236.362Y-61.15G85X237.173Y-59.69
G05
X237.967Y-138.429G85X238.006Y-137.851
G05
X240.348Y-33.654G85X240.387Y-33.076
G05
X240.348Y-81.279G85X240.387Y-80.701
G05
X241.125Y-118.3G85X241.935Y-116.84
G05
X243.506Y-137.35G85X244.317Y-135.89
G05
X245.11Y-100.329G85X245.15Y-99.751
G05
X245.887Y-32.575G85X246.698Y-31.115
G05
X245.887Y-80.2G85X246.698Y-78.74
G05
X249.873Y-62.229G85X249.912Y-61.651
G05
X250.65Y-99.25G85X251.46Y-97.79
G05
X254.635Y-119.379G85X254.675Y-118.801
G05
X255.412Y-61.15G85X256.223Y-59.69
G05
X259.398Y-33.654G85X259.437Y-33.076
G05
X259.398Y-81.279G85X259.437Y-80.701
G05
X260.175Y-118.3G85X260.985Y-116.84
G05
X264.16Y-100.329G85X264.2Y-99.751
G05
X264.937Y-32.575G85X265.748Y-31.115
G05
X264.937Y-80.2G85X265.748Y-78.74
G05
X268.923Y-62.229G85X268.962Y-61.651
G05
X269.7Y-99.25G85X270.51Y-97.79
G05
X273.685Y-119.379G85X273.725Y-118.801
G05
X274.462Y-61.15G85X275.273Y-59.69
G05
X278.448Y-33.654G85X278.487Y-33.076
G05
X278.448Y-81.279G85X278.487Y-80.701
G05
X279.225Y-118.3G85X280.035Y-116.84
G05
X283.21Y-100.329G85X283.25Y-99.751
G05
X283.987Y-32.575G85X284.798Y-31.115
G05
X283.987Y-80.2G85X284.798Y-78.74
G05
X287.973Y-62.229G85X288.012Y-61.651
G05
X288.75Y-99.25G85X289.56Y-97.79
G05
X292.735Y-119.379G85X292.775Y-118.801
G05
X293.512Y-61.15G85X294.323Y-59.69
G05
X297.498Y-33.654G85X297.537Y-33.076
G05
X297.498Y-81.279G85X297.537Y-80.701
G05
X298.275Y-118.3G85X299.085Y-116.84
G05
X302.26Y-100.329G85X302.3Y-99.751
G05
X303.037Y-32.575G85X303.848Y-31.115
G05
X303.037Y-80.2G85X303.848Y-78.74
G05
X307.023Y-62.229G85X307.062Y-61.651
G05
X307.8Y-99.25G85X308.61Y-97.79
G05
X309.404Y-138.429G85X309.443Y-137.851
G05
X311.785Y-119.379G85X311.825Y-118.801
G05
X312.562Y-61.15G85X313.373Y-59.69
G05
X314.943Y-137.35G85X315.754Y-135.89
G05
X316.548Y-81.279G85X316.587Y-80.701
G05
X317.325Y-118.3G85X318.135Y-116.84
G05
X321.31Y-100.329G85X321.35Y-99.751
G05
X322.087Y-80.2G85X322.898Y-78.74
G05
X326.073Y-33.654G85X326.112Y-33.076
G05
X326.073Y-62.229G85X326.112Y-61.651
G05
X326.85Y-99.25G85X327.66Y-97.79
G05
X330.835Y-119.379G85X330.875Y-118.801
G05
X331.612Y-32.575G85X332.423Y-31.115
G05
X331.612Y-61.15G85X332.423Y-59.69
G05
X333.217Y-138.429G85X333.256Y-137.851
G05
X335.598Y-81.279G85X335.637Y-80.701
G05
X336.375Y-118.3G85X337.185Y-116.84
G05
X338.756Y-137.35G85X339.567Y-135.89
G05
X340.36Y-100.329G85X340.4Y-99.751
G05
X341.137Y-80.2G85X341.948Y-78.74
G05
X345.123Y-33.654G85X345.162Y-33.076
G05
X345.123Y-62.229G85X345.162Y-61.651
G05
X345.9Y-99.25G85X346.71Y-97.79
G05
X350.662Y-32.575G85X351.473Y-31.115
G05
X350.662Y-61.15G85X351.473Y-59.69
G05
X354.648Y-81.279G85X354.687Y-80.701
G05
X357.029Y-138.429G85X357.068Y-137.851
G05
X360.187Y-80.2G85X360.998Y-78.74
G05
X362.568Y-137.35G85X363.379Y-135.89
G05
X364.173Y-33.654G85X364.212Y-33.076
G05
X366.554Y-119.379G85X366.593Y-118.801
G05
X369.712Y-32.575G85X370.523Y-31.115
G05
X371.317Y-100.329G85X371.356Y-99.751
G05
X372.093Y-118.3G85X372.904Y-116.84
G05
X373.698Y-62.229G85X373.737Y-61.651
G05
X376.856Y-99.25G85X377.667Y-97.79
G05
X378.46Y-81.279G85X378.5Y-80.701
G05
X379.237Y-61.15G85X380.048Y-59.69
G05
X383.223Y-33.654G85X383.262Y-33.076
G05
X384.Y-80.2G85X384.81Y-78.74
G05
X387.985Y-138.429G85X388.025Y-137.851
G05
X388.762Y-32.575G85X389.573Y-31.115
G05
X393.525Y-137.35G85X394.335Y-135.89
G05
X407.035Y-33.654G85X407.075Y-33.076
G05
X407.035Y-62.229G85X407.075Y-61.651
G05
X407.035Y-81.279G85X407.075Y-80.701
G05
X407.035Y-119.379G85X407.075Y-118.801
G05
X407.035Y-138.429G85X407.075Y-137.851
G05
X412.575Y-32.575G85X413.385Y-31.115
G05
X412.575Y-61.15G85X413.385Y-59.69
G05
X412.575Y-80.2G85X413.385Y-78.74
G05
X412.575Y-118.3G85X413.385Y-116.84
G05
X412.575Y-137.35G85X413.385Y-135.89
G05
X426.085Y-33.654G85X426.125Y-33.076
G05
X426.085Y-62.229G85X426.125Y-61.651
G05
X426.085Y-81.279G85X426.125Y-80.701
G05
X426.085Y-138.429G85X426.125Y-137.851
G05
X431.625Y-32.575G85X432.435Y-31.115
G05
X431.625Y-61.15G85X432.435Y-59.69
G05
X431.625Y-80.2G85X432.435Y-78.74
G05
X431.625Y-137.35G85X432.435Y-135.89
G05
T0
M30
