G04 #@! TF.FileFunction,Copper,L1,Top,Signal*
%FSLAX46Y46*%
G04 Gerber Fmt 4.6, Leading zero omitted, Abs format (unit mm)*
G04 Created by KiCad (PCBNEW 4.0.2-stable) date Tuesday, June 21, 2016 'PMt' 05:11:06 PM*
%MOMM*%
G01*
G04 APERTURE LIST*
%ADD10C,0.150000*%
%ADD11C,5.000000*%
%ADD12C,1.699260*%
%ADD13R,1.699260X1.699260*%
%ADD14C,3.987810*%
%ADD15C,1.701810*%
%ADD16C,2.500000*%
%ADD17R,2.000000X2.000000*%
%ADD18C,2.000000*%
%ADD19O,1.600000X2.300000*%
%ADD20C,0.609600*%
%ADD21C,0.381000*%
G04 APERTURE END LIST*
D10*
D11*
X374650000Y-133350000D03*
X299000000Y-133350000D03*
D12*
X286277540Y-119460520D03*
D13*
X286277540Y-109300520D03*
D11*
X428625000Y-42862500D03*
X299000000Y-42862500D03*
X182000000Y-133350000D03*
X182000000Y-42862500D03*
D12*
X419627540Y-138510520D03*
D13*
X419627540Y-128350520D03*
D14*
X428625000Y-133350000D03*
D15*
X433705000Y-133350000D03*
X423545000Y-133350000D03*
D16*
X431624547Y-137349954D02*
X432435453Y-135890046D01*
X426085276Y-138429328D02*
X426124724Y-137850672D01*
D17*
X429895000Y-128270000D03*
D18*
X427355000Y-128270000D03*
D12*
X400577540Y-138510520D03*
D13*
X400577540Y-128350520D03*
D14*
X409575000Y-133350000D03*
D15*
X414655000Y-133350000D03*
X404495000Y-133350000D03*
D16*
X412574547Y-137349954D02*
X413385453Y-135890046D01*
X407035276Y-138429328D02*
X407074724Y-137850672D01*
D17*
X410845000Y-128270000D03*
D18*
X408305000Y-128270000D03*
D12*
X381527540Y-138510520D03*
D13*
X381527540Y-128350520D03*
D14*
X390525000Y-133350000D03*
D15*
X395605000Y-133350000D03*
X385445000Y-133350000D03*
D16*
X393524547Y-137349954D02*
X394335453Y-135890046D01*
X387985276Y-138429328D02*
X388024724Y-137850672D01*
D17*
X391795000Y-128270000D03*
D18*
X389255000Y-128270000D03*
D12*
X350571290Y-138510520D03*
D13*
X350571290Y-128350520D03*
D14*
X359568750Y-133350000D03*
D15*
X364648750Y-133350000D03*
X354488750Y-133350000D03*
D16*
X362568297Y-137349954D02*
X363379203Y-135890046D01*
X357029026Y-138429328D02*
X357068474Y-137850672D01*
D17*
X360838750Y-128270000D03*
D18*
X358298750Y-128270000D03*
D12*
X326758790Y-138510520D03*
D13*
X326758790Y-128350520D03*
D14*
X335756250Y-133350000D03*
D15*
X340836250Y-133350000D03*
X330676250Y-133350000D03*
D16*
X338755797Y-137349954D02*
X339566703Y-135890046D01*
X333216526Y-138429328D02*
X333255974Y-137850672D01*
D17*
X337026250Y-128270000D03*
D18*
X334486250Y-128270000D03*
D12*
X303000000Y-138510520D03*
D13*
X303000000Y-128350520D03*
D14*
X311943750Y-133350000D03*
D15*
X317023750Y-133350000D03*
X306863750Y-133350000D03*
D16*
X314943297Y-137349954D02*
X315754203Y-135890046D01*
X309404026Y-138429328D02*
X309443474Y-137850672D01*
D17*
X313213750Y-128270000D03*
D18*
X310673750Y-128270000D03*
D12*
X231508790Y-138510520D03*
D13*
X231508790Y-128350520D03*
D14*
X240506250Y-133350000D03*
D15*
X245586250Y-133350000D03*
X235426250Y-133350000D03*
D16*
X243505797Y-137349954D02*
X244316703Y-135890046D01*
X237966526Y-138429328D02*
X238005974Y-137850672D01*
D17*
X241776250Y-128270000D03*
D18*
X239236250Y-128270000D03*
D12*
X160071290Y-138510520D03*
D13*
X160071290Y-128350520D03*
D14*
X169068750Y-133350000D03*
D15*
X174148750Y-133350000D03*
X163988750Y-133350000D03*
D16*
X172068297Y-137349954D02*
X172879203Y-135890046D01*
X166529026Y-138429328D02*
X166568474Y-137850672D01*
D17*
X170338750Y-128270000D03*
D18*
X167798750Y-128270000D03*
D12*
X136258790Y-138510520D03*
D13*
X136258790Y-128350520D03*
D14*
X145256250Y-133350000D03*
D15*
X150336250Y-133350000D03*
X140176250Y-133350000D03*
D16*
X148255797Y-137349954D02*
X149066703Y-135890046D01*
X142716526Y-138429328D02*
X142755974Y-137850672D01*
D17*
X146526250Y-128270000D03*
D18*
X143986250Y-128270000D03*
D12*
X112446290Y-138510520D03*
D13*
X112446290Y-128350520D03*
D14*
X121443750Y-133350000D03*
D15*
X126523750Y-133350000D03*
X116363750Y-133350000D03*
D16*
X124443297Y-137349954D02*
X125254203Y-135890046D01*
X118904026Y-138429328D02*
X118943474Y-137850672D01*
D17*
X122713750Y-128270000D03*
D18*
X120173750Y-128270000D03*
D12*
X71000000Y-125000000D03*
D13*
X81160000Y-125000000D03*
D14*
X76200000Y-133350000D03*
D15*
X81280000Y-133350000D03*
X71120000Y-133350000D03*
D16*
X79199547Y-137349954D02*
X80010453Y-135890046D01*
X73660276Y-138429328D02*
X73699724Y-137850672D01*
D17*
X77470000Y-128270000D03*
D18*
X74930000Y-128270000D03*
D12*
X38627540Y-138510520D03*
D13*
X38627540Y-128350520D03*
D14*
X47625000Y-133350000D03*
D15*
X52705000Y-133350000D03*
X42545000Y-133350000D03*
D16*
X50624547Y-137349954D02*
X51435453Y-135890046D01*
X45085276Y-138429328D02*
X45124724Y-137850672D01*
D17*
X48895000Y-128270000D03*
D18*
X46355000Y-128270000D03*
D12*
X400577540Y-119460520D03*
D13*
X400577540Y-109300520D03*
D14*
X409575000Y-114300000D03*
D15*
X414655000Y-114300000D03*
X404495000Y-114300000D03*
D16*
X412574547Y-118299954D02*
X413385453Y-116840046D01*
X407035276Y-119379328D02*
X407074724Y-118800672D01*
D17*
X410845000Y-109220000D03*
D18*
X408305000Y-109220000D03*
D12*
X360096290Y-119460520D03*
D13*
X360096290Y-109300520D03*
D14*
X369093750Y-114300000D03*
D15*
X374173750Y-114300000D03*
X364013750Y-114300000D03*
D16*
X372093297Y-118299954D02*
X372904203Y-116840046D01*
X366554026Y-119379328D02*
X366593474Y-118800672D01*
D17*
X370363750Y-109220000D03*
D18*
X367823750Y-109220000D03*
D12*
X324377540Y-119460520D03*
D13*
X324377540Y-109300520D03*
D14*
X333375000Y-114300000D03*
D15*
X338455000Y-114300000D03*
X328295000Y-114300000D03*
D16*
X336374547Y-118299954D02*
X337185453Y-116840046D01*
X330835276Y-119379328D02*
X330874724Y-118800672D01*
D17*
X334645000Y-109220000D03*
D18*
X332105000Y-109220000D03*
D12*
X305327540Y-119460520D03*
D13*
X305327540Y-109300520D03*
D14*
X314325000Y-114300000D03*
D15*
X319405000Y-114300000D03*
X309245000Y-114300000D03*
D16*
X317324547Y-118299954D02*
X318135453Y-116840046D01*
X311785276Y-119379328D02*
X311824724Y-118800672D01*
D17*
X315595000Y-109220000D03*
D18*
X313055000Y-109220000D03*
D14*
X295275000Y-114300000D03*
D15*
X300355000Y-114300000D03*
X290195000Y-114300000D03*
D16*
X298274547Y-118299954D02*
X299085453Y-116840046D01*
X292735276Y-119379328D02*
X292774724Y-118800672D01*
D17*
X296545000Y-109220000D03*
D18*
X294005000Y-109220000D03*
D12*
X267227540Y-119460520D03*
D13*
X267227540Y-109300520D03*
D14*
X276225000Y-114300000D03*
D15*
X281305000Y-114300000D03*
X271145000Y-114300000D03*
D16*
X279224547Y-118299954D02*
X280035453Y-116840046D01*
X273685276Y-119379328D02*
X273724724Y-118800672D01*
D17*
X277495000Y-109220000D03*
D18*
X274955000Y-109220000D03*
D12*
X248177540Y-119460520D03*
D13*
X248177540Y-109300520D03*
D14*
X257175000Y-114300000D03*
D15*
X262255000Y-114300000D03*
X252095000Y-114300000D03*
D16*
X260174547Y-118299954D02*
X260985453Y-116840046D01*
X254635276Y-119379328D02*
X254674724Y-118800672D01*
D17*
X258445000Y-109220000D03*
D18*
X255905000Y-109220000D03*
D12*
X229127540Y-119460520D03*
D13*
X229127540Y-109300520D03*
D14*
X238125000Y-114300000D03*
D15*
X243205000Y-114300000D03*
X233045000Y-114300000D03*
D16*
X241124547Y-118299954D02*
X241935453Y-116840046D01*
X235585276Y-119379328D02*
X235624724Y-118800672D01*
D17*
X239395000Y-109220000D03*
D18*
X236855000Y-109220000D03*
D12*
X210077540Y-119460520D03*
D13*
X210077540Y-109300520D03*
D14*
X219075000Y-114300000D03*
D15*
X224155000Y-114300000D03*
X213995000Y-114300000D03*
D16*
X222074547Y-118299954D02*
X222885453Y-116840046D01*
X216535276Y-119379328D02*
X216574724Y-118800672D01*
D17*
X220345000Y-109220000D03*
D18*
X217805000Y-109220000D03*
D12*
X191027540Y-119460520D03*
D13*
X191027540Y-109300520D03*
D14*
X200025000Y-114300000D03*
D15*
X205105000Y-114300000D03*
X194945000Y-114300000D03*
D16*
X203024547Y-118299954D02*
X203835453Y-116840046D01*
X197485276Y-119379328D02*
X197524724Y-118800672D01*
D17*
X201295000Y-109220000D03*
D18*
X198755000Y-109220000D03*
D12*
X171977540Y-119460520D03*
D13*
X171977540Y-109300520D03*
D14*
X180975000Y-114300000D03*
D15*
X186055000Y-114300000D03*
X175895000Y-114300000D03*
D16*
X183974547Y-118299954D02*
X184785453Y-116840046D01*
X178435276Y-119379328D02*
X178474724Y-118800672D01*
D17*
X182245000Y-109220000D03*
D18*
X179705000Y-109220000D03*
D12*
X152927540Y-119460520D03*
D13*
X152927540Y-109300520D03*
D14*
X161925000Y-114300000D03*
D15*
X167005000Y-114300000D03*
X156845000Y-114300000D03*
D16*
X164924547Y-118299954D02*
X165735453Y-116840046D01*
X159385276Y-119379328D02*
X159424724Y-118800672D01*
D17*
X163195000Y-109220000D03*
D18*
X160655000Y-109220000D03*
D12*
X121971290Y-119460520D03*
D13*
X121971290Y-109300520D03*
D14*
X130968750Y-114300000D03*
D15*
X136048750Y-114300000D03*
X125888750Y-114300000D03*
D16*
X133968297Y-118299954D02*
X134779203Y-116840046D01*
X128429026Y-119379328D02*
X128468474Y-118800672D01*
D17*
X132238750Y-109220000D03*
D18*
X129698750Y-109220000D03*
D12*
X86252540Y-128985520D03*
D13*
X86252540Y-118825520D03*
D14*
X95250000Y-123825000D03*
D15*
X100330000Y-123825000D03*
X90170000Y-123825000D03*
D16*
X98249547Y-127824954D02*
X99060453Y-126365046D01*
X92710276Y-128904328D02*
X92749724Y-128325672D01*
D17*
X96520000Y-118745000D03*
D18*
X93980000Y-118745000D03*
D12*
X67202540Y-119460520D03*
D13*
X67202540Y-109300520D03*
D14*
X76200000Y-114300000D03*
D15*
X81280000Y-114300000D03*
X71120000Y-114300000D03*
D16*
X79199547Y-118299954D02*
X80010453Y-116840046D01*
X73660276Y-119379328D02*
X73699724Y-118800672D01*
D17*
X77470000Y-109220000D03*
D18*
X74930000Y-109220000D03*
D12*
X48152540Y-119460520D03*
D13*
X48152540Y-109300520D03*
D14*
X57150000Y-114300000D03*
D15*
X62230000Y-114300000D03*
X52070000Y-114300000D03*
D16*
X60149547Y-118299954D02*
X60960453Y-116840046D01*
X54610276Y-119379328D02*
X54649724Y-118800672D01*
D17*
X58420000Y-109220000D03*
D18*
X55880000Y-109220000D03*
D12*
X33655000Y-122555000D03*
D13*
X43815000Y-122555000D03*
D14*
X38100000Y-114300000D03*
D15*
X43180000Y-114300000D03*
X33020000Y-114300000D03*
D16*
X41099547Y-118299954D02*
X41910453Y-116840046D01*
X35560276Y-119379328D02*
X35599724Y-118800672D01*
D17*
X39370000Y-109220000D03*
D18*
X36830000Y-109220000D03*
D12*
X364858790Y-100410520D03*
D13*
X364858790Y-90250520D03*
D14*
X373856250Y-95250000D03*
D15*
X378936250Y-95250000D03*
X368776250Y-95250000D03*
D16*
X376855797Y-99249954D02*
X377666703Y-97790046D01*
X371316526Y-100329328D02*
X371355974Y-99750672D01*
D17*
X375126250Y-90170000D03*
D18*
X372586250Y-90170000D03*
D12*
X333902540Y-100410520D03*
D13*
X333902540Y-90250520D03*
D14*
X342900000Y-95250000D03*
D15*
X347980000Y-95250000D03*
X337820000Y-95250000D03*
D16*
X345899547Y-99249954D02*
X346710453Y-97790046D01*
X340360276Y-100329328D02*
X340399724Y-99750672D01*
D17*
X344170000Y-90170000D03*
D18*
X341630000Y-90170000D03*
D12*
X314852540Y-100410520D03*
D13*
X314852540Y-90250520D03*
D14*
X323850000Y-95250000D03*
D15*
X328930000Y-95250000D03*
X318770000Y-95250000D03*
D16*
X326849547Y-99249954D02*
X327660453Y-97790046D01*
X321310276Y-100329328D02*
X321349724Y-99750672D01*
D17*
X325120000Y-90170000D03*
D18*
X322580000Y-90170000D03*
D12*
X295802540Y-100410520D03*
D13*
X295802540Y-90250520D03*
D14*
X304800000Y-95250000D03*
D15*
X309880000Y-95250000D03*
X299720000Y-95250000D03*
D16*
X307799547Y-99249954D02*
X308610453Y-97790046D01*
X302260276Y-100329328D02*
X302299724Y-99750672D01*
D17*
X306070000Y-90170000D03*
D18*
X303530000Y-90170000D03*
D12*
X276752540Y-100410520D03*
D13*
X276752540Y-90250520D03*
D14*
X285750000Y-95250000D03*
D15*
X290830000Y-95250000D03*
X280670000Y-95250000D03*
D16*
X288749547Y-99249954D02*
X289560453Y-97790046D01*
X283210276Y-100329328D02*
X283249724Y-99750672D01*
D17*
X287020000Y-90170000D03*
D18*
X284480000Y-90170000D03*
D12*
X257702540Y-100410520D03*
D13*
X257702540Y-90250520D03*
D14*
X266700000Y-95250000D03*
D15*
X271780000Y-95250000D03*
X261620000Y-95250000D03*
D16*
X269699547Y-99249954D02*
X270510453Y-97790046D01*
X264160276Y-100329328D02*
X264199724Y-99750672D01*
D17*
X267970000Y-90170000D03*
D18*
X265430000Y-90170000D03*
D12*
X238652540Y-100410520D03*
D13*
X238652540Y-90250520D03*
D14*
X247650000Y-95250000D03*
D15*
X252730000Y-95250000D03*
X242570000Y-95250000D03*
D16*
X250649547Y-99249954D02*
X251460453Y-97790046D01*
X245110276Y-100329328D02*
X245149724Y-99750672D01*
D17*
X248920000Y-90170000D03*
D18*
X246380000Y-90170000D03*
D12*
X219602540Y-100410520D03*
D13*
X219602540Y-90250520D03*
D14*
X228600000Y-95250000D03*
D15*
X233680000Y-95250000D03*
X223520000Y-95250000D03*
D16*
X231599547Y-99249954D02*
X232410453Y-97790046D01*
X226060276Y-100329328D02*
X226099724Y-99750672D01*
D17*
X229870000Y-90170000D03*
D18*
X227330000Y-90170000D03*
D12*
X200552540Y-100410520D03*
D13*
X200552540Y-90250520D03*
D14*
X209550000Y-95250000D03*
D15*
X214630000Y-95250000D03*
X204470000Y-95250000D03*
D16*
X212549547Y-99249954D02*
X213360453Y-97790046D01*
X207010276Y-100329328D02*
X207049724Y-99750672D01*
D17*
X210820000Y-90170000D03*
D18*
X208280000Y-90170000D03*
D12*
X181502540Y-100410520D03*
D13*
X181502540Y-90250520D03*
D14*
X190500000Y-95250000D03*
D15*
X195580000Y-95250000D03*
X185420000Y-95250000D03*
D16*
X193499547Y-99249954D02*
X194310453Y-97790046D01*
X187960276Y-100329328D02*
X187999724Y-99750672D01*
D17*
X191770000Y-90170000D03*
D18*
X189230000Y-90170000D03*
D12*
X162452540Y-100410520D03*
D13*
X162452540Y-90250520D03*
D14*
X171450000Y-95250000D03*
D15*
X176530000Y-95250000D03*
X166370000Y-95250000D03*
D16*
X174449547Y-99249954D02*
X175260453Y-97790046D01*
X168910276Y-100329328D02*
X168949724Y-99750672D01*
D17*
X172720000Y-90170000D03*
D18*
X170180000Y-90170000D03*
D12*
X143402540Y-100410520D03*
D13*
X143402540Y-90250520D03*
D14*
X152400000Y-95250000D03*
D15*
X157480000Y-95250000D03*
X147320000Y-95250000D03*
D16*
X155399547Y-99249954D02*
X156210453Y-97790046D01*
X149860276Y-100329328D02*
X149899724Y-99750672D01*
D17*
X153670000Y-90170000D03*
D18*
X151130000Y-90170000D03*
D12*
X117208790Y-100410520D03*
D13*
X117208790Y-90250520D03*
D14*
X126206250Y-95250000D03*
D15*
X131286250Y-95250000D03*
X121126250Y-95250000D03*
D16*
X129205797Y-99249954D02*
X130016703Y-97790046D01*
X123666526Y-100329328D02*
X123705974Y-99750672D01*
D17*
X127476250Y-90170000D03*
D18*
X124936250Y-90170000D03*
D12*
X67202540Y-100410520D03*
D13*
X67202540Y-90250520D03*
D14*
X76200000Y-95250000D03*
D15*
X81280000Y-95250000D03*
X71120000Y-95250000D03*
D16*
X79199547Y-99249954D02*
X80010453Y-97790046D01*
X73660276Y-100329328D02*
X73699724Y-99750672D01*
D17*
X77470000Y-90170000D03*
D18*
X74930000Y-90170000D03*
D12*
X48152540Y-100410520D03*
D13*
X48152540Y-90250520D03*
D14*
X57150000Y-95250000D03*
D15*
X62230000Y-95250000D03*
X52070000Y-95250000D03*
D16*
X60149547Y-99249954D02*
X60960453Y-97790046D01*
X54610276Y-100329328D02*
X54649724Y-99750672D01*
D17*
X58420000Y-90170000D03*
D18*
X55880000Y-90170000D03*
D12*
X33020000Y-103505000D03*
D13*
X43180000Y-103505000D03*
D14*
X38100000Y-95250000D03*
D15*
X43180000Y-95250000D03*
X33020000Y-95250000D03*
D16*
X41099547Y-99249954D02*
X41910453Y-97790046D01*
X35560276Y-100329328D02*
X35599724Y-99750672D01*
D17*
X39370000Y-90170000D03*
D18*
X36830000Y-90170000D03*
D12*
X419627540Y-81360520D03*
D13*
X419627540Y-71200520D03*
D14*
X428625000Y-76200000D03*
D15*
X433705000Y-76200000D03*
X423545000Y-76200000D03*
D16*
X431624547Y-80199954D02*
X432435453Y-78740046D01*
X426085276Y-81279328D02*
X426124724Y-80700672D01*
D17*
X429895000Y-71120000D03*
D18*
X427355000Y-71120000D03*
D12*
X400577540Y-81360520D03*
D13*
X400577540Y-71200520D03*
D14*
X409575000Y-76200000D03*
D15*
X414655000Y-76200000D03*
X404495000Y-76200000D03*
D16*
X412574547Y-80199954D02*
X413385453Y-78740046D01*
X407035276Y-81279328D02*
X407074724Y-80700672D01*
D17*
X410845000Y-71120000D03*
D18*
X408305000Y-71120000D03*
D12*
X372002540Y-81360520D03*
D13*
X372002540Y-71200520D03*
D14*
X381000000Y-76200000D03*
D15*
X386080000Y-76200000D03*
X375920000Y-76200000D03*
D16*
X383999547Y-80199954D02*
X384810453Y-78740046D01*
X378460276Y-81279328D02*
X378499724Y-80700672D01*
D17*
X382270000Y-71120000D03*
D18*
X379730000Y-71120000D03*
D12*
X348190040Y-81360520D03*
D13*
X348190040Y-71200520D03*
D14*
X357187500Y-76200000D03*
D15*
X362267500Y-76200000D03*
X352107500Y-76200000D03*
D16*
X360187047Y-80199954D02*
X360997953Y-78740046D01*
X354647776Y-81279328D02*
X354687224Y-80700672D01*
D17*
X358457500Y-71120000D03*
D18*
X355917500Y-71120000D03*
D12*
X329140040Y-81360520D03*
D13*
X329140040Y-71200520D03*
D14*
X338137500Y-76200000D03*
D15*
X343217500Y-76200000D03*
X333057500Y-76200000D03*
D16*
X341137047Y-80199954D02*
X341947953Y-78740046D01*
X335597776Y-81279328D02*
X335637224Y-80700672D01*
D17*
X339407500Y-71120000D03*
D18*
X336867500Y-71120000D03*
D12*
X310090040Y-81360520D03*
D13*
X310090040Y-71200520D03*
D14*
X319087500Y-76200000D03*
D15*
X324167500Y-76200000D03*
X314007500Y-76200000D03*
D16*
X322087047Y-80199954D02*
X322897953Y-78740046D01*
X316547776Y-81279328D02*
X316587224Y-80700672D01*
D17*
X320357500Y-71120000D03*
D18*
X317817500Y-71120000D03*
D12*
X291040040Y-81360520D03*
D13*
X291040040Y-71200520D03*
D14*
X300037500Y-76200000D03*
D15*
X305117500Y-76200000D03*
X294957500Y-76200000D03*
D16*
X303037047Y-80199954D02*
X303847953Y-78740046D01*
X297497776Y-81279328D02*
X297537224Y-80700672D01*
D17*
X301307500Y-71120000D03*
D18*
X298767500Y-71120000D03*
D12*
X271990040Y-81360520D03*
D13*
X271990040Y-71200520D03*
D14*
X280987500Y-76200000D03*
D15*
X286067500Y-76200000D03*
X275907500Y-76200000D03*
D16*
X283987047Y-80199954D02*
X284797953Y-78740046D01*
X278447776Y-81279328D02*
X278487224Y-80700672D01*
D17*
X282257500Y-71120000D03*
D18*
X279717500Y-71120000D03*
D12*
X252940040Y-81360520D03*
D13*
X252940040Y-71200520D03*
D14*
X261937500Y-76200000D03*
D15*
X267017500Y-76200000D03*
X256857500Y-76200000D03*
D16*
X264937047Y-80199954D02*
X265747953Y-78740046D01*
X259397776Y-81279328D02*
X259437224Y-80700672D01*
D17*
X263207500Y-71120000D03*
D18*
X260667500Y-71120000D03*
D12*
X233890040Y-81360520D03*
D13*
X233890040Y-71200520D03*
D14*
X242887500Y-76200000D03*
D15*
X247967500Y-76200000D03*
X237807500Y-76200000D03*
D16*
X245887047Y-80199954D02*
X246697953Y-78740046D01*
X240347776Y-81279328D02*
X240387224Y-80700672D01*
D17*
X244157500Y-71120000D03*
D18*
X241617500Y-71120000D03*
D12*
X214840040Y-81360520D03*
D13*
X214840040Y-71200520D03*
D14*
X223837500Y-76200000D03*
D15*
X228917500Y-76200000D03*
X218757500Y-76200000D03*
D16*
X226837047Y-80199954D02*
X227647953Y-78740046D01*
X221297776Y-81279328D02*
X221337224Y-80700672D01*
D17*
X225107500Y-71120000D03*
D18*
X222567500Y-71120000D03*
D12*
X195790040Y-81360520D03*
D13*
X195790040Y-71200520D03*
D14*
X204787500Y-76200000D03*
D15*
X209867500Y-76200000D03*
X199707500Y-76200000D03*
D16*
X207787047Y-80199954D02*
X208597953Y-78740046D01*
X202247776Y-81279328D02*
X202287224Y-80700672D01*
D17*
X206057500Y-71120000D03*
D18*
X203517500Y-71120000D03*
D12*
X176740040Y-81360520D03*
D13*
X176740040Y-71200520D03*
D14*
X185737500Y-76200000D03*
D15*
X190817500Y-76200000D03*
X180657500Y-76200000D03*
D16*
X188737047Y-80199954D02*
X189547953Y-78740046D01*
X183197776Y-81279328D02*
X183237224Y-80700672D01*
D17*
X187007500Y-71120000D03*
D18*
X184467500Y-71120000D03*
D12*
X157690040Y-81360520D03*
D13*
X157690040Y-71200520D03*
D14*
X166687500Y-76200000D03*
D15*
X171767500Y-76200000D03*
X161607500Y-76200000D03*
D16*
X169687047Y-80199954D02*
X170497953Y-78740046D01*
X164147776Y-81279328D02*
X164187224Y-80700672D01*
D17*
X167957500Y-71120000D03*
D18*
X165417500Y-71120000D03*
D12*
X138640040Y-81360520D03*
D13*
X138640040Y-71200520D03*
D14*
X147637500Y-76200000D03*
D15*
X152717500Y-76200000D03*
X142557500Y-76200000D03*
D16*
X150637047Y-80199954D02*
X151447953Y-78740046D01*
X145097776Y-81279328D02*
X145137224Y-80700672D01*
D17*
X148907500Y-71120000D03*
D18*
X146367500Y-71120000D03*
D12*
X114827540Y-81360520D03*
D13*
X114827540Y-71200520D03*
D14*
X123825000Y-76200000D03*
D15*
X128905000Y-76200000D03*
X118745000Y-76200000D03*
D16*
X126824547Y-80199954D02*
X127635453Y-78740046D01*
X121285276Y-81279328D02*
X121324724Y-80700672D01*
D17*
X125095000Y-71120000D03*
D18*
X122555000Y-71120000D03*
D12*
X86252540Y-90885520D03*
D13*
X86252540Y-80725520D03*
D14*
X95250000Y-85725000D03*
D15*
X100330000Y-85725000D03*
X90170000Y-85725000D03*
D16*
X98249547Y-89724954D02*
X99060453Y-88265046D01*
X92710276Y-90804328D02*
X92749724Y-90225672D01*
D17*
X96520000Y-80645000D03*
D18*
X93980000Y-80645000D03*
D12*
X67202540Y-81360520D03*
D13*
X67202540Y-71200520D03*
D14*
X76200000Y-76200000D03*
D15*
X81280000Y-76200000D03*
X71120000Y-76200000D03*
D16*
X79199547Y-80199954D02*
X80010453Y-78740046D01*
X73660276Y-81279328D02*
X73699724Y-80700672D01*
D17*
X77470000Y-71120000D03*
D18*
X74930000Y-71120000D03*
D12*
X48152540Y-81360520D03*
D13*
X48152540Y-71200520D03*
D14*
X57150000Y-76200000D03*
D15*
X62230000Y-76200000D03*
X52070000Y-76200000D03*
D16*
X60149547Y-80199954D02*
X60960453Y-78740046D01*
X54610276Y-81279328D02*
X54649724Y-80700672D01*
D17*
X58420000Y-71120000D03*
D18*
X55880000Y-71120000D03*
D12*
X33020000Y-84455000D03*
D13*
X43180000Y-84455000D03*
D14*
X38100000Y-76200000D03*
D15*
X43180000Y-76200000D03*
X33020000Y-76200000D03*
D16*
X41099547Y-80199954D02*
X41910453Y-78740046D01*
X35560276Y-81279328D02*
X35599724Y-80700672D01*
D17*
X39370000Y-71120000D03*
D18*
X36830000Y-71120000D03*
D12*
X419627540Y-62310520D03*
D13*
X419627540Y-52150520D03*
D14*
X428625000Y-57150000D03*
D15*
X433705000Y-57150000D03*
X423545000Y-57150000D03*
D16*
X431624547Y-61149954D02*
X432435453Y-59690046D01*
X426085276Y-62229328D02*
X426124724Y-61650672D01*
D17*
X429895000Y-52070000D03*
D18*
X427355000Y-52070000D03*
D12*
X400577540Y-62310520D03*
D13*
X400577540Y-52150520D03*
D14*
X409575000Y-57150000D03*
D15*
X414655000Y-57150000D03*
X404495000Y-57150000D03*
D16*
X412574547Y-61149954D02*
X413385453Y-59690046D01*
X407035276Y-62229328D02*
X407074724Y-61650672D01*
D17*
X410845000Y-52070000D03*
D18*
X408305000Y-52070000D03*
D12*
X367240040Y-62310520D03*
D13*
X367240040Y-52150520D03*
D14*
X376237500Y-57150000D03*
D15*
X381317500Y-57150000D03*
X371157500Y-57150000D03*
D16*
X379237047Y-61149954D02*
X380047953Y-59690046D01*
X373697776Y-62229328D02*
X373737224Y-61650672D01*
D17*
X377507500Y-52070000D03*
D18*
X374967500Y-52070000D03*
D12*
X338665040Y-62310520D03*
D13*
X338665040Y-52150520D03*
D14*
X347662500Y-57150000D03*
D15*
X352742500Y-57150000D03*
X342582500Y-57150000D03*
D16*
X350662047Y-61149954D02*
X351472953Y-59690046D01*
X345122776Y-62229328D02*
X345162224Y-61650672D01*
D17*
X348932500Y-52070000D03*
D18*
X346392500Y-52070000D03*
D12*
X319615040Y-62310520D03*
D13*
X319615040Y-52150520D03*
D14*
X328612500Y-57150000D03*
D15*
X333692500Y-57150000D03*
X323532500Y-57150000D03*
D16*
X331612047Y-61149954D02*
X332422953Y-59690046D01*
X326072776Y-62229328D02*
X326112224Y-61650672D01*
D17*
X329882500Y-52070000D03*
D18*
X327342500Y-52070000D03*
D12*
X300565040Y-62310520D03*
D13*
X300565040Y-52150520D03*
D14*
X309562500Y-57150000D03*
D15*
X314642500Y-57150000D03*
X304482500Y-57150000D03*
D16*
X312562047Y-61149954D02*
X313372953Y-59690046D01*
X307022776Y-62229328D02*
X307062224Y-61650672D01*
D17*
X310832500Y-52070000D03*
D18*
X308292500Y-52070000D03*
D12*
X281515040Y-62310520D03*
D13*
X281515040Y-52150520D03*
D14*
X290512500Y-57150000D03*
D15*
X295592500Y-57150000D03*
X285432500Y-57150000D03*
D16*
X293512047Y-61149954D02*
X294322953Y-59690046D01*
X287972776Y-62229328D02*
X288012224Y-61650672D01*
D17*
X291782500Y-52070000D03*
D18*
X289242500Y-52070000D03*
D12*
X262465040Y-62310520D03*
D13*
X262465040Y-52150520D03*
D14*
X271462500Y-57150000D03*
D15*
X276542500Y-57150000D03*
X266382500Y-57150000D03*
D16*
X274462047Y-61149954D02*
X275272953Y-59690046D01*
X268922776Y-62229328D02*
X268962224Y-61650672D01*
D17*
X272732500Y-52070000D03*
D18*
X270192500Y-52070000D03*
D12*
X243415040Y-62310520D03*
D13*
X243415040Y-52150520D03*
D14*
X252412500Y-57150000D03*
D15*
X257492500Y-57150000D03*
X247332500Y-57150000D03*
D16*
X255412047Y-61149954D02*
X256222953Y-59690046D01*
X249872776Y-62229328D02*
X249912224Y-61650672D01*
D17*
X253682500Y-52070000D03*
D18*
X251142500Y-52070000D03*
D12*
X224365040Y-62310520D03*
D13*
X224365040Y-52150520D03*
D14*
X233362500Y-57150000D03*
D15*
X238442500Y-57150000D03*
X228282500Y-57150000D03*
D16*
X236362047Y-61149954D02*
X237172953Y-59690046D01*
X230822776Y-62229328D02*
X230862224Y-61650672D01*
D17*
X234632500Y-52070000D03*
D18*
X232092500Y-52070000D03*
D12*
X205315040Y-62310520D03*
D13*
X205315040Y-52150520D03*
D14*
X214312500Y-57150000D03*
D15*
X219392500Y-57150000D03*
X209232500Y-57150000D03*
D16*
X217312047Y-61149954D02*
X218122953Y-59690046D01*
X211772776Y-62229328D02*
X211812224Y-61650672D01*
D17*
X215582500Y-52070000D03*
D18*
X213042500Y-52070000D03*
D12*
X186265040Y-62310520D03*
D13*
X186265040Y-52150520D03*
D14*
X195262500Y-57150000D03*
D15*
X200342500Y-57150000D03*
X190182500Y-57150000D03*
D16*
X198262047Y-61149954D02*
X199072953Y-59690046D01*
X192722776Y-62229328D02*
X192762224Y-61650672D01*
D17*
X196532500Y-52070000D03*
D18*
X193992500Y-52070000D03*
D12*
X167215040Y-62310520D03*
D13*
X167215040Y-52150520D03*
D14*
X176212500Y-57150000D03*
D15*
X181292500Y-57150000D03*
X171132500Y-57150000D03*
D16*
X179212047Y-61149954D02*
X180022953Y-59690046D01*
X173672776Y-62229328D02*
X173712224Y-61650672D01*
D17*
X177482500Y-52070000D03*
D18*
X174942500Y-52070000D03*
D12*
X148165040Y-62310520D03*
D13*
X148165040Y-52150520D03*
D14*
X157162500Y-57150000D03*
D15*
X162242500Y-57150000D03*
X152082500Y-57150000D03*
D16*
X160162047Y-61149954D02*
X160972953Y-59690046D01*
X154622776Y-62229328D02*
X154662224Y-61650672D01*
D17*
X158432500Y-52070000D03*
D18*
X155892500Y-52070000D03*
D12*
X129115040Y-62310520D03*
D13*
X129115040Y-52150520D03*
D14*
X138112500Y-57150000D03*
D15*
X143192500Y-57150000D03*
X133032500Y-57150000D03*
D16*
X141112047Y-61149954D02*
X141922953Y-59690046D01*
X135572776Y-62229328D02*
X135612224Y-61650672D01*
D17*
X139382500Y-52070000D03*
D18*
X136842500Y-52070000D03*
D12*
X110065040Y-62310520D03*
D13*
X110065040Y-52150520D03*
D14*
X119062500Y-57150000D03*
D15*
X124142500Y-57150000D03*
X113982500Y-57150000D03*
D16*
X122062047Y-61149954D02*
X122872953Y-59690046D01*
X116522776Y-62229328D02*
X116562224Y-61650672D01*
D17*
X120332500Y-52070000D03*
D18*
X117792500Y-52070000D03*
D12*
X86252540Y-62310520D03*
D13*
X86252540Y-52150520D03*
D14*
X95250000Y-57150000D03*
D15*
X100330000Y-57150000D03*
X90170000Y-57150000D03*
D16*
X98249547Y-61149954D02*
X99060453Y-59690046D01*
X92710276Y-62229328D02*
X92749724Y-61650672D01*
D17*
X96520000Y-52070000D03*
D18*
X93980000Y-52070000D03*
D12*
X67202540Y-62310520D03*
D13*
X67202540Y-52150520D03*
D14*
X76200000Y-57150000D03*
D15*
X81280000Y-57150000D03*
X71120000Y-57150000D03*
D16*
X79199547Y-61149954D02*
X80010453Y-59690046D01*
X73660276Y-62229328D02*
X73699724Y-61650672D01*
D17*
X77470000Y-52070000D03*
D18*
X74930000Y-52070000D03*
D12*
X48152540Y-62310520D03*
D13*
X48152540Y-52150520D03*
D14*
X57150000Y-57150000D03*
D15*
X62230000Y-57150000D03*
X52070000Y-57150000D03*
D16*
X60149547Y-61149954D02*
X60960453Y-59690046D01*
X54610276Y-62229328D02*
X54649724Y-61650672D01*
D17*
X58420000Y-52070000D03*
D18*
X55880000Y-52070000D03*
D12*
X33020000Y-65405000D03*
D13*
X43180000Y-65405000D03*
D14*
X38100000Y-57150000D03*
D15*
X43180000Y-57150000D03*
X33020000Y-57150000D03*
D16*
X41099547Y-61149954D02*
X41910453Y-59690046D01*
X35560276Y-62229328D02*
X35599724Y-61650672D01*
D17*
X39370000Y-52070000D03*
D18*
X36830000Y-52070000D03*
D12*
X419627540Y-33735520D03*
D13*
X419627540Y-23575520D03*
D14*
X428625000Y-28575000D03*
D15*
X433705000Y-28575000D03*
X423545000Y-28575000D03*
D16*
X431624547Y-32574954D02*
X432435453Y-31115046D01*
X426085276Y-33654328D02*
X426124724Y-33075672D01*
D17*
X429895000Y-23495000D03*
D18*
X427355000Y-23495000D03*
D12*
X400577540Y-33735520D03*
D13*
X400577540Y-23575520D03*
D14*
X409575000Y-28575000D03*
D15*
X414655000Y-28575000D03*
X404495000Y-28575000D03*
D16*
X412574547Y-32574954D02*
X413385453Y-31115046D01*
X407035276Y-33654328D02*
X407074724Y-33075672D01*
D17*
X410845000Y-23495000D03*
D18*
X408305000Y-23495000D03*
D12*
X376765040Y-33735520D03*
D13*
X376765040Y-23575520D03*
D14*
X385762500Y-28575000D03*
D15*
X390842500Y-28575000D03*
X380682500Y-28575000D03*
D16*
X388762047Y-32574954D02*
X389572953Y-31115046D01*
X383222776Y-33654328D02*
X383262224Y-33075672D01*
D17*
X387032500Y-23495000D03*
D18*
X384492500Y-23495000D03*
D12*
X357715040Y-33735520D03*
D13*
X357715040Y-23575520D03*
D14*
X366712500Y-28575000D03*
D15*
X371792500Y-28575000D03*
X361632500Y-28575000D03*
D16*
X369712047Y-32574954D02*
X370522953Y-31115046D01*
X364172776Y-33654328D02*
X364212224Y-33075672D01*
D17*
X367982500Y-23495000D03*
D18*
X365442500Y-23495000D03*
D12*
X338665040Y-33735520D03*
D13*
X338665040Y-23575520D03*
D14*
X347662500Y-28575000D03*
D15*
X352742500Y-28575000D03*
X342582500Y-28575000D03*
D16*
X350662047Y-32574954D02*
X351472953Y-31115046D01*
X345122776Y-33654328D02*
X345162224Y-33075672D01*
D17*
X348932500Y-23495000D03*
D18*
X346392500Y-23495000D03*
D12*
X319615040Y-33735520D03*
D13*
X319615040Y-23575520D03*
D14*
X328612500Y-28575000D03*
D15*
X333692500Y-28575000D03*
X323532500Y-28575000D03*
D16*
X331612047Y-32574954D02*
X332422953Y-31115046D01*
X326072776Y-33654328D02*
X326112224Y-33075672D01*
D17*
X329882500Y-23495000D03*
D18*
X327342500Y-23495000D03*
D12*
X291040040Y-33735520D03*
D13*
X291040040Y-23575520D03*
D14*
X300037500Y-28575000D03*
D15*
X305117500Y-28575000D03*
X294957500Y-28575000D03*
D16*
X303037047Y-32574954D02*
X303847953Y-31115046D01*
X297497776Y-33654328D02*
X297537224Y-33075672D01*
D17*
X301307500Y-23495000D03*
D18*
X298767500Y-23495000D03*
D12*
X271990040Y-33735520D03*
D13*
X271990040Y-23575520D03*
D14*
X280987500Y-28575000D03*
D15*
X286067500Y-28575000D03*
X275907500Y-28575000D03*
D16*
X283987047Y-32574954D02*
X284797953Y-31115046D01*
X278447776Y-33654328D02*
X278487224Y-33075672D01*
D17*
X282257500Y-23495000D03*
D18*
X279717500Y-23495000D03*
D12*
X252940040Y-33735520D03*
D13*
X252940040Y-23575520D03*
D14*
X261937500Y-28575000D03*
D15*
X267017500Y-28575000D03*
X256857500Y-28575000D03*
D16*
X264937047Y-32574954D02*
X265747953Y-31115046D01*
X259397776Y-33654328D02*
X259437224Y-33075672D01*
D17*
X263207500Y-23495000D03*
D18*
X260667500Y-23495000D03*
D12*
X233890040Y-33735520D03*
D13*
X233890040Y-23575520D03*
D14*
X242887500Y-28575000D03*
D15*
X247967500Y-28575000D03*
X237807500Y-28575000D03*
D16*
X245887047Y-32574954D02*
X246697953Y-31115046D01*
X240347776Y-33654328D02*
X240387224Y-33075672D01*
D17*
X244157500Y-23495000D03*
D18*
X241617500Y-23495000D03*
D12*
X205315040Y-33735520D03*
D13*
X205315040Y-23575520D03*
D14*
X214312500Y-28575000D03*
D15*
X219392500Y-28575000D03*
X209232500Y-28575000D03*
D16*
X217312047Y-32574954D02*
X218122953Y-31115046D01*
X211772776Y-33654328D02*
X211812224Y-33075672D01*
D17*
X215582500Y-23495000D03*
D18*
X213042500Y-23495000D03*
D12*
X186265040Y-33735520D03*
D13*
X186265040Y-23575520D03*
D14*
X195262500Y-28575000D03*
D15*
X200342500Y-28575000D03*
X190182500Y-28575000D03*
D16*
X198262047Y-32574954D02*
X199072953Y-31115046D01*
X192722776Y-33654328D02*
X192762224Y-33075672D01*
D17*
X196532500Y-23495000D03*
D18*
X193992500Y-23495000D03*
D12*
X167215040Y-33735520D03*
D13*
X167215040Y-23575520D03*
D14*
X176212500Y-28575000D03*
D15*
X181292500Y-28575000D03*
X171132500Y-28575000D03*
D16*
X179212047Y-32574954D02*
X180022953Y-31115046D01*
X173672776Y-33654328D02*
X173712224Y-33075672D01*
D17*
X177482500Y-23495000D03*
D18*
X174942500Y-23495000D03*
D12*
X148165040Y-33735520D03*
D13*
X148165040Y-23575520D03*
D14*
X157162500Y-28575000D03*
D15*
X162242500Y-28575000D03*
X152082500Y-28575000D03*
D16*
X160162047Y-32574954D02*
X160972953Y-31115046D01*
X154622776Y-33654328D02*
X154662224Y-33075672D01*
D17*
X158432500Y-23495000D03*
D18*
X155892500Y-23495000D03*
D12*
X110065040Y-33735520D03*
D13*
X110065040Y-23575520D03*
D14*
X119062500Y-28575000D03*
D15*
X124142500Y-28575000D03*
X113982500Y-28575000D03*
D16*
X122062047Y-32574954D02*
X122872953Y-31115046D01*
X116522776Y-33654328D02*
X116562224Y-33075672D01*
D17*
X120332500Y-23495000D03*
D18*
X117792500Y-23495000D03*
D12*
X67202540Y-33735520D03*
D13*
X67202540Y-23575520D03*
D14*
X76200000Y-28575000D03*
D15*
X81280000Y-28575000D03*
X71120000Y-28575000D03*
D16*
X79199547Y-32574954D02*
X80010453Y-31115046D01*
X73660276Y-33654328D02*
X73699724Y-33075672D01*
D17*
X77470000Y-23495000D03*
D18*
X74930000Y-23495000D03*
D12*
X48152540Y-33735520D03*
D13*
X48152540Y-23575520D03*
D14*
X57150000Y-28575000D03*
D15*
X62230000Y-28575000D03*
X52070000Y-28575000D03*
D16*
X60149547Y-32574954D02*
X60960453Y-31115046D01*
X54610276Y-33654328D02*
X54649724Y-33075672D01*
D17*
X58420000Y-23495000D03*
D18*
X55880000Y-23495000D03*
D12*
X33020000Y-36830000D03*
D13*
X43180000Y-36830000D03*
D14*
X38100000Y-28575000D03*
D15*
X43180000Y-28575000D03*
X33020000Y-28575000D03*
D16*
X41099547Y-32574954D02*
X41910453Y-31115046D01*
X35560276Y-33654328D02*
X35599724Y-33075672D01*
D17*
X39370000Y-23495000D03*
D18*
X36830000Y-23495000D03*
D19*
X396680000Y-88000000D03*
X399220000Y-88000000D03*
X401760000Y-88000000D03*
X404300000Y-88000000D03*
X406840000Y-88000000D03*
X409380000Y-88000000D03*
X411920000Y-88000000D03*
X414460000Y-88000000D03*
X417000000Y-88000000D03*
X419540000Y-88000000D03*
X422080000Y-88000000D03*
X424620000Y-88000000D03*
X427160000Y-88000000D03*
X429700000Y-88000000D03*
X429700000Y-103240000D03*
X427160000Y-103240000D03*
X424620000Y-103240000D03*
X422080000Y-103240000D03*
X419540000Y-103240000D03*
X417000000Y-103240000D03*
X414460000Y-103240000D03*
X411920000Y-103240000D03*
X409380000Y-103240000D03*
X406840000Y-103240000D03*
X404300000Y-103240000D03*
X401760000Y-103240000D03*
X399220000Y-103240000D03*
X396680000Y-103240000D03*
D11*
X63500000Y-133350000D03*
X63500000Y-42862500D03*
D20*
X86106000Y-69596000D03*
X402500000Y-22101299D03*
X422000000Y-73000000D03*
X60555000Y-104500000D03*
X415801500Y-46000000D03*
X434500000Y-37500000D03*
X351000000Y-37500000D03*
X294000000Y-37500000D03*
X319500000Y-135500000D03*
X380000000Y-36500000D03*
X434500000Y-39000000D03*
X303500000Y-39500000D03*
X255778000Y-37846000D03*
X417500000Y-25500000D03*
X217678000Y-36576000D03*
X435500000Y-26000000D03*
X332000000Y-37500000D03*
X416500000Y-38500000D03*
X415500000Y-47000000D03*
X98298000Y-133096000D03*
X98552000Y-36322000D03*
X415500000Y-110500000D03*
X336000000Y-105000000D03*
X84948845Y-92445144D03*
X382500000Y-90500000D03*
X326500000Y-126500000D03*
X65024000Y-122682000D03*
X403000000Y-92500000D03*
X362000000Y-125500000D03*
X112268000Y-114046000D03*
X418500000Y-93500000D03*
D21*
X357715040Y-23575520D02*
X358945670Y-23575520D01*
X358945670Y-23575520D02*
X360258851Y-24888701D01*
X360258851Y-24888701D02*
X398033729Y-24888701D01*
X398033729Y-24888701D02*
X399346910Y-23575520D01*
X399346910Y-23575520D02*
X400577540Y-23575520D01*
X319615040Y-23575520D02*
X320845670Y-23575520D01*
X320845670Y-23575520D02*
X322158851Y-24888701D01*
X322158851Y-24888701D02*
X355171229Y-24888701D01*
X355171229Y-24888701D02*
X356484410Y-23575520D01*
X356484410Y-23575520D02*
X357715040Y-23575520D01*
X271990040Y-23575520D02*
X273220670Y-23575520D01*
X273220670Y-23575520D02*
X274533851Y-24888701D01*
X274533851Y-24888701D02*
X317071229Y-24888701D01*
X317071229Y-24888701D02*
X318384410Y-23575520D01*
X318384410Y-23575520D02*
X319615040Y-23575520D01*
X233890040Y-23575520D02*
X235120670Y-23575520D01*
X269446229Y-24888701D02*
X270759410Y-23575520D01*
X235120670Y-23575520D02*
X236433851Y-24888701D01*
X236433851Y-24888701D02*
X269446229Y-24888701D01*
X270759410Y-23575520D02*
X271990040Y-23575520D01*
X186265040Y-23575520D02*
X187495670Y-23575520D01*
X187495670Y-23575520D02*
X188808851Y-24888701D01*
X188808851Y-24888701D02*
X231346229Y-24888701D01*
X231346229Y-24888701D02*
X232659410Y-23575520D01*
X232659410Y-23575520D02*
X233890040Y-23575520D01*
X148165040Y-23575520D02*
X149395670Y-23575520D01*
X150708851Y-24888701D02*
X165357299Y-24888701D01*
X149395670Y-23575520D02*
X150708851Y-24888701D01*
X165357299Y-24888701D02*
X165427149Y-24818851D01*
X165427149Y-24818851D02*
X174237650Y-24818851D01*
X174237650Y-24818851D02*
X174307500Y-24888701D01*
X174307500Y-24888701D02*
X183721229Y-24888701D01*
X183721229Y-24888701D02*
X185034410Y-23575520D01*
X185034410Y-23575520D02*
X186265040Y-23575520D01*
X67202540Y-23575520D02*
X68433170Y-23575520D01*
X68433170Y-23575520D02*
X69746351Y-24888701D01*
X69746351Y-24888701D02*
X145621229Y-24888701D01*
X145621229Y-24888701D02*
X146934410Y-23575520D01*
X146934410Y-23575520D02*
X148165040Y-23575520D01*
X61468000Y-36830000D02*
X67202540Y-31095460D01*
X67202540Y-31095460D02*
X67202540Y-23575520D01*
X43180000Y-36830000D02*
X61468000Y-36830000D01*
X48152540Y-33735520D02*
X54259480Y-33735520D01*
X54259480Y-33735520D02*
X54630000Y-33365000D01*
X67202540Y-33735520D02*
X73309480Y-33735520D01*
X73309480Y-33735520D02*
X73680000Y-33365000D01*
X110065040Y-33735520D02*
X116171980Y-33735520D01*
X116171980Y-33735520D02*
X116542500Y-33365000D01*
X148165040Y-33735520D02*
X154271980Y-33735520D01*
X154271980Y-33735520D02*
X154642500Y-33365000D01*
X167215040Y-33735520D02*
X173321980Y-33735520D01*
X173321980Y-33735520D02*
X173692500Y-33365000D01*
X186265040Y-33735520D02*
X192371980Y-33735520D01*
X192371980Y-33735520D02*
X192742500Y-33365000D01*
X205315040Y-33735520D02*
X211421980Y-33735520D01*
X211421980Y-33735520D02*
X211792500Y-33365000D01*
X233890040Y-33735520D02*
X239996980Y-33735520D01*
X239996980Y-33735520D02*
X240367500Y-33365000D01*
X252940040Y-33735520D02*
X259046980Y-33735520D01*
X259046980Y-33735520D02*
X259417500Y-33365000D01*
X271990040Y-33735520D02*
X278096980Y-33735520D01*
X278096980Y-33735520D02*
X278467500Y-33365000D01*
X291040040Y-33735520D02*
X297146980Y-33735520D01*
X297146980Y-33735520D02*
X297517500Y-33365000D01*
X319615040Y-33735520D02*
X325721980Y-33735520D01*
X325721980Y-33735520D02*
X326092500Y-33365000D01*
X338665040Y-33735520D02*
X344771980Y-33735520D01*
X344771980Y-33735520D02*
X345142500Y-33365000D01*
X357715040Y-33735520D02*
X363821980Y-33735520D01*
X363821980Y-33735520D02*
X364192500Y-33365000D01*
X376765040Y-33735520D02*
X382871980Y-33735520D01*
X382871980Y-33735520D02*
X383242500Y-33365000D01*
X400577540Y-33735520D02*
X406684480Y-33735520D01*
X406684480Y-33735520D02*
X407055000Y-33365000D01*
X329140040Y-71200520D02*
X330370670Y-71200520D01*
X330370670Y-71200520D02*
X331844891Y-69726299D01*
X331844891Y-69726299D02*
X369297689Y-69726299D01*
X369297689Y-69726299D02*
X370771910Y-71200520D01*
X370771910Y-71200520D02*
X372002540Y-71200520D01*
X419627540Y-71200520D02*
X418396910Y-71200520D01*
X418396910Y-71200520D02*
X416696390Y-69500000D01*
X416696390Y-69500000D02*
X374933690Y-69500000D01*
X374933690Y-69500000D02*
X373233170Y-71200520D01*
X373233170Y-71200520D02*
X372002540Y-71200520D01*
X291040040Y-71200520D02*
X292270670Y-71200520D01*
X292270670Y-71200520D02*
X293744891Y-69726299D01*
X293744891Y-69726299D02*
X326435189Y-69726299D01*
X326435189Y-69726299D02*
X327909410Y-71200520D01*
X327909410Y-71200520D02*
X329140040Y-71200520D01*
X252940040Y-71200520D02*
X254170670Y-71200520D01*
X254170670Y-71200520D02*
X255644891Y-69726299D01*
X255644891Y-69726299D02*
X288335189Y-69726299D01*
X289809410Y-71200520D02*
X291040040Y-71200520D01*
X288335189Y-69726299D02*
X289809410Y-71200520D01*
X214840040Y-71200520D02*
X216070670Y-71200520D01*
X250235189Y-69726299D02*
X251709410Y-71200520D01*
X216070670Y-71200520D02*
X217544891Y-69726299D01*
X217544891Y-69726299D02*
X250235189Y-69726299D01*
X251709410Y-71200520D02*
X252940040Y-71200520D01*
X176740040Y-71200520D02*
X177970670Y-71200520D01*
X177970670Y-71200520D02*
X179444891Y-69726299D01*
X179444891Y-69726299D02*
X212135189Y-69726299D01*
X212135189Y-69726299D02*
X213609410Y-71200520D01*
X213609410Y-71200520D02*
X214840040Y-71200520D01*
X138640040Y-71200520D02*
X139870670Y-71200520D01*
X139870670Y-71200520D02*
X141344891Y-69726299D01*
X141344891Y-69726299D02*
X174035189Y-69726299D01*
X174035189Y-69726299D02*
X175509410Y-71200520D01*
X175509410Y-71200520D02*
X176740040Y-71200520D01*
X50987690Y-69596000D02*
X86106000Y-69596000D01*
X86106000Y-69596000D02*
X135804890Y-69596000D01*
X135804890Y-69596000D02*
X137409410Y-71200520D01*
X137409410Y-71200520D02*
X138640040Y-71200520D01*
X48152540Y-71200520D02*
X49383170Y-71200520D01*
X49383170Y-71200520D02*
X50987690Y-69596000D01*
X419627540Y-33735520D02*
X425734480Y-33735520D01*
X425734480Y-33735520D02*
X426105000Y-33365000D01*
X33020000Y-65405000D02*
X35580000Y-62845000D01*
X35580000Y-62845000D02*
X35580000Y-61940000D01*
X379469891Y-22101299D02*
X402500000Y-22101299D01*
X402500000Y-22101299D02*
X416922689Y-22101299D01*
X376765040Y-23575520D02*
X377995670Y-23575520D01*
X377995670Y-23575520D02*
X379469891Y-22101299D01*
X418396910Y-23575520D02*
X419627540Y-23575520D01*
X416922689Y-22101299D02*
X418396910Y-23575520D01*
X338665040Y-23575520D02*
X339895670Y-23575520D01*
X374060189Y-22101299D02*
X375534410Y-23575520D01*
X339895670Y-23575520D02*
X341369891Y-22101299D01*
X341369891Y-22101299D02*
X374060189Y-22101299D01*
X375534410Y-23575520D02*
X376765040Y-23575520D01*
X291040040Y-23575520D02*
X292270670Y-23575520D01*
X292270670Y-23575520D02*
X293744891Y-22101299D01*
X293744891Y-22101299D02*
X335960189Y-22101299D01*
X335960189Y-22101299D02*
X337434410Y-23575520D01*
X337434410Y-23575520D02*
X338665040Y-23575520D01*
X252940040Y-23575520D02*
X254170670Y-23575520D01*
X254170670Y-23575520D02*
X255644891Y-22101299D01*
X255644891Y-22101299D02*
X288335189Y-22101299D01*
X288335189Y-22101299D02*
X289809410Y-23575520D01*
X289809410Y-23575520D02*
X291040040Y-23575520D01*
X205315040Y-23575520D02*
X206545670Y-23575520D01*
X206545670Y-23575520D02*
X208019891Y-22101299D01*
X208019891Y-22101299D02*
X250235189Y-22101299D01*
X250235189Y-22101299D02*
X251709410Y-23575520D01*
X251709410Y-23575520D02*
X252940040Y-23575520D01*
X167215040Y-23575520D02*
X168445670Y-23575520D01*
X168445670Y-23575520D02*
X169919891Y-22101299D01*
X204084410Y-23575520D02*
X205315040Y-23575520D01*
X169919891Y-22101299D02*
X202610189Y-22101299D01*
X202610189Y-22101299D02*
X204084410Y-23575520D01*
X110065040Y-23575520D02*
X111295670Y-23575520D01*
X111295670Y-23575520D02*
X112769891Y-22101299D01*
X112769891Y-22101299D02*
X164510189Y-22101299D01*
X164510189Y-22101299D02*
X165984410Y-23575520D01*
X165984410Y-23575520D02*
X167215040Y-23575520D01*
X48152540Y-23575520D02*
X49383170Y-23575520D01*
X49383170Y-23575520D02*
X50857391Y-22101299D01*
X50857391Y-22101299D02*
X107360189Y-22101299D01*
X107360189Y-22101299D02*
X108834410Y-23575520D01*
X108834410Y-23575520D02*
X110065040Y-23575520D01*
X48152540Y-62310520D02*
X54259480Y-62310520D01*
X54259480Y-62310520D02*
X54630000Y-61940000D01*
X67202540Y-62310520D02*
X73309480Y-62310520D01*
X73309480Y-62310520D02*
X73680000Y-61940000D01*
X86252540Y-62310520D02*
X92359480Y-62310520D01*
X92359480Y-62310520D02*
X92730000Y-61940000D01*
X110065040Y-62310520D02*
X116171980Y-62310520D01*
X116171980Y-62310520D02*
X116542500Y-61940000D01*
X129115040Y-62310520D02*
X135221980Y-62310520D01*
X135221980Y-62310520D02*
X135592500Y-61940000D01*
X148165040Y-62310520D02*
X154271980Y-62310520D01*
X154271980Y-62310520D02*
X154642500Y-61940000D01*
X167215040Y-62310520D02*
X173321980Y-62310520D01*
X173321980Y-62310520D02*
X173692500Y-61940000D01*
X186265040Y-62310520D02*
X192371980Y-62310520D01*
X192371980Y-62310520D02*
X192742500Y-61940000D01*
X205315040Y-62310520D02*
X211421980Y-62310520D01*
X211421980Y-62310520D02*
X211792500Y-61940000D01*
X224365040Y-62310520D02*
X230471980Y-62310520D01*
X230471980Y-62310520D02*
X230842500Y-61940000D01*
X243415040Y-62310520D02*
X249521980Y-62310520D01*
X249521980Y-62310520D02*
X249892500Y-61940000D01*
X262465040Y-62310520D02*
X268571980Y-62310520D01*
X268571980Y-62310520D02*
X268942500Y-61940000D01*
X281515040Y-62310520D02*
X287621980Y-62310520D01*
X287621980Y-62310520D02*
X287992500Y-61940000D01*
X300565040Y-62310520D02*
X306671980Y-62310520D01*
X306671980Y-62310520D02*
X307042500Y-61940000D01*
X319615040Y-62310520D02*
X325721980Y-62310520D01*
X325721980Y-62310520D02*
X326092500Y-61940000D01*
X338665040Y-62310520D02*
X344771980Y-62310520D01*
X344771980Y-62310520D02*
X345142500Y-61940000D01*
X367240040Y-62310520D02*
X373346980Y-62310520D01*
X373346980Y-62310520D02*
X373717500Y-61940000D01*
X400577540Y-62310520D02*
X406684480Y-62310520D01*
X406684480Y-62310520D02*
X407055000Y-61940000D01*
X419627540Y-62310520D02*
X425734480Y-62310520D01*
X425734480Y-62310520D02*
X426105000Y-61940000D01*
X33020000Y-84455000D02*
X35580000Y-81895000D01*
X35580000Y-81895000D02*
X35580000Y-80990000D01*
X400577540Y-52150520D02*
X399346910Y-52150520D01*
X399346910Y-52150520D02*
X398033729Y-53463701D01*
X398033729Y-53463701D02*
X341208851Y-53463701D01*
X341208851Y-53463701D02*
X339895670Y-52150520D01*
X339895670Y-52150520D02*
X338665040Y-52150520D01*
X300565040Y-52150520D02*
X301795670Y-52150520D01*
X301795670Y-52150520D02*
X303108851Y-53463701D01*
X303108851Y-53463701D02*
X336121229Y-53463701D01*
X336121229Y-53463701D02*
X337434410Y-52150520D01*
X337434410Y-52150520D02*
X338665040Y-52150520D01*
X262465040Y-52150520D02*
X263695670Y-52150520D01*
X263695670Y-52150520D02*
X265008851Y-53463701D01*
X265008851Y-53463701D02*
X298021229Y-53463701D01*
X298021229Y-53463701D02*
X299334410Y-52150520D01*
X299334410Y-52150520D02*
X300565040Y-52150520D01*
X224365040Y-52150520D02*
X225595670Y-52150520D01*
X225595670Y-52150520D02*
X226908851Y-53463701D01*
X226908851Y-53463701D02*
X259921229Y-53463701D01*
X259921229Y-53463701D02*
X261234410Y-52150520D01*
X261234410Y-52150520D02*
X262465040Y-52150520D01*
X186265040Y-52150520D02*
X187495670Y-52150520D01*
X187495670Y-52150520D02*
X188808851Y-53463701D01*
X188808851Y-53463701D02*
X221821229Y-53463701D01*
X221821229Y-53463701D02*
X223134410Y-52150520D01*
X223134410Y-52150520D02*
X224365040Y-52150520D01*
X61595000Y-65405000D02*
X67202540Y-59797460D01*
X67202540Y-59797460D02*
X67202540Y-52150520D01*
X43180000Y-65405000D02*
X61595000Y-65405000D01*
X148165040Y-52150520D02*
X149395670Y-52150520D01*
X149395670Y-52150520D02*
X150708851Y-53463701D01*
X150708851Y-53463701D02*
X183721229Y-53463701D01*
X183721229Y-53463701D02*
X185034410Y-52150520D01*
X185034410Y-52150520D02*
X186265040Y-52150520D01*
X110065040Y-52150520D02*
X111295670Y-52150520D01*
X111295670Y-52150520D02*
X112608851Y-53463701D01*
X112608851Y-53463701D02*
X145621229Y-53463701D01*
X145621229Y-53463701D02*
X146934410Y-52150520D01*
X146934410Y-52150520D02*
X148165040Y-52150520D01*
X67202540Y-52150520D02*
X68433170Y-52150520D01*
X68433170Y-52150520D02*
X69746351Y-53463701D01*
X69746351Y-53463701D02*
X107521229Y-53463701D01*
X107521229Y-53463701D02*
X108834410Y-52150520D01*
X108834410Y-52150520D02*
X110065040Y-52150520D01*
X48152540Y-81360520D02*
X54259480Y-81360520D01*
X54259480Y-81360520D02*
X54630000Y-80990000D01*
X67202540Y-81360520D02*
X73309480Y-81360520D01*
X73309480Y-81360520D02*
X73680000Y-80990000D01*
X67573060Y-80990000D02*
X67202540Y-81360520D01*
X86252540Y-90885520D02*
X92359480Y-90885520D01*
X92359480Y-90885520D02*
X92730000Y-90515000D01*
X114827540Y-81360520D02*
X120934480Y-81360520D01*
X120934480Y-81360520D02*
X121305000Y-80990000D01*
X138640040Y-81360520D02*
X144746980Y-81360520D01*
X144746980Y-81360520D02*
X145117500Y-80990000D01*
X157690040Y-81360520D02*
X163796980Y-81360520D01*
X163796980Y-81360520D02*
X164167500Y-80990000D01*
X176740040Y-81360520D02*
X182846980Y-81360520D01*
X182846980Y-81360520D02*
X183217500Y-80990000D01*
X195790040Y-81360520D02*
X201896980Y-81360520D01*
X201896980Y-81360520D02*
X202267500Y-80990000D01*
X214840040Y-81360520D02*
X220946980Y-81360520D01*
X220946980Y-81360520D02*
X221317500Y-80990000D01*
X233890040Y-81360520D02*
X239996980Y-81360520D01*
X239996980Y-81360520D02*
X240367500Y-80990000D01*
X252940040Y-81360520D02*
X259046980Y-81360520D01*
X259046980Y-81360520D02*
X259417500Y-80990000D01*
X271990040Y-81360520D02*
X278096980Y-81360520D01*
X278096980Y-81360520D02*
X278467500Y-80990000D01*
X291040040Y-81360520D02*
X297146980Y-81360520D01*
X297146980Y-81360520D02*
X297517500Y-80990000D01*
X310090040Y-81360520D02*
X316196980Y-81360520D01*
X316196980Y-81360520D02*
X316567500Y-80990000D01*
X329140040Y-81360520D02*
X335246980Y-81360520D01*
X335246980Y-81360520D02*
X335617500Y-80990000D01*
X348190040Y-81360520D02*
X354296980Y-81360520D01*
X354296980Y-81360520D02*
X354667500Y-80990000D01*
X372002540Y-81360520D02*
X378109480Y-81360520D01*
X378109480Y-81360520D02*
X378480000Y-80990000D01*
X400577540Y-81360520D02*
X406684480Y-81360520D01*
X406684480Y-81360520D02*
X407055000Y-80990000D01*
X367240040Y-52150520D02*
X368470670Y-52150520D01*
X368470670Y-52150520D02*
X369944891Y-50676299D01*
X369944891Y-50676299D02*
X385848601Y-50676299D01*
X385848601Y-50676299D02*
X387255003Y-52082701D01*
X387255003Y-52082701D02*
X398237437Y-52082701D01*
X398237437Y-52082701D02*
X399643839Y-50676299D01*
X399643839Y-50676299D02*
X416922689Y-50676299D01*
X418396910Y-52150520D02*
X419627540Y-52150520D01*
X416922689Y-50676299D02*
X418396910Y-52150520D01*
X356238299Y-50676299D02*
X357712520Y-52150520D01*
X357712520Y-52150520D02*
X367240040Y-52150520D01*
X319615040Y-52150520D02*
X320845670Y-52150520D01*
X320845670Y-52150520D02*
X322319891Y-50676299D01*
X322319891Y-50676299D02*
X356238299Y-50676299D01*
X281515040Y-52150520D02*
X282745670Y-52150520D01*
X282745670Y-52150520D02*
X284219891Y-50676299D01*
X284219891Y-50676299D02*
X316910189Y-50676299D01*
X316910189Y-50676299D02*
X318384410Y-52150520D01*
X318384410Y-52150520D02*
X319615040Y-52150520D01*
X243415040Y-52150520D02*
X244645670Y-52150520D01*
X278810189Y-50676299D02*
X280284410Y-52150520D01*
X244645670Y-52150520D02*
X246119891Y-50676299D01*
X246119891Y-50676299D02*
X278810189Y-50676299D01*
X280284410Y-52150520D02*
X281515040Y-52150520D01*
X205315040Y-52150520D02*
X206545670Y-52150520D01*
X206545670Y-52150520D02*
X208019891Y-50676299D01*
X242184410Y-52150520D02*
X243415040Y-52150520D01*
X208019891Y-50676299D02*
X240710189Y-50676299D01*
X240710189Y-50676299D02*
X242184410Y-52150520D01*
X167215040Y-52150520D02*
X168445670Y-52150520D01*
X168445670Y-52150520D02*
X169919891Y-50676299D01*
X169919891Y-50676299D02*
X202610189Y-50676299D01*
X202610189Y-50676299D02*
X204084410Y-52150520D01*
X204084410Y-52150520D02*
X205315040Y-52150520D01*
X129115040Y-52150520D02*
X130345670Y-52150520D01*
X130345670Y-52150520D02*
X131819891Y-50676299D01*
X131819891Y-50676299D02*
X164510189Y-50676299D01*
X164510189Y-50676299D02*
X165984410Y-52150520D01*
X165984410Y-52150520D02*
X167215040Y-52150520D01*
X86252540Y-52150520D02*
X87483170Y-52150520D01*
X87483170Y-52150520D02*
X88957391Y-50676299D01*
X88957391Y-50676299D02*
X126410189Y-50676299D01*
X126410189Y-50676299D02*
X127884410Y-52150520D01*
X127884410Y-52150520D02*
X129115040Y-52150520D01*
X48152540Y-52150520D02*
X49383170Y-52150520D01*
X49383170Y-52150520D02*
X50857391Y-50676299D01*
X50857391Y-50676299D02*
X83547689Y-50676299D01*
X83547689Y-50676299D02*
X85021910Y-52150520D01*
X85021910Y-52150520D02*
X86252540Y-52150520D01*
X419627540Y-81360520D02*
X425734480Y-81360520D01*
X425734480Y-81360520D02*
X426105000Y-80990000D01*
X400577540Y-71200520D02*
X399346910Y-71200520D01*
X399346910Y-71200520D02*
X398033729Y-72513701D01*
X398033729Y-72513701D02*
X350733851Y-72513701D01*
X350733851Y-72513701D02*
X349420670Y-71200520D01*
X349420670Y-71200520D02*
X348190040Y-71200520D01*
X400577540Y-71200520D02*
X401808170Y-71200520D01*
X401808170Y-71200520D02*
X403607650Y-73000000D01*
X403607650Y-73000000D02*
X408122322Y-73000000D01*
X408122322Y-73000000D02*
X422000000Y-73000000D01*
X310090040Y-71200520D02*
X311320670Y-71200520D01*
X345646229Y-72513701D02*
X346959410Y-71200520D01*
X311320670Y-71200520D02*
X312633851Y-72513701D01*
X312633851Y-72513701D02*
X345646229Y-72513701D01*
X346959410Y-71200520D02*
X348190040Y-71200520D01*
X271990040Y-71200520D02*
X273220670Y-71200520D01*
X274533851Y-72513701D02*
X307546229Y-72513701D01*
X273220670Y-71200520D02*
X274533851Y-72513701D01*
X307546229Y-72513701D02*
X308859410Y-71200520D01*
X308859410Y-71200520D02*
X310090040Y-71200520D01*
X233890040Y-71200520D02*
X235120670Y-71200520D01*
X235120670Y-71200520D02*
X236433851Y-72513701D01*
X236433851Y-72513701D02*
X269446229Y-72513701D01*
X269446229Y-72513701D02*
X270759410Y-71200520D01*
X270759410Y-71200520D02*
X271990040Y-71200520D01*
X195790040Y-71200520D02*
X197020670Y-71200520D01*
X197020670Y-71200520D02*
X198333851Y-72513701D01*
X198333851Y-72513701D02*
X231346229Y-72513701D01*
X231346229Y-72513701D02*
X232659410Y-71200520D01*
X232659410Y-71200520D02*
X233890040Y-71200520D01*
X157690040Y-71200520D02*
X158920670Y-71200520D01*
X158920670Y-71200520D02*
X160233851Y-72513701D01*
X160233851Y-72513701D02*
X193246229Y-72513701D01*
X193246229Y-72513701D02*
X194559410Y-71200520D01*
X194559410Y-71200520D02*
X195790040Y-71200520D01*
X67202540Y-71200520D02*
X68433170Y-71200520D01*
X69746351Y-72513701D02*
X84222081Y-72513701D01*
X68433170Y-71200520D02*
X69746351Y-72513701D01*
X84222081Y-72513701D02*
X85535262Y-71200520D01*
X85535262Y-71200520D02*
X113596910Y-71200520D01*
X113596910Y-71200520D02*
X114827540Y-71200520D01*
X114827540Y-71200520D02*
X116058170Y-71200520D01*
X116058170Y-71200520D02*
X117371351Y-72513701D01*
X117371351Y-72513701D02*
X155146229Y-72513701D01*
X155146229Y-72513701D02*
X156459410Y-71200520D01*
X156459410Y-71200520D02*
X157690040Y-71200520D01*
X61341000Y-84455000D02*
X67202540Y-78593460D01*
X67202540Y-78593460D02*
X67202540Y-71200520D01*
X43180000Y-84455000D02*
X61341000Y-84455000D01*
X48152540Y-100410520D02*
X54259480Y-100410520D01*
X54259480Y-100410520D02*
X54630000Y-100040000D01*
X67202540Y-100410520D02*
X73309480Y-100410520D01*
X73309480Y-100410520D02*
X73680000Y-100040000D01*
X117208790Y-100410520D02*
X123315730Y-100410520D01*
X123315730Y-100410520D02*
X123686250Y-100040000D01*
X143402540Y-100410520D02*
X149509480Y-100410520D01*
X149509480Y-100410520D02*
X149880000Y-100040000D01*
X162452540Y-100410520D02*
X168559480Y-100410520D01*
X168559480Y-100410520D02*
X168930000Y-100040000D01*
X181502540Y-100410520D02*
X187609480Y-100410520D01*
X187609480Y-100410520D02*
X187980000Y-100040000D01*
X200552540Y-100410520D02*
X206659480Y-100410520D01*
X206659480Y-100410520D02*
X207030000Y-100040000D01*
X219602540Y-100410520D02*
X225709480Y-100410520D01*
X225709480Y-100410520D02*
X226080000Y-100040000D01*
X238652540Y-100410520D02*
X244759480Y-100410520D01*
X244759480Y-100410520D02*
X245130000Y-100040000D01*
X257702540Y-100410520D02*
X263809480Y-100410520D01*
X263809480Y-100410520D02*
X264180000Y-100040000D01*
X276752540Y-100410520D02*
X282859480Y-100410520D01*
X282859480Y-100410520D02*
X283230000Y-100040000D01*
X295802540Y-100410520D02*
X301909480Y-100410520D01*
X301909480Y-100410520D02*
X302280000Y-100040000D01*
X314852540Y-100410520D02*
X320959480Y-100410520D01*
X320959480Y-100410520D02*
X321330000Y-100040000D01*
X333902540Y-100410520D02*
X340009480Y-100410520D01*
X340009480Y-100410520D02*
X340380000Y-100040000D01*
X364858790Y-100410520D02*
X370965730Y-100410520D01*
X370965730Y-100410520D02*
X371336250Y-100040000D01*
X48152540Y-119460520D02*
X54259480Y-119460520D01*
X54259480Y-119460520D02*
X54630000Y-119090000D01*
X67202540Y-119460520D02*
X73309480Y-119460520D01*
X73309480Y-119460520D02*
X73680000Y-119090000D01*
X86252540Y-128985520D02*
X92359480Y-128985520D01*
X92359480Y-128985520D02*
X92730000Y-128615000D01*
X121971290Y-119460520D02*
X128078230Y-119460520D01*
X128078230Y-119460520D02*
X128448750Y-119090000D01*
X152927540Y-119460520D02*
X159034480Y-119460520D01*
X159034480Y-119460520D02*
X159405000Y-119090000D01*
X171977540Y-119460520D02*
X178084480Y-119460520D01*
X178084480Y-119460520D02*
X178455000Y-119090000D01*
X191027540Y-119460520D02*
X197134480Y-119460520D01*
X197134480Y-119460520D02*
X197505000Y-119090000D01*
X210077540Y-119460520D02*
X216184480Y-119460520D01*
X216184480Y-119460520D02*
X216555000Y-119090000D01*
X229127540Y-119460520D02*
X235234480Y-119460520D01*
X235234480Y-119460520D02*
X235605000Y-119090000D01*
X248177540Y-119460520D02*
X254284480Y-119460520D01*
X254284480Y-119460520D02*
X254655000Y-119090000D01*
X267227540Y-119460520D02*
X273334480Y-119460520D01*
X273334480Y-119460520D02*
X273705000Y-119090000D01*
X286277540Y-119460520D02*
X292384480Y-119460520D01*
X292384480Y-119460520D02*
X292755000Y-119090000D01*
X305327540Y-119460520D02*
X311434480Y-119460520D01*
X311434480Y-119460520D02*
X311805000Y-119090000D01*
X324377540Y-119460520D02*
X330484480Y-119460520D01*
X330484480Y-119460520D02*
X330855000Y-119090000D01*
X360096290Y-119460520D02*
X366203230Y-119460520D01*
X366203230Y-119460520D02*
X366573750Y-119090000D01*
X400577540Y-119460520D02*
X406684480Y-119460520D01*
X406684480Y-119460520D02*
X407055000Y-119090000D01*
X38627540Y-138510520D02*
X44734480Y-138510520D01*
X44734480Y-138510520D02*
X45105000Y-138140000D01*
X112446290Y-138510520D02*
X118553230Y-138510520D01*
X118553230Y-138510520D02*
X118923750Y-138140000D01*
X136258790Y-138510520D02*
X142365730Y-138510520D01*
X142365730Y-138510520D02*
X142736250Y-138140000D01*
X160071290Y-138510520D02*
X166178230Y-138510520D01*
X166178230Y-138510520D02*
X166548750Y-138140000D01*
X231508790Y-138510520D02*
X237615730Y-138510520D01*
X237615730Y-138510520D02*
X237986250Y-138140000D01*
X303000000Y-138510520D02*
X309053230Y-138510520D01*
X309053230Y-138510520D02*
X309423750Y-138140000D01*
X326758790Y-138510520D02*
X332865730Y-138510520D01*
X332865730Y-138510520D02*
X333236250Y-138140000D01*
X350571290Y-138510520D02*
X356678230Y-138510520D01*
X356678230Y-138510520D02*
X357048750Y-138140000D01*
X381527540Y-138510520D02*
X387634480Y-138510520D01*
X387634480Y-138510520D02*
X388005000Y-138140000D01*
X400577540Y-138510520D02*
X406684480Y-138510520D01*
X406684480Y-138510520D02*
X407055000Y-138140000D01*
X419627540Y-138510520D02*
X425734480Y-138510520D01*
X425734480Y-138510520D02*
X426105000Y-138140000D01*
X60555000Y-104500000D02*
X60753501Y-104301499D01*
X60753501Y-104301499D02*
X358627695Y-104301499D01*
X358627695Y-104301499D02*
X360826196Y-106500000D01*
X411920000Y-103590000D02*
X411920000Y-103240000D01*
X360826196Y-106500000D02*
X363151049Y-106500000D01*
X363151049Y-106500000D02*
X365000000Y-104651049D01*
X382151049Y-104651049D02*
X384000000Y-106500000D01*
X365000000Y-104651049D02*
X382151049Y-104651049D01*
X384000000Y-106500000D02*
X409010000Y-106500000D01*
X409010000Y-106500000D02*
X411920000Y-103590000D01*
X41505000Y-31845000D02*
X43350000Y-30000000D01*
X43350000Y-30000000D02*
X55041342Y-30000000D01*
X55041342Y-30000000D02*
X56041342Y-31000000D01*
X56041342Y-31000000D02*
X59710000Y-31000000D01*
X59710000Y-31000000D02*
X60555000Y-31845000D01*
X193772500Y-46000000D02*
X415801500Y-46000000D01*
X192666201Y-44893701D02*
X193772500Y-46000000D01*
X192666201Y-44893701D02*
X180607484Y-32834984D01*
X180607484Y-32834984D02*
X179617500Y-31845000D01*
X137421500Y-64516000D02*
X126563500Y-64516000D01*
X126563500Y-64516000D02*
X122467500Y-60420000D01*
X141517500Y-60420000D02*
X137421500Y-64516000D01*
X175140500Y-36322000D02*
X165044500Y-36322000D01*
X165044500Y-36322000D02*
X160567500Y-31845000D01*
X179617500Y-31845000D02*
X175140500Y-36322000D01*
X134405750Y-117602000D02*
X134373750Y-117570000D01*
X416533782Y-37500000D02*
X434500000Y-37500000D01*
X368000000Y-37500000D02*
X351000000Y-37500000D01*
X416533782Y-37500000D02*
X368000000Y-37500000D01*
X326362500Y-37500000D02*
X294000000Y-37500000D01*
X332017500Y-31845000D02*
X326362500Y-37500000D01*
X334372592Y-135500000D02*
X330984232Y-135500000D01*
X330984232Y-135500000D02*
X319500000Y-135500000D01*
X339161250Y-136620000D02*
X335492592Y-136620000D01*
X335492592Y-136620000D02*
X334372592Y-135500000D01*
X293917500Y-60420000D02*
X288551500Y-65786000D01*
X288551500Y-65786000D02*
X280233500Y-65786000D01*
X280233500Y-65786000D02*
X275857484Y-61409984D01*
X275857484Y-61409984D02*
X274867500Y-60420000D01*
X346590500Y-36322000D02*
X336494500Y-36322000D01*
X336494500Y-36322000D02*
X332017500Y-31845000D01*
X351067500Y-31845000D02*
X346590500Y-36322000D01*
X427875000Y-36000000D02*
X417135000Y-36000000D01*
X417135000Y-36000000D02*
X412980000Y-31845000D01*
X432030000Y-31845000D02*
X427875000Y-36000000D01*
X384935000Y-80000000D02*
X384405000Y-79470000D01*
X404190000Y-85000000D02*
X390000000Y-85000000D01*
X384405000Y-79470000D02*
X389935000Y-85000000D01*
X389935000Y-85000000D02*
X390000000Y-85000000D01*
X406840000Y-88000000D02*
X406840000Y-87650000D01*
X406840000Y-87650000D02*
X404190000Y-85000000D01*
X384405000Y-79470000D02*
X379875000Y-84000000D01*
X379875000Y-84000000D02*
X365122500Y-84000000D01*
X365122500Y-84000000D02*
X361582484Y-80459984D01*
X361582484Y-80459984D02*
X360592500Y-79470000D01*
X408325000Y-36500000D02*
X380000000Y-36500000D01*
X412980000Y-31845000D02*
X408325000Y-36500000D01*
X404368000Y-135636000D02*
X408327342Y-135636000D01*
X393930000Y-136620000D02*
X403384000Y-136620000D01*
X403384000Y-136620000D02*
X404368000Y-135636000D01*
X408327342Y-135636000D02*
X409311342Y-136620000D01*
X423164000Y-135737606D02*
X429617721Y-135737606D01*
X412980000Y-136620000D02*
X422281606Y-136620000D01*
X422281606Y-136620000D02*
X423164000Y-135737606D01*
X430500115Y-136620000D02*
X432030000Y-136620000D01*
X429617721Y-135737606D02*
X430500115Y-136620000D01*
X409311342Y-136620000D02*
X412980000Y-136620000D01*
X422000000Y-38500000D02*
X434000000Y-38500000D01*
X434000000Y-38500000D02*
X434500000Y-39000000D01*
X420500000Y-39500000D02*
X421000000Y-39500000D01*
X421000000Y-39500000D02*
X422000000Y-38500000D01*
X325500000Y-39500000D02*
X420500000Y-39500000D01*
X303500000Y-39500000D02*
X325500000Y-39500000D01*
X255778000Y-37846000D02*
X278391500Y-37846000D01*
X278391500Y-37846000D02*
X284392500Y-31845000D01*
X299219500Y-36068000D02*
X288615500Y-36068000D01*
X288615500Y-36068000D02*
X284392500Y-31845000D01*
X303442500Y-31845000D02*
X299219500Y-36068000D01*
X240863500Y-64516000D02*
X251721500Y-64516000D01*
X251721500Y-64516000D02*
X255817500Y-60420000D01*
X236767500Y-60420000D02*
X240863500Y-64516000D01*
X417060000Y-64500000D02*
X427950000Y-64500000D01*
X427950000Y-64500000D02*
X432030000Y-60420000D01*
X412980000Y-60420000D02*
X417060000Y-64500000D01*
X268250482Y-25500000D02*
X417500000Y-25500000D01*
X265342500Y-31845000D02*
X265342500Y-28407982D01*
X265342500Y-28407982D02*
X268250482Y-25500000D01*
X260865500Y-36322000D02*
X250769500Y-36322000D01*
X250769500Y-36322000D02*
X246292500Y-31845000D01*
X265342500Y-31845000D02*
X260865500Y-36322000D01*
X217717500Y-60420000D02*
X213621500Y-64516000D01*
X213621500Y-64516000D02*
X202763500Y-64516000D01*
X202763500Y-64516000D02*
X198667500Y-60420000D01*
X241561500Y-36576000D02*
X217678000Y-36576000D01*
X246292500Y-31845000D02*
X241561500Y-36576000D01*
X370117500Y-31845000D02*
X374073999Y-35801499D01*
X374073999Y-35801499D02*
X374471001Y-35801499D01*
X374471001Y-35801499D02*
X385000000Y-35801499D01*
X389167500Y-31845000D02*
X385211001Y-35801499D01*
X385211001Y-35801499D02*
X385000000Y-35801499D01*
X347000000Y-37500000D02*
X332000000Y-37500000D01*
X370117500Y-31845000D02*
X365962500Y-36000000D01*
X347000000Y-37500000D02*
X348500000Y-36000000D01*
X348500000Y-36000000D02*
X365962500Y-36000000D01*
X435500000Y-26000000D02*
X419000000Y-26000000D01*
X410721052Y-26187394D02*
X410732159Y-26198501D01*
X410732159Y-26198501D02*
X418801499Y-26198501D01*
X418801499Y-26198501D02*
X419000000Y-26000000D01*
X396354991Y-26187394D02*
X390697385Y-31845000D01*
X410721052Y-26187394D02*
X396354991Y-26187394D01*
X390697385Y-31845000D02*
X389167500Y-31845000D01*
X342209000Y-102616000D02*
X331351000Y-102616000D01*
X331351000Y-102616000D02*
X327255000Y-98520000D01*
X346305000Y-98520000D02*
X342209000Y-102616000D01*
X336780000Y-117570000D02*
X338284190Y-116065810D01*
X338284190Y-116065810D02*
X367325902Y-116065810D01*
X367325902Y-116065810D02*
X368830092Y-117570000D01*
X368830092Y-117570000D02*
X370968865Y-117570000D01*
X370968865Y-117570000D02*
X372498750Y-117570000D01*
X416500000Y-38500000D02*
X256157782Y-38500000D01*
X256157782Y-38500000D02*
X256113281Y-38544501D01*
X256113281Y-38544501D02*
X218612719Y-38544501D01*
X218612719Y-38544501D02*
X216213310Y-36145092D01*
X216213310Y-36145092D02*
X216213310Y-33349190D01*
X216213310Y-33349190D02*
X217717500Y-31845000D01*
X164663500Y-64516000D02*
X175006000Y-64516000D01*
X179617500Y-60420000D02*
X175521500Y-64516000D01*
X175521500Y-64516000D02*
X175006000Y-64516000D01*
X160567500Y-60420000D02*
X164663500Y-64516000D01*
X213748500Y-35814000D02*
X202636500Y-35814000D01*
X202636500Y-35814000D02*
X198667500Y-31845000D01*
X217717500Y-31845000D02*
X213748500Y-35814000D01*
X414584210Y-46584210D02*
X415084210Y-46584210D01*
X415084210Y-46584210D02*
X415500000Y-47000000D01*
X403084210Y-46584210D02*
X414584210Y-46584210D01*
X403084210Y-46584210D02*
X137206710Y-46584210D01*
X137206710Y-46584210D02*
X122467500Y-31845000D01*
X93113342Y-87122000D02*
X87257000Y-87122000D01*
X87257000Y-87122000D02*
X79605000Y-79470000D01*
X98655000Y-88995000D02*
X94986342Y-88995000D01*
X94986342Y-88995000D02*
X93113342Y-87122000D01*
X98298000Y-133096000D02*
X109728000Y-133096000D01*
X109728000Y-133096000D02*
X111506000Y-134874000D01*
X81134885Y-136620000D02*
X84658885Y-133096000D01*
X84658885Y-133096000D02*
X98298000Y-133096000D01*
X124848750Y-136620000D02*
X121180092Y-136620000D01*
X121180092Y-136620000D02*
X119434092Y-134874000D01*
X119434092Y-134874000D02*
X111506000Y-134874000D01*
X98552000Y-36322000D02*
X117990500Y-36322000D01*
X117990500Y-36322000D02*
X122467500Y-31845000D01*
X98655000Y-60420000D02*
X94559000Y-64516000D01*
X94559000Y-64516000D02*
X83701000Y-64516000D01*
X83701000Y-64516000D02*
X79605000Y-60420000D01*
X79605000Y-136620000D02*
X81134885Y-136620000D01*
X417000000Y-88000000D02*
X417000000Y-88350000D01*
X417000000Y-88350000D02*
X413786299Y-91563701D01*
X413786299Y-91563701D02*
X367402601Y-91563701D01*
X367402601Y-91563701D02*
X366089420Y-90250520D01*
X366089420Y-90250520D02*
X364858790Y-90250520D01*
X314852540Y-90250520D02*
X316083170Y-90250520D01*
X316083170Y-90250520D02*
X317396351Y-91563701D01*
X317396351Y-91563701D02*
X362314979Y-91563701D01*
X362314979Y-91563701D02*
X363628160Y-90250520D01*
X363628160Y-90250520D02*
X364858790Y-90250520D01*
X276752540Y-90250520D02*
X277983170Y-90250520D01*
X277983170Y-90250520D02*
X279296351Y-91563701D01*
X279296351Y-91563701D02*
X312308729Y-91563701D01*
X312308729Y-91563701D02*
X313621910Y-90250520D01*
X313621910Y-90250520D02*
X314852540Y-90250520D01*
X238652540Y-90250520D02*
X239883170Y-90250520D01*
X239883170Y-90250520D02*
X241196351Y-91563701D01*
X241196351Y-91563701D02*
X274208729Y-91563701D01*
X274208729Y-91563701D02*
X275521910Y-90250520D01*
X275521910Y-90250520D02*
X276752540Y-90250520D01*
X200552540Y-90250520D02*
X201783170Y-90250520D01*
X201783170Y-90250520D02*
X203096351Y-91563701D01*
X203096351Y-91563701D02*
X236108729Y-91563701D01*
X236108729Y-91563701D02*
X237421910Y-90250520D01*
X237421910Y-90250520D02*
X238652540Y-90250520D01*
X67202540Y-90250520D02*
X67202540Y-91481150D01*
X65024000Y-93659690D02*
X65024000Y-103632000D01*
X67202540Y-91481150D02*
X65024000Y-93659690D01*
X117208790Y-90250520D02*
X117208790Y-91481150D01*
X117208790Y-91481150D02*
X105057940Y-103632000D01*
X105057940Y-103632000D02*
X65455052Y-103632000D01*
X65455052Y-103632000D02*
X65024000Y-103632000D01*
X162452540Y-90250520D02*
X163683170Y-90250520D01*
X163683170Y-90250520D02*
X164996351Y-91563701D01*
X164996351Y-91563701D02*
X198008729Y-91563701D01*
X198008729Y-91563701D02*
X199321910Y-90250520D01*
X199321910Y-90250520D02*
X200552540Y-90250520D01*
X117208790Y-90250520D02*
X118439420Y-90250520D01*
X118439420Y-90250520D02*
X119752601Y-91563701D01*
X119752601Y-91563701D02*
X159908729Y-91563701D01*
X159908729Y-91563701D02*
X161221910Y-90250520D01*
X161221910Y-90250520D02*
X162452540Y-90250520D01*
X65024000Y-103632000D02*
X43307000Y-103632000D01*
X43307000Y-103632000D02*
X43180000Y-103505000D01*
X414955247Y-110613701D02*
X415386299Y-110613701D01*
X415386299Y-110613701D02*
X415500000Y-110500000D01*
X400577540Y-109300520D02*
X399346910Y-109300520D01*
X398033729Y-110613701D02*
X364113701Y-110613701D01*
X399346910Y-109300520D02*
X398033729Y-110613701D01*
X364113701Y-110613701D02*
X358500000Y-105000000D01*
X358500000Y-105000000D02*
X336000000Y-105000000D01*
X400577540Y-109300520D02*
X401808170Y-109300520D01*
X401808170Y-109300520D02*
X403121351Y-110613701D01*
X403121351Y-110613701D02*
X414955247Y-110613701D01*
X84948845Y-92445144D02*
X85467701Y-92964000D01*
X85467701Y-92964000D02*
X103124000Y-92964000D01*
X103124000Y-92964000D02*
X107311701Y-88776299D01*
X107311701Y-88776299D02*
X140697689Y-88776299D01*
X142171910Y-90250520D02*
X143402540Y-90250520D01*
X140697689Y-88776299D02*
X142171910Y-90250520D01*
X295802540Y-90250520D02*
X297033170Y-90250520D01*
X297033170Y-90250520D02*
X298507391Y-88776299D01*
X298507391Y-88776299D02*
X331197689Y-88776299D01*
X331197689Y-88776299D02*
X332671910Y-90250520D01*
X332671910Y-90250520D02*
X333902540Y-90250520D01*
X257702540Y-90250520D02*
X258933170Y-90250520D01*
X258933170Y-90250520D02*
X260407391Y-88776299D01*
X260407391Y-88776299D02*
X293097689Y-88776299D01*
X293097689Y-88776299D02*
X294571910Y-90250520D01*
X294571910Y-90250520D02*
X295802540Y-90250520D01*
X219602540Y-90250520D02*
X220833170Y-90250520D01*
X220833170Y-90250520D02*
X222307391Y-88776299D01*
X222307391Y-88776299D02*
X254997689Y-88776299D01*
X254997689Y-88776299D02*
X256471910Y-90250520D01*
X256471910Y-90250520D02*
X257702540Y-90250520D01*
X50857391Y-88776299D02*
X81280000Y-88776299D01*
X84948845Y-92445144D02*
X81280000Y-88776299D01*
X181502540Y-90250520D02*
X182733170Y-90250520D01*
X182733170Y-90250520D02*
X184207391Y-88776299D01*
X184207391Y-88776299D02*
X216897689Y-88776299D01*
X216897689Y-88776299D02*
X218371910Y-90250520D01*
X218371910Y-90250520D02*
X219602540Y-90250520D01*
X143402540Y-90250520D02*
X144633170Y-90250520D01*
X146107391Y-88776299D02*
X178797689Y-88776299D01*
X180271910Y-90250520D02*
X181502540Y-90250520D01*
X144633170Y-90250520D02*
X146107391Y-88776299D01*
X178797689Y-88776299D02*
X180271910Y-90250520D01*
X48152540Y-90250520D02*
X49383170Y-90250520D01*
X49383170Y-90250520D02*
X50857391Y-88776299D01*
X411920000Y-88000000D02*
X411920000Y-88350000D01*
X411920000Y-88350000D02*
X409770000Y-90500000D01*
X409770000Y-90500000D02*
X382500000Y-90500000D01*
X381527540Y-128350520D02*
X380296910Y-128350520D01*
X380296910Y-128350520D02*
X378446390Y-126500000D01*
X378446390Y-126500000D02*
X326500000Y-126500000D01*
X286277540Y-109300520D02*
X287508170Y-109300520D01*
X288982391Y-107826299D02*
X321672689Y-107826299D01*
X287508170Y-109300520D02*
X288982391Y-107826299D01*
X321672689Y-107826299D02*
X323146910Y-109300520D01*
X323146910Y-109300520D02*
X324377540Y-109300520D01*
X248177540Y-109300520D02*
X249408170Y-109300520D01*
X249408170Y-109300520D02*
X250882391Y-107826299D01*
X250882391Y-107826299D02*
X283572689Y-107826299D01*
X283572689Y-107826299D02*
X285046910Y-109300520D01*
X285046910Y-109300520D02*
X286277540Y-109300520D01*
X210077540Y-109300520D02*
X211308170Y-109300520D01*
X211308170Y-109300520D02*
X212782391Y-107826299D01*
X212782391Y-107826299D02*
X245472689Y-107826299D01*
X245472689Y-107826299D02*
X246946910Y-109300520D01*
X246946910Y-109300520D02*
X248177540Y-109300520D01*
X171977540Y-109300520D02*
X173208170Y-109300520D01*
X173208170Y-109300520D02*
X174682391Y-107826299D01*
X208846910Y-109300520D02*
X210077540Y-109300520D01*
X174682391Y-107826299D02*
X207372689Y-107826299D01*
X207372689Y-107826299D02*
X208846910Y-109300520D01*
X121971290Y-109300520D02*
X123201920Y-109300520D01*
X123201920Y-109300520D02*
X127105141Y-105397299D01*
X127105141Y-105397299D02*
X166843689Y-105397299D01*
X166843689Y-105397299D02*
X170746910Y-109300520D01*
X170746910Y-109300520D02*
X171977540Y-109300520D01*
X121971290Y-109300520D02*
X80098142Y-109300520D01*
X80098142Y-109300520D02*
X78784961Y-110613701D01*
X78784961Y-110613701D02*
X69746351Y-110613701D01*
X69746351Y-110613701D02*
X68433170Y-109300520D01*
X68433170Y-109300520D02*
X67202540Y-109300520D01*
X43815000Y-122555000D02*
X64897000Y-122555000D01*
X64897000Y-122555000D02*
X65024000Y-122682000D01*
X423010000Y-92500000D02*
X403000000Y-92500000D01*
X427160000Y-88000000D02*
X427160000Y-88350000D01*
X427160000Y-88350000D02*
X423010000Y-92500000D01*
X400577540Y-128350520D02*
X399346910Y-128350520D01*
X399346910Y-128350520D02*
X396496390Y-125500000D01*
X396496390Y-125500000D02*
X362000000Y-125500000D01*
X305327540Y-109300520D02*
X306558170Y-109300520D01*
X306558170Y-109300520D02*
X307871351Y-110613701D01*
X307871351Y-110613701D02*
X357552479Y-110613701D01*
X357552479Y-110613701D02*
X358865660Y-109300520D01*
X358865660Y-109300520D02*
X360096290Y-109300520D01*
X191027540Y-109300520D02*
X192258170Y-109300520D01*
X226583729Y-110613701D02*
X227896910Y-109300520D01*
X192258170Y-109300520D02*
X193571351Y-110613701D01*
X193571351Y-110613701D02*
X226583729Y-110613701D01*
X227896910Y-109300520D02*
X229127540Y-109300520D01*
X267227540Y-109300520D02*
X268458170Y-109300520D01*
X268458170Y-109300520D02*
X269771351Y-110613701D01*
X269771351Y-110613701D02*
X302783729Y-110613701D01*
X302783729Y-110613701D02*
X304096910Y-109300520D01*
X304096910Y-109300520D02*
X305327540Y-109300520D01*
X229127540Y-109300520D02*
X230358170Y-109300520D01*
X230358170Y-109300520D02*
X231671351Y-110613701D01*
X231671351Y-110613701D02*
X264683729Y-110613701D01*
X264683729Y-110613701D02*
X265996910Y-109300520D01*
X265996910Y-109300520D02*
X267227540Y-109300520D01*
X152927540Y-109300520D02*
X154158170Y-109300520D01*
X154158170Y-109300520D02*
X155471351Y-110613701D01*
X155471351Y-110613701D02*
X188483729Y-110613701D01*
X188483729Y-110613701D02*
X189796910Y-109300520D01*
X189796910Y-109300520D02*
X191027540Y-109300520D01*
X112268000Y-114046000D02*
X115316000Y-110998000D01*
X151696910Y-109300520D02*
X152927540Y-109300520D01*
X115316000Y-110998000D02*
X149999430Y-110998000D01*
X149999430Y-110998000D02*
X151696910Y-109300520D01*
X48152540Y-109300520D02*
X49383170Y-109300520D01*
X112039399Y-114274601D02*
X112268000Y-114046000D01*
X49383170Y-109300520D02*
X51280561Y-111197911D01*
X51280561Y-111197911D02*
X81653310Y-111197911D01*
X81653310Y-111197911D02*
X84730000Y-114274601D01*
X84730000Y-114274601D02*
X112039399Y-114274601D01*
X424550000Y-93500000D02*
X418500000Y-93500000D01*
X429700000Y-88000000D02*
X429700000Y-88350000D01*
X429700000Y-88350000D02*
X424550000Y-93500000D01*
X350571290Y-128350520D02*
X351801920Y-128350520D01*
X418396910Y-128350520D02*
X419627540Y-128350520D01*
X351801920Y-128350520D02*
X353115101Y-129663701D01*
X353115101Y-129663701D02*
X417083729Y-129663701D01*
X417083729Y-129663701D02*
X418396910Y-128350520D01*
X326758790Y-128350520D02*
X327989420Y-128350520D01*
X327989420Y-128350520D02*
X329302601Y-129663701D01*
X329302601Y-129663701D02*
X348027479Y-129663701D01*
X348027479Y-129663701D02*
X349340660Y-128350520D01*
X349340660Y-128350520D02*
X350571290Y-128350520D01*
X303000000Y-128350520D02*
X304230630Y-128350520D01*
X304230630Y-128350520D02*
X305543811Y-129663701D01*
X305543811Y-129663701D02*
X324214979Y-129663701D01*
X324214979Y-129663701D02*
X325528160Y-128350520D01*
X325528160Y-128350520D02*
X326758790Y-128350520D01*
X283086299Y-129663701D02*
X284399480Y-128350520D01*
X284399480Y-128350520D02*
X303000000Y-128350520D01*
X231508790Y-128350520D02*
X232739420Y-128350520D01*
X232739420Y-128350520D02*
X234052601Y-129663701D01*
X234052601Y-129663701D02*
X283086299Y-129663701D01*
X175390299Y-129663701D02*
X176703480Y-128350520D01*
X176703480Y-128350520D02*
X231508790Y-128350520D01*
X160071290Y-128350520D02*
X161301920Y-128350520D01*
X161301920Y-128350520D02*
X162615101Y-129663701D01*
X162615101Y-129663701D02*
X175390299Y-129663701D01*
X136258790Y-128350520D02*
X137489420Y-128350520D01*
X137489420Y-128350520D02*
X138802601Y-129663701D01*
X138802601Y-129663701D02*
X157527479Y-129663701D01*
X157527479Y-129663701D02*
X158840660Y-128350520D01*
X158840660Y-128350520D02*
X160071290Y-128350520D01*
X84429606Y-130962394D02*
X81160000Y-127692788D01*
X81160000Y-127692788D02*
X81160000Y-125000000D01*
X136258790Y-128350520D02*
X136258790Y-129581150D01*
X136258790Y-129581150D02*
X134877546Y-130962394D01*
X134877546Y-130962394D02*
X84429606Y-130962394D01*
X60336299Y-129663701D02*
X63756669Y-126243331D01*
X63756669Y-126243331D02*
X78686039Y-126243331D01*
X78686039Y-126243331D02*
X79929370Y-125000000D01*
X79929370Y-125000000D02*
X81160000Y-125000000D01*
X38627540Y-128350520D02*
X39858170Y-128350520D01*
X39858170Y-128350520D02*
X41171351Y-129663701D01*
X41171351Y-129663701D02*
X60336299Y-129663701D01*
M02*
