G04 #@! TF.FileFunction,Copper,L2,Bot,Signal*
%FSLAX46Y46*%
G04 Gerber Fmt 4.6, Leading zero omitted, Abs format (unit mm)*
G04 Created by KiCad (PCBNEW 4.0.2-stable) date Tuesday, June 21, 2016 'PMt' 05:11:06 PM*
%MOMM*%
G01*
G04 APERTURE LIST*
%ADD10C,0.150000*%
%ADD11C,0.300000*%
%ADD12C,5.000000*%
%ADD13C,1.699260*%
%ADD14R,1.699260X1.699260*%
%ADD15C,3.987810*%
%ADD16C,1.701810*%
%ADD17C,2.500000*%
%ADD18R,2.000000X2.000000*%
%ADD19C,2.000000*%
%ADD20O,1.600000X2.300000*%
%ADD21C,0.609600*%
%ADD22C,0.381000*%
G04 APERTURE END LIST*
D10*
D11*
X256714286Y-132607143D02*
X258000000Y-134535714D01*
X256214285Y-134178571D02*
X256214285Y-133178571D01*
X256214285Y-133464286D02*
X256142857Y-133321429D01*
X256071428Y-133250000D01*
X255928571Y-133178571D01*
X255785714Y-133178571D01*
X254214286Y-132607143D02*
X255500000Y-134535714D01*
X253714285Y-134178571D02*
X253714285Y-133178571D01*
X253714285Y-133321429D02*
X253642857Y-133250000D01*
X253499999Y-133178571D01*
X253285714Y-133178571D01*
X253142857Y-133250000D01*
X253071428Y-133392857D01*
X253071428Y-134178571D01*
X253071428Y-133392857D02*
X252999999Y-133250000D01*
X252857142Y-133178571D01*
X252642857Y-133178571D01*
X252499999Y-133250000D01*
X252428571Y-133392857D01*
X252428571Y-134178571D01*
X251714285Y-134178571D02*
X251714285Y-132678571D01*
X251571428Y-133607143D02*
X251142857Y-134178571D01*
X251142857Y-133178571D02*
X251714285Y-133750000D01*
X228428571Y-132607143D02*
X229714285Y-134535714D01*
X227285713Y-133178571D02*
X227285713Y-134178571D01*
X227928570Y-133178571D02*
X227928570Y-133964286D01*
X227857142Y-134107143D01*
X227714284Y-134178571D01*
X227499999Y-134178571D01*
X227357142Y-134107143D01*
X227285713Y-134035714D01*
X225499999Y-132607143D02*
X226785713Y-134535714D01*
X224357141Y-134107143D02*
X224499998Y-134178571D01*
X224785712Y-134178571D01*
X224928570Y-134107143D01*
X224999998Y-134035714D01*
X225071427Y-133892857D01*
X225071427Y-133464286D01*
X224999998Y-133321429D01*
X224928570Y-133250000D01*
X224785712Y-133178571D01*
X224499998Y-133178571D01*
X224357141Y-133250000D01*
X223071427Y-134178571D02*
X223071427Y-133392857D01*
X223142856Y-133250000D01*
X223285713Y-133178571D01*
X223571427Y-133178571D01*
X223714284Y-133250000D01*
X223071427Y-134107143D02*
X223214284Y-134178571D01*
X223571427Y-134178571D01*
X223714284Y-134107143D01*
X223785713Y-133964286D01*
X223785713Y-133821429D01*
X223714284Y-133678571D01*
X223571427Y-133607143D01*
X223214284Y-133607143D01*
X223071427Y-133535714D01*
X221571427Y-134178571D02*
X222428570Y-134178571D01*
X221999998Y-134178571D02*
X221999998Y-132678571D01*
X222142855Y-132892857D01*
X222285713Y-133035714D01*
X222428570Y-133107143D01*
X221071427Y-132678571D02*
X220071427Y-132678571D01*
X220714284Y-134178571D01*
X219285713Y-133321429D02*
X219428571Y-133250000D01*
X219499999Y-133178571D01*
X219571428Y-133035714D01*
X219571428Y-132964286D01*
X219499999Y-132821429D01*
X219428571Y-132750000D01*
X219285713Y-132678571D01*
X218999999Y-132678571D01*
X218857142Y-132750000D01*
X218785713Y-132821429D01*
X218714285Y-132964286D01*
X218714285Y-133035714D01*
X218785713Y-133178571D01*
X218857142Y-133250000D01*
X218999999Y-133321429D01*
X219285713Y-133321429D01*
X219428571Y-133392857D01*
X219499999Y-133464286D01*
X219571428Y-133607143D01*
X219571428Y-133892857D01*
X219499999Y-134035714D01*
X219428571Y-134107143D01*
X219285713Y-134178571D01*
X218999999Y-134178571D01*
X218857142Y-134107143D01*
X218785713Y-134035714D01*
X218714285Y-133892857D01*
X218714285Y-133607143D01*
X218785713Y-133464286D01*
X218857142Y-133392857D01*
X218999999Y-133321429D01*
X217857142Y-133321429D02*
X218000000Y-133250000D01*
X218071428Y-133178571D01*
X218142857Y-133035714D01*
X218142857Y-132964286D01*
X218071428Y-132821429D01*
X218000000Y-132750000D01*
X217857142Y-132678571D01*
X217571428Y-132678571D01*
X217428571Y-132750000D01*
X217357142Y-132821429D01*
X217285714Y-132964286D01*
X217285714Y-133035714D01*
X217357142Y-133178571D01*
X217428571Y-133250000D01*
X217571428Y-133321429D01*
X217857142Y-133321429D01*
X218000000Y-133392857D01*
X218071428Y-133464286D01*
X218142857Y-133607143D01*
X218142857Y-133892857D01*
X218071428Y-134035714D01*
X218000000Y-134107143D01*
X217857142Y-134178571D01*
X217571428Y-134178571D01*
X217428571Y-134107143D01*
X217357142Y-134035714D01*
X217285714Y-133892857D01*
X217285714Y-133607143D01*
X217357142Y-133464286D01*
X217428571Y-133392857D01*
X217571428Y-133321429D01*
X215928571Y-132678571D02*
X216642857Y-132678571D01*
X216714286Y-133392857D01*
X216642857Y-133321429D01*
X216500000Y-133250000D01*
X216142857Y-133250000D01*
X216000000Y-133321429D01*
X215928571Y-133392857D01*
X215857143Y-133535714D01*
X215857143Y-133892857D01*
X215928571Y-134035714D01*
X216000000Y-134107143D01*
X216142857Y-134178571D01*
X216500000Y-134178571D01*
X216642857Y-134107143D01*
X216714286Y-134035714D01*
X215000000Y-133321429D02*
X215142858Y-133250000D01*
X215214286Y-133178571D01*
X215285715Y-133035714D01*
X215285715Y-132964286D01*
X215214286Y-132821429D01*
X215142858Y-132750000D01*
X215000000Y-132678571D01*
X214714286Y-132678571D01*
X214571429Y-132750000D01*
X214500000Y-132821429D01*
X214428572Y-132964286D01*
X214428572Y-133035714D01*
X214500000Y-133178571D01*
X214571429Y-133250000D01*
X214714286Y-133321429D01*
X215000000Y-133321429D01*
X215142858Y-133392857D01*
X215214286Y-133464286D01*
X215285715Y-133607143D01*
X215285715Y-133892857D01*
X215214286Y-134035714D01*
X215142858Y-134107143D01*
X215000000Y-134178571D01*
X214714286Y-134178571D01*
X214571429Y-134107143D01*
X214500000Y-134035714D01*
X214428572Y-133892857D01*
X214428572Y-133607143D01*
X214500000Y-133464286D01*
X214571429Y-133392857D01*
X214714286Y-133321429D01*
D12*
X374650000Y-133350000D03*
X299000000Y-133350000D03*
D13*
X286277540Y-119460520D03*
D14*
X286277540Y-109300520D03*
D12*
X428625000Y-42862500D03*
X299000000Y-42862500D03*
X182000000Y-133350000D03*
X182000000Y-42862500D03*
D13*
X419627540Y-138510520D03*
D14*
X419627540Y-128350520D03*
D15*
X428625000Y-133350000D03*
D16*
X433705000Y-133350000D03*
X423545000Y-133350000D03*
D17*
X431624547Y-137349954D02*
X432435453Y-135890046D01*
X426085276Y-138429328D02*
X426124724Y-137850672D01*
D18*
X429895000Y-128270000D03*
D19*
X427355000Y-128270000D03*
D13*
X400577540Y-138510520D03*
D14*
X400577540Y-128350520D03*
D15*
X409575000Y-133350000D03*
D16*
X414655000Y-133350000D03*
X404495000Y-133350000D03*
D17*
X412574547Y-137349954D02*
X413385453Y-135890046D01*
X407035276Y-138429328D02*
X407074724Y-137850672D01*
D18*
X410845000Y-128270000D03*
D19*
X408305000Y-128270000D03*
D13*
X381527540Y-138510520D03*
D14*
X381527540Y-128350520D03*
D15*
X390525000Y-133350000D03*
D16*
X395605000Y-133350000D03*
X385445000Y-133350000D03*
D17*
X393524547Y-137349954D02*
X394335453Y-135890046D01*
X387985276Y-138429328D02*
X388024724Y-137850672D01*
D18*
X391795000Y-128270000D03*
D19*
X389255000Y-128270000D03*
D13*
X350571290Y-138510520D03*
D14*
X350571290Y-128350520D03*
D15*
X359568750Y-133350000D03*
D16*
X364648750Y-133350000D03*
X354488750Y-133350000D03*
D17*
X362568297Y-137349954D02*
X363379203Y-135890046D01*
X357029026Y-138429328D02*
X357068474Y-137850672D01*
D18*
X360838750Y-128270000D03*
D19*
X358298750Y-128270000D03*
D13*
X326758790Y-138510520D03*
D14*
X326758790Y-128350520D03*
D15*
X335756250Y-133350000D03*
D16*
X340836250Y-133350000D03*
X330676250Y-133350000D03*
D17*
X338755797Y-137349954D02*
X339566703Y-135890046D01*
X333216526Y-138429328D02*
X333255974Y-137850672D01*
D18*
X337026250Y-128270000D03*
D19*
X334486250Y-128270000D03*
D13*
X303000000Y-138510520D03*
D14*
X303000000Y-128350520D03*
D15*
X311943750Y-133350000D03*
D16*
X317023750Y-133350000D03*
X306863750Y-133350000D03*
D17*
X314943297Y-137349954D02*
X315754203Y-135890046D01*
X309404026Y-138429328D02*
X309443474Y-137850672D01*
D18*
X313213750Y-128270000D03*
D19*
X310673750Y-128270000D03*
D13*
X231508790Y-138510520D03*
D14*
X231508790Y-128350520D03*
D15*
X240506250Y-133350000D03*
D16*
X245586250Y-133350000D03*
X235426250Y-133350000D03*
D17*
X243505797Y-137349954D02*
X244316703Y-135890046D01*
X237966526Y-138429328D02*
X238005974Y-137850672D01*
D18*
X241776250Y-128270000D03*
D19*
X239236250Y-128270000D03*
D13*
X160071290Y-138510520D03*
D14*
X160071290Y-128350520D03*
D15*
X169068750Y-133350000D03*
D16*
X174148750Y-133350000D03*
X163988750Y-133350000D03*
D17*
X172068297Y-137349954D02*
X172879203Y-135890046D01*
X166529026Y-138429328D02*
X166568474Y-137850672D01*
D18*
X170338750Y-128270000D03*
D19*
X167798750Y-128270000D03*
D13*
X136258790Y-138510520D03*
D14*
X136258790Y-128350520D03*
D15*
X145256250Y-133350000D03*
D16*
X150336250Y-133350000D03*
X140176250Y-133350000D03*
D17*
X148255797Y-137349954D02*
X149066703Y-135890046D01*
X142716526Y-138429328D02*
X142755974Y-137850672D01*
D18*
X146526250Y-128270000D03*
D19*
X143986250Y-128270000D03*
D13*
X112446290Y-138510520D03*
D14*
X112446290Y-128350520D03*
D15*
X121443750Y-133350000D03*
D16*
X126523750Y-133350000D03*
X116363750Y-133350000D03*
D17*
X124443297Y-137349954D02*
X125254203Y-135890046D01*
X118904026Y-138429328D02*
X118943474Y-137850672D01*
D18*
X122713750Y-128270000D03*
D19*
X120173750Y-128270000D03*
D13*
X71000000Y-125000000D03*
D14*
X81160000Y-125000000D03*
D15*
X76200000Y-133350000D03*
D16*
X81280000Y-133350000D03*
X71120000Y-133350000D03*
D17*
X79199547Y-137349954D02*
X80010453Y-135890046D01*
X73660276Y-138429328D02*
X73699724Y-137850672D01*
D18*
X77470000Y-128270000D03*
D19*
X74930000Y-128270000D03*
D13*
X38627540Y-138510520D03*
D14*
X38627540Y-128350520D03*
D15*
X47625000Y-133350000D03*
D16*
X52705000Y-133350000D03*
X42545000Y-133350000D03*
D17*
X50624547Y-137349954D02*
X51435453Y-135890046D01*
X45085276Y-138429328D02*
X45124724Y-137850672D01*
D18*
X48895000Y-128270000D03*
D19*
X46355000Y-128270000D03*
D13*
X400577540Y-119460520D03*
D14*
X400577540Y-109300520D03*
D15*
X409575000Y-114300000D03*
D16*
X414655000Y-114300000D03*
X404495000Y-114300000D03*
D17*
X412574547Y-118299954D02*
X413385453Y-116840046D01*
X407035276Y-119379328D02*
X407074724Y-118800672D01*
D18*
X410845000Y-109220000D03*
D19*
X408305000Y-109220000D03*
D13*
X360096290Y-119460520D03*
D14*
X360096290Y-109300520D03*
D15*
X369093750Y-114300000D03*
D16*
X374173750Y-114300000D03*
X364013750Y-114300000D03*
D17*
X372093297Y-118299954D02*
X372904203Y-116840046D01*
X366554026Y-119379328D02*
X366593474Y-118800672D01*
D18*
X370363750Y-109220000D03*
D19*
X367823750Y-109220000D03*
D13*
X324377540Y-119460520D03*
D14*
X324377540Y-109300520D03*
D15*
X333375000Y-114300000D03*
D16*
X338455000Y-114300000D03*
X328295000Y-114300000D03*
D17*
X336374547Y-118299954D02*
X337185453Y-116840046D01*
X330835276Y-119379328D02*
X330874724Y-118800672D01*
D18*
X334645000Y-109220000D03*
D19*
X332105000Y-109220000D03*
D13*
X305327540Y-119460520D03*
D14*
X305327540Y-109300520D03*
D15*
X314325000Y-114300000D03*
D16*
X319405000Y-114300000D03*
X309245000Y-114300000D03*
D17*
X317324547Y-118299954D02*
X318135453Y-116840046D01*
X311785276Y-119379328D02*
X311824724Y-118800672D01*
D18*
X315595000Y-109220000D03*
D19*
X313055000Y-109220000D03*
D15*
X295275000Y-114300000D03*
D16*
X300355000Y-114300000D03*
X290195000Y-114300000D03*
D17*
X298274547Y-118299954D02*
X299085453Y-116840046D01*
X292735276Y-119379328D02*
X292774724Y-118800672D01*
D18*
X296545000Y-109220000D03*
D19*
X294005000Y-109220000D03*
D13*
X267227540Y-119460520D03*
D14*
X267227540Y-109300520D03*
D15*
X276225000Y-114300000D03*
D16*
X281305000Y-114300000D03*
X271145000Y-114300000D03*
D17*
X279224547Y-118299954D02*
X280035453Y-116840046D01*
X273685276Y-119379328D02*
X273724724Y-118800672D01*
D18*
X277495000Y-109220000D03*
D19*
X274955000Y-109220000D03*
D13*
X248177540Y-119460520D03*
D14*
X248177540Y-109300520D03*
D15*
X257175000Y-114300000D03*
D16*
X262255000Y-114300000D03*
X252095000Y-114300000D03*
D17*
X260174547Y-118299954D02*
X260985453Y-116840046D01*
X254635276Y-119379328D02*
X254674724Y-118800672D01*
D18*
X258445000Y-109220000D03*
D19*
X255905000Y-109220000D03*
D13*
X229127540Y-119460520D03*
D14*
X229127540Y-109300520D03*
D15*
X238125000Y-114300000D03*
D16*
X243205000Y-114300000D03*
X233045000Y-114300000D03*
D17*
X241124547Y-118299954D02*
X241935453Y-116840046D01*
X235585276Y-119379328D02*
X235624724Y-118800672D01*
D18*
X239395000Y-109220000D03*
D19*
X236855000Y-109220000D03*
D13*
X210077540Y-119460520D03*
D14*
X210077540Y-109300520D03*
D15*
X219075000Y-114300000D03*
D16*
X224155000Y-114300000D03*
X213995000Y-114300000D03*
D17*
X222074547Y-118299954D02*
X222885453Y-116840046D01*
X216535276Y-119379328D02*
X216574724Y-118800672D01*
D18*
X220345000Y-109220000D03*
D19*
X217805000Y-109220000D03*
D13*
X191027540Y-119460520D03*
D14*
X191027540Y-109300520D03*
D15*
X200025000Y-114300000D03*
D16*
X205105000Y-114300000D03*
X194945000Y-114300000D03*
D17*
X203024547Y-118299954D02*
X203835453Y-116840046D01*
X197485276Y-119379328D02*
X197524724Y-118800672D01*
D18*
X201295000Y-109220000D03*
D19*
X198755000Y-109220000D03*
D13*
X171977540Y-119460520D03*
D14*
X171977540Y-109300520D03*
D15*
X180975000Y-114300000D03*
D16*
X186055000Y-114300000D03*
X175895000Y-114300000D03*
D17*
X183974547Y-118299954D02*
X184785453Y-116840046D01*
X178435276Y-119379328D02*
X178474724Y-118800672D01*
D18*
X182245000Y-109220000D03*
D19*
X179705000Y-109220000D03*
D13*
X152927540Y-119460520D03*
D14*
X152927540Y-109300520D03*
D15*
X161925000Y-114300000D03*
D16*
X167005000Y-114300000D03*
X156845000Y-114300000D03*
D17*
X164924547Y-118299954D02*
X165735453Y-116840046D01*
X159385276Y-119379328D02*
X159424724Y-118800672D01*
D18*
X163195000Y-109220000D03*
D19*
X160655000Y-109220000D03*
D13*
X121971290Y-119460520D03*
D14*
X121971290Y-109300520D03*
D15*
X130968750Y-114300000D03*
D16*
X136048750Y-114300000D03*
X125888750Y-114300000D03*
D17*
X133968297Y-118299954D02*
X134779203Y-116840046D01*
X128429026Y-119379328D02*
X128468474Y-118800672D01*
D18*
X132238750Y-109220000D03*
D19*
X129698750Y-109220000D03*
D13*
X86252540Y-128985520D03*
D14*
X86252540Y-118825520D03*
D15*
X95250000Y-123825000D03*
D16*
X100330000Y-123825000D03*
X90170000Y-123825000D03*
D17*
X98249547Y-127824954D02*
X99060453Y-126365046D01*
X92710276Y-128904328D02*
X92749724Y-128325672D01*
D18*
X96520000Y-118745000D03*
D19*
X93980000Y-118745000D03*
D13*
X67202540Y-119460520D03*
D14*
X67202540Y-109300520D03*
D15*
X76200000Y-114300000D03*
D16*
X81280000Y-114300000D03*
X71120000Y-114300000D03*
D17*
X79199547Y-118299954D02*
X80010453Y-116840046D01*
X73660276Y-119379328D02*
X73699724Y-118800672D01*
D18*
X77470000Y-109220000D03*
D19*
X74930000Y-109220000D03*
D13*
X48152540Y-119460520D03*
D14*
X48152540Y-109300520D03*
D15*
X57150000Y-114300000D03*
D16*
X62230000Y-114300000D03*
X52070000Y-114300000D03*
D17*
X60149547Y-118299954D02*
X60960453Y-116840046D01*
X54610276Y-119379328D02*
X54649724Y-118800672D01*
D18*
X58420000Y-109220000D03*
D19*
X55880000Y-109220000D03*
D13*
X33655000Y-122555000D03*
D14*
X43815000Y-122555000D03*
D15*
X38100000Y-114300000D03*
D16*
X43180000Y-114300000D03*
X33020000Y-114300000D03*
D17*
X41099547Y-118299954D02*
X41910453Y-116840046D01*
X35560276Y-119379328D02*
X35599724Y-118800672D01*
D18*
X39370000Y-109220000D03*
D19*
X36830000Y-109220000D03*
D13*
X364858790Y-100410520D03*
D14*
X364858790Y-90250520D03*
D15*
X373856250Y-95250000D03*
D16*
X378936250Y-95250000D03*
X368776250Y-95250000D03*
D17*
X376855797Y-99249954D02*
X377666703Y-97790046D01*
X371316526Y-100329328D02*
X371355974Y-99750672D01*
D18*
X375126250Y-90170000D03*
D19*
X372586250Y-90170000D03*
D13*
X333902540Y-100410520D03*
D14*
X333902540Y-90250520D03*
D15*
X342900000Y-95250000D03*
D16*
X347980000Y-95250000D03*
X337820000Y-95250000D03*
D17*
X345899547Y-99249954D02*
X346710453Y-97790046D01*
X340360276Y-100329328D02*
X340399724Y-99750672D01*
D18*
X344170000Y-90170000D03*
D19*
X341630000Y-90170000D03*
D13*
X314852540Y-100410520D03*
D14*
X314852540Y-90250520D03*
D15*
X323850000Y-95250000D03*
D16*
X328930000Y-95250000D03*
X318770000Y-95250000D03*
D17*
X326849547Y-99249954D02*
X327660453Y-97790046D01*
X321310276Y-100329328D02*
X321349724Y-99750672D01*
D18*
X325120000Y-90170000D03*
D19*
X322580000Y-90170000D03*
D13*
X295802540Y-100410520D03*
D14*
X295802540Y-90250520D03*
D15*
X304800000Y-95250000D03*
D16*
X309880000Y-95250000D03*
X299720000Y-95250000D03*
D17*
X307799547Y-99249954D02*
X308610453Y-97790046D01*
X302260276Y-100329328D02*
X302299724Y-99750672D01*
D18*
X306070000Y-90170000D03*
D19*
X303530000Y-90170000D03*
D13*
X276752540Y-100410520D03*
D14*
X276752540Y-90250520D03*
D15*
X285750000Y-95250000D03*
D16*
X290830000Y-95250000D03*
X280670000Y-95250000D03*
D17*
X288749547Y-99249954D02*
X289560453Y-97790046D01*
X283210276Y-100329328D02*
X283249724Y-99750672D01*
D18*
X287020000Y-90170000D03*
D19*
X284480000Y-90170000D03*
D13*
X257702540Y-100410520D03*
D14*
X257702540Y-90250520D03*
D15*
X266700000Y-95250000D03*
D16*
X271780000Y-95250000D03*
X261620000Y-95250000D03*
D17*
X269699547Y-99249954D02*
X270510453Y-97790046D01*
X264160276Y-100329328D02*
X264199724Y-99750672D01*
D18*
X267970000Y-90170000D03*
D19*
X265430000Y-90170000D03*
D13*
X238652540Y-100410520D03*
D14*
X238652540Y-90250520D03*
D15*
X247650000Y-95250000D03*
D16*
X252730000Y-95250000D03*
X242570000Y-95250000D03*
D17*
X250649547Y-99249954D02*
X251460453Y-97790046D01*
X245110276Y-100329328D02*
X245149724Y-99750672D01*
D18*
X248920000Y-90170000D03*
D19*
X246380000Y-90170000D03*
D13*
X219602540Y-100410520D03*
D14*
X219602540Y-90250520D03*
D15*
X228600000Y-95250000D03*
D16*
X233680000Y-95250000D03*
X223520000Y-95250000D03*
D17*
X231599547Y-99249954D02*
X232410453Y-97790046D01*
X226060276Y-100329328D02*
X226099724Y-99750672D01*
D18*
X229870000Y-90170000D03*
D19*
X227330000Y-90170000D03*
D13*
X200552540Y-100410520D03*
D14*
X200552540Y-90250520D03*
D15*
X209550000Y-95250000D03*
D16*
X214630000Y-95250000D03*
X204470000Y-95250000D03*
D17*
X212549547Y-99249954D02*
X213360453Y-97790046D01*
X207010276Y-100329328D02*
X207049724Y-99750672D01*
D18*
X210820000Y-90170000D03*
D19*
X208280000Y-90170000D03*
D13*
X181502540Y-100410520D03*
D14*
X181502540Y-90250520D03*
D15*
X190500000Y-95250000D03*
D16*
X195580000Y-95250000D03*
X185420000Y-95250000D03*
D17*
X193499547Y-99249954D02*
X194310453Y-97790046D01*
X187960276Y-100329328D02*
X187999724Y-99750672D01*
D18*
X191770000Y-90170000D03*
D19*
X189230000Y-90170000D03*
D13*
X162452540Y-100410520D03*
D14*
X162452540Y-90250520D03*
D15*
X171450000Y-95250000D03*
D16*
X176530000Y-95250000D03*
X166370000Y-95250000D03*
D17*
X174449547Y-99249954D02*
X175260453Y-97790046D01*
X168910276Y-100329328D02*
X168949724Y-99750672D01*
D18*
X172720000Y-90170000D03*
D19*
X170180000Y-90170000D03*
D13*
X143402540Y-100410520D03*
D14*
X143402540Y-90250520D03*
D15*
X152400000Y-95250000D03*
D16*
X157480000Y-95250000D03*
X147320000Y-95250000D03*
D17*
X155399547Y-99249954D02*
X156210453Y-97790046D01*
X149860276Y-100329328D02*
X149899724Y-99750672D01*
D18*
X153670000Y-90170000D03*
D19*
X151130000Y-90170000D03*
D13*
X117208790Y-100410520D03*
D14*
X117208790Y-90250520D03*
D15*
X126206250Y-95250000D03*
D16*
X131286250Y-95250000D03*
X121126250Y-95250000D03*
D17*
X129205797Y-99249954D02*
X130016703Y-97790046D01*
X123666526Y-100329328D02*
X123705974Y-99750672D01*
D18*
X127476250Y-90170000D03*
D19*
X124936250Y-90170000D03*
D13*
X67202540Y-100410520D03*
D14*
X67202540Y-90250520D03*
D15*
X76200000Y-95250000D03*
D16*
X81280000Y-95250000D03*
X71120000Y-95250000D03*
D17*
X79199547Y-99249954D02*
X80010453Y-97790046D01*
X73660276Y-100329328D02*
X73699724Y-99750672D01*
D18*
X77470000Y-90170000D03*
D19*
X74930000Y-90170000D03*
D13*
X48152540Y-100410520D03*
D14*
X48152540Y-90250520D03*
D15*
X57150000Y-95250000D03*
D16*
X62230000Y-95250000D03*
X52070000Y-95250000D03*
D17*
X60149547Y-99249954D02*
X60960453Y-97790046D01*
X54610276Y-100329328D02*
X54649724Y-99750672D01*
D18*
X58420000Y-90170000D03*
D19*
X55880000Y-90170000D03*
D13*
X33020000Y-103505000D03*
D14*
X43180000Y-103505000D03*
D15*
X38100000Y-95250000D03*
D16*
X43180000Y-95250000D03*
X33020000Y-95250000D03*
D17*
X41099547Y-99249954D02*
X41910453Y-97790046D01*
X35560276Y-100329328D02*
X35599724Y-99750672D01*
D18*
X39370000Y-90170000D03*
D19*
X36830000Y-90170000D03*
D13*
X419627540Y-81360520D03*
D14*
X419627540Y-71200520D03*
D15*
X428625000Y-76200000D03*
D16*
X433705000Y-76200000D03*
X423545000Y-76200000D03*
D17*
X431624547Y-80199954D02*
X432435453Y-78740046D01*
X426085276Y-81279328D02*
X426124724Y-80700672D01*
D18*
X429895000Y-71120000D03*
D19*
X427355000Y-71120000D03*
D13*
X400577540Y-81360520D03*
D14*
X400577540Y-71200520D03*
D15*
X409575000Y-76200000D03*
D16*
X414655000Y-76200000D03*
X404495000Y-76200000D03*
D17*
X412574547Y-80199954D02*
X413385453Y-78740046D01*
X407035276Y-81279328D02*
X407074724Y-80700672D01*
D18*
X410845000Y-71120000D03*
D19*
X408305000Y-71120000D03*
D13*
X372002540Y-81360520D03*
D14*
X372002540Y-71200520D03*
D15*
X381000000Y-76200000D03*
D16*
X386080000Y-76200000D03*
X375920000Y-76200000D03*
D17*
X383999547Y-80199954D02*
X384810453Y-78740046D01*
X378460276Y-81279328D02*
X378499724Y-80700672D01*
D18*
X382270000Y-71120000D03*
D19*
X379730000Y-71120000D03*
D13*
X348190040Y-81360520D03*
D14*
X348190040Y-71200520D03*
D15*
X357187500Y-76200000D03*
D16*
X362267500Y-76200000D03*
X352107500Y-76200000D03*
D17*
X360187047Y-80199954D02*
X360997953Y-78740046D01*
X354647776Y-81279328D02*
X354687224Y-80700672D01*
D18*
X358457500Y-71120000D03*
D19*
X355917500Y-71120000D03*
D13*
X329140040Y-81360520D03*
D14*
X329140040Y-71200520D03*
D15*
X338137500Y-76200000D03*
D16*
X343217500Y-76200000D03*
X333057500Y-76200000D03*
D17*
X341137047Y-80199954D02*
X341947953Y-78740046D01*
X335597776Y-81279328D02*
X335637224Y-80700672D01*
D18*
X339407500Y-71120000D03*
D19*
X336867500Y-71120000D03*
D13*
X310090040Y-81360520D03*
D14*
X310090040Y-71200520D03*
D15*
X319087500Y-76200000D03*
D16*
X324167500Y-76200000D03*
X314007500Y-76200000D03*
D17*
X322087047Y-80199954D02*
X322897953Y-78740046D01*
X316547776Y-81279328D02*
X316587224Y-80700672D01*
D18*
X320357500Y-71120000D03*
D19*
X317817500Y-71120000D03*
D13*
X291040040Y-81360520D03*
D14*
X291040040Y-71200520D03*
D15*
X300037500Y-76200000D03*
D16*
X305117500Y-76200000D03*
X294957500Y-76200000D03*
D17*
X303037047Y-80199954D02*
X303847953Y-78740046D01*
X297497776Y-81279328D02*
X297537224Y-80700672D01*
D18*
X301307500Y-71120000D03*
D19*
X298767500Y-71120000D03*
D13*
X271990040Y-81360520D03*
D14*
X271990040Y-71200520D03*
D15*
X280987500Y-76200000D03*
D16*
X286067500Y-76200000D03*
X275907500Y-76200000D03*
D17*
X283987047Y-80199954D02*
X284797953Y-78740046D01*
X278447776Y-81279328D02*
X278487224Y-80700672D01*
D18*
X282257500Y-71120000D03*
D19*
X279717500Y-71120000D03*
D13*
X252940040Y-81360520D03*
D14*
X252940040Y-71200520D03*
D15*
X261937500Y-76200000D03*
D16*
X267017500Y-76200000D03*
X256857500Y-76200000D03*
D17*
X264937047Y-80199954D02*
X265747953Y-78740046D01*
X259397776Y-81279328D02*
X259437224Y-80700672D01*
D18*
X263207500Y-71120000D03*
D19*
X260667500Y-71120000D03*
D13*
X233890040Y-81360520D03*
D14*
X233890040Y-71200520D03*
D15*
X242887500Y-76200000D03*
D16*
X247967500Y-76200000D03*
X237807500Y-76200000D03*
D17*
X245887047Y-80199954D02*
X246697953Y-78740046D01*
X240347776Y-81279328D02*
X240387224Y-80700672D01*
D18*
X244157500Y-71120000D03*
D19*
X241617500Y-71120000D03*
D13*
X214840040Y-81360520D03*
D14*
X214840040Y-71200520D03*
D15*
X223837500Y-76200000D03*
D16*
X228917500Y-76200000D03*
X218757500Y-76200000D03*
D17*
X226837047Y-80199954D02*
X227647953Y-78740046D01*
X221297776Y-81279328D02*
X221337224Y-80700672D01*
D18*
X225107500Y-71120000D03*
D19*
X222567500Y-71120000D03*
D13*
X195790040Y-81360520D03*
D14*
X195790040Y-71200520D03*
D15*
X204787500Y-76200000D03*
D16*
X209867500Y-76200000D03*
X199707500Y-76200000D03*
D17*
X207787047Y-80199954D02*
X208597953Y-78740046D01*
X202247776Y-81279328D02*
X202287224Y-80700672D01*
D18*
X206057500Y-71120000D03*
D19*
X203517500Y-71120000D03*
D13*
X176740040Y-81360520D03*
D14*
X176740040Y-71200520D03*
D15*
X185737500Y-76200000D03*
D16*
X190817500Y-76200000D03*
X180657500Y-76200000D03*
D17*
X188737047Y-80199954D02*
X189547953Y-78740046D01*
X183197776Y-81279328D02*
X183237224Y-80700672D01*
D18*
X187007500Y-71120000D03*
D19*
X184467500Y-71120000D03*
D13*
X157690040Y-81360520D03*
D14*
X157690040Y-71200520D03*
D15*
X166687500Y-76200000D03*
D16*
X171767500Y-76200000D03*
X161607500Y-76200000D03*
D17*
X169687047Y-80199954D02*
X170497953Y-78740046D01*
X164147776Y-81279328D02*
X164187224Y-80700672D01*
D18*
X167957500Y-71120000D03*
D19*
X165417500Y-71120000D03*
D13*
X138640040Y-81360520D03*
D14*
X138640040Y-71200520D03*
D15*
X147637500Y-76200000D03*
D16*
X152717500Y-76200000D03*
X142557500Y-76200000D03*
D17*
X150637047Y-80199954D02*
X151447953Y-78740046D01*
X145097776Y-81279328D02*
X145137224Y-80700672D01*
D18*
X148907500Y-71120000D03*
D19*
X146367500Y-71120000D03*
D13*
X114827540Y-81360520D03*
D14*
X114827540Y-71200520D03*
D15*
X123825000Y-76200000D03*
D16*
X128905000Y-76200000D03*
X118745000Y-76200000D03*
D17*
X126824547Y-80199954D02*
X127635453Y-78740046D01*
X121285276Y-81279328D02*
X121324724Y-80700672D01*
D18*
X125095000Y-71120000D03*
D19*
X122555000Y-71120000D03*
D13*
X86252540Y-90885520D03*
D14*
X86252540Y-80725520D03*
D15*
X95250000Y-85725000D03*
D16*
X100330000Y-85725000D03*
X90170000Y-85725000D03*
D17*
X98249547Y-89724954D02*
X99060453Y-88265046D01*
X92710276Y-90804328D02*
X92749724Y-90225672D01*
D18*
X96520000Y-80645000D03*
D19*
X93980000Y-80645000D03*
D13*
X67202540Y-81360520D03*
D14*
X67202540Y-71200520D03*
D15*
X76200000Y-76200000D03*
D16*
X81280000Y-76200000D03*
X71120000Y-76200000D03*
D17*
X79199547Y-80199954D02*
X80010453Y-78740046D01*
X73660276Y-81279328D02*
X73699724Y-80700672D01*
D18*
X77470000Y-71120000D03*
D19*
X74930000Y-71120000D03*
D13*
X48152540Y-81360520D03*
D14*
X48152540Y-71200520D03*
D15*
X57150000Y-76200000D03*
D16*
X62230000Y-76200000D03*
X52070000Y-76200000D03*
D17*
X60149547Y-80199954D02*
X60960453Y-78740046D01*
X54610276Y-81279328D02*
X54649724Y-80700672D01*
D18*
X58420000Y-71120000D03*
D19*
X55880000Y-71120000D03*
D13*
X33020000Y-84455000D03*
D14*
X43180000Y-84455000D03*
D15*
X38100000Y-76200000D03*
D16*
X43180000Y-76200000D03*
X33020000Y-76200000D03*
D17*
X41099547Y-80199954D02*
X41910453Y-78740046D01*
X35560276Y-81279328D02*
X35599724Y-80700672D01*
D18*
X39370000Y-71120000D03*
D19*
X36830000Y-71120000D03*
D13*
X419627540Y-62310520D03*
D14*
X419627540Y-52150520D03*
D15*
X428625000Y-57150000D03*
D16*
X433705000Y-57150000D03*
X423545000Y-57150000D03*
D17*
X431624547Y-61149954D02*
X432435453Y-59690046D01*
X426085276Y-62229328D02*
X426124724Y-61650672D01*
D18*
X429895000Y-52070000D03*
D19*
X427355000Y-52070000D03*
D13*
X400577540Y-62310520D03*
D14*
X400577540Y-52150520D03*
D15*
X409575000Y-57150000D03*
D16*
X414655000Y-57150000D03*
X404495000Y-57150000D03*
D17*
X412574547Y-61149954D02*
X413385453Y-59690046D01*
X407035276Y-62229328D02*
X407074724Y-61650672D01*
D18*
X410845000Y-52070000D03*
D19*
X408305000Y-52070000D03*
D13*
X367240040Y-62310520D03*
D14*
X367240040Y-52150520D03*
D15*
X376237500Y-57150000D03*
D16*
X381317500Y-57150000D03*
X371157500Y-57150000D03*
D17*
X379237047Y-61149954D02*
X380047953Y-59690046D01*
X373697776Y-62229328D02*
X373737224Y-61650672D01*
D18*
X377507500Y-52070000D03*
D19*
X374967500Y-52070000D03*
D13*
X338665040Y-62310520D03*
D14*
X338665040Y-52150520D03*
D15*
X347662500Y-57150000D03*
D16*
X352742500Y-57150000D03*
X342582500Y-57150000D03*
D17*
X350662047Y-61149954D02*
X351472953Y-59690046D01*
X345122776Y-62229328D02*
X345162224Y-61650672D01*
D18*
X348932500Y-52070000D03*
D19*
X346392500Y-52070000D03*
D13*
X319615040Y-62310520D03*
D14*
X319615040Y-52150520D03*
D15*
X328612500Y-57150000D03*
D16*
X333692500Y-57150000D03*
X323532500Y-57150000D03*
D17*
X331612047Y-61149954D02*
X332422953Y-59690046D01*
X326072776Y-62229328D02*
X326112224Y-61650672D01*
D18*
X329882500Y-52070000D03*
D19*
X327342500Y-52070000D03*
D13*
X300565040Y-62310520D03*
D14*
X300565040Y-52150520D03*
D15*
X309562500Y-57150000D03*
D16*
X314642500Y-57150000D03*
X304482500Y-57150000D03*
D17*
X312562047Y-61149954D02*
X313372953Y-59690046D01*
X307022776Y-62229328D02*
X307062224Y-61650672D01*
D18*
X310832500Y-52070000D03*
D19*
X308292500Y-52070000D03*
D13*
X281515040Y-62310520D03*
D14*
X281515040Y-52150520D03*
D15*
X290512500Y-57150000D03*
D16*
X295592500Y-57150000D03*
X285432500Y-57150000D03*
D17*
X293512047Y-61149954D02*
X294322953Y-59690046D01*
X287972776Y-62229328D02*
X288012224Y-61650672D01*
D18*
X291782500Y-52070000D03*
D19*
X289242500Y-52070000D03*
D13*
X262465040Y-62310520D03*
D14*
X262465040Y-52150520D03*
D15*
X271462500Y-57150000D03*
D16*
X276542500Y-57150000D03*
X266382500Y-57150000D03*
D17*
X274462047Y-61149954D02*
X275272953Y-59690046D01*
X268922776Y-62229328D02*
X268962224Y-61650672D01*
D18*
X272732500Y-52070000D03*
D19*
X270192500Y-52070000D03*
D13*
X243415040Y-62310520D03*
D14*
X243415040Y-52150520D03*
D15*
X252412500Y-57150000D03*
D16*
X257492500Y-57150000D03*
X247332500Y-57150000D03*
D17*
X255412047Y-61149954D02*
X256222953Y-59690046D01*
X249872776Y-62229328D02*
X249912224Y-61650672D01*
D18*
X253682500Y-52070000D03*
D19*
X251142500Y-52070000D03*
D13*
X224365040Y-62310520D03*
D14*
X224365040Y-52150520D03*
D15*
X233362500Y-57150000D03*
D16*
X238442500Y-57150000D03*
X228282500Y-57150000D03*
D17*
X236362047Y-61149954D02*
X237172953Y-59690046D01*
X230822776Y-62229328D02*
X230862224Y-61650672D01*
D18*
X234632500Y-52070000D03*
D19*
X232092500Y-52070000D03*
D13*
X205315040Y-62310520D03*
D14*
X205315040Y-52150520D03*
D15*
X214312500Y-57150000D03*
D16*
X219392500Y-57150000D03*
X209232500Y-57150000D03*
D17*
X217312047Y-61149954D02*
X218122953Y-59690046D01*
X211772776Y-62229328D02*
X211812224Y-61650672D01*
D18*
X215582500Y-52070000D03*
D19*
X213042500Y-52070000D03*
D13*
X186265040Y-62310520D03*
D14*
X186265040Y-52150520D03*
D15*
X195262500Y-57150000D03*
D16*
X200342500Y-57150000D03*
X190182500Y-57150000D03*
D17*
X198262047Y-61149954D02*
X199072953Y-59690046D01*
X192722776Y-62229328D02*
X192762224Y-61650672D01*
D18*
X196532500Y-52070000D03*
D19*
X193992500Y-52070000D03*
D13*
X167215040Y-62310520D03*
D14*
X167215040Y-52150520D03*
D15*
X176212500Y-57150000D03*
D16*
X181292500Y-57150000D03*
X171132500Y-57150000D03*
D17*
X179212047Y-61149954D02*
X180022953Y-59690046D01*
X173672776Y-62229328D02*
X173712224Y-61650672D01*
D18*
X177482500Y-52070000D03*
D19*
X174942500Y-52070000D03*
D13*
X148165040Y-62310520D03*
D14*
X148165040Y-52150520D03*
D15*
X157162500Y-57150000D03*
D16*
X162242500Y-57150000D03*
X152082500Y-57150000D03*
D17*
X160162047Y-61149954D02*
X160972953Y-59690046D01*
X154622776Y-62229328D02*
X154662224Y-61650672D01*
D18*
X158432500Y-52070000D03*
D19*
X155892500Y-52070000D03*
D13*
X129115040Y-62310520D03*
D14*
X129115040Y-52150520D03*
D15*
X138112500Y-57150000D03*
D16*
X143192500Y-57150000D03*
X133032500Y-57150000D03*
D17*
X141112047Y-61149954D02*
X141922953Y-59690046D01*
X135572776Y-62229328D02*
X135612224Y-61650672D01*
D18*
X139382500Y-52070000D03*
D19*
X136842500Y-52070000D03*
D13*
X110065040Y-62310520D03*
D14*
X110065040Y-52150520D03*
D15*
X119062500Y-57150000D03*
D16*
X124142500Y-57150000D03*
X113982500Y-57150000D03*
D17*
X122062047Y-61149954D02*
X122872953Y-59690046D01*
X116522776Y-62229328D02*
X116562224Y-61650672D01*
D18*
X120332500Y-52070000D03*
D19*
X117792500Y-52070000D03*
D13*
X86252540Y-62310520D03*
D14*
X86252540Y-52150520D03*
D15*
X95250000Y-57150000D03*
D16*
X100330000Y-57150000D03*
X90170000Y-57150000D03*
D17*
X98249547Y-61149954D02*
X99060453Y-59690046D01*
X92710276Y-62229328D02*
X92749724Y-61650672D01*
D18*
X96520000Y-52070000D03*
D19*
X93980000Y-52070000D03*
D13*
X67202540Y-62310520D03*
D14*
X67202540Y-52150520D03*
D15*
X76200000Y-57150000D03*
D16*
X81280000Y-57150000D03*
X71120000Y-57150000D03*
D17*
X79199547Y-61149954D02*
X80010453Y-59690046D01*
X73660276Y-62229328D02*
X73699724Y-61650672D01*
D18*
X77470000Y-52070000D03*
D19*
X74930000Y-52070000D03*
D13*
X48152540Y-62310520D03*
D14*
X48152540Y-52150520D03*
D15*
X57150000Y-57150000D03*
D16*
X62230000Y-57150000D03*
X52070000Y-57150000D03*
D17*
X60149547Y-61149954D02*
X60960453Y-59690046D01*
X54610276Y-62229328D02*
X54649724Y-61650672D01*
D18*
X58420000Y-52070000D03*
D19*
X55880000Y-52070000D03*
D13*
X33020000Y-65405000D03*
D14*
X43180000Y-65405000D03*
D15*
X38100000Y-57150000D03*
D16*
X43180000Y-57150000D03*
X33020000Y-57150000D03*
D17*
X41099547Y-61149954D02*
X41910453Y-59690046D01*
X35560276Y-62229328D02*
X35599724Y-61650672D01*
D18*
X39370000Y-52070000D03*
D19*
X36830000Y-52070000D03*
D13*
X419627540Y-33735520D03*
D14*
X419627540Y-23575520D03*
D15*
X428625000Y-28575000D03*
D16*
X433705000Y-28575000D03*
X423545000Y-28575000D03*
D17*
X431624547Y-32574954D02*
X432435453Y-31115046D01*
X426085276Y-33654328D02*
X426124724Y-33075672D01*
D18*
X429895000Y-23495000D03*
D19*
X427355000Y-23495000D03*
D13*
X400577540Y-33735520D03*
D14*
X400577540Y-23575520D03*
D15*
X409575000Y-28575000D03*
D16*
X414655000Y-28575000D03*
X404495000Y-28575000D03*
D17*
X412574547Y-32574954D02*
X413385453Y-31115046D01*
X407035276Y-33654328D02*
X407074724Y-33075672D01*
D18*
X410845000Y-23495000D03*
D19*
X408305000Y-23495000D03*
D13*
X376765040Y-33735520D03*
D14*
X376765040Y-23575520D03*
D15*
X385762500Y-28575000D03*
D16*
X390842500Y-28575000D03*
X380682500Y-28575000D03*
D17*
X388762047Y-32574954D02*
X389572953Y-31115046D01*
X383222776Y-33654328D02*
X383262224Y-33075672D01*
D18*
X387032500Y-23495000D03*
D19*
X384492500Y-23495000D03*
D13*
X357715040Y-33735520D03*
D14*
X357715040Y-23575520D03*
D15*
X366712500Y-28575000D03*
D16*
X371792500Y-28575000D03*
X361632500Y-28575000D03*
D17*
X369712047Y-32574954D02*
X370522953Y-31115046D01*
X364172776Y-33654328D02*
X364212224Y-33075672D01*
D18*
X367982500Y-23495000D03*
D19*
X365442500Y-23495000D03*
D13*
X338665040Y-33735520D03*
D14*
X338665040Y-23575520D03*
D15*
X347662500Y-28575000D03*
D16*
X352742500Y-28575000D03*
X342582500Y-28575000D03*
D17*
X350662047Y-32574954D02*
X351472953Y-31115046D01*
X345122776Y-33654328D02*
X345162224Y-33075672D01*
D18*
X348932500Y-23495000D03*
D19*
X346392500Y-23495000D03*
D13*
X319615040Y-33735520D03*
D14*
X319615040Y-23575520D03*
D15*
X328612500Y-28575000D03*
D16*
X333692500Y-28575000D03*
X323532500Y-28575000D03*
D17*
X331612047Y-32574954D02*
X332422953Y-31115046D01*
X326072776Y-33654328D02*
X326112224Y-33075672D01*
D18*
X329882500Y-23495000D03*
D19*
X327342500Y-23495000D03*
D13*
X291040040Y-33735520D03*
D14*
X291040040Y-23575520D03*
D15*
X300037500Y-28575000D03*
D16*
X305117500Y-28575000D03*
X294957500Y-28575000D03*
D17*
X303037047Y-32574954D02*
X303847953Y-31115046D01*
X297497776Y-33654328D02*
X297537224Y-33075672D01*
D18*
X301307500Y-23495000D03*
D19*
X298767500Y-23495000D03*
D13*
X271990040Y-33735520D03*
D14*
X271990040Y-23575520D03*
D15*
X280987500Y-28575000D03*
D16*
X286067500Y-28575000D03*
X275907500Y-28575000D03*
D17*
X283987047Y-32574954D02*
X284797953Y-31115046D01*
X278447776Y-33654328D02*
X278487224Y-33075672D01*
D18*
X282257500Y-23495000D03*
D19*
X279717500Y-23495000D03*
D13*
X252940040Y-33735520D03*
D14*
X252940040Y-23575520D03*
D15*
X261937500Y-28575000D03*
D16*
X267017500Y-28575000D03*
X256857500Y-28575000D03*
D17*
X264937047Y-32574954D02*
X265747953Y-31115046D01*
X259397776Y-33654328D02*
X259437224Y-33075672D01*
D18*
X263207500Y-23495000D03*
D19*
X260667500Y-23495000D03*
D13*
X233890040Y-33735520D03*
D14*
X233890040Y-23575520D03*
D15*
X242887500Y-28575000D03*
D16*
X247967500Y-28575000D03*
X237807500Y-28575000D03*
D17*
X245887047Y-32574954D02*
X246697953Y-31115046D01*
X240347776Y-33654328D02*
X240387224Y-33075672D01*
D18*
X244157500Y-23495000D03*
D19*
X241617500Y-23495000D03*
D13*
X205315040Y-33735520D03*
D14*
X205315040Y-23575520D03*
D15*
X214312500Y-28575000D03*
D16*
X219392500Y-28575000D03*
X209232500Y-28575000D03*
D17*
X217312047Y-32574954D02*
X218122953Y-31115046D01*
X211772776Y-33654328D02*
X211812224Y-33075672D01*
D18*
X215582500Y-23495000D03*
D19*
X213042500Y-23495000D03*
D13*
X186265040Y-33735520D03*
D14*
X186265040Y-23575520D03*
D15*
X195262500Y-28575000D03*
D16*
X200342500Y-28575000D03*
X190182500Y-28575000D03*
D17*
X198262047Y-32574954D02*
X199072953Y-31115046D01*
X192722776Y-33654328D02*
X192762224Y-33075672D01*
D18*
X196532500Y-23495000D03*
D19*
X193992500Y-23495000D03*
D13*
X167215040Y-33735520D03*
D14*
X167215040Y-23575520D03*
D15*
X176212500Y-28575000D03*
D16*
X181292500Y-28575000D03*
X171132500Y-28575000D03*
D17*
X179212047Y-32574954D02*
X180022953Y-31115046D01*
X173672776Y-33654328D02*
X173712224Y-33075672D01*
D18*
X177482500Y-23495000D03*
D19*
X174942500Y-23495000D03*
D13*
X148165040Y-33735520D03*
D14*
X148165040Y-23575520D03*
D15*
X157162500Y-28575000D03*
D16*
X162242500Y-28575000D03*
X152082500Y-28575000D03*
D17*
X160162047Y-32574954D02*
X160972953Y-31115046D01*
X154622776Y-33654328D02*
X154662224Y-33075672D01*
D18*
X158432500Y-23495000D03*
D19*
X155892500Y-23495000D03*
D13*
X110065040Y-33735520D03*
D14*
X110065040Y-23575520D03*
D15*
X119062500Y-28575000D03*
D16*
X124142500Y-28575000D03*
X113982500Y-28575000D03*
D17*
X122062047Y-32574954D02*
X122872953Y-31115046D01*
X116522776Y-33654328D02*
X116562224Y-33075672D01*
D18*
X120332500Y-23495000D03*
D19*
X117792500Y-23495000D03*
D13*
X67202540Y-33735520D03*
D14*
X67202540Y-23575520D03*
D15*
X76200000Y-28575000D03*
D16*
X81280000Y-28575000D03*
X71120000Y-28575000D03*
D17*
X79199547Y-32574954D02*
X80010453Y-31115046D01*
X73660276Y-33654328D02*
X73699724Y-33075672D01*
D18*
X77470000Y-23495000D03*
D19*
X74930000Y-23495000D03*
D13*
X48152540Y-33735520D03*
D14*
X48152540Y-23575520D03*
D15*
X57150000Y-28575000D03*
D16*
X62230000Y-28575000D03*
X52070000Y-28575000D03*
D17*
X60149547Y-32574954D02*
X60960453Y-31115046D01*
X54610276Y-33654328D02*
X54649724Y-33075672D01*
D18*
X58420000Y-23495000D03*
D19*
X55880000Y-23495000D03*
D13*
X33020000Y-36830000D03*
D14*
X43180000Y-36830000D03*
D15*
X38100000Y-28575000D03*
D16*
X43180000Y-28575000D03*
X33020000Y-28575000D03*
D17*
X41099547Y-32574954D02*
X41910453Y-31115046D01*
X35560276Y-33654328D02*
X35599724Y-33075672D01*
D18*
X39370000Y-23495000D03*
D19*
X36830000Y-23495000D03*
D20*
X396680000Y-88000000D03*
X399220000Y-88000000D03*
X401760000Y-88000000D03*
X404300000Y-88000000D03*
X406840000Y-88000000D03*
X409380000Y-88000000D03*
X411920000Y-88000000D03*
X414460000Y-88000000D03*
X417000000Y-88000000D03*
X419540000Y-88000000D03*
X422080000Y-88000000D03*
X424620000Y-88000000D03*
X427160000Y-88000000D03*
X429700000Y-88000000D03*
X429700000Y-103240000D03*
X427160000Y-103240000D03*
X424620000Y-103240000D03*
X422080000Y-103240000D03*
X419540000Y-103240000D03*
X417000000Y-103240000D03*
X414460000Y-103240000D03*
X411920000Y-103240000D03*
X409380000Y-103240000D03*
X406840000Y-103240000D03*
X404300000Y-103240000D03*
X401760000Y-103240000D03*
X399220000Y-103240000D03*
X396680000Y-103240000D03*
D12*
X63500000Y-133350000D03*
X63500000Y-42862500D03*
D21*
X86106000Y-69596000D03*
X402500000Y-22101299D03*
X422000000Y-73000000D03*
X60555000Y-104500000D03*
X415801500Y-46000000D03*
X434500000Y-37500000D03*
X351000000Y-37500000D03*
X294000000Y-37500000D03*
X319500000Y-135500000D03*
X380000000Y-36500000D03*
X434500000Y-39000000D03*
X303500000Y-39500000D03*
X255778000Y-37846000D03*
X417500000Y-25500000D03*
X217678000Y-36576000D03*
X435500000Y-26000000D03*
X332000000Y-37500000D03*
X416500000Y-38500000D03*
X415500000Y-47000000D03*
X98298000Y-133096000D03*
X98552000Y-36322000D03*
X415500000Y-110500000D03*
X336000000Y-105000000D03*
X84948845Y-92445144D03*
X382500000Y-90500000D03*
X326500000Y-126500000D03*
X65024000Y-122682000D03*
X403000000Y-92500000D03*
X362000000Y-125500000D03*
X112268000Y-114046000D03*
X418500000Y-93500000D03*
D22*
X33020000Y-36830000D02*
X35580000Y-34270000D01*
X35580000Y-34270000D02*
X35580000Y-33365000D01*
X400577540Y-23575520D02*
X400577540Y-24806150D01*
X403106290Y-89543710D02*
X404300000Y-88350000D01*
X400577540Y-24806150D02*
X401915790Y-26144400D01*
X401915790Y-26144400D02*
X401915790Y-85487014D01*
X401915790Y-85487014D02*
X400566290Y-86836514D01*
X400566290Y-86836514D02*
X400566290Y-88844450D01*
X400566290Y-88844450D02*
X401265550Y-89543710D01*
X401265550Y-89543710D02*
X403106290Y-89543710D01*
X404300000Y-88350000D02*
X404300000Y-88000000D01*
X419540000Y-88000000D02*
X419540000Y-83113111D01*
X419540000Y-83113111D02*
X418384209Y-81957320D01*
X418384209Y-73674481D02*
X419627540Y-72431150D01*
X418384209Y-81957320D02*
X418384209Y-73674481D01*
X419627540Y-72431150D02*
X419627540Y-71200520D01*
X86252540Y-80725520D02*
X86252540Y-69742540D01*
X86252540Y-69742540D02*
X86106000Y-69596000D01*
X401760000Y-88000000D02*
X401760000Y-86469000D01*
X401760000Y-86469000D02*
X402500000Y-85729000D01*
X402500000Y-85729000D02*
X402500000Y-22101299D01*
X400577540Y-52150520D02*
X400577540Y-53381150D01*
X400577540Y-53381150D02*
X399220000Y-54738690D01*
X399220000Y-54738690D02*
X399220000Y-86469000D01*
X399220000Y-86469000D02*
X399220000Y-88000000D01*
X424620000Y-88000000D02*
X424620000Y-87650000D01*
X424620000Y-87650000D02*
X424142412Y-87172412D01*
X424142412Y-87172412D02*
X424142412Y-77444606D01*
X424142412Y-77444606D02*
X424789606Y-76797412D01*
X424789606Y-76797412D02*
X424789606Y-63257892D01*
X424789606Y-63257892D02*
X419627540Y-58095826D01*
X419627540Y-58095826D02*
X419627540Y-53381150D01*
X419627540Y-53381150D02*
X419627540Y-52150520D01*
X422000000Y-73000000D02*
X422000000Y-87920000D01*
X422000000Y-87920000D02*
X422080000Y-88000000D01*
X35580000Y-100040000D02*
X33020000Y-102600000D01*
X33020000Y-102600000D02*
X33020000Y-103505000D01*
X35580000Y-119090000D02*
X33655000Y-121015000D01*
X33655000Y-121015000D02*
X33655000Y-122555000D01*
X71000000Y-125000000D02*
X73000000Y-127000000D01*
X73000000Y-127000000D02*
X73000000Y-135825578D01*
X73000000Y-135825578D02*
X73680000Y-136505578D01*
X73680000Y-136505578D02*
X73680000Y-138140000D01*
X60555000Y-117570000D02*
X60555000Y-104500000D01*
X60555000Y-104500000D02*
X60555000Y-98520000D01*
X51030000Y-136620000D02*
X51030000Y-127095000D01*
X51030000Y-127095000D02*
X41505000Y-117570000D01*
X41505000Y-117570000D02*
X41505000Y-98520000D01*
X41505000Y-79470000D02*
X41505000Y-95417018D01*
X41505000Y-95417018D02*
X41505000Y-98520000D01*
X60555000Y-79470000D02*
X60555000Y-98520000D01*
X60555000Y-60420000D02*
X60555000Y-79470000D01*
X60555000Y-31845000D02*
X60555000Y-60420000D01*
X41505000Y-60420000D02*
X41505000Y-79470000D01*
X41505000Y-31845000D02*
X41505000Y-60420000D01*
X417000000Y-103240000D02*
X417000000Y-90038160D01*
X417000000Y-90038160D02*
X415806290Y-88844450D01*
X415806290Y-88844450D02*
X415806290Y-85693710D01*
X415806290Y-85693710D02*
X416500000Y-85000000D01*
X416500000Y-46698500D02*
X415801500Y-46000000D01*
X416500000Y-85000000D02*
X416500000Y-46698500D01*
X141517500Y-60420000D02*
X143021690Y-58915810D01*
X143021690Y-58915810D02*
X143268708Y-58915810D01*
X143268708Y-58915810D02*
X146921709Y-55262809D01*
X146921709Y-55262809D02*
X146921709Y-45490791D01*
X146921709Y-45490791D02*
X159063310Y-33349190D01*
X159063310Y-33349190D02*
X160567500Y-31845000D01*
X151042500Y-79470000D02*
X151042500Y-69945000D01*
X151042500Y-69945000D02*
X141517500Y-60420000D01*
X127230000Y-79470000D02*
X127230000Y-65182500D01*
X127230000Y-65182500D02*
X122467500Y-60420000D01*
X148661250Y-136620000D02*
X148661250Y-133221342D01*
X148661250Y-133221342D02*
X145103609Y-129663701D01*
X134373750Y-120720178D02*
X134373750Y-119579178D01*
X145103609Y-129663701D02*
X143317273Y-129663701D01*
X143317273Y-129663701D02*
X134373750Y-120720178D01*
X134373750Y-119579178D02*
X134373750Y-117570000D01*
X165330000Y-117570000D02*
X165330000Y-108045000D01*
X165330000Y-108045000D02*
X155805000Y-98520000D01*
X129611250Y-98520000D02*
X129611250Y-81851250D01*
X129611250Y-81851250D02*
X127230000Y-79470000D01*
X134373750Y-117570000D02*
X134373750Y-103282500D01*
X134373750Y-103282500D02*
X129611250Y-98520000D01*
X155805000Y-98520000D02*
X155805000Y-84232500D01*
X155805000Y-84232500D02*
X151042500Y-79470000D01*
X434500000Y-37500000D02*
X435915790Y-38915790D01*
X435915790Y-38915790D02*
X435915790Y-94134210D01*
X435915790Y-94134210D02*
X427160000Y-102890000D01*
X427160000Y-102890000D02*
X427160000Y-103240000D01*
X351000000Y-37500000D02*
X351000000Y-31912500D01*
X351000000Y-31912500D02*
X351067500Y-31845000D01*
X293917500Y-60420000D02*
X293917500Y-37582500D01*
X293917500Y-37582500D02*
X294000000Y-37500000D01*
X319500000Y-135500000D02*
X319500000Y-119340000D01*
X319500000Y-119340000D02*
X317730000Y-117570000D01*
X317730000Y-117570000D02*
X317730000Y-108045000D01*
X317730000Y-108045000D02*
X308205000Y-98520000D01*
X298680000Y-117570000D02*
X298680000Y-108045000D01*
X298680000Y-108045000D02*
X289155000Y-98520000D01*
X308205000Y-98520000D02*
X308205000Y-84232500D01*
X308205000Y-84232500D02*
X303442500Y-79470000D01*
X289155000Y-98520000D02*
X289155000Y-84232500D01*
X289155000Y-84232500D02*
X284392500Y-79470000D01*
X303442500Y-79470000D02*
X303442500Y-69945000D01*
X303442500Y-69945000D02*
X293917500Y-60420000D01*
X284392500Y-79470000D02*
X284392500Y-69945000D01*
X284392500Y-69945000D02*
X274867500Y-60420000D01*
X406840000Y-88000000D02*
X406840000Y-87650000D01*
X406840000Y-88000000D02*
X406840000Y-96121840D01*
X406840000Y-96121840D02*
X413113710Y-102395550D01*
X413113710Y-102395550D02*
X413113710Y-115427112D01*
X412980000Y-115560822D02*
X412980000Y-117570000D01*
X413113710Y-115427112D02*
X412980000Y-115560822D01*
X412980000Y-136620000D02*
X412980000Y-117570000D01*
X380000000Y-36500000D02*
X380000000Y-60062500D01*
X380000000Y-60062500D02*
X379642500Y-60420000D01*
X377261250Y-98520000D02*
X377261250Y-86613750D01*
X377261250Y-86613750D02*
X384405000Y-79470000D01*
X384405000Y-79470000D02*
X384405000Y-65182500D01*
X384405000Y-65182500D02*
X379642500Y-60420000D01*
X360592500Y-79470000D02*
X360592500Y-69945000D01*
X360592500Y-69945000D02*
X351067500Y-60420000D01*
X434500000Y-39000000D02*
X435331580Y-39831580D01*
X303442500Y-31845000D02*
X303442500Y-39442500D01*
X303442500Y-39442500D02*
X303500000Y-39500000D01*
X424620000Y-103240000D02*
X424620000Y-102890000D01*
X424620000Y-102890000D02*
X435331580Y-92178420D01*
X435331580Y-92178420D02*
X435331580Y-39831580D01*
X310080412Y-122428000D02*
X284488000Y-122428000D01*
X284488000Y-122428000D02*
X279630000Y-117570000D01*
X315348750Y-136620000D02*
X315348750Y-127696338D01*
X315348750Y-127696338D02*
X310080412Y-122428000D01*
X255778000Y-37846000D02*
X255778000Y-60380500D01*
X255778000Y-60380500D02*
X255817500Y-60420000D01*
X265342500Y-79470000D02*
X265342500Y-69945000D01*
X265342500Y-69945000D02*
X255817500Y-60420000D01*
X246292500Y-79470000D02*
X246292500Y-69945000D01*
X246292500Y-69945000D02*
X236767500Y-60420000D01*
X251055000Y-98520000D02*
X251055000Y-84232500D01*
X251055000Y-84232500D02*
X246292500Y-79470000D01*
X270105000Y-98520000D02*
X270105000Y-84232500D01*
X270105000Y-84232500D02*
X265342500Y-79470000D01*
X279630000Y-117570000D02*
X279630000Y-108045000D01*
X279630000Y-108045000D02*
X270105000Y-98520000D01*
X260580000Y-117570000D02*
X260580000Y-108045000D01*
X260580000Y-108045000D02*
X251055000Y-98520000D01*
X409380000Y-88000000D02*
X409380000Y-83070000D01*
X409380000Y-83070000D02*
X412980000Y-79470000D01*
X412980000Y-79470000D02*
X412980000Y-60420000D01*
X432030000Y-79470000D02*
X432030000Y-60420000D01*
X417500000Y-25500000D02*
X418384209Y-26384209D01*
X418384209Y-26384209D02*
X418384209Y-64884209D01*
X418384209Y-64884209D02*
X420886290Y-67386290D01*
X420886290Y-67386290D02*
X420886290Y-100515290D01*
X420886290Y-100515290D02*
X422080000Y-101709000D01*
X422080000Y-101709000D02*
X422080000Y-103240000D01*
X227242500Y-79470000D02*
X227242500Y-69945000D01*
X227242500Y-69945000D02*
X217717500Y-60420000D01*
X217678000Y-36576000D02*
X217678000Y-60380500D01*
X217678000Y-60380500D02*
X217717500Y-60420000D01*
X243911250Y-136620000D02*
X243911250Y-119951250D01*
X243911250Y-119951250D02*
X241530000Y-117570000D01*
X241530000Y-117570000D02*
X241530000Y-108045000D01*
X241530000Y-108045000D02*
X232005000Y-98520000D01*
X222480000Y-117570000D02*
X222480000Y-108045000D01*
X222480000Y-108045000D02*
X212955000Y-98520000D01*
X232005000Y-98520000D02*
X232005000Y-84232500D01*
X232005000Y-84232500D02*
X227242500Y-79470000D01*
X212955000Y-98520000D02*
X212955000Y-84232500D01*
X212955000Y-84232500D02*
X208192500Y-79470000D01*
X208192500Y-79470000D02*
X208192500Y-69945000D01*
X208192500Y-69945000D02*
X198667500Y-60420000D01*
X435500000Y-26000000D02*
X436500000Y-27000000D01*
X436500000Y-27000000D02*
X436500000Y-94909000D01*
X436500000Y-94909000D02*
X429700000Y-101709000D01*
X429700000Y-101709000D02*
X429700000Y-103240000D01*
X332000000Y-37500000D02*
X332000000Y-60402500D01*
X332000000Y-60402500D02*
X332017500Y-60420000D01*
X322492500Y-79470000D02*
X322492500Y-69945000D01*
X322492500Y-69945000D02*
X312967500Y-60420000D01*
X341542500Y-79470000D02*
X341542500Y-69945000D01*
X341542500Y-69945000D02*
X332017500Y-60420000D01*
X346305000Y-98520000D02*
X346305000Y-84232500D01*
X346305000Y-84232500D02*
X341542500Y-79470000D01*
X327255000Y-98520000D02*
X327255000Y-84232500D01*
X327255000Y-84232500D02*
X322492500Y-79470000D01*
X336780000Y-117570000D02*
X336780000Y-108045000D01*
X336780000Y-108045000D02*
X327255000Y-98520000D01*
X362973750Y-136620000D02*
X362973750Y-127095000D01*
X362973750Y-127095000D02*
X372498750Y-117570000D01*
X417500000Y-39500000D02*
X416500000Y-38500000D01*
X418346290Y-87282486D02*
X417500000Y-86436196D01*
X417500000Y-86436196D02*
X417500000Y-39500000D01*
X419540000Y-103240000D02*
X419540000Y-90038160D01*
X419540000Y-90038160D02*
X418346290Y-88844450D01*
X418346290Y-88844450D02*
X418346290Y-87282486D01*
X189142500Y-79470000D02*
X189142500Y-69945000D01*
X189142500Y-69945000D02*
X179617500Y-60420000D01*
X184380000Y-117570000D02*
X184380000Y-121276732D01*
X184380000Y-121276732D02*
X172473750Y-133182982D01*
X172473750Y-133182982D02*
X172473750Y-134610822D01*
X172473750Y-134610822D02*
X172473750Y-136620000D01*
X184380000Y-117570000D02*
X184380000Y-108045000D01*
X184380000Y-108045000D02*
X174855000Y-98520000D01*
X203430000Y-117570000D02*
X203430000Y-108045000D01*
X203430000Y-108045000D02*
X193905000Y-98520000D01*
X193905000Y-98520000D02*
X193905000Y-84232500D01*
X193905000Y-84232500D02*
X189142500Y-79470000D01*
X174855000Y-98520000D02*
X174855000Y-84232500D01*
X174855000Y-84232500D02*
X170092500Y-79470000D01*
X170092500Y-79470000D02*
X170092500Y-69945000D01*
X170092500Y-69945000D02*
X160567500Y-60420000D01*
X179617500Y-60420000D02*
X181121690Y-58915810D01*
X181121690Y-58915810D02*
X181907672Y-58915810D01*
X181907672Y-58915810D02*
X198667500Y-42155982D01*
X198667500Y-42155982D02*
X198667500Y-33854178D01*
X198667500Y-33854178D02*
X198667500Y-31845000D01*
X415500000Y-47000000D02*
X415915790Y-47415790D01*
X415915790Y-47415790D02*
X415915790Y-80084210D01*
X413266290Y-89163486D02*
X414460000Y-90357196D01*
X415915790Y-80084210D02*
X413266290Y-82733710D01*
X413266290Y-82733710D02*
X413266290Y-89163486D01*
X414460000Y-90357196D02*
X414460000Y-103240000D01*
X98298000Y-133096000D02*
X98298000Y-127452000D01*
X98298000Y-127452000D02*
X98655000Y-127095000D01*
X79605000Y-117570000D02*
X79605000Y-136620000D01*
X98655000Y-60420000D02*
X98655000Y-36425000D01*
X98655000Y-36425000D02*
X98552000Y-36322000D01*
X79605000Y-31845000D02*
X79605000Y-60420000D01*
X79605000Y-98520000D02*
X79605000Y-117570000D01*
X79605000Y-79470000D02*
X79605000Y-98520000D01*
X79605000Y-60420000D02*
X79605000Y-62429178D01*
X79605000Y-62429178D02*
X79605000Y-79470000D01*
X415500000Y-110500000D02*
X415804799Y-110195201D01*
X415804799Y-110195201D02*
X415804799Y-90875799D01*
X415804799Y-90875799D02*
X415653710Y-90724710D01*
X333902540Y-90250520D02*
X333902540Y-91481150D01*
X333902540Y-91481150D02*
X336000000Y-93578610D01*
X336000000Y-93578610D02*
X336000000Y-105000000D01*
X414460000Y-88000000D02*
X414460000Y-89531000D01*
X414460000Y-89531000D02*
X415653710Y-90724710D01*
X86252540Y-118825520D02*
X86252540Y-117594890D01*
X86252540Y-117594890D02*
X84948845Y-116291195D01*
X84948845Y-116291195D02*
X84948845Y-92445144D01*
X384000000Y-120000000D02*
X384000000Y-124647430D01*
X384000000Y-124647430D02*
X381527540Y-127119890D01*
X381527540Y-127119890D02*
X381527540Y-128350520D01*
X382949451Y-118949451D02*
X384000000Y-120000000D01*
X382500000Y-90500000D02*
X382949451Y-90949451D01*
X382949451Y-90949451D02*
X382949451Y-118949451D01*
X326500000Y-126500000D02*
X326500000Y-110192350D01*
X326500000Y-110192350D02*
X325608170Y-109300520D01*
X325608170Y-109300520D02*
X324377540Y-109300520D01*
X65024000Y-122682000D02*
X65024000Y-110248430D01*
X65024000Y-110248430D02*
X65971910Y-109300520D01*
X65971910Y-109300520D02*
X67202540Y-109300520D01*
X400577540Y-128350520D02*
X400577540Y-127119890D01*
X400577540Y-127119890D02*
X403000000Y-124697430D01*
X403000000Y-124697430D02*
X403000000Y-92500000D01*
X362000000Y-125500000D02*
X362000000Y-109973600D01*
X362000000Y-109973600D02*
X361326920Y-109300520D01*
X361326920Y-109300520D02*
X360096290Y-109300520D01*
X112268000Y-114046000D02*
X112268000Y-128172230D01*
X112268000Y-128172230D02*
X112446290Y-128350520D01*
X418193710Y-102395550D02*
X418193710Y-93806290D01*
X418193710Y-93806290D02*
X418500000Y-93500000D01*
X418193710Y-102395550D02*
X418193710Y-125686060D01*
X418193710Y-125686060D02*
X419627540Y-127119890D01*
X419627540Y-127119890D02*
X419627540Y-128350520D01*
M02*
